<svg width="61" height="61" viewBox="0 0 61 61" fill="none" xmlns="http://www.w3.org/2000/svg">
<path fill-rule="evenodd" clip-rule="evenodd" d="M29.1417 18.9079L25.875 23.0037C16.7365 32.5136 10.3974 43.1368 6.85834 54.875C13.0218 54.739 19.0401 53.538 24.9119 51.272C32.5343 48.3278 37.9407 44.0763 41.1292 38.5181V38.4885C42.1203 36.7645 43.3453 33.8018 44.8036 29.5991H44.8333C46.6218 24.5243 47.9927 20.9695 48.9464 18.9358C51.0464 14.2875 53.5641 10.7821 56.5 8.41895C49.4224 6.88965 44.2798 6.125 41.0714 6.125C27.3036 6.125 17.4068 9.70771 11.3798 16.8743C6.45992 22.7812 4 31.3899 4 42.701C4 45.4906 4.35992 48.4045 5.07917 51.4463C5.07917 51.4655 5.08967 51.4939 5.10892 51.5334C8.88075 40.5326 16.8917 29.6572 29.1417 18.9079Z" fill="url(#paint0_linear_17773_141844)"/>
<defs>
<linearGradient id="paint0_linear_17773_141844" x1="4.24305" y1="22.2734" x2="55.5278" y2="22.2734" gradientUnits="userSpaceOnUse">
<stop stop-color="#072D94"/>
<stop offset="1" stop-color="#597BD9"/>
</linearGradient>
</defs>
</svg>
