<svg width="81" height="80" viewBox="0 0 81 80" fill="none" xmlns="http://www.w3.org/2000/svg">
<path fill-rule="evenodd" clip-rule="evenodd" d="M67.7221 21.5278L72.3888 25.0278C73.3548 25.7523 74.1388 26.6917 74.6788 27.7717C75.2188 28.8517 75.4999 30.0425 75.4999 31.25V67.2222C75.4999 69.285 74.6805 71.2633 73.2218 72.7219C71.7632 74.1806 69.7849 75 67.7221 75H40.4999V55.5556H71.611V36.1111H40.4999V20.5556C39.9842 20.5556 39.4896 20.3507 39.125 19.986C38.7603 19.6214 38.5555 19.1268 38.5555 18.6111V6.94444C38.5555 6.42875 38.7603 5.93417 39.125 5.56951C39.4896 5.20486 39.9842 5 40.4999 5H67.7221C68.2378 5 68.7324 5.20486 69.0971 5.56951C69.4617 5.93417 69.6666 6.42875 69.6666 6.94444V18.6111C69.6666 19.1268 69.4617 19.6214 69.0971 19.986C68.7324 20.3507 68.2378 20.5556 67.7221 20.5556V21.5278ZM65.7777 8.88889H42.4444V16.6667H65.7777V8.88889ZM44.9583 66.6527C45.323 67.0174 45.8175 67.2222 46.3332 67.2222H71.611V63.3333H46.3332C45.8175 63.3333 45.323 63.5382 44.9583 63.9028C44.5937 64.2675 44.3888 64.7621 44.3888 65.2778C44.3888 65.7935 44.5937 66.2881 44.9583 66.6527Z" fill="#325DCD"/>
<path fill-rule="evenodd" clip-rule="evenodd" d="M34.6667 20.5556H7.44444C6.92875 20.5556 6.43417 20.7605 6.06951 21.1251C5.70486 21.4898 5.5 21.9844 5.5 22.5V73.0556C5.5 73.5713 5.70486 74.0659 6.06951 74.4305C6.43417 74.7952 6.92875 75 7.44444 75H34.6667C34.8796 75.0007 35.0907 74.9611 35.2889 74.8834C35.672 74.754 36.0052 74.5084 36.2422 74.1808C36.4791 73.8532 36.6081 73.4599 36.6111 73.0556V22.5C36.6094 22.2103 36.543 21.9247 36.4167 21.6639C36.2591 21.333 36.0112 21.0534 35.7015 20.8573C35.3919 20.6612 35.0332 20.5566 34.6667 20.5556ZM15.2222 65.2778C14.4531 65.2778 13.7012 65.0498 13.0617 64.6224C12.4221 64.1951 11.9237 63.5878 11.6294 62.8772C11.335 62.1665 11.258 61.3846 11.4081 60.6302C11.5581 59.8759 11.9285 59.1829 12.4724 58.6391C13.0162 58.0952 13.7092 57.7248 14.4635 57.5748C15.2179 57.4247 15.9998 57.5017 16.7104 57.7961C17.421 58.0904 18.0284 58.5889 18.4557 59.2284C18.883 59.8679 19.1111 60.6198 19.1111 61.3889C19.1111 62.4203 18.7014 63.4095 17.9721 64.1388C17.2428 64.8681 16.2536 65.2778 15.2222 65.2778ZM15.2222 51.6667C14.4531 51.6667 13.7012 51.4386 13.0617 51.0113C12.4221 50.584 11.9237 49.9766 11.6294 49.266C11.335 48.5554 11.258 47.7735 11.4081 47.0191C11.5581 46.2648 11.9285 45.5718 12.4724 45.028C13.0162 44.4841 13.7092 44.1137 14.4635 43.9637C15.2179 43.8136 15.9998 43.8906 16.7104 44.185C17.421 44.4793 18.0284 44.9777 18.4557 45.6173C18.883 46.2568 19.1111 47.0087 19.1111 47.7778C19.1111 48.8092 18.7014 49.7984 17.9721 50.5277C17.2428 51.257 16.2536 51.6667 15.2222 51.6667ZM15.2222 38.0556C14.4531 38.0556 13.7012 37.8275 13.0617 37.4002C12.4221 36.9729 11.9237 36.3655 11.6294 35.6549C11.335 34.9443 11.258 34.1624 11.4081 33.408C11.5581 32.6537 11.9285 31.9607 12.4724 31.4169C13.0162 30.873 13.7092 30.5026 14.4635 30.3526C15.2179 30.2025 15.9998 30.2795 16.7104 30.5738C17.421 30.8682 18.0284 31.3666 18.4557 32.0062C18.883 32.6457 19.1111 33.3976 19.1111 34.1667C19.1111 35.1981 18.7014 36.1873 17.9721 36.9166C17.2428 37.6459 16.2536 38.0556 15.2222 38.0556ZM26.8889 65.2778C26.1197 65.2778 25.3679 65.0498 24.7283 64.6224C24.0888 64.1951 23.5904 63.5878 23.296 62.8772C23.0017 62.1665 22.9247 61.3846 23.0747 60.6302C23.2248 59.8759 23.5952 59.1829 24.139 58.6391C24.6829 58.0952 25.3758 57.7248 26.1302 57.5748C26.8846 57.4247 27.6665 57.5017 28.3771 57.7961C29.0877 58.0904 29.6951 58.5889 30.1224 59.2284C30.5497 59.8679 30.7778 60.6198 30.7778 61.3889C30.7778 62.4203 30.3681 63.4095 29.6387 64.1388C28.9094 64.8681 27.9203 65.2778 26.8889 65.2778ZM26.8889 51.6667C26.1197 51.6667 25.3679 51.4386 24.7283 51.0113C24.0888 50.584 23.5904 49.9766 23.296 49.266C23.0017 48.5554 22.9247 47.7735 23.0747 47.0191C23.2248 46.2648 23.5952 45.5718 24.139 45.028C24.6829 44.4841 25.3758 44.1137 26.1302 43.9637C26.8846 43.8136 27.6665 43.8906 28.3771 44.185C29.0877 44.4793 29.6951 44.9777 30.1224 45.6173C30.5497 46.2568 30.7778 47.0087 30.7778 47.7778C30.7778 48.8092 30.3681 49.7984 29.6387 50.5277C28.9094 51.257 27.9203 51.6667 26.8889 51.6667ZM26.8889 38.0556C26.1197 38.0556 25.3679 37.8275 24.7283 37.4002C24.0888 36.9729 23.5904 36.3655 23.296 35.6549C23.0017 34.9443 22.9247 34.1624 23.0747 33.408C23.2248 32.6537 23.5952 31.9607 24.139 31.4169C24.6829 30.873 25.3758 30.5026 26.1302 30.3526C26.8846 30.2025 27.6665 30.2795 28.3771 30.5738C29.0877 30.8682 29.6951 31.3666 30.1224 32.0062C30.5497 32.6457 30.7778 33.3976 30.7778 34.1667C30.7778 35.1981 30.3681 36.1873 29.6387 36.9166C28.9094 37.6459 27.9203 38.0556 26.8889 38.0556Z" fill="#325DCD"/>
<path d="M54.1111 38.0556C53.5954 38.0556 53.1008 38.2605 52.7362 38.6251C52.3715 38.9898 52.1667 39.4843 52.1667 40V43.8889H48.2778C47.7621 43.8889 47.2675 44.0938 46.9029 44.4585C46.5382 44.8231 46.3333 45.3177 46.3333 45.8334C46.3333 46.3491 46.5382 46.8437 46.9029 47.2083C47.2675 47.573 47.7621 47.7778 48.2778 47.7778H52.1667V51.6667C52.1667 52.1824 52.3715 52.677 52.7362 53.0416C53.1008 53.4063 53.5954 53.6112 54.1111 53.6112C54.6268 53.6112 55.1214 53.4063 55.486 53.0416C55.8507 52.677 56.0556 52.1824 56.0556 51.6667V47.7778H59.9445C60.4602 47.7778 60.9547 47.573 61.3194 47.2083C61.684 46.8437 61.8889 46.3491 61.8889 45.8334C61.8889 45.3177 61.684 44.8231 61.3194 44.4585C60.9547 44.0938 60.4602 43.8889 59.9445 43.8889H56.0556V40C56.0556 39.4843 55.8507 38.9898 55.486 38.6251C55.1214 38.2605 54.6268 38.0556 54.1111 38.0556Z" fill="#325DCD"/>
</svg>
