<svg width="50" height="56" viewBox="0 0 50 56" fill="none" xmlns="http://www.w3.org/2000/svg">
<path d="M12.6703 51.153C12.7202 51.0052 12.7524 50.8475 12.8237 50.7119C13.2926 49.8241 14.0163 49.1518 14.8548 48.6594C16.0174 47.9771 17.2092 47.3084 18.461 46.8224C20.3272 46.098 22.2598 45.5478 24.1582 44.9041C24.8034 44.6857 25.365 44.3324 25.6134 43.643C25.744 43.2812 25.6476 43.0514 25.2751 42.9636C24.7912 42.8501 24.2967 42.7402 23.8035 42.7231C21.7831 42.6524 19.7613 42.6296 17.7402 42.5661C15.5407 42.4969 13.4018 42.1151 11.3357 41.3229C10.1146 40.8547 9.06911 40.1639 8.31263 39.1027C7.32063 37.7117 7.0844 36.1374 7.38129 34.4795C7.83661 31.9381 9.36457 30.3067 11.7518 29.4432C13.6444 28.7588 15.6085 28.6638 17.5917 28.8301C20.1017 29.0407 22.5118 29.7222 24.9247 30.3988C27.6887 31.1738 30.4956 31.7333 33.3838 31.6948C35.1915 31.6705 36.9564 31.3901 38.5857 30.5308C40.1308 29.7158 41.3134 28.5211 42.2026 27.0352C43.2624 25.2639 43.9454 23.3449 44.2765 21.3123C44.7368 18.4869 44.6883 15.6851 43.5115 13.0202C43.1468 12.1945 42.5944 11.4387 42.0513 10.7087C41.3348 9.74521 40.5219 8.84456 39.5228 8.17014C38.742 7.64274 37.9013 7.18885 37.0471 6.78705C35.796 6.19899 34.4657 5.8393 33.094 5.64304C32.2662 5.52457 31.5668 5.75295 31.0216 6.40167C30.6176 6.88268 30.2365 7.38368 29.8126 7.84614C29.0868 8.63759 28.1519 9.155 27.2234 9.64886C26.0623 10.2669 24.864 10.8207 23.6558 11.3431C22.7537 11.7335 21.8245 12.0818 20.8068 12.0382C20.4635 12.0239 20.1759 11.9462 20.0917 11.6243C19.5365 11.7649 19.0062 11.9519 18.461 12.0261C17.5696 12.1467 17.2535 11.762 17.4825 10.9013C18.2811 7.89895 19.7285 5.29406 22.1671 3.30221C23.4203 2.27881 24.8583 1.62223 26.4041 1.1819C28.3182 0.636659 30.2708 0.40543 32.2555 0.535318C35.163 0.726581 37.8606 1.58084 40.3535 3.10881C42.6329 4.50617 44.5027 6.34886 46.1906 8.38424C47.8113 10.3383 48.6984 12.6356 49.183 15.112C49.8181 18.3599 49.537 21.5479 48.6085 24.6937C48.0625 26.545 47.2989 28.3127 46.294 29.9613C45.3427 31.5207 44.071 32.7888 42.5972 33.87C39.9317 35.8248 36.9065 36.5748 33.6593 36.6355C31.003 36.6855 28.3974 36.3051 25.826 35.6813C24.1782 35.2817 22.551 34.7964 20.9082 34.3746C19.1797 33.9314 17.4305 33.5881 15.6363 33.6053C14.6357 33.6146 13.6416 33.7073 12.7267 34.1833C11.6769 34.7293 11.5534 36.3686 12.5304 37.0237C13.3939 37.6025 14.3788 37.9016 15.3872 38.0664C16.9444 38.3205 18.5124 38.511 20.0782 38.713C21.8666 38.9442 23.69 38.8907 25.4492 39.3617C26.6632 39.6864 27.7544 40.2281 28.4267 41.3393C29.1453 42.5276 29.0925 43.7636 28.4445 44.969C27.5567 46.6204 26.0958 47.414 24.2981 47.7074C21.4384 48.1741 18.5752 48.6508 15.8447 49.6521C14.8727 50.0089 13.9784 50.5792 13.0492 51.053C12.9493 51.1037 12.8508 51.1587 12.7516 51.2115C12.7252 51.1922 12.6974 51.1729 12.6703 51.153ZM22.4632 7.51927C22.4697 7.95604 22.7608 8.19298 23.189 8.10948C23.7714 7.99601 24.3423 7.34157 24.3773 6.74851C24.403 6.30889 24.0911 6.02628 23.6593 6.09836C23.0656 6.19685 22.4547 6.92265 22.4632 7.51927Z" fill="url(#paint0_linear_17773_141873)"/>
<path d="M0.972656 15.6875C12.7246 15.6875 24.3681 15.6875 36.0716 15.6875C35.9909 15.8424 35.9324 15.9787 35.8539 16.1014C34.62 18.0298 32.9907 19.5699 31.1615 20.9237C29.792 21.9378 28.3361 22.8078 26.8139 23.5621C24.9305 24.4956 22.9729 25.2542 20.9654 25.8794C20.8869 25.9037 20.8105 25.9372 20.7034 25.9772C20.7034 26.5524 20.7034 27.1312 20.7034 27.7021C19.2647 27.5358 17.8559 27.3738 16.405 27.2068C16.405 26.8414 16.405 26.4196 16.405 25.9829C15.9554 25.8287 15.5343 25.6796 15.1104 25.539C11.9703 24.5006 9.00428 23.1039 6.29448 21.197C4.64519 20.0366 3.15577 18.6935 1.9147 17.0956C1.58998 16.6752 1.32093 16.2113 0.972656 15.6875Z" fill="url(#paint1_linear_17773_141873)"/>
<path d="M10.0352 55.4978C10.0352 54.6057 10.0352 53.7436 10.0352 52.8472C12.1419 52.8472 14.228 52.8472 16.3832 52.8472C16.3832 52.3834 16.4075 51.9487 16.3761 51.5177C16.349 51.1473 16.4632 50.9803 16.8428 50.8889C18.0404 50.6006 19.2272 50.2666 20.4183 49.9533C20.4968 49.9326 20.5803 49.9312 20.7102 49.9141C20.7102 50.2031 20.7102 50.4729 20.7102 50.7433C20.7102 51.29 20.7309 51.8381 20.7031 52.3834C20.6852 52.7302 20.7644 52.8494 21.1448 52.8451C22.9618 52.823 24.7795 52.8365 26.5965 52.838C26.7378 52.838 26.8792 52.838 27.0483 52.838C27.0483 53.7336 27.0483 54.6043 27.0483 55.4992C21.3739 55.4978 15.7238 55.4978 10.0352 55.4978Z" fill="url(#paint2_linear_17773_141873)"/>
<path d="M16.3812 35.1406C17.8777 35.182 19.2729 35.5517 20.6931 35.8621C20.6931 36.331 20.6931 36.7756 20.6931 37.2588C20.0216 37.1946 19.375 37.1417 18.7313 37.0675C18.0369 36.9876 17.346 36.8813 16.6516 36.7992C16.4646 36.7771 16.3754 36.7143 16.379 36.5151C16.3869 36.077 16.3812 35.6388 16.3812 35.1406Z" fill="url(#paint3_linear_17773_141873)"/>
<path d="M16.4023 45.981C16.4023 45.3337 16.4023 44.6864 16.4023 44.1027C17.3844 44.1027 18.3435 44.0991 19.302 44.1048C19.7059 44.1069 20.1106 44.1248 20.5138 44.1476C20.5773 44.1512 20.6373 44.2204 20.6986 44.259C20.6537 44.316 20.6208 44.4045 20.563 44.4267C19.1878 44.9448 17.8104 45.4565 16.4023 45.981Z" fill="url(#paint4_linear_17773_141873)"/>
<path d="M19.953 15.3381C20.0051 15.0741 20.0607 14.8107 20.1078 14.5459C20.1521 14.2933 20.1871 14.0385 20.2256 13.7845C20.1913 13.7588 20.1571 13.7331 20.1235 13.7074C19.7396 14.0128 19.3556 14.3176 18.971 14.623C18.9403 14.5988 18.9096 14.5738 18.8789 14.5495C19.2993 13.8337 19.7189 13.1179 20.1507 12.3828C20.7287 12.7496 21.3018 12.5477 21.9384 12.4649C21.2882 13.4597 20.6674 14.4103 20.0458 15.3617C20.0144 15.3531 19.9837 15.346 19.953 15.3381Z" fill="url(#paint5_linear_17773_141873)"/>
<defs>
<linearGradient id="paint0_linear_17773_141873" x1="49.3297" y1="17.2982" x2="8.04438" y2="17.2982" gradientUnits="userSpaceOnUse">
<stop stop-color="#072D94"/>
<stop offset="1" stop-color="#597BD9"/>
</linearGradient>
<linearGradient id="paint1_linear_17773_141873" x1="35.9091" y1="19.6673" x2="1.62264" y2="19.6673" gradientUnits="userSpaceOnUse">
<stop stop-color="#072D94"/>
<stop offset="1" stop-color="#597BD9"/>
</linearGradient>
<linearGradient id="paint2_linear_17773_141873" x1="26.9695" y1="51.7641" x2="10.3502" y2="51.7641" gradientUnits="userSpaceOnUse">
<stop stop-color="#072D94"/>
<stop offset="1" stop-color="#597BD9"/>
</linearGradient>
<linearGradient id="paint3_linear_17773_141873" x1="20.6732" y1="35.8423" x2="16.4588" y2="35.8423" gradientUnits="userSpaceOnUse">
<stop stop-color="#072D94"/>
<stop offset="1" stop-color="#597BD9"/>
</linearGradient>
<linearGradient id="paint4_linear_17773_141873" x1="20.6787" y1="44.7241" x2="16.4819" y2="44.7241" gradientUnits="userSpaceOnUse">
<stop stop-color="#072D94"/>
<stop offset="1" stop-color="#597BD9"/>
</linearGradient>
<linearGradient id="paint5_linear_17773_141873" x1="21.9242" y1="13.3696" x2="18.9356" y2="13.3696" gradientUnits="userSpaceOnUse">
<stop stop-color="#072D94"/>
<stop offset="1" stop-color="#597BD9"/>
</linearGradient>
</defs>
</svg>
