<svg width="51" height="56" viewBox="0 0 51 56" fill="none" xmlns="http://www.w3.org/2000/svg">
<path d="M25.2311 55.4965C24.2645 55.1038 23.3587 54.736 22.4528 54.3683C17.6693 52.4244 12.8851 50.4818 8.10156 48.5355C5.79248 47.5958 3.48715 46.6467 1.17556 45.7133C0.934379 45.6156 0.839786 45.4784 0.8354 45.2303C0.822245 44.4579 0.779647 43.6861 0.77902 42.9137C0.771503 36.4212 0.768997 29.9287 0.769623 23.4362C0.769623 22.8104 0.796561 22.1839 0.81786 21.5581C0.823498 21.3946 0.855447 21.2317 0.881757 21.0156C1.07282 21.0877 1.22505 21.1415 1.37477 21.2023C5.71668 22.9582 10.0605 24.7104 14.3999 26.4726C17.8986 27.8934 21.391 29.3298 24.891 30.7487C25.1334 30.8471 25.2211 30.9755 25.2217 31.2273C25.2286 33.5652 25.2549 35.9038 25.2543 38.2417C25.2524 43.8471 25.2393 49.4526 25.2305 55.058C25.2305 55.1821 25.2311 55.3061 25.2311 55.4965ZM22.1753 48.5229C22.191 48.3056 22.2117 48.1508 22.2123 47.9961C22.2305 45.5542 22.243 43.1117 22.2687 40.6698C22.2712 40.4449 22.1766 40.3653 21.9918 40.2914C20.2784 39.6036 18.5682 38.9082 16.8568 38.2166C16.7754 38.1834 16.6883 38.164 16.5862 38.1327C16.5761 38.2185 16.5649 38.2692 16.5655 38.3194C16.5818 40.9078 16.6012 43.4963 16.6106 46.0848C16.6112 46.2865 16.7089 46.3498 16.8674 46.4131C18.3008 46.9863 19.7309 47.567 21.1636 48.142C21.4806 48.268 21.8026 48.382 22.1753 48.5229ZM15.4041 45.8123C15.4141 45.7008 15.4222 45.6488 15.4229 45.5974C15.4442 43.0196 15.4629 40.4418 15.4899 37.8639C15.4918 37.6704 15.3859 37.6234 15.2431 37.5651C13.9664 37.0489 12.6922 36.5271 11.4173 36.0078C10.9651 35.8236 10.5121 35.6419 10.0335 35.449C10.0229 35.5611 10.0085 35.64 10.0078 35.7196C10.0066 38.2768 10.0091 40.8345 10.0028 43.3917C10.0022 43.5796 10.0705 43.6642 10.2403 43.7312C11.3848 44.1842 12.5255 44.6477 13.6669 45.1082C14.2351 45.3374 14.802 45.568 15.4041 45.8123ZM8.88212 43.1468C8.88963 42.997 8.8984 42.9037 8.89903 42.811C8.9078 41.5067 8.92534 40.2025 8.9197 38.8982C8.91407 37.6885 8.88086 36.4789 8.8652 35.2692C8.86207 35.0393 8.76121 34.9234 8.54697 34.8382C7.18069 34.2957 5.82004 33.7394 4.45627 33.1894C4.25643 33.1092 4.05283 33.039 3.81228 32.9501C3.80038 33.1462 3.78346 33.299 3.78284 33.4512C3.77657 35.0574 3.76529 36.6643 3.77031 38.2711C3.77344 39.1156 3.8104 39.96 3.82355 40.8051C3.82731 41.0356 3.92379 41.1528 4.14116 41.2386C5.42977 41.7504 6.7121 42.2791 7.99695 42.8003C8.27572 42.9137 8.55636 43.0196 8.88212 43.1468Z" fill="url(#paint0_linear_17773_141863)"/>
<path d="M50.7063 20.7344C50.7131 20.8785 50.7213 20.9712 50.7213 21.0639C50.7257 28.684 50.7301 36.3035 50.7319 43.9236C50.7319 44.2888 50.7081 44.654 50.7119 45.0192C50.7144 45.2328 50.643 45.3481 50.4337 45.4358C47.3911 46.7038 44.3541 47.9855 41.3127 49.2571C36.4521 51.2887 31.5896 53.3147 26.7271 55.3425C26.6231 55.3857 26.5172 55.4251 26.3744 55.4815C26.3681 55.35 26.3594 55.251 26.3594 55.152C26.375 47.1773 26.3932 39.2027 26.4013 31.2274C26.4013 30.948 26.4765 30.8102 26.7453 30.6986C34.6347 27.4198 42.5198 24.1316 50.4062 20.8453C50.4901 20.8095 50.5778 20.7814 50.7063 20.7344ZM44.6404 35.2222C44.5119 35.2579 44.4211 35.2736 44.3372 35.308C42.6407 36.0065 40.9431 36.7038 39.2523 37.4173C39.1558 37.458 39.0568 37.6309 39.0568 37.7424C39.0637 41.6439 39.0813 45.5461 39.0994 49.4476C39.1001 49.5892 39.117 49.7301 39.1295 49.9181C39.3381 49.8379 39.5016 49.779 39.662 49.7126C41.2306 49.0586 42.7967 48.3983 44.3691 47.7543C44.6059 47.6572 44.6961 47.5426 44.6961 47.2788C44.7005 44.3471 44.7243 41.4159 44.7306 38.4841C44.7325 37.5144 44.7011 36.5447 44.6817 35.5743C44.6798 35.4653 44.6567 35.3569 44.6404 35.2222ZM37.8935 38.0043C37.7313 38.0619 37.6041 38.1001 37.4826 38.1509C35.8952 38.8136 34.3109 39.4839 32.7184 40.1361C32.471 40.2376 32.3758 40.3516 32.377 40.6297C32.3896 43.6868 32.382 46.7432 32.3896 49.8003C32.3914 50.6447 32.4234 51.4898 32.4459 52.3343C32.4491 52.4426 32.4798 52.5498 32.4998 52.6688C32.5762 52.65 32.6176 52.645 32.6545 52.6293C34.3597 51.9233 36.0637 51.2148 37.7707 50.5138C37.9399 50.4443 37.9725 50.3409 37.9718 50.178C37.9549 46.3179 37.9424 42.4577 37.9267 38.5975C37.9267 38.4133 37.9073 38.2292 37.8935 38.0043Z" fill="url(#paint1_linear_17773_141863)"/>
<path d="M13.9559 12.9239C13.7341 6.64748 19.0715 0.577833 26.1321 0.50078C33.2354 0.4231 38.7381 6.15885 38.725 12.9232C38.7112 19.7409 33.1565 25.2586 26.2781 25.2592C19.3972 25.2611 13.7943 19.4627 13.9559 12.9239ZM18.5183 10.7081C18.5183 12.1928 18.5183 13.628 18.5183 15.0976C20.3776 15.0976 22.2194 15.0976 24.1018 15.0976C24.1018 16.972 24.1018 18.8131 24.1018 20.6718C25.5871 20.6718 27.0311 20.6718 28.5095 20.6718C28.5095 18.8112 28.5095 16.9701 28.5095 15.0932C30.3851 15.0932 32.2256 15.0932 34.0736 15.0932C34.0736 13.6142 34.0736 12.1715 34.0736 10.6918C32.2068 10.6918 30.3663 10.6918 28.492 10.6918C28.492 8.81311 28.492 6.97198 28.492 5.13586C27.0136 5.13586 25.5696 5.13586 24.0843 5.13586C24.0843 7.0033 24.0843 8.84381 24.0843 10.7081C22.2093 10.7081 20.3757 10.7081 18.5183 10.7081Z" fill="url(#paint2_linear_17773_141863)"/>
<path d="M1.97844 20.1045C5.52163 18.774 9.06481 17.444 12.598 16.1172C14.8112 22.6592 19.0842 26.7023 26.1768 26.7737C33.257 26.8451 37.617 22.916 39.9731 16.3715C43.1799 17.5311 46.4186 18.7025 49.658 19.874C49.6542 19.9059 49.6498 19.9385 49.6461 19.9705C49.2289 20.1515 48.8129 20.3369 48.3932 20.513C40.9817 23.6114 33.5696 26.7079 26.1606 29.8113C25.9012 29.9203 25.6857 29.9253 25.422 29.817C17.9297 26.7493 10.4342 23.6916 2.94004 20.6301C2.61554 20.4979 2.29793 20.3501 1.97656 20.2098C1.97719 20.1747 1.97782 20.1396 1.97844 20.1045Z" fill="url(#paint3_linear_17773_141863)"/>
<defs>
<linearGradient id="paint0_linear_17773_141863" x1="25.141" y1="32.4374" x2="1.22295" y2="32.4374" gradientUnits="userSpaceOnUse">
<stop stop-color="#072D94"/>
<stop offset="1" stop-color="#597BD9"/>
</linearGradient>
<linearGradient id="paint1_linear_17773_141863" x1="50.6191" y1="32.2444" x2="26.8107" y2="32.2444" gradientUnits="userSpaceOnUse">
<stop stop-color="#072D94"/>
<stop offset="1" stop-color="#597BD9"/>
</linearGradient>
<linearGradient id="paint2_linear_17773_141863" x1="38.6103" y1="8.7015" x2="14.408" y2="8.7015" gradientUnits="userSpaceOnUse">
<stop stop-color="#072D94"/>
<stop offset="1" stop-color="#597BD9"/>
</linearGradient>
<linearGradient id="paint3_linear_17773_141863" x1="49.4372" y1="20.6813" x2="2.85955" y2="20.6813" gradientUnits="userSpaceOnUse">
<stop stop-color="#072D94"/>
<stop offset="1" stop-color="#597BD9"/>
</linearGradient>
</defs>
</svg>
