<svg width="81" height="56" viewBox="0 0 81 56" fill="none" xmlns="http://www.w3.org/2000/svg">
<path d="M0.554688 55.5C0.554688 53.5487 0.554688 51.672 0.554688 49.6993C2.15414 49.6993 3.71095 49.6993 5.33173 49.6993C5.29974 49.1342 5.26775 48.6756 5.26775 48.2171C5.26775 37.5754 5.26775 26.923 5.26775 16.2813C5.26775 15.9721 5.27842 15.6735 5.31041 15.3643C5.47035 13.9888 6.52599 12.9118 7.90153 12.9011C12.9985 12.8691 18.1061 12.8798 23.203 12.8798C23.2776 12.8798 23.3523 12.9224 23.5229 12.9758C23.5229 13.317 23.5229 13.6689 23.5229 14.0207C23.5229 25.057 23.5229 36.0933 23.5229 47.1188C23.5229 47.4494 23.5122 47.7799 23.5336 48.1212C23.6508 49.8166 23.8321 49.9445 25.5062 49.6033C25.5062 47.7906 25.5062 45.9886 25.5062 44.1972C25.5062 30.8577 25.5062 17.5289 25.5062 4.18941C25.5062 3.68825 25.5275 3.18709 25.6235 2.70725C25.8474 1.58763 26.7751 0.74525 27.9054 0.574641C28.204 0.531989 28.5132 0.510663 28.8118 0.510663C36.7984 0.510663 44.7743 0.510663 52.761 0.5C54.1258 0.5 55.2348 0.937185 55.7573 2.27007C55.9599 2.77123 56.0025 3.34703 56.0132 3.89085C56.0345 7.40965 56.0239 10.9285 56.0239 14.4579C56.0239 25.0996 56.0239 35.752 56.0239 46.3938C56.0239 47.4387 56.0239 48.4944 56.0239 49.614C56.4824 49.614 57.0475 49.614 57.7833 49.614C57.8472 48.9102 57.9859 48.1638 57.9859 47.4067C57.9965 36.2852 57.9965 25.1743 57.9965 14.0527C57.9965 13.7009 57.9965 13.3383 57.9965 12.8691C58.3271 12.8691 58.5937 12.8691 58.8602 12.8691C63.6799 12.8691 68.5103 12.8691 73.33 12.8691C75.5692 12.8691 76.6569 13.9461 76.6569 16.1853C76.6569 26.8591 76.6569 37.5328 76.6569 48.2065C76.6569 48.665 76.5929 49.1342 76.5502 49.6673C78.0111 49.6673 79.4399 49.6673 80.9434 49.6673C80.9434 51.6293 80.9434 53.5273 80.9434 55.5C54.1791 55.5 27.3936 55.5 0.554688 55.5ZM40.7544 21.8048C46.2672 21.8154 50.7457 17.3476 50.7563 11.8242C50.767 6.3007 46.3205 1.81155 40.8077 1.7689C35.2842 1.73691 30.7631 6.25805 30.7631 11.8028C30.7738 17.3263 35.2309 21.7941 40.7544 21.8048ZM35.1563 49.4434C39.1549 49.4434 43.0896 49.4434 47.0136 49.4434C47.0136 44.4744 47.0136 39.5587 47.0136 34.6324C43.0363 34.6324 39.1123 34.6324 35.1563 34.6324C35.1563 39.5801 35.1563 44.4744 35.1563 49.4434ZM13.7449 20.0134C12.4013 20.0134 11.0898 20.0134 9.7569 20.0134C9.7569 21.3782 9.7569 22.6898 9.7569 23.9907C11.1218 23.9907 12.412 23.9907 13.7449 23.9907C13.7449 22.6471 13.7449 21.3676 13.7449 20.0134ZM16.1014 23.9694C17.4663 23.9694 18.7778 23.9694 20.0787 23.9694C20.0787 22.6152 20.0787 21.3249 20.0787 20.024C18.7245 20.024 17.413 20.024 16.1014 20.024C16.1014 21.3996 16.1014 22.6898 16.1014 23.9694ZM68.9368 20.0027C68.9368 21.3569 68.9368 22.6685 68.9368 23.9907C70.2803 23.9907 71.5706 23.9907 72.8928 23.9907C72.8928 22.6471 72.8928 21.3356 72.8928 20.0027C71.5386 20.0027 70.2484 20.0027 68.9368 20.0027ZM62.6136 20.0134C62.6136 21.3889 62.6136 22.7005 62.6136 23.98C63.9678 23.98 65.2474 23.98 66.559 23.98C66.559 22.6365 66.559 21.3463 66.559 20.0134C65.2261 20.0134 63.9465 20.0134 62.6136 20.0134ZM13.7449 26.9124C12.3693 26.9124 11.0791 26.9124 9.70358 26.9124C9.70358 28.1386 9.69292 29.3222 9.72491 30.4951C9.72491 30.6444 9.95949 30.9003 10.0875 30.911C11.2924 30.943 12.508 30.9323 13.7555 30.9323C13.7449 29.5461 13.7449 28.2666 13.7449 26.9124ZM20.1001 26.9337C18.7139 26.9337 17.413 26.9337 16.1014 26.9337C16.1014 28.2879 16.1014 29.5675 16.1014 30.8684C17.4663 30.8684 18.7672 30.8684 20.1001 30.8684C20.1001 29.5248 20.1001 28.2666 20.1001 26.9337ZM68.9261 26.9017C68.9261 28.2772 68.9261 29.5675 68.9261 30.8684C70.2804 30.8684 71.5812 30.8684 72.9035 30.8684C72.9035 29.5035 72.9035 28.2239 72.9035 26.9017C71.5599 26.9017 70.2697 26.9017 68.9261 26.9017ZM9.74623 34.0566C9.74623 35.4321 9.74623 36.7117 9.74623 38.0126C11.1111 38.0126 12.412 38.0126 13.7342 38.0126C13.7342 36.6584 13.7342 35.3682 13.7342 34.0566C12.3907 34.0566 11.1004 34.0566 9.74623 34.0566ZM20.0894 34.0779C18.7458 34.0779 17.4343 34.0779 16.0907 34.0779C16.0907 35.4108 16.0907 36.701 16.0907 38.0339C17.445 38.0339 18.7458 38.0339 20.0894 38.0339C20.0894 36.6797 20.0894 35.3895 20.0894 34.0779ZM68.9155 34.0566C68.9155 35.4108 68.9155 36.701 68.9155 38.0233C70.259 38.0233 71.5706 38.0233 72.9035 38.0233C72.9035 36.6691 72.9035 35.3895 72.9035 34.0566C71.5706 34.0566 70.2803 34.0566 68.9155 34.0566ZM62.603 26.9124C62.603 28.2986 62.603 29.5888 62.603 30.879C63.9465 30.879 65.2367 30.879 66.559 30.879C66.559 29.5248 66.559 28.2452 66.559 26.9124C65.2154 26.9124 63.9252 26.9124 62.603 26.9124ZM66.5696 34.0673C65.2047 34.0673 63.9145 34.0673 62.6136 34.0673C62.6136 35.4215 62.6136 36.733 62.6136 38.0233C63.9678 38.0233 65.2474 38.0233 66.5696 38.0233C66.5696 36.6797 66.5696 35.4108 66.5696 34.0673Z" fill="url(#paint0_linear_17761_140004)"/>
<path d="M47.0426 14.2749C45.763 14.2749 44.5794 14.2749 43.2892 14.2749C43.2892 15.5439 43.2892 16.7701 43.2892 18.0497C41.5938 18.0497 40.005 18.0497 38.3096 18.0497C38.3096 16.8341 38.3096 15.6078 38.3096 14.2856C36.9873 14.2856 35.7611 14.2856 34.4922 14.2856C34.4922 12.5902 34.4922 11.0014 34.4922 9.33796C35.7291 9.33796 36.934 9.33796 38.2456 9.33796C38.2456 8.03707 38.2456 6.81082 38.2456 5.53125C39.9303 5.53125 41.5298 5.53125 43.2252 5.53125C43.2252 6.74684 43.2252 7.97309 43.2252 9.30597C44.5581 9.30597 45.7844 9.30597 47.0533 9.30597C47.0426 10.9907 47.0426 12.5795 47.0426 14.2749Z" fill="url(#paint1_linear_17761_140004)"/>
<defs>
<linearGradient id="paint0_linear_17761_140004" x1="80.5712" y1="18.7188" x2="2.04337" y2="18.7188" gradientUnits="userSpaceOnUse">
<stop stop-color="#072D94"/>
<stop offset="1" stop-color="#597BD9"/>
</linearGradient>
<linearGradient id="paint1_linear_17761_140004" x1="46.9951" y1="9.67798" x2="34.7248" y2="9.67798" gradientUnits="userSpaceOnUse">
<stop stop-color="#072D94"/>
<stop offset="1" stop-color="#597BD9"/>
</linearGradient>
</defs>
</svg>
