<svg width="81" height="80" viewBox="0 0 81 80" fill="none" xmlns="http://www.w3.org/2000/svg">
<path fill-rule="evenodd" clip-rule="evenodd" d="M10.1875 15H49.9249C51.1324 15 52.1124 15.9882 52.1124 17.2059V20.8823H60.3192C64.0087 20.8823 67.7796 23.3508 68.1008 27.0088L69.2796 36.1348L76.985 41.0794C77.6179 41.4853 78 42.1882 78 42.9412V56.9118C78 58.1294 77.02 59.1177 75.8125 59.1177H73.4762C73.4799 59.0922 73.4836 59.0667 73.4873 59.0413L73.4976 58.9707C73.5614 58.5347 73.625 58.0992 73.625 57.6471C73.625 51.9706 69.0458 47.3529 63.4167 47.3529C57.7875 47.3529 53.2083 51.9706 53.2083 57.6471C53.2083 58.0992 53.272 58.5348 53.3357 58.9708C53.3429 59.0197 53.35 59.0687 53.3571 59.1177H51.0208L51.0147 59.1176H31.1846C31.1917 59.0686 31.1988 59.0197 31.206 58.9707C31.2697 58.5348 31.3333 58.0992 31.3333 57.6471C31.3333 51.9706 26.7542 47.3529 21.125 47.3529C15.4958 47.3529 10.9167 51.9706 10.9167 57.6471C10.9167 58.0992 10.9803 58.5348 11.044 58.9708C11.0512 59.0196 11.0584 59.0687 11.0654 59.1176H10.1875C8.98 59.1176 8 58.1294 8 56.9118V17.2059C8 15.9882 8.98 15 10.1875 15ZM66.7692 34.5088L65.8904 28.1105C65.2963 25.7083 63.1664 24.0323 60.7104 24.0323H54.5208C53.717 24.0323 53.0646 24.6902 53.0646 25.5007V34.5088H66.7692Z" fill="#325DCD"/>
<path d="M21.125 65C17.1029 65 13.8333 61.7 13.8333 57.6471C13.8333 53.5941 17.1029 50.2941 21.125 50.2941C25.1471 50.2941 28.4167 53.5941 28.4167 57.6471C28.4167 61.7 25.1471 65 21.125 65Z" fill="#325DCD"/>
<path d="M63.4167 65C59.3946 65 56.125 61.7 56.125 57.6471C56.125 53.5941 59.3946 50.2941 63.4167 50.2941C67.4388 50.2941 70.7083 53.5941 70.7083 57.6471C70.7083 61.7 67.4388 65 63.4167 65Z" fill="#325DCD"/>
</svg>
