<svg width="36" height="36" viewBox="0 0 36 36" fill="none" xmlns="http://www.w3.org/2000/svg">
<path d="M0 18C0 8.05888 8.05888 0 18 0C27.9411 0 36 8.05888 36 18C36 27.9411 27.9411 36 18 36C8.05888 36 0 27.9411 0 18Z" fill="#43A314"/>
<path fill-rule="evenodd" clip-rule="evenodd" d="M19.0125 12.8057C18.7452 12.5244 18.3795 12.3696 18.0137 12.3696H17.9997C17.2119 12.3696 16.5789 13.0026 16.5789 13.7763C16.5789 14.1421 16.7196 14.4937 16.9868 14.761L19.8002 17.5744C20.0535 17.8276 20.4051 17.9824 20.799 17.9824C21.1929 17.9824 21.5445 17.8276 21.7978 17.5744L28.8312 10.5409V10.5269C29.3799 9.96418 29.3799 9.07796 28.8172 8.52935C28.2545 7.96667 27.3683 7.96667 26.8197 8.52935L20.7849 14.5781L18.9703 12.7494L19.0125 12.8057ZM26.3555 17.0399C26.3977 17.3634 26.4539 17.6729 26.4539 18.0105C26.4539 22.6667 22.6699 26.4507 18.0137 26.4507C13.3576 26.4507 9.57356 22.6667 9.57356 18.0105C9.57356 13.3543 13.3576 9.57031 18.0137 9.57031C19.1532 9.57031 20.2504 9.80944 21.2491 10.2174L23.3592 8.10734C17.8871 5.15328 11.0647 7.17892 8.11059 12.651C7.2103 14.2827 6.74609 16.1255 6.74609 17.9964C6.74609 24.214 11.7821 29.25 17.9997 29.25C24.2173 29.25 29.2533 24.214 29.2533 17.9964C29.2533 16.8289 29.0704 15.6894 28.7468 14.6344L26.3414 17.0258L26.3555 17.0399Z" fill="white"/>
</svg>
