<svg width="85" height="84" viewBox="0 0 85 84" fill="none" xmlns="http://www.w3.org/2000/svg">
<path d="M70.3736 45.5836C71.5286 43.9673 72.168 41.9869 72.168 39.9265C72.168 36.6575 70.4423 33.5632 67.6648 31.8377C66.9498 31.3935 66.1357 31.1598 65.3067 31.1606H48.8205L49.233 22.2126C49.3292 20.0503 48.6073 17.9971 47.2048 16.4318C46.5166 15.6602 45.6862 15.0464 44.765 14.6281C43.8439 14.2099 42.8515 13.9961 41.8492 14.0001C38.2742 14.0001 35.1117 16.5483 34.163 20.1959L28.2573 42.8388H28.2367V74H60.7073C61.3398 74 61.9586 73.8689 62.5292 73.6068C65.8017 72.1289 67.9123 68.7434 67.9123 64.9865C67.9123 64.0692 67.7886 63.1664 67.5411 62.2927C68.6961 60.6764 69.3355 58.696 69.3355 56.6356C69.3355 55.7183 69.2117 54.8155 68.9642 53.9418C70.1192 52.3255 70.7586 50.3451 70.7586 48.2847C70.7448 47.3673 70.6211 46.4573 70.3736 45.5836ZM17.168 45.1686V71.6702C17.168 72.9589 18.1511 74 19.368 74H26.1458V42.8388H19.368C18.1511 42.8388 17.168 43.8799 17.168 45.1686Z" fill="#325DCD"/>
</svg>
