<svg width="68" height="56" viewBox="0 0 68 56" fill="none" xmlns="http://www.w3.org/2000/svg">
<path d="M39.6832 37.0054C38.08 37.8677 36.6384 38.8579 35.3695 40.0822C32.3499 42.994 30.6793 46.5002 30.6903 50.7449C30.6945 52.3153 30.6911 53.8857 30.6911 55.4906C20.5059 55.4906 10.3425 55.4906 0.117737 55.4906C0.117737 55.3508 0.117737 55.2026 0.117737 55.0552C0.117737 38.9749 0.116053 22.8955 0.118579 6.81516C0.119421 3.60365 2.16725 1.1247 5.26761 0.579064C5.63811 0.514227 6.02207 0.504123 6.39931 0.504123C16.4734 0.499913 26.5483 0.498229 36.6224 0.502439C39.8735 0.504123 42.3567 2.61847 42.8568 5.79714C42.9048 6.10028 42.9082 6.41183 42.9082 6.72001C42.9116 9.62419 42.9048 12.5292 42.9183 15.4334C42.92 15.7508 42.8105 15.9361 42.5731 16.1323C38.4513 19.5484 36.5079 23.9295 36.8599 29.2789C37.0342 31.9339 37.9225 34.369 39.4028 36.5844C39.487 36.7107 39.5712 36.837 39.6832 37.0054ZM12.3702 37.1999C12.3702 39.2528 12.3702 41.2535 12.3702 43.2659C14.407 43.2659 16.417 43.2659 18.4286 43.2659C18.4286 41.2232 18.4286 39.2132 18.4286 37.1999C16.3934 37.1999 14.3936 37.1999 12.3702 37.1999ZM24.5898 43.2609C26.6452 43.2609 28.6542 43.2609 30.6625 43.2609C30.6625 41.2232 30.6625 39.2242 30.6625 37.2058C28.629 37.2058 26.6199 37.2058 24.5898 37.2058C24.5898 39.2334 24.5898 41.2324 24.5898 43.2609ZM12.3643 24.9745C12.3643 27.0198 12.3643 29.0171 12.3643 31.0278C14.4045 31.0278 16.4229 31.0278 18.4328 31.0278C18.4328 28.9876 18.4328 26.9894 18.4328 24.9745C16.4035 24.9745 14.4045 24.9745 12.3643 24.9745ZM30.6734 24.9879C28.6222 24.9879 26.6148 24.9879 24.6066 24.9879C24.6066 27.0256 24.6066 29.0322 24.6066 31.0295C26.6519 31.0295 28.6576 31.0295 30.6734 31.0295C30.6734 29.0011 30.6734 27.0139 30.6734 24.9879ZM12.3626 18.8082C14.4104 18.8082 16.4111 18.8082 18.4294 18.8082C18.4294 16.7773 18.4294 14.7698 18.4294 12.7734C16.385 12.7734 14.375 12.7734 12.3626 12.7734C12.3626 14.7985 12.3626 16.7848 12.3626 18.8082ZM30.6692 12.7667C28.6248 12.7667 26.6157 12.7667 24.5956 12.7667C24.5956 14.7951 24.5956 16.7924 24.5956 18.7998C26.6325 18.7998 28.6425 18.7998 30.6692 18.7998C30.6692 16.7806 30.6692 14.7943 30.6692 12.7667Z" fill="url(#paint0_linear_17773_141878)"/>
<path d="M67.3553 55.5031C57.1709 55.5031 47.0084 55.5031 36.8038 55.5031C36.8038 55.3422 36.8038 55.2058 36.8038 55.0686C36.8038 53.638 36.8156 52.2065 36.8013 50.7759C36.7769 48.446 37.6517 46.4883 39.244 44.8295C41.0637 42.9332 43.3237 41.7779 45.822 41.0976C50.5803 39.8017 55.3083 39.9044 59.9538 41.6365C62.1431 42.4524 64.0672 43.6843 65.5466 45.5326C66.7154 46.9926 67.3536 48.6557 67.3764 50.5317C67.3957 52.1029 67.3822 53.6742 67.3814 55.2454C67.3814 55.3262 67.3654 55.4071 67.3553 55.5031Z" fill="url(#paint1_linear_17773_141878)"/>
<path d="M52.0539 37.1781C46.9891 37.1647 42.885 33.0261 42.9103 27.9579C42.9355 22.9225 47.0952 18.8041 52.1213 18.8361C57.1979 18.8681 61.2851 22.9975 61.259 28.0673C61.2338 33.117 57.1171 37.1916 52.0539 37.1781Z" fill="url(#paint2_linear_17773_141878)"/>
<defs>
<linearGradient id="paint0_linear_17773_141878" x1="42.7202" y1="18.7156" x2="0.909802" y2="18.7156" gradientUnits="userSpaceOnUse">
<stop stop-color="#072D94"/>
<stop offset="1" stop-color="#597BD9"/>
</linearGradient>
<linearGradient id="paint1_linear_17773_141878" x1="67.2451" y1="45.2817" x2="37.3672" y2="45.2817" gradientUnits="userSpaceOnUse">
<stop stop-color="#072D94"/>
<stop offset="1" stop-color="#597BD9"/>
</linearGradient>
<linearGradient id="paint2_linear_17773_141878" x1="61.1742" y1="24.9118" x2="43.25" y2="24.9118" gradientUnits="userSpaceOnUse">
<stop stop-color="#072D94"/>
<stop offset="1" stop-color="#597BD9"/>
</linearGradient>
</defs>
</svg>
