<svg width="58" height="56" viewBox="0 0 58 56" fill="none" xmlns="http://www.w3.org/2000/svg">
<path d="M11.4451 28.7607C11.4451 28.5651 11.4451 28.3529 11.4451 28.1419C11.4463 22.9462 11.4415 17.7505 11.4486 12.5548C11.4534 9.36606 13.8941 6.93002 17.0829 6.91579C18.5232 6.90987 19.9635 6.91461 21.4844 6.91461C21.4156 10.0346 22.5442 12.5513 25.1782 14.282C26.7026 15.2837 28.3918 15.6725 30.202 15.5125C34.0309 15.1734 37.6606 11.8388 37.4425 7.02367C37.471 6.99759 37.5006 6.9478 37.529 6.9478C39.0488 6.94661 40.5815 6.81977 42.0846 6.97743C45.1347 7.29868 47.0764 9.62803 47.0823 12.7955C47.0918 17.8525 47.0847 22.9107 47.0847 27.9677C47.0847 28.2213 47.0847 28.4762 47.0847 28.7595C47.9916 28.7595 48.8522 28.7595 49.7116 28.7595C51.4696 28.7595 53.2276 28.756 54.9867 28.7583C56.7779 28.7619 57.6812 29.6676 57.6812 31.4587C57.6824 39.0644 57.6824 46.67 57.6812 54.2757C57.6812 55.2074 57.4085 55.4943 56.4993 55.4943C49.5658 55.4967 42.6311 55.4955 35.6976 55.4955C35.5612 55.4955 35.4237 55.4801 35.1914 55.4659C35.1914 55.2074 35.1914 54.9597 35.1914 54.7107C35.1914 50.365 35.1914 46.0181 35.1914 41.6723C35.1914 40.5829 34.9614 40.3541 33.872 40.3529C30.771 40.3518 27.6687 40.3518 24.5677 40.3541C23.5873 40.3553 23.3064 40.6398 23.3064 41.6273C23.3052 45.9932 23.3064 50.3591 23.3064 54.725C23.3064 54.9573 23.3064 55.1897 23.3064 55.4635C23.0586 55.4765 22.8666 55.4955 22.6757 55.4955C15.8205 55.4967 8.96517 55.4979 2.11107 55.4967C1.08687 55.4967 0.817775 55.2252 0.817775 54.1915C0.81659 46.625 0.815404 39.0585 0.817775 31.4931C0.81896 29.6794 1.7424 28.7631 3.56084 28.7607C6.16283 28.7583 8.7672 28.7607 11.4451 28.7607ZM26.6742 24.0451C26.6742 21.9469 26.6742 19.8902 26.6742 17.8074C23.975 17.8074 21.3208 17.8074 18.624 17.8074C18.624 19.8961 18.624 21.954 18.624 24.0451C21.3054 24.0451 23.9595 24.0451 26.6742 24.0451ZM26.6765 35.4524C26.6765 33.3341 26.6765 31.2904 26.6765 29.2361C23.9655 29.2361 21.2959 29.2361 18.6216 29.2361C18.6216 31.3378 18.6216 33.3827 18.6216 35.4524C21.3208 35.4524 23.9797 35.4524 26.6765 35.4524ZM31.8343 24.0404C34.5525 24.0404 37.2054 24.0404 39.8667 24.0404C39.8667 21.9434 39.8667 19.8843 39.8667 17.8205C37.1675 17.8205 34.5145 17.8205 31.8343 17.8205C31.8343 19.908 31.8343 21.9528 31.8343 24.0404ZM31.8485 29.21C31.8485 31.3165 31.8485 33.3744 31.8485 35.4441C34.5442 35.4441 37.1959 35.4441 39.8679 35.4441C39.8679 33.353 39.8679 31.2963 39.8679 29.21C37.1876 29.21 34.5525 29.21 31.8485 29.21Z" fill="url(#paint0_linear_17773_141857)"/>
<path d="M36.5609 7.63753C36.5348 11.5399 33.3437 14.7074 29.4448 14.7038C25.5057 14.6991 22.3299 11.4664 22.3596 7.49291C22.3892 3.60592 25.5981 0.477598 29.5326 0.500121C33.4267 0.522644 36.5882 3.73276 36.5609 7.63753ZM29.8894 8.01805C30.2308 8.01805 30.4833 8.01924 30.7358 8.01805C31.4269 8.01568 32.1191 8.03465 32.8079 7.99198C32.9632 7.98249 33.1054 7.75371 33.2536 7.62568C33.1102 7.47039 32.9904 7.27717 32.8162 7.17166C32.7 7.10054 32.508 7.1527 32.3503 7.1527C31.5478 7.15151 30.7452 7.1527 29.8894 7.1527C29.8894 6.85871 29.8894 6.64534 29.8894 6.43196C29.8894 5.74086 29.9178 5.04739 29.8692 4.35985C29.8562 4.16663 29.6191 3.98763 29.484 3.8027C29.3275 3.99 29.1177 4.15477 29.0288 4.36933C28.9517 4.55544 29.011 4.79727 29.011 5.0142C29.011 5.71478 29.011 6.41537 29.011 7.15033C28.5949 7.15033 28.2808 7.15033 27.9666 7.15033C27.3739 7.15151 26.7788 7.11714 26.192 7.17404C26.0047 7.19182 25.84 7.44905 25.6645 7.59723C25.8423 7.73711 26.0024 7.92204 26.2051 8.00264C26.3758 8.0714 26.5939 8.01924 26.7919 8.02043C27.515 8.02043 28.2393 8.02043 29.011 8.02043C29.011 8.94861 29.0027 9.795 29.0157 10.6414C29.0205 10.9698 28.9944 11.3906 29.4816 11.3752C29.9249 11.3609 29.8894 10.9745 29.8906 10.6568C29.8906 9.81041 29.8894 8.96402 29.8894 8.01805Z" fill="url(#paint1_linear_17773_141857)"/>
<defs>
<linearGradient id="paint0_linear_17773_141857" x1="57.4188" y1="22.9968" x2="1.86948" y2="22.9968" gradientUnits="userSpaceOnUse">
<stop stop-color="#072D94"/>
<stop offset="1" stop-color="#597BD9"/>
</linearGradient>
<linearGradient id="paint1_linear_17773_141857" x1="36.4953" y1="5.20502" x2="22.6224" y2="5.20502" gradientUnits="userSpaceOnUse">
<stop stop-color="#072D94"/>
<stop offset="1" stop-color="#597BD9"/>
</linearGradient>
</defs>
</svg>
