<svg width="97" height="72" viewBox="0 0 97 72" fill="none" xmlns="http://www.w3.org/2000/svg">
<path fill-rule="evenodd" clip-rule="evenodd" d="M74.3173 24.4782H74.703C74.9571 24.4782 75.1846 24.4434 75.1846 24.1444C75.1846 23.8794 74.9327 23.8379 74.7066 23.8379H74.3173V24.4782ZM73.8793 23.521H74.7532C75.3135 23.521 75.6213 23.707 75.6213 24.1783C75.6213 24.5598 75.3901 24.7451 75.0065 24.7784L75.6349 25.7552H75.1897L74.5828 24.7934H74.3173V25.7552H73.8793V23.521ZM76.246 24.6449C76.246 23.724 75.5447 23.0558 74.6787 23.0558C73.8113 23.0558 73.1121 23.724 73.1121 24.6449C73.1121 25.5699 73.8113 26.2374 74.6787 26.2374C75.5447 26.2374 76.246 25.5699 76.246 24.6449ZM72.6055 24.645C72.6055 23.5599 73.5358 22.6758 74.6788 22.6758C75.821 22.6758 76.7492 23.5599 76.7492 24.645C76.7492 25.7341 75.821 26.6189 74.6788 26.6189C73.5358 26.6189 72.6055 25.7341 72.6055 24.645Z" fill="white"/>
<path fill-rule="evenodd" clip-rule="evenodd" d="M31.49 5.33301C28.3919 5.33301 25.7675 7.24974 24.8472 9.90346C24.825 9.96204 24.805 10.024 24.7864 10.0826L24.6339 10.6534L20.75 26.6636H30.5346C33.4581 26.6636 35.9472 24.9015 36.894 22.431L37.2633 20.9059L41.0413 5.33301H31.49Z" fill="#034EA2"/>
<path fill-rule="evenodd" clip-rule="evenodd" d="M49.9475 0C46.7477 0 44.0497 2.04615 43.2173 4.83746C43.1544 5.04657 43.1035 5.25909 43.0635 5.47569L36.6289 32H46.1802C49.4522 32 52.199 29.8592 52.9626 26.9691V26.9705H52.9669L59.5088 0H49.9475Z" fill="#F37021"/>
<path fill-rule="evenodd" clip-rule="evenodd" d="M65.8325 5.33301C62.8439 5.33301 60.2947 7.11692 59.2928 9.6276C59.2419 9.75497 59.0637 10.2856 59.0637 10.2856L55.0918 26.6636H64.6445C67.9273 26.6636 70.6797 24.5126 71.4348 21.6095L71.434 21.6109H71.4348L75.3817 5.33301H65.8325Z" fill="#51B848"/>
<path d="M17.1389 53.2307L13.71 47.8944L13.6803 47.906L13.7457 53.2307H11.541V44.4565H13.5258L17.0082 49.9722L17.0319 49.9491L16.9309 44.4565H19.1356V53.2307H17.1389Z" fill="white"/>
<path d="M26.023 53.2307V49.7233H23.0755V53.2307H20.7757V44.4565H23.0755V47.7555H26.023V44.4565H28.3228V53.2307H26.023Z" fill="white"/>
<path d="M35.7569 53.2307L35.3172 51.9632H32.1914L31.716 53.2307H29.2439L32.857 44.4565H34.6694L38.2528 53.2307H35.7569ZM33.784 47.1883H33.7483L32.8213 50.1864H34.711L33.784 47.1883ZM34.7348 44.034L31.7279 42.7549L32.3459 41.3659L35.2934 42.8823L34.7348 44.034Z" fill="white"/>
<path d="M46.3109 46.4243V53.2307H44.0111V46.4243H42.2343V44.4565H48.0758V46.4243H46.3109Z" fill="white"/>
<path d="M54.2501 53.2307V49.7233H51.3026V53.2307H49.0029V44.4565H51.3026V47.7555H54.2501V44.4565H56.5499V53.2307H54.2501Z" fill="white"/>
<path d="M65.0656 49.7581C65.0656 50.3561 65.0141 50.8404 64.9111 51.2108C64.7724 51.6854 64.5248 52.0982 64.1683 52.4493C63.5304 53.0821 62.6906 53.3985 61.6486 53.3985C61.1415 53.3985 60.674 53.3271 60.2462 53.1844C59.7629 53.0223 59.3667 52.7812 59.0577 52.4609C58.6773 52.0712 58.4238 51.6545 58.297 51.2108C58.2416 51.0101 58.2019 50.7844 58.1782 50.5336C58.1623 50.333 58.1544 50.0745 58.1544 49.7581V44.4565H60.4542V49.7581C60.4542 49.9896 60.4661 50.1883 60.4898 50.3542C60.5215 50.5664 60.575 50.7458 60.6503 50.8925C60.8325 51.2513 61.1574 51.4307 61.6249 51.4307C62.1082 51.4307 62.433 51.2551 62.5994 50.904C62.6668 50.7613 62.7143 50.5838 62.7421 50.3716C62.7579 50.2172 62.7658 50.0127 62.7658 49.7581V44.4565H65.0656V49.7581Z" fill="white"/>
<path d="M75.786 48.8436C75.786 50.1323 75.3224 51.2166 74.3954 52.0963C73.4723 52.9644 72.3472 53.3985 71.02 53.3985C69.7285 53.3985 68.6212 52.9722 67.6981 52.1194C66.7553 51.2551 66.2838 50.1999 66.2838 48.9536C66.2838 48.2899 66.4007 47.6648 66.6344 47.0784C66.7572 46.7658 66.9533 46.4379 67.2227 46.0944C68.1577 44.8945 69.4274 44.2945 71.0319 44.2945C72.3551 44.2945 73.4763 44.7305 74.3954 45.6025C75.3224 46.4784 75.786 47.5587 75.786 48.8436ZM73.4862 48.8552C73.4862 48.1491 73.2643 47.5472 72.8206 47.0494C72.3492 46.5247 71.7569 46.2623 71.0438 46.2623C70.3228 46.2623 69.7285 46.517 69.261 47.0263C68.8094 47.5163 68.5836 48.1144 68.5836 48.8205C68.5836 49.542 68.8114 50.1516 69.267 50.6494C69.7384 51.1703 70.3386 51.4307 71.0676 51.4307C71.7688 51.4307 72.3531 51.1683 72.8206 50.6436C73.2643 50.1458 73.4862 49.5497 73.4862 48.8552ZM73.1534 42.6913L72.5829 41.528L75.5007 40L76.1485 41.4006L73.1534 42.6913ZM71.6024 43.6868L71.0438 43.0038L70.4852 43.6868H68.5123L70.4079 41.7189H71.7213L73.5516 43.6868H71.6024Z" fill="white"/>
<path d="M85.9596 49.9491C85.6981 50.9793 85.1455 51.8127 84.3016 52.4493C83.4657 53.0821 82.501 53.3985 81.4076 53.3985C80.0923 53.3985 78.9732 52.9587 78.0501 52.0789C77.123 51.1953 76.6595 50.113 76.6595 48.832C76.6595 47.5549 77.1191 46.4764 78.0382 45.5967C78.9533 44.7286 80.0686 44.2945 81.3838 44.2945C83.0953 44.2945 84.4165 44.9813 85.3475 46.3549C85.6724 46.8295 85.8764 47.3079 85.9596 47.7902H83.5469C83.1468 46.7716 82.4218 46.2623 81.372 46.2623C80.6628 46.2623 80.0785 46.5189 79.6189 47.0321C79.1792 47.5259 78.9593 48.1221 78.9593 48.8205C78.9593 49.5266 79.1792 50.1304 79.6189 50.632C80.0824 51.1645 80.6707 51.4307 81.3838 51.4307C82.3663 51.4307 83.0874 50.9368 83.5469 49.9491H85.9596Z" fill="white"/>
<path d="M0.75 71.7706V60.5416H3.6932V69.2522H7.10792V71.7706H0.75Z" fill="white"/>
<path d="M19.9226 66.1561C19.9226 67.8054 19.3294 69.193 18.143 70.3188C16.9617 71.4299 15.5218 71.9854 13.8233 71.9854C12.1704 71.9854 10.7533 71.4397 9.57199 70.3484C8.3653 69.2423 7.76196 67.8918 7.76196 66.2968C7.76196 65.4475 7.91153 64.6475 8.21067 63.897C8.36784 63.497 8.61881 63.0772 8.96358 62.6378C10.1601 61.1021 11.7851 60.3342 13.8385 60.3342C15.5319 60.3342 16.9667 60.8922 18.143 62.0082C19.3294 63.1291 19.9226 64.5117 19.9226 66.1561ZM16.9794 66.1709C16.9794 65.2672 16.6955 64.4969 16.1276 63.8599C15.5243 63.1884 14.7663 62.8526 13.8537 62.8526C12.9309 62.8526 12.1704 63.1785 11.5721 63.8303C10.9942 64.4574 10.7052 65.2228 10.7052 66.1265C10.7052 67.0499 10.9967 67.8301 11.5798 68.4671C12.1831 69.1337 12.9512 69.467 13.8841 69.467C14.7815 69.467 15.5294 69.1312 16.1276 68.4597C16.6955 67.8227 16.9794 67.0597 16.9794 66.1709Z" fill="white"/>
<path d="M28.6762 71.7706L24.288 64.9413L24.25 64.9562L24.3336 71.7706H21.5121V60.5416H24.0522L28.5089 67.6004L28.5393 67.5708L28.41 60.5416H31.2315V71.7706H28.6762Z" fill="white"/>
<path d="M45.1033 65.9783C45.1033 67.7017 44.5203 69.1362 43.3541 70.2818C42.1829 71.4274 40.7151 72.0002 38.9507 72.0002C37.2472 72.0002 35.8022 71.4348 34.6158 70.304C33.4243 69.1633 32.8286 67.7659 32.8286 66.1116C32.8286 64.4525 33.4345 63.0674 34.6462 61.9563C35.8326 60.8749 37.2827 60.3342 38.9964 60.3342C40.274 60.3342 41.4579 60.6971 42.548 61.423C43.6786 62.1736 44.4163 63.134 44.7611 64.3043H41.4604C40.9027 63.3365 40.056 62.8526 38.9203 62.8526C37.9976 62.8526 37.237 63.1735 36.6388 63.8155C36.0608 64.4377 35.7718 65.2031 35.7718 66.1116C35.7718 67.0597 36.0532 67.8498 36.616 68.4819C37.2092 69.1485 37.9824 69.4818 38.9355 69.4818C39.5997 69.4818 40.1726 69.3362 40.6543 69.0448C41.1715 68.7288 41.5162 68.272 41.6886 67.6745H38.2511V65.3858H45.0881C45.0932 65.4746 45.0983 65.5734 45.1033 65.682V65.9783Z" fill="white"/>
<path d="M62.8614 67.5708C62.5268 68.8893 61.8195 69.9559 60.7395 70.7706C59.6698 71.5805 58.4352 71.9854 57.0358 71.9854C55.3526 71.9854 53.9202 71.4225 52.7389 70.2966C51.5525 69.1658 50.9593 67.7807 50.9593 66.1413C50.9593 64.5068 51.5474 63.1266 52.7237 62.0008C53.8949 60.8897 55.3221 60.3342 57.0054 60.3342C59.1957 60.3342 60.8866 61.2132 62.078 62.9711C62.4938 63.5785 62.7549 64.1908 62.8614 64.808H59.7737C59.2616 63.5044 58.3338 62.8526 56.9902 62.8526C56.0826 62.8526 55.3348 63.1809 54.7467 63.8377C54.1839 64.4698 53.9025 65.2327 53.9025 66.1265C53.9025 67.0301 54.1839 67.8029 54.7467 68.4448C55.3399 69.1263 56.0928 69.467 57.0054 69.467C58.2628 69.467 59.1856 68.8349 59.7737 67.5708H62.8614Z" fill="white"/>
<path d="M71.1054 71.7706V67.2819H67.3332V71.7706H64.39V60.5416H67.3332V64.7636H71.1054V60.5416H74.0486V71.7706H71.1054Z" fill="white"/>
<path d="M83.5626 71.7706L82.9999 70.1485H78.9995L78.3911 71.7706H75.2274L79.8513 60.5416H82.1709L86.7568 71.7706H83.5626ZM81.0377 64.0377H80.9921L79.8057 67.8745H82.2241L81.0377 64.0377ZM81.7222 59.5565L81.0073 58.6824L80.2924 59.5565H77.7675L80.1936 57.0381H81.8743L84.2167 59.5565H81.7222Z" fill="white"/>
<path d="M96.75 67.3264C96.75 68.0918 96.6841 68.7115 96.5523 69.1855C96.3748 69.7929 96.0579 70.3213 95.6016 70.7706C94.7853 71.5805 93.7105 71.9854 92.377 71.9854C91.7281 71.9854 91.1298 71.894 90.5822 71.7113C89.9637 71.5039 89.4566 71.1953 89.0612 70.7855C88.5744 70.2867 88.25 69.7534 88.0877 69.1855C88.0167 68.9288 87.966 68.6399 87.9356 68.3189C87.9153 68.0622 87.9052 67.7313 87.9052 67.3264V60.5416H90.8484V67.3264C90.8484 67.6227 90.8636 67.877 90.894 68.0893C90.9346 68.3609 91.003 68.5905 91.0994 68.7782C91.3326 69.2374 91.7483 69.467 92.3466 69.467C92.9652 69.467 93.3809 69.2423 93.5939 68.793C93.68 68.6103 93.7409 68.3831 93.7764 68.1115C93.7967 67.914 93.8068 67.6523 93.8068 67.3264V60.5416H96.75V67.3264Z" fill="white"/>
</svg>
