<svg width="16" height="17" viewBox="0 0 16 17" fill="none" xmlns="http://www.w3.org/2000/svg">
<path d="M13.5901 5.01162C13.7714 5.01903 13.9506 4.97078 14.1037 4.87335C14.255 4.78255 14.3754 4.64834 14.4494 4.48816C14.525 4.30685 14.562 4.11175 14.558 3.91532C14.57 3.63102 14.4748 3.35257 14.2914 3.13508C14.2051 3.03449 14.0972 2.9547 13.9758 2.90169C13.8544 2.84867 13.7225 2.82379 13.5901 2.8289C13.4129 2.82896 13.2389 2.87672 13.0864 2.96717C12.9351 3.05797 12.8147 3.19218 12.7407 3.35236C12.6609 3.52572 12.6205 3.7146 12.6222 3.90545C12.6097 4.19283 12.7048 4.47457 12.8889 4.69557C12.9751 4.79686 13.0827 4.87774 13.204 4.9324C13.3253 4.98705 13.4571 5.01411 13.5901 5.01162ZM13.2741 3.45113C13.3109 3.40206 13.3586 3.36224 13.4134 3.33481C13.4683 3.30738 13.5288 3.2931 13.5901 3.2931C13.6515 3.2931 13.7119 3.30738 13.7668 3.33481C13.8217 3.36224 13.8694 3.40206 13.9062 3.45113C13.9981 3.58419 14.0432 3.74397 14.0346 3.90545C14.0476 4.07663 14.0024 4.2472 13.9062 4.3894C13.8718 4.441 13.8246 4.48273 13.7692 4.51045C13.7137 4.53817 13.652 4.55091 13.5901 4.54742C13.5294 4.55018 13.4689 4.53813 13.4138 4.51232C13.3588 4.48652 13.3108 4.44772 13.2741 4.39927C13.1822 4.26621 13.137 4.10643 13.1457 3.94495C13.1319 3.77061 13.1771 3.59669 13.2741 3.45113ZM9.9358 9.11038H11.9111C12.0237 9.11038 12.1318 9.06564 12.2114 8.986C12.2911 8.90635 12.3358 8.79833 12.3358 8.68569V4.61656C12.3358 4.50392 12.2911 4.3959 12.2114 4.31626C12.1318 4.23661 12.0237 4.19187 11.9111 4.19187H9.9358C9.82224 4.19184 9.71317 4.23626 9.63196 4.31564C9.55074 4.39501 9.50381 4.50302 9.50123 4.61656V8.68569C9.50381 8.79923 9.55074 8.90724 9.63196 8.98661C9.71317 9.06599 9.82224 9.11041 9.9358 9.11038ZM10.3605 5.05113H11.5259V8.25113H10.3605V5.05113ZM16 9.00174C16 9.53508 15.6741 10.3054 14.1432 10.9771C12.8087 11.4967 11.4038 11.813 9.97531 11.9153H8.61235C8.54316 11.9123 8.47568 11.8928 8.41555 11.8585C8.35542 11.8241 8.30438 11.7759 8.26667 11.7178C8.20958 11.6566 8.17138 11.5802 8.15664 11.4979C8.14191 11.4155 8.15127 11.3306 8.1836 11.2534C8.21593 11.1762 8.26986 11.11 8.33891 11.0628C8.40796 11.0155 8.48919 10.9892 8.57284 10.9869H9.92593C11.2608 10.9094 12.5762 10.6296 13.8272 10.1573C14.6667 9.79187 15.1605 9.34742 15.1605 8.97211C15.1605 8.5968 14.2321 7.84619 12.8 7.43137C12.7162 7.41021 12.6409 7.36401 12.5841 7.29892C12.5272 7.23383 12.4916 7.15295 12.482 7.06709C12.4723 6.98123 12.4891 6.89446 12.53 6.81837C12.571 6.74228 12.6341 6.68049 12.7111 6.64125C12.7626 6.61924 12.8181 6.6079 12.8741 6.6079C12.9301 6.6079 12.9855 6.61924 13.037 6.64125C14.9432 7.15483 16 8.00421 16 8.97211V9.00174ZM7.31852 11.1153C7.38406 11.1924 7.41918 11.2907 7.41728 11.3919C7.42228 11.4507 7.41522 11.51 7.39654 11.566C7.37786 11.6221 7.34795 11.6737 7.30864 11.7178L6.11358 13.0412C6.072 13.0859 6.02149 13.1213 5.96534 13.1451C5.90918 13.1689 5.84864 13.1806 5.78765 13.1795C5.68164 13.1822 5.5788 13.1432 5.50123 13.0709C5.42338 12.9899 5.37989 12.882 5.37989 12.7696C5.37989 12.6573 5.42338 12.5494 5.50123 12.4684L6.02469 11.8758C4.6744 11.7867 3.34393 11.504 2.07407 11.0363C0.720987 10.4931 0 9.74248 0 8.97211C0.0166085 8.69913 0.0966783 8.43378 0.233843 8.19717C0.371007 7.96056 0.561482 7.75922 0.790123 7.60915C1.34475 7.21204 1.9625 6.91151 2.61728 6.72026C2.67573 6.70429 2.73697 6.70132 2.79669 6.71156C2.85642 6.7218 2.91317 6.745 2.96296 6.77952C3.0625 6.83532 3.13676 6.92726 3.17037 7.03631C3.18876 7.0901 3.19617 7.14703 3.19216 7.20373C3.18814 7.26043 3.17279 7.31575 3.147 7.36641C3.12121 7.41707 3.08551 7.46203 3.04202 7.49864C2.99854 7.53525 2.94814 7.56275 2.89383 7.57952C1.64938 7.98446 0.918518 8.56717 0.918518 9.01162C0.918518 9.45606 1.49136 9.89063 2.44938 10.2758C3.65133 10.7105 4.90773 10.9764 6.18272 11.0659L5.6 10.3746C5.53465 10.3133 5.48984 10.2333 5.4717 10.1456C5.45355 10.0579 5.46297 9.96668 5.49865 9.8845C5.53433 9.80233 5.59453 9.73319 5.67102 9.68656C5.7475 9.63992 5.83654 9.61806 5.92593 9.62396C6.02602 9.63073 6.12049 9.67272 6.19259 9.74248L7.31852 11.1153ZM4.79012 6.17705V5.05113H3.5358C3.42227 5.04854 3.31425 5.00162 3.23488 4.9204C3.15551 4.83918 3.11108 4.73012 3.11111 4.61656C3.11111 4.50392 3.15585 4.3959 3.2355 4.31626C3.31515 4.23661 3.42317 4.19187 3.5358 4.19187H5.21481C5.32838 4.19184 5.43744 4.23626 5.51866 4.31564C5.59988 4.39501 5.6468 4.50302 5.64938 4.61656V8.68569C5.6468 8.79923 5.59988 8.90724 5.51866 8.98661C5.43744 9.06599 5.32838 9.11041 5.21481 9.11038H3.5358C3.42317 9.11038 3.31515 9.06564 3.2355 8.986C3.15585 8.90635 3.11111 8.79833 3.11111 8.68569C3.11108 8.57213 3.15551 8.46307 3.23488 8.38185C3.31425 8.30063 3.42227 8.25371 3.5358 8.25113H4.79012V7.08569H3.5358C3.42227 7.08311 3.31425 7.03619 3.23488 6.95497C3.15551 6.87375 3.11108 6.76469 3.11111 6.65113C3.11111 6.53849 3.15585 6.43047 3.2355 6.35082C3.31515 6.27118 3.42317 6.22643 3.5358 6.22643L4.79012 6.17705ZM7.21065 9.11743L8.54321 9.10971C8.65584 9.10971 8.77066 9.05433 8.85031 8.97468C8.92995 8.89504 8.9679 8.74895 8.9679 8.63631V6.65113C8.9679 6.53849 8.92316 6.43047 8.84351 6.35082C8.76387 6.27118 8.65584 6.22643 8.54321 6.22643H6.99259V5.05113H8.24691C8.36045 5.04854 8.46846 5.00162 8.54783 4.9204C8.62721 4.83918 8.67163 4.73012 8.6716 4.61656C8.6716 4.50392 8.62686 4.3959 8.54721 4.31626C8.46757 4.23661 8.35955 4.19187 8.24691 4.19187H6.5679C6.45434 4.19184 6.34527 4.23626 6.26405 4.31564C6.18284 4.39501 6.13591 4.50302 6.13333 4.61656V8.68569C6.13591 8.79923 6.18284 8.90724 6.26405 8.98661C6.34527 9.06599 6.45434 9.11041 6.5679 9.11038L7.21065 9.11743ZM6.99259 7.03631H8.15802V8.25113H6.99259V7.03631Z" fill="black"/>
</svg>
