<svg width="16" height="16" viewBox="0 0 16 16" fill="none" xmlns="http://www.w3.org/2000/svg">
<path fill-rule="evenodd" clip-rule="evenodd" d="M9.45372 14.8527C9.64607 15.0509 9.95795 15.0509 10.1503 14.8527L10.8546 14.1274C11.0469 13.9293 11.0469 13.608 10.8546 13.4099L5.60173 7.99971L10.854 2.59007C11.0464 2.39194 11.0464 2.07073 10.854 1.8726L10.1498 1.14725C9.95741 0.949123 9.64553 0.949122 9.45317 1.14724L3.89265 6.87435C3.87799 6.88634 3.86385 6.89931 3.85029 6.91327L3.14603 7.63863C3.06258 7.72459 3.01533 7.83372 3.00429 7.94592C2.98822 8.09393 3.03529 8.24784 3.14549 8.36135L3.84975 9.08671C3.86485 9.10226 3.88068 9.11659 3.89714 9.1297L9.45372 14.8527Z" fill="black"/>
</svg>
