<svg width="16" height="16" viewBox="0 0 16 16" fill="none" xmlns="http://www.w3.org/2000/svg">
<path fill-rule="evenodd" clip-rule="evenodd" d="M7.74375 14.9179C7.8081 14.9822 7.90013 15.0078 7.99999 14.998C8.09984 15.0078 8.19186 14.9822 8.25621 14.9179L14.9179 8.25621C15.0594 8.11471 15.0135 7.8394 14.8154 7.64129L14.098 6.92388C13.8999 6.72578 13.6245 6.67989 13.483 6.8214L7.99998 12.3045L2.51692 6.8214C2.37541 6.67989 2.1001 6.72578 1.902 6.92389L1.18459 7.64129C0.986484 7.8394 0.940599 8.11471 1.0821 8.25621L7.74375 14.9179ZM7.99998 6.5652L13.483 1.08214C13.6245 0.940639 13.8999 0.986524 14.098 1.18463L14.8154 1.90204C15.0135 2.10015 15.0594 2.37545 14.9179 2.51696L8.25621 9.1786C8.19186 9.24295 8.09984 9.26855 7.99999 9.2587C7.90013 9.26856 7.8081 9.24296 7.74375 9.1786L1.0821 2.51696C0.940598 2.37546 0.986483 2.10015 1.18459 1.90204L1.902 1.18463C2.1001 0.986526 2.37541 0.940641 2.51692 1.08214L7.99998 6.5652Z" fill="black"/>
</svg>
