<svg width="16" height="16" viewBox="0 0 16 16" fill="none" xmlns="http://www.w3.org/2000/svg">
<path fill-rule="evenodd" clip-rule="evenodd" d="M11.6469 1H4.32064C4.24958 1.00007 4.18144 1.02707 4.13119 1.07508C4.08094 1.1231 4.05268 1.1882 4.05261 1.2561V14.8293C4.05261 14.8745 4.07143 14.918 4.10495 14.95C4.13845 14.982 4.18389 15 4.23128 15H11.7362C11.7836 15 11.8291 14.982 11.8626 14.95C11.8961 14.918 11.9149 14.8745 11.9149 14.8293V1.2561C11.9148 1.1882 11.8866 1.1231 11.8363 1.07508C11.7861 1.02707 11.718 1.00007 11.6469 1ZM5.12474 14.3171C5.05404 14.3171 4.98495 14.297 4.92618 14.2595C4.86741 14.222 4.82162 14.1687 4.79456 14.1063C4.76752 14.0439 4.76044 13.9752 4.77423 13.909C4.78801 13.8427 4.82205 13.7819 4.87203 13.7342C4.92201 13.6864 4.98568 13.6539 5.05501 13.6407C5.12433 13.6275 5.1962 13.6343 5.26149 13.6601C5.32681 13.686 5.38263 13.7297 5.42189 13.7859C5.46115 13.842 5.48213 13.9081 5.48213 13.9756C5.48213 14.0662 5.44446 14.153 5.37745 14.217C5.31042 14.2811 5.21953 14.3171 5.12474 14.3171ZM5.12474 12.9512C5.05404 12.9512 4.98495 12.9312 4.92618 12.8937C4.86741 12.8562 4.82162 12.8028 4.79456 12.7404C4.76752 12.678 4.76044 12.6094 4.77423 12.5431C4.78801 12.4769 4.82205 12.4161 4.87203 12.3683C4.92201 12.3206 4.98568 12.288 5.05501 12.2749C5.12433 12.2617 5.1962 12.2684 5.26149 12.2943C5.32681 12.3201 5.38263 12.3639 5.42189 12.42C5.46115 12.4762 5.48213 12.5422 5.48213 12.6098C5.48213 12.7003 5.44446 12.7872 5.37745 12.8512C5.31042 12.9152 5.21953 12.9512 5.12474 12.9512ZM5.12474 11.5854C5.05404 11.5854 4.98495 11.5653 4.92618 11.5278C4.86741 11.4903 4.82162 11.437 4.79456 11.3746C4.76752 11.3122 4.76044 11.2435 4.77423 11.1773C4.78801 11.111 4.82205 11.0502 4.87203 11.0025C4.92201 10.9547 4.98568 10.9222 5.05501 10.909C5.12433 10.8958 5.1962 10.9026 5.26149 10.9284C5.32681 10.9543 5.38263 10.998 5.42189 11.0542C5.46115 11.1103 5.48213 11.1764 5.48213 11.2439C5.48213 11.3345 5.44446 11.4213 5.37745 11.4853C5.31042 11.5494 5.21953 11.5854 5.12474 11.5854ZM5.12474 10.2195C5.05404 10.2195 4.98495 10.1995 4.92618 10.162C4.86741 10.1244 4.82162 10.0711 4.79456 10.0087C4.76752 9.94633 4.76044 9.87766 4.77423 9.81143C4.78801 9.74519 4.82205 9.68435 4.87203 9.6366C4.92201 9.58885 4.98568 9.55632 5.05501 9.54315C5.12433 9.52998 5.1962 9.53674 5.26149 9.56258C5.32681 9.58843 5.38263 9.63218 5.42189 9.68833C5.46115 9.74449 5.48213 9.81051 5.48213 9.87806C5.48213 9.96862 5.44446 10.0555 5.37745 10.1195C5.31042 10.1835 5.21953 10.2195 5.12474 10.2195ZM5.12474 8.85365C5.05404 8.85365 4.98495 8.83363 4.92618 8.79612C4.86741 8.75858 4.82162 8.70527 4.79456 8.64286C4.76752 8.58048 4.76044 8.51181 4.77423 8.44557C4.78801 8.37933 4.82205 8.3185 4.87203 8.27075C4.92201 8.22299 4.98568 8.19047 5.05501 8.1773C5.12433 8.16411 5.1962 8.17089 5.26149 8.19672C5.32681 8.22258 5.38263 8.26633 5.42189 8.32248C5.46115 8.37863 5.48213 8.44465 5.48213 8.5122C5.48213 8.60277 5.44446 8.68961 5.37745 8.75364C5.31042 8.81769 5.21953 8.85365 5.12474 8.85365ZM6.55425 14.3171C6.48356 14.3171 6.41446 14.297 6.35569 14.2595C6.29692 14.222 6.25113 14.1687 6.22407 14.1063C6.19703 14.0439 6.18996 13.9752 6.20374 13.909C6.21752 13.8427 6.25157 13.7819 6.30154 13.7342C6.35152 13.6864 6.41519 13.6539 6.48452 13.6407C6.55384 13.6275 6.62571 13.6343 6.691 13.6601C6.75632 13.686 6.81214 13.7297 6.8514 13.7859C6.89067 13.842 6.91164 13.9081 6.91164 13.9756C6.91164 14.0662 6.87398 14.153 6.80696 14.217C6.73993 14.2811 6.64904 14.3171 6.55425 14.3171ZM6.55425 12.9512C6.48356 12.9512 6.41446 12.9312 6.35569 12.8937C6.29692 12.8562 6.25113 12.8028 6.22407 12.7404C6.19703 12.678 6.18996 12.6094 6.20374 12.5431C6.21752 12.4769 6.25157 12.4161 6.30154 12.3683C6.35152 12.3206 6.41519 12.288 6.48452 12.2749C6.55384 12.2617 6.62571 12.2684 6.691 12.2943C6.75632 12.3201 6.81214 12.3639 6.8514 12.42C6.89067 12.4762 6.91164 12.5422 6.91164 12.6098C6.91164 12.7003 6.87398 12.7872 6.80696 12.8512C6.73993 12.9152 6.64904 12.9512 6.55425 12.9512ZM6.55425 11.5854C6.48356 11.5854 6.41446 11.5653 6.35569 11.5278C6.29692 11.4903 6.25113 11.437 6.22407 11.3746C6.19703 11.3122 6.18996 11.2435 6.20374 11.1773C6.21752 11.111 6.25157 11.0502 6.30154 11.0025C6.35152 10.9547 6.41519 10.9222 6.48452 10.909C6.55384 10.8958 6.62571 10.9026 6.691 10.9284C6.75632 10.9543 6.81214 10.998 6.8514 11.0542C6.89067 11.1103 6.91164 11.1764 6.91164 11.2439C6.91164 11.3345 6.87398 11.4213 6.80696 11.4853C6.73993 11.5494 6.64904 11.5854 6.55425 11.5854ZM6.55425 10.2195C6.48356 10.2195 6.41446 10.1995 6.35569 10.162C6.29692 10.1244 6.25113 10.0711 6.22407 10.0087C6.19703 9.94633 6.18996 9.87766 6.20374 9.81143C6.21752 9.74519 6.25157 9.68435 6.30154 9.6366C6.35152 9.58885 6.41519 9.55632 6.48452 9.54315C6.55384 9.52998 6.62571 9.53674 6.691 9.56258C6.75632 9.58843 6.81214 9.63218 6.8514 9.68833C6.89067 9.74449 6.91164 9.81051 6.91164 9.87806C6.91164 9.96862 6.87398 10.0555 6.80696 10.1195C6.73993 10.1835 6.64904 10.2195 6.55425 10.2195ZM6.55425 8.85365C6.48356 8.85365 6.41446 8.83363 6.35569 8.79612C6.29692 8.75858 6.25113 8.70527 6.22407 8.64286C6.19703 8.58048 6.18996 8.51181 6.20374 8.44557C6.21752 8.37933 6.25157 8.3185 6.30154 8.27075C6.35152 8.22299 6.41519 8.19047 6.48452 8.1773C6.55384 8.16411 6.62571 8.17089 6.691 8.19672C6.75632 8.22258 6.81214 8.26633 6.8514 8.32248C6.89067 8.37863 6.91164 8.44465 6.91164 8.5122C6.91164 8.60277 6.87398 8.68961 6.80696 8.75364C6.73993 8.81769 6.64904 8.85365 6.55425 8.85365ZM7.98377 14.3171C7.91309 14.3171 7.84399 14.297 7.78522 14.2595C7.72645 14.222 7.68064 14.1687 7.65358 14.1063C7.62654 14.0439 7.61947 13.9752 7.63325 13.909C7.64703 13.8427 7.68108 13.7819 7.73106 13.7342C7.78103 13.6864 7.84473 13.6539 7.91403 13.6407C7.98338 13.6275 8.05522 13.6343 8.12051 13.6601C8.18583 13.686 8.24165 13.7297 8.28091 13.7859C8.32018 13.842 8.34115 13.9081 8.34115 13.9756C8.34115 14.0662 8.30349 14.153 8.23648 14.217C8.16944 14.2811 8.07855 14.3171 7.98377 14.3171ZM7.98377 12.9512C7.91309 12.9512 7.84399 12.9312 7.78522 12.8937C7.72645 12.8562 7.68064 12.8028 7.65358 12.7404C7.62654 12.678 7.61947 12.6094 7.63325 12.5431C7.64703 12.4769 7.68108 12.4161 7.73106 12.3683C7.78103 12.3206 7.84473 12.288 7.91403 12.2749C7.98338 12.2617 8.05522 12.2684 8.12051 12.2943C8.18583 12.3201 8.24165 12.3639 8.28091 12.42C8.32018 12.4762 8.34115 12.5422 8.34115 12.6098C8.34115 12.7003 8.30349 12.7872 8.23648 12.8512C8.16944 12.9152 8.07855 12.9512 7.98377 12.9512ZM7.98377 11.5854C7.91309 11.5854 7.84399 11.5653 7.78522 11.5278C7.72645 11.4903 7.68064 11.437 7.65358 11.3746C7.62654 11.3122 7.61947 11.2435 7.63325 11.1773C7.64703 11.111 7.68108 11.0502 7.73106 11.0025C7.78103 10.9547 7.84473 10.9222 7.91403 10.909C7.98338 10.8958 8.05522 10.9026 8.12051 10.9284C8.18583 10.9543 8.24165 10.998 8.28091 11.0542C8.32018 11.1103 8.34115 11.1764 8.34115 11.2439C8.34115 11.3345 8.30349 11.4213 8.23648 11.4853C8.16944 11.5494 8.07855 11.5854 7.98377 11.5854ZM7.98377 10.2195C7.91309 10.2195 7.84399 10.1995 7.78522 10.162C7.72645 10.1244 7.68064 10.0711 7.65358 10.0087C7.62654 9.94633 7.61947 9.87766 7.63325 9.81143C7.64703 9.74519 7.68108 9.68435 7.73106 9.6366C7.78103 9.58885 7.84473 9.55632 7.91403 9.54315C7.98338 9.52998 8.05522 9.53674 8.12051 9.56258C8.18583 9.58843 8.24165 9.63218 8.28091 9.68833C8.32018 9.74449 8.34115 9.81051 8.34115 9.87806C8.34115 9.96862 8.30349 10.0555 8.23648 10.1195C8.16944 10.1835 8.07855 10.2195 7.98377 10.2195ZM7.98377 8.85365C7.91309 8.85365 7.84399 8.83363 7.78522 8.79612C7.72645 8.75858 7.68064 8.70527 7.65358 8.64286C7.62654 8.58048 7.61947 8.51181 7.63325 8.44557C7.64703 8.37933 7.68108 8.3185 7.73106 8.27075C7.78103 8.22299 7.84473 8.19047 7.91403 8.1773C7.98338 8.16411 8.05522 8.17089 8.12051 8.19672C8.18583 8.22258 8.24165 8.26633 8.28091 8.32248C8.32018 8.37863 8.34115 8.44465 8.34115 8.5122C8.34115 8.60277 8.30349 8.68961 8.23648 8.75364C8.16944 8.81769 8.07855 8.85365 7.98377 8.85365ZM7.98377 4.41464C7.70104 4.41464 7.42466 4.33454 7.18958 4.18445C6.9545 4.03437 6.77127 3.82104 6.66307 3.57147C6.55487 3.3219 6.52655 3.04727 6.58173 2.78232C6.63688 2.51737 6.77303 2.27399 6.97295 2.08298C7.17286 1.89196 7.42759 1.76187 7.70489 1.70917C7.98219 1.65647 8.2696 1.68352 8.53081 1.7869C8.79201 1.89027 9.01528 2.06534 9.17236 2.28995C9.32944 2.51457 9.41328 2.77864 9.41328 3.04878C9.41284 3.41091 9.2621 3.75807 8.9941 4.01413C8.72612 4.2702 8.36276 4.41423 7.98377 4.41464ZM9.41328 14.3171C9.3426 14.3171 9.27351 14.297 9.21474 14.2595C9.15597 14.222 9.11015 14.1687 9.08309 14.1063C9.05605 14.0439 9.04898 13.9752 9.06276 13.909C9.07654 13.8427 9.11059 13.7819 9.16057 13.7342C9.21055 13.6864 9.27424 13.6539 9.34356 13.6407C9.41289 13.6275 9.48473 13.6343 9.55003 13.6601C9.61535 13.686 9.67116 13.7297 9.71043 13.7859C9.74969 13.842 9.77066 13.9081 9.77066 13.9756C9.77066 14.0662 9.733 14.153 9.66599 14.217C9.59895 14.2811 9.50806 14.3171 9.41328 14.3171ZM9.41328 12.9512C9.3426 12.9512 9.27351 12.9312 9.21474 12.8937C9.15597 12.8562 9.11015 12.8028 9.08309 12.7404C9.05605 12.678 9.04898 12.6094 9.06276 12.5431C9.07654 12.4769 9.11059 12.4161 9.16057 12.3683C9.21055 12.3206 9.27424 12.288 9.34356 12.2749C9.41289 12.2617 9.48473 12.2684 9.55003 12.2943C9.61535 12.3201 9.67116 12.3639 9.71043 12.42C9.74969 12.4762 9.77066 12.5422 9.77066 12.6098C9.77066 12.7003 9.733 12.7872 9.66599 12.8512C9.59895 12.9152 9.50806 12.9512 9.41328 12.9512ZM9.41328 11.5854C9.3426 11.5854 9.27351 11.5653 9.21474 11.5278C9.15597 11.4903 9.11015 11.437 9.08309 11.3746C9.05605 11.3122 9.04898 11.2435 9.06276 11.1773C9.07654 11.111 9.11059 11.0502 9.16057 11.0025C9.21055 10.9547 9.27424 10.9222 9.34356 10.909C9.41289 10.8958 9.48473 10.9026 9.55003 10.9284C9.61535 10.9543 9.67116 10.998 9.71043 11.0542C9.74969 11.1103 9.77066 11.1764 9.77066 11.2439C9.77066 11.3345 9.733 11.4213 9.66599 11.4853C9.59895 11.5494 9.50806 11.5854 9.41328 11.5854ZM9.41328 10.2195C9.3426 10.2195 9.27351 10.1995 9.21474 10.162C9.15597 10.1244 9.11015 10.0711 9.08309 10.0087C9.05605 9.94633 9.04898 9.87766 9.06276 9.81143C9.07654 9.74519 9.11059 9.68435 9.16057 9.6366C9.21055 9.58885 9.27424 9.55632 9.34356 9.54315C9.41289 9.52998 9.48473 9.53674 9.55003 9.56258C9.61535 9.58843 9.67116 9.63218 9.71043 9.68833C9.74969 9.74449 9.77066 9.81051 9.77066 9.87806C9.77066 9.96862 9.733 10.0555 9.66599 10.1195C9.59895 10.1835 9.50806 10.2195 9.41328 10.2195ZM9.41328 8.85365C9.3426 8.85365 9.27351 8.83363 9.21474 8.79612C9.15597 8.75858 9.11015 8.70527 9.08309 8.64286C9.05605 8.58048 9.04898 8.51181 9.06276 8.44557C9.07654 8.37933 9.11059 8.3185 9.16057 8.27075C9.21055 8.22299 9.27424 8.19047 9.34356 8.1773C9.41289 8.16411 9.48473 8.17089 9.55003 8.19672C9.61535 8.22258 9.67116 8.26633 9.71043 8.32248C9.74969 8.37863 9.77066 8.44465 9.77066 8.5122C9.77066 8.60277 9.733 8.68961 9.66599 8.75364C9.59895 8.81769 9.50806 8.85365 9.41328 8.85365ZM10.8428 14.3171C10.7721 14.3171 10.703 14.297 10.6442 14.2595C10.5855 14.222 10.5397 14.1687 10.5126 14.1063C10.4856 14.0439 10.4785 13.9752 10.4923 13.909C10.5061 13.8427 10.5401 13.7819 10.5901 13.7342C10.6401 13.6864 10.7038 13.6539 10.7731 13.6407C10.8424 13.6275 10.9142 13.6343 10.9795 13.6601C11.0449 13.686 11.1007 13.7297 11.1399 13.7859C11.1792 13.842 11.2002 13.9081 11.2002 13.9756C11.2002 14.0662 11.1625 14.153 11.0955 14.217C11.0285 14.2811 10.9376 14.3171 10.8428 14.3171ZM10.8428 12.9512C10.7721 12.9512 10.703 12.9312 10.6442 12.8937C10.5855 12.8562 10.5397 12.8028 10.5126 12.7404C10.4856 12.678 10.4785 12.6094 10.4923 12.5431C10.5061 12.4769 10.5401 12.4161 10.5901 12.3683C10.6401 12.3206 10.7038 12.288 10.7731 12.2749C10.8424 12.2617 10.9142 12.2684 10.9795 12.2943C11.0449 12.3201 11.1007 12.3639 11.1399 12.42C11.1792 12.4762 11.2002 12.5422 11.2002 12.6098C11.2002 12.7003 11.1625 12.7872 11.0955 12.8512C11.0285 12.9152 10.9376 12.9512 10.8428 12.9512ZM10.8428 11.5854C10.7721 11.5854 10.703 11.5653 10.6442 11.5278C10.5855 11.4903 10.5397 11.437 10.5126 11.3746C10.4856 11.3122 10.4785 11.2435 10.4923 11.1773C10.5061 11.111 10.5401 11.0502 10.5901 11.0025C10.6401 10.9547 10.7038 10.9222 10.7731 10.909C10.8424 10.8958 10.9142 10.9026 10.9795 10.9284C11.0449 10.9543 11.1007 10.998 11.1399 11.0542C11.1792 11.1103 11.2002 11.1764 11.2002 11.2439C11.2002 11.3345 11.1625 11.4213 11.0955 11.4853C11.0285 11.5494 10.9376 11.5854 10.8428 11.5854ZM10.8428 10.2195C10.7721 10.2195 10.703 10.1995 10.6442 10.162C10.5855 10.1244 10.5397 10.0711 10.5126 10.0087C10.4856 9.94633 10.4785 9.87766 10.4923 9.81143C10.5061 9.74519 10.5401 9.68435 10.5901 9.6366C10.6401 9.58885 10.7038 9.55632 10.7731 9.54315C10.8424 9.52998 10.9142 9.53674 10.9795 9.56258C11.0449 9.58843 11.1007 9.63218 11.1399 9.68833C11.1792 9.74449 11.2002 9.81051 11.2002 9.87806C11.2002 9.96862 11.1625 10.0555 11.0955 10.1195C11.0285 10.1835 10.9376 10.2195 10.8428 10.2195ZM10.8428 8.85365C10.7721 8.85365 10.703 8.83363 10.6442 8.79612C10.5855 8.75858 10.5397 8.70527 10.5126 8.64286C10.4856 8.58048 10.4785 8.51181 10.4923 8.44557C10.5061 8.37933 10.5401 8.3185 10.5901 8.27075C10.6401 8.22299 10.7038 8.19047 10.7731 8.1773C10.8424 8.16411 10.9142 8.17089 10.9795 8.19672C11.0449 8.22258 11.1007 8.26633 11.1399 8.32248C11.1792 8.37863 11.2002 8.44465 11.2002 8.5122C11.2002 8.60277 11.1625 8.68961 11.0955 8.75364C11.0285 8.81769 10.9376 8.85365 10.8428 8.85365ZM7.98372 3.73171C8.37847 3.73171 8.69846 3.42596 8.69846 3.04878C8.69846 2.67161 8.37847 2.36585 7.98372 2.36585C7.58897 2.36585 7.26895 2.67161 7.26895 3.04878C7.26895 3.42596 7.58897 3.73171 7.98372 3.73171ZM2.71308 4.88773C2.92327 4.63646 3.21658 4.4687 3.54044 4.40498L3.53969 4.37553H3.52629V3.91666C3.05287 3.98837 2.62188 4.22346 2.31847 4.58625C2.04588 4.91213 1.63865 5.09894 1.20185 5.09894H1V5.5817H1.20185C1.793 5.5817 2.34374 5.32873 2.71308 4.88773ZM13.3157 5.55687V6.54726L15 5.34035L13.3157 4.13346V5.0553C13.1722 5.00943 13.0424 4.92903 12.9448 4.8127L12.5654 4.35987C12.4909 4.27055 12.4012 4.19718 12.3052 4.13127V4.36855L12.2918 4.36879L12.2799 4.7917L12.5502 5.11442C12.7453 5.34711 13.0158 5.50087 13.3157 5.55687ZM13.3157 7.95183C13.1722 7.90598 13.0424 7.82559 12.9448 7.70924L12.5654 7.25618C12.4689 7.14103 12.3504 7.04352 12.218 6.96748L12.2003 7.59339L12.55 8.01072C12.745 8.24391 13.0158 8.39742 13.3154 8.45342V9.44379L14.9997 8.23691L13.3157 7.03V7.95183ZM12.9448 10.6058C13.0423 10.7221 13.1722 10.8025 13.3157 10.8484V9.92653L15 11.1334L13.3157 12.3403V11.3499C13.0161 11.2939 12.7453 11.1404 12.5502 10.9073L12.1708 10.4544C12.1589 10.4402 12.1457 10.4274 12.1326 10.4144L12.1326 10.4144H12.1325C12.1287 10.4106 12.1248 10.4068 12.121 10.403L12.1374 9.82057C12.3026 9.90046 12.4487 10.0134 12.5654 10.1529L12.9448 10.6058ZM2.31849 10.3792C2.0459 10.7053 1.63866 10.8921 1.20187 10.8921H1.00002V11.3749H1.20187C1.79302 11.3749 2.34401 11.1219 2.7131 10.6809C2.95916 10.3864 3.31537 10.2071 3.70391 10.1747L3.69026 9.69269C3.15292 9.72937 2.65853 9.97317 2.31849 10.3792ZM3.62206 7.28727C3.26584 7.33675 2.94198 7.51079 2.7131 7.78427C2.34375 8.22527 1.79302 8.47823 1.20187 8.47823H1.00002V7.99547H1.20187C1.63866 7.99547 2.0459 7.80866 2.31824 7.48255C2.64084 7.09707 3.1024 6.85543 3.60816 6.80066L3.62206 7.28727Z" fill="black"/>
</svg>
