<svg width="16" height="16" viewBox="0 0 16 16" fill="none" xmlns="http://www.w3.org/2000/svg">
<path d="M8 15C7.18423 15 6.43236 14.804 5.74303 14.412C5.05369 14.0201 4.5079 13.4894 4.10474 12.8192C3.70158 12.1494 3.5 11.418 3.5 10.6248V5.37516C3.5 4.58203 3.70158 3.85101 4.10474 3.1808C4.5079 2.51059 5.05369 1.97994 5.74303 1.58796C6.43191 1.19599 7.18423 1 8 1C8.81577 1 9.56764 1.19599 10.257 1.58796C10.9459 1.97994 11.4921 2.51059 11.8953 3.1808C12.2984 3.85101 12.5 4.58203 12.5 5.37516V10.6248C12.5 11.418 12.2984 12.149 11.8953 12.8192C11.4921 13.4894 10.9463 14.0201 10.257 14.412C9.56809 14.804 8.81577 15 8 15ZM8.0072 3.62571C7.75882 3.62571 7.54555 3.71233 7.36736 3.88557C7.18918 4.05881 7.10009 4.26398 7.10009 4.50066C7.10009 4.73777 7.18918 4.9425 7.36736 5.11574C7.54555 5.28898 7.75882 5.3756 8.0072 5.3756C8.25557 5.3756 8.4666 5.28898 8.63984 5.11574C8.81307 4.9425 8.89991 4.73733 8.89991 4.50066C8.89991 4.26398 8.81307 4.05881 8.63984 3.88557C8.4666 3.71233 8.25557 3.62571 8.0072 3.62571Z" fill="black"/>
</svg>
