<svg width="16" height="16" viewBox="0 0 16 16" fill="none" xmlns="http://www.w3.org/2000/svg">
<path fill-rule="evenodd" clip-rule="evenodd" d="M8.25625 1.08214C8.1919 1.01779 8.09987 0.992192 8.00001 1.00205C7.90016 0.992196 7.80814 1.01779 7.74379 1.08214L1.08214 7.74379C0.940638 7.88529 0.986523 8.1606 1.18463 8.35871L1.90204 9.07612C2.10014 9.27422 2.37545 9.32011 2.51696 9.1786L8.00002 3.69554L13.4831 9.1786C13.6246 9.32011 13.8999 9.27422 14.098 9.07612L14.8154 8.35871C15.0135 8.1606 15.0594 7.88529 14.9179 7.74379L8.25625 1.08214ZM8.00002 9.4348L2.51696 14.9179C2.37545 15.0594 2.10014 15.0135 1.90204 14.8154L1.18463 14.098C0.986523 13.8999 0.940638 13.6245 1.08214 13.483L7.74379 6.8214C7.80814 6.75705 7.90016 6.73145 8.00001 6.7413C8.09987 6.73144 8.1919 6.75704 8.25625 6.8214L14.9179 13.483C15.0594 13.6245 15.0135 13.8999 14.8154 14.098L14.098 14.8154C13.8999 15.0135 13.6246 15.0594 13.4831 14.9179L8.00002 9.4348Z" fill="black"/>
</svg>
