<svg width="16" height="16" viewBox="0 0 16 16" fill="none" xmlns="http://www.w3.org/2000/svg">
<path d="M4.26121 1.74805C5.07983 0.786395 6.78728 0.740018 7.6437 1.67805C8.04334 2.10463 8.29851 2.68171 8.28501 3.26536C8.28006 6.43253 8.28681 9.60058 8.28141 12.7686C8.29266 13.0863 8.27466 13.4428 8.49473 13.7023C9.13603 14.6154 10.6572 14.6574 11.3912 13.8327C11.5883 13.5793 11.7233 13.2731 11.708 12.9493C11.713 11.0242 11.7098 9.09787 11.7089 7.1728C11.312 7.14218 10.8561 7.25374 10.5154 6.99692C10.3336 6.87879 10.1851 6.7156 10.0748 6.53228C9.9623 6.23433 10.0024 5.90926 9.99471 5.59862C10.0069 4.9441 9.9803 4.28958 10.0033 3.63593C10.0042 3.15554 10.4771 2.88166 10.8502 2.66684L10.8561 1.50042C10.8552 1.14647 10.9879 1.03928 11.3435 1.02747L12.6837 1.03403C12.9938 1.03403 13.1139 1.14953 13.1139 1.34773L13.1265 2.67515C13.4821 2.86765 13.8565 3.08947 13.964 3.46924C14.0298 3.89669 13.9829 4.33027 13.9946 4.76035C13.9811 5.28449 14.0253 5.81126 13.9735 6.33277C13.8686 6.7016 13.5473 6.9908 13.1913 7.13168C12.8934 7.18943 12.5869 7.1623 12.2854 7.17062C12.2769 9.1005 12.2827 11.0312 12.2836 12.9611C12.3048 13.7395 11.7355 14.4452 11.0379 14.7681C9.9587 15.2996 8.45872 14.891 7.90743 13.813C7.74271 13.5588 7.71526 13.2516 7.71211 12.9572C7.71121 9.7257 7.71976 6.49466 7.70851 3.26317C7.73416 2.62833 7.39618 1.94975 6.76523 1.7148C6.01636 1.43654 4.97948 1.55073 4.53439 2.27613C4.26976 2.64758 4.29542 3.11966 4.28597 3.55062C4.29272 5.31293 4.27831 7.07524 4.29272 8.83755C4.646 8.84892 5.01413 8.80124 5.35391 8.91849C5.69189 9.11843 6.01636 9.45401 5.99926 9.86702C6.00106 10.6817 6.00601 11.4963 5.99746 12.311C5.97766 12.8929 5.39396 13.2538 4.86472 13.3628C4.85121 13.9027 4.86292 14.4434 4.85436 14.9846C4.6676 14.9838 4.48218 14.9846 4.29587 14.9873C4.28057 14.4286 4.29092 13.869 4.28642 13.3107C4.09875 13.3107 3.91063 13.3107 3.72207 13.309C3.71082 13.8677 3.72207 14.4259 3.71262 14.9846C3.52585 14.9838 3.34043 14.9846 3.15412 14.9873C3.14062 14.4456 3.14557 13.9035 3.14827 13.3628C2.69913 13.2801 2.23649 13.0451 2.05737 12.6116C1.97277 12.2979 2.00877 11.9693 2.00202 11.649C2.01327 11.0251 1.98672 10.4017 2.01147 9.77864C2.01147 9.39407 2.3229 9.09918 2.63657 8.91368C2.9831 8.80473 3.35529 8.84761 3.71397 8.83536C3.71982 6.94836 3.71487 5.06048 3.71577 3.17304C3.70542 2.6489 3.93269 2.15013 4.26211 1.74674L4.26121 1.74805Z" fill="black"/>
</svg>
