<svg width="16" height="16" viewBox="0 0 16 16" fill="none" xmlns="http://www.w3.org/2000/svg">
<path d="M13.255 1.24462C13.1783 1.16698 13.087 1.10537 12.9862 1.06337C12.8854 1.02137 12.7773 0.999832 12.6681 1H3.33347C3.11255 1.00041 2.90079 1.08823 2.74457 1.24423C2.58835 1.40023 2.50041 1.61169 2.5 1.83231V14.1677C2.50041 14.3883 2.58835 14.5998 2.74457 14.7558C2.90079 14.9118 3.11255 14.9996 3.33347 15H12.6681C12.8888 14.9996 13.1004 14.9117 13.2564 14.7557C13.4124 14.5996 13.5 14.3882 13.5 14.1677V1.83231C13.5005 1.72299 13.479 1.61468 13.437 1.51376C13.3949 1.41283 13.333 1.32132 13.255 1.24462ZM12.5448 13.8077C12.5444 13.8148 12.5413 13.8214 12.5362 13.8263C12.531 13.8312 12.5242 13.8339 12.5171 13.8338H3.48137C3.47455 13.8335 3.4681 13.8306 3.46326 13.8258C3.45843 13.8209 3.45555 13.8145 3.45518 13.8077V2.05231C3.45555 2.04549 3.45843 2.03905 3.46326 2.03423C3.4681 2.0294 3.47455 2.02652 3.48137 2.02615H12.514C12.5211 2.02614 12.5279 2.02885 12.5331 2.03371C12.5382 2.03858 12.5413 2.04523 12.5417 2.05231L12.5448 13.8077Z" fill="black"/>
</svg>
