<svg width="16" height="16" viewBox="0 0 16 16" fill="none" xmlns="http://www.w3.org/2000/svg">
<path d="M6.1989 3.98193C6.29041 3.98193 6.37175 3.95182 6.44293 3.8916C6.5141 3.83137 6.5446 3.75609 6.53443 3.66576C6.52427 3.57542 6.49376 3.49497 6.44293 3.42439C6.39209 3.35382 6.31075 3.32371 6.1989 3.33406C6.08706 3.34441 6.0108 3.37452 5.97013 3.42439C5.92946 3.47427 5.89896 3.55472 5.87862 3.66576C5.85829 3.7768 5.88879 3.85208 5.97013 3.8916C6.05147 3.93112 6.12773 3.96123 6.1989 3.98193ZM9.80157 3.98193C9.89308 3.98193 9.96934 3.95182 10.0303 3.8916C10.0913 3.83137 10.1219 3.75609 10.1219 3.66576C10.1219 3.57542 10.0913 3.49497 10.0303 3.42439C9.96934 3.35382 9.89308 3.32371 9.80157 3.33406C9.71006 3.34441 9.62872 3.37452 9.55755 3.42439C9.48638 3.47427 9.45587 3.55472 9.46604 3.66576C9.47621 3.7768 9.50671 3.85208 9.55755 3.8916C9.60839 3.93112 9.68973 3.96123 9.80157 3.98193ZM2.88601 5.53411C3.12018 5.53411 3.3237 5.61959 3.49654 5.79054C3.66939 5.96148 3.75073 6.16239 3.74057 6.39325V10.0105C3.74057 10.2517 3.65907 10.4576 3.49607 10.6282C3.33307 10.7989 3.12956 10.8843 2.88554 10.8846C2.64151 10.885 2.43292 10.7995 2.25975 10.6282C2.08658 10.457 2 10.251 2 10.0105V6.39325C2 6.16207 2.08658 5.96117 2.25975 5.79054C2.43292 5.6199 2.64151 5.53443 2.88554 5.53411H2.88601ZM11.9082 5.7002V11.2916C11.9082 11.5529 11.8165 11.7739 11.6332 11.9546C11.4498 12.1352 11.2311 12.2257 10.9769 12.226H10.3358V14.14C10.3358 14.3812 10.2545 14.5821 10.0918 14.7427C9.92914 14.9033 9.72055 14.9888 9.46604 14.9992C9.21153 15.0095 9.00294 14.924 8.84026 14.7427C8.67758 14.5614 8.59099 14.3605 8.58051 14.14V12.226H7.4052V14.14C7.4052 14.3812 7.32385 14.5821 7.16117 14.7427C6.99849 14.9033 6.7899 14.9888 6.53539 14.9992C6.29105 14.9992 6.08754 14.9137 5.92486 14.7427C5.76217 14.5718 5.67559 14.3709 5.6651 14.14L5.64985 12.226H5.02407C4.75939 12.226 4.54063 12.1355 4.36778 11.9546C4.19493 11.7736 4.10326 11.5526 4.09278 11.2916V5.7002H11.9091H11.9082ZM9.93884 2.29425C10.5394 2.59568 11.0228 3.02274 11.3891 3.57542C11.7555 4.1281 11.9387 4.73599 11.9387 5.39908H4.06132C4.06132 4.73599 4.23942 4.1281 4.5956 3.57542C4.95178 3.02274 5.44031 2.59568 6.06116 2.29425L5.46588 1.19422C5.42521 1.11392 5.43538 1.0537 5.49639 1.01355C5.57773 0.983438 5.63873 1.00351 5.6794 1.07377L6.28994 2.18886C6.82945 1.94765 7.39948 1.82704 8 1.82704C8.60052 1.82704 9.17055 1.94765 9.71006 2.18886L10.3206 1.07377C10.3613 1.00351 10.4172 0.983438 10.4884 1.01355C10.5595 1.0537 10.5748 1.11392 10.5341 1.19422L9.93884 2.29425ZM14 6.39325V10.0105C14 10.2517 13.9134 10.4576 13.7402 10.6282C13.5671 10.7989 13.3585 10.8843 13.1145 10.8846C12.8803 10.8846 12.6768 10.7992 12.5039 10.6282C12.3311 10.4573 12.2445 10.2513 12.2442 10.0105V6.39325C12.2442 6.15204 12.3308 5.95113 12.5039 5.79054C12.6771 5.62994 12.8806 5.54446 13.1145 5.53411C13.3588 5.53411 13.5674 5.61959 13.7402 5.79054C13.9131 5.96148 13.9997 6.16239 14 6.39325Z" fill="black"/>
</svg>
