<svg width="16" height="16" viewBox="0 0 16 16" fill="none" xmlns="http://www.w3.org/2000/svg">
<path d="M12.7427 4.49064C12.9142 4.56777 13 4.7029 13 4.89603V13.0318C13 13.1668 12.9429 13.2875 12.8287 13.3938C12.7146 13.5002 12.5812 13.5532 12.4287 13.5529C11.9907 13.5529 11.7717 13.3792 11.7717 13.0318V5.47541C11.7717 5.35971 11.7146 5.27279 11.6004 5.21464L5.8286 2.08768C5.52382 1.99127 5.20002 2.03948 4.85719 2.2323C4.43823 2.42543 4.17152 2.63769 4.05704 2.86908L9.88595 6.16959C10.0575 6.24672 10.1433 6.38185 10.1433 6.57498V14.5368C10.1433 14.7492 10.0575 14.8843 9.88595 14.9422C9.82887 14.9807 9.75275 15 9.6576 15C9.52439 15 9.42909 14.9807 9.3717 14.9422C9.29559 14.8843 8.33369 14.2715 6.48602 13.1037C4.63834 11.9359 3.62873 11.3038 3.45716 11.2073C3.20948 11.0335 3.08563 10.8694 3.08563 10.7152L3 3.12985C3 2.85959 3.0666 2.60862 3.19981 2.37692C3.46653 1.93312 3.95223 1.56163 4.65693 1.26245C5.36163 0.963263 5.91408 0.919877 6.3143 1.13229L12.7427 4.49064Z" fill="black"/>
</svg>
