<svg width="16" height="16" viewBox="0 0 16 16" fill="none" xmlns="http://www.w3.org/2000/svg">
<path d="M7.40638 6.1234C6.13444 5.77866 3.59249 3.92678 3.59249 2.39996C3.59249 1.14525 6.10845 1 7.99976 1C9.89107 1 12.407 1.14525 12.407 2.39996C12.407 3.87516 9.94015 5.6951 8.60421 6.11947C8.42759 6.1759 8.18985 6.18771 8.0219 6.18771C7.78512 6.18771 7.5546 6.16365 7.4059 6.1234H7.40638ZM13.4326 6.31852C14.4288 6.63045 15 7.3278 15 8.2334V11.7333C15 12.1559 14.5139 12.6341 13.5134 13.1941C13.4716 13.2172 13.4244 13.2291 13.3767 13.2291C13.3228 13.2291 13.2694 13.2142 13.2237 13.1844C13.1385 13.1284 13.0995 13.0313 13.1251 12.939C13.4653 11.7215 13.4557 10.2738 13.447 8.99725L13.4446 8.46789C13.4446 7.78673 13.333 7.18212 13.1044 6.61951C13.0697 6.53508 13.0923 6.44014 13.1631 6.37583C13.2329 6.31152 13.3373 6.28965 13.4326 6.31896V6.31852ZM2.59582 6.30846C2.69014 6.27959 2.7965 6.30277 2.86628 6.36927C2.93558 6.43533 2.95579 6.53158 2.91922 6.61601C2.67378 7.16899 2.5554 7.77404 2.5554 8.46614L2.55299 8.99331C2.54433 10.273 2.5347 11.7206 2.87494 12.9381C2.90045 13.0304 2.86147 13.1276 2.77629 13.1836C2.73057 13.2133 2.67715 13.2282 2.62325 13.2282C2.57561 13.2282 2.52845 13.2164 2.48658 13.1927C1.48606 12.6332 1 12.1555 1 11.7324V8.23252C1 7.31643 1.58183 6.61557 2.59582 6.30846ZM13.486 5.61198C13.4884 5.73185 13.3897 5.83422 13.2574 5.84866C13.1972 5.85479 13.1409 5.8666 13.0885 5.88322C13.0601 5.89241 13.0312 5.89678 13.0019 5.89678C12.959 5.89678 12.9162 5.88716 12.8777 5.86835C12.8127 5.83641 12.766 5.78173 12.7497 5.71698L12.3209 4.07772C12.3045 4.01603 12.3166 3.95216 12.3541 3.89878C12.4407 3.77541 12.5187 3.6516 12.5885 3.52561C12.6356 3.44205 12.7338 3.39524 12.8363 3.39743C12.9398 3.40311 13.0298 3.46349 13.0644 3.55186C13.3941 4.38352 13.4754 5.13162 13.486 5.61198ZM3.26476 5.70779C3.24695 5.77166 3.20027 5.82547 3.13674 5.85566C3.09824 5.87491 3.05589 5.8841 3.01354 5.8841C2.98515 5.8841 2.95628 5.87972 2.92884 5.87141C2.87254 5.85435 2.81334 5.84254 2.75126 5.83729C2.61507 5.82547 2.51112 5.7196 2.51641 5.59623C2.53566 5.14825 2.63191 4.44608 2.98611 3.64023C3.02365 3.55536 3.1122 3.49805 3.21326 3.4928C3.32587 3.49061 3.40961 3.53698 3.45677 3.61748C3.52174 3.7286 3.59249 3.83885 3.66997 3.94735C3.70847 4.00159 3.72002 4.06765 3.70317 4.12978L3.26476 5.70779ZM12.9258 8.46658L12.9282 8.99725C12.9412 10.9143 12.9571 13.2999 11.7347 14.4072C11.3006 14.8005 10.7419 15 10.0739 15H5.92558C5.25761 15 4.69888 14.8001 4.26479 14.4072C3.04146 13.3004 3.0583 10.9143 3.07129 8.99725L3.0737 8.46658C3.0737 7.07887 3.56794 6.39727 4.00395 5.79748C4.1464 5.60061 4.28115 5.41467 4.38799 5.21649C4.4236 5.14956 4.49338 5.10275 4.57423 5.08918C4.65653 5.07694 4.7393 5.09837 4.79946 5.14912C5.58485 5.8141 6.53003 6.36314 7.22206 6.56001L8.77746 6.56089C9.50077 6.33077 10.4758 5.74673 11.2602 5.07387C11.3209 5.02269 11.4046 4.9995 11.485 5.01306C11.5658 5.02575 11.6361 5.073 11.6722 5.1395C11.7708 5.32018 11.8844 5.49386 12.0018 5.67279C12.4349 6.33471 12.9258 7.08456 12.9258 8.46702V8.46658Z" fill="black"/>
</svg>
