<svg width="16" height="16" viewBox="0 0 16 16" fill="none" xmlns="http://www.w3.org/2000/svg">
<rect width="16" height="16" rx="2" fill="#CB1C22"/>
<path fill-rule="evenodd" clip-rule="evenodd" d="M6.70249 9.40174L4.43187 6.94867C4.25272 6.75513 3.96226 6.75513 3.78311 6.94867L3.13436 7.64955C2.95521 7.8431 2.95521 8.15689 3.13436 8.35044L5.72617 11.1505C5.72722 11.1517 5.72828 11.1528 5.72935 11.154L6.3781 11.8548C6.45863 11.9418 6.56166 11.9897 6.66695 11.9985C6.73733 12.0044 6.80873 11.9928 6.8751 11.9637C6.93033 11.9395 6.98209 11.9032 7.02688 11.8548L7.67564 11.154C7.67654 11.153 7.67744 11.152 7.67834 11.151L12.8656 5.54692C13.0448 5.35338 13.0448 5.03958 12.8656 4.84604L12.2169 4.14516C12.0377 3.95161 11.7473 3.95161 11.5681 4.14516L6.70249 9.40174Z" fill="white"/>
</svg>
