<svg width="16" height="17" viewBox="0 0 16 17" fill="none" xmlns="http://www.w3.org/2000/svg">
<path d="M14.7779 6.37427L13.6096 5.65014L14.7779 4.91636C14.8464 4.87568 14.903 4.81768 14.942 4.74819C14.981 4.6787 15.001 4.60017 15 4.5205C15 4.43988 14.9785 4.36071 14.9378 4.29114C14.8971 4.22156 14.8385 4.16409 14.7682 4.12464L10.269 1.43088C10.1985 1.3902 10.1186 1.36879 10.0373 1.36879C9.9559 1.36879 9.87599 1.3902 9.80553 1.43088L8.00003 2.39638L6.19453 1.42122C6.12408 1.38054 6.04416 1.35913 5.96281 1.35913C5.88146 1.35913 5.80154 1.38054 5.73109 1.42122L1.22217 4.12464C1.15494 4.16672 1.09937 4.22503 1.06056 4.2942C1.02176 4.36337 1.00097 4.44119 1.0001 4.5205C1.00183 4.59963 1.02299 4.67712 1.06171 4.74616C1.10044 4.81519 1.15554 4.87364 1.22217 4.91636L2.39044 5.65014L1.22217 6.37427C1.1529 6.41651 1.09593 6.4762 1.05696 6.54736C1.01799 6.61852 0.998384 6.69867 1.0001 6.77979C1.00594 6.85647 1.03002 6.93065 1.07032 6.99615C1.11063 7.06165 1.166 7.11657 1.23183 7.15634L2.8056 8.0446V11.4722C2.80584 11.554 2.82732 11.6344 2.86794 11.7055C2.90855 11.7766 2.96692 11.8359 3.03733 11.8777L7.75866 14.5907C7.82951 14.63 7.9094 14.6499 7.99038 14.6487C8.07125 14.6491 8.15093 14.6292 8.2221 14.5907L12.9531 11.897C13.0235 11.8552 13.0819 11.7959 13.1225 11.7248C13.1631 11.6537 13.1846 11.5733 13.1848 11.4915V8.06391L14.7682 7.15634C14.8367 7.11475 14.8937 7.05679 14.9341 6.98769C14.9746 6.91858 14.9972 6.8405 15 6.76048C14.9984 6.68263 14.9772 6.60644 14.9384 6.53894C14.8996 6.47144 14.8444 6.41481 14.7779 6.37427ZM8.46348 9.1839L9.5545 9.85976C9.62789 9.90213 9.71114 9.92443 9.79588 9.92443C9.88062 9.92443 9.96387 9.90213 10.0373 9.85976L12.2676 8.58529V11.2115L8.46348 13.3839V9.1839ZM8.95589 2.95638L10.0179 2.3288L13.6386 4.49153L12.7214 5.06118L8.95589 2.95638ZM12.7214 6.19083L13.6193 6.75082L9.81519 8.92321L8.90761 8.36322L12.7214 6.19083ZM11.7559 5.65014L8.00003 7.80323L4.21524 5.65014L8.00003 3.48741L11.7559 5.65014ZM2.36147 4.53015L5.98212 2.3288L7.04418 2.91776L3.2787 5.0998L2.36147 4.53015ZM7.09246 8.39219L6.18488 8.95218L2.38078 6.75082L3.2787 6.19083L7.09246 8.39219ZM3.73249 8.62391L5.9435 9.85976C6.01582 9.90518 6.09948 9.92928 6.18488 9.92928C6.27028 9.92928 6.35394 9.90518 6.42626 9.85976L7.51728 9.1839V13.3839L3.73249 11.2211V8.62391Z" fill="black"/>
</svg>
