<svg width="16" height="16" viewBox="0 0 16 16" fill="none" xmlns="http://www.w3.org/2000/svg">
<path d="M12.375 5.86359V10.2386H2.75V5.86359H12.375ZM13.3014 9.36359H14.125V6.73859H13.2477L13.247 5.18434C13.247 5.12634 13.2289 5.07921 13.1927 5.04296C13.1564 5.00671 13.1093 4.98859 13.0513 4.98859H1.96999C1.91924 4.98859 1.87574 5.00671 1.83949 5.04296C1.80324 5.07921 1.78149 5.12634 1.77424 5.18434V10.9171C1.77424 10.9751 1.79599 11.0223 1.83949 11.0585C1.88299 11.0948 1.92649 11.1129 1.96999 11.1129L13.1057 11.1132C13.1637 11.1132 13.2108 11.0951 13.247 11.0588C13.2833 11.0226 13.3014 10.9755 13.3014 10.9175V9.36359ZM15 6.8348V9.1645C15 9.38223 14.9238 9.56734 14.7713 9.71982C14.6188 9.8723 14.3427 9.94854 14.125 9.94854V10.9175C14.125 11.186 14.0306 11.4146 13.8419 11.6033C13.6532 11.792 13.5155 11.8864 13.247 11.8864H1.96931C1.70808 11.8864 1.47947 11.792 1.28349 11.6033C1.0875 11.4146 0.993138 11.186 1.00039 10.9175V5.08251C1.00039 4.81403 1.09475 4.58542 1.28349 4.39669C1.47222 4.20795 1.70083 4.11359 1.96931 4.11359L13.1492 4.11359C13.4177 4.11359 13.6463 4.20795 13.8351 4.39669C14.0238 4.58542 14.1182 4.81403 14.1182 5.08251V6.05143C14.3359 6.05143 14.6188 6.12768 14.7713 6.28016C14.9238 6.43264 15 6.61707 15 6.8348Z" fill="black"/>
</svg>
