<svg width="16" height="16" viewBox="0 0 16 16" fill="none" xmlns="http://www.w3.org/2000/svg">
<path d="M8.00835 2C7.35614 2 6.82089 2.53187 6.82089 3.19658C6.82089 3.86128 7.35614 4.39315 8.00835 4.39315C8.66057 4.39315 9.24595 3.86128 9.24595 3.19658C9.24595 2.53187 8.66057 2 8.00835 2ZM7.20574 5.68935C6.53681 7.66739 5.51645 8.19926 5.51645 8.19926C5.51645 8.19926 4.64648 5.78898 3.69347 4.35994C3.30862 5.22442 2.90757 5.7895 2.08773 6.02197C2.07102 6.75309 2.94099 9.47886 3.00783 10.842H13.0606C13.094 9.52919 13.9807 6.58705 13.9807 6.05518C13.3452 5.7895 12.5587 5.2073 12.3749 4.35994C11.3211 5.7895 10.552 8.19926 10.552 8.19926C10.552 8.19926 9.53159 7.66739 8.86266 5.68935C8.41097 5.90522 7.57493 5.90522 7.20679 5.68935H7.20574ZM2.2376 2C1.56867 2 1 2.53187 1 3.19658C1 3.86128 1.56867 4.39315 2.2376 4.39315C2.88982 4.39315 3.40835 3.86128 3.40835 3.19658C3.40835 2.53187 2.88982 2 2.2376 2ZM3.02402 12.022V14H13.0601C13.0601 13.2855 13.0601 12.6535 13.0601 12.022H3.02402ZM13.7958 2C13.1269 2 12.5916 2.53187 12.5916 3.19658C12.5916 3.86128 13.1269 4.39315 13.7958 4.39315C14.4648 4.39315 15 3.86128 15 3.19658C15 2.53187 14.4648 2 13.7958 2Z" fill="black"/>
</svg>
