<svg width="16" height="16" viewBox="0 0 16 16" fill="none" xmlns="http://www.w3.org/2000/svg">
<path fill-rule="evenodd" clip-rule="evenodd" d="M14.0021 1.86859C14.0021 1.38826 13.6139 1 13.1335 1H5.57832C5.10314 1 4.70973 1.38708 4.70973 1.86859C4.72345 2.02432 4.83689 2.33578 5.18093 2.33578H12.3899C12.5404 2.33578 12.6624 2.45775 12.6624 2.60822V11.8005C12.6624 12.0607 12.8733 12.2716 13.1335 12.2716C13.6127 12.2716 14.0021 11.8846 14.0021 11.407V1.86859ZM2.86209 3.72413C2.38985 3.72765 2 4.11335 2 4.5927V14.1311C2 14.6061 2.39005 14.9975 2.86462 14.9997L10.4159 14.9997C10.895 14.9997 11.2845 14.6126 11.2845 14.1351V4.59667C11.2845 4.11634 10.8962 3.72808 10.4159 3.72808L2.86209 3.72413ZM9.94073 5.34027C9.94073 5.18981 9.81875 5.06783 9.66829 5.06783H3.60424C3.45378 5.06783 3.3318 5.1898 3.3318 5.34027V13.3915C3.3318 13.542 3.45378 13.6639 3.60424 13.6639H9.66829C9.81875 13.6639 9.94073 13.542 9.94073 13.3915V5.34027Z" fill="#1D48BA"/>
</svg>
