<svg width="16" height="17" viewBox="0 0 16 17" fill="none" xmlns="http://www.w3.org/2000/svg">
<path fill-rule="evenodd" clip-rule="evenodd" d="M7.82256 1.00195L4.13507 7.39286L2.21494 4.06447C3.44481 2.26064 5.49429 1.06073 7.82256 1.00195ZM13.9688 4.34744H6.59409L8.51483 1.01844C10.8215 1.18716 12.8214 2.47783 13.9688 4.34744ZM14.9999 8.00197C14.9999 6.91108 14.7491 5.87776 14.3026 4.9565H10.4599L14.1477 11.3483C14.691 10.3534 14.9999 9.21315 14.9999 8.00197ZM1.85198 4.65564L5.54007 11.0475H1.69737C1.25089 10.1262 1.00011 9.09288 1.00011 8.00199C1.00011 6.79081 1.30902 5.65059 1.85198 4.65564ZM11.8658 8.61104L8.17832 15.002C10.5066 14.9432 12.5561 13.7433 13.7859 11.9391L11.8658 8.61104ZM2.03195 11.6565H9.40661L7.48587 14.9855C5.17922 14.8168 3.17934 13.5261 2.03195 11.6565Z" fill="black"/>
</svg>
