<svg width="16" height="16" viewBox="0 0 16 16" fill="none" xmlns="http://www.w3.org/2000/svg">
<path d="M10.3333 8C10.3333 6.71484 9.28516 5.66667 8 5.66667C6.71484 5.66667 5.66667 6.71484 5.66667 8C5.66667 9.28516 6.71484 10.3333 8 10.3333C9.28516 10.3333 10.3333 9.28516 10.3333 8ZM15 7.00651V9.02995C15 9.16667 14.8906 9.33073 14.7448 9.35807L13.0586 9.61328C12.9583 9.90495 12.849 10.1784 12.7031 10.4427C13.013 10.8893 13.3411 11.2904 13.6784 11.7005C13.7331 11.7643 13.7695 11.8464 13.7695 11.9284C13.7695 12.0104 13.7422 12.0742 13.6875 12.138C13.4688 12.4297 12.2383 13.7695 11.9284 13.7695C11.8464 13.7695 11.7643 13.7331 11.6914 13.6875L10.4336 12.7031C10.1693 12.8398 9.88672 12.9583 9.60417 13.0495C9.54036 13.6055 9.48568 14.1979 9.33984 14.7448C9.30338 14.8906 9.17578 15 9.01172 15H6.98828C6.82422 15 6.67839 14.8815 6.66016 14.7266L6.40495 13.0495C6.1224 12.9583 5.84896 12.849 5.58464 12.7122L4.29948 13.6875C4.23568 13.7422 4.15365 13.7695 4.07161 13.7695C3.98958 13.7695 3.90755 13.7331 3.84375 13.6693C3.36068 13.2318 2.72266 12.6667 2.33984 12.138C2.29427 12.0742 2.27604 12.0013 2.27604 11.9284C2.27604 11.8464 2.30339 11.7826 2.34896 11.7188C2.65885 11.2995 2.99609 10.8984 3.30599 10.4701C3.15104 10.1784 3.02344 9.8776 2.93229 9.56771L1.26432 9.32161C1.10938 9.29427 1 9.14844 1 8.99349V6.97005C1 6.83333 1.10938 6.66927 1.24609 6.64193L2.94141 6.38672C3.03255 6.09505 3.15104 5.82161 3.29688 5.54818C2.98698 5.11068 2.65885 4.70052 2.32161 4.29036C2.26693 4.22656 2.23047 4.15365 2.23047 4.07161C2.23047 3.98958 2.26693 3.92578 2.3125 3.86198C2.53125 3.5612 3.76172 2.23047 4.07161 2.23047C4.15365 2.23047 4.23568 2.26693 4.30859 2.32161L5.56641 3.29688C5.83073 3.16016 6.11328 3.04167 6.39583 2.95052C6.45964 2.39453 6.51432 1.80208 6.66016 1.25521C6.69661 1.10938 6.82422 1 6.98828 1H9.01172C9.17578 1 9.32161 1.11849 9.33984 1.27344L9.59505 2.95052C9.8776 3.04167 10.151 3.15104 10.4154 3.28776L11.7096 2.3125C11.7643 2.25781 11.8464 2.23047 11.9284 2.23047C12.0104 2.23047 12.0924 2.26693 12.1562 2.32161C12.6393 2.76823 13.2773 3.33333 13.6602 3.87109C13.7057 3.92578 13.724 3.9987 13.724 4.07161C13.724 4.15365 13.6966 4.21745 13.651 4.28125C13.3411 4.70052 13.0039 5.10156 12.694 5.52995C12.849 5.82161 12.9766 6.1224 13.0677 6.42318L14.7357 6.67839C14.8906 6.70573 15 6.85156 15 7.00651Z" fill="black"/>
</svg>
