<svg width="16" height="16" viewBox="0 0 16 16" fill="none" xmlns="http://www.w3.org/2000/svg">
<path d="M12.6667 9.2C12.4001 9.2 12.1487 9.2558 11.9101 9.3404L9.74358 5.9792C10.1058 5.5562 10.3333 5.0072 10.3333 4.4C10.3333 3.0764 9.28683 2 8 2C6.71317 2 5.66667 3.0764 5.66667 4.4C5.66667 5.0072 5.89417 5.5562 6.257 5.9792L4.0905 9.3404C3.85133 9.2558 3.59992 9.2 3.33333 9.2C2.0465 9.2 1 10.2764 1 11.6C1 12.9236 2.0465 14 3.33333 14C4.41775 14 5.32308 13.2326 5.58383 12.2H10.4162C10.6769 13.2326 11.5822 14 12.6667 14C13.9535 14 15 12.9236 15 11.6C15 10.2764 13.9535 9.2 12.6667 9.2ZM5.06233 10.0034L7.22183 6.653C7.46683 6.7424 7.72583 6.8 8 6.8C8.27417 6.8 8.53317 6.7424 8.77758 6.6524L10.9371 10.0028C10.6915 10.2842 10.5107 10.6226 10.4156 10.9994H5.58383C5.48875 10.6232 5.30792 10.2842 5.06233 10.0034Z" fill="black"/>
</svg>
