<svg width="16" height="16" viewBox="0 0 16 16" fill="none" xmlns="http://www.w3.org/2000/svg">
<path d="M15 12.061C15 12.2389 14.9644 12.4705 14.8933 12.7556C14.8221 13.0406 14.7509 13.2662 14.6798 13.4323C14.5493 13.7649 14.1457 14.1212 13.469 14.5012C12.8515 14.8337 12.2402 15 11.635 15C11.4571 15 11.279 14.9881 11.1007 14.9644C10.9224 14.9407 10.7325 14.8992 10.5309 14.8398C10.3293 14.7805 10.1749 14.7331 10.0678 14.6975C9.96067 14.6619 9.77666 14.5966 9.51574 14.5017C9.25483 14.4068 9.0886 14.3475 9.01707 14.3238C8.3759 14.0861 7.80014 13.8071 7.2898 13.4868C6.44701 12.9645 5.56845 12.2519 4.65413 11.3492C3.73981 10.4464 3.02748 9.56757 2.51713 8.71265C2.19655 8.20215 1.92359 7.6262 1.69825 6.98483C1.67453 6.92551 1.61523 6.75923 1.52035 6.486C1.42547 6.21276 1.35431 6.02869 1.30687 5.93378C1.25943 5.83887 1.21199 5.68446 1.16456 5.47055C1.11712 5.25663 1.07561 5.06663 1.04003 4.90054C1.00445 4.73445 0.992588 4.56224 1.00445 4.38391C1.00445 3.76626 1.1766 3.1488 1.52091 2.53152C1.88893 1.85455 2.23917 1.45082 2.57162 1.32032C2.73765 1.24914 2.96318 1.17795 3.24818 1.10677C3.53319 1.03559 3.76464 1 3.94254 1C4.03742 1 4.10858 1.01186 4.15602 1.03559C4.27462 1.07118 4.4527 1.3205 4.69027 1.78356C4.76143 1.91405 4.85649 2.09813 4.97546 2.33577C5.09443 2.57341 5.21321 2.78121 5.33181 2.95917C5.45041 3.13712 5.5514 3.31526 5.63479 3.49358C5.65851 3.51731 5.71781 3.60036 5.81269 3.74272C5.90757 3.88508 5.97873 4.00391 6.02617 4.09919C6.07361 4.19447 6.09733 4.28937 6.09733 4.38391C6.09733 4.51441 6.00245 4.67476 5.81269 4.86495C5.62293 5.05513 5.4152 5.23921 5.18949 5.41716C4.96378 5.59511 4.76198 5.77325 4.58408 5.95158C4.40619 6.1299 4.31112 6.27838 4.29889 6.39702C4.29889 6.45634 4.31668 6.53345 4.35226 6.62836C4.38784 6.72327 4.41156 6.78852 4.42342 6.82411C4.43528 6.8597 4.48272 6.94275 4.56574 7.07325C4.64876 7.20375 4.69027 7.26306 4.69027 7.2512C5.18875 8.16544 5.76451 8.94918 6.41754 9.60242C7.07058 10.2557 7.84814 10.8316 8.75023 11.3302C8.76209 11.3302 8.82139 11.3658 8.92813 11.437C9.03486 11.5082 9.11788 11.5557 9.17718 11.5794C9.23648 11.6031 9.30171 11.6328 9.37287 11.6684C9.44403 11.704 9.52112 11.7158 9.60414 11.704C9.72274 11.704 9.87117 11.609 10.0494 11.4192C10.2277 11.2294 10.4058 11.0275 10.5837 10.8136C10.7616 10.5997 10.9456 10.3919 11.1357 10.1902C11.3259 9.98855 11.4921 9.89364 11.6344 9.9055C11.7174 9.9055 11.8064 9.92923 11.9012 9.97668C11.9961 10.0241 12.1149 10.0953 12.2576 10.1902C12.4003 10.2851 12.4833 10.3445 12.5067 10.3682C12.6727 10.4631 12.8508 10.5641 13.0409 10.6713C13.231 10.7784 13.4447 10.8972 13.6819 11.0277C13.9191 11.1582 14.0972 11.2593 14.2161 11.3308C14.679 11.5566 14.9283 11.7288 14.9639 11.8474C14.9876 11.8949 14.9994 11.9661 14.9994 12.061H15Z" fill="black"/>
</svg>
