<svg width="16" height="16" viewBox="0 0 16 16" fill="none" xmlns="http://www.w3.org/2000/svg">
<path d="M7.53333 7.99638C7.53333 6.96825 6.69479 6.12971 5.66667 6.12971C4.63854 6.12971 3.8 6.96825 3.8 7.99638C3.8 9.0245 4.63854 9.86305 5.66667 9.86305C6.69479 9.86305 7.53333 9.0245 7.53333 7.99638ZM13.1333 11.7297C13.1333 11.2193 12.7104 10.7964 12.2 10.7964C11.6896 10.7964 11.2667 11.2193 11.2667 11.7297C11.2667 12.2474 11.6896 12.663 12.2 12.663C12.7177 12.663 13.1333 12.2401 13.1333 11.7297ZM13.1333 4.26305C13.1333 3.75263 12.7104 3.32971 12.2 3.32971C11.6896 3.32971 11.2667 3.75263 11.2667 4.26305C11.2667 4.78075 11.6896 5.19638 12.2 5.19638C12.7177 5.19638 13.1333 4.77346 13.1333 4.26305ZM10.3333 7.33284V8.6818C10.3333 8.77659 10.2604 8.88596 10.1656 8.90055L9.03542 9.07555C8.97708 9.26513 8.89687 9.44742 8.80208 9.62971C9.00625 9.92138 9.225 10.1912 9.45833 10.4683C9.4875 10.512 9.50937 10.5558 9.50937 10.6141C9.50937 10.6651 9.49479 10.7162 9.45833 10.7526C9.3125 10.9495 8.49583 11.8391 8.28438 11.8391C8.22604 11.8391 8.175 11.8172 8.13125 11.788L7.29271 11.1318C7.11042 11.2266 6.92812 11.2995 6.73125 11.3578C6.69479 11.7297 6.65833 12.1308 6.56354 12.488C6.53438 12.5901 6.44688 12.663 6.34479 12.663H4.98854C4.88646 12.663 4.78437 12.5828 4.76979 12.4808L4.60208 11.3651C4.4125 11.3068 4.23021 11.2266 4.05521 11.1391L3.19479 11.788C3.15833 11.8245 3.1 11.8391 3.04896 11.8391C2.99063 11.8391 2.93958 11.8172 2.89583 11.7808C2.70625 11.6058 1.84583 10.8255 1.84583 10.6141C1.84583 10.563 1.86771 10.5193 1.89688 10.4755C2.10833 10.1985 2.32708 9.92867 2.53854 9.6443C2.43646 9.44742 2.34896 9.25055 2.28333 9.04638L1.175 8.87138C1.07292 8.8568 1 8.762 1 8.65992V7.31096C1 7.21617 1.07292 7.1068 1.16771 7.09221L2.29792 6.91721C2.35625 6.72763 2.43646 6.54534 2.53125 6.36305C2.32708 6.07138 2.10833 5.80159 1.875 5.5245C1.84583 5.48075 1.82396 5.42971 1.82396 5.37867C1.82396 5.32763 1.83854 5.27659 1.875 5.23284C2.02083 5.03596 2.8375 4.15367 3.04896 4.15367C3.10729 4.15367 3.15833 4.17555 3.20208 4.20471L4.04063 4.86096C4.22292 4.76617 4.40521 4.69325 4.60208 4.62763C4.63854 4.26305 4.675 3.862 4.76979 3.50471C4.79896 3.40263 4.88646 3.32971 4.98854 3.32971H6.34479C6.44688 3.32971 6.54896 3.40992 6.56354 3.512L6.73125 4.62763C6.92083 4.68596 7.10313 4.76617 7.27812 4.85367L8.13854 4.20471C8.18229 4.16825 8.23333 4.15367 8.28438 4.15367C8.34271 4.15367 8.39375 4.17555 8.4375 4.212C8.62708 4.387 9.4875 5.1745 9.4875 5.37867C9.4875 5.42971 9.46562 5.47346 9.43646 5.51721C9.225 5.80159 9.00625 6.06409 8.80208 6.34846C8.89687 6.54534 8.98438 6.74221 9.05 6.94638L10.1583 7.11409C10.2604 7.13596 10.3333 7.23075 10.3333 7.33284ZM15 11.2193V12.2401C15 12.3495 14.0594 12.4516 13.9135 12.4662C13.8552 12.6047 13.7823 12.7287 13.6948 12.8453C13.7604 12.9912 14.0667 13.7203 14.0667 13.8516C14.0667 13.8735 14.0594 13.888 14.0375 13.9026C13.95 13.9537 13.1698 14.4203 13.1333 14.4203C13.0385 14.4203 12.4917 13.6912 12.4187 13.5818C12.3458 13.5891 12.2729 13.5964 12.2 13.5964C12.1271 13.5964 12.0542 13.5891 11.9812 13.5818C11.9083 13.6912 11.3615 14.4203 11.2667 14.4203C11.2302 14.4203 10.45 13.9537 10.3625 13.9026C10.3406 13.888 10.3333 13.8662 10.3333 13.8516C10.3333 13.7276 10.6396 12.9912 10.7052 12.8453C10.6177 12.7287 10.5448 12.6047 10.4865 12.4662C10.3406 12.4516 9.4 12.3495 9.4 12.2401V11.2193C9.4 11.1099 10.3406 11.0078 10.4865 10.9933C10.5448 10.862 10.6177 10.7308 10.7052 10.6141C10.6396 10.4683 10.3333 9.7318 10.3333 9.60784C10.3333 9.59325 10.3406 9.57138 10.3625 9.5568C10.45 9.51305 11.2302 9.04638 11.2667 9.04638C11.3615 9.04638 11.9083 9.76825 11.9812 9.87763C12.0542 9.87034 12.1271 9.86305 12.2 9.86305C12.2729 9.86305 12.3458 9.87034 12.4187 9.87763C12.6229 9.59325 12.8417 9.30888 13.0896 9.06096L13.1333 9.04638C13.1698 9.04638 13.95 9.50575 14.0375 9.5568C14.0594 9.57138 14.0667 9.59325 14.0667 9.60784C14.0667 9.73909 13.7604 10.4683 13.6948 10.6141C13.7823 10.7308 13.8552 10.862 13.9135 10.9933C14.0594 11.0078 15 11.1099 15 11.2193ZM15 3.75263V4.77346C15 4.88284 14.0594 4.98492 13.9135 4.9995C13.8552 5.13805 13.7823 5.262 13.6948 5.37867C13.7604 5.5245 14.0667 6.25367 14.0667 6.38492C14.0667 6.4068 14.0594 6.42138 14.0375 6.43596C13.95 6.487 13.1698 6.95367 13.1333 6.95367C13.0385 6.95367 12.4917 6.2245 12.4187 6.11513C12.3458 6.12242 12.2729 6.12971 12.2 6.12971C12.1271 6.12971 12.0542 6.12242 11.9812 6.11513C11.9083 6.2245 11.3615 6.95367 11.2667 6.95367C11.2302 6.95367 10.45 6.487 10.3625 6.43596C10.3406 6.42138 10.3333 6.3995 10.3333 6.38492C10.3333 6.26096 10.6396 5.5245 10.7052 5.37867C10.6177 5.262 10.5448 5.13805 10.4865 4.9995C10.3406 4.98492 9.4 4.88284 9.4 4.77346V3.75263C9.4 3.64325 10.3406 3.54117 10.4865 3.52659C10.5448 3.39534 10.6177 3.26409 10.7052 3.14742C10.6396 3.00159 10.3333 2.26513 10.3333 2.14117C10.3333 2.12659 10.3406 2.10471 10.3625 2.09013C10.45 2.04638 11.2302 1.57971 11.2667 1.57971C11.3615 1.57971 11.9083 2.30159 11.9812 2.41096C12.0542 2.40367 12.1271 2.39638 12.2 2.39638C12.2729 2.39638 12.3458 2.40367 12.4187 2.41096C12.6229 2.12659 12.8417 1.84221 13.0896 1.5943L13.1333 1.57971C13.1698 1.57971 13.95 2.03909 14.0375 2.09013C14.0594 2.10471 14.0667 2.12659 14.0667 2.14117C14.0667 2.27242 13.7604 3.00159 13.6948 3.14742C13.7823 3.26409 13.8552 3.39534 13.9135 3.52659C14.0594 3.54117 15 3.64325 15 3.75263Z" fill="black"/>
</svg>
