<svg width="16" height="16" viewBox="0 0 16 16" fill="none" xmlns="http://www.w3.org/2000/svg">
<path d="M14.0854 3C14.5894 3 15 3.43624 15 3.96966L14.9907 12.0303C14.9907 12.5638 14.5801 13 14.076 13H1.91943C1.40602 13 1 12.5734 1 12.0303V3.96966C1 3.43624 1.41056 3 1.92397 3H14.0854ZM2 4C2 3.97094 1.99068 4 2 4V6H14V4C14.0093 4.00969 14 3.97094 14 4H2ZM14 12C14 12 14.0093 11.9806 14.0093 11.9516L14 7H2V11.9414C2 11.9705 1.99068 12 2 12H14ZM6.5 9.07878C6.75204 9.07878 6.94814 9.28252 6.94814 9.5344C6.94814 9.79626 6.75204 10 6.5 10H3.90561C3.65357 10 3.44814 9.79626 3.44814 9.5344C3.44814 9.28222 3.65357 9.07878 3.90561 9.07878H6.5Z" fill="black"/>
</svg>
