<svg width="16" height="17" viewBox="0 0 16 17" fill="none" xmlns="http://www.w3.org/2000/svg">
<path d="M14.1704 2.55047L13.2725 2.13791V8.78791L14.9011 4.47241C15.1758 3.72122 14.861 2.85978 14.1704 2.55047ZM1.10083 5.27522L4.42497 14.076C4.63271 14.643 5.12197 14.989 5.63809 15.0039C5.81254 15.0039 5.99341 14.9672 6.16745 14.8862L11.1069 12.6401C11.6094 12.4117 11.9178 11.8666 11.9315 11.3219C11.9383 11.1303 11.9046 10.9168 11.8444 10.7256L8.49343 1.92484C8.29893 1.35784 7.80326 1.01178 7.28031 1.00434C7.10587 1.00434 6.93182 1.04853 6.76419 1.11503L1.83151 3.36116C1.14775 3.67047 0.819307 4.53191 1.10083 5.27609V5.27522ZM11.9251 2.47697C11.9251 1.66672 11.3219 1.00391 10.5844 1.00391H9.61271L11.9251 7.14597V2.47697Z" fill="black"/>
</svg>
