<svg width="16" height="16" viewBox="0 0 16 16" fill="none" xmlns="http://www.w3.org/2000/svg">
<path fill-rule="evenodd" clip-rule="evenodd" d="M6.18349 10.1026L3.00462 6.42301C2.75381 6.1327 2.34717 6.1327 2.09636 6.42301L1.18811 7.47433C0.937298 7.76465 0.937298 8.23534 1.18811 8.52565L4.81664 12.7257C4.81811 12.7275 4.8196 12.7292 4.82109 12.7309L5.72934 13.7823C5.84209 13.9128 5.98632 13.9846 6.13373 13.9978C6.23227 14.0066 6.33222 13.9892 6.42514 13.9456C6.50247 13.9093 6.57492 13.8548 6.63764 13.7823L7.54589 12.7309C7.54716 12.7295 7.54842 12.728 7.54968 12.7265L14.8119 4.32038C15.0627 4.03006 15.0627 3.55937 14.8119 3.26906L13.9036 2.21774C13.6528 1.92742 13.2462 1.92742 12.9954 2.21774L6.18349 10.1026Z" fill="black"/>
</svg>
