<svg width="16" height="16" viewBox="0 0 16 16" fill="none" xmlns="http://www.w3.org/2000/svg">
<path d="M8.00022 6.62527C8.59756 6.62527 9.09684 6.82688 9.49808 7.23011C9.89932 7.63333 10.0999 8.11912 10.0999 8.68747C10.0999 9.25582 9.89465 9.74161 9.48409 10.1448C9.07353 10.5481 8.57891 10.7497 8.00022 10.7497C7.42153 10.7497 6.9269 10.5481 6.51634 10.1448C6.10578 9.74161 5.9005 9.25582 5.9005 8.68747C5.9005 8.11912 6.10578 7.63333 6.51634 7.23011C6.9269 6.82688 7.42153 6.62527 8.00022 6.62527ZM13.6 4.56263C13.992 4.56263 14.3233 4.69556 14.594 4.96142C14.8647 5.22728 15 5.55267 15 5.93758V12.1251C15 12.4916 14.8647 12.8125 14.594 13.0875C14.3233 13.3625 13.992 13.5 13.6 13.5H2.39996C2.02669 13.5 1.70005 13.3625 1.42003 13.0875C1.14001 12.8125 1 12.4916 1 12.1251V5.93758C1 5.55267 1.14001 5.22728 1.42003 4.96142C1.70005 4.69556 2.02669 4.56263 2.39996 4.56263H4.08008C4.34145 4.56263 4.52808 4.42513 4.63997 4.15011L5.06 2.88505C5.15325 2.62835 5.33988 2.5 5.6199 2.5H10.3801C10.6601 2.5 10.8468 2.62835 10.94 2.88505L11.36 4.15011C11.4719 4.42513 11.6585 4.56263 11.9199 4.56263H13.6ZM8.00022 12.1255C8.97082 12.1255 9.7969 11.7909 10.4784 11.1219C11.16 10.4528 11.5006 9.64145 11.5003 8.6879C11.5 7.73435 11.1594 6.92304 10.4784 6.25395C9.79748 5.58487 8.9714 5.25032 8.00022 5.25032C7.02904 5.25032 6.20296 5.58487 5.52199 6.25395C4.84103 6.92304 4.5004 7.73435 4.50011 8.6879C4.49982 9.64145 4.84045 10.4528 5.52199 11.1219C6.20354 11.7909 7.02962 12.1255 8.00022 12.1255ZM13.1241 6.90043C13.2546 6.90043 13.3666 6.85006 13.4602 6.74933C13.5537 6.64859 13.6003 6.53398 13.6 6.40548C13.5998 6.27699 13.5531 6.16695 13.4602 6.07538C13.3672 5.9838 13.2552 5.93801 13.1241 5.93801C12.7881 5.93801 12.6201 6.09383 12.6201 6.40548C12.6201 6.55201 12.6714 6.6712 12.774 6.76306C12.8765 6.85493 12.9932 6.90072 13.1241 6.90043Z" fill="black"/>
</svg>
