<svg width="16" height="16" viewBox="0 0 16 16" fill="none" xmlns="http://www.w3.org/2000/svg">
<path d="M4.23547 4.23395H11.7676V11.766H4.23547V4.23395ZM14.7416 5.85017C14.9031 5.85017 15 5.73714 15 5.57517C15 5.41319 14.9031 5.30016 14.7416 5.30016H13.9333V4.23345H14.7416C14.9031 4.23345 15 4.12042 15 3.95844C15 3.79647 14.9031 3.68344 14.7416 3.68344H13.9333V3.15008C13.9333 2.55214 13.4484 2.06722 12.8504 2.06722H12.3171V1.25886C12.3171 1.09739 12.204 1 12.0421 1C11.8801 1 11.7671 1.09688 11.7671 1.25886V2.06722H10.7003V1.25886C10.7003 1.09739 10.5873 1 10.4253 1C10.2634 1 10.1503 1.09688 10.1503 1.25886V2.06722H9.08362V1.25886C9.08362 1.09739 8.97059 1 8.80861 1C8.64664 1 8.53361 1.09688 8.53361 1.25886V2.06722H7.46689V1.25886C7.46689 1.09739 7.35387 1 7.19189 1C7.02991 1 6.91689 1.09688 6.91689 1.25886V2.06722H5.85017V1.25886C5.85017 1.09739 5.73714 1 5.57517 1C5.41319 1 5.30016 1.09688 5.30016 1.25886V2.06722H4.23345V1.25886C4.23345 1.09739 4.12042 1 3.95844 1C3.79647 1 3.68344 1.09688 3.68344 1.25886V2.06722H3.15008C2.55214 2.06722 2.06722 2.55214 2.06722 3.15008V3.68344H1.25886C1.09739 3.68344 1 3.79647 1 3.95844C1 4.12042 1.09688 4.23345 1.25886 4.23345H2.06722V5.30016H1.25886C1.09739 5.30016 1 5.41319 1 5.57517C1 5.73714 1.09688 5.85017 1.25886 5.85017H2.06722V6.91689H1.25886C1.09739 6.91689 1 7.02991 1 7.19189C1 7.35387 1.09688 7.46689 1.25886 7.46689H2.06722V8.53361H1.25886C1.09739 8.53361 1 8.64664 1 8.80861C1 8.97059 1.09688 9.08362 1.25886 9.08362H2.06722V10.1503H1.25886C1.09739 10.1503 1 10.2634 1 10.4253C1 10.5873 1.09688 10.7003 1.25886 10.7003H2.06722V11.7671H1.25886C1.09739 11.7671 1 11.8801 1 12.0421C1 12.204 1.09688 12.3171 1.25886 12.3171H2.06722V12.8504C2.06722 13.4484 2.55214 13.9333 3.15008 13.9333H3.68344V14.7416C3.68344 14.9031 3.79647 15 3.95844 15C4.12042 15 4.23345 14.9031 4.23345 14.7416V13.9333H5.30016V14.7416C5.30016 14.9031 5.41319 15 5.57517 15C5.73714 15 5.85017 14.9031 5.85017 14.7416V13.9333H6.91689V14.7416C6.91689 14.9031 7.02991 15 7.19189 15C7.35387 15 7.46689 14.9031 7.46689 14.7416V13.9333H8.53361V14.7416C8.53361 14.9031 8.64664 15 8.80861 15C8.97059 15 9.08362 14.9031 9.08362 14.7416V13.9333H10.1503V14.7416C10.1503 14.9031 10.2634 15 10.4253 15C10.5873 15 10.7003 14.9031 10.7003 14.7416V13.9333H11.7671V14.7416C11.7671 14.9031 11.8801 15 12.0421 15C12.204 15 12.3171 14.9031 12.3171 14.7416V13.9333H12.8504C13.4484 13.9333 13.9333 13.4484 13.9333 12.8504V12.3171H14.7416C14.9031 12.3171 15 12.204 15 12.0421C15 11.8801 14.9031 11.7671 14.7416 11.7671H13.9333V10.7003H14.7416C14.9031 10.7003 15 10.5873 15 10.4253C15 10.2634 14.9031 10.1503 14.7416 10.1503H13.9333V9.08362H14.7416C14.9031 9.08362 15 8.97059 15 8.80861C15 8.64664 14.9031 8.53361 14.7416 8.53361H13.9333V7.46689H14.7416C14.9031 7.46689 15 7.35387 15 7.19189C15 7.02991 14.9031 6.91689 14.7416 6.91689H13.9333V5.85017H14.7416ZM12.3171 12.0405C12.3171 12.202 12.204 12.3156 12.0421 12.3156H3.96046C3.79899 12.3156 3.68546 12.2025 3.68546 12.0405V3.95895C3.68546 3.79748 3.79849 3.68394 3.96046 3.68394H12.0421C12.2035 3.68394 12.3171 3.79697 12.3171 3.95895V12.0405Z" fill="black"/>
</svg>
