<svg width="16" height="16" viewBox="0 0 16 16" fill="none" xmlns="http://www.w3.org/2000/svg">
<path d="M5.06032 9.54018H9.96023C9.97888 9.54018 10.0068 9.53086 10.0441 9.51221H10.1001V10.8002C10.1001 11.1735 9.96474 11.5001 9.69406 11.7801C9.42337 12.0601 9.09208 12.2001 8.70018 12.2001H5.20018L3.10009 14.3002V12.2001H2.39991C2.02666 12.2001 1.70003 12.0601 1.42002 11.7801C1.14001 11.5001 1 11.1735 1 10.8002V6.60049C1 6.20859 1.14001 5.8773 1.42002 5.60661C1.70003 5.33593 2.02666 5.20058 2.39991 5.20058H5.05988V9.54062L5.06032 9.54018ZM13.6001 1.70014C13.992 1.70014 14.3233 1.83549 14.594 2.10618C14.8647 2.37686 15 2.70816 15 3.10006V7.29979C15 7.67305 14.8647 7.99968 14.594 8.27969C14.3233 8.5597 13.992 8.69971 13.6001 8.69971H12.8999V10.7998L10.7998 8.69971H5.89991V3.09962C5.89991 2.70772 6.03992 2.37643 6.31993 2.10574C6.59994 1.83505 6.92657 1.69971 7.29983 1.69971H13.5997L13.6001 1.70014Z" fill="black"/>
</svg>
