<svg width="16" height="16" viewBox="0 0 16 16" fill="none" xmlns="http://www.w3.org/2000/svg">
<path d="M3.33325 13.4445C3.33325 13.0298 3.48882 12.6668 3.79995 12.3557C4.11108 12.0446 4.47402 11.889 4.88875 11.889C5.32421 11.889 5.69232 12.0446 5.9931 12.3557C6.29387 12.6668 6.44425 13.0298 6.44425 13.4445C6.44425 13.88 6.29387 14.2481 5.9931 14.5488C5.69232 14.8496 5.32421 15 4.88875 15C4.47402 15 4.11108 14.8496 3.79995 14.5488C3.48882 14.2481 3.33325 13.88 3.33325 13.4445ZM11.1108 13.4445C11.1108 13.0298 11.2663 12.6668 11.5775 12.3557C11.8886 12.0446 12.2515 11.889 12.6663 11.889C13.1017 11.889 13.4698 12.0446 13.7706 12.3557C14.0714 12.6668 14.2218 13.0298 14.2218 13.4445C14.2218 13.88 14.0714 14.2481 13.7706 14.5488C13.4698 14.8496 13.1017 15 12.6663 15C12.2515 15 11.8886 14.8496 11.5775 14.5488C11.2663 14.2481 11.1108 13.88 11.1108 13.4445ZM6.10188 9.77355C5.72858 9.87716 5.5523 9.99646 5.57302 10.1315C5.59374 10.2665 5.82183 10.3338 6.25728 10.3335H14.9998V11.5155C14.9998 11.7231 14.896 11.8268 14.6885 11.8268H4.5153C4.30777 11.8268 4.204 11.7231 4.204 11.5155V10.3335L4.0486 9.61815L2.52418 2.55599H0.999756V1.31129C0.999756 1.10376 1.10352 1 1.31105 1H3.73779C3.94532 1 4.04908 1.10376 4.04908 1.31129V2.64923H15.0002V6.91168C15.0002 7.13993 14.9068 7.27478 14.72 7.31622L6.10188 9.77355Z" fill="black"/>
</svg>
