<svg width="16" height="16" viewBox="0 0 16 16" fill="none" xmlns="http://www.w3.org/2000/svg">
<path fill-rule="evenodd" clip-rule="evenodd" d="M4.11093 2.6967C3.91567 2.50144 3.59909 2.50144 3.40383 2.6967L2.69672 3.40381C2.50146 3.59907 2.50146 3.91565 2.69672 4.11091L6.58581 8L2.69672 11.8891C2.50146 12.0843 2.50146 12.4009 2.69672 12.5962L3.40383 13.3033C3.59909 13.4986 3.91567 13.4986 4.11093 13.3033L8.00002 9.41421L11.8891 13.3033C12.0844 13.4986 12.401 13.4986 12.5962 13.3033L13.3033 12.5962C13.4986 12.4009 13.4986 12.0844 13.3033 11.8891L9.41423 8L13.3033 4.11091C13.4986 3.91565 13.4986 3.59907 13.3033 3.40381L12.5962 2.6967C12.401 2.50144 12.0844 2.50144 11.8891 2.6967L8.00002 6.58579L4.11093 2.6967Z" fill="black"/>
</svg>
