<svg width="16" height="16" viewBox="0 0 16 16" fill="none" xmlns="http://www.w3.org/2000/svg">
<path d="M14.5466 10.1601C14.7146 10.2542 14.8406 10.4048 14.9245 10.6119C15.0084 10.8191 15.0224 11.0073 14.9664 11.1765L14.5745 13.3508C14.5372 13.5391 14.4346 13.6944 14.2665 13.8166C14.0984 13.9389 13.9119 14 13.7068 14H2.28652C2.08117 14 1.8946 13.9389 1.72682 13.8166C1.55904 13.6944 1.45637 13.5391 1.41879 13.3508L1.02687 11.1765C0.933661 10.7246 1.08294 10.3858 1.47472 10.1601L3.68598 8.63557H5.05748L2.67844 10.4709H5.16977C5.24434 10.4709 5.30026 10.5085 5.33755 10.5837L5.89725 12.1365H10.0956L10.6553 10.5837C10.7299 10.5085 10.7858 10.4709 10.8231 10.4709H13.3144L10.9354 8.63557H12.3069L14.5466 10.1601ZM10.3804 5.61419C10.8325 5.61419 11.0524 6.16647 10.7242 6.47728L8.34085 8.73368C8.14803 8.91623 7.84616 8.91623 7.65334 8.73368L5.27003 6.47728C4.94175 6.16648 5.16171 5.61419 5.61379 5.61419H6.68152V2.5C6.68152 2.22386 6.90538 2 7.18152 2H8.84063C9.11677 2 9.34063 2.22386 9.34063 2.5V5.61419H10.3804Z" fill="black"/>
</svg>
