<svg width="16" height="16" viewBox="0 0 16 16" fill="none" xmlns="http://www.w3.org/2000/svg">
<path d="M15 9.12505V11.3752C15 11.9965 14.4776 12.5 13.8332 12.5H2.16678C1.52236 12.5 1 11.9965 1 11.3752V9.12505C1 8.50375 1.52236 8.00021 2.16678 8.00021H13.8332C14.4776 8.00021 15 8.50375 15 9.12505ZM13.8332 7.25004C14.09 7.24961 14.3442 7.29911 14.5813 7.3947L12.2351 4.00097C12.0185 3.68818 11.6545 3.5 11.2643 3.5H4.7357C4.34546 3.5 3.98147 3.68818 3.76491 4.00097L1.41867 7.3947C1.65579 7.29911 1.90997 7.25004 2.16678 7.25004H13.8332ZM12.6669 9.50014C12.2373 9.50014 11.889 9.83597 11.889 10.2503C11.889 10.6647 12.2373 11.0005 12.6669 11.0005C13.0965 11.0005 13.4447 10.6647 13.4447 10.2503C13.4447 9.83597 13.0965 9.50014 12.6669 9.50014ZM10.3333 9.50014C9.90372 9.50014 9.55548 9.83597 9.55548 10.2503C9.55548 10.6647 9.90372 11.0005 10.3333 11.0005C10.7629 11.0005 11.1112 10.6647 11.1112 10.2503C11.1112 9.83597 10.7629 9.50014 10.3333 9.50014Z" fill="black"/>
</svg>
