<svg width="16" height="16" viewBox="0 0 16 16" fill="none" xmlns="http://www.w3.org/2000/svg">
<path fill-rule="evenodd" clip-rule="evenodd" d="M7.83145 1.0131C6.73622 1.11335 5.88195 1.93535 6.01337 2.9378L6.80193 9.97497C6.84574 10.5163 7.32764 10.9373 7.91906 10.9975C8.5762 11.0376 9.16762 10.5965 9.23333 9.99502V10.0151L9.99999 2.99795V2.61702C9.89047 1.61457 8.90477 0.892807 7.83145 1.0131ZM7.99999 15C8.82842 15 9.49999 14.3284 9.49999 13.5C9.49999 12.6716 8.82842 12 7.99999 12C7.17156 12 6.49999 12.6716 6.49999 13.5C6.49999 14.3284 7.17156 15 7.99999 15Z" fill="black"/>
</svg>
