<svg width="16" height="16" viewBox="0 0 16 16" fill="none" xmlns="http://www.w3.org/2000/svg">
<path d="M1 5.625V1.75C1 1.33437 1.33437 1 1.75 1H5.625C5.83125 1 6 1.16875 6 1.375V2.625C6 2.83125 5.83125 3 5.625 3H3V5.625C3 5.83125 2.83125 6 2.625 6H1.375C1.16875 6 1 5.83125 1 5.625ZM10 1.375V2.625C10 2.83125 10.1687 3 10.375 3H13V5.625C13 5.83125 13.1687 6 13.375 6H14.625C14.8313 6 15 5.83125 15 5.625V1.75C15 1.33437 14.6656 1 14.25 1H10.375C10.1687 1 10 1.16875 10 1.375ZM14.625 10H13.375C13.1687 10 13 10.1687 13 10.375V13H10.375C10.1687 13 10 13.1687 10 13.375V14.625C10 14.8313 10.1687 15 10.375 15H14.25C14.6656 15 15 14.6656 15 14.25V10.375C15 10.1687 14.8313 10 14.625 10ZM6 14.625V13.375C6 13.1687 5.83125 13 5.625 13H3V10.375C3 10.1687 2.83125 10 2.625 10H1.375C1.16875 10 1 10.1687 1 10.375V14.25C1 14.6656 1.33437 15 1.75 15H5.625C5.83125 15 6 14.8313 6 14.625Z" fill="black"/>
</svg>
