<svg width="16" height="16" viewBox="0 0 16 16" fill="none" xmlns="http://www.w3.org/2000/svg">
<path d="M11.5001 12.5795V10.867L12.9002 9.70163V13.2898C12.9002 13.4793 12.8302 13.6451 12.6903 13.7871C12.5505 13.929 12.3871 14 12.2004 14H1.6998C1.51301 14 1.34968 13.929 1.20981 13.7871C1.06994 13.6451 1 13.4793 1 13.2898V4.55789C1 4.3494 1.06527 4.1789 1.19582 4.0464C1.32637 3.91391 1.49436 3.84766 1.6998 3.84766H5.73209C5.4334 4.07509 5.15802 4.30725 4.90596 4.54414C4.6539 4.78103 4.47192 4.96573 4.36002 5.09822L4.22014 5.26857H2.40004V12.5795H11.5001ZM10.3523 6.71787C8.80289 6.71787 7.67341 6.91202 6.96385 7.30033C6.25428 7.68865 5.50756 8.54601 4.72369 9.87242C4.72369 9.79671 4.72835 9.69246 4.73768 9.55968C4.747 9.42689 4.78896 9.1616 4.86356 8.76383C4.93816 8.36605 5.04088 7.99193 5.17172 7.64148C5.30256 7.29102 5.50785 6.89783 5.7876 6.4619C6.06735 6.02597 6.39401 5.65185 6.76759 5.33955C7.14116 5.02724 7.64048 4.76196 8.26554 4.5437C8.8906 4.32544 9.58603 4.21646 10.3518 4.21675V3.01145C10.3518 2.59733 10.8264 2.36272 11.1555 2.61419L14.4903 5.16295C14.749 5.36068 14.7527 5.74902 14.4978 5.95163L11.1631 8.6021C10.8355 8.86253 10.3519 8.62915 10.352 8.21059L10.3523 6.71787Z" fill="black"/>
</svg>
