<svg width="16" height="16" viewBox="0 0 16 16" fill="none" xmlns="http://www.w3.org/2000/svg">
<path d="M8 4C8.85868 4 9.68473 4.11909 10.4781 4.35727C11.2716 4.59545 11.9295 4.89072 12.4519 5.24309C12.9744 5.59545 13.4363 5.96209 13.8378 6.343C14.2394 6.72391 14.5334 7.062 14.7198 7.35727C14.9063 7.65254 14.9997 7.86679 15 8C15.0003 8.13321 14.9069 8.3427 14.7198 8.62846C14.5328 8.91421 14.2388 9.2523 13.8378 9.64273C13.4369 10.0332 12.9749 10.4046 12.4519 10.7569C11.9289 11.1093 11.271 11.4046 10.4781 11.6427C9.68531 11.8809 8.85927 12 8 12C7.14073 12 6.31468 11.8809 5.52185 11.6427C4.72902 11.4046 4.0711 11.1093 3.54808 10.7569C3.02506 10.4046 2.56308 10.0332 2.16215 9.64273C1.76122 9.2523 1.46722 8.91421 1.28016 8.62846C1.0931 8.3427 0.999709 8.13321 1 8C1.00029 7.86679 1.09368 7.65254 1.28016 7.35727C1.46664 7.062 1.76064 6.72391 2.16215 6.343C2.56367 5.96209 3.02564 5.59545 3.54808 5.24309C4.07051 4.89072 4.72844 4.59545 5.52185 4.35727C6.31527 4.11909 7.14132 4 8 4ZM8 11.0575C8.85868 11.0575 9.59135 10.7575 10.198 10.1574C10.8046 9.55739 11.108 8.83824 11.108 8C11.108 7.14273 10.8046 6.41406 10.198 5.81401C9.59135 5.21395 8.85868 4.91392 8 4.91392C7.14132 4.91392 6.40865 5.21395 5.80201 5.81401C5.19537 6.41406 4.89205 7.14273 4.89205 8C4.89205 8.83824 5.19537 9.55739 5.80201 10.1574C6.40865 10.7575 7.14132 11.0575 8 11.0575ZM8 8C8.07459 8.07612 8.24723 8.08564 8.51792 8.02855C8.78861 7.97145 9.022 7.91912 9.21809 7.87154C9.41419 7.82397 9.53088 7.86679 9.56818 8C9.56818 8.41897 9.41419 8.77609 9.10621 9.07136C8.79822 9.36664 8.42963 9.51427 8.00044 9.51427C7.57124 9.51427 7.20731 9.36664 6.90865 9.07136C6.60999 8.77609 6.46066 8.41897 6.46066 8C6.46066 7.562 6.60999 7.19536 6.90865 6.90009C7.20731 6.60482 7.57124 6.45718 8.00044 6.45718C8.13097 6.45718 8.17759 6.56676 8.1403 6.78591C8.103 7.00505 8.04706 7.22881 7.97246 7.45718C7.89787 7.68555 7.9072 7.86649 8.00044 8H8Z" fill="black"/>
</svg>
