<svg width="16" height="17" viewBox="0 0 16 17" fill="none" xmlns="http://www.w3.org/2000/svg">
<path d="M7.68509 7.32123H8.29508V10.4924H7.68509V7.32123Z" fill="black"/>
<path d="M9.32662 11.6188L9.22248 11.0934H9.17289C8.78474 11.1708 8.38911 11.2089 7.99258 11.207C7.59972 11.2062 7.20783 11.1698 6.8222 11.0982L6.76764 11.0934L6.64862 11.6851H6.69325C7.12088 11.768 7.55623 11.8092 7.99258 11.8081C8.44257 11.8093 8.89142 11.7649 9.33158 11.6756V11.633L9.32662 11.6188Z" fill="black"/>
<path d="M9.22244 6.24206L9.26212 6.21366C9.6555 5.85356 10.18 5.65332 10.7251 5.65516C11.2568 5.66817 11.765 5.8669 12.1534 6.21366L12.193 6.24206L11.7913 6.66331L11.7566 6.63017C11.4787 6.37143 11.1059 6.22659 10.7177 6.22659C10.3294 6.22659 9.95658 6.37143 9.6787 6.63017L9.64398 6.66331L9.22244 6.24206Z" fill="black"/>
<path fill-rule="evenodd" clip-rule="evenodd" d="M10.7202 6.83375L10.7185 6.83374L10.7152 6.83375C10.5105 6.83467 10.3105 6.89261 10.1397 7.00055C9.96615 7.11024 9.83062 7.26662 9.75029 7.44988C9.66995 7.63315 9.64842 7.83504 9.68843 8.03C9.72843 8.22495 9.82817 8.40418 9.97501 8.54499C10.1218 8.68579 10.3092 8.78183 10.5132 8.82093C10.7173 8.86003 10.929 8.84044 11.1214 8.76463C11.3138 8.68883 11.4783 8.56022 11.594 8.39511C11.7098 8.23 11.7716 8.03582 11.7716 7.83716C11.7709 7.70477 11.7429 7.5738 11.6892 7.45172C11.6356 7.32964 11.5572 7.21885 11.4587 7.12568C11.3601 7.0325 11.2433 6.95877 11.1149 6.90868C10.9895 6.85978 10.8556 6.83436 10.7202 6.83375ZM11.1665 7.83716C11.1675 7.92181 11.142 8.00481 11.0934 8.07558C11.0447 8.14636 10.9751 8.20168 10.8933 8.23451C10.8115 8.26734 10.7214 8.27617 10.6344 8.25989C10.5473 8.2436 10.4673 8.20293 10.4046 8.14308C10.3419 8.08322 10.2993 8.00689 10.2822 7.92382C10.2652 7.84075 10.2744 7.75471 10.3088 7.67668C10.3432 7.59865 10.4012 7.53218 10.4753 7.48573C10.5495 7.43929 10.6365 7.41498 10.7251 7.41592C10.8422 7.41592 10.9545 7.4603 11.0372 7.5393C11.12 7.6183 11.1665 7.72544 11.1665 7.83716Z" fill="black"/>
<path d="M5.27489 5.65521C5.80781 5.66925 6.3172 5.86775 6.70812 6.21371L6.74283 6.24211L6.34113 6.66335L6.30642 6.63022C6.02853 6.37148 5.65568 6.22664 5.26745 6.22664C4.87922 6.22664 4.50637 6.37148 4.22849 6.63022L4.19377 6.66335L3.77719 6.24211L3.81191 6.21371C4.20614 5.85488 4.73011 5.65485 5.27489 5.65521Z" fill="black"/>
<path fill-rule="evenodd" clip-rule="evenodd" d="M5.26001 6.83374C5.05207 6.83374 4.8488 6.89259 4.67591 7.00285C4.50301 7.1131 4.36826 7.26981 4.28868 7.45316C4.20911 7.63651 4.18829 7.83826 4.22885 8.0329C4.26942 8.22755 4.36955 8.40634 4.51659 8.54667C4.66362 8.687 4.85096 8.78256 5.0549 8.82128C5.25885 8.85999 5.47024 8.84012 5.66235 8.76418C5.85447 8.68823 6.01867 8.55962 6.13419 8.39461C6.24972 8.2296 6.31138 8.0356 6.31138 7.83715C6.31007 7.57141 6.19889 7.31691 6.002 7.12901C5.80511 6.9411 5.53845 6.83498 5.26001 6.83374ZM5.70139 7.83715C5.70139 7.92046 5.6755 8.00191 5.627 8.07118C5.5785 8.14045 5.50957 8.19444 5.42892 8.22633C5.34827 8.25821 5.25952 8.26655 5.17391 8.2503C5.08829 8.23404 5.00964 8.19392 4.94792 8.13501C4.88619 8.0761 4.84415 8.00104 4.82712 7.91933C4.81009 7.83762 4.81883 7.75292 4.85224 7.67595C4.88564 7.59897 4.94222 7.53319 5.0148 7.4869C5.08738 7.44061 5.17272 7.41591 5.26001 7.41591C5.31798 7.41591 5.37537 7.4268 5.42892 7.44797C5.48247 7.46914 5.53113 7.50017 5.57211 7.53929C5.6131 7.5784 5.64561 7.62484 5.66779 7.67595C5.68997 7.72705 5.70139 7.78183 5.70139 7.83715Z" fill="black"/>
<path fill-rule="evenodd" clip-rule="evenodd" d="M14.2886 9.06731C13.9957 9.41131 13.5891 9.65012 13.1353 9.74454V9.76821C12.9016 11.1008 12.32 12.3558 11.4442 13.4174C11.0333 13.9121 10.5105 14.3118 9.91493 14.5865C9.31937 14.8612 8.66645 15.0039 8.00497 15.0039C7.34349 15.0039 6.69057 14.8612 6.09501 14.5865C5.49945 14.3118 4.97666 13.9121 4.56572 13.4174C3.67612 12.3521 3.08558 11.0881 2.84982 9.74454C2.42528 9.65801 2.04078 9.44437 1.75232 9.13475C1.46387 8.82513 1.28652 8.43571 1.24612 8.02319C1.20572 7.61068 1.30438 7.19663 1.52772 6.84136C1.75106 6.48608 2.08741 6.20814 2.48779 6.04802V5.94389C2.57368 4.6114 3.18694 3.35984 4.20337 2.44266C5.21981 1.52547 6.56346 1.0112 7.96226 1.00398C9.36106 0.996764 10.7105 1.49713 11.7372 2.40377C12.764 3.31041 13.3914 4.55556 13.4924 5.8871V6.05749C13.8648 6.20344 14.1831 6.4521 14.4066 6.77165C14.6301 7.0912 14.7487 7.46711 14.7471 7.85132C14.7431 8.29454 14.5815 8.72331 14.2886 9.06731ZM13.878 8.62682C14.0407 8.39805 14.1276 8.12783 14.1272 7.85132L14.1321 7.83238C14.1237 7.47649 13.9687 7.13811 13.7007 6.89051C13.6203 6.81401 13.5304 6.74724 13.4329 6.69172L13.2147 9.13398C13.4841 9.0323 13.7152 8.85559 13.878 8.62682ZM12.6245 9.08191L12.9072 5.95809L12.9122 5.92969C12.9122 4.68571 12.3591 3.86773 11.4374 2.9881C10.5158 2.10847 9.26571 1.61429 7.96226 1.61429C6.65882 1.61429 5.40877 2.10847 4.4871 2.9881C3.56542 3.86773 3.0829 4.68571 3.0829 5.92969L3.36062 9.11031C3.49497 10.557 4.07086 11.9344 5.01702 13.0719C5.37163 13.5012 5.82362 13.8482 6.33901 14.0868C6.85439 14.3254 7.41976 14.4494 7.99257 14.4494C8.56539 14.4494 9.13075 14.3254 9.64614 14.0868C10.1615 13.8482 10.6135 13.5012 10.9681 13.0719C11.9164 11.9246 12.4921 10.5377 12.6245 9.08191ZM2.12205 8.67022C2.28861 8.87625 2.51367 9.0323 2.77047 9.11978L2.76551 9.10085L2.5473 6.65859C2.31007 6.78687 2.11644 6.97749 1.98944 7.20777C1.86245 7.43805 1.80743 7.6983 1.83094 7.95756C1.85445 8.21682 1.95549 8.46418 2.12205 8.67022Z" fill="black"/>
<path d="M3.32094 2.44145H1.59015V4.3394H1V2.15273C0.999837 2.07933 1.02897 2.00862 1.08148 1.95499C1.13399 1.90136 1.20593 1.86883 1.28268 1.86401H3.32094V2.44145Z" fill="black"/>
<path d="M14.6975 1.86401H12.6592V2.44145H14.39V4.33467H15V2.15273C15 2.07616 14.9681 2.00272 14.9114 1.94858C14.8547 1.89443 14.7777 1.86401 14.6975 1.86401Z" fill="black"/>
<path d="M14.39 13.2328H12.6592V13.815H14.6975C14.7773 13.8138 14.8535 13.783 14.91 13.7291C14.9665 13.6752 14.9987 13.6025 15 13.5263V11.3396H14.39V13.2328Z" fill="black"/>
<path d="M1.59015 11.3396H1V13.5263C0.999908 13.6004 1.02973 13.6718 1.08328 13.7256C1.13684 13.7793 1.21001 13.8113 1.28764 13.815H3.3259V13.2328H1.59015V11.3396Z" fill="black"/>
</svg>
