<svg width="16" height="16" viewBox="0 0 16 16" fill="none" xmlns="http://www.w3.org/2000/svg">
<path d="M15.5175 8.78022V7.50509C15.5175 7.03546 15.0916 6.6342 14.5575 6.6342L13.2829 6.53314L12.1558 4.99051C12.1362 4.97267 12.1362 4.95781 12.1198 4.93998C11.9527 4.723 11.6578 4.57141 11.3432 4.57141H4.3774C3.89576 4.57141 3.48947 4.90728 3.43377 5.32638H0.386627C0.183484 5.32638 0 5.47797 0 5.67711C0 5.8614 0.167102 6.02785 0.386627 6.02785H3.93508C4.11856 6.04568 4.266 6.1943 4.266 6.36372C4.266 6.548 4.0989 6.71445 3.87938 6.71445H1.3106C1.10746 6.71445 0.923973 6.86604 0.923973 7.06519C0.923973 7.24947 1.09107 7.41592 1.3106 7.41592H5.13428C5.33742 7.41592 5.5209 7.56751 5.5209 7.76666C5.5209 7.95094 5.3538 8.11739 5.13428 8.11739H2.41806C2.21491 8.11739 2.03143 8.26898 2.03143 8.46812C2.03143 8.65241 2.19853 8.81886 2.41806 8.81886H3.41411C3.17493 8.86939 3.00783 9.0715 3.00783 9.30632V9.94239C3.00783 10.2099 3.24701 10.4447 3.56156 10.4447H4.33809C4.50519 10.9976 5.07858 11.4167 5.7437 11.4167C6.40883 11.4167 6.98222 11.0243 7.14605 10.4566H11.9494C12.1165 11.0095 12.6899 11.4286 13.355 11.4286C14.0201 11.4286 14.5935 11.0273 14.7606 10.4566H15.4454C15.7403 10.4566 15.9991 10.2396 15.9991 9.95428V9.31821C16.0155 9.01503 15.7927 8.79508 15.5175 8.78022ZM5.7437 10.6914C5.33742 10.6914 5.00322 10.3912 5.00322 10.0197C5.00322 9.64813 5.33414 9.34793 5.7437 9.34793C6.14999 9.34793 6.48419 9.64813 6.48419 10.0197C6.48419 10.3912 6.14999 10.6914 5.7437 10.6914ZM13.3747 10.6914C12.9684 10.6914 12.6342 10.3912 12.6342 10.0197C12.6342 9.64813 12.9651 9.34793 13.3747 9.34793C13.781 9.34793 14.1152 9.64813 14.1152 10.0197C14.1152 10.3912 13.781 10.6914 13.3747 10.6914Z" fill="black"/>
</svg>
