<svg width="16" height="16" viewBox="0 0 16 16" fill="none" xmlns="http://www.w3.org/2000/svg">
<path d="M14.9446 1.39148C15.0513 1.65284 15.0039 1.88436 14.8024 2.08603L9.90819 6.98459V14.3588C9.90819 14.6321 9.77763 14.828 9.5165 14.9466C9.43353 14.9822 9.35056 15 9.26759 15C9.0898 15 8.94146 14.9348 8.82257 14.8043L6.27796 12.2574C6.15944 12.1269 6.10017 11.9784 6.10017 11.812V6.98514L1.20598 2.08659C0.992265 1.88455 0.944855 1.65303 1.06375 1.39204C1.17042 1.13068 1.36618 1 1.65101 1H14.3574C14.6303 1 14.8261 1.13068 14.9446 1.39204V1.39148Z" fill="black"/>
</svg>
