<svg width="16" height="16" viewBox="0 0 16 16" fill="none" xmlns="http://www.w3.org/2000/svg">
<path d="M14.4537 1H14.0477C13.1377 1 12.3955 1.7419 12.3955 2.63759C12.3955 3.08544 12.0315 3.46338 11.5835 3.46338C11.1355 3.46338 10.7574 3.08544 10.7574 2.63759C10.7574 1.7419 10.0293 1 9.11932 1C8.20935 1 7.48121 1.7419 7.48121 2.63759V4.27519H7.07517C6.83697 4.27519 6.65516 4.45695 6.65516 4.69507V5.03107C7.52316 5.087 8.25131 5.087 9.11932 5.03107V4.69507C9.11932 4.45695 8.9375 4.27519 8.71329 4.27519H8.29327V2.63759C8.29327 2.18975 8.67133 1.82579 9.11932 1.82579C9.56731 1.82579 9.94537 2.18975 9.94537 2.63759C9.94537 3.54727 10.6735 4.27519 11.5835 4.27519C12.4935 4.27519 13.2216 3.54727 13.2216 2.63759C13.2216 2.18975 13.5857 1.82579 14.0477 1.82579H14.4537C14.6775 1.82579 14.8597 1.63005 14.8597 1.4059C14.8597 1.18176 14.6779 1 14.4537 1ZM10.0577 10.8666C9.60971 10.8666 9.24563 11.2306 9.24563 11.6924C9.24563 12.1403 9.60971 12.5042 10.0577 12.5042C10.5057 12.5042 10.8837 12.1403 10.8837 11.6924C10.8837 11.2306 10.5057 10.8666 10.0577 10.8666ZM14.9856 10.9226C14.9157 9.13117 14.5516 7.25589 14.2295 6.38816L14.2015 6.30427C13.8934 5.52042 12.9974 5.11452 12.1573 5.38061L12.1294 5.39459C9.88943 6.08056 5.94143 6.05216 3.79938 5.39459C3.78539 5.39459 3.78539 5.39459 3.77141 5.39459C2.95934 5.14249 2.09134 5.54839 1.79763 6.30427L1.76966 6.38816C1.44754 7.25589 1.08347 9.13117 1.01354 10.9226C0.915634 13.2317 1.34964 14.5753 2.28758 14.9252C3.08566 15.2193 4.10751 14.6452 5.38155 13.2177C4.75174 12.994 4.30375 12.3919 4.30375 11.6924C4.30375 10.7827 5.04589 10.0408 5.94187 10.0408C6.85183 10.0408 7.59397 10.7827 7.59397 11.6924V11.7064C8.05594 11.6365 7.95804 11.6365 8.42002 11.7064C8.40603 10.7688 9.16215 10.0408 10.0581 10.0408C10.9541 10.0408 11.6962 10.7827 11.6962 11.6924C11.6962 12.3924 11.2483 12.994 10.6184 13.2177C11.1504 13.8194 11.6263 14.2532 12.0743 14.5473C12.5083 14.8553 12.9143 14.9951 13.2784 14.9951C13.4323 14.9951 13.5726 14.9672 13.7124 14.9252C14.6504 14.5753 15.0844 13.2317 14.9865 10.9226H14.9856ZM4.70978 9.22904H4.31774V9.63495C4.31774 9.85865 4.12193 10.0408 3.89772 10.0408C3.67351 10.0408 3.49169 9.85909 3.49169 9.63495V9.22904H3.07167C2.84746 9.22904 2.66564 9.04728 2.66564 8.82314C2.66564 8.58502 2.84746 8.40325 3.07167 8.40325H3.49169V7.99735C3.49169 7.77365 3.67351 7.59145 3.89772 7.59145C4.12193 7.59145 4.31774 7.77321 4.31774 7.99735V8.40325H4.70978C4.94798 8.40325 5.1298 8.58502 5.1298 8.82314C5.1298 9.04685 4.94798 9.22904 4.70978 9.22904ZM7.18794 9.22904H6.36189C6.13811 9.22904 5.94187 9.04728 5.94187 8.82314C5.94187 8.58502 6.13767 8.40325 6.36189 8.40325H7.18794C7.41171 8.40325 7.59397 8.58502 7.59397 8.82314C7.59397 9.04685 7.41215 9.22904 7.18794 9.22904ZM12.1018 7.59145C12.3256 7.59145 12.5219 7.77321 12.5219 7.99735C12.5219 8.22149 12.3261 8.40325 12.1018 8.40325C11.8781 8.40325 11.6958 8.22149 11.6958 7.99735C11.6958 7.77321 11.8776 7.59145 12.1018 7.59145ZM9.63768 9.22904H8.82561C8.60184 9.22904 8.41958 9.04728 8.41958 8.82314C8.41958 8.58502 8.6014 8.40325 8.82561 8.40325H9.63768C9.87588 8.40325 10.0577 8.58502 10.0577 8.82314C10.0577 9.04685 9.87588 9.22904 9.63768 9.22904ZM11.2898 9.22904C11.0516 9.22904 10.8698 9.04728 10.8698 8.82314C10.8698 8.58502 11.0516 8.40325 11.2898 8.40325C11.5136 8.40325 11.6958 8.58502 11.6958 8.82314C11.6958 9.04685 11.514 9.22904 11.2898 9.22904ZM12.1018 10.0408C11.8781 10.0408 11.6958 9.85909 11.6958 9.63495C11.6958 9.4108 11.8776 9.22904 12.1018 9.22904C12.3256 9.22904 12.5219 9.4108 12.5219 9.63495C12.5219 9.85909 12.3261 10.0408 12.1018 10.0408ZM12.9279 9.22904C12.7041 9.22904 12.5219 9.04728 12.5219 8.82314C12.5219 8.58502 12.7037 8.40325 12.9279 8.40325C13.1521 8.40325 13.3339 8.58502 13.3339 8.82314C13.3339 9.04685 13.1521 9.22904 12.9279 9.22904ZM5.95585 10.8666C5.49388 10.8666 5.1298 11.2306 5.1298 11.6924C5.1298 12.1403 5.49388 12.5042 5.95585 12.5042C6.40384 12.5042 6.7819 12.1403 6.7819 11.6924C6.7819 11.2306 6.40384 10.8666 5.95585 10.8666Z" fill="black"/>
</svg>
