<svg width="16" height="16" viewBox="0 0 16 16" fill="none" xmlns="http://www.w3.org/2000/svg">
<path fill-rule="evenodd" clip-rule="evenodd" d="M13.4453 3.43591C13.5762 3.39961 13.7178 3.42437 13.8263 3.504C13.9353 3.58362 14.0003 3.70856 14 3.8408V7.81351C14 13.3585 8.17315 14.969 8.11393 14.9851C8.07659 14.9949 8.03818 15 7.9997 15C7.96127 15 7.92281 14.9949 7.88552 14.9851C7.82684 14.9693 2 13.3585 2 7.81351V3.8408C2 3.70799 2.06447 3.5825 2.17403 3.50287C2.28417 3.42324 2.42583 3.39848 2.55678 3.43647C2.55852 3.43703 2.91091 3.53382 3.4518 3.53382C4.59455 3.53382 6.24958 3.12386 7.64414 1.1703C7.80631 0.943233 8.194 0.943233 8.35618 1.1703C9.7507 3.12386 11.4057 3.53382 12.5485 3.53382C13.0891 3.53382 13.4412 3.43703 13.4453 3.43591ZM8.07096 5.22057C6.47691 5.22057 5.17996 6.4828 5.17996 8.03418C5.17996 9.58568 6.47691 10.848 8.07096 10.848C9.66499 10.848 10.9617 9.58579 10.9617 8.03418C10.9617 6.4828 9.66499 5.22057 8.07096 5.22057ZM8.07096 10.2507C6.81538 10.2507 5.79365 9.25632 5.79365 8.03418C5.79365 6.81212 6.81526 5.81789 8.07096 5.81789C9.32649 5.81789 10.348 6.81212 10.348 8.03418C10.3479 9.25632 9.32649 10.2507 8.07096 10.2507ZM9.20711 7.92323H8.11111V6.40485C8.11111 6.3129 8.03464 6.23825 7.94008 6.23825C7.84561 6.23825 7.7688 6.3129 7.7688 6.40485V8.14537C7.7688 8.18054 7.78014 8.21309 7.79931 8.23981C7.83579 8.31512 7.91401 8.3675 8.00521 8.3675H9.20711C9.33327 8.3675 9.43533 8.26792 9.43533 8.14537C9.43545 8.02281 9.33339 7.92323 9.20711 7.92323Z" fill="black"/>
</svg>
