<svg width="16" height="16" viewBox="0 0 16 16" fill="none" xmlns="http://www.w3.org/2000/svg">
<path d="M9.63762 8.4058V14.9996H12.9273C13.5995 14.9996 14.1733 14.4537 14.1733 13.7675V8.4058H9.63762ZM1.82624 8.4058V13.7675C1.82624 14.4537 2.37211 14.9996 3.05828 14.9996H6.36193V8.4058H1.82624ZM13.7677 4.27612H12.0877C12.3539 3.94003 12.5077 3.52003 12.5077 3.04408C12.5077 1.92392 11.5978 1 10.4636 1C9.0358 1 8.6158 2.03581 8 3.58995C7.38419 2.03624 6.97817 1 5.53635 1C4.41619 1 3.49227 1.92392 3.49227 3.04408C3.49227 3.52003 3.64611 3.94003 3.91227 4.27612H2.23226C1.54609 4.27612 1.00021 4.83598 1.00021 5.50816V6.36216C1.00021 7.0339 1.54609 7.5942 2.23226 7.5942H6.36193V4.27656H5.53591C4.86417 4.27656 4.30387 3.73068 4.30387 3.04452C4.30387 2.37233 4.86373 1.82646 5.53591 1.82646C6.37592 1.82646 6.61367 2.33038 7.2439 3.9125C7.28586 4.02438 7.3418 4.16467 7.39774 4.27656H7.17397V15H8.82602V4.27656H8.60225C8.65819 4.16467 8.71413 4.02438 8.75609 3.9125C9.38588 2.33038 9.62407 1.82646 10.4641 1.82646C11.1363 1.82646 11.6961 2.37233 11.6961 3.04452C11.6961 3.73068 11.1363 4.27656 10.4641 4.27656H9.63806V7.5942H13.7677C14.4539 7.5942 14.9998 7.03434 14.9998 6.36216V5.50816C14.9998 4.83642 14.4539 4.27612 13.7677 4.27612Z" fill="black"/>
</svg>
