<svg width="16" height="17" viewBox="0 0 16 17" fill="none" xmlns="http://www.w3.org/2000/svg">
<path fill-rule="evenodd" clip-rule="evenodd" d="M3.73474 1.50391C2.22266 1.51404 1.00171 2.74182 1 4.25391C1.00171 5.76599 2.22266 6.99377 3.73474 7.00391L4.5 6.9082V1.59961L3.73474 1.50391ZM14.5702 1.57739L12 2.4342V6.07361L14.5702 6.93042C14.703 6.36035 15 5.0011 15 4.25391C15 3.50671 14.703 2.14746 14.5702 1.57739ZM6.32324 6.68054L11.5 6.03333V2.47473L5 1.66223V6.84583L6.32324 6.68054ZM6.5 9.25391H6V9.75391H6.5V9.25391ZM6 10.2539H6.5V10.7539H6V10.2539ZM5.25 14.5039C4.55994 14.5031 4.00085 13.944 4 13.2539V7.47461L6.5 7.16211V8.75391H5.75C5.61194 8.75391 5.5 8.86584 5.5 9.00391V11.0039C5.5 11.142 5.61194 11.2539 5.75 11.2539H6.5V13.2539C6.49915 13.944 5.94006 14.5031 5.25 14.5039Z" fill="black"/>
</svg>
