<svg width="16" height="16" viewBox="0 0 16 16" fill="none" xmlns="http://www.w3.org/2000/svg">
<path d="M13.0075 8.84472V12.9469C13.0075 13.1004 12.9504 13.2285 12.8364 13.3312C12.7223 13.4338 12.5925 13.4901 12.447 13.5H9.11474V10.2118H6.88838V13.5H3.55613C3.40058 13.5 3.27079 13.4437 3.16676 13.3312C3.06274 13.2186 3.0057 13.0905 2.99565 12.9469V8.84472C2.99565 8.83448 2.99565 8.82425 2.99565 8.81401C2.99565 8.80378 2.99565 8.79355 2.99565 8.78332L7.99378 4.72715L12.9919 8.78332C13.0023 8.79355 13.0075 8.81402 13.0075 8.84472ZM14.9378 8.2456L14.4084 8.87541C14.3566 8.92658 14.2943 8.95728 14.2217 8.96751H14.1906C14.118 8.96751 14.0558 8.95216 14.004 8.92146L7.99378 3.97405L1.98358 8.92146C1.91099 8.9624 1.84359 8.97775 1.78136 8.96751C1.70877 8.95728 1.64655 8.92658 1.5947 8.87541L1.04978 8.2456C1.0083 8.1842 0.992741 8.11768 1.00311 8.04605C1.01348 7.97442 1.04459 7.91302 1.09644 7.86185L7.34045 2.73025C7.52744 2.57675 7.74538 2.5 7.99426 2.5C8.24315 2.5 8.46627 2.57675 8.66363 2.73025L10.7811 4.46668V2.80747C10.7811 2.72561 10.807 2.65909 10.8589 2.60793C10.9107 2.55676 10.9781 2.53118 11.0611 2.53118H12.727C12.8099 2.53118 12.8773 2.55676 12.9292 2.60793C12.981 2.65909 13.007 2.72561 13.007 2.80747V6.29522L14.9067 7.86233C14.9689 7.90326 15 7.96466 15 8.04653C15 8.12839 14.9793 8.19491 14.9378 8.24608V8.2456Z" fill="black"/>
</svg>
