<svg width="16" height="17" viewBox="0 0 16 17" fill="none" xmlns="http://www.w3.org/2000/svg">
<path fill-rule="evenodd" clip-rule="evenodd" d="M14.75 5.00391H1.25C1.11194 5.00391 1 5.11584 1 5.25391V9.75391C1 9.89197 1.11194 10.0039 1.25 10.0039H14.75C14.8881 10.0039 15 9.89197 15 9.75391V5.25391C15 5.11584 14.8881 5.00391 14.75 5.00391ZM13.5 5.50391H14.5V6.00391H13.5V5.50391ZM3.5 8.75391C3.5 8.89197 3.38806 9.00391 3.25 9.00391H1.75C1.61194 9.00391 1.5 8.89197 1.5 8.75391V7.25391C1.5 7.11584 1.61194 7.00391 1.75 7.00391H3.25C3.38806 7.00391 3.5 7.11584 3.5 7.25391V8.75391ZM5.75 8.75391C5.75 8.89197 5.63806 9.00391 5.5 9.00391H4C3.86194 9.00391 3.75 8.89197 3.75 8.75391V7.25391C3.75 7.11584 3.86194 7.00391 4 7.00391H5.5C5.63806 7.00391 5.75 7.11584 5.75 7.25391V8.75391ZM8 8.75391C8 8.89197 7.88806 9.00391 7.75 9.00391H6.25C6.11194 9.00391 6 8.89197 6 8.75391V7.25391C6 7.11584 6.11194 7.00391 6.25 7.00391H7.75C7.88806 7.00391 8 7.11584 8 7.25391V8.75391ZM10.25 8.75391C10.25 8.89197 10.1381 9.00391 10 9.00391H8.5C8.36194 9.00391 8.25 8.89197 8.25 8.75391V7.25391C8.25 7.11584 8.36194 7.00391 8.5 7.00391H10C10.1381 7.00391 10.25 7.11584 10.25 7.25391V8.75391ZM12.5 8.75391C12.5 8.89197 12.3881 9.00391 12.25 9.00391H10.75C10.6119 9.00391 10.5 8.89197 10.5 8.75391V7.25391C10.5 7.11584 10.6119 7.00391 10.75 7.00391H12.25C12.3881 7.00391 12.5 7.11584 12.5 7.25391V8.75391ZM14 7.75391C13.5858 7.75391 13.25 7.41809 13.25 7.00391C13.25 6.58972 13.5858 6.25391 14 6.25391C14.4142 6.25391 14.75 6.58972 14.75 7.00391C14.75 7.41809 14.4142 7.75391 14 7.75391ZM14.25 7.00391C14.25 7.14197 14.1381 7.25391 14 7.25391C13.8619 7.25391 13.75 7.14197 13.75 7.00391C13.75 6.86584 13.8619 6.75391 14 6.75391C14.1381 6.75391 14.25 6.86584 14.25 7.00391ZM11 7.50391H12V8.50391H11V7.50391ZM3 7.50391H2V8.50391H3V7.50391ZM6.5 7.50391H7.5V8.50391H6.5V7.50391ZM9.75 7.50391H8.75V8.50391H9.75V7.50391ZM12.6952 11.0039H13.3048L13.4298 10.5039H12.5702L12.6952 11.0039ZM3.42981 10.5039L3.30481 11.0039H2.69519L2.57019 10.5039H3.42981ZM5.25 7.50391H4.25V8.50391H5.25V7.50391Z" fill="black"/>
</svg>
