<svg width="16" height="17" viewBox="0 0 16 17" fill="none" xmlns="http://www.w3.org/2000/svg">
<path fill-rule="evenodd" clip-rule="evenodd" d="M5.66667 2.75391V10.4224C6.19917 10.9212 6.5 11.6229 6.5 12.3789C6.5 13.8262 5.37833 15.0039 4 15.0039C2.62167 15.0039 1.5 13.8262 1.5 12.3789C1.5 11.6229 1.80083 10.9212 2.33333 10.4224V2.75391C2.33333 1.78878 3.08083 1.00391 4 1.00391C4.91917 1.00391 5.66667 1.78878 5.66667 2.75391ZM4.41667 4.50391H4.83333V2.75391C4.83333 2.27178 4.45917 1.87891 4 1.87891C3.54083 1.87891 3.16667 2.27178 3.16667 2.75391V8.87891H4.83333V8.00391H4.41667C4.18667 8.00391 4 7.80791 4 7.56641C4 7.32491 4.18667 7.12891 4.41667 7.12891H4.83333V5.37891H4.41667C4.18667 5.37891 4 5.18291 4 4.94141C4 4.69991 4.18667 4.50391 4.41667 4.50391ZM8.75 5.44922C8.06078 5.44922 7.5 4.85777 7.5 4.13086C7.5 3.82779 7.59448 3.54326 7.7732 3.30817L8.75 2.00391L9.7268 3.30817C9.90552 3.54326 10 3.82779 10 4.13086C10 4.85777 9.43922 5.44922 8.75 5.44922ZM14.5 8.10352C14.5 9.70279 13.2663 11.0039 11.75 11.0039C10.2337 11.0039 9 9.70279 9 8.10352C9 7.4469 9.21387 6.78586 9.6023 6.27448L11.75 3.44542L13.8977 6.27448C14.2861 6.78586 14.5 7.4469 14.5 8.10352Z" fill="black"/>
</svg>
