<svg width="16" height="16" viewBox="0 0 16 16" fill="none" xmlns="http://www.w3.org/2000/svg">
<path d="M1 9.56337L3.78593 2H12.2141L15 9.56337L13.8798 14H2.11979L1 9.56337ZM2.09182 10.2814L2.86195 13.2815H13.1381L13.9082 10.2814H2.09225H2.09182ZM11.2481 11.7747C11.2481 11.6246 11.3041 11.4931 11.416 11.3802C11.5279 11.2674 11.6586 11.2111 11.808 11.2114C11.9575 11.2117 12.0929 11.268 12.2141 11.3802C12.3353 11.4925 12.3866 11.624 12.3679 11.7747C12.3493 11.9253 12.298 12.0615 12.2141 12.1831C12.1302 12.3048 11.9948 12.3564 11.808 12.3379C11.6213 12.3194 11.4906 12.2679 11.416 12.1831C11.3414 12.0984 11.2854 11.9623 11.2481 11.7747Z" fill="black"/>
</svg>
