<svg width="16" height="16" viewBox="0 0 16 16" fill="none" xmlns="http://www.w3.org/2000/svg">
<path d="M10.475 10.4294C10.475 10.5947 10.4042 10.7369 10.2628 10.8561C10.1214 10.9752 9.95257 11.0348 9.7564 11.0348C9.56023 11.0348 9.38599 10.9752 9.23367 10.8561C9.08136 10.7369 9.01064 10.5947 9.02152 10.4294C9.0324 10.2642 9.10312 10.1174 9.23367 9.98908C9.36423 9.86077 9.53847 9.80119 9.7564 9.81036C9.97433 9.81952 10.1431 9.8791 10.2628 9.98908C10.3825 10.0991 10.4532 10.2459 10.475 10.4294ZM12.8112 10.4294C12.8112 10.5947 12.7405 10.7369 12.599 10.8561C12.4576 10.9752 12.2888 11.0348 12.0926 11.0348C11.8964 11.0348 11.7222 10.9752 11.5699 10.8561C11.4176 10.7369 11.3469 10.5947 11.3577 10.4294C11.3686 10.2642 11.4393 10.1174 11.5699 9.98908C11.7004 9.86077 11.8747 9.80119 12.0926 9.81036C12.3105 9.81952 12.4793 9.8791 12.599 9.98908C12.7187 10.0991 12.7894 10.2459 12.8112 10.4294ZM13.8403 11.7751V9.13824C13.8403 9.07408 13.8077 9.01909 13.7424 8.97326C13.6771 8.92744 13.6118 8.89994 13.5466 8.89078H2.45504C2.37888 8.89078 2.31361 8.91827 2.25921 8.97326C2.20481 9.02826 2.17217 9.08325 2.16129 9.13824V11.7751C2.16129 11.8393 2.19393 11.8943 2.25921 11.9401C2.32449 11.9859 2.38976 12.0134 2.45504 12.0226H13.5466C13.6227 12.0226 13.688 11.9951 13.7424 11.9401C13.7968 11.8851 13.8294 11.8301 13.8403 11.7751ZM2.61772 7.91338H13.3829L11.9452 4.21175C11.9235 4.1476 11.8745 4.0926 11.7984 4.04678C11.7222 4.00095 11.646 3.97804 11.5699 3.97804H4.43121C4.35505 3.97804 4.27889 4.00095 4.20274 4.04678C4.12658 4.0926 4.07762 4.1476 4.05586 4.21175L2.61772 7.91338ZM15 9.13824V11.7751C15 12.1145 14.8584 12.4035 14.5752 12.6421C14.292 12.8807 13.9489 13 13.5461 13H2.45453C2.06253 13 1.71948 12.8807 1.42539 12.6421C1.13131 12.4035 0.989703 12.1145 1.00058 11.7751L1.00058 9.13824C1.00058 9.00993 1.04954 8.81731 1.14746 8.5604L2.94411 3.90887C3.04203 3.64279 3.23259 3.42268 3.5158 3.24854C3.799 3.0744 4.10397 2.99177 4.4307 3.00065H11.5694C11.907 3.00065 12.2119 3.08328 12.4843 3.24854C12.7566 3.4138 12.9472 3.63391 13.056 3.90887L14.8526 8.5604C14.9505 8.81731 15 9.00993 15 9.13824Z" fill="black"/>
</svg>
