<svg width="16" height="17" viewBox="0 0 16 17" fill="none" xmlns="http://www.w3.org/2000/svg">
<path d="M5.375 8.86105H4.9375C3.9709 8.86105 3.1875 9.6298 3.1875 10.5785V12.2864C3.1875 13.2349 3.9709 14.0039 4.9375 14.0039H5.375C5.85816 14.0039 6.25 13.6193 6.25 13.1452V9.7198C6.25 9.24542 5.85816 8.86105 5.375 8.86105ZM11.0625 8.86105H10.625C10.1418 8.86105 9.75 9.24542 9.75 9.7198V13.1452C9.75 13.6193 10.1418 14.0039 10.625 14.0039H11.0625C12.0291 14.0039 12.8125 13.2349 12.8125 12.2864V10.5785C12.8125 9.63007 12.0291 8.86105 11.0625 8.86105ZM8 2.00391C4.08738 2.00391 1.12496 5.19489 1 8.86105V11.861C1 12.0978 1.19578 12.2896 1.4375 12.2896H1.875C2.11672 12.2896 2.3125 12.0978 2.3125 11.861V8.86105C2.3125 5.78953 4.86449 3.29498 8 3.29444C11.1355 3.29498 13.6875 5.78953 13.6875 8.86105V11.861C13.6875 12.0978 13.8833 12.2896 14.125 12.2896H14.5625C14.8042 12.2896 15 12.0978 15 11.861V8.86105C14.875 5.19489 11.9126 2.00391 8 2.00391Z" fill="black"/>
</svg>
