<svg width="16" height="16" viewBox="0 0 16 16" fill="none" xmlns="http://www.w3.org/2000/svg">
<path d="M8.2382 7.76224H11.1359C11.108 6.71241 10.8837 5.69012 10.4921 4.7382C9.76398 4.94799 9.0083 5.06031 8.2382 5.08829V7.76224ZM10.7583 4.15035C11.4585 3.89816 12.1442 3.5625 12.7745 3.1285L12.9283 3.01661C11.7662 1.86844 10.2264 1.12675 8.50437 1.00087L8.3785 1.09878C9.40035 1.9528 10.1984 2.98864 10.7583 4.15079V4.15035ZM8.2382 1.61626V4.59834C8.93837 4.58435 9.62412 4.47247 10.2963 4.29021C9.80638 3.28234 9.1062 2.37238 8.2382 1.61626ZM11.038 11.2059C11.7941 11.472 12.5079 11.8496 13.1801 12.326L13.3899 12.4799C14.3558 11.3177 14.9436 9.8479 15 8.2382H11.6119C11.5839 9.27404 11.3881 10.2684 11.038 11.2063V11.2059ZM3.2264 3.12806C3.85621 3.56206 4.5424 3.89816 5.24213 4.14991C5.80201 2.98776 6.60009 1.95192 7.62194 1.0979L7.49607 1C5.77404 1.12587 4.22028 1.86801 3.07212 3.01573L3.22596 3.12762L3.2264 3.12806ZM7.76224 1.61626C6.89423 2.37238 6.20848 3.28234 5.71809 4.29021C6.37587 4.47203 7.06206 4.58435 7.76224 4.59834V1.61626ZM4.38855 8.2382H1.00044C1.05638 9.84834 1.64423 11.3182 2.61058 12.4799L2.82037 12.326C3.49213 11.8501 4.20629 11.472 4.96241 11.2059C4.61232 10.2679 4.41652 9.27404 4.38855 8.23776V8.2382ZM5.04633 4.58435C4.31818 4.33217 3.61844 3.98252 2.96023 3.53453L2.73601 3.38068C1.70017 4.55682 1.05594 6.0826 1 7.76267H4.38811C4.41608 6.65691 4.6403 5.57867 5.04589 4.58479L5.04633 4.58435ZM4.86451 7.76224H7.76224V5.08829C6.99213 5.06031 6.23645 4.94843 5.5083 4.7382C5.11626 5.69012 4.89248 6.71198 4.86451 7.76224ZM7.59441 14.8881C6.53059 13.9921 5.70455 12.8864 5.15865 11.6543C4.43051 11.9065 3.74476 12.2701 3.10052 12.7181L2.93269 12.844C4.09484 14.0621 5.66259 14.8601 7.42657 15L7.59441 14.8881ZM7.76224 10.674V8.2382H4.86451C4.89248 9.21809 5.08829 10.156 5.42439 11.052C6.18051 10.8282 6.96416 10.7019 7.76224 10.674ZM12.9003 12.7181C12.2566 12.2561 11.5704 11.906 10.8562 11.6543C10.2963 12.8864 9.47028 13.9921 8.40647 14.8881L8.5743 15C10.3383 14.8601 11.92 14.0621 13.0682 12.844L12.9003 12.7181ZM13.0542 3.53409C12.3964 3.98208 11.6962 4.33217 10.9541 4.58392C11.3601 5.5778 11.5839 6.65603 11.6119 7.7618H15C14.9441 6.08173 14.2998 4.55594 13.264 3.36582L13.0542 3.53365V3.53409ZM7.76224 14.3842V11.1643C7.0201 11.1783 6.30638 11.2902 5.62019 11.5004C6.11014 12.5922 6.83829 13.5726 7.76224 14.3842ZM11.1364 8.2382H8.23864V10.674C9.03671 10.7019 9.8208 10.8278 10.5765 11.052C10.9126 10.17 11.1084 9.21809 11.1364 8.2382ZM10.3942 11.5C9.69406 11.2902 8.98033 11.1779 8.2382 11.1639V14.3837C9.16215 13.5857 9.8903 12.5918 10.3942 11.5Z" fill="black"/>
</svg>
