<svg width="16" height="17" viewBox="0 0 16 17" fill="none" xmlns="http://www.w3.org/2000/svg">
<path d="M9.23244 7.53108L9.23239 7.53249V7.52792L9.23244 7.53108Z" fill="black"/>
<path d="M9.05493 8.72086C9.12851 8.72122 9.19959 8.69426 9.25428 8.64522C9.30897 8.59619 9.34335 8.52861 9.35071 8.45568C9.35758 8.41375 9.35495 8.37082 9.34301 8.33003C9.33107 8.28925 9.31011 8.25164 9.28169 8.21996C9.30978 8.18611 9.33043 8.14677 9.34232 8.10448C9.35421 8.06219 9.35706 8.01789 9.35071 7.97443C9.34131 7.90233 9.30632 7.83596 9.25208 7.78732C9.19783 7.73868 9.1279 7.71099 9.05493 7.70925C8.93751 7.70645 8.85356 7.80416 8.78646 7.89276C8.71937 7.98137 8.68307 8.08933 8.68307 8.20032C8.68307 8.31131 8.71937 8.44874 8.78646 8.53735C8.85356 8.62595 8.9414 8.72029 9.05493 8.72086Z" fill="black"/>
<path d="M9.23239 8.89767C9.23109 8.96345 9.2428 9.02884 9.26687 9.09011C9.29094 9.15138 9.32689 9.20733 9.37266 9.25475C9.41844 9.30218 9.47315 9.34016 9.53367 9.36652C9.59418 9.39288 9.65932 9.4071 9.72535 9.40838C9.79222 9.40839 9.85842 9.39512 9.92008 9.36933C9.98173 9.34355 10.0376 9.30577 10.0844 9.25822C10.1313 9.21066 10.1681 9.15427 10.1928 9.09237C10.2174 9.03046 10.2295 8.96427 10.2282 8.89767C10.2288 8.82587 10.2031 8.75632 10.1559 8.70207C10.1087 8.64781 10.0433 8.61259 9.97183 8.60302C9.92821 8.59462 9.88322 8.59645 9.84044 8.60839C9.79765 8.62032 9.75825 8.64202 9.72535 8.67177C9.69932 8.64636 9.66849 8.62633 9.63465 8.61284C9.6008 8.59936 9.56461 8.59268 9.52817 8.5932C9.44883 8.59575 9.3736 8.62895 9.3184 8.68578C9.2632 8.7426 9.23235 8.81859 9.23239 8.89767Z" fill="black"/>
<path d="M10.2044 8.64362C10.1485 8.59514 10.1116 8.5286 10.1 8.45568C10.0993 8.37816 10.1235 8.30245 10.169 8.23961C10.1243 8.18384 10.0999 8.11456 10.1 8.04318C10.1 7.96243 10.1322 7.88499 10.1895 7.82789C10.2468 7.77079 10.3246 7.73871 10.4056 7.73871C10.5195 7.73871 10.607 7.83362 10.6741 7.92222C10.7412 8.01083 10.7775 8.1188 10.7775 8.22978C10.7775 8.34077 10.7412 8.44874 10.6741 8.53735C10.607 8.62595 10.5078 8.72086 10.4056 8.72086C10.3315 8.71945 10.2603 8.69211 10.2044 8.64362Z" fill="black"/>
<path d="M5.88028 7.77801V7.93515H5.71268C5.63162 7.93515 5.55388 7.96723 5.49656 8.02433C5.43924 8.08143 5.40704 8.15887 5.40704 8.23962C5.40704 8.32037 5.43924 8.39781 5.49656 8.45491C5.55388 8.512 5.63162 8.54408 5.71268 8.54408H5.92958V8.72087C5.92958 8.80162 5.96178 8.87906 6.0191 8.93616C6.07641 8.99325 6.15415 9.02533 6.23521 9.02533C6.31627 9.02533 6.39401 8.99325 6.45133 8.93616C6.50865 8.87906 6.54085 8.80162 6.54085 8.72087V8.54408H6.69859C6.77965 8.54408 6.85739 8.512 6.91471 8.45491C6.97203 8.39781 7.00423 8.32037 7.00423 8.23962C7.00423 8.15887 6.97203 8.08143 6.91471 8.02433C6.85739 7.96723 6.77965 7.93515 6.69859 7.93515H6.49155V7.77801C6.49155 7.69726 6.45935 7.61982 6.40203 7.56272C6.34472 7.50562 6.26698 7.47355 6.18592 7.47355C6.10486 7.47355 6.02712 7.50562 5.9698 7.56272C5.91248 7.61982 5.88028 7.69726 5.88028 7.77801Z" fill="black"/>
<path fill-rule="evenodd" clip-rule="evenodd" d="M9.27281 5.67384C9.3936 5.72977 9.50088 5.81099 9.58732 5.91195V5.90213L9.97183 6.43249C10.4355 6.49852 10.8563 6.73881 11.1478 7.10407C11.4393 7.46932 11.5794 7.93185 11.5394 8.39677C11.5091 8.86048 11.3006 9.29471 10.9573 9.60929C10.6139 9.92387 10.1622 10.0946 9.69577 10.0861H9.50845C9.07621 10.0478 8.67459 9.84774 8.3845 9.52624H7.53662C7.36858 9.70522 7.16558 9.84809 6.94008 9.94605C6.71458 10.044 6.47135 10.095 6.22535 10.0959C5.7439 10.0885 5.28424 9.89476 4.94366 9.5557C4.62239 9.20408 4.44632 8.74453 4.4507 8.26909C4.44569 7.8261 4.60159 7.39623 4.88967 7.05871C5.17775 6.7212 5.57859 6.49879 6.01831 6.43249L6.40281 5.93159C6.48496 5.82438 6.5909 5.73756 6.71234 5.67793C6.83378 5.61829 6.96742 5.58746 7.10281 5.58784H7.69436V5.26374C7.69609 5.19629 7.68385 5.12922 7.65841 5.0667C7.63296 5.00417 7.59486 4.94755 7.54648 4.90034C7.45243 4.80633 7.32478 4.75335 7.19155 4.75302H6.54084C6.46796 4.74003 6.40198 4.70193 6.35446 4.64537C6.30694 4.58881 6.2809 4.5174 6.2809 4.44365C6.2809 4.36989 6.30694 4.29848 6.35446 4.24193C6.40198 4.18537 6.46796 4.14726 6.54084 4.13427H7.19155C7.33741 4.13382 7.48181 4.16323 7.61579 4.22067C7.74977 4.27811 7.87048 4.36236 7.97042 4.4682C8.07769 4.57111 8.16275 4.69474 8.22039 4.83153C8.27803 4.96832 8.30703 5.11539 8.30563 5.26374V5.58784H8.88732C9.02053 5.58858 9.15201 5.61791 9.27281 5.67384ZM9.02177 6.2202C8.98252 6.2032 8.93995 6.19519 8.89718 6.19677L8.88732 6.20659H7.14225C7.09948 6.20501 7.05691 6.21302 7.01766 6.23002C6.97841 6.24702 6.9435 6.27257 6.91549 6.30481L6.78732 6.43249H9.21267L9.12394 6.29499C9.09593 6.26275 9.06102 6.23719 9.02177 6.2202ZM9.30464 7.71826C9.25929 7.66613 9.23379 7.59988 9.23244 7.53108C9.2362 7.41934 9.27668 7.31189 9.34767 7.22526C9.41896 7.13826 9.51705 7.0771 9.62676 7.05124H6.2845C6.04453 7.05333 5.81057 7.1263 5.61225 7.26093C5.41393 7.39555 5.26016 7.58576 5.17042 7.80749C5.0788 8.03166 5.05518 8.27769 5.1025 8.5151C5.14981 8.75251 5.26598 8.97089 5.43662 9.1432C5.54528 9.25521 5.6755 9.34425 5.81948 9.405C5.96347 9.46575 6.11828 9.49696 6.27464 9.49677C6.4536 9.49754 6.63031 9.45718 6.79105 9.37882C6.95179 9.30046 7.09222 9.18622 7.20141 9.04498C7.22792 9.01038 7.2623 8.98255 7.30173 8.96377C7.34115 8.94498 7.38448 8.93579 7.42817 8.93695H8.56197C8.60802 8.93615 8.65359 8.94646 8.69478 8.96698C8.73598 8.9875 8.77159 9.01763 8.79859 9.05481C8.96719 9.26789 9.20443 9.41649 9.47026 9.47554C9.7361 9.53459 10.0142 9.50046 10.2577 9.37891C10.5059 9.26004 10.7073 9.06242 10.8305 8.81709C10.9536 8.57176 10.9914 8.29263 10.938 8.02356C10.8906 7.76736 10.7613 7.53331 10.5694 7.35632C10.3775 7.17932 10.1333 7.06886 9.87324 7.04141C9.97561 7.07439 10.065 7.13861 10.1287 7.22498C10.1924 7.31135 10.2272 7.41549 10.2282 7.52266C10.2288 7.59446 10.2031 7.66401 10.1559 7.71826C10.1087 7.77252 10.0433 7.80774 9.97183 7.81731C9.92821 7.82571 9.88322 7.82388 9.84043 7.81194C9.79765 7.80001 9.75825 7.77831 9.72535 7.74856C9.69439 7.77817 9.65671 7.79989 9.61551 7.81186C9.57431 7.82383 9.53081 7.8257 9.48873 7.81731C9.4173 7.80774 9.35184 7.77252 9.30464 7.71826Z" fill="black"/>
<path fill-rule="evenodd" clip-rule="evenodd" d="M6.54084 11.628L6.2845 11.3432H1.64084V3.62355C1.64084 3.3266 1.75925 3.04182 1.97003 2.83184C2.18081 2.62187 2.46669 2.50391 2.76478 2.50391H13.2352C13.5333 2.50391 13.8192 2.62187 14.03 2.83184C14.2407 3.04182 14.3591 3.3266 14.3591 3.62355V11.3432H9.71549L9.45915 11.628C9.35543 11.7417 9.22914 11.8327 9.08828 11.8953C8.94742 11.9578 8.79506 11.9906 8.64084 11.9914H7.35915C7.20493 11.9906 7.05257 11.9578 6.91171 11.8953C6.77085 11.8327 6.64456 11.7417 6.54084 11.628ZM2.34084 3.40748V10.5869C2.34073 10.614 2.35079 10.6401 2.36904 10.6601C2.38729 10.6801 2.41241 10.6925 2.43943 10.695H13.531C13.5448 10.695 13.5585 10.6922 13.5711 10.6867C13.5838 10.6811 13.5951 10.673 13.6044 10.6628C13.6137 10.6526 13.6208 10.6406 13.6251 10.6275C13.6294 10.6145 13.631 10.6006 13.6296 10.5869V3.40748C13.6296 3.28962 13.5901 3.28962 13.531 3.28962H2.43943C2.42517 3.29085 2.41129 3.29489 2.3986 3.30149C2.38591 3.30809 2.37465 3.31713 2.36549 3.32809C2.35632 3.33905 2.34943 3.3517 2.3452 3.36533C2.34096 3.37895 2.33948 3.39328 2.34084 3.40748Z" fill="black"/>
<path d="M9.87324 11.5298L9.63662 11.795C9.50985 11.9279 9.35677 12.0332 9.18708 12.1042C9.01738 12.1752 8.83474 12.2104 8.6507 12.2075H7.35915C7.17347 12.2091 6.98956 12.1714 6.8196 12.0969C6.64963 12.0224 6.49749 11.9128 6.37324 11.7753L6.15634 11.5298H1V12.3843C1 12.6812 1.11842 12.966 1.3292 13.176C1.53998 13.3859 1.82586 13.5039 2.12394 13.5039H13.8761C14.0237 13.5039 14.1698 13.4749 14.3062 13.4187C14.4425 13.3624 14.5664 13.2799 14.6708 13.176C14.7752 13.072 14.858 12.9486 14.9144 12.8127C14.9709 12.6769 15 12.5313 15 12.3843V11.5298H9.87324Z" fill="black"/>
</svg>
