<svg width="14" height="12" viewBox="0 0 14 12" fill="none" xmlns="http://www.w3.org/2000/svg">
<path d="M14 6C14 9.30769 11.3522 12 8.09565 12C6.89348 12 5.73696 11.6308 4.74783 10.9538C4.47391 10.7538 4.39783 10.3846 4.59565 10.0923C4.79348 9.81538 5.1587 9.73846 5.44783 9.93846C6.22391 10.4769 7.15217 10.7692 8.09565 10.7692C10.6826 10.7692 12.7826 8.63077 12.7826 6C12.7826 3.36923 10.6826 1.23077 8.09565 1.23077C5.56956 1.23077 3.5 3.27692 3.4087 5.83077L4.82391 4.38462C5.06739 4.13846 5.44783 4.13846 5.6913 4.38462C5.93478 4.63077 5.93478 5.01539 5.6913 5.26154L3.36304 7.61539C3.2413 7.73846 3.08913 7.8 2.93696 7.8C2.76956 7.8 2.61739 7.73846 2.51087 7.61539L0.182609 5.24615C-0.0608696 5 -0.0608696 4.61539 0.182609 4.36923C0.426087 4.12308 0.806522 4.12308 1.05 4.36923L2.20652 5.55385C2.41957 2.46154 4.97609 0 8.09565 0C11.3522 0 14 2.69231 14 6ZM8.06522 2.50769C7.73043 2.50769 7.45652 2.78462 7.45652 3.12308V6C7.45652 6.16923 7.53261 6.32308 7.65435 6.43077L8.96304 7.75385C9.08478 7.87692 9.23696 7.93846 9.40435 7.93846C9.55652 7.93846 9.72391 7.87692 9.83043 7.75385C10.0739 7.50769 10.0587 7.12308 9.81522 6.87692L8.67391 5.73846V3.12308C8.67391 2.78462 8.4 2.50769 8.06522 2.50769Z" fill="#718198"/>
</svg>
