<svg width="16" height="16" viewBox="0 0 16 16" fill="none" xmlns="http://www.w3.org/2000/svg">
<path d="M13.0909 5.5H11.1818V3H2.27273C1.57273 3 1 3.5625 1 4.25V11.125H2.27273C2.27273 12.1625 3.12545 13 4.18182 13C5.23818 13 6.09091 12.1625 6.09091 11.125H9.90909C9.90909 12.1625 10.7618 13 11.8182 13C12.8745 13 13.7273 12.1625 13.7273 11.125H15V8L13.0909 5.5ZM4.18182 12.0625C3.65364 12.0625 3.22727 11.6438 3.22727 11.125C3.22727 10.6062 3.65364 10.1875 4.18182 10.1875C4.71 10.1875 5.13636 10.6062 5.13636 11.125C5.13636 11.6438 4.71 12.0625 4.18182 12.0625ZM12.7727 6.4375L14.02 8H11.1818V6.4375H12.7727ZM11.8182 12.0625C11.29 12.0625 10.8636 11.6438 10.8636 11.125C10.8636 10.6062 11.29 10.1875 11.8182 10.1875C12.3464 10.1875 12.7727 10.6062 12.7727 11.125C12.7727 11.6438 12.3464 12.0625 11.8182 12.0625Z" fill="black"/>
</svg>
