<svg width="16" height="16" viewBox="0 0 16 16" fill="none" xmlns="http://www.w3.org/2000/svg">
<path d="M4.96707 1.00073C6.21161 1.00073 6.83388 1.62276 6.83388 2.86681V4.9667C6.83388 6.21124 6.21161 6.83352 4.96707 6.83352H2.86718C1.62263 6.83352 1.00036 6.21124 1.00036 4.9667V2.86681C1.00036 1.62227 1.62263 1 2.86718 1L4.96707 1.00073ZM13.1328 1.00073C14.3774 1.00073 14.9996 1.62276 14.9996 2.86681V4.9667C14.9996 6.21124 14.3774 6.83352 13.1328 6.83352H11.0329C9.78839 6.83352 9.16612 6.21124 9.16612 4.9667V2.86681C9.16612 1.62227 9.78839 1 11.0329 1L13.1328 1.00073ZM4.96707 9.16648C6.21161 9.16648 6.83388 9.78876 6.83388 11.0333V13.1332C6.83388 14.3777 6.21161 15 4.96707 15H2.86718C1.62263 15 1.00036 14.3777 1.00036 13.1332V11.0333C1.00036 9.78876 1.62263 9.16648 2.86718 9.16648H4.96707ZM13.1328 9.16648C14.3774 9.16648 14.9996 9.78876 14.9996 11.0333V13.1332C14.9996 14.3777 14.3774 15 13.1328 15H11.0329C9.78839 15 9.16612 14.3777 9.16612 13.1332V11.0333C9.16612 9.78876 9.78839 9.16648 11.0329 9.16648H13.1328Z" fill="black"/>
</svg>
