<svg width="16" height="16" viewBox="0 0 16 16" fill="none" xmlns="http://www.w3.org/2000/svg">
<path d="M0 8C0 3.58172 3.58172 0 8 0C12.4183 0 16 3.58172 16 8C16 12.4183 12.4183 16 8 16C3.58172 16 0 12.4183 0 8Z" fill="#718198"/>
<path d="M12.5 8.00004C12.5 10.297 10.6087 12.1667 8.28261 12.1667C7.42391 12.1667 6.59783 11.9103 5.8913 11.4402C5.69565 11.3013 5.6413 11.0449 5.78261 10.8419C5.92391 10.6496 6.18478 10.5962 6.3913 10.7351C6.94565 11.109 7.6087 11.312 8.28261 11.312C10.1304 11.312 11.6304 9.82696 11.6304 8.00004C11.6304 6.17312 10.1304 4.68807 8.28261 4.68807C6.47826 4.68807 5 6.10901 4.93478 7.88252L5.94565 6.87825C6.11957 6.70731 6.3913 6.70731 6.56522 6.87825C6.73913 7.04919 6.73913 7.31628 6.56522 7.48722L4.90217 9.12184C4.81522 9.20731 4.70652 9.25004 4.59783 9.25004C4.47826 9.25004 4.36957 9.20731 4.29348 9.12184L2.63043 7.47654C2.45652 7.3056 2.45652 7.0385 2.63043 6.86756C2.80435 6.69662 3.07609 6.69662 3.25 6.86756L4.07609 7.69021C4.22826 5.54278 6.05435 3.83337 8.28261 3.83337C10.6087 3.83337 12.5 5.70303 12.5 8.00004ZM8.26087 5.57483C8.02174 5.57483 7.82609 5.76713 7.82609 6.00218V8.00004C7.82609 8.11756 7.88043 8.2244 7.96739 8.29919L8.90217 9.21799C8.98913 9.30346 9.09783 9.34619 9.21739 9.34619C9.32609 9.34619 9.44565 9.30346 9.52174 9.21799C9.69565 9.04705 9.68478 8.77995 9.51087 8.60901L8.69565 7.81842V6.00218C8.69565 5.76713 8.5 5.57483 8.26087 5.57483Z" fill="white"/>
</svg>
