<svg width="16" height="16" viewBox="0 0 16 16" fill="none" xmlns="http://www.w3.org/2000/svg">
<path d="M13.4445 1C13.88 1 14.2481 1.15039 14.5488 1.45116C14.8496 1.75193 15 2.12005 15 2.5555V13.4445C15 13.8592 14.8496 14.2222 14.5488 14.5333C14.2481 14.8444 13.88 15 13.4445 15H6.4445C6.02976 15 5.67201 14.8444 5.37124 14.5333C5.07046 14.2222 4.92008 13.8592 4.92008 13.4445V11.889H6.4445V13.4445H13.4445V2.5555H6.4445V4.889H4.92008V2.5555C4.92008 2.12005 5.07046 1.75193 5.37124 1.45116C5.67201 1.15039 6.02976 1 6.4445 1H13.4445ZM8.85 10.5892C8.5336 10.8993 8 10.6751 8 10.2321V9.5555H1.5C1.22386 9.5555 1 9.33165 1 9.0555V7.72201C1 7.44587 1.22386 7.22201 1.5 7.22201H8V6.53682C8 6.09502 8.53102 5.87032 8.84813 6.17793L10.7429 8.01594C10.9447 8.21165 10.9455 8.53516 10.7448 8.73191L8.85 10.5892Z" fill="black"/>
</svg>
