<svg width="16" height="16" viewBox="0 0 16 16" fill="none" xmlns="http://www.w3.org/2000/svg">
<path d="M13.0243 1H2.97619C1.88637 1 1 1.88638 1 2.97619V13.0238C1 14.1136 1.88637 15 2.97619 15H13.0238C14.1136 15 15 14.1136 15 13.0238V2.97619C15 1.88638 14.1136 1 13.0238 1L13.0243 1ZM14.0611 13.0238C14.0611 13.5956 13.5961 14.0607 13.0243 14.0607H2.97619C2.40437 14.0607 1.93931 13.5956 1.93931 13.0238V2.97575C1.93931 2.40394 2.40437 1.93887 2.97619 1.93887H4.29481C4.42913 3.41806 5.67425 4.5805 7.18713 4.5805H8.43138C9.40569 4.5805 10.1984 5.37281 10.1984 6.34756V6.4845C10.3139 6.46919 10.4307 6.45869 10.5506 6.45869C10.6705 6.45869 10.7873 6.46919 10.9028 6.4845V6.34756C10.9028 4.98519 9.79419 3.87612 8.43138 3.87612H7.18713C6.06362 3.87612 5.14488 3.02737 5.01275 1.93887H13.0238C13.5956 1.93887 14.0607 2.40394 14.0607 2.97575V13.0238H14.0611ZM10.5511 6.92856C9.33175 6.92856 8.34344 7.91687 8.34344 9.13619V10.7374C8.34344 11.9567 9.33175 12.9451 10.5511 12.9451C11.7704 12.9451 12.7587 11.9567 12.7587 10.7374V9.13619C12.7587 7.91687 11.7704 6.92856 10.5511 6.92856ZM11.0209 9.218C11.0209 9.47744 10.8105 9.68744 10.5515 9.68744C10.2925 9.68744 10.0821 9.47744 10.0821 9.218V8.0735C10.0821 7.81406 10.2925 7.60406 10.5515 7.60406C10.8105 7.60406 11.0209 7.81406 11.0209 8.0735V9.218Z" fill="black"/>
</svg>
