<svg width="16" height="16" viewBox="0 0 16 16" fill="none" xmlns="http://www.w3.org/2000/svg">
<path d="M14.0057 5.99816C14.2764 5.99816 14.5098 6.09606 14.7059 6.29188C14.902 6.48769 15 6.7254 15 7.00501C15 7.28462 14.902 7.51767 14.7059 7.70417C14.5098 7.89067 14.2764 7.98858 14.0057 7.99789V10.9896C14.0057 11.2599 13.903 11.493 13.6976 11.6888C13.4922 11.8846 13.2589 11.9872 12.9975 11.9965C10.8231 10.1885 8.70934 9.20055 6.65615 9.03267C6.35751 9.12578 6.11947 9.29351 5.94204 9.53588C5.7646 9.77824 5.68521 10.0439 5.70386 10.3328C5.7225 10.6217 5.82521 10.8594 6.01196 11.0459C5.90941 11.2231 5.84881 11.3955 5.83016 11.5631C5.81151 11.7307 5.83016 11.8798 5.8861 12.0105C5.94204 12.1411 6.03076 12.2855 6.15225 12.4438C6.27375 12.6021 6.3951 12.7326 6.5163 12.8353C6.63751 12.938 6.80081 13.0685 7.00622 13.2268C6.84743 13.525 6.55345 13.7393 6.12428 13.8697C5.69512 14 5.25648 14.0326 4.80837 13.9674C4.36027 13.9022 4.01967 13.7578 3.78659 13.534C3.7493 13.413 3.6699 13.1846 3.54841 12.8488C3.42691 12.5131 3.34285 12.2661 3.29624 12.1078C3.24962 11.9495 3.19368 11.7164 3.12842 11.4086C3.06315 11.1008 3.0212 10.8398 3.00255 10.6257C2.9839 10.4115 2.99323 10.1552 3.03052 9.85666C3.06781 9.55814 3.12375 9.26922 3.19834 8.9899H2.24648C1.91055 8.9899 1.61657 8.86872 1.36455 8.62635C1.11253 8.38399 0.991176 8.09041 1.0005 7.74563V6.24998C1.0005 5.9052 1.12185 5.61162 1.36455 5.36926C1.60725 5.12689 1.90123 5.00571 2.24648 5.00571H5.99798C8.26589 5.00571 10.5991 4.00381 12.9975 2C13.2682 2 13.5016 2.10256 13.6976 2.30768C13.8937 2.51281 13.9964 2.74586 14.0057 3.00685V5.99859V5.99816ZM12.9979 10.709V3.27176C10.9448 4.83739 8.94767 5.72742 7.00665 5.94186V8.05288C8.9666 8.26731 10.9637 9.15269 12.9979 10.709Z" fill="black"/>
</svg>
