<svg width="16" height="17" viewBox="0 0 16 17" fill="none" xmlns="http://www.w3.org/2000/svg">
<path d="M4.28805 2.08832C4.343 2.08832 4.3901 2.10872 4.42935 2.14951C4.46861 2.1903 4.49216 2.24332 4.50001 2.30858V7.45685V9.73014L4.5 12.0314C4.5 12.1211 4.46075 12.1864 4.38225 12.2272L1.30783 13.9786C1.27643 13.9949 1.24503 14.003 1.21363 14.003C1.15868 14.003 1.10765 13.9827 1.06055 13.9419C1.01345 13.9011 0.993828 13.8481 1.00168 13.7828L1.00169 3.9747C1.00169 3.88497 1.04094 3.81958 1.11944 3.77853L4.18208 2.11241C4.21348 2.0961 4.2488 2.08832 4.28805 2.08832ZM14.7864 2.00305C14.8413 2.00305 14.8924 2.02345 14.9395 2.06424C14.9866 2.10502 15.0062 2.15805 14.9983 2.22331L14.9983 12.0314C14.9983 12.1211 14.963 12.1864 14.8923 12.2272L10.9429 13.9786C10.9115 13.9949 10.8762 14.003 10.8369 14.003C10.782 14.003 10.7349 13.9827 10.6956 13.9419C10.6564 13.9011 10.6328 13.8481 10.625 13.7828L10.625 3.9747C10.625 3.88497 10.6643 3.81958 10.7428 3.77853L14.6922 2.02714C14.7236 2.01083 14.755 2.00305 14.7864 2.00305ZM5.58696 2.08832C5.62621 2.08832 5.65761 2.09648 5.68116 2.1128L9.63226 3.7663C9.71076 3.81524 9.75001 3.88471 9.75001 3.9747L9.75 13.7828C9.75 13.8399 9.72645 13.8929 9.67935 13.9419C9.63225 13.9908 9.58514 14.0112 9.53804 14.0031C9.49879 14.0031 9.46739 13.9949 9.44384 13.9786L5.49275 12.2398C5.41425 12.1909 5.375 12.1214 5.375 12.0314L5.37501 2.30858C5.37501 2.25148 5.39856 2.19845 5.44566 2.14951C5.49276 2.10056 5.53986 2.08016 5.58696 2.08832Z" fill="black"/>
</svg>
