<svg width="16" height="16" viewBox="0 0 16 16" fill="none" xmlns="http://www.w3.org/2000/svg">
<path d="M14.0003 7C14.2938 7 14.5338 7.09134 14.7203 7.27402C14.9068 7.45669 15 7.75605 15 8C15 8.24395 14.9001 8.5433 14.7003 8.72598C14.5005 8.90866 14.2671 9 14.0003 9H1.99969C1.73285 9 1.49953 8.90866 1.29972 8.72598C1.09991 8.5433 1 8.24395 1 8C1 7.75605 1.09324 7.45669 1.27974 7.27402C1.46623 7.09134 1.70621 7 1.99969 7H14.0003ZM1.99969 6C1.73285 6 1.49953 5.90866 1.29972 5.72598C1.09991 5.54331 1 5.24395 1 5C1 4.75605 1.09387 4.45669 1.28036 4.27402C1.46685 4.09134 1.70684 4 2.00031 4H14.0009C14.2944 4 14.5344 4.09134 14.7209 4.27402C14.9074 4.45669 15 4.75605 15 5C15 5.24395 14.9001 5.54331 14.7003 5.72598C14.5005 5.90866 14.2671 6 14.0003 6H1.99969ZM14.0003 10C14.2938 10 14.5338 10.0913 14.7203 10.274C14.9068 10.4567 15 10.756 15 11C15 11.244 14.9001 11.5433 14.7003 11.726C14.5005 11.9087 14.2671 12 14.0003 12H1.99969C1.73285 12 1.49953 11.9087 1.29972 11.726C1.09991 11.5433 1 11.244 1 11C1 10.756 1.09324 10.4567 1.27974 10.274C1.46623 10.0913 1.70621 10 1.99969 10H14.0003Z" fill="black"/>
</svg>
