<svg width="16" height="16" viewBox="0 0 16 16" fill="none" xmlns="http://www.w3.org/2000/svg">
<path d="M13.8351 5.23468L8.23102 1.07685C8.0925 0.974385 7.90753 0.974385 7.76898 1.07685L2.16492 5.23468C1.94319 5.39929 1.94586 5.74124 2.16801 5.90326L7.77207 9.97902C7.90906 10.0783 8.09094 10.0783 8.22793 9.97902L13.832 5.90326C14.0541 5.74124 14.0568 5.39929 13.8351 5.23468Z" fill="black"/>
<path d="M13.8351 7.74901L13.2966 7.34954L8.22793 11.0358C8.09094 11.135 7.90906 11.135 7.77207 11.0358L2.70342 7.34954L2.16492 7.74901C1.94319 7.91358 1.94586 8.25558 2.16801 8.41756L7.77207 12.4934C7.90906 12.5926 8.09094 12.5926 8.22793 12.4934L13.832 8.41756C14.0541 8.25558 14.0568 7.91358 13.8351 7.74901Z" fill="black"/>
<path d="M13.2966 9.86383L13.8351 10.2633C14.0568 10.4274 14.0551 10.7724 13.8289 10.9338L8.22481 14.9275C8.08975 15.0242 7.91023 15.0242 7.77516 14.9275L2.1711 10.9338C1.94482 10.7724 1.94321 10.4275 2.16492 10.2633L2.70342 9.86383L7.77207 13.55C7.90906 13.6493 8.09094 13.6493 8.22793 13.55L13.2966 9.86383Z" fill="black"/>
</svg>
