<svg width="16" height="16" viewBox="0 0 16 16" fill="none" xmlns="http://www.w3.org/2000/svg">
<path fill-rule="evenodd" clip-rule="evenodd" d="M2.36722 2C1.99051 2 1.66526 2.13363 1.39992 2.39804C1.13459 2.66245 1.00049 2.98657 1.00049 3.36197V12.6224C0.990736 12.9921 1.12709 13.3164 1.39992 13.5883C1.67234 13.8597 1.99682 13.9999 2.36722 13.9999L13.6333 14L13.6372 13.9999C14.0126 13.9898 14.3362 13.8517 14.6006 13.5883C14.8659 13.3238 15 12.9997 15 12.6243V3.36197C15 2.98657 14.8659 2.66245 14.6006 2.39804C14.3352 2.13363 14.01 2 13.6333 2H2.36722ZM2.31616 3.29235C2.33754 3.26678 2.35272 3.26314 2.36765 3.26314H13.601C13.6226 3.27255 13.6447 3.28062 13.6665 3.28606C13.6743 3.28798 13.6845 3.29026 13.6965 3.29185L13.7116 3.31683L13.7333 3.4683V3.70672C13.719 3.9479 13.6143 4.23392 13.4014 4.56827C13.1706 4.93092 12.9252 5.21334 12.6669 5.41952C11.6841 6.18114 10.665 6.97895 9.60962 7.81295C9.5693 7.83378 9.52776 7.86612 9.48966 7.8984C9.43969 7.94074 9.37948 7.9973 9.30969 8.06684C9.17557 8.20049 9.07132 8.28621 8.99513 8.33186C8.89818 8.38995 8.77992 8.47029 8.64122 8.57165C8.51157 8.66639 8.39514 8.73177 8.29165 8.77134C8.18517 8.81205 8.09353 8.82985 8.01522 8.82985L7.98784 8.82938L7.97605 8.83032C7.8957 8.83677 7.81255 8.82073 7.7242 8.77694C7.62027 8.72543 7.49667 8.65526 7.35289 8.5656C7.20842 8.47552 7.09892 8.40106 7.02242 8.34176C6.94366 8.28072 6.83194 8.18727 6.68625 8.0602C6.54358 7.93577 6.44795 7.85445 6.40509 7.82215C5.34543 6.98472 4.32678 6.18351 3.34946 5.41875C2.62596 4.85424 2.2723 4.17561 2.26808 3.37687C2.27363 3.35525 2.28707 3.32713 2.31616 3.29235ZM10.1788 8.99163C10.9896 8.31972 12.0749 7.46081 13.4351 6.41462C13.5383 6.33622 13.6377 6.25273 13.7333 6.16418V12.6142C13.7269 12.6553 13.7124 12.6805 13.6946 12.6982C13.6762 12.7166 13.6586 12.7236 13.6341 12.7236H2.35593L2.34471 12.7255L2.34241 12.7246C2.33724 12.7225 2.32538 12.7159 2.30761 12.6982C2.27415 12.6649 2.26847 12.6412 2.26847 12.6243V6.16438C2.36404 6.25291 2.46351 6.33638 2.56688 6.41477C3.93635 7.4613 5.02145 8.32034 5.82314 8.99198L5.82906 8.99646C6.09265 9.19551 6.29948 9.36144 6.45075 9.49473C6.62226 9.64585 6.85731 9.78079 7.14893 9.90254C7.44513 10.0262 7.72509 10.0913 7.98698 10.0913H8.00901C8.28584 10.1108 8.57087 10.0432 8.86135 9.89845C9.13964 9.75979 9.36663 9.62831 9.53973 9.50373C9.7086 9.38219 9.92191 9.21105 10.1788 8.99163Z" fill="black"/>
</svg>
