<svg width="16" height="16" viewBox="0 0 16 16" fill="none" xmlns="http://www.w3.org/2000/svg">
<path fill-rule="evenodd" clip-rule="evenodd" d="M13.6321 3.85534H14.5898C14.8164 3.85534 15 4.03321 15 4.25268C15 4.47206 14.8164 4.65005 14.5898 4.65005H10.5067C10.2802 4.65005 10.0965 4.47206 10.0965 4.25268C10.0965 4.03321 10.2802 3.85534 10.5067 3.85534H11.4644V2.39735C11.4644 2.17788 11.648 2 11.8746 2C12.1011 2 12.2848 2.17788 12.2848 2.39735V3.85534H12.8117V2.39735C12.8117 2.17788 12.9954 2 13.2219 2C13.4485 2 13.6321 2.17788 13.6321 2.39735V3.85534ZM10.643 6.31756C10.643 6.99451 11.2114 7.54522 11.9102 7.54522H12.1381V12.374C12.1381 12.8324 11.7528 13.2053 11.2792 13.2053C10.8056 13.2053 10.4204 12.8324 10.4204 12.374V11.755C10.4204 10.8883 9.69212 10.183 8.79704 10.183C7.90194 10.183 7.1737 10.8883 7.1737 11.755V12.3418C7.1737 12.8179 6.77349 13.2053 6.28162 13.2053C6.04332 13.2053 5.81923 13.1155 5.65079 12.9524C5.48235 12.7893 5.38953 12.5725 5.38953 12.342V9.70632H7.46711C8.28967 9.70632 8.95874 9.05804 8.95874 8.26128V3.44516C8.95874 2.64828 8.28967 2.0001 7.46711 2.0001H2.49162C1.66907 2.0001 1 2.64828 1 3.44516V8.26128C1 9.05804 1.66907 9.70632 2.49162 9.70632H4.56922V12.342C4.56922 12.785 4.74737 13.2014 5.0709 13.5146C5.39423 13.8276 5.82415 14 6.28141 14H6.28162C7.22573 13.9999 7.99391 13.256 7.99391 12.3418V11.755C7.99391 11.3264 8.35419 10.9777 8.79692 10.9777C9.23977 10.9777 9.60005 11.3264 9.60005 11.755V12.374C9.60005 13.2706 10.3533 14 11.2792 14C12.2051 14 12.9584 13.2706 12.9584 12.374V7.54522H13.1862C13.885 7.54522 14.4536 6.99451 14.4536 6.31756V5.44475H10.6428L10.643 6.31756ZM2.441 5.85307C2.441 4.49782 3.5796 3.39528 4.97937 3.39528C6.37903 3.39528 7.51765 4.49782 7.51765 5.85307C7.51765 7.2083 6.37903 8.31104 4.97937 8.31104C3.5796 8.31104 2.441 7.2083 2.441 5.85307ZM6.69733 5.85307C6.69733 4.93595 5.92657 4.18998 4.97937 4.18998C4.03216 4.18998 3.26132 4.93595 3.26132 5.85307C3.26132 6.77017 4.03216 7.51634 4.97937 7.51634C5.92657 7.51634 6.69733 6.77017 6.69733 5.85307ZM5.24298 5.58682C5.24298 5.36744 5.42648 5.18947 5.65313 5.18947C5.87948 5.18947 6.06329 5.36744 6.06329 5.58682V6.11952C6.06329 6.33888 5.87948 6.51688 5.65313 6.51688C5.42648 6.51688 5.24298 6.33888 5.24298 6.11952V5.58682ZM4.71577 6.11952C4.71577 6.33888 4.53225 6.51688 4.30561 6.51688C4.07917 6.51688 3.89544 6.33888 3.89544 6.11952V5.58682C3.89544 5.36744 4.07917 5.18947 4.30561 5.18947C4.53225 5.18947 4.71577 5.36744 4.71577 5.58682V6.11952Z" fill="black"/>
</svg>
