<svg width="16" height="16" viewBox="0 0 16 16" fill="none" xmlns="http://www.w3.org/2000/svg">
<path fill-rule="evenodd" clip-rule="evenodd" d="M13.745 1H8.72496C8.03302 1 7.46995 1.55207 7.46995 2.23047V10.8438H5.60196C4.90995 10.8438 4.34695 11.3957 4.34695 12.0742V13.7695C4.34695 13.9957 4.15929 14.1797 3.92862 14.1797C3.69794 14.1797 3.51028 13.9957 3.51028 13.7695V5.92188H3.92862C4.10878 5.92188 4.26857 5.80896 4.32547 5.64133L5.16214 3.18039C5.25254 2.91395 5.04958 2.64062 4.76529 2.64062H4.34695V1.41016C4.34695 1.18364 4.15965 1 3.92862 1C3.69758 1 3.51028 1.18364 3.51028 1.41016V2.64062H2.6736V1.41016C2.6736 1.18364 2.4863 1 2.25527 1C2.02423 1 1.83693 1.18364 1.83693 1.41016V2.64062H1.41859C1.13435 2.64062 0.931345 2.9139 1.02173 3.18039L1.8584 5.64133C1.9153 5.80896 2.0751 5.92188 2.25527 5.92188H2.6736V13.7695C2.6736 14.448 3.23661 15 3.92862 15C4.62062 15 5.18362 14.448 5.18362 13.7695V12.0742C5.18362 11.8481 5.37128 11.6641 5.60196 11.6641H7.46995V13.7695C7.46995 14.4479 8.03302 15 8.72496 15H13.745C14.4369 15 15 14.4479 15 13.7695V2.23047C15 1.55207 14.4369 1 13.745 1ZM13.3267 12.0742C13.3267 12.3006 13.1392 12.4844 12.9083 12.4844H9.56163C9.33071 12.4844 9.1433 12.3006 9.1433 12.0742V10.4336C9.1433 10.2072 9.33071 10.0234 9.56163 10.0234H12.9083C13.1392 10.0234 13.3267 10.2072 13.3267 10.4336V12.0742ZM13.3267 8.79297C13.3267 9.01937 13.1392 9.20312 12.9083 9.20312H9.56163C9.33071 9.20312 9.1433 9.01937 9.1433 8.79297V7.15234C9.1433 6.92594 9.33071 6.74219 9.56163 6.74219H12.9083C13.1392 6.74219 13.3267 6.92594 13.3267 7.15234V8.79297ZM13.3267 5.51172C13.3267 5.73812 13.1392 5.92188 12.9083 5.92188H9.56163C9.33071 5.92188 9.1433 5.73812 9.1433 5.51172V3.87109C9.1433 3.64469 9.33071 3.46094 9.56163 3.46094H12.9083C13.1392 3.46094 13.3267 3.64469 13.3267 3.87109V5.51172ZM12.49 4.28125H11.6533V5.10156H12.49V4.28125ZM9.97997 7.5625H10.8166V8.38281H9.97997V7.5625ZM9.97997 10.8438H10.8166V11.6641H9.97997V10.8438ZM12.49 10.8438H11.6533V11.6641H12.49V10.8438ZM11.6533 7.5625H12.49V8.38281H11.6533V7.5625ZM10.8166 4.28125H9.97997V5.10156H10.8166V4.28125Z" fill="black"/>
</svg>
