<svg width="16" height="16" viewBox="0 0 16 16" fill="none" xmlns="http://www.w3.org/2000/svg">
<path d="M3.94447 13.7273L3.93659 13.8596H3.48989V14.75H12.5097V13.8596H12.063L12.0547 13.7273L11.9755 12.4259H15V7.15155L12.297 4.86925H11.2138L11.0243 1.25H4.97525L4.78581 4.86925H3.70252L1 7.15155V12.4259H4.02453L3.94534 13.7273H3.94447ZM5.61664 6.79732C5.63152 6.71733 5.64946 6.63822 5.67046 6.56043C5.67658 6.53846 5.68183 6.51692 5.68796 6.49539H4.10022C3.96984 6.49539 3.8644 6.38903 3.8644 6.2585C3.8644 6.12797 3.96984 6.02161 4.10022 6.02161H5.19707L5.25745 4.86969L5.42239 1.72422H10.5759L10.7408 4.86969L10.8012 6.02161H11.898C12.0284 6.02161 12.1338 6.12797 12.1338 6.2585C12.1338 6.38903 12.0284 6.49539 11.898 6.49539H10.4C10.4065 6.51692 10.4118 6.5389 10.4179 6.56043C10.4389 6.63822 10.4564 6.71777 10.4717 6.79732C10.4936 6.91379 10.5102 7.03157 10.519 7.15155C10.5247 7.2289 10.5277 7.30713 10.5277 7.3858C10.5277 7.47414 10.5229 7.56116 10.5159 7.6473C10.4849 8.02395 10.3882 8.37863 10.239 8.6977C10.1147 8.96316 9.95372 9.20224 9.76384 9.4088C9.31713 9.89533 8.71205 10.1964 8.04485 10.1964C7.37764 10.1964 6.77212 9.89533 6.32542 9.4088C6.13597 9.20224 5.97497 8.96316 5.85071 8.6977C5.70108 8.37863 5.60439 8.02395 5.57377 7.6473C5.56677 7.56116 5.56195 7.47414 5.56195 7.3858C5.56195 7.30713 5.56502 7.2289 5.57071 7.15155C5.57946 7.03201 5.59608 6.91379 5.61752 6.79732H5.61664ZM3.01738 9.06863H2.30554V7.87936H3.01738V9.06863ZM11.2658 12.4259L11.3481 13.7708H4.65149L4.7333 12.4259H11.2658Z" fill="black"/>
<path d="M6.24675 8.69773C6.40119 8.97813 6.60201 9.22073 6.83914 9.40884C7.18171 9.68044 7.59648 9.84086 8.04405 9.84086C8.49163 9.84086 8.90639 9.68132 9.24897 9.40884C9.48566 9.22073 9.68692 8.97813 9.84136 8.69773C10.0124 8.38745 10.1253 8.03102 10.1607 7.64734C10.1686 7.56119 10.173 7.47417 10.173 7.38584C10.173 7.30673 10.1691 7.22893 10.1625 7.15158C10.1524 7.03116 10.1354 6.9125 10.1113 6.79735C10.0938 6.71648 10.0728 6.63781 10.0487 6.56046C10.0417 6.53849 10.0343 6.51695 10.0269 6.49542C10.0072 6.43696 9.98574 6.37983 9.96211 6.32357C9.91792 6.21853 9.86805 6.11745 9.81248 6.0212C9.79279 5.98692 9.77267 5.95264 9.75167 5.91968C9.75167 5.91924 9.75167 5.91924 9.75167 5.91924C9.70923 5.85375 9.66373 5.79046 9.61604 5.73025C9.40778 5.43403 9.22534 5.14572 9.06433 4.86928C8.30525 3.56881 8.04449 2.56281 8.04449 2.56281C8.04449 2.56281 7.78329 3.56837 7.02465 4.86928C6.86364 5.14528 6.6812 5.43403 6.4725 5.73025C6.42481 5.79046 6.37931 5.85375 6.33687 5.91924C6.33687 5.91968 6.33644 5.91968 6.33644 5.91968C6.315 5.95264 6.29575 5.98692 6.27562 6.0212C6.21962 6.11745 6.16974 6.21809 6.12599 6.32357C6.1028 6.37983 6.08093 6.4374 6.06124 6.49542C6.0538 6.51695 6.04636 6.53849 6.03936 6.56046C6.0153 6.63781 5.99386 6.71692 5.97636 6.79735C5.95186 6.9125 5.9348 7.03072 5.92517 7.15158C5.91905 7.22893 5.91467 7.30673 5.91467 7.38584C5.91467 7.47417 5.91905 7.56119 5.92692 7.64734C5.9628 8.03102 6.07612 8.38745 6.24675 8.69773ZM9.09408 5.87705C9.13477 5.92407 9.16802 5.97329 9.20434 6.0212C9.27872 6.11965 9.34478 6.22029 9.40209 6.32357C9.43359 6.38027 9.46203 6.43784 9.48828 6.49542C9.49791 6.51695 9.50666 6.53893 9.51541 6.56046C9.54779 6.63825 9.57579 6.71736 9.59854 6.79735C9.63179 6.91338 9.65541 7.0316 9.66898 7.15158C9.68735 7.31376 9.6891 7.47901 9.67073 7.64734C9.6506 7.83104 9.6121 8.01783 9.54779 8.20681C9.42878 8.55402 8.87883 8.40503 8.99783 8.05475C9.04508 7.91675 9.07571 7.78094 9.09496 7.64734C9.11946 7.47813 9.12252 7.31244 9.09977 7.15158C9.08227 7.03116 9.04902 6.91294 9.00396 6.79735C8.97246 6.71692 8.93395 6.63781 8.88845 6.56046C8.87577 6.53893 8.86527 6.51651 8.85126 6.49542C8.81364 6.4374 8.76989 6.37983 8.72351 6.32357C8.71214 6.30995 8.70382 6.29545 8.69157 6.28182C8.6207 6.1992 8.60669 6.10558 8.62813 6.0212C8.67801 5.82299 8.92564 5.68015 9.09496 5.87705H9.09408Z" fill="black"/>
</svg>
