<svg width="16" height="16" viewBox="0 0 16 16" fill="none" xmlns="http://www.w3.org/2000/svg">
<path fill-rule="evenodd" clip-rule="evenodd" d="M8.79617 1.46189V10.8785C8.79617 11.133 8.59076 11.3404 8.33812 11.3404H2.45803C2.20539 11.3404 2 11.133 2 10.8785V1.46189C2 1.20712 2.20539 1 2.45803 1H8.33812C8.59076 1 8.79617 1.20712 8.79617 1.46189ZM3.624 10.3431C3.85016 10.3431 4.03368 10.1583 4.03368 9.92992V9.85227C4.03368 9.6242 3.85016 9.43911 3.624 9.43911C3.39757 9.43911 3.21432 9.6242 3.21432 9.85227V9.92992C3.21432 10.1583 3.39757 10.3431 3.624 10.3431ZM5.39794 10.3431C5.6241 10.3431 5.80761 10.1583 5.80761 9.92992V9.85227C5.80761 9.6242 5.6241 9.43911 5.39794 9.43911C5.17177 9.43911 4.98826 9.6242 4.98826 9.85227V9.92992C4.98826 10.1583 5.17177 10.3431 5.39794 10.3431ZM5.76804 6.8812L6.59397 5.12646C6.72267 4.85269 6.52393 4.5362 6.22384 4.53618H5.20754C5.30167 4.32675 5.34052 4.2403 5.37939 4.15383C5.44 4.01895 5.50065 3.88409 5.77102 3.28272C5.8644 3.07477 5.77319 2.82991 5.56698 2.73573C5.36106 2.64151 5.11824 2.7338 5.02483 2.94147L4.19891 4.77884C4.07639 5.05188 4.27461 5.36249 4.57201 5.36249H5.57574L5.02787 6.527C4.93091 6.73302 5.01776 6.97953 5.22234 7.07731C5.42817 7.17608 5.67188 7.08611 5.76804 6.8812ZM7.17191 10.3431C7.39833 10.3431 7.58159 10.1583 7.58159 9.92992V9.85227C7.58159 9.6242 7.39833 9.43911 7.17191 9.43911C6.94577 9.43911 6.76221 9.6242 6.76221 9.85227V9.92992C6.76221 10.1583 6.94575 10.3431 7.17191 10.3431ZM13.3363 4.53898H12.0606C11.9097 4.53898 11.7875 4.66229 11.7875 4.81439V5.97118H13.6095V4.81439C13.6094 4.66229 13.4872 4.53898 13.3363 4.53898ZM11.5334 6.79749C11.458 6.79749 11.3968 6.85913 11.3968 6.93521V8.04655C11.3968 8.52874 11.7844 8.92159 12.2646 8.92159H12.2889V13.4204C12.2889 13.8365 11.9544 14.1737 11.5419 14.1737H6.5549C6.14273 14.1737 5.80761 13.8358 5.80761 13.4204V12.1667H4.98826V13.4204C4.98826 14.2913 5.69099 15 6.5549 15H11.5416C12.4068 15 13.1083 14.2927 13.1083 13.4201V8.92159H13.1323C13.6115 8.92159 14 8.52983 14 8.04655V6.93521C14 6.85913 13.9389 6.79749 13.8634 6.79749H11.5334Z" fill="black"/>
</svg>
