<svg width="16" height="16" viewBox="0 0 16 16" fill="none" xmlns="http://www.w3.org/2000/svg">
<path d="M3.81149 14.8569C3.70801 14.9234 3.59203 14.968 3.47066 14.988C3.3493 15.008 3.22513 15.003 3.10578 14.9732C2.98644 14.9434 2.87445 14.8895 2.7767 14.8149C2.67895 14.7402 2.59751 14.6464 2.53739 14.539C2.44714 14.3844 2.39978 14.2085 2.40018 14.0294V1.97027C2.40018 1.43403 2.81461 1 3.32705 1C3.49902 1.00059 3.66719 1.05065 3.81149 1.14421L13.16 7.17308C13.2954 7.26448 13.4064 7.38772 13.4831 7.53199C13.5597 7.67626 13.5998 7.83715 13.5998 8.00054C13.5998 8.16393 13.5597 8.32481 13.4831 8.46909C13.4064 8.61336 13.2954 8.7366 13.16 8.828L3.81149 14.8569Z" fill="black"/>
</svg>
