<svg width="16" height="16" viewBox="0 0 16 16" fill="none" xmlns="http://www.w3.org/2000/svg">
<path d="M8.61628 7.99978V11.3456C8.61628 11.5134 8.47641 11.6537 8.30814 11.6537H2.52605C2.35822 11.6537 2.21791 11.5139 2.21791 11.3456V3.12769C2.21791 2.95985 2.35778 2.81955 2.52605 2.81955H4.96188V1.60142H2.21791C1.54569 1.60142 0.999782 2.14733 0.999782 2.81955V13.7819C0.999782 14.4541 1.54569 15 2.21791 15H8.61584C9.28806 15 9.81999 14.4541 9.81999 13.7819V7.99978H8.61584H8.61628ZM5.41032 14.09C4.99029 14.09 4.65418 13.7399 4.65418 13.3199C4.65418 12.9138 4.99029 12.5637 5.41032 12.5637C5.83035 12.5637 6.18045 12.9138 6.18045 13.3199C6.18045 13.7399 5.83035 14.09 5.41032 14.09ZM14.3844 1C14.7205 1 15.0002 1.29415 15.0002 1.64381V6.75368C15.0002 7.10377 14.7201 7.3835 14.3844 7.3835H6.18045C5.84434 7.3835 5.56461 7.10334 5.56461 6.75368V1.64381C5.56461 1.29372 5.84478 1 6.18045 1H14.3844ZM6.18045 1.60185C6.18045 1.61584 6.18045 1.61584 6.18045 1.64381V2.81999H14.3984V1.64381C14.3984 1.61584 14.3844 1.61584 14.3844 1.60185H6.18045ZM14.3844 6.78209C14.3844 6.78209 14.3984 6.7681 14.3984 6.75411V4.34626H6.18045V6.75411C6.18045 6.7681 6.18045 6.78209 6.19444 6.78209H14.3844ZM9.52627 5.25581C9.69411 5.25581 9.82042 5.39568 9.82042 5.56395C9.82042 5.73223 9.69455 5.87209 9.52627 5.87209H7.6923C7.52446 5.87209 7.39815 5.73223 7.39815 5.56395C7.39815 5.39568 7.52402 5.25581 7.6923 5.25581H9.52627Z" fill="black"/>
</svg>
