<svg width="16" height="17" viewBox="0 0 16 17" fill="none" xmlns="http://www.w3.org/2000/svg">
<path fill-rule="evenodd" clip-rule="evenodd" d="M7.27076 6.47678C7.51799 6.31723 7.80585 6.23178 8.10027 6.23044C8.49244 6.22922 8.87033 6.37717 9.15691 6.64426C9.39911 6.87692 9.55084 7.18759 9.58519 7.52133C9.61954 7.85495 9.53428 8.19003 9.34453 8.46689C9.17774 8.70602 8.94425 8.89096 8.67303 8.99899C8.40041 9.108 8.10186 9.13535 7.81389 9.07773C7.52294 9.02756 7.25423 8.89011 7.04362 8.68369C6.83632 8.48434 6.69504 8.22641 6.63875 7.94479C6.58171 7.66965 6.6128 7.38351 6.72762 7.12704C6.84024 6.86142 7.02925 6.6351 7.27076 6.47678ZM8.10027 8.28952C8.26826 8.28745 8.42974 8.22446 8.55453 8.11227C8.61128 8.05515 8.6562 7.98752 8.68671 7.91318C8.71721 7.83871 8.7327 7.75912 8.73228 7.67868C8.73595 7.55637 8.70144 7.43588 8.63353 7.33395C8.55714 7.23703 8.45905 7.15952 8.34715 7.10727C8.22777 7.07309 8.10115 7.07309 7.98176 7.10727C7.85791 7.12668 7.74362 7.18539 7.65589 7.27475C7.56482 7.35751 7.50238 7.46701 7.47754 7.58737C7.4527 7.70773 7.46673 7.83286 7.51764 7.94479C7.57074 8.04575 7.6534 8.12827 7.75464 8.18124C7.85652 8.2507 7.97684 8.28842 8.10027 8.28952Z" fill="black"/>
<path fill-rule="evenodd" clip-rule="evenodd" d="M14.7067 3.6196C14.8245 3.77731 14.9147 3.95395 14.9734 4.14169C15.0089 4.32724 15.0089 4.51779 14.9734 4.70334L14.2229 11.2157C14.1745 11.6035 13.976 11.957 13.6699 12.2009C13.5015 12.3148 13.3143 12.3982 13.1169 12.4471V12.5555C13.1108 12.7531 13.0649 12.9475 12.9817 13.1269C12.8986 13.3065 12.78 13.4673 12.633 13.5999C12.3443 13.8625 11.967 14.0068 11.5763 14.0039H2.39243C2.0185 13.9876 1.66505 13.8289 1.40491 13.5605C1.27536 13.4312 1.17285 13.2776 1.10334 13.1084C1.03384 12.9393 0.998717 12.758 1.00004 12.5753V5.97421C1.01293 5.60434 1.16447 5.25278 1.42467 4.98898C1.69817 4.7009 2.07395 4.5311 2.47143 4.51608H2.80719L2.97507 3.37326C2.98924 3.18051 3.04302 2.99265 3.13307 2.8215C3.2131 2.62204 3.34215 2.44589 3.50832 2.30917C3.66607 2.18295 3.84731 2.0892 4.04158 2.03329C4.23712 1.99411 4.43855 1.99411 4.63409 2.03329L13.6699 3.01852C13.8772 3.04892 14.0758 3.12277 14.2525 3.23532C14.4274 3.33286 14.5816 3.46335 14.7067 3.6196ZM13.1563 5.97421V11.2747L13.9464 4.65402C13.961 4.59579 13.961 4.53488 13.9464 4.47665C13.936 4.4205 13.9084 4.36887 13.8674 4.32895C13.8286 4.28171 13.7799 4.254 13.7104 4.2308L13.5514 4.21066L4.52547 3.15646C4.39637 3.15073 4.26867 3.18515 4.16009 3.25497C4.07571 3.3331 4.02006 3.43723 4.00208 3.55063L3.88358 4.53586H11.5566C11.9697 4.54062 12.3654 4.70273 12.6626 4.98898C12.9443 5.24472 13.1203 5.59604 13.1563 5.97421ZM8.55453 10.5654L12.0701 8.59494L12.0898 5.97421C12.0843 5.84311 12.0276 5.71933 11.9318 5.62936C11.8288 5.53635 11.6955 5.48386 11.5566 5.48166H2.47143C2.3529 5.49301 2.2433 5.54953 2.1653 5.63925C2.08723 5.73276 2.04832 5.85275 2.05668 5.97421V10.2107L3.96258 8.9299C4.24152 8.69882 4.58797 8.56406 4.95009 8.54562H5.04885C5.41083 8.56467 5.75706 8.69943 6.03636 8.9299L7.81389 10.5654C7.92543 10.6333 8.05356 10.6692 8.18421 10.6692C8.31486 10.6692 8.44299 10.6333 8.55453 10.5654ZM4.53534 9.70822L2.05668 11.4817L2.0863 12.6048C2.0863 12.6554 2.0944 12.7038 2.10374 12.7525C2.1252 12.7975 2.15541 12.8377 2.19262 12.8708C2.21336 12.8866 2.2355 12.9002 2.25873 12.9118C2.28181 12.9233 2.30595 12.9327 2.33087 12.9398H11.5862C11.7221 12.9398 11.8541 12.8947 11.9615 12.8117C11.982 12.799 12.0013 12.7845 12.0191 12.7684C12.0465 12.7436 12.0703 12.7152 12.0898 12.6837C12.0993 12.6316 12.0993 12.5781 12.0898 12.526V9.7673L9.12729 11.4422C8.86302 11.596 8.56411 11.6808 8.25828 11.6886C7.84572 11.6983 7.44435 11.5543 7.13251 11.2846L5.33523 9.75754C5.2289 9.66074 5.09348 9.6019 4.95009 9.59006C4.80186 9.57602 4.65379 9.61826 4.53534 9.70822Z" fill="black"/>
</svg>
