<svg width="16" height="16" viewBox="0 0 16 16" fill="none" xmlns="http://www.w3.org/2000/svg">
<path d="M13.8877 2.10582C14.2706 2.48787 14.5517 2.86993 14.731 3.25199C14.9103 3.63405 15 3.9205 15 4.11134V4.39761L10.4768 8.91074L5.27161 14.0685L1 15L1.89769 10.7016L7.10287 5.54378L11.6261 1.03065C12.2724 0.887516 13.0262 1.24572 13.8877 2.10526V2.10582ZM5.02113 13.5676L5.45205 13.1376C5.42814 12.6124 5.11695 12.0513 4.51849 11.4541C4.25512 11.1913 3.98596 10.9824 3.71101 10.8274C3.43607 10.6723 3.22668 10.5948 3.08285 10.5948L2.83181 10.559L2.43676 10.9889L2.11343 12.4219C2.44853 12.6128 2.72366 12.8157 2.93884 13.0308C3.22612 13.3175 3.44148 13.6041 3.58493 13.8907L5.02113 13.5676Z" fill="black"/>
</svg>
