<svg width="16" height="16" viewBox="0 0 16 16" fill="none" xmlns="http://www.w3.org/2000/svg">
<path d="M8.92362 2C10.6114 2 12.046 2.5854 13.2276 3.75619C14.4092 4.92698 15 6.34158 15 8C15 9.65842 14.4092 11.073 13.2276 12.2438C12.046 13.4146 10.6114 14 8.92362 14C7.5139 14 6.26288 13.5707 5.17057 12.7121L6.21298 11.6293C7.04709 12.2147 7.95064 12.5074 8.92362 12.5074C10.1746 12.5074 11.247 12.0684 12.1406 11.1903C13.0342 10.3122 13.481 9.24876 13.481 8C13.481 6.75124 13.0342 5.68781 12.1406 4.80972C11.247 3.93162 10.1746 3.49258 8.92362 3.49258C7.69244 3.49258 6.63004 3.917 5.73641 4.76586C4.84278 5.61471 4.38605 6.64403 4.36621 7.8538H5.34305C5.77827 7.8538 6.0057 8.37132 5.71138 8.69194L4.10872 10.4377C3.91059 10.6536 3.57019 10.6536 3.37206 10.4377L1.76941 8.69194C1.47508 8.37132 1.70252 7.8538 2.13774 7.8538H2.84677C2.8666 6.23437 3.47227 4.85388 4.66378 3.71233C5.85528 2.57078 7.27554 2 8.92362 2Z" fill="black"/>
</svg>
