<svg width="16" height="16" viewBox="0 0 16 16" fill="none" xmlns="http://www.w3.org/2000/svg">
<path d="M2.74777 11.7602V12.8451H1.73491C1.63699 12.8451 1.58803 12.8 1.58803 12.7096V12.5741H1.14688C1.04896 12.5741 1 12.529 1 12.4386V12.1672C1 12.0768 1.04896 12.0317 1.14688 12.0317H1.58803V11.8962C1.58803 11.8058 1.63699 11.7607 1.73491 11.7607H2.74777V11.7602ZM2.74777 9.60532V10.6903H1.73491C1.63699 10.6903 1.58803 10.6451 1.58803 10.5548V10.4193H1.14688C1.04896 10.4193 1 10.3741 1 10.2838V10.0123C1 9.92197 1.04896 9.8768 1.14688 9.8768H1.58803V9.7413C1.58803 9.65096 1.63699 9.60579 1.73491 9.60579H2.74777V9.60532ZM2.74777 7.46505V8.53495H1.73491C1.63699 8.53495 1.58803 8.48978 1.58803 8.39945V8.26395H1.14688C1.04896 8.26395 1 8.21878 1 8.12844V7.85697C1 7.76664 1.04896 7.72147 1.14688 7.72147H1.58803V7.58597C1.58803 7.50567 1.63699 7.46552 1.73491 7.46552H2.74777V7.46505ZM2.74777 5.31019V6.38009H1.73491C1.63699 6.38009 1.58803 6.33492 1.58803 6.24459V6.10909H1.14688C1.04896 6.10909 1 6.06392 1 5.97359V5.70211C1 5.62181 1.04896 5.58166 1.14688 5.58166H1.58803V5.44616C1.58803 5.35583 1.63699 5.31066 1.73491 5.31066H2.74777V5.31019ZM2.74777 3.15486V4.22476H1.73491C1.63699 4.22476 1.58803 4.17959 1.58803 4.08926V3.95376H1.14688C1.04896 3.95376 1 3.90859 1 3.81825V3.56184C1 3.4715 1.04896 3.42633 1.14688 3.42633H1.58803V3.29083C1.58803 3.2005 1.63699 3.15533 1.73491 3.15533H2.74777V3.15486ZM12.6637 1.81348V14.1865C12.6637 14.4076 12.5821 14.5985 12.4189 14.7591C12.2557 14.9197 12.0488 15 11.7982 15H4.20178C3.96208 15 3.76063 14.9197 3.59743 14.7591C3.43423 14.5985 3.34702 14.4076 3.3358 14.1865V1.81348C3.3358 1.58231 3.42301 1.39145 3.59743 1.24089C3.77185 1.09033 3.9733 1.01004 4.20178 1H11.7982C12.0379 1 12.2448 1.0803 12.4189 1.24089C12.593 1.40149 12.6746 1.59235 12.6637 1.81348ZM15 12.1672V12.4386C15 12.529 14.951 12.5741 14.8531 12.5741H14.412V12.7096C14.412 12.8 14.3685 12.8451 14.2814 12.8451H13.2522V11.7602H14.2814C14.3685 11.7602 14.412 11.8054 14.412 11.8957V12.0312H14.8531C14.951 12.0312 15 12.0764 15 12.1667V12.1672ZM15 10.0118V10.2833C15 10.3736 14.951 10.4188 14.8531 10.4188H14.412V10.5543C14.412 10.6446 14.3685 10.6898 14.2814 10.6898H13.2522V9.60485H14.2814C14.3685 9.60485 14.412 9.65002 14.412 9.74035V9.87586H14.8531C14.951 9.87586 15 9.92102 15 10.0114V10.0118ZM15 7.85697V8.12844C15 8.21878 14.951 8.26395 14.8531 8.26395H14.412V8.39945C14.412 8.48978 14.3685 8.53495 14.2814 8.53495H13.2522V7.46505H14.2814C14.3685 7.46505 14.412 7.5052 14.412 7.5855V7.721H14.8531C14.951 7.721 15 7.76616 15 7.8565V7.85697ZM15 5.70164V5.97311C15 6.06345 14.951 6.10862 14.8531 6.10862H14.412V6.24412C14.412 6.33445 14.3685 6.37962 14.2814 6.37962H13.2522V5.30972H14.2814C14.3685 5.30972 14.412 5.35489 14.412 5.44522V5.58072H14.8531C14.951 5.58072 15 5.62087 15 5.70117V5.70164ZM15 3.56184V3.81825C15 3.90859 14.951 3.95376 14.8531 3.95376H14.412V4.08926C14.412 4.17959 14.3685 4.22476 14.2814 4.22476H13.2522V3.15486H14.2814C14.3685 3.15486 14.412 3.20003 14.412 3.29036V3.42586H14.8531C14.951 3.42586 15 3.47103 15 3.56137V3.56184Z" fill="black"/>
</svg>
