<svg width="16" height="16" viewBox="0 0 16 16" fill="none" xmlns="http://www.w3.org/2000/svg">
<path fill-rule="evenodd" clip-rule="evenodd" d="M8 1.5C6.35696 1.5 4.81167 2.13346 3.64931 3.28316C3.4891 3.44151 3.4891 3.69846 3.64931 3.85643C3.80952 4.01479 4.06909 4.01479 4.2293 3.85643C5.23704 2.85954 6.57607 2.31081 8 2.31081C9.42392 2.31081 10.763 2.85954 11.7707 3.85643C11.9309 4.01479 12.1905 4.01481 12.3507 3.85643C12.5109 3.69846 12.5109 3.44151 12.3507 3.28316C11.1883 2.13346 9.64303 1.5 8 1.5ZM7.13161 6.72157C6.9714 6.87993 6.9714 7.1365 7.13161 7.29483C7.29183 7.45319 7.5514 7.45319 7.71159 7.29483C7.75686 7.25049 7.85419 7.17568 8 7.17568C8.14578 7.17568 8.24313 7.25051 8.28838 7.29483C8.4486 7.45319 8.70815 7.45321 8.86838 7.29483C9.02859 7.1365 9.02859 6.87993 8.86838 6.72157C8.7338 6.58816 8.44179 6.36486 8 6.36486C7.5582 6.36486 7.2662 6.58816 7.13161 6.72157ZM11.1899 4.42931C11.3501 4.58764 11.3501 4.8446 11.1899 5.00257C11.0297 5.16092 10.7701 5.16092 10.6099 5.00257C9.9122 4.31251 8.98574 3.93244 8 3.93244C7.01425 3.93244 6.08779 4.31251 5.39006 5.00257C5.22985 5.16092 4.97027 5.16092 4.81008 5.00257C4.64987 4.8446 4.64987 4.58764 4.81008 4.42931C5.66244 3.58603 6.79514 3.12162 8 3.12162C9.20483 3.12162 10.3376 3.58603 11.1899 4.42931ZM10.0292 6.1487C10.1893 5.99073 10.1893 5.73378 10.0292 5.57544C8.94448 4.50253 7.05552 4.50253 5.97084 5.57544C5.81065 5.73378 5.81065 5.99073 5.97084 6.1487C6.13105 6.30705 6.39062 6.30705 6.55084 6.1487C7.32627 5.38143 8.67373 5.38143 9.44916 6.1487C9.60937 6.30705 9.8689 6.30705 10.0292 6.1487ZM1 10.0135C1 9.34286 1.55196 8.79731 2.23047 8.79731H13.7695C14.448 8.79731 15 9.34286 15 10.0135V12.4459C15 13.1166 14.448 13.6622 13.7695 13.6622H13.3594V14.0946C13.3594 14.3187 13.1759 14.5 12.9492 14.5C12.7225 14.5 12.5391 14.3187 12.5391 14.0946V13.6622H3.46094V14.0946C3.46094 14.3187 3.27749 14.5 3.05077 14.5C2.82407 14.5 2.64062 14.3187 2.64062 14.0946V13.6622H2.23047C1.55196 13.6622 1 13.1166 1 12.4459V10.0135ZM9.66796 12.0405C9.89467 12.0405 10.0781 11.8592 10.0781 11.6351V10.8243C10.0781 10.6002 9.89467 10.4189 9.66796 10.4189C9.44127 10.4189 9.25781 10.6002 9.25781 10.8243V11.6351C9.25781 11.8592 9.44127 12.0405 9.66796 12.0405ZM11.3086 12.0405C11.5353 12.0405 11.7187 11.8592 11.7187 11.6351V10.8243C11.7187 10.6002 11.5353 10.4189 11.3086 10.4189C11.0819 10.4189 10.8984 10.6002 10.8984 10.8243V11.6351C10.8984 11.8592 11.0819 12.0405 11.3086 12.0405ZM12.9492 12.0405C13.1759 12.0405 13.3594 11.8592 13.3594 11.6351V10.8243C13.3594 10.6002 13.1759 10.4189 12.9492 10.4189C12.7225 10.4189 12.5391 10.6002 12.5391 10.8243V11.6351C12.5391 11.8592 12.7225 12.0405 12.9492 12.0405ZM1.27609 3.15449C1.06778 3.24276 0.971262 3.48111 1.06059 3.68656L2.92502 7.98649H3.8172L1.81441 3.36749C1.7251 3.16081 1.48155 3.065 1.27609 3.15449ZM14.9394 3.68656L13.075 7.98649H12.1828L14.1856 3.36746C14.2749 3.16119 14.5168 3.06578 14.7239 3.15446C14.9322 3.24276 15.0287 3.48108 14.9394 3.68656Z" fill="black"/>
</svg>
