<svg width="16" height="16" viewBox="0 0 16 16" fill="none" xmlns="http://www.w3.org/2000/svg">
<path fill-rule="evenodd" clip-rule="evenodd" d="M4.50025 1.86395C5.10332 1.81581 5.67582 1.5786 6.13622 1.18613C6.65622 0.743239 7.31695 0.5 8 0.5C8.68305 0.5 9.34378 0.743239 9.86378 1.18613C10.3242 1.5786 10.8967 1.81581 11.4997 1.86395C12.1808 1.91838 12.8202 2.21361 13.3033 2.69672C13.7864 3.17982 14.0816 3.81921 14.136 4.50025C14.1839 5.10307 14.4211 5.6759 14.8139 6.13622C15.2568 6.65622 15.5 7.31695 15.5 8C15.5 8.68305 15.2568 9.34378 14.8139 9.86378C14.4214 10.3242 14.1842 10.8967 14.136 11.4997C14.0816 12.1808 13.7864 12.8202 13.3033 13.3033C12.8202 13.7864 12.1808 14.0816 11.4997 14.136C10.8967 14.1842 10.3242 14.4214 9.86378 14.8139C9.34378 15.2568 8.68305 15.5 8 15.5C7.31695 15.5 6.65622 15.2568 6.13622 14.8139C5.67582 14.4214 5.10332 14.1842 4.50025 14.136C3.81921 14.0816 3.17982 13.7864 2.69672 13.3033C2.21361 12.8202 1.91838 12.1808 1.86395 11.4997C1.81581 10.8967 1.5786 10.3242 1.18613 9.86378C0.743239 9.34378 0.5 8.68305 0.5 8C0.5 7.31695 0.743239 6.65622 1.18613 6.13622C1.5786 5.67582 1.81581 5.10332 1.86395 4.50025C1.91838 3.81921 2.21361 3.17982 2.69672 2.69672C3.17982 2.21361 3.81921 1.91838 4.50025 1.86395V1.86395ZM11.4754 6.78779C11.6462 6.61097 11.7406 6.37416 11.7385 6.12834C11.7364 5.88253 11.6378 5.64739 11.464 5.47356C11.2901 5.29974 11.055 5.20114 10.8092 5.19901C10.5634 5.19687 10.3265 5.29137 10.1497 5.46214L7.06248 8.54939L5.85028 7.33718C5.67346 7.1664 5.43664 7.0719 5.19082 7.07404C4.94501 7.07618 4.70987 7.17477 4.53605 7.3486C4.36222 7.52242 4.26363 7.75756 4.26149 8.00337C4.25935 8.24919 4.35385 8.48601 4.52463 8.66282L6.39966 10.5379C6.57547 10.7136 6.81389 10.8123 7.06248 10.8123C7.31108 10.8123 7.5495 10.7136 7.72531 10.5379L11.4754 6.78779V6.78779Z" fill="white"/>
</svg>
