<svg width="16" height="16" viewBox="0 0 16 16" fill="none" xmlns="http://www.w3.org/2000/svg">
<path fill-rule="evenodd" clip-rule="evenodd" d="M11.7819 1C12.6918 1 13.563 1.3618 14.1722 1.99264C14.7814 2.62347 15.0769 3.4698 14.9828 4.31457L14.0932 12.3064C13.9223 13.842 12.5462 15 10.8923 15H8.44011V8.75688C8.44011 8.52999 8.24305 8.34606 8 8.34606C7.75694 8.34606 7.55992 8.52999 7.55992 8.75688V15H5.1077C3.45383 15 2.07773 13.842 1.90679 12.3064L1.01715 4.31459C0.923148 3.4698 1.2186 2.62347 1.82781 1.99264C2.43702 1.3618 3.30824 1 4.21807 1H11.7819ZM4.22836 13.002C4.43645 13.002 4.61839 12.8614 4.65996 12.6717C4.69665 12.5039 4.61196 12.3264 4.45461 12.239C4.29653 12.1511 4.09188 12.1649 3.94936 12.2737C3.80672 12.3826 3.75294 12.5681 3.81438 12.7297C3.87582 12.8912 4.04485 13.002 4.22836 13.002ZM4.45449 10.5956C4.29638 10.5078 4.0919 10.5216 3.94936 10.6304C3.80679 10.7393 3.75301 10.9248 3.81438 11.0863C3.8758 11.2478 4.04482 11.3587 4.22836 11.3587C4.43647 11.3587 4.6186 11.218 4.65996 11.0281C4.69649 10.8603 4.61189 10.6831 4.45449 10.5956ZM4.22836 9.71535C4.43633 9.71535 4.61841 9.57476 4.65996 9.38506C4.6967 9.21728 4.61189 9.03981 4.45449 8.95235C4.29641 8.86452 4.0919 8.87832 3.94936 8.98713C3.80672 9.096 3.75294 9.2815 3.81438 9.44307C3.87582 9.60458 4.04489 9.71535 4.22836 9.71535ZM5.98876 13.002C6.19676 13.002 6.37879 12.8614 6.42034 12.6717C6.45706 12.5039 6.37225 12.3264 6.21487 12.239C6.05679 12.1511 5.85226 12.1649 5.70974 12.2737C5.56712 12.3826 5.51334 12.5681 5.57478 12.7297C5.6362 12.8912 5.80523 13.002 5.98876 13.002ZM6.21487 10.5956C6.05679 10.5078 5.85231 10.5216 5.70974 10.6304C5.5671 10.7393 5.51339 10.9247 5.57478 11.0863C5.63618 11.2478 5.80521 11.3587 5.98876 11.3587C6.19683 11.3587 6.37898 11.2179 6.42034 11.0281C6.45687 10.8603 6.37235 10.6831 6.21487 10.5956ZM5.98876 9.71535C6.19676 9.71535 6.37879 9.57478 6.42034 9.38506C6.45708 9.21721 6.37232 9.03981 6.21487 8.95235C6.05679 8.86452 5.85231 8.87832 5.70974 8.98713C5.56717 9.09594 5.51336 9.28153 5.57478 9.44307C5.6362 9.60458 5.8053 9.71535 5.98876 9.71535ZM10.0112 13.002C10.2188 13.002 10.4015 12.8613 10.4425 12.6717C10.4789 12.5037 10.3949 12.3266 10.2372 12.239C10.0793 12.1512 9.87452 12.1648 9.73223 12.2737C9.59037 12.3823 9.53439 12.5683 9.597 12.7297C9.65966 12.8912 9.82679 13.002 10.0112 13.002ZM10.0112 9.71535C10.2184 9.71535 10.4021 9.57469 10.4425 9.38506C10.4784 9.21695 10.3952 9.04018 10.2372 8.95235C10.0792 8.86452 9.87452 8.87822 9.73223 8.98713C9.58971 9.0962 9.53532 9.28111 9.59698 9.44307C9.65849 9.60468 9.8277 9.71535 10.0112 9.71535ZM10.0112 11.3587C10.2189 11.3587 10.4017 11.2178 10.4425 11.0281C10.4787 10.8602 10.3949 10.6833 10.2372 10.5956C10.0792 10.5078 9.87455 10.5215 9.73223 10.6304C9.58971 10.7395 9.53539 10.9243 9.59698 11.0863C9.65847 11.248 9.82759 11.3587 10.0112 11.3587ZM9.692 6.47387C9.80465 6.47387 9.91727 6.43375 10.0032 6.35351L11.7967 4.67935C11.9685 4.51892 11.9685 4.25878 11.7967 4.09835C9.70318 2.14409 6.29682 2.14409 4.20333 4.09835C4.03149 4.25878 4.03149 4.51892 4.20333 4.67935L5.99678 6.35351C6.16864 6.51397 6.44731 6.51397 6.61915 6.35351C7.38055 5.64279 8.61942 5.64279 9.38083 6.35351C9.46673 6.43377 9.57935 6.47387 9.692 6.47387ZM11.7716 13.002C11.9792 13.002 12.1619 12.8613 12.2029 12.6717C12.2393 12.5037 12.1553 12.3266 11.9976 12.239C11.8395 12.1511 11.6349 12.165 11.4923 12.2737C11.3505 12.382 11.295 12.5688 11.3574 12.7297C11.4201 12.8912 11.5871 13.002 11.7716 13.002ZM11.9976 10.5956C11.8396 10.5078 11.635 10.5215 11.4926 10.6304C11.3507 10.739 11.2948 10.9249 11.3574 11.0863C11.4201 11.2478 11.5871 11.3587 11.7716 11.3587C11.9793 11.3587 12.1621 11.2178 12.2029 11.0281C12.239 10.8602 12.1553 10.6833 11.9976 10.5956ZM11.7716 9.71535C11.9791 9.71535 12.1619 9.57465 12.2029 9.38506C12.2393 9.2171 12.1553 9.04002 11.9976 8.95235C11.8396 8.86454 11.6349 8.87822 11.4926 8.98713C11.3507 9.0957 11.2947 9.2817 11.3574 9.44307C11.4201 9.60451 11.5872 9.71535 11.7716 9.71535ZM6.33209 5.50457L5.15204 4.40298C6.80127 3.13769 9.1987 3.13769 10.8479 4.40298L9.66786 5.50457C9.29712 5.25224 8.87503 5.09443 8.44006 5.03108V4.55211C8.44006 4.32522 8.24303 4.14127 7.99998 4.14127C7.75692 4.14127 7.55987 4.32522 7.55987 4.55211V5.03108C7.12494 5.09439 6.70283 5.25224 6.33209 5.50457Z" fill="black"/>
</svg>
