<svg width="16" height="16" viewBox="0 0 16 16" fill="none" xmlns="http://www.w3.org/2000/svg">
<path d="M10.972 9.15335L13.1256 6.94137L10.1434 6.48309L9.58624 6.40416L9.32997 5.86695L7.98938 3.03834V11.5237L8.4864 11.7925L11.1676 13.2779L10.6555 10.1493L10.5652 9.56476L10.972 9.15335ZM14.7676 6.84665L11.7253 9.95941L12.4485 14.3681C12.4685 14.5684 12.4485 14.7211 12.3883 14.8264C12.3281 14.9316 12.2326 14.9895 12.1019 15C12.0116 15 11.9011 14.9632 11.7704 14.8895L7.98985 12.8038L4.22434 14.8895C4.09394 14.9632 3.97842 15 3.87779 15C3.75742 15 3.66196 14.9421 3.59143 14.8264C3.5209 14.7106 3.50585 14.5578 3.54629 14.3681L4.26948 9.95941L1.21213 6.84665C1.03125 6.65689 0.966046 6.48309 1.01652 6.32523C1.06699 6.16737 1.21761 6.06197 1.4684 6.00902L5.68578 5.3771L7.58358 1.36357C7.69392 1.12119 7.8295 1 7.99032 1C8.15113 1 8.29173 1.12119 8.4121 1.36357L10.2949 5.3771L14.5122 6.00902C14.7633 6.05112 14.919 6.15652 14.9792 6.32523C15.0394 6.49394 14.9691 6.66775 14.7685 6.84665H14.7676Z" fill="black"/>
</svg>
