<svg width="16" height="16" viewBox="0 0 16 16" fill="none" xmlns="http://www.w3.org/2000/svg">
<path d="M12.9673 13.0177C10.3222 15.8209 5.69009 15.5551 3.10094 12.8261C0.441886 10.0229 0.302074 5.53809 2.70903 2.57231C2.86282 2.38071 3.00307 2.18864 3.19881 2.07073C3.70257 1.73127 4.38853 1.80496 4.83636 2.26233C5.25624 2.71971 5.32614 3.38342 5.06006 3.91449C4.99016 4.04714 4.93423 4.13557 4.83636 4.23921C2.87724 6.46711 2.8069 9.83083 4.72451 11.8519C6.86583 14.1093 10.4206 13.6372 12.3098 11.3503C13.7931 9.55033 14.2969 6.96869 13.3872 4.69658C12.2254 1.77549 9.11855 0.403373 6.24978 1.42129V1.40655C9.55241 0.196566 13.1351 1.76075 14.4786 5.12447C15.4722 7.58819 14.9964 10.3619 13.4711 12.3977C13.3173 12.6188 13.1491 12.8256 12.9673 13.0172V13.0177Z" fill="black"/>
</svg>
