<svg width="16" height="17" viewBox="0 0 16 17" fill="none" xmlns="http://www.w3.org/2000/svg">
<path fill-rule="evenodd" clip-rule="evenodd" d="M10.0487 1.25881C11.1687 1.25881 12.085 2.17515 12.0596 3.29509C12.0596 3.80415 11.8814 4.28775 11.5505 4.64411C11.3469 6.27314 11.2705 8.10576 11.3214 9.91295H4.67808C4.72897 8.10576 4.65262 6.27314 4.44899 4.64411C4.14355 4.28778 3.93993 3.80415 3.93993 3.29509C3.93993 2.17512 4.85624 1.25881 5.97618 1.25881C6.85303 0.990871 7.86968 1.00264 8.00029 1.00415L8.01246 1.00426L8.01859 1.00419C8.11021 1.00289 9.13887 0.988319 10.0487 1.25881ZM8.95423 1.56428C8.44517 1.51336 8.01246 1.51336 8.01246 1.51336C8.01246 1.51336 7.57975 1.4879 7.04514 1.53879C7.47785 1.81879 7.80874 2.22604 7.93602 2.73511V2.78603C7.94132 2.80192 7.94662 2.81671 7.95168 2.83085L7.9517 2.83091L7.95171 2.83094L7.95172 2.83095C7.97099 2.88473 7.98694 2.92923 7.98694 2.98965V3.04057C7.99544 3.06612 8.00092 3.09458 8.0047 3.1239C8.009 3.09611 8.0124 3.06834 8.0124 3.04057C8.03786 2.98968 8.03786 2.96422 8.03786 2.93876C8.03786 2.92821 8.04223 2.9133 8.04734 2.89584C8.05458 2.87113 8.06332 2.84131 8.06332 2.81149C8.06332 2.79876 8.06968 2.77967 8.07605 2.76058C8.08241 2.74149 8.08878 2.7224 8.08878 2.70967C8.08878 2.69696 8.09514 2.68424 8.1015 2.67152C8.10787 2.65879 8.11424 2.64606 8.11424 2.63332C8.26697 2.22607 8.54695 1.86974 8.90331 1.6152C8.90331 1.58974 8.92877 1.56428 8.95423 1.56428ZM8.267 4.31321C8.12724 4.07363 8.03474 3.80262 8.00124 3.51267C7.97033 3.81225 7.87633 4.09206 7.73248 4.33867C7.80883 4.31321 7.91064 4.31321 8.01246 4.31321H8.267ZM4.91041 4.3625C4.93565 4.38187 4.96576 4.40498 4.98351 4.44049C5.03435 4.49132 5.11053 4.54213 5.18675 4.59296L5.18675 4.59296L5.18714 4.59322C5.26349 4.64414 5.33987 4.69503 5.41622 4.72049H5.44166C5.54347 4.74592 5.61985 4.77138 5.6962 4.79684H5.72166C5.79804 4.8223 5.89986 4.8223 5.97621 4.8223C6.8162 4.8223 7.50342 4.13508 7.50342 3.29509C7.50342 2.4551 6.81617 1.79333 6.00167 1.76787H5.97621C5.13622 1.76787 4.44899 2.45513 4.44899 3.29509C4.44899 3.70234 4.60173 4.0587 4.8817 4.33867C4.88941 4.34638 4.89945 4.35408 4.9104 4.36249L4.91041 4.3625L4.91041 4.3625L4.91041 4.3625L4.91041 4.3625ZM5.33987 5.22955C5.51804 5.61134 5.74712 5.99313 5.97621 6.34949C5.97621 5.9677 6.07802 5.61134 6.25618 5.30591C6.17983 5.33137 6.07802 5.33137 5.97621 5.33137C5.8744 5.33137 5.77258 5.33137 5.67077 5.30591H5.61985C5.56884 5.29316 5.52423 5.28042 5.4796 5.26767L5.47958 5.26766C5.43513 5.25496 5.39067 5.24226 5.33987 5.22955ZM8.267 7.85124C8.52155 7.80032 8.77606 7.67305 9.00515 7.49489C9.33605 7.21491 9.53967 6.80766 9.53967 6.34949C9.53967 5.50953 8.85244 4.82227 8.01246 4.82227C7.17247 4.82227 6.48524 5.50953 6.48524 6.34949C6.48524 6.80763 6.68887 7.21491 7.01976 7.49489C7.24885 7.67308 7.50337 7.80032 7.75791 7.85124C7.83429 7.87671 7.9361 7.87671 8.01246 7.87671C8.08884 7.87671 8.19065 7.87671 8.267 7.85124ZM9.76876 5.30591C9.94692 5.61134 10.0487 5.9677 10.0487 6.34949C10.2778 5.99313 10.5069 5.58588 10.6851 5.22955C10.6087 5.25498 10.5069 5.28044 10.4051 5.30589L10.4051 5.30591H10.3542C10.2524 5.33137 10.1505 5.33137 10.0487 5.33137C9.94692 5.33137 9.84511 5.33137 9.76876 5.30591ZM11.0669 4.44049C11.0923 4.38959 11.1177 4.36413 11.1687 4.33867C11.4232 4.0587 11.5759 3.70234 11.5759 3.29506C11.5759 2.45507 10.8887 1.76784 10.0487 1.76784H9.99778C9.89597 1.76784 9.79416 1.7933 9.69235 1.81876H9.66689C9.65415 1.81876 9.63505 1.82513 9.61595 1.8315C9.59687 1.83786 9.57779 1.84422 9.56507 1.84422C9.55236 1.84422 9.53964 1.85059 9.52692 1.85695C9.51419 1.86332 9.50146 1.86968 9.48872 1.86968C9.46326 1.89515 9.46326 1.89515 9.4378 1.89515C8.90328 2.12423 8.52149 2.65875 8.52149 3.29509C8.52149 4.13508 9.20875 4.8223 10.0487 4.8223C10.1251 4.8223 10.2269 4.8223 10.3033 4.77138H10.3287C10.4305 4.74595 10.5069 4.72049 10.5833 4.69503H10.6087L10.609 4.69492C10.6853 4.66949 10.7615 4.64406 10.8378 4.59322H10.8632C10.9014 4.56776 10.9332 4.5423 10.965 4.51685C10.9969 4.4914 11.0287 4.46595 11.0669 4.44049ZM6.99473 3.29498C6.99473 3.85727 6.5389 4.3131 5.97661 4.3131C5.41431 4.3131 4.95848 3.85727 4.95848 3.29498C4.95848 2.73268 5.41431 2.27685 5.97661 2.27685C6.5389 2.27685 6.99473 2.73268 6.99473 3.29498ZM10.0491 4.3131C10.6114 4.3131 11.0672 3.85727 11.0672 3.29498C11.0672 2.73268 10.6114 2.27685 10.0491 2.27685C9.48682 2.27685 9.03099 2.73268 9.03099 3.29498C9.03099 3.85727 9.48682 4.3131 10.0491 4.3131ZM9.03013 6.34893C9.03013 6.91123 8.5743 7.36706 8.01201 7.36706C7.44971 7.36706 6.99389 6.91123 6.99389 6.34893C6.99389 5.78664 7.44971 5.33081 8.01201 5.33081C8.5743 5.33081 9.03013 5.78664 9.03013 6.34893ZM11.3721 10.4219H4.67786C4.66513 10.5873 4.65877 10.7591 4.6524 10.9309C4.64604 11.1027 4.63967 11.2746 4.62694 11.44H11.423C11.3975 11.1091 11.3721 10.7528 11.3721 10.4219ZM4.57648 11.9497H11.4489C11.4998 12.3315 11.5252 12.6879 11.5507 13.0697V13.0951C11.5507 14.1387 10.7107 15.0041 9.6417 15.0041H6.35821C5.31463 15.0041 4.44921 14.1387 4.44921 13.0697V13.0442C4.50013 12.6879 4.55102 12.3315 4.57648 11.9497Z" fill="black"/>
</svg>
