<svg width="16" height="16" viewBox="0 0 16 16" fill="none" xmlns="http://www.w3.org/2000/svg">
<path d="M14.9995 6.41994C14.9995 6.54623 14.9243 6.68847 14.7737 6.84665L11.7298 9.95941L12.4534 14.3681C12.4534 14.4102 12.4534 14.4733 12.4534 14.5575C12.4534 14.6733 12.4233 14.7734 12.3631 14.8579C12.3028 14.9424 12.2174 14.9898 12.1067 15C12.0063 15 11.8957 14.9632 11.775 14.8895L7.99247 12.8038L4.22502 14.8895C4.10458 14.9632 3.989 15 3.87828 15C3.76757 15 3.6821 14.9526 3.62188 14.8579C3.56166 14.7632 3.53155 14.6631 3.53155 14.5575C3.53155 14.5154 3.53657 14.4523 3.54661 14.3681L4.26971 9.95941L1.21077 6.84665C1.07026 6.6888 1 6.54656 1 6.41994C1 6.19861 1.15572 6.06164 1.46717 6.00902L5.68674 5.3771L7.58552 1.36357C7.69592 1.12119 7.83157 1 7.99247 1C8.15337 1 8.29404 1.12119 8.41448 1.36357L10.2982 5.3771L14.5178 6.00902C14.8393 6.06164 14.9995 6.19861 14.9995 6.41994Z" fill="black"/>
</svg>
