<svg width="16" height="16" viewBox="0 0 16 16" fill="none" xmlns="http://www.w3.org/2000/svg">
<path d="M10.6904 6.92334C10.6904 5.8887 10.3238 5.00477 9.59052 4.27152C8.85727 3.53828 7.96816 3.16664 6.92318 3.1566C5.87819 3.14656 4.98908 3.5182 4.25584 4.27152C3.52259 5.02484 3.15597 5.90878 3.15597 6.92334C3.15597 7.9379 3.52259 8.82701 4.25584 9.59068C4.98908 10.3543 5.87819 10.721 6.92318 10.6905C7.96816 10.6601 8.85727 10.2935 9.59052 9.59068C10.3238 8.88786 10.6904 7.99874 10.6904 6.92334ZM15 13.9304C15 14.2218 14.8894 14.473 14.6683 14.684C14.4472 14.8951 14.196 15.0006 13.9147 15.0006C13.6133 15.0006 13.3621 14.8951 13.1611 14.684L10.283 11.8059C9.27847 12.499 8.15837 12.8456 6.92271 12.8456C6.1189 12.8456 5.35037 12.6899 4.61713 12.3785C3.88388 12.067 3.25601 11.6451 2.73352 11.1125C2.21103 10.58 1.78905 9.95213 1.46759 9.22892C1.14613 8.50571 0.99042 7.73718 1.00046 6.92334C1.01049 6.10949 1.1662 5.34598 1.46759 4.63281C1.76898 3.91964 2.19096 3.28675 2.73352 2.73415C3.27609 2.18155 3.90395 1.75958 4.61713 1.46822C5.3303 1.17687 6.09883 1.02116 6.92271 1.00109C7.74659 0.981015 8.51511 1.13673 9.22829 1.46822C9.94146 1.79972 10.5693 2.2217 11.1119 2.73415C11.6545 3.24661 12.0764 3.87949 12.3778 4.63281C12.6792 5.38613 12.8349 6.14964 12.845 6.92334C12.845 8.159 12.4984 9.2791 11.8053 10.2836L14.6834 13.1617C14.8945 13.3728 15 13.629 15 13.9304Z" fill="black"/>
</svg>
