<svg width="16" height="16" viewBox="0 0 16 16" fill="none" xmlns="http://www.w3.org/2000/svg">
<path d="M14.5844 2.02352C14.7261 1.9804 14.8375 1.99657 14.9188 2.07204C15.0001 2.14752 15.0203 2.25012 14.9795 2.37984C14.9593 2.44453 14.5947 4.11745 13.8856 7.39858C13.1765 10.6797 12.8017 12.385 12.7613 12.5144C12.741 12.6653 12.6702 12.7679 12.5487 12.8222C12.4273 12.8764 12.3057 12.871 12.1839 12.806L7.95941 10.3775L8.29386 9.95647C12.2244 5.4236 14.22 3.12482 14.2808 3.06012C14.3212 3.017 14.3162 2.96848 14.2656 2.91457C14.215 2.86065 14.1694 2.85526 14.129 2.89839L5.77149 9.40658L4.06935 8.69445L1.18217 7.46428C1.06072 7.42115 1 7.35646 1 7.2702C1 7.18395 1.06072 7.11925 1.18217 7.07613C1.26313 7.033 3.49691 6.18576 7.88351 4.53441C12.2701 2.88306 14.5039 2.04661 14.5848 2.02504L14.5844 2.02352ZM5.74066 13.8092V10.5069L8.17194 11.8346C6.85502 13.0867 6.13583 13.7774 6.01438 13.9068C5.8319 14.0577 5.74066 14.0254 5.74066 13.8097V13.8092Z" fill="black"/>
</svg>
