<svg width="16" height="17" viewBox="0 0 16 17" fill="none" xmlns="http://www.w3.org/2000/svg">
<path fill-rule="evenodd" clip-rule="evenodd" d="M6.37573 3.00378C6.50829 3.00361 6.63536 2.95088 6.72909 2.85715C6.82283 2.76342 6.87556 2.63634 6.87573 2.50378V1.50378C6.87573 1.37118 6.82305 1.244 6.72929 1.15023C6.63552 1.05646 6.50834 1.00378 6.37573 1.00378C6.24312 1.00378 6.11595 1.05646 6.02218 1.15023C5.92841 1.244 5.87573 1.37118 5.87573 1.50378V2.50378C5.8759 2.63634 5.92863 2.76342 6.02236 2.85715C6.11609 2.95089 6.24318 3.00362 6.37573 3.00378ZM5.37476 1.50281H4.62476V2.50281H5.37476V1.50281ZM6.62524 11.0035C6.62524 11.1416 6.51332 11.2535 6.37524 11.2535C6.23717 11.2535 6.12524 11.1416 6.12524 11.0035C6.12524 10.8655 6.23717 10.7535 6.37524 10.7535C6.51332 10.7535 6.62524 10.8655 6.62524 11.0035ZM6.62524 9.00403C6.62524 9.1421 6.51332 9.25403 6.37524 9.25403C6.23717 9.25403 6.12524 9.1421 6.12524 9.00403C6.12524 8.86596 6.23717 8.75403 6.37524 8.75403C6.51332 8.75403 6.62524 8.86596 6.62524 9.00403ZM6.65233 6.11545C6.63505 6.08075 6.62607 6.0425 6.62608 6.00373V3.46814C6.46277 3.51547 6.28939 3.51547 6.12608 3.46814V6.00373C6.12609 6.04255 6.11706 6.08083 6.09971 6.11555L5.53052 7.25373H7.22142L6.65233 6.11545ZM7.37329 13.5043H5.37329V7.75427H7.37329V13.5043ZM6.78997 8.38067C6.66663 8.29826 6.52163 8.25427 6.37329 8.25427C6.17445 8.25449 5.9838 8.33357 5.8432 8.47418C5.70259 8.61479 5.62351 8.80543 5.62329 9.00427C5.62329 9.15261 5.66728 9.29761 5.74969 9.42095C5.8321 9.54429 5.94923 9.64042 6.08628 9.69718C6.22332 9.75395 6.37412 9.7688 6.51961 9.73986C6.6651 9.71092 6.79873 9.63949 6.90362 9.5346C7.00851 9.42971 7.07994 9.29608 7.10888 9.15059C7.13782 9.0051 7.12297 8.8543 7.0662 8.71726C7.00944 8.58022 6.91331 8.46308 6.78997 8.38067ZM6.78997 10.3807C6.66663 10.2983 6.52163 10.2543 6.37329 10.2543C6.17445 10.2545 5.98381 10.3336 5.84321 10.4742C5.7026 10.6148 5.62351 10.8054 5.62329 11.0043C5.62329 11.1526 5.66728 11.2976 5.74969 11.4209C5.8321 11.5443 5.94923 11.6404 6.08628 11.6972C6.22332 11.7539 6.37412 11.7688 6.51961 11.7399C6.6651 11.7109 6.79873 11.6395 6.90362 11.5346C7.00851 11.4297 7.07994 11.2961 7.10888 11.1506C7.13782 11.0051 7.12297 10.8543 7.0662 10.7173C7.00944 10.5802 6.91331 10.4631 6.78997 10.3807ZM11.0426 10.2341C10.6895 9.92699 10.1222 9.94018 9.78187 10.261C9.55823 10.4735 9.26145 10.5918 8.95297 10.5916C8.64448 10.5913 8.34791 10.4724 8.12465 10.2595C8.05129 10.1902 7.96703 10.1333 7.87524 10.0912V13.612C8.06358 13.73 8.22514 13.8862 8.34956 14.0704L8.42481 13.4707C8.44108 13.3418 8.50383 13.2233 8.60128 13.1374C8.69873 13.0515 8.82419 13.004 8.9541 13.004C9.08402 13.004 9.20948 13.0515 9.30693 13.1374C9.40438 13.2233 9.46712 13.3418 9.4834 13.4707L9.64087 14.728C9.65052 14.8042 9.68763 14.8743 9.74525 14.9251C9.80288 14.9759 9.87705 15.004 9.95387 15.004C10.0307 15.004 10.1049 14.976 10.1625 14.9253C10.2202 14.8745 10.2574 14.8045 10.2671 14.7283L10.2844 14.5842C10.4006 13.6529 10.6951 12.7527 11.1518 11.9329C11.2982 11.6677 11.3751 11.3697 11.3752 11.0667C11.3752 10.9797 11.3687 10.8928 11.3557 10.8067C11.3241 10.5843 11.2128 10.3808 11.0426 10.2341ZM9.56587 11.4187C9.37578 11.5133 9.16637 11.5625 8.95406 11.5625C8.74175 11.5625 8.53233 11.5133 8.34224 11.4187C8.28293 11.3891 8.23783 11.3371 8.21686 11.2741C8.19588 11.2112 8.20076 11.1426 8.23042 11.0833C8.26007 11.0239 8.31207 10.9788 8.37498 10.9579C8.43789 10.9369 8.50656 10.9418 8.56587 10.9714C8.68648 11.0314 8.81936 11.0626 8.95406 11.0626C9.08876 11.0626 9.22163 11.0314 9.34224 10.9714C9.37161 10.9567 9.40359 10.948 9.43634 10.9457C9.46909 10.9433 9.50198 10.9475 9.53313 10.9579C9.56428 10.9683 9.59308 10.9847 9.61789 11.0062C9.64269 11.0277 9.66301 11.0539 9.6777 11.0833C9.69238 11.1126 9.70114 11.1446 9.70346 11.1774C9.70579 11.2101 9.70164 11.243 9.69126 11.2741C9.68087 11.3053 9.66446 11.3341 9.64294 11.3589C9.62143 11.3837 9.59524 11.404 9.56587 11.4187ZM5.20032 14.004H7.56263C7.73375 14.0999 7.8761 14.2398 7.97494 14.4093C8.07378 14.5787 8.12551 14.7715 8.12476 14.9677V15.004H4.62476V14.98C4.62459 14.7978 4.6695 14.6184 4.75548 14.4577C4.84147 14.2971 4.96586 14.1602 5.11757 14.0592L5.20032 14.004Z" fill="black"/>
</svg>
