<svg width="16" height="16" viewBox="0 0 16 16" fill="none" xmlns="http://www.w3.org/2000/svg">
<path d="M5.95832 4.99225H13.9792C14.2627 4.99225 14.5038 4.89401 14.7023 4.69754C14.9008 4.50107 15 4.26106 15 3.97749C15 3.69392 14.9018 3.45289 14.7053 3.2544C14.5088 3.05591 14.2668 2.95666 13.9792 2.95666H5.95832C5.67476 2.95666 5.43373 3.05489 5.23523 3.25136C5.03674 3.44783 4.93749 3.68987 4.93749 3.97749C4.93749 4.257 5.03573 4.49601 5.2322 4.69451C5.42867 4.893 5.67071 4.99225 5.95832 4.99225ZM2.3125 13.3412C2.67303 13.3412 2.98293 13.2116 3.24219 12.9523C3.50145 12.6931 3.63108 12.3852 3.63108 12.0287C3.63108 11.6682 3.50145 11.3583 3.24219 11.099C2.98293 10.8398 2.67303 10.7101 2.3125 10.7101C1.95602 10.7101 1.64815 10.8398 1.38889 11.099C1.12963 11.3583 0.999999 11.6682 0.999999 12.0287C0.999999 12.3852 1.12963 12.6931 1.38889 12.9523C1.64815 13.2116 1.95602 13.3412 2.3125 13.3412ZM2.3125 9.31862C2.67303 9.31862 2.98293 9.18899 3.24219 8.92973C3.50145 8.67047 3.63108 8.36057 3.63108 8.00004C3.63108 7.63951 3.50145 7.33062 3.24219 7.07339C2.98293 6.81615 2.67303 6.68754 2.3125 6.68754C1.95602 6.68754 1.64815 6.81615 1.38889 7.07339C1.12963 7.33062 0.999999 7.63951 0.999999 8.00004C0.999999 8.36057 1.12963 8.67047 1.38889 8.92973C1.64815 9.18899 1.95602 9.31862 2.3125 9.31862ZM5.95832 13.0434H13.9792C14.2627 13.0434 14.5038 12.9452 14.7023 12.7487C14.9008 12.5523 15 12.3122 15 12.0287C15 11.7451 14.9018 11.5041 14.7053 11.3056C14.5088 11.1071 14.2668 11.0078 13.9792 11.0078H5.95832C5.67476 11.0078 5.43373 11.1061 5.23523 11.3026C5.03674 11.499 4.93749 11.7411 4.93749 12.0287C4.93749 12.3082 5.03573 12.5472 5.2322 12.7457C5.42867 12.9442 5.67071 13.0434 5.95832 13.0434ZM2.3125 5.28995C2.67303 5.28995 2.98293 5.16134 3.24219 4.9041C3.50145 4.64687 3.63108 4.33798 3.63108 3.97745C3.63108 3.61692 3.50145 3.30702 3.24219 3.04776C2.98293 2.7885 2.67303 2.65887 2.3125 2.65887C1.95602 2.65887 1.64815 2.7885 1.38889 3.04776C1.12963 3.30702 0.999999 3.61692 0.999999 3.97745C0.999999 4.33798 1.12963 4.64687 1.38889 4.9041C1.64815 5.16134 1.95602 5.28995 2.3125 5.28995ZM5.95832 9.02085H13.9792C14.2627 9.02085 14.5038 8.92262 14.7023 8.72615C14.9008 8.52968 15 8.28764 15 8.00002C15 7.72051 14.9018 7.48049 14.7053 7.27997C14.5088 7.07945 14.2668 6.97919 13.9792 6.97919H5.95832C5.67476 6.97919 5.43373 7.07843 5.23523 7.27693C5.03674 7.47542 4.93749 7.71645 4.93749 8.00002C4.93749 8.28359 5.03573 8.52462 5.2322 8.72311C5.42867 8.9216 5.67071 9.02085 5.95832 9.02085Z" fill="black"/>
</svg>
