<svg width="16" height="16" viewBox="0 0 16 16" fill="none" xmlns="http://www.w3.org/2000/svg">
<path d="M2.77141 10.5068C2.89219 10.6467 3.04364 10.759 3.20972 10.8429C3.49705 11.9205 4.04105 12.9147 4.84171 13.7401C5.65794 14.5381 6.80632 15 8.00047 15C9.19462 15 10.343 14.5381 11.1592 13.7401C11.9604 12.9142 12.5044 11.9205 12.7912 10.8429C12.9573 10.759 13.1088 10.6471 13.2295 10.5068C13.4867 10.2127 13.6829 9.8771 13.8037 9.51309C13.9245 9.14907 14 8.78505 14 8.40749C14 8.32359 14 8.23968 13.9849 8.15534C13.9698 7.86125 13.8339 7.58157 13.6372 7.35739C13.5164 7.23154 13.3649 7.13365 13.1838 7.06329C13.2291 6.93744 13.2593 6.79716 13.2895 6.64334C13.5919 5.10381 13.1838 2.23406 9.69285 1.25432C7.86412 0.652575 5.82402 1.14245 4.52418 2.47222C4.52418 2.47222 2.07596 3.15831 2.75584 7.09126C2.60486 7.16118 2.4836 7.24508 2.36282 7.35739C2.16655 7.58113 2.04529 7.86125 2.0151 8.15534C2 8.23925 2 8.32315 2 8.40749C2.0151 8.91135 2.13588 9.4152 2.34772 9.8771C2.45341 10.1008 2.58929 10.311 2.77094 10.5068H2.77141ZM5.06818 4.68386C5.06818 4.68386 5.77825 3.45197 6.9422 4.30585C8.09059 5.14576 9.37532 6.64334 12.126 6.64334L12.277 7.9032H12.0656C12.0656 7.9032 12.0354 7.49723 11.3555 7.44129H9.08846C8.81623 7.44129 8.57466 7.59512 8.46898 7.84726H7.53197C7.42628 7.59512 7.18424 7.44129 6.91248 7.44129H4.64544C3.96556 7.49723 3.93536 7.9032 3.93536 7.9032H3.67823C3.79901 6.55944 4.14673 4.68386 5.06865 4.68386H5.06818ZM2.87709 7.79133C2.89219 7.76336 2.92239 7.74938 2.95258 7.72141C3.19415 8.39351 3.45129 9.10712 3.60226 9.23297C3.60226 9.23297 3.60226 8.86896 3.64756 8.35112C3.64756 8.35112 3.67775 8.35112 3.69285 8.35112H3.91932C3.91932 8.40705 3.93442 8.39307 3.94952 8.44901C3.99481 8.75709 4.0703 9.05075 4.0703 9.05075L4.0854 9.07872C4.16089 9.28847 4.29677 9.48468 4.46332 9.63851C4.67469 9.79233 4.91673 9.87667 5.18896 9.87667H6.24676C6.44303 9.86268 6.63977 9.82073 6.80585 9.73683C7.01722 9.65293 7.18377 9.49867 7.28946 9.30289C7.33475 9.20501 7.38004 9.10712 7.41024 8.99481C7.48573 8.7147 7.54612 8.47697 7.57632 8.32271H8.42274C8.45294 8.47654 8.51333 8.7147 8.60392 8.99481C8.61901 9.10668 8.66431 9.20457 8.7096 9.30289C8.81529 9.49867 8.98184 9.65293 9.19321 9.73683C9.35928 9.82073 9.55603 9.86268 9.7523 9.87667H10.8101C11.0823 9.87667 11.339 9.79277 11.5357 9.63851C11.7018 9.48468 11.8382 9.28847 11.9137 9.07872L11.9288 9.05075C11.9288 9.05075 12.0042 8.75665 12.0646 8.44901C12.0646 8.39307 12.0797 8.40705 12.0797 8.35112H12.3213L12.4119 8.99481C12.6535 8.57486 12.8502 8.14092 13.0012 7.693C13.0465 7.72097 13.0918 7.76292 13.122 7.79089C13.2276 7.91675 13.3031 8.071 13.3031 8.22483C13.3182 8.29475 13.3182 8.35068 13.3182 8.40662C13.3031 8.82657 13.2126 9.23254 13.0309 9.61054C12.9554 9.77834 12.8497 9.9326 12.7134 10.0864C12.6379 10.1843 12.5322 10.2542 12.4109 10.2962L12.2147 10.3381L12.1694 10.5199C11.9278 11.5416 11.4135 12.4934 10.6733 13.2774C9.9783 13.9634 9.01109 14.355 7.99811 14.355C6.98514 14.355 6.0184 13.963 5.32295 13.2774C4.58221 12.4934 4.06841 11.5416 3.82685 10.5199L3.78155 10.3381L3.58528 10.2962C3.4645 10.2542 3.35881 10.1843 3.28285 10.0864C3.08658 9.84826 2.93513 9.59655 2.84454 9.30246C2.73885 9.02234 2.69356 8.7147 2.67846 8.40662C2.67846 8.35068 2.67846 8.29475 2.69356 8.22483C2.69356 8.071 2.76905 7.91675 2.87473 7.79089L2.87709 7.79133Z" fill="black"/>
</svg>
