<svg width="16" height="16" viewBox="0 0 16 16" fill="none" xmlns="http://www.w3.org/2000/svg">
<path d="M4.30229 4.53825C4.30229 4.25455 4.20979 4.01336 4.0248 3.81468C3.8398 3.616 3.61962 3.52138 3.36426 3.53083C3.10889 3.54028 2.88431 3.63489 2.69052 3.81468C2.49673 3.99446 2.40423 4.23565 2.41303 4.53825C2.42183 4.84084 2.51432 5.07731 2.69052 5.24765C2.86672 5.41799 3.0913 5.51733 3.36426 5.54567C3.63722 5.57401 3.8574 5.47467 4.0248 5.24765C4.1922 5.02063 4.2847 4.78416 4.30229 4.53825ZM12.1603 9.09177C12.1603 9.37548 12.0722 9.61666 11.896 9.81534L8.27708 13.702C8.08329 13.9007 7.85871 14 7.60335 14C7.33918 14 7.119 13.9007 6.94281 13.702L1.67332 8.04273C1.48833 7.84405 1.32986 7.57452 1.19791 7.23414C1.06597 6.89376 1 6.58644 1 6.31219V3.02159C1 2.74733 1.0925 2.51087 1.27749 2.31219C1.46249 2.11351 1.68267 2.00945 1.93803 2H5.0152C5.27056 2 5.55671 2.07085 5.87365 2.21255C6.19059 2.35426 6.44156 2.52445 6.62655 2.72313L11.896 8.38238C12.0722 8.58105 12.1603 8.81752 12.1603 9.09177ZM15 9.09177C15 9.37548 14.9075 9.61666 14.7225 9.81534L11.1036 13.702C10.9098 13.9007 10.6852 14 10.4298 14C10.2536 14 10.1083 13.9622 9.99399 13.8866C9.87964 13.8111 9.75196 13.6928 9.61094 13.5319L13.0712 9.81579C13.2562 9.61711 13.3486 9.37592 13.3486 9.09222C13.3486 8.81796 13.2562 8.5815 13.0712 8.38282L7.80167 2.72357C7.61668 2.52489 7.36571 2.3547 7.04877 2.213C6.73183 2.07129 6.44568 2.00044 6.19032 2.00044H7.84126C8.09662 2.00044 8.38277 2.07129 8.69971 2.213C9.01665 2.3547 9.26762 2.52489 9.45261 2.72357L14.7221 8.38282C14.9071 8.5815 14.9996 8.81796 14.9996 9.09222L15 9.09177Z" fill="black"/>
</svg>
