<svg width="16" height="16" viewBox="0 0 16 16" fill="none" xmlns="http://www.w3.org/2000/svg">
<path d="M15 12.369V13.25H1V2.75H1.86955V12.369H15ZM14.1182 3.85146V6.81315C14.1182 6.91095 14.0815 6.98431 13.9958 7.02137C13.898 7.05804 13.8245 7.04582 13.7507 6.97246L12.9179 6.14035L8.59423 10.4602C8.54529 10.5091 8.49634 10.5336 8.43516 10.5336C8.37398 10.5336 8.32503 10.5091 8.27608 10.4602L6.68382 8.86936L3.84229 11.7206L2.53185 10.3991L6.53698 6.4097C6.57369 6.3608 6.62264 6.33634 6.68382 6.33634C6.745 6.33634 6.79395 6.3608 6.84289 6.4097L8.43516 8.00057L11.6075 4.83105L10.7868 3.99894C10.7134 3.93781 10.689 3.85223 10.7257 3.76626C10.7746 3.66846 10.8358 3.63178 10.9341 3.63178H13.9106C13.9718 3.63178 14.0207 3.64401 14.0574 3.69291C14.1064 3.72959 14.1186 3.77849 14.1186 3.85184L14.1182 3.85146Z" fill="black"/>
</svg>
