<svg width="16" height="16" viewBox="0 0 16 16" fill="none" xmlns="http://www.w3.org/2000/svg">
<path d="M6 12.3728V5.95994C6 5.87299 5.97458 5.80235 5.92374 5.74801C5.8729 5.69367 5.80681 5.6665 5.72546 5.6665H5.27454C5.19319 5.6665 5.1271 5.69367 5.07626 5.74801C5.02542 5.80235 5 5.87299 5 5.95994V12.3728C5 12.4597 5.02542 12.5304 5.07626 12.5847C5.1271 12.6391 5.19319 12.6662 5.27454 12.6662H5.72546C5.80681 12.6662 5.8729 12.6391 5.92374 12.5847C5.97458 12.5304 6 12.4597 6 12.3728ZM8.5 12.3728V5.95994C8.5 5.87299 8.47458 5.80235 8.42374 5.74801C8.3729 5.69367 8.30681 5.6665 8.22546 5.6665H7.77454C7.69319 5.6665 7.6271 5.69367 7.57626 5.74801C7.52542 5.80235 7.5 5.87299 7.5 5.95994V12.3728C7.5 12.4597 7.52542 12.5304 7.57626 12.5847C7.6271 12.6391 7.69319 12.6662 7.77454 12.6662H8.22546C8.30681 12.6662 8.3729 12.6391 8.42374 12.5847C8.47458 12.5304 8.5 12.4597 8.5 12.3728ZM11 12.3728V5.95994C11 5.87299 10.9746 5.80235 10.9237 5.74801C10.8729 5.69367 10.8119 5.6665 10.7407 5.6665L10.2745 5.6665C10.1932 5.6665 10.1271 5.69367 10.0763 5.74801C10.0254 5.80235 10 5.87299 10 5.95994V12.3728C10 12.4597 10.0254 12.5304 10.0763 12.5847C10.1271 12.6391 10.1932 12.6662 10.2745 12.6662H10.7407C10.8119 12.6662 10.8729 12.6391 10.9237 12.5847C10.9746 12.5304 11 12.4597 11 12.3728ZM6.09135 3.33223H9.90817L9.49589 2.27157C9.45522 2.21723 9.40946 2.18462 9.35862 2.17376H6.65615C6.59515 2.18462 6.54431 2.21723 6.50363 2.27157L6.09135 3.33223ZM14 3.62618V4.21357C14 4.30051 13.9746 4.37115 13.9237 4.42549C13.8729 4.47983 13.8068 4.507 13.7255 4.507H12.9009V13.1395C12.9009 13.6398 12.7686 14.075 12.5039 14.4452C12.2392 14.8154 11.9186 15.0003 11.542 15H4.45796C4.08142 15 3.76081 14.8205 3.49613 14.4615C3.23144 14.1025 3.09401 13.6729 3.08385 13.1726V4.50751H2.27454C2.19319 4.50751 2.1271 4.48034 2.07626 4.426C2.02542 4.37166 2 4.30102 2 4.21408V3.62669C2 3.53974 2.02542 3.4691 2.07626 3.41476C2.1271 3.36042 2.19319 3.33325 2.27454 3.33325H4.90027L5.49557 1.81562C5.58708 1.58705 5.74485 1.39669 5.96886 1.24453C6.19287 1.09238 6.41673 1.01087 6.64043 1H9.35814C9.59233 1 9.81618 1.08151 10.0297 1.24453C10.2432 1.40755 10.3959 1.59792 10.4877 1.81562L11.0831 3.33325H13.724C13.8054 3.33325 13.8715 3.36042 13.9223 3.41476C13.9732 3.4691 13.9986 3.53974 13.9986 3.62669L14 3.62618Z" fill="black"/>
</svg>
