<svg width="16" height="16" viewBox="0 0 16 16" fill="none" xmlns="http://www.w3.org/2000/svg">
<path d="M6.01001 6.54732V11.7854C6.01001 11.8724 5.98459 11.943 5.93375 11.9973C5.88291 12.0517 5.81682 12.0789 5.81682 12.0789H5.26727C5.18592 12.0789 5.11983 12.0517 5.06899 11.9973C5.01815 11.943 4.99273 11.8724 4.99273 11.7854V6.54732C4.99273 6.46038 5.01815 6.38974 5.06899 6.3354C5.11983 6.28105 5.18592 6.25388 5.26727 6.25388H5.81682C5.81682 6.25388 5.88291 6.28105 5.93375 6.3354C5.98459 6.38974 6.01001 6.46038 6.01001 6.54732ZM8.5 6.54732V11.7854C8.5 11.8724 8.47458 11.943 8.42374 11.9973C8.3729 12.0517 8.30681 12.0789 8.22546 12.0789H7.77454C7.69319 12.0789 7.6271 12.0517 7.57626 11.9973C7.52542 11.943 7.5 11.8724 7.5 11.7854V6.54732C7.5 6.46038 7.52542 6.38974 7.57626 6.3354C7.6271 6.28105 7.69319 6.25388 7.77454 6.25388H8.22546C8.30681 6.25388 8.3729 6.28105 8.42374 6.3354C8.47458 6.38974 8.5 6.46038 8.5 6.54732ZM11.0297 6.54732V11.7854C11.0297 11.8724 11.0043 11.943 10.9534 11.9973C10.9026 12.0517 10.8416 12.0789 10.7704 12.0789H10.3042C10.2229 12.0789 10.1568 12.0517 10.106 11.9973C10.0551 11.943 10.0297 11.8724 10.0297 11.7854V6.54732C10.0297 6.46038 10.0551 6.38974 10.106 6.3354C10.1568 6.28105 10.2229 6.25388 10.3042 6.25388H10.7704C10.8416 6.25388 10.9026 6.28105 10.9534 6.3354C11.0043 6.38974 11.0297 6.46038 11.0297 6.54732ZM12 13.1395V4.507H4V13.1395C4 13.2699 4.02034 13.3896 4.06101 13.4987C4.10168 13.6077 4.14235 13.6892 4.18302 13.7432C4.2237 13.7972 4.2542 13.8244 4.27454 13.8247H11.7245C11.7448 13.8247 11.7753 13.7975 11.816 13.7432C11.8567 13.6889 11.8974 13.6074 11.938 13.4987C11.9787 13.39 12 13.2703 12 13.1395ZM6.09135 3.33223H9.90817L9.49589 2.27157C9.45522 2.21723 9.40946 2.18462 9.35862 2.17376H6.65615C6.59515 2.18462 6.54431 2.21723 6.50363 2.27157L6.09135 3.33223ZM14 3.62618V4.21357C14 4.30051 13.9746 4.37115 13.9237 4.42549C13.8729 4.47983 13.8068 4.507 13.7255 4.507H12.9009V13.1395C12.9009 13.6398 12.7686 14.075 12.5039 14.4452C12.2392 14.8154 11.9186 15.0003 11.542 15H4.45796C4.08142 15 3.76081 14.8205 3.49613 14.4615C3.23144 14.1025 3.09401 13.6729 3.08385 13.1726V4.50751H2.27454C2.19319 4.50751 2.1271 4.48034 2.07626 4.426C2.02542 4.37166 2 4.30102 2 4.21408V3.62669C2 3.53974 2.02542 3.4691 2.07626 3.41476C2.1271 3.36042 2.19319 3.33325 2.27454 3.33325H4.90027L5.49557 1.81562C5.58708 1.58705 5.74485 1.39669 5.96886 1.24453C6.19287 1.09238 6.41673 1.01087 6.64043 1H9.35814C9.59233 1 9.81618 1.08151 10.0297 1.24453C10.2432 1.40755 10.3959 1.59792 10.4877 1.81562L11.0831 3.33325H13.724C13.8054 3.33325 13.8715 3.36042 13.9223 3.41476C13.9732 3.4691 13.9986 3.53974 13.9986 3.62669L14 3.62618Z" fill="black"/>
</svg>
