<svg width="16" height="16" viewBox="0 0 16 16" fill="none" xmlns="http://www.w3.org/2000/svg">
<path d="M11.9618 11.4534C13.9873 12.2 15 12.8326 15 13.3513V15H1V13.3513C1 12.8326 2.01272 12.2 4.03816 11.4534C4.97153 11.1008 5.60699 10.7431 5.94457 10.3801C6.28214 10.0172 6.45093 9.52458 6.45093 8.90232C6.45093 8.67407 6.34166 8.41992 6.12312 8.13986C5.90458 7.85981 5.74571 7.48134 5.64652 7.00444C5.62668 6.88012 5.58204 6.78671 5.5126 6.72423C5.44317 6.66174 5.37373 6.6203 5.30429 6.5999C5.23486 6.57951 5.16542 6.49128 5.09598 6.33523C5.02655 6.17918 4.98191 5.95627 4.96207 5.6665C4.96207 5.50074 4.98687 5.36589 5.03647 5.26197C5.08607 5.15804 5.1307 5.09588 5.17038 5.07548L5.2299 5.01332C5.15054 4.49466 5.09102 4.03832 5.05135 3.6443C5.01167 3.0842 5.21517 2.50354 5.66186 1.90232C6.10855 1.3011 6.88801 1.00032 8.00023 1C9.11246 0.999677 9.89687 1.30045 10.3535 1.90232C10.8101 2.50419 11.0086 3.08485 10.9491 3.6443L10.7706 5.01332C10.9494 5.0962 11.0389 5.31393 11.0389 5.6665C11.019 5.95692 10.9744 6.17982 10.9049 6.33523C10.8355 6.49063 10.7661 6.57886 10.6966 6.5999C10.6272 6.62095 10.5578 6.66239 10.4883 6.72423C10.4189 6.78606 10.3743 6.87947 10.3544 7.00444C10.2751 7.50206 10.1211 7.88571 9.89269 8.1554C9.66423 8.4251 9.55 8.67407 9.55 8.90232C9.55 9.52458 9.72375 10.0172 10.0712 10.3801C10.4187 10.7431 11.0492 11.1008 11.9628 11.4534H11.9618Z" fill="black"/>
</svg>
