<svg width="16" height="16" viewBox="0 0 16 16" fill="none" xmlns="http://www.w3.org/2000/svg">
<path fill-rule="evenodd" clip-rule="evenodd" d="M13.4411 2.44045C12.3658 1.87623 10.8833 1.85245 9.57307 2.37855C8.36069 2.86557 7.48674 3.93871 6.97014 4.74517C6.73763 4.69363 6.48877 4.79414 6.3808 4.99869C6.2775 5.19429 6.33783 5.42124 6.50975 5.55682C6.46264 5.65214 6.43389 5.71618 6.42302 5.74111L3.91386 10.7512C3.66086 10.6452 3.35945 10.7396 3.23464 10.9682C3.1075 11.201 3.21187 11.4834 3.46794 11.5993L3.48504 11.607L2.92057 12.7348H1.51788C1.23201 12.7348 1 12.9457 1 13.2056C1 13.4654 1.23201 13.6764 1.51788 13.6764H4.10731C4.39319 13.6764 4.62519 13.4654 4.62519 13.2056C4.62519 12.9457 4.39319 12.7348 4.10731 12.7348H4.05861L4.41777 12.0175C4.46515 12.03 4.51307 12.0385 4.56096 12.0385C4.75128 12.0385 4.93462 11.9427 5.02525 11.7772C5.14387 11.5602 5.05943 11.302 4.84036 11.1739L7.44044 5.98241C7.51059 6.01183 7.58387 6.02643 7.65664 6.02643C7.84953 6.02643 8.03467 5.92805 8.12378 5.75926C8.24236 5.53494 8.14603 5.26893 7.91141 5.14794C8.35446 4.4693 9.06373 3.61272 9.99202 3.23986C10.99 2.83899 12.1407 2.84512 12.9235 3.25586C13.4992 3.55787 13.8298 4.03829 13.907 4.68419C14.0515 5.89389 13.929 6.70503 13.544 7.09554C13.5085 7.13156 13.4694 7.1624 13.4295 7.19156V8.2454C13.7485 8.14747 14.0548 7.98766 14.3148 7.72428C14.9135 7.11813 15.1167 6.09041 14.9368 4.58274C14.8255 3.64849 14.2941 2.8877 13.4411 2.44045ZM11.9662 10.3809C12.3041 10.3809 12.6237 10.4508 12.9114 10.5727V8.35511V7.39991V6.85004C12.9114 6.82728 12.9116 6.80669 12.9117 6.78809C12.9126 6.7004 12.9131 6.65654 12.8892 6.63481C12.8653 6.61308 12.817 6.61349 12.7206 6.6143C12.7001 6.61447 12.6775 6.61466 12.6524 6.61466H11.6381C11.352 6.61466 8.46611 6.83052 7.70377 10.2561L7.21462 13.0879C7.21462 13.3479 7.4464 13.6763 7.7325 13.6763H10.1901C9.8944 13.3301 9.71652 12.897 9.71652 12.4259C9.71652 11.2982 10.7259 10.3809 11.9662 10.3809ZM12.9114 11.1087C13.0043 11.164 13.0908 11.2271 13.1703 11.297C13.269 11.3839 13.3554 11.4815 13.4299 11.5875C13.5989 11.8304 13.6984 12.1174 13.6984 12.4257C13.6984 12.7517 13.5886 13.0549 13.4011 13.3066C13.3004 13.4417 13.1763 13.561 13.0355 13.6618C12.8858 13.7688 12.7162 13.8538 12.5328 13.9117C12.355 13.968 12.1649 14 11.9663 14C11.7677 14 11.5776 13.968 11.3997 13.9117C11.2249 13.8564 11.0631 13.7766 10.9186 13.6763C10.5037 13.3887 10.2344 12.9358 10.2344 12.426C10.2344 11.5578 11.0113 10.8517 11.9662 10.8517C12.3148 10.8517 12.6392 10.9467 12.9114 11.1087ZM12.8347 12.4257C12.8347 11.9898 12.4458 11.6362 11.9662 11.6362C11.4864 11.6362 11.0977 11.9898 11.0977 12.4257C11.0977 12.8617 11.4866 13.2152 11.9662 13.2152C12.4458 13.2152 12.8347 12.8617 12.8347 12.4257Z" fill="black"/>
</svg>
