<svg width="16" height="16" viewBox="0 0 16 16" fill="none" xmlns="http://www.w3.org/2000/svg">
<path fill-rule="evenodd" clip-rule="evenodd" d="M13.5283 3.48453L14.394 2.40247C14.4145 2.37682 14.4298 2.34738 14.4389 2.31583C14.448 2.28428 14.4509 2.25124 14.4472 2.21859C14.4436 2.18595 14.4336 2.15434 14.4178 2.12556C14.4019 2.09679 14.3806 2.07142 14.3549 2.0509C14.3293 2.03038 14.2998 2.01512 14.2683 2.00598C14.2367 1.99683 14.2037 1.994 14.171 1.99762C14.1384 2.00125 14.1068 2.01127 14.078 2.02712C14.0492 2.04296 14.0239 2.06432 14.0033 2.08997L13.149 3.15787C13.279 3.26273 13.4054 3.37161 13.5283 3.48453ZM1.44837 8.99609C1.44837 5.13622 4.58849 1.99609 8.44837 1.99609C12.3082 1.99609 15.4484 5.13622 15.4484 8.99609C15.4484 12.856 12.3082 15.9961 8.44837 15.9961C4.58849 15.9961 1.44837 12.856 1.44837 8.99609ZM2.44837 8.99609C2.44837 12.3044 5.14002 14.9961 8.44837 14.9961C11.7567 14.9961 14.4484 12.3044 14.4484 8.99609C14.4484 5.68775 11.7567 2.99609 8.44837 2.99609C5.14002 2.99609 2.44837 5.68775 2.44837 8.99609ZM5.96299 4.09111C6.73329 3.70017 7.5849 3.49635 8.44872 3.49617C9.31254 3.49635 10.1642 3.70017 10.9344 4.09111C11.7047 4.48204 12.372 5.04906 12.8822 5.74617H9.92613C9.86745 5.39676 9.68683 5.07945 9.41635 4.8506C9.14586 4.62175 8.80303 4.49618 8.44872 4.49618C8.09442 4.49618 7.75158 4.62175 7.48109 4.8506C7.21061 5.07945 7.02999 5.39676 6.97131 5.74617H4.01528C4.52541 5.04906 5.19269 4.48204 5.96299 4.09111ZM9.44866 5.99624C9.44866 6.54853 9.00095 6.99624 8.44866 6.99624C7.89638 6.99624 7.44866 6.54853 7.44866 5.99624C7.44866 5.44396 7.89638 4.99624 8.44866 4.99624C9.00095 4.99624 9.44866 5.44396 9.44866 5.99624ZM10.198 6.24605H9.92542C9.86674 6.59546 9.68612 6.91277 9.41564 7.14162C9.14516 7.37047 8.80232 7.49604 8.44801 7.49604C8.09371 7.49604 7.75087 7.37047 7.48039 7.14162C7.20991 6.91277 7.02929 6.59546 6.97061 6.24605H3.69801C3.69641 6.24605 3.6949 6.2456 3.69339 6.24515C3.69196 6.24473 3.69053 6.2443 3.68898 6.24424C3.20294 7.07982 2.94726 8.02939 2.94801 8.99605C2.94801 12.0288 5.4153 14.496 8.44801 14.496C11.4807 14.496 13.948 12.0288 13.948 8.99605C13.9488 8.0301 13.6935 7.0812 13.2081 6.24605H10.198ZM8.44801 7.99605C8.49746 7.99605 8.54579 8.01071 8.58691 8.03818C8.62802 8.06565 8.66006 8.1047 8.67898 8.15038C8.69791 8.19606 8.70286 8.24633 8.69321 8.29482C8.68357 8.34332 8.65975 8.38786 8.62479 8.42283C8.58983 8.45779 8.54528 8.4816 8.49679 8.49125C8.44829 8.50089 8.39803 8.49594 8.35234 8.47702C8.30666 8.4581 8.26762 8.42606 8.24015 8.38494C8.21268 8.34383 8.19801 8.2955 8.19801 8.24605C8.19801 8.17975 8.22435 8.11616 8.27124 8.06927C8.31812 8.02239 8.38171 7.99605 8.44801 7.99605ZM7.44801 8.49605C7.39857 8.49605 7.35023 8.48139 7.30912 8.45392C7.26801 8.42645 7.23597 8.3874 7.21704 8.34172C7.19812 8.29604 7.19317 8.24577 7.20282 8.19728C7.21246 8.14878 7.23627 8.10424 7.27124 8.06927C7.3062 8.03431 7.35075 8.0105 7.39924 8.00085C7.44774 7.99121 7.498 7.99616 7.54369 8.01508C7.58937 8.034 7.62841 8.06605 7.65588 8.10716C7.68335 8.14827 7.69801 8.19661 7.69801 8.24605C7.69801 8.31236 7.67168 8.37594 7.62479 8.42283C7.57791 8.46971 7.51432 8.49605 7.44801 8.49605ZM9.19801 13.2461C9.19801 13.445 9.119 13.6357 8.97834 13.7764C8.83769 13.917 8.64693 13.9961 8.44801 13.9961C8.2491 13.9961 8.05834 13.917 7.91768 13.7764C7.77703 13.6357 7.69801 13.445 7.69801 13.2461V12.2461C7.69801 12.0471 7.77703 11.8564 7.91768 11.7157C8.05834 11.5751 8.2491 11.4961 8.44801 11.4961C8.64693 11.4961 8.83769 11.5751 8.97834 11.7157C9.119 11.8564 9.19801 12.0471 9.19801 12.2461V13.2461ZM9.44802 8.49605C9.39857 8.49605 9.35023 8.48139 9.30912 8.45392C9.26801 8.42645 9.23597 8.3874 9.21705 8.34172C9.19812 8.29604 9.19317 8.24577 9.20282 8.19728C9.21246 8.14878 9.23627 8.10424 9.27124 8.06927C9.3062 8.03431 9.35075 8.0105 9.39924 8.00085C9.44774 7.99121 9.498 7.99616 9.54369 8.01508C9.58937 8.034 9.62841 8.06605 9.65588 8.10716C9.68335 8.14827 9.69802 8.19661 9.69802 8.24605C9.69802 8.31236 9.67168 8.37594 9.62479 8.42283C9.57791 8.46971 9.51432 8.49605 9.44802 8.49605ZM8.19806 13.2461C8.19806 13.3124 8.2244 13.376 8.27128 13.4228C8.31817 13.4697 8.38175 13.4961 8.44806 13.4961C8.51436 13.4961 8.57795 13.4697 8.62484 13.4228C8.67172 13.376 8.69806 13.3124 8.69806 13.2461V12.9961H8.19806V13.2461ZM8.27133 12.0696C8.3182 12.0227 8.38177 11.9963 8.44806 11.9963C8.51435 11.9963 8.57792 12.0227 8.62479 12.0696C8.67167 12.1164 8.69802 12.18 8.69806 12.2463V12.4963H8.19806V12.2463C8.1981 12.18 8.22445 12.1164 8.27133 12.0696ZM3.74788 3.15787C3.61765 3.26252 3.49122 3.3714 3.3686 3.48453L2.50294 2.40247C2.4615 2.35067 2.44234 2.28453 2.44966 2.2186C2.45699 2.15266 2.4902 2.09234 2.542 2.0509C2.5938 2.00946 2.65994 1.9903 2.72588 1.99762C2.79181 2.00495 2.85213 2.03817 2.89357 2.08997L3.74788 3.15787ZM1.36934 3.98323L2.54715 4.37582C2.65781 4.23482 2.77193 4.09664 2.89218 3.96398L1.52753 3.50911C1.4652 3.49017 1.39795 3.4963 1.34008 3.5262C1.28222 3.55609 1.2383 3.60739 1.21769 3.66918C1.19707 3.73097 1.20138 3.79836 1.22971 3.85702C1.25803 3.91567 1.30813 3.96096 1.36934 3.98323ZM15.5272 3.98323L14.3494 4.37582C14.2388 4.23482 14.1246 4.09664 14.0044 3.96398L15.369 3.50911C15.4004 3.49768 15.4338 3.49267 15.4671 3.49435C15.5005 3.49603 15.5332 3.50438 15.5632 3.51891C15.5933 3.53343 15.6202 3.55383 15.6422 3.57891C15.6643 3.60398 15.6811 3.63323 15.6917 3.66491C15.7023 3.69659 15.7064 3.73007 15.7038 3.76337C15.7012 3.79667 15.692 3.82911 15.6766 3.85878C15.6613 3.88845 15.6402 3.91475 15.6145 3.93613C15.5889 3.9575 15.5592 3.97352 15.5272 3.98323Z" fill="black"/>
</svg>
