<svg width="16" height="16" viewBox="0 0 16 16" fill="none" xmlns="http://www.w3.org/2000/svg">
<path d="M8.00044 8H9.75044V8.86801H7.13243V5.36801H8.00044V8ZM13.25 8C13.25 9.9458 12.2002 11.6399 10.632 12.5358V14.132C10.632 14.608 10.226 15 9.75 15H6.25C5.77404 15 5.38199 14.608 5.38199 14.132V12.5358C3.79983 11.6399 2.75 9.9458 2.75 8C2.75 6.05419 3.79983 4.36014 5.38199 3.46416V1.86801C5.38199 1.39205 5.77404 1 6.25 1H9.75C10.226 1 10.632 1.39205 10.632 1.86801V3.46416C12.1997 4.36014 13.25 6.05419 13.25 8ZM12.3824 8C12.3824 5.57823 10.4226 3.61801 8.00044 3.61801C5.57823 3.61801 3.63243 5.5778 3.63243 8C3.63243 10.4218 5.57823 12.368 8.00044 12.368C10.4226 12.368 12.3824 10.4222 12.3824 8Z" fill="black"/>
</svg>
