<svg width="16" height="17" viewBox="0 0 16 17" fill="none" xmlns="http://www.w3.org/2000/svg">
<path d="M12.5 8.00391C12.5 6.52224 11.8306 5.19807 10.79 4.34641L10.3292 1.4942C10.2836 1.21161 10.0396 1.00391 9.75334 1.00391H6.24748C5.96087 1.00391 5.71671 1.21213 5.67146 1.49515L5.21563 4.34641C4.16938 5.19807 3.5 6.51641 3.5 8.00391C3.5 9.49141 4.16938 10.8097 5.21563 11.6614L5.67146 14.5127C5.71671 14.7957 5.96087 15.0039 6.24748 15.0039H9.75334C10.0396 15.0039 10.2836 14.7962 10.3292 14.5136L10.79 11.6614C11.8306 10.8097 12.5 9.48557 12.5 8.00391ZM4.625 8.00391C4.625 6.07307 6.13812 4.50391 8 4.50391C9.86188 4.50391 11.375 6.07307 11.375 8.00391C11.375 9.93474 9.86188 11.5039 8 11.5039C6.13812 11.5039 4.625 9.93474 4.625 8.00391Z" fill="black"/>
</svg>
