<svg width="16" height="16" viewBox="0 0 16 16" fill="none" xmlns="http://www.w3.org/2000/svg">
<path d="M14.9531 13.1912L12.9563 5.20327C12.8526 4.78808 12.507 4.5002 12.1124 4.5002H10.4647C10.5623 4.22545 10.6257 3.93363 10.6257 3.6252C10.6257 2.17531 9.45061 1.00018 8.00072 1.00018C6.55084 1.00018 5.37571 2.17531 5.37571 3.6252C5.37571 3.93363 5.43871 4.22545 5.53627 4.5002H3.88864C3.49401 4.5002 3.14839 4.78851 3.0447 5.20327L1.04707 13.1912C0.819127 14.1021 1.44782 14.9998 2.3132 14.9998H13.6869C14.5523 14.9998 15.1806 14.1021 14.9531 13.1912ZM8.00029 4.49933C7.51772 4.49933 7.12528 4.10689 7.12528 3.62432C7.12528 3.14176 7.51772 2.74932 8.00029 2.74932C8.48285 2.74932 8.87529 3.14176 8.87529 3.62432C8.87529 4.10689 8.48241 4.49933 8.00029 4.49933Z" fill="black"/>
</svg>
