<svg width="16" height="17" viewBox="0 0 16 17" fill="none" xmlns="http://www.w3.org/2000/svg">
<path fill-rule="evenodd" clip-rule="evenodd" d="M6.41323 1.00392C6.16154 1.00392 5.95486 1.19827 5.95486 1.44378L5.95581 5.43369H9.96519L9.96614 1.44378C9.96637 1.3858 9.9548 1.32835 9.9321 1.27476C9.90941 1.22117 9.87603 1.17251 9.83391 1.13159C9.79178 1.09068 9.74176 1.05832 9.68672 1.03641C9.63168 1.01449 9.57274 1.00345 9.51329 1.00392H6.41323ZM8.35699 3.50606C8.35699 3.58222 8.33383 3.65666 8.29045 3.71998C8.24707 3.7833 8.18542 3.83265 8.11328 3.86179C8.04114 3.89093 7.96177 3.89855 7.88519 3.88368C7.80862 3.86881 7.73828 3.83213 7.68308 3.77827C7.62788 3.72441 7.5903 3.65579 7.57508 3.58109C7.55987 3.5064 7.5677 3.42898 7.5976 3.35863C7.6275 3.28828 7.67811 3.22815 7.74305 3.18586C7.80798 3.14357 7.88431 3.12101 7.96239 3.12104C8.06699 3.12128 8.16723 3.16193 8.24119 3.23408C8.31514 3.30624 8.35678 3.40403 8.35699 3.50606ZM8.35807 2.05459C8.35809 2.13075 8.33496 2.20521 8.2916 2.26855C8.24823 2.33188 8.18659 2.38125 8.11445 2.41041C8.04232 2.43957 7.96294 2.44721 7.88635 2.43235C7.80977 2.4175 7.73942 2.38083 7.68421 2.32697C7.629 2.27312 7.5914 2.2045 7.57617 2.1298C7.56095 2.0551 7.56877 1.97768 7.59867 1.90732C7.62856 1.83696 7.67918 1.77682 7.74411 1.73453C7.80905 1.69223 7.88538 1.66967 7.96347 1.66969C8.06805 1.6699 8.1683 1.71052 8.24226 1.78266C8.31621 1.85479 8.35785 1.95257 8.35807 2.05459ZM5.87371 5.95239C5.66393 5.95239 5.5 6.10861 5.5 6.31322V9.06363C5.5 9.29612 5.61446 9.59554 6.12729 9.83355C6.16193 9.84505 6.19844 9.85893 6.23693 9.87356L6.23695 9.87357C6.29793 9.89675 6.36389 9.92182 6.43521 9.9423C6.86028 10.067 7.40587 10.1348 7.988 10.1348C8.57013 10.1348 9.11963 10.067 9.54282 9.9423C9.65444 9.90982 9.75731 9.87813 9.84979 9.83263C9.94244 9.79233 10.0312 9.74392 10.1148 9.68798C10.4094 9.48613 10.4848 9.24904 10.4923 9.0873L10.5 6.31454C10.5 6.10993 10.3247 5.95371 10.1148 5.95371L5.87371 5.95239ZM9.50952 8.92608C9.32738 9.01616 8.83073 9.17146 7.99757 9.17146C7.17022 9.17146 6.65347 9.01905 6.48563 8.92977V6.91575H7.48851L7.48946 8.02506C7.48946 8.15281 7.54149 8.27533 7.6341 8.36566C7.72671 8.45599 7.85231 8.50674 7.98328 8.50674C8.11425 8.50674 8.23986 8.45599 8.33247 8.36566C8.42508 8.27533 8.47711 8.15281 8.47711 8.02506V6.91667H9.51046L9.50952 8.92608ZM7.98706 10.6528C7.35801 10.6528 6.75162 10.5766 6.27788 10.4361C6.16857 10.4036 6.06103 10.3658 5.95567 10.3226L5.95566 14.6282C5.95575 14.7033 5.97539 14.7772 6.01274 14.8429C6.08606 14.9719 6.24772 15.0039 6.39609 15.0038L9.529 15.003C9.67667 15.003 9.83753 14.9708 9.91005 14.8421C9.94699 14.7766 9.96629 14.703 9.96612 14.6282L9.96614 10.3422C9.95132 10.3476 9.9367 10.353 9.92221 10.3583C9.84718 10.386 9.77542 10.4124 9.69543 10.4352C9.22263 10.5769 8.61624 10.6528 7.98706 10.6528Z" fill="black"/>
</svg>
