<svg width="16" height="16" viewBox="0 0 16 16" fill="none" xmlns="http://www.w3.org/2000/svg">
<path d="M9.03035 5.5L7.17716 10.5H1.41516C1.18791 10.5 1 10.315 1 10.0849C1 10.035 1.00987 9.98987 1.02468 9.94491L2.37385 6.05493C2.48755 5.72494 2.79889 5.5 3.14972 5.5H9.03035ZM9.23785 5.5H14.5898C14.817 5.5 15 5.68498 15 5.91507C15 5.96502 14.9901 6.01013 14.9753 6.05509L13.6311 9.94507C13.5124 10.2751 13.2011 10.5 12.8503 10.5H7.38466L9.23785 5.5ZM5.22522 9.39997C5.22522 9.34503 5.18079 9.29492 5.1214 9.29492H4.49379C4.43948 9.29492 4.3949 9.33987 4.3949 9.39997V9.51002C4.3949 9.60009 4.45414 9.67002 4.53822 9.68501L4.56291 9.78507C4.57772 9.83502 4.62215 9.87514 4.67661 9.87514H4.93858C4.99288 9.87514 5.0424 9.83518 5.05722 9.78507L5.0819 9.68501C5.16089 9.67002 5.22522 9.59993 5.22522 9.51002V9.39997ZM5.7095 7.92499C5.7095 7.41502 5.30421 6.99496 4.80512 6.99995C4.30603 7.00495 3.90568 7.42001 3.91062 7.93498C3.91555 8.18006 4.00951 8.4 4.16271 8.565C4.28135 8.69003 4.3554 8.85503 4.38502 9.02502C4.3949 9.09995 4.45908 9.15505 4.52835 9.15505H5.08684C5.16089 9.15505 5.22522 9.10011 5.2351 9.02502C5.25978 8.85503 5.33893 8.69503 5.45741 8.565C5.61061 8.4 5.7095 8.17506 5.7095 7.92499ZM4.81006 6.69993C4.86437 6.69993 4.90895 6.64998 4.90895 6.59488V6.22992C4.90895 6.16998 4.86452 6.12486 4.81006 6.12486C4.75082 6.12486 4.70623 6.16982 4.70623 6.22992V6.59488C4.70623 6.64982 4.7556 6.69993 4.81006 6.69993ZM3.61919 7.92499C3.61919 7.86505 3.56982 7.81994 3.51536 7.81994H3.15959C3.10528 7.81994 3.0607 7.8649 3.0607 7.92499C3.0607 7.97994 3.10513 8.03005 3.15959 8.03005H3.51536C3.56966 8.03005 3.61919 7.9801 3.61919 7.92499ZM6.46069 7.81994H6.10492C6.04568 7.81994 6.00109 7.8649 6.00109 7.92499C6.00109 7.97994 6.04552 8.03005 6.10492 8.03005H6.46069C6.51499 8.03005 6.55958 7.9801 6.55958 7.92499C6.55958 7.86505 6.51515 7.81994 6.46069 7.81994ZM3.82175 8.78994L3.56966 9.05C3.53017 9.08996 3.53017 9.15505 3.56966 9.19501C3.58941 9.21499 3.61903 9.22499 3.64372 9.22499C3.6684 9.22499 3.69308 9.21499 3.71283 9.19501L3.96492 8.93995C4.00442 8.89999 4.00442 8.8299 3.96492 8.78994C3.92543 8.74998 3.86109 8.74998 3.8216 8.78994H3.82175ZM5.72432 7.09002C5.749 7.09002 5.77368 7.08003 5.79343 7.06005L6.04552 6.79999C6.08502 6.76003 6.08502 6.69494 6.04552 6.64998C6.00603 6.61002 5.94169 6.61002 5.9022 6.64998L5.65011 6.91004C5.61061 6.95 5.61061 7.01509 5.65011 7.06005C5.67479 7.08003 5.69948 7.09002 5.72416 7.09002H5.72432ZM3.82175 7.0549C3.8415 7.07488 3.87112 7.08487 3.89581 7.08487C3.92049 7.08487 3.94518 7.07488 3.96492 7.0549C4.00442 7.01494 4.00442 6.94985 3.96492 6.90988L3.71283 6.64982C3.67334 6.60986 3.609 6.60986 3.56951 6.64982C3.53001 6.68978 3.53001 6.75488 3.56951 6.79983L3.8216 7.0549H3.82175ZM5.79343 8.78994C5.75394 8.74998 5.6896 8.74998 5.65011 8.78994C5.61061 8.8299 5.61061 8.89999 5.65011 8.93995L5.9022 9.19501C5.92195 9.21499 5.95157 9.22499 5.97625 9.22499C6.00094 9.22499 6.02562 9.21499 6.04537 9.19501C6.08486 9.15505 6.08486 9.08996 6.04537 9.05L5.79328 8.78994H5.79343ZM12.9442 8.88001C12.9442 8.81507 12.8949 8.76496 12.8355 8.75497V8.30993C12.8355 8.01491 12.5933 7.77498 12.3018 7.77498H12.0596C11.9805 7.64495 11.862 7.55005 11.7187 7.49994V7.34493C11.7187 7.33494 11.7187 7.32995 11.7187 7.31996H12.0547C12.1238 7.31996 12.1782 7.26501 12.1782 7.19492V7.01494C12.1782 6.94501 12.1239 6.8899 12.0547 6.8899H11.7187V6.87492C11.7187 6.80499 11.6643 6.74988 11.5951 6.74988H11.4073C11.3382 6.74988 11.2788 6.80483 11.2788 6.87492V6.8899H10.9477C10.8786 6.8899 10.8241 6.94485 10.8241 7.01494V7.19492C10.8241 7.26485 10.8785 7.31996 10.9477 7.31996H11.2837C11.2837 7.32995 11.2788 7.33494 11.2788 7.34493V7.49994C11.1404 7.54989 11.0168 7.64495 10.9378 7.77498H9.97916C9.91004 7.77498 9.85558 7.83493 9.85558 7.90002V8.31509C9.85558 8.38502 9.90989 8.44012 9.97916 8.44012H10.928C11.0417 8.64508 11.2591 8.77511 11.5013 8.77511C11.7435 8.77511 11.9609 8.64508 12.0746 8.44012H12.0993C12.1437 8.44012 12.1784 8.47509 12.1784 8.52004V8.75497C12.1192 8.76996 12.0746 8.81991 12.0746 8.88001V9.08996C12.0746 9.15989 12.1338 9.21499 12.2031 9.21499H12.8159C12.885 9.21499 12.9444 9.16005 12.9444 9.08996V8.88001H12.9442Z" fill="black"/>
</svg>
