<svg width="16" height="16" viewBox="0 0 16 16" fill="none" xmlns="http://www.w3.org/2000/svg">
<path d="M15 7.95691C15 7.92305 15 7.88458 14.9984 7.83995C14.9969 7.7153 14.9938 7.57525 14.9906 7.42598C14.9781 6.99661 14.9563 6.56879 14.9219 6.16559C14.875 5.61003 14.8062 5.14681 14.7125 4.79901C14.6136 4.43606 14.4196 4.10503 14.1501 3.83902C13.8806 3.57301 13.5449 3.38134 13.1766 3.28316C12.7344 3.1662 11.8687 3.09387 10.65 3.04925C10.0703 3.0277 9.45 3.01385 8.82969 3.00616C8.6125 3.00308 8.41094 3.00154 8.22969 3H7.77031C7.58906 3.00154 7.3875 3.00308 7.17031 3.00616C6.55 3.01385 5.92969 3.0277 5.35 3.04925C4.13125 3.09541 3.26406 3.16774 2.82344 3.28316C2.455 3.3811 2.11917 3.57269 1.8496 3.83874C1.58003 4.10478 1.38619 4.43594 1.2875 4.79901C1.19219 5.14681 1.125 5.61003 1.07812 6.16559C1.04375 6.56879 1.02187 6.99661 1.00937 7.42598C1.00469 7.57525 1.00312 7.7153 1.00156 7.83995C1.00156 7.88458 1 7.92305 1 7.95691V8.04309C1 8.07695 1 8.11542 1.00156 8.16005C1.00312 8.2847 1.00625 8.42475 1.00937 8.57402C1.02187 9.00339 1.04375 9.43121 1.07812 9.83441C1.125 10.39 1.19375 10.8532 1.2875 11.201C1.4875 11.9381 2.075 12.5199 2.82344 12.7168C3.26406 12.8338 4.13125 12.9061 5.35 12.9508C5.92969 12.9723 6.55 12.9861 7.17031 12.9938C7.3875 12.9969 7.58906 12.9985 7.77031 13H8.22969C8.41094 12.9985 8.6125 12.9969 8.82969 12.9938C9.45 12.9861 10.0703 12.9723 10.65 12.9508C11.8687 12.9046 12.7359 12.8323 13.1766 12.7168C13.925 12.5199 14.5125 11.9397 14.7125 11.201C14.8078 10.8532 14.875 10.39 14.9219 9.83441C14.9563 9.43121 14.9781 9.00339 14.9906 8.57402C14.9953 8.42475 14.9969 8.2847 14.9984 8.16005C14.9984 8.11542 15 8.07695 15 8.04309V7.95691ZM13.875 8.03693C13.875 8.06925 13.875 8.10465 13.8734 8.1462C13.8719 8.26624 13.8688 8.39858 13.8656 8.5417C13.8547 8.95106 13.8328 9.36042 13.8 9.74053C13.7578 10.2361 13.6984 10.6424 13.625 10.9147C13.5281 11.2702 13.2437 11.5519 12.8844 11.6457C12.5562 11.7319 11.7297 11.8012 10.6062 11.8427C10.0375 11.8643 9.425 11.8781 8.81406 11.8858C8.6 11.8889 8.40156 11.8904 8.22344 11.8904H7.77656L7.18594 11.8858C6.575 11.8781 5.96406 11.8643 5.39375 11.8427C4.27031 11.7996 3.44219 11.7319 3.11562 11.6457C2.75625 11.5503 2.47187 11.2702 2.375 10.9147C2.30156 10.6424 2.24219 10.2361 2.2 9.74053C2.16719 9.36042 2.14688 8.95106 2.13438 8.5417C2.12969 8.39858 2.12813 8.2647 2.12656 8.1462C2.12656 8.10465 2.125 8.06771 2.125 8.03693V7.96307C2.125 7.93075 2.125 7.89535 2.12656 7.8538C2.12813 7.73376 2.13125 7.60142 2.13438 7.45829C2.14531 7.04894 2.16719 6.63958 2.2 6.25946C2.24219 5.76393 2.30156 5.35765 2.375 5.08526C2.47187 4.72976 2.75625 4.44814 3.11562 4.35426C3.44375 4.26808 4.27031 4.19883 5.39375 4.15728C5.9625 4.13573 6.575 4.12188 7.18594 4.11419C7.4 4.11111 7.59844 4.10957 7.77656 4.10957H8.22344L8.81406 4.11419C9.425 4.12188 10.0359 4.13573 10.6062 4.15728C11.7297 4.20037 12.5578 4.26808 12.8844 4.35426C13.2437 4.44968 13.5281 4.72976 13.625 5.08526C13.6984 5.35765 13.7578 5.76393 13.8 6.25946C13.8328 6.63958 13.8531 7.04894 13.8656 7.45829C13.8703 7.60142 13.8719 7.7353 13.8734 7.8538C13.8734 7.89535 13.875 7.93229 13.875 7.96307V8.03693ZM6.60938 10.0622L10.2344 7.98461L6.60938 5.93783V10.0622Z" fill="black"/>
</svg>
