<svg width="16" height="17" viewBox="0 0 16 17" fill="none" xmlns="http://www.w3.org/2000/svg">
<path d="M10.6879 1.0051C10.5633 1.00724 10.4371 1.0094 10.3221 1.06428C9.85543 1.25853 9.38271 1.43528 8.90827 1.61072C8.86158 1.62973 8.81328 1.64704 8.76469 1.66445C8.57957 1.73078 8.3903 1.79861 8.27012 1.96772C8.22216 2.16834 8.22535 2.37428 8.22853 2.58C8.22973 2.65735 8.23093 2.73466 8.22941 2.81166C8.23027 6.35628 8.23069 9.90178 8.22855 13.4464C8.22944 13.4681 8.22998 13.4905 8.23054 13.5134C8.23477 13.6889 8.23964 13.8903 8.40684 13.9828C8.60847 14.1018 8.82306 14.1941 9.03757 14.2865C9.16775 14.3425 9.29791 14.3986 9.42514 14.4605C9.58353 14.523 9.73756 14.5991 9.89163 14.6753C10.1636 14.8097 10.4357 14.9441 10.7323 15.0039C10.7499 14.8556 10.767 14.7073 10.7691 14.5581C10.7674 10.1914 10.7661 5.82516 10.7691 1.45847C10.7674 1.30709 10.7567 1.15528 10.746 1.00391C10.7267 1.00444 10.7073 1.00477 10.6879 1.0051Z" fill="black"/>
<path d="M6.08481 1.69166C5.89495 1.67984 5.7081 1.81634 5.70124 2.02241C5.66702 2.45906 5.67344 2.89757 5.67987 3.33633C5.68229 3.50203 5.68472 3.66771 5.68495 3.83322C5.7951 3.83746 5.90612 3.83541 6.01727 3.83336C6.26161 3.82886 6.50653 3.82435 6.74396 3.88659C6.97497 4.05416 7.10011 4.33722 7.07482 4.62772C7.07718 6.08505 7.07675 7.54249 7.07632 8.99982C7.0759 10.4571 7.07547 11.9143 7.07782 13.3712C7.0959 13.5874 6.99839 13.7776 6.90338 13.9628C6.88576 13.9971 6.86823 14.0313 6.85154 14.0655C7.13956 14.0699 7.42776 14.0693 7.71591 14.0686C7.88482 14.0683 8.05371 14.0679 8.22255 14.0685C8.09869 13.8848 7.98212 13.6822 7.99969 13.449C7.99926 11.5958 7.99926 9.74242 7.99926 7.88895C7.99926 6.03548 7.99926 4.18191 7.99883 2.32822C7.97955 2.08759 8.09869 1.87891 8.22341 1.68859C7.9891 1.68888 7.75475 1.68803 7.52038 1.68719C7.04184 1.68546 6.56323 1.68373 6.08481 1.69166Z" fill="black"/>
<path d="M12.2566 1.6873C11.8388 1.68648 11.4209 1.68567 11.0027 1.69253C10.9929 2.00928 10.992 2.32559 11.0036 2.64234C11.3125 2.64905 11.6215 2.64658 11.9304 2.64411C12.3878 2.64045 12.845 2.63679 13.3016 2.66291C13.3072 6.14453 13.3076 9.62572 13.3016 13.1078C12.9302 13.1144 12.5589 13.1129 12.1876 13.1115C11.7926 13.1099 11.3976 13.1084 11.0023 13.1165C10.9924 13.4333 10.9924 13.7496 11.004 14.0663C11.8539 14.0694 12.7037 14.0712 13.5528 14.0663C13.8005 14.1005 14.028 13.8577 13.9972 13.6052C13.9979 12.0176 13.9976 10.4301 13.9974 8.84264C13.997 6.64477 13.9967 4.44705 13.9989 2.24947C14.0006 2.10203 13.9976 1.94103 13.8729 1.84347C13.7705 1.68946 13.5909 1.68811 13.4245 1.68685C13.3895 1.68659 13.3552 1.68633 13.3222 1.68466C12.967 1.68868 12.6118 1.68799 12.2566 1.6873Z" fill="black"/>
<path fill-rule="evenodd" clip-rule="evenodd" d="M2.86258 4.06519C2.7145 4.0651 2.56622 4.06502 2.42049 4.09703C2.18949 4.15741 1.97434 4.36566 2.00348 4.62991C1.99963 7.59528 1.99748 10.5611 2.0052 13.5265C1.97305 13.8695 2.33649 14.0786 2.62963 14.0628C3.13556 14.0632 3.64149 14.0631 4.14738 14.063C4.82171 14.0629 5.49597 14.0627 6.1701 14.0637C6.49839 14.0882 6.88925 13.8152 6.84596 13.4455C6.84596 12.6511 6.84587 11.8568 6.84577 11.0624C6.84552 8.94411 6.84526 6.82595 6.84682 4.70778C6.88154 4.34203 6.50996 4.04672 6.17481 4.06991C5.60947 4.06533 5.04436 4.06614 4.47924 4.06695C3.96435 4.06769 3.44945 4.06843 2.93435 4.06509C2.91044 4.06522 2.88651 4.0652 2.86258 4.06519ZM2.78533 4.5791C2.59203 4.5791 2.43533 4.7358 2.43533 4.9291C2.43533 5.1224 2.59203 5.2791 2.78533 5.2791H3.37106C3.56436 5.2791 3.72106 5.1224 3.72106 4.9291C3.72106 4.7358 3.56436 4.5791 3.37106 4.5791H2.78533Z" fill="black"/>
</svg>
