<svg width="16" height="16" viewBox="0 0 16 16" fill="none" xmlns="http://www.w3.org/2000/svg">
<path d="M11.935 6.3312V7.43811L13.1708 7.43592V6.3417L11.935 6.3312ZM2.86184 1.71149C2.61023 1.75525 2.55154 2.18138 2.77028 2.31833C2.97728 2.49552 3.29306 2.2142 3.22967 1.95213C3.18976 1.77668 3.01954 1.66774 2.86184 1.71149ZM2.05654 1.5063C2.19662 1.21973 2.45841 0.978221 2.76754 1.00272C4.40319 1.00097 6.03924 0.996597 7.67489 1.00491C8.00985 0.983472 8.25402 1.30067 8.38081 1.61087C8.43442 1.81387 8.41133 2.02913 8.41602 2.23782C8.4125 4.89747 8.41524 7.55755 8.41446 10.2172C8.43598 10.7181 7.97933 11.1697 7.53481 11.1167C6.79915 11.1189 6.06272 11.1027 5.32628 11.1242C5.39124 12.1274 5.8745 13.0868 6.59685 13.6915C7.21824 14.2086 7.99224 14.5 8.77094 14.4768C10.4665 14.5779 12.1158 13.0217 12.2688 11.1373C12.2688 11.1373 11.7824 11.1443 11.5269 11.0017C11.2726 10.8476 11.0851 10.5436 11.1043 10.2133L11.1086 8.21076C11.1043 7.81218 11.289 7.47311 11.721 7.41667L11.7265 6.45195C11.7265 6.45195 11.6826 6.06694 12.0786 6.06256L13.0052 6.06694C13.3539 6.06694 13.3852 6.33032 13.3852 6.33032L13.3872 7.42892C13.9119 7.51555 13.9933 7.81918 13.9945 8.20682L13.9992 10.2168C14.0172 10.6897 13.7448 11.1084 13.1876 11.115C13.0463 11.1198 12.763 11.1189 12.763 11.1189C12.7059 11.5722 12.5819 12.0491 12.3823 12.4699C11.8712 13.6377 10.8855 14.5381 9.75116 14.8561C8.79911 15.1598 7.75355 14.962 6.88563 14.4576C5.77002 13.8179 4.96589 12.522 4.89702 11.1202C4.2095 11.1062 3.52197 11.118 2.83484 11.1154C2.40049 11.1513 1.96262 10.7076 2.00254 10.2133C2.00058 7.55492 2.00449 4.89659 2.00058 2.23914C2.00488 1.99413 1.98258 1.74037 2.05654 1.50499V1.5063Z" fill="black"/>
</svg>
