<svg width="16" height="16" viewBox="0 0 16 16" fill="none" xmlns="http://www.w3.org/2000/svg">
<path fill-rule="evenodd" clip-rule="evenodd" d="M1.08178 7.7436C1.01742 7.80795 0.991826 7.89998 1.00168 7.99984C0.991829 8.09969 1.01743 8.19171 1.08178 8.25606L7.74342 14.9177C7.88493 15.0592 8.16024 15.0133 8.35834 14.8152L9.07575 14.0978C9.27386 13.8997 9.31974 13.6244 9.17824 13.4829L3.69518 7.99983L9.17824 2.51677C9.31974 2.37527 9.27386 2.09996 9.07575 1.90185L8.35834 1.18444C8.16023 0.986335 7.88492 0.94045 7.74342 1.08195L1.08178 7.7436ZM9.43443 7.99983L14.9175 13.4829C15.059 13.6244 15.0131 13.8997 14.815 14.0978L14.0976 14.8152C13.8995 15.0133 13.6242 15.0592 13.4827 14.9177L6.82103 8.25606C6.75668 8.19171 6.73108 8.09969 6.74093 7.99984C6.73108 7.89998 6.75667 7.80795 6.82103 7.7436L13.4827 1.08195C13.6242 0.94045 13.8995 0.986335 14.0976 1.18444L14.815 1.90185C15.0131 2.09995 15.059 2.37527 14.9175 2.51677L9.43443 7.99983Z" fill="black"/>
</svg>
