<svg width="16" height="16" viewBox="0 0 16 16" fill="none" xmlns="http://www.w3.org/2000/svg">
<path d="M5.32172 10.7082C5.43322 10.7369 5.54667 10.7658 5.66139 10.795C6.24731 10.9442 6.86647 11.102 7.42776 11.2809C7.32076 11.6117 7.00948 11.9169 6.64955 11.8585C6.12539 11.8252 5.76845 11.3276 5.46919 10.9104C5.41857 10.8398 5.36958 10.7715 5.32172 10.7082Z" fill="black"/>
<path d="M10.6592 10.7793C9.9685 10.9253 9.21279 11.1168 8.53185 11.2919C8.62913 11.6031 8.87232 11.9533 9.21279 11.9339C9.76552 11.9745 10.1531 11.4536 10.4756 11.0201C10.5391 10.9348 10.6 10.8529 10.6592 10.7793Z" fill="black"/>
<path fill-rule="evenodd" clip-rule="evenodd" d="M10.3704 2.88717C9.85481 2.00195 8.95013 1.44747 8.06492 1C8.20111 1.99222 7.86064 3.10117 6.98515 3.66538C6.51822 3.23736 6.36258 2.53697 6.53768 1.92413C5.40927 2.63425 4.60187 3.88911 4.58242 5.23153C4.09603 5.29962 3.72638 4.91052 3.6972 4.44359C3.19136 4.90079 2.82171 5.48445 2.52015 6.08756C1.5617 8.0403 1.73327 10.5127 3.01966 12.2894L3.01861 12.2903L3.04034 12.3178C3.07169 12.3605 3.10369 12.4029 3.13634 12.4447L3.16105 12.4782C3.18384 12.5093 3.20389 12.5368 3.21823 12.5567L3.23502 12.5799L3.24918 12.5996L3.25852 12.6104C4.68005 14.2436 6.83863 15.2964 9.02845 14.9255C10.6501 14.6752 11.9627 13.6057 12.9301 12.3791L12.9418 12.3642L12.9545 12.3431L12.9633 12.3286L12.995 12.2767L13.0107 12.251C13.4822 11.567 13.8234 10.7834 13.9793 9.9689C14.1252 9.26851 14.0961 8.5584 14.0669 7.84828C13.9112 5.92221 12.7731 4.22958 11.3723 2.96499C11.2167 3.393 11.0027 3.81129 10.6427 4.11285C10.6719 3.68483 10.5941 3.25682 10.3704 2.88717ZM12.581 11.8031C12.1358 10.8057 11.3681 9.95784 10.3996 9.43388C10.5552 8.47084 10.6817 7.46889 10.4579 6.49613C10.3898 6.16539 10.1564 5.83465 9.79644 5.81519C9.42679 5.78601 8.87231 5.7471 8.71667 6.17511C8.61 6.6018 8.82825 7.01223 9.02997 7.39158C9.049 7.42736 9.06788 7.46286 9.08632 7.49808C9.36842 7.99419 9.52407 8.54866 9.63107 9.10314C8.60967 8.81131 7.51044 8.80158 6.50849 9.15178C6.63495 8.26656 6.73223 7.35216 6.51822 6.46694C6.45013 6.1362 6.20693 5.80546 5.83728 5.79573L5.80569 5.79401C5.44889 5.77438 4.9759 5.74835 4.79643 6.11675C4.65136 6.55195 4.89089 6.99677 5.09442 7.37472L5.09798 7.38134C5.47736 8.02337 5.66219 8.75294 5.75946 9.48252C4.77173 10.0607 3.98951 10.9703 3.58243 12.0363C3.60478 12.0661 3.62655 12.0955 3.64592 12.1219C3.66978 12.1543 3.69073 12.1831 3.70572 12.2039L3.7215 12.2257C5.04257 13.7375 7.00051 14.6595 8.93001 14.3319L8.93462 14.3311C10.341 14.1147 11.5283 13.18 12.4461 12.0209L12.4488 12.0164L12.4819 11.9622C12.5086 11.9186 12.5444 11.8608 12.581 11.8031Z" fill="black"/>
</svg>
