<svg width="16" height="16" viewBox="0 0 16 16" fill="none" xmlns="http://www.w3.org/2000/svg">
<path d="M11.6914 2.81344L11.2203 1.399C11.1411 1.16056 10.9179 1 10.6668 1H5.33319C5.08206 1 4.85894 1.16056 4.77975 1.399L4.30856 2.81344C3.54031 3.01381 3.0035 3.70594 3 4.5V11.5C3.00306 12.2936 3.54031 12.9862 4.30856 13.1866L4.77975 14.601C4.85894 14.8394 5.08206 15 5.33319 15H10.6668C10.9179 15 11.1411 14.8394 11.2203 14.601L11.6914 13.1866C12.4597 12.9862 12.9965 12.2941 13 11.5V4.5C12.9969 3.70638 12.4597 3.01381 11.6914 2.81344ZM11.8332 11.5C11.8332 11.822 11.572 12.0832 11.25 12.0832H4.74956C4.42756 12.0832 4.16638 11.822 4.16638 11.5V4.5C4.16638 4.178 4.42756 3.91681 4.74956 3.91681H11.25C11.572 3.91681 11.8332 4.178 11.8332 4.5V11.5Z" fill="black"/>
</svg>
