<svg width="16" height="16" viewBox="0 0 16 16" fill="none" xmlns="http://www.w3.org/2000/svg">
<path d="M10.3085 1H5.69149C5.37549 1 5.07243 1.12826 4.84898 1.35657C4.62553 1.58487 4.5 1.89452 4.5 2.21739V13.7826C4.5 14.1055 4.62553 14.4151 4.84898 14.6434C5.07243 14.8717 5.37549 15 5.69149 15H10.3085C10.6245 15 10.9276 14.8717 11.151 14.6434C11.3745 14.4151 11.5 14.1055 11.5 13.7826V2.21739C11.5 1.89452 11.3745 1.58487 11.151 1.35657C10.9276 1.12826 10.6245 1 10.3085 1ZM10.7553 2.41381V13.5382C10.7553 13.6593 10.7082 13.7754 10.6245 13.861C10.5407 13.9466 10.427 13.9947 10.3085 13.9947H5.69149C5.57299 13.9947 5.45934 13.9466 5.37555 13.861C5.29176 13.7754 5.24468 13.6593 5.24468 13.5382V2.41381C5.24468 2.29273 5.29176 2.17661 5.37555 2.091C5.45934 2.00538 5.57299 1.95728 5.69149 1.95728H6.2366C6.25436 2.07383 6.31229 2.18005 6.39996 2.25678C6.48762 2.33352 6.59924 2.37571 6.71468 2.37576H9.28383C9.39961 2.37639 9.51174 2.33447 9.59978 2.25765C9.68782 2.18082 9.7459 2.07422 9.7634 1.95728H10.3085C10.427 1.95728 10.5407 2.00538 10.6245 2.091C10.7082 2.17661 10.7553 2.29273 10.7553 2.41381Z" fill="black"/>
</svg>
