<svg width="16" height="16" viewBox="0 0 16 16" fill="none" xmlns="http://www.w3.org/2000/svg">
<path fill-rule="evenodd" clip-rule="evenodd" d="M14.9179 8.25625C14.9822 8.1919 15.0078 8.09987 14.998 8.00001C15.0078 7.90016 14.9822 7.80814 14.9179 7.74379L8.25621 1.08214C8.11471 0.940638 7.8394 0.986523 7.64129 1.18463L6.92388 1.90204C6.72578 2.10014 6.67989 2.37545 6.8214 2.51696L12.3045 8.00002L6.8214 13.4831C6.67989 13.6246 6.72578 13.8999 6.92388 14.098L7.64129 14.8154C7.8394 15.0135 8.11471 15.0594 8.25621 14.9179L14.9179 8.25625ZM6.5652 8.00002L1.08214 2.51696C0.940638 2.37545 0.986524 2.10014 1.18463 1.90204L1.90204 1.18463C2.10015 0.986522 2.37545 0.940638 2.51696 1.08214L9.1786 7.74379C9.24295 7.80814 9.26855 7.90016 9.2587 8.00001C9.26855 8.09987 9.24296 8.1919 9.1786 8.25625L2.51696 14.9179C2.37545 15.0594 2.10015 15.0135 1.90204 14.8154L1.18463 14.098C0.986524 13.8999 0.940639 13.6246 1.08214 13.4831L6.5652 8.00002Z" fill="black"/>
</svg>
