<svg width="16" height="16" viewBox="0 0 16 16" fill="none" xmlns="http://www.w3.org/2000/svg">
<path d="M14.9993 5.37842C14.9993 5.21125 14.9993 5.04408 14.9993 4.8769C14.9993 4.73599 14.9967 4.59507 14.9932 4.4546V4.45462C14.9893 4.14669 14.9623 3.83949 14.9123 3.53561C14.8604 3.23116 14.7634 2.93616 14.6244 2.66037C14.3418 2.10655 13.8911 1.65656 13.3368 1.37504C13.0611 1.23606 12.7662 1.139 12.4618 1.08709C12.1581 1.0371 11.8509 1.01003 11.5431 1.00613C11.4022 1.00219 11.2613 1.00044 11.1205 1C10.9533 1 10.7862 1 10.6187 1H5.37784C5.21072 1 5.04359 1 4.87647 1C4.73559 1 4.59472 1.00263 4.45428 1.00613H4.45428C4.14644 1.01003 3.83932 1.0371 3.53554 1.08709H3.53554C3.23117 1.13898 2.93625 1.23603 2.66054 1.37504L2.66054 1.37504C2.10708 1.65734 1.65725 2.10776 1.3756 2.66165H1.3756C1.23665 2.93746 1.13962 3.23245 1.08772 3.5369H1.08772C1.03774 3.84077 1.01069 4.14798 1.00679 4.45591C1.00285 4.59682 1.0011 4.73774 1.00066 4.87865C1.00066 5.04583 1.00066 5.213 1.00066 5.38061V11.1485C1.00066 11.2798 1.00329 11.4137 1.00679 11.5467L1.00679 11.5467C1.01047 11.8542 1.03723 12.161 1.08685 12.4644H1.08685C1.13872 12.7689 1.23575 13.0639 1.37472 13.3397C1.65717 13.8934 2.10778 14.3434 2.66185 14.625C2.93759 14.7639 3.2325 14.861 3.53685 14.9129H3.53685C3.84064 14.9629 4.14775 14.99 4.4556 14.9939C4.59647 14.9978 4.73735 14.9996 4.87822 15C5.04535 15 5.21247 15 5.38003 15H10.623C10.7902 15 10.9573 15 11.1244 15C11.2653 15 11.4062 14.9974 11.5466 14.9939C11.8544 14.99 12.1616 14.9629 12.4653 14.9129C12.7697 14.861 13.0646 14.764 13.3403 14.625H13.3403C13.8928 14.3426 14.3418 13.8927 14.6231 13.3397C14.762 13.0638 14.859 12.7688 14.911 12.4644C14.9609 12.1605 14.988 11.8533 14.9919 11.5454C14.9958 11.4045 14.9976 11.2636 14.998 11.1227C14.998 10.9555 14.998 10.7883 14.998 10.6207L14.9993 5.37842ZM5.31265 5.54209C5.50162 5.32242 5.76804 5.18415 6.0564 5.15611V5.15611C6.07704 5.44953 5.98292 5.7395 5.7939 5.96484H5.7939C5.61203 6.19363 5.33401 6.32466 5.04184 6.31931C5.02406 6.03436 5.12166 5.75425 5.31265 5.54209L5.31265 5.54209ZM6.76165 9.5761C6.55078 9.88637 6.33378 10.1888 5.98684 10.1967C5.65215 10.2028 5.54059 9.99797 5.15559 9.99797C4.77059 9.99797 4.64722 10.1905 4.3309 10.2028C3.99622 10.215 3.74203 9.87368 3.53159 9.56385C3.09759 8.93717 2.76903 7.79585 3.21528 7.02563C3.42545 6.64476 3.82175 6.40391 4.25653 6.39283C4.58509 6.3867 4.88872 6.61164 5.08778 6.61164C5.28684 6.61164 5.63946 6.34907 6.05465 6.37576C6.42387 6.39042 6.76524 6.57611 6.97822 6.87815C6.64356 7.08447 6.43771 7.44773 6.43265 7.84092V7.84093C6.4361 8.28559 6.70074 8.6866 7.10815 8.86453C7.02747 9.11715 6.91077 9.35681 6.76165 9.5761V9.5761ZM9.37747 7.1858H8.69934V9.1678C8.69934 9.47413 8.83409 9.61592 9.13072 9.61592C9.2119 9.61459 9.29295 9.6089 9.37353 9.59886V10.1586C9.24091 10.1802 9.10669 10.1903 8.97234 10.1888C8.27234 10.1888 7.99934 9.92007 7.99934 9.23913V7.18624H7.48046V6.63002H7.99934V5.78716H8.69934V6.63002H9.37746L9.37747 7.1858ZM11.7483 10.1616H11.0045L9.75328 6.63002H10.4931L11.3707 9.46801H11.3873L12.265 6.63002H12.9921L11.7483 10.1616Z" fill="black"/>
</svg>
