<svg width="16" height="16" viewBox="0 0 16 16" fill="none" xmlns="http://www.w3.org/2000/svg">
<path d="M13.8337 1.5H2.16673C1.52339 1.5 1 2.02703 1 2.67481V10.8989C1 11.5467 1.52339 12.0737 2.16673 12.0737H6.25131C6.2392 12.5422 6.0253 13.3684 5.69131 13.7226C5.56894 13.8522 5.42881 13.9128 5.2499 13.9128C5.08876 13.9128 4.95832 14.044 4.95832 14.2064C4.95832 14.3687 5.08876 14.5 5.2499 14.5H10.5C10.6611 14.5 10.7916 14.3687 10.7916 14.2064C10.7916 14.044 10.6611 13.9128 10.5 13.9128C10.3211 13.9128 10.181 13.8526 10.059 13.723C9.72622 13.3708 9.76161 12.5434 9.74909 12.0741H13.8333C14.4766 12.0741 15 11.5471 15 10.8993V2.67522C15 2.02743 14.477 1.5 13.8337 1.5ZM8 11.4877C7.67772 11.4877 7.41482 11.2232 7.41482 10.8985C7.41482 10.5738 7.67732 10.3093 8 10.3093C8.32228 10.3093 8.58518 10.5738 8.58518 10.8985C8.58518 11.2232 8.32268 11.4877 8 11.4877ZM2.16593 9.5L2 2.45113H13.8329L13.8333 9.5H2.16593Z" fill="black"/>
</svg>
