<svg width="16" height="17" viewBox="0 0 16 17" fill="none" xmlns="http://www.w3.org/2000/svg">
<path d="M14.6146 1.39004C14.3657 1.14112 14.0347 1.00403 13.6827 1.00403C13.3306 1.00403 12.9997 1.14112 12.7508 1.39004L11.869 2.27183C11.8689 2.27188 11.8689 2.27188 11.8689 2.27188L11.6907 2.45014L2.35545 11.7854C2.32044 11.8205 2.2888 11.8587 2.26095 11.8996L2.03831 12.2268L1.88526 12.4518C1.85615 12.4946 1.82856 12.5351 1.80361 12.5757L1.80208 12.5747L1.22943 13.4759C0.972464 13.8804 0.931136 14.2474 1.10661 14.5668C1.25471 14.8364 1.54174 15.0039 1.85567 15.0039C2.06942 15.0039 2.28327 14.9313 2.52866 14.7753C2.53166 14.7734 2.53461 14.7715 2.53756 14.7696L4.09329 13.7517C4.13867 13.722 4.18089 13.6877 4.21927 13.6493L12.8584 5.01001C12.8586 5.00985 12.8587 5.00974 12.8589 5.00959L13.7328 4.1357C13.7331 4.13543 13.7333 4.13517 13.7335 4.13491L14.6146 3.25385C15.1285 2.74002 15.1285 1.90387 14.6146 1.39004ZM12.3005 4.45121L11.5534 3.7042L12.4273 2.83031L13.1744 3.57727L12.3005 4.45121ZM1.85562 14.2141C1.75991 14.2141 1.76675 14.1027 1.89595 13.8994L2.11612 13.5529L2.4478 13.8845L2.10517 14.1087C1.99282 14.1801 1.90853 14.2141 1.85562 14.2141ZM3.66084 13.0908L3.117 13.4467C3.10346 13.427 3.08825 13.4082 3.07082 13.3907L2.60748 12.9275C2.58931 12.9094 2.56973 12.8936 2.54925 12.8797C2.67755 12.6911 2.91378 12.3438 2.91378 12.3438L10.9951 4.26263L11.742 5.00959L3.66084 13.0908ZM14.0562 2.69543L13.7328 3.01889L12.9858 2.27188L13.3092 1.94847V1.94841C13.4123 1.84528 13.5475 1.79374 13.6827 1.79374C13.8179 1.79374 13.953 1.84528 14.0561 1.94841C14.2625 2.15474 14.2625 2.48915 14.0562 2.69543Z" fill="black"/>
</svg>
