<svg width="16" height="16" viewBox="0 0 16 16" fill="none" xmlns="http://www.w3.org/2000/svg">
<path d="M1.60379 9.20728L1.6086 10.1801L2.57394 10.1777L2.57722 9.20969L1.60379 9.20728ZM13.4545 9.15347L13.4368 10.1803L14.3989 10.177L14.3932 9.155L13.4545 9.15347ZM3.31966 9.15019L3.30106 10.1801L12.7086 10.1768L12.7038 9.15566L3.31966 9.15019ZM11.7468 7.52073L10.7742 7.51679L10.7781 8.48957L11.7468 8.48694V7.52073ZM10.0574 7.52073C9.73317 7.51023 9.0848 7.51679 9.0848 7.51679L9.08873 8.48957H10.0574V7.52073ZM8.36796 7.52073L7.3954 7.51679L7.39933 8.48957L8.36796 8.48694V7.52073ZM6.67855 7.52073L5.706 7.51679L5.70993 8.48957L6.67855 8.48694V7.52073ZM4.98893 7.52073L4.01637 7.51679L4.02031 8.48957L4.97756 8.48694L4.98893 7.52073ZM12.4159 7.46013V8.4806L14.3989 8.48782L14.3932 7.46516L12.4159 7.46013ZM1.60379 7.46057V8.48082L3.29713 8.48782L3.29144 7.46516L1.60379 7.46057ZM13.4296 5.82695L13.4344 6.8006L14.3998 6.7982L14.403 5.83023L13.4296 5.82695ZM11.7402 5.82695L11.745 6.8006L12.7104 6.7982L12.7136 5.83023L11.7402 5.82695ZM10.0508 5.82695L10.0556 6.8006L11.0209 6.7982L11.0242 5.83023L10.0508 5.82695ZM8.36139 5.82695L8.36621 6.8006L9.33155 6.7982L9.33483 5.83023L8.36139 5.82695ZM6.67199 5.82695L6.6768 6.8006L7.64215 6.7982L7.64543 5.83023L6.67199 5.82695ZM4.98259 5.82695L4.9874 6.8006L5.95274 6.7982L5.95603 5.83023L4.98259 5.82695ZM3.29319 5.82695L3.298 6.8006L4.26334 6.7982L4.26662 5.83023L3.29319 5.82695ZM1.60379 5.82695L1.6086 6.8006L2.57394 6.7982L2.57722 5.83023L1.60379 5.82695ZM1.01732 4.50002H15L14.9952 10.8626C15.012 11.2336 14.6452 11.5313 14.288 11.4974H1.82013C1.58279 11.5118 1.34785 11.4226 1.19341 11.239C0.966571 11.0185 1.00201 10.3894 1.00201 10.3894C1.01316 8.42679 1.01732 4.50002 1.01732 4.50002Z" fill="black"/>
</svg>
