<svg width="16" height="17" viewBox="0 0 16 17" fill="none" xmlns="http://www.w3.org/2000/svg">
<path d="M11.446 6.67946V5.71768C11.4465 5.56047 11.3987 5.40717 11.3096 5.27994C11.2205 5.15271 11.0946 5.05814 10.9503 5.00991V2.31104C10.957 1.97137 10.8332 1.64287 10.6061 1.39778C10.3791 1.1527 10.0674 1.01111 9.73963 1.00417C9.41186 0.997235 9.09485 1.12551 8.85834 1.36078C8.62184 1.59606 8.48521 1.91905 8.47851 2.25872C8.47851 2.27631 8.47851 2.29344 8.47851 2.30628V4.96995H7.52332V2.30628C7.52332 1.96643 7.39304 1.6405 7.16114 1.40018C6.92924 1.15987 6.61472 1.02486 6.28676 1.02486C5.95881 1.02486 5.64428 1.15987 5.41238 1.40018C5.18048 1.6405 5.0502 1.96643 5.0502 2.30628V5.00801C4.90565 5.05659 4.77977 5.15161 4.69081 5.27928C4.60184 5.40696 4.55442 5.56068 4.5554 5.71816V6.67946C4.39919 6.71136 4.25848 6.79837 4.15721 6.92568C4.05595 7.05299 4.00039 7.21274 4 7.37772V14.2942C4.00012 14.4822 4.07212 14.6624 4.20023 14.7954C4.32834 14.9284 4.5021 15.0034 4.68346 15.0039H11.3152C11.4965 15.0029 11.6701 14.9278 11.7984 14.7949C11.9266 14.6621 11.999 14.4821 12 14.2942V7.37772C11.9997 7.21294 11.9443 7.05335 11.8433 6.92607C11.7423 6.79878 11.6019 6.71165 11.446 6.67946ZM6.09352 2.10841C6.11878 2.08209 6.14882 2.06122 6.18191 2.04701C6.215 2.03281 6.25049 2.02554 6.2863 2.02564C6.32214 2.02552 6.35765 2.03274 6.39079 2.0469C6.42392 2.06105 6.45403 2.08186 6.47937 2.10812C6.50471 2.13438 6.52479 2.16558 6.53845 2.19991C6.55211 2.23425 6.55907 2.27104 6.55895 2.30818V4.97185H6.01366V2.30818C6.01356 2.27107 6.02057 2.2343 6.03428 2.2C6.04798 2.16571 6.06812 2.13458 6.09352 2.10841ZM9.44426 2.30343C9.44217 2.26586 9.44736 2.22825 9.45952 2.1928C9.47167 2.15734 9.49055 2.12477 9.51503 2.09699C9.53952 2.06921 9.56912 2.04679 9.6021 2.03104C9.63508 2.0153 9.67076 2.00655 9.70705 2.00531C9.74333 2.00407 9.7795 2.01037 9.8134 2.02383C9.8473 2.0373 9.87826 2.05765 9.90446 2.08371C9.93066 2.10976 9.95156 2.14097 9.96594 2.17552C9.98032 2.21007 9.98788 2.24725 9.98818 2.28488C9.98864 2.29105 9.98864 2.29725 9.98818 2.30343V4.97185H9.44242V2.30343H9.44426ZM5.51931 6.66662V5.97073H10.4821V6.66662H5.51931ZM11.0361 7.66549V14.005H4.96391V7.66549H11.0361Z" fill="black"/>
</svg>
