<svg width="16" height="16" viewBox="0 0 16 16" fill="none" xmlns="http://www.w3.org/2000/svg">
<path d="M13.6519 10.8761V4.57889C13.6535 4.50573 13.6409 4.43299 13.6149 4.36505C13.5889 4.2971 13.55 4.23537 13.5006 4.18355C13.4104 4.08485 13.2878 4.02535 13.1575 4.01694L13.1211 4.01412H13.0818H2.89116C2.82181 4.01245 2.75284 4.02533 2.68834 4.05201C2.62384 4.07868 2.56511 4.11861 2.51563 4.16943C2.42319 4.25892 2.36468 4.38022 2.35083 4.51112V10.8705H1V11.455L1.01891 11.4889C1.24585 11.8786 2.32381 12 2.621 12H13.2871C13.5816 12 14.7514 11.8729 14.9784 11.4917L15 11.4578V10.8705L13.6519 10.8761ZM12.8441 4.84716V10.8761H3.16133V4.84716H12.8441Z" fill="black"/>
</svg>
