<svg width="16" height="16" viewBox="0 0 16 16" fill="none" xmlns="http://www.w3.org/2000/svg">
<path fill-rule="evenodd" clip-rule="evenodd" d="M5 1.25454C5 1.11396 5.11396 1 5.25454 1H10.7455C10.886 1 11 1.11396 11 1.25454C11 1.39513 10.886 1.50909 10.7455 1.50909H10.4145C10.3161 1.50909 10.2364 1.58887 10.2364 1.68727V7.87272C10.2364 8.92708 8.72709 9.78181 7.67272 9.78181C6.61836 9.78181 5.76364 8.92708 5.76364 7.87272V1.68727C5.76364 1.58887 5.68386 1.50909 5.58545 1.50909H5.25454C5.11396 1.50909 5 1.39513 5 1.25454ZM7.99091 4.43637C8.27207 4.43637 8.5 4.20845 8.5 3.92728C8.5 3.64611 8.27207 3.41819 7.99091 3.41819C7.70975 3.41819 7.48182 3.64611 7.48182 3.92728C7.48182 4.20845 7.70975 4.43637 7.99091 4.43637ZM8.5 5.70909C8.5 5.99026 8.27207 6.21818 7.99091 6.21818C7.70975 6.21818 7.48182 5.99026 7.48182 5.70909C7.48182 5.42793 7.70975 5.20001 7.99091 5.20001C8.27207 5.20001 8.5 5.42793 8.5 5.70909ZM7.99091 8C8.27207 8 8.5 7.77208 8.5 7.49091C8.5 7.20975 8.27207 6.98183 7.99091 6.98183C7.70975 6.98183 7.48182 7.20975 7.48182 7.49091C7.48182 7.77208 7.70975 8 7.99091 8ZM5.78609 8.76362H5.76364V14.3128C5.76364 14.4111 5.68386 14.4909 5.58545 14.4909H5.25454C5.11396 14.4909 5 14.6049 5 14.7455C5 14.8861 5.11396 15 5.25454 15H10.7455C10.886 15 11 14.8861 11 14.7455C11 14.6049 10.886 14.4909 10.7455 14.4909H10.4145C10.3161 14.4909 10.2364 14.4111 10.2364 14.3128V8.76362C10.2234 8.76362 10.2123 8.77299 10.2098 8.78574C10.0579 9.56782 8.61832 10.1636 7.67272 10.1636C6.71824 10.1636 5.92736 9.55656 5.78609 8.76362Z" fill="black"/>
</svg>
