<svg width="16" height="16" viewBox="0 0 16 16" fill="none" xmlns="http://www.w3.org/2000/svg">
<path d="M3.07062 6.15018C3.67216 5.0588 4.75504 4.38003 5.89849 4.3653H5.92854C6.4249 4.3653 6.8912 4.55686 7.31242 4.71942C7.61343 4.85204 7.88392 4.95519 8.07973 4.95519C8.27555 4.95519 8.53101 4.85204 8.83202 4.71942C9.28329 4.54259 9.83976 4.32109 10.4113 4.32109H10.6367C11.118 4.35056 12.3366 4.52739 13.1335 5.73711L13.1485 5.82553L13.1034 5.89921L13.0884 5.91395C12.863 6.0613 11.7045 6.8727 11.7195 8.42135C11.7346 10.3389 13.2537 11.0324 13.4345 11.106C13.4946 11.1355 13.5096 11.1945 13.4946 11.2534V11.2681C13.3894 11.5781 13.1184 12.389 12.562 13.2446C12.0356 14.0412 11.434 14.9558 10.4413 14.9853C9.99003 14.9853 9.67399 14.8526 9.37346 14.7048C9.07245 14.5722 8.75688 14.4244 8.26053 14.4244C7.73412 14.4244 7.40306 14.5717 7.08749 14.7196C6.80151 14.8522 6.50097 14.9853 6.09478 15H6.0497C5.1772 15 4.5456 14.1444 3.914 13.2004C2.65033 11.3123 1.92857 8.19985 3.07156 6.14972L3.07062 6.15018ZM10.6367 1.00229C10.6817 0.987554 10.7418 1.0465 10.7418 1.10544C10.832 1.85789 10.5615 2.71303 10.0351 3.37707C9.52372 4.01117 8.8015 4.4095 8.10979 4.4095L7.97455 4.39477C7.91444 4.39477 7.88439 4.35056 7.86936 4.30635C7.76417 3.43601 8.17037 2.59515 8.60662 2.07893C9.10297 1.4743 9.93039 1.03176 10.6371 1.00229H10.6367Z" fill="black"/>
</svg>
