<svg width="16" height="16" viewBox="0 0 16 16" fill="none" xmlns="http://www.w3.org/2000/svg">
<path fill-rule="evenodd" clip-rule="evenodd" d="M6.54628 1.14725C6.35393 0.949127 6.04205 0.949127 5.84969 1.14725L5.14543 1.87261C4.95307 2.07073 4.95307 2.39195 5.14543 2.59007L10.3983 8.00027L5.14597 13.4099C4.95361 13.608 4.95361 13.9293 5.14597 14.1274L5.85023 14.8527C6.04259 15.0509 6.35447 15.0509 6.54683 14.8527L12.1074 9.12564C12.122 9.11364 12.1362 9.10067 12.1497 9.08671L12.854 8.36135C12.9374 8.2754 12.9847 8.16626 12.9957 8.05407C13.0118 7.90605 12.9647 7.75214 12.8545 7.63863L12.1503 6.91328C12.1352 6.89772 12.1193 6.88339 12.1029 6.87028L6.54628 1.14725Z" fill="black"/>
</svg>
