<svg width="16" height="17" viewBox="0 0 16 17" fill="none" xmlns="http://www.w3.org/2000/svg">
<path d="M4.13832 12.0748L7.2069 9.63389V14.3065C7.2069 14.6552 7.48586 15.0039 7.9043 15.0039C8.04379 15.0039 8.18327 14.9342 8.32275 14.8644L12.5072 11.7261C12.7861 11.5169 12.8559 11.0287 12.6467 10.7497C12.5769 10.68 12.5769 10.68 12.5072 10.6103L9.22937 7.96012L12.5072 5.37972C12.7861 5.1705 12.8559 4.68232 12.6467 4.40336C12.5769 4.33362 12.5769 4.33362 12.5072 4.26388L8.32275 1.12556C7.97405 0.916335 7.5556 0.986076 7.27664 1.26504C7.2069 1.40452 7.13716 1.544 7.13716 1.68348V6.35609L4.13832 3.91517L3.2317 4.96128L6.92794 7.96012L3.2317 10.8892L4.06858 12.0051L4.13832 12.0748ZM8.60171 3.14803L10.9729 4.89154L8.60171 6.70479V3.14803ZM8.60171 9.28519L10.9729 11.1682L8.60171 12.9117V9.28519Z" fill="black"/>
</svg>
