<svg width="16" height="16" viewBox="0 0 16 16" fill="none" xmlns="http://www.w3.org/2000/svg">
<path d="M11.7798 7.99958C11.7798 8.87071 11.9478 9.56853 12.2837 10.093C12.6197 10.6175 12.9836 10.8798 13.3755 10.8798H14.2994C14.0194 11.2886 13.7208 11.5775 13.4035 11.7465C13.0862 11.9155 12.5355 12 11.7514 12H4.75163C3.53838 12 2.6098 11.5822 1.96588 10.7466C1.32196 9.91099 1 8.99546 1 8C1 7.02231 1.32196 6.11122 1.96588 5.26673C2.6098 4.42224 3.53838 4 4.75163 4H11.7514C12.5355 4 13.0862 4.0845 13.4035 4.25351C13.7208 4.42252 14.0194 4.71142 14.2994 5.1202H13.3755C12.9836 5.1202 12.6197 5.38689 12.2837 5.92028C11.9478 6.45367 11.7798 7.14705 11.7798 8.00042V7.99958ZM9.87603 9.19971C9.96927 9.09314 9.93198 8.97756 9.76415 8.85295C8.49496 7.66184 7.66427 6.93294 7.27209 6.66625C7.12291 6.57744 7.00156 6.51972 6.90803 6.49308C6.8145 6.46644 6.73044 6.48864 6.65585 6.55968C6.58126 6.63073 6.53465 6.68401 6.516 6.71953C6.49735 6.75506 6.46006 6.83512 6.40411 6.95973L6.09599 7.70652L4.02394 6.82652C3.78124 6.71995 3.62259 6.71995 3.548 6.82652C3.47341 6.95084 3.5107 7.07531 3.65988 7.19992C4.92907 8.37326 5.76908 9.09328 6.17991 9.35998C6.49721 9.50206 6.69315 9.55091 6.76774 9.5065C6.84233 9.4621 6.92639 9.32431 7.01992 9.09314L7.35601 8.3197L9.40009 9.22635C9.64279 9.33292 9.80144 9.32404 9.87603 9.19971ZM14.2159 6.63961C14.4213 6.63961 14.6033 6.75963 14.7618 6.99969C14.9203 7.23974 14.9997 7.55528 15 7.9463C15.0003 8.33732 14.9209 8.6573 14.7618 8.90623C14.6027 9.15517 14.4208 9.27963 14.2159 9.27963H13.684C13.4786 9.27963 13.3013 9.15517 13.1522 8.90623C13.003 8.6573 12.9284 8.33732 12.9284 7.9463C12.9284 7.55528 13.003 7.23974 13.1522 6.99969C13.3013 6.75963 13.4786 6.63961 13.684 6.63961H14.2159Z" fill="black"/>
</svg>
