<svg width="16" height="16" viewBox="0 0 16 16" fill="none" xmlns="http://www.w3.org/2000/svg">
<path d="M9.24585 2.10295C9.25373 2.05831 9.26073 2.01408 9.26073 1.9673C9.26073 1.43322 8.78929 1 8.20814 1C7.62672 1 7.15481 1.43322 7.15481 1.9673C7.15481 2.03202 7.16293 2.09505 7.17593 2.15638C5.39193 2.571 4.6778 3.84546 4.6778 3.84546H11.9863C11.9863 3.84546 11.2112 2.45031 9.24585 2.10295ZM7.98099 11.0792H9.21564V10.7357H7.98099V10.0748H9.21564V9.73171H7.98099V8.98656H9.21564V8.64302H7.98099V7.96951H9.21564V7.62596H7.98099V7.03361H9.21564V6.69052H7.98099V5.93815H7.56766V11.8316H7.98099V11.0792ZM9.46762 13.1411H13.5968C13.9264 9.23307 13.1425 6.69091 13.1425 6.69091C13.1425 6.69091 14.7526 5.74243 15 4.30089H4.43064C4.43064 4.30089 4.26117 4.58352 4.04123 5.1825C2.798 5.53777 1.05654 6.50504 1.00168 8.37426C0.945411 10.3037 2.32051 11.6358 3.02233 12.1891C3.02045 12.498 3.01953 12.8116 3.02605 13.1415H6.9483V13.5589H2.59299V15H14.0711V13.5585H9.46714V13.1411H9.46762ZM2.32332 8.40764C2.34913 7.52837 2.98331 6.9894 3.60422 6.67044C3.38081 7.61721 3.176 8.87207 3.08 10.4721C2.66666 9.95341 2.29867 9.25099 2.32332 8.40764ZM8.27089 4.92088C9.44064 4.92088 10.3901 6.63671 10.3901 8.75287C10.3901 10.8686 9.44064 12.5844 8.27089 12.5844C7.10013 12.5844 6.15117 10.8686 6.15117 8.75287C6.15117 6.63668 7.10013 4.92088 8.27089 4.92088Z" fill="black"/>
</svg>
