<svg width="16" height="17" viewBox="0 0 16 17" fill="none" xmlns="http://www.w3.org/2000/svg">
<path d="M12.8903 6.91805H12.2226V3.59901C12.1696 2.86554 11.8308 2.18248 11.2795 1.69771C10.7281 1.21293 10.0086 0.965425 9.2766 1.00877C8.93212 0.992082 8.58796 1.0475 8.26601 1.1715C7.94406 1.29551 7.65138 1.48537 7.40659 1.72902C7.16181 1.97268 6.97028 2.26477 6.84421 2.58672C6.71813 2.90866 6.66027 3.25341 6.6743 3.59901V12.4038C6.70799 12.8378 6.57377 13.2682 6.2995 13.6056C6.02524 13.9431 5.63197 14.1616 5.20131 14.216C3.89525 14.216 3.69885 13.0834 3.69885 12.4038V5.50967H3.96399C4.0538 5.51098 4.14296 5.49436 4.22631 5.4608C4.30965 5.42723 4.38551 5.37738 4.44947 5.31415C4.51344 5.25091 4.56423 5.17556 4.59889 5.09246C4.63355 5.00936 4.6514 4.92018 4.65139 4.83011V2.12169H4.21931V1.18605H2.40262V2.17093H2V4.83995C1.99999 4.93003 2.01784 5.01921 2.0525 5.10231C2.08716 5.18541 2.13795 5.26076 2.20192 5.324C2.26588 5.38723 2.34174 5.43708 2.42508 5.47065C2.50843 5.50421 2.59759 5.52083 2.6874 5.51952H2.92308V12.4137C2.92308 14.0092 3.78723 15.0039 5.20131 15.0039C5.83952 14.951 6.43215 14.6511 6.85372 14.1676C7.27529 13.6841 7.49269 13.0551 7.4599 12.4137V3.59901C7.44384 3.35601 7.4799 3.11239 7.56566 2.88456C7.65141 2.65673 7.78486 2.44998 7.95702 2.27824C8.12918 2.10651 8.33605 1.97379 8.56368 1.88902C8.7913 1.80425 9.0344 1.7694 9.2766 1.78683C9.53778 1.75976 9.80173 1.78549 10.0528 1.8625C10.3039 1.93952 10.5371 2.06624 10.7385 2.2352C10.9399 2.40415 11.1055 2.61189 11.2255 2.84614C11.3455 3.08039 11.4174 3.33639 11.437 3.59901V6.91805H10.779C10.6359 6.91675 10.4939 6.94374 10.3612 6.99748C10.2284 7.05123 10.1075 7.13067 10.0054 7.23127C9.90327 7.33187 9.8219 7.45166 9.76593 7.5838C9.70997 7.71595 9.6805 7.85785 9.67921 8.00142V12.5023H10.3666V14.6789H13.3126V12.4925H14V7.99157C13.9974 7.848 13.9667 7.70634 13.9096 7.57468C13.8524 7.44303 13.77 7.32395 13.6669 7.22426C13.5639 7.12457 13.4422 7.04622 13.309 6.99368C13.1758 6.94114 13.0335 6.91544 12.8903 6.91805ZM11.1522 13.8122V13.241H11.3781V13.8122H11.1522ZM12.2815 13.8122V13.241H12.5172V13.8122H12.2815ZM10.4648 7.99157C10.4648 7.95063 10.473 7.91011 10.4889 7.87241C10.5048 7.83471 10.5281 7.8006 10.5574 7.77212C10.5867 7.74364 10.6215 7.72136 10.6595 7.70661C10.6976 7.69185 10.7383 7.68493 10.779 7.68625H12.8903C12.9303 7.68625 12.9699 7.69415 13.0068 7.7095C13.0438 7.72484 13.0773 7.74733 13.1056 7.77568C13.1339 7.80403 13.1563 7.83769 13.1716 7.87473C13.1869 7.91177 13.1948 7.95147 13.1948 7.99157V11.7243H10.4648V7.99157Z" fill="black"/>
</svg>
