<svg width="16" height="16" viewBox="0 0 16 16" fill="none" xmlns="http://www.w3.org/2000/svg">
<path fill-rule="evenodd" clip-rule="evenodd" d="M3.52174 12.8695H8.04271C8.31267 13.8185 8.99016 14.5955 9.87426 15H3.52174C2.68265 15 2 14.3173 2 13.4783V2.52174C2 1.68265 2.68265 1 3.52174 1H10.0435C10.8826 1 11.5652 1.68265 11.5652 2.52174V8.62422C11.4648 8.61507 11.3637 8.60871 11.2609 8.60871C10.9441 8.60871 10.6385 8.65584 10.3479 8.73833V2.82608C10.3479 2.65808 10.2115 2.52174 10.0435 2.52174H3.52174C3.35374 2.52174 3.21739 2.65808 3.21739 2.82608V12.5652C3.21739 12.7332 3.35374 12.8695 3.52174 12.8695ZM8.52174 11.9565C8.52174 10.446 9.75042 9.21742 11.2609 9.21742C12.7714 9.21742 14 10.446 14 11.9565C14 13.467 12.7714 14.6957 11.2609 14.6957C9.75042 14.6957 8.52174 13.467 8.52174 11.9565ZM10.8674 13.3891L12.9978 11.2587C13.1168 11.1397 13.1168 10.9473 12.9978 10.8283C12.8788 10.7093 12.6864 10.7093 12.5674 10.8283L10.6522 12.7435L9.95435 12.0457C9.83535 11.9267 9.64297 11.9267 9.52397 12.0457C9.40497 12.1647 9.40497 12.357 9.52397 12.476L10.437 13.3891C10.4964 13.4485 10.5743 13.4783 10.6522 13.4783C10.7301 13.4783 10.808 13.4485 10.8674 13.3891Z" fill="black"/>
</svg>
