<svg width="16" height="16" viewBox="0 0 16 16" fill="none" xmlns="http://www.w3.org/2000/svg">
<path d="M13.4445 2.5555C13.88 2.5555 14.2481 2.70589 14.5488 3.00666C14.8496 3.30743 15 3.67555 15 4.111V13.4445C15 13.8592 14.8496 14.2222 14.5488 14.5333C14.2481 14.8444 13.88 15 13.4445 15H2.5555C2.14077 15 1.77783 14.8444 1.4667 14.5333C1.15557 14.2222 1 13.8592 1 13.4445V4.111C1 3.67555 1.15557 3.30743 1.4667 3.00666C1.77783 2.70589 2.14077 2.5555 2.5555 2.5555H3.27085V4.111H5.75975V2.5555H10.2708V4.111H12.7597V2.5555H13.444H13.4445ZM13.4445 13.4445V7.22201H2.5555V13.4445H13.4445ZM5.0444 1V3.6443H3.9556V1H5.0444ZM12.0444 1V3.6443H10.9556V1H12.0444Z" fill="black"/>
</svg>
