<svg width="16" height="16" viewBox="0 0 16 16" fill="none" xmlns="http://www.w3.org/2000/svg">
<path d="M9.74255 10.0891C10.0028 9.6507 10.3848 9.42626 10.892 9.42014C11.3993 9.41401 11.6551 9.1537 11.6634 8.64139C11.6705 8.13126 11.8907 7.74583 12.3254 7.48464C12.761 7.22258 12.8555 6.86995 12.6076 6.42327C12.3606 5.97789 12.3606 5.53252 12.6076 5.08583C12.856 4.64046 12.7619 4.28827 12.3254 4.02621C11.8907 3.76327 11.67 3.37827 11.6634 2.86596C11.6551 2.35584 11.3993 2.09552 10.892 2.0894C10.3852 2.0824 10.0028 1.85884 9.74255 1.42046C9.48233 0.980776 9.13288 0.885839 8.69113 1.13609C8.24937 1.38503 7.80673 1.38503 7.36497 1.13609C6.92277 0.886276 6.57288 0.981213 6.3131 1.42046C6.05376 1.85927 5.67091 2.08284 5.16409 2.0894C4.65816 2.09552 4.40102 2.35584 4.39398 2.86596C4.38563 3.37827 4.16541 3.76283 3.73069 4.02621C3.29508 4.28827 3.19926 4.64002 3.44849 5.08583C3.69684 5.53252 3.69684 5.97789 3.44849 6.42327C3.19926 6.86995 3.2942 7.22301 3.73069 7.48464C4.16541 7.74583 4.38607 8.13126 4.39398 8.64139C4.40102 9.15326 4.22462 9.41445 4.73055 9.42014C5.23736 9.42626 6.05332 9.6507 6.31354 10.0891C6.57376 10.5288 6.92321 10.6237 7.36497 10.3721C7.80673 10.1254 8.24937 10.1254 8.69113 10.3721C9.13288 10.6228 9.48321 10.5283 9.74255 10.0891ZM8.02915 8.55214C6.4964 8.55214 5.2542 7.29958 5.2542 5.75345C5.2542 4.20864 6.4964 2.95608 8.02915 2.95608C9.56102 2.95608 10.8028 4.20864 10.8028 5.75345C10.8028 7.29958 9.56058 8.55214 8.02915 8.55214ZM4.68615 9.83051C5.9156 9.85764 5.51912 10.8735 6.51604 10.8989C6.51604 10.8718 4.59253 14.9195 4.59253 14.9195L3.66945 13.5186L2 13.7076L4.0822 9.58026C4.0822 9.58026 4.15297 9.83051 4.68615 9.83051ZM11.8919 9.74214L14 13.7072L12.3578 13.4911L11.7802 15L9.43209 10.9256C9.43209 10.9256 9.93187 11.01 10.3323 10.5795C10.68 10.2838 10.371 9.9027 11.8919 9.74214ZM8.60893 5.13658L8.02827 3.95096L7.44717 5.13658L6.14739 5.32821L7.08673 6.2522L6.86519 7.55858L8.02827 6.94258L9.19135 7.55858L8.96981 6.2522L9.90915 5.32821L8.60893 5.13658Z" fill="black"/>
</svg>
