<svg width="16" height="17" viewBox="0 0 16 17" fill="none" xmlns="http://www.w3.org/2000/svg">
<path d="M13.2674 9.5039H6.14238L6.30146 10.2539H12.8255C13.1998 10.2539 13.4773 10.5891 13.3943 10.9411L13.2602 11.51C13.7145 11.7227 14.0278 12.1717 14.0278 12.6914C14.0278 13.4227 13.4075 14.0143 12.6466 14.0038C11.9218 13.9937 11.3256 13.4265 11.3061 12.7277C11.2954 12.3459 11.454 12 11.7145 11.7539H6.61886C6.87108 11.9921 7.02778 12.324 7.02778 12.6914C7.02778 13.437 6.383 14.0374 5.60177 14.0025C4.90809 13.9714 4.34393 13.4309 4.30748 12.7622C4.27933 12.2458 4.56113 11.7906 4.98927 11.5532L3.28188 3.50391H1.58333C1.26116 3.50391 1 3.25207 1 2.94141V2.56641C1 2.25574 1.26116 2.00391 1.58333 2.00391H4.07536C4.35247 2.00391 4.59132 2.1919 4.64686 2.45367L4.86964 3.50391H14.4164C14.7908 3.50391 15.0682 3.83909 14.9853 4.19107L13.8363 9.06607C13.7759 9.32217 13.5398 9.5039 13.2674 9.5039Z" fill="black"/>
<path d="M9.3154 4.58154C8.25037 4.58154 7.38133 5.39233 7.3372 6.40416L7.87896 6.41483C7.91742 5.68632 8.54813 5.104 9.31552 5.104C9.7069 5.104 10.0664 5.25674 10.3232 5.50659L10.1268 5.69259L10.1253 5.69421C10.0986 5.72222 10.0799 5.75924 10.0842 5.79712C10.089 5.83965 10.1209 5.86977 10.1664 5.88075L11.135 6.06986C11.1893 6.08204 11.2496 6.06867 11.2913 6.02971C11.3349 5.98901 11.3524 5.92583 11.3315 5.85145L11.1046 4.99545C11.0975 4.96569 11.0734 4.9363 11.0441 4.91922C11.0121 4.90051 10.9663 4.89259 10.9234 4.92129L10.6952 5.12439C10.3469 4.79553 9.86899 4.58842 9.34243 4.58154H9.3154Z" fill="white"/>
<path d="M9.36208 8.44197C10.4271 8.44197 11.2961 7.63118 11.3403 6.61935L10.7985 6.60868C10.7601 7.33719 10.1294 7.91951 9.36196 7.91951C8.97058 7.91951 8.61104 7.76677 8.35433 7.51692L8.55068 7.33092L8.55222 7.3293C8.57885 7.30129 8.59756 7.26427 8.59329 7.22639C8.58851 7.18386 8.55659 7.15374 8.51103 7.14276L7.54245 6.95365C7.48821 6.94147 7.42793 6.95484 7.38618 6.9938C7.34257 7.0345 7.3251 7.09768 7.34602 7.17206L7.57285 8.02806C7.57999 8.05781 7.60406 8.08721 7.63334 8.10429C7.66541 8.123 7.71119 8.13092 7.75412 8.10222L7.98228 7.89912C8.33057 8.22798 8.80848 8.43509 9.33505 8.44197H9.36208Z" fill="white"/>
</svg>
