<svg width="16" height="16" viewBox="0 0 16 16" fill="none" xmlns="http://www.w3.org/2000/svg">
<path fill-rule="evenodd" clip-rule="evenodd" d="M2.58867 1.68679C2.33962 1.43774 1.93584 1.43774 1.68679 1.68679C1.43774 1.93584 1.43774 2.33962 1.68679 2.58867L7.09812 8.00001L1.68681 13.4113C1.43776 13.6604 1.43776 14.0642 1.68681 14.3132C1.93585 14.5623 2.33964 14.5623 2.58869 14.3132L8.00001 8.90189L13.4113 14.3132C13.6604 14.5622 14.0641 14.5622 14.3132 14.3132C14.5622 14.0641 14.5622 13.6604 14.3132 13.4113L8.90189 8.00001L14.3132 2.58869C14.5623 2.33964 14.5623 1.93585 14.3132 1.6868C14.0642 1.43775 13.6604 1.43775 13.4113 1.6868L8.00001 7.09812L2.58867 1.68679Z" fill="black"/>
</svg>
