<svg width="16" height="16" viewBox="0 0 16 16" fill="none" xmlns="http://www.w3.org/2000/svg">
<path d="M3.18422 7.99956C3.18422 6.87019 3.58559 5.87617 4.38833 5.01748L4.99016 1.71372C5.02746 1.5083 5.12551 1.34033 5.28431 1.20979C5.44311 1.07925 5.63439 1.00932 5.85817 1H9.35817C9.56359 1 9.74555 1.06993 9.90406 1.20979C10.0626 1.34965 10.1653 1.51763 10.2122 1.71372L10.842 5.12981C11.374 5.72713 11.71 6.39918 11.8499 7.14598L11.8778 7.13199C11.8965 7.12267 11.9151 7.11801 11.9338 7.11801C12.1672 7.11801 12.3724 7.20673 12.5496 7.38418C12.7268 7.56163 12.8155 7.7669 12.8158 8C12.8161 8.2331 12.7273 8.43837 12.5496 8.61582C12.3719 8.79327 12.1666 8.87733 11.9338 8.86801C11.9151 8.86801 11.8965 8.86801 11.8778 8.86801L11.8499 8.85402C11.6911 9.63811 11.3365 10.3288 10.7861 10.9261L10.1562 14.2863C10.119 14.4917 10.0256 14.6597 9.87609 14.7902C9.72661 14.9207 9.53999 14.9907 9.31621 15H5.81621C5.59214 15 5.40552 14.9301 5.25633 14.7902C5.10715 14.6503 5.0091 14.4824 4.96219 14.2863L4.33238 10.9261C3.56694 10.0861 3.18422 9.11028 3.18422 7.99956ZM4.06621 7.99956C4.06621 8.96081 4.40683 9.78686 5.08807 10.4777C5.7693 11.1686 6.59535 11.5092 7.56621 11.4996C8.53707 11.4899 9.35832 11.1493 10.0299 10.4777C10.7016 9.80609 11.0468 8.98004 11.0658 7.99956C11.0847 7.01908 10.7394 6.19304 10.0299 5.52142C9.32044 4.8498 8.4992 4.50918 7.56621 4.49956C6.63323 4.48995 5.80718 4.83057 5.08807 5.52142C4.36895 6.21227 4.02833 7.03832 4.06621 7.99956ZM4.50022 7.99956C4.50022 7.86903 4.54217 7.76632 4.62609 7.69143C4.71001 7.61655 4.81272 7.57459 4.93422 7.56556C5.05572 7.55653 5.16309 7.59848 5.25633 7.69143C5.34957 7.78438 5.38687 7.88709 5.36822 7.99956C5.34957 8.11203 5.31228 8.21474 5.25633 8.30769C5.20039 8.40064 5.09302 8.4426 4.93422 8.43357C4.77542 8.42453 4.67271 8.38258 4.62609 8.30769C4.57947 8.23281 4.53751 8.1301 4.50022 7.99956ZM5.25633 9.84746C5.25633 9.72625 5.29829 9.62354 5.38221 9.53934C5.46612 9.45513 5.5735 9.41783 5.70432 9.42745C5.83515 9.43706 5.93786 9.47436 6.01245 9.53934C6.08705 9.60431 6.129 9.70702 6.13833 9.84746C6.14765 9.98791 6.10569 10.0906 6.01245 10.1556C5.91921 10.2206 5.8165 10.2672 5.70432 10.2955C5.59214 10.3237 5.48477 10.2771 5.38221 10.1556C5.27964 10.0341 5.23769 9.93138 5.25633 9.84746ZM5.25633 6.13767C5.25633 6.01646 5.29829 5.91375 5.38221 5.82955C5.46612 5.74534 5.5735 5.70338 5.70432 5.70367C5.83515 5.70396 5.93786 5.74592 6.01245 5.82955C6.08705 5.91317 6.129 6.01588 6.13833 6.13767C6.14765 6.25947 6.10569 6.36684 6.01245 6.45979C5.91921 6.55274 5.8165 6.59003 5.70432 6.57168C5.59214 6.55332 5.48477 6.51603 5.38221 6.45979C5.27964 6.40355 5.23769 6.29618 5.25633 6.13767ZM5.36822 11.7657L5.81621 14.1316H9.31621L9.75022 11.7657C9.05966 12.167 8.33166 12.3676 7.56621 12.3676C6.80077 12.3676 6.06811 12.167 5.36822 11.7657ZM5.42417 4.21984C6.11473 3.82794 6.84273 3.63199 7.60817 3.63199C8.37361 3.63199 9.10628 3.82794 9.80616 4.21984L9.35817 1.88199H5.85817L5.42417 4.21984ZM7.11822 10.6176C7.11822 10.4964 7.16018 10.3936 7.2441 10.3094C7.32801 10.2252 7.43538 10.1833 7.56621 10.1836C7.69704 10.1839 7.79975 10.2258 7.87434 10.3094C7.94893 10.3931 7.99089 10.4958 8.00022 10.6176C8.00954 10.7394 7.96758 10.8467 7.87434 10.9397C7.7811 11.0326 7.67839 11.0746 7.56621 11.0656C7.45403 11.0565 7.34666 11.0146 7.2441 10.9397C7.14153 10.8648 7.09957 10.7574 7.11822 10.6176ZM7.11822 7.99956C7.11822 7.86903 7.16484 7.76632 7.25808 7.69143L9.526 5.81556C9.60059 5.75962 9.66586 5.76428 9.72181 5.82955C9.77775 5.89481 9.78707 5.96008 9.74978 6.02535L8.68597 7.34135L7.85992 8.32124C7.78533 8.39583 7.68728 8.43313 7.56577 8.43313C7.44427 8.43313 7.3369 8.39117 7.24366 8.30725C7.15042 8.22334 7.1089 8.12107 7.11822 7.99956ZM7.11822 5.36757C7.11822 5.24636 7.16018 5.14365 7.2441 5.05944C7.32801 4.97523 7.43538 4.93327 7.56621 4.93357C7.69704 4.93386 7.79975 4.97582 7.87434 5.05944C7.94893 5.14306 7.99089 5.24578 8.00022 5.36757C8.00954 5.48936 7.96758 5.59674 7.87434 5.68969C7.7811 5.78263 7.67839 5.82459 7.56621 5.81556C7.45403 5.80653 7.34666 5.76457 7.2441 5.68969C7.14153 5.6148 7.09957 5.50743 7.11822 5.36757ZM8.98011 9.84746C8.98011 9.72625 9.02207 9.62354 9.10598 9.53934C9.1899 9.45513 9.28795 9.41783 9.40013 9.42745C9.51231 9.43706 9.61968 9.47436 9.72224 9.53934C9.82481 9.60431 9.87143 9.71168 9.8621 9.86145C9.8621 9.97334 9.81548 10.0714 9.72224 10.1556C9.629 10.2398 9.52163 10.2864 9.40013 10.2955C9.27862 10.3045 9.18058 10.2579 9.10598 10.1556C9.03139 10.0533 8.98943 9.95061 8.98011 9.84746ZM9.75022 7.99956C9.75022 7.86903 9.79217 7.76632 9.87609 7.69143C9.96001 7.61655 10.0627 7.57459 10.1842 7.56556C10.3057 7.55653 10.4084 7.59848 10.4923 7.69143C10.5763 7.78438 10.6182 7.88709 10.6182 7.99956C10.6182 8.11203 10.5763 8.21474 10.4923 8.30769C10.4084 8.40064 10.3057 8.4426 10.1842 8.43357C10.0627 8.42453 9.96001 8.38258 9.87609 8.30769C9.79217 8.23281 9.75022 8.1301 9.75022 7.99956Z" fill="black"/>
</svg>
