<svg width="16" height="16" viewBox="0 0 16 16" fill="none" xmlns="http://www.w3.org/2000/svg">
<path fill-rule="evenodd" clip-rule="evenodd" d="M1.51302 3C1.23386 3 1 3.21583 1 3.4914V10.8181C1 11.0938 1.23423 11.3095 1.51302 11.3095H7.3998V11.8961L7.39919 11.8982C7.39755 11.9036 7.39291 11.9157 7.38047 11.9322C7.35682 11.9634 7.30054 12.0161 7.16961 12.0651C6.66671 12.0505 6.16568 12.1323 5.69654 12.3065L5.68774 12.3097L5.67973 12.3146C5.63375 12.3424 5.59554 12.3729 5.56767 12.4056C5.54124 12.4365 5.51596 12.4792 5.51596 12.5294V12.633C5.51596 12.7137 5.57302 12.7657 5.62098 12.7952C5.67138 12.8263 5.73798 12.8499 5.81139 12.8689C5.95978 12.9073 6.16463 12.9341 6.39825 12.9532C6.86715 12.9914 7.47249 13 8.02184 13C8.57123 13 9.17284 12.9914 9.63982 12.9539C9.87255 12.9353 10.0767 12.9091 10.2254 12.8718C10.2991 12.8533 10.3657 12.8306 10.4165 12.8009C10.4639 12.7732 10.5227 12.7244 10.5277 12.646V12.5294C10.5277 12.4777 10.5044 12.4349 10.475 12.4017C10.4464 12.3695 10.4077 12.341 10.3638 12.3145L10.3561 12.3098L10.3476 12.3066C9.85104 12.1195 9.32027 12.0282 8.78635 12.0377C8.67512 11.9984 8.62133 11.9544 8.59509 11.9235C8.5736 11.8982 8.56678 11.8774 8.56397 11.8647V11.282H14.487C14.7661 11.282 15 11.0661 15 10.7906V3.4917C15 3.21628 14.7663 3 14.4873 3H1.51302ZM2.28986 3.95527C2.29933 3.95458 2.30872 3.95435 2.31772 3.95458L13.6798 3.95463L13.6817 3.95459C13.8281 3.95186 13.9414 4.0617 13.9449 4.18984L13.9452 9.85191C13.9452 9.97998 13.8338 10.0918 13.6868 10.0918L2.32019 10.0918L2.31834 10.0918C2.1719 10.0945 2.0586 9.9847 2.05515 9.85654L2.05552 4.22205L2.05478 4.2136C2.0437 4.08623 2.14362 3.96667 2.28986 3.95527Z" fill="black"/>
</svg>
