<svg width="16" height="16" viewBox="0 0 16 16" fill="none" xmlns="http://www.w3.org/2000/svg">
<path d="M7.9717 11.0079L8.8713 10.0156L7.67636 8.71777L6.77676 9.71006V10.1833H7.52189V11.0079H7.9717ZM11.4156 4.87108C11.3314 4.77957 11.247 4.77957 11.1624 4.87108L8.40745 7.86321C8.3232 7.95472 8.3232 8.04639 8.40745 8.13822C8.49171 8.23004 8.57611 8.23004 8.66066 8.13822L11.4156 5.14608C11.4999 5.05457 11.4999 4.9629 11.4156 4.87108ZM12.0484 9.92406V11.5421C12.0484 12.224 11.8283 12.8042 11.388 13.2827C10.9477 13.7612 10.4135 14.0003 9.78538 14H3.26305C2.63523 14 2.10103 13.7609 1.66044 13.2827C1.21985 12.8045 0.999708 12.2243 1 11.5421V4.45834C1 3.78664 1.22015 3.21153 1.66044 2.73302C2.10073 2.25451 2.63494 2.01017 3.26305 2H9.78538C10.1133 2 10.4179 2.07117 10.699 2.21352C10.7833 2.25419 10.8301 2.32028 10.8395 2.41179C10.8582 2.51346 10.8348 2.5948 10.7692 2.65581L10.3896 3.08333C10.3148 3.16467 10.2304 3.185 10.1364 3.14433C10.0147 3.11383 9.89757 3.09858 9.78494 3.09858H3.26261C2.91593 3.09858 2.62075 3.23092 2.37705 3.49559C2.13335 3.76027 2.00682 4.08086 1.99746 4.45738V11.5412C1.99746 11.9177 2.12399 12.2383 2.37705 12.503C2.63011 12.7677 2.92529 12.9051 3.26261 12.9152H9.78494C10.1316 12.9152 10.4268 12.7778 10.6705 12.503C10.9142 12.2281 11.036 11.9075 11.036 11.5412V10.4726C11.036 10.4015 11.0595 10.3405 11.1063 10.2896L11.6122 9.74009C11.6871 9.65875 11.7809 9.63841 11.8935 9.67908C12.0062 9.71975 12.0576 9.8011 12.048 9.92311L12.0484 9.92406ZM11.2893 3.64954L13.5523 6.09214L8.28107 11.8171H6.01802V9.37453L11.2893 3.64954ZM14.7753 4.76432L14.0583 5.55834L11.7952 3.10048L12.5123 2.30646C12.6621 2.15394 12.8401 2.07769 13.0463 2.07769C13.2526 2.07769 13.4306 2.15394 13.5804 2.30646L14.7753 3.60426C14.9251 3.76726 15 3.9606 15 4.18429C15 4.40798 14.9251 4.60132 14.7753 4.76432Z" fill="black"/>
</svg>
