<svg width="16" height="16" viewBox="0 0 16 16" fill="none" xmlns="http://www.w3.org/2000/svg">
<path d="M8.00013 14.9992H14.3C14.6864 14.9992 15 14.494 15 14.0899C15 13.6857 14.6864 13.25 14.3 13.25H8.00013C7.61374 13.25 7.30015 13.6857 7.30015 14.0899C7.30015 14.494 7.61374 14.9992 8.00013 14.9992ZM10.6552 1.66917L1.90535 10.8209C1.81995 10.9095 1.75346 11.0259 1.72126 11.1613L1.02127 14.0899C0.99397 14.1997 0.99187 14.3227 1.02127 14.445C1.11507 14.8374 1.49516 15.0761 1.87035 14.978L4.6703 14.2458C4.7872 14.2158 4.90129 14.1514 4.99579 14.0533L13.7456 4.90156C14.1719 4.45569 14.3854 3.86925 14.3854 3.28573C14.3854 2.70222 14.1719 2.11578 13.7456 1.66991C13.3193 1.22403 12.7579 1 12.2001 1C11.6422 1 11.0815 1.2233 10.6552 1.66917ZM11.645 2.70442C11.7983 2.54408 11.9978 2.46427 12.2001 2.46427C12.4023 2.46427 12.6018 2.54408 12.7551 2.70442C12.9084 2.86475 12.9847 3.07341 12.9847 3.285C12.9847 3.49659 12.9084 3.70525 12.7551 3.86559L4.14251 12.8738L2.66204 13.2611L3.03233 11.7126L11.645 2.70442Z" fill="black"/>
</svg>
