<svg width="16" height="16" viewBox="0 0 16 16" fill="none" xmlns="http://www.w3.org/2000/svg">
<path d="M4.65575 1C3.81466 1 3.12804 1.91018 3.12804 3.01621C3.12804 4.13666 3.8151 5.04684 4.65575 5.04684C5.49641 5.04684 6.19747 4.13666 6.19747 3.01621C6.19747 1.91018 5.51041 1 4.65575 1ZM11.3421 1C10.487 1 9.80035 1.91018 9.80035 3.01621C9.80035 4.13666 10.4874 5.04684 11.3421 5.04684C12.1832 5.04684 12.8838 4.13666 12.8838 3.01621C12.8838 1.91018 12.1827 1 11.3421 1ZM14.2579 10.7851C14.0758 10.7851 13.8793 10.855 13.7393 11.0089C13.6833 11.0649 13.6273 11.1208 13.5713 11.1768C12.0155 12.7029 10.0248 13.4732 8.02057 13.4872C6.0303 13.5152 4.02559 12.7868 2.46987 11.3167L2.25981 11.1068C1.9653 10.8126 1.50274 10.8266 1.20866 11.1208C0.928154 11.415 0.928154 11.8911 1.22267 12.1849C1.26468 12.2408 1.3347 12.2968 1.41872 12.3807L1.46073 12.4227C3.31096 14.1591 5.67977 15.0273 8.03501 14.9993C10.4038 14.9854 12.7591 14.0612 14.5953 12.2688C14.6653 12.1989 14.7213 12.1289 14.7913 12.073C15.0718 11.7648 15.0718 11.2887 14.7773 10.9949C14.6373 10.855 14.4539 10.7851 14.2579 10.7851Z" fill="black"/>
</svg>
