<svg width="16" height="16" viewBox="0 0 16 16" fill="none" xmlns="http://www.w3.org/2000/svg">
<path d="M13.5 1L11.288 12.2141C10.77 13.8942 9.41202 15 7.89974 15H2.5L4.57218 4.48612L4.6561 4.12204C4.67009 4.08008 4.67009 4.03812 4.68407 3.99616C5.18802 2.20415 6.61595 1 8.22614 1H13.5ZM5.42666 5.75976L4.34883 11.4719L4.41877 11.4579C4.75488 11.4579 5.06258 11.3321 5.35673 11.0519C5.6369 10.7717 5.81872 10.436 5.88865 10.044L6.16882 8.58809H8.47877C8.81488 8.58809 9.13657 8.44822 9.43072 8.18204C9.71089 7.90188 9.89271 7.5662 9.97663 7.17414L9.99062 7.10421H6.44855L6.67233 5.95601H10.0182C10.3543 5.95601 10.662 5.81615 10.9561 5.54997C11.2363 5.2698 11.4181 4.92014 11.502 4.52808L11.516 4.45815H6.89612C6.56 4.45815 6.23832 4.59801 5.95815 4.87818C5.664 5.15835 5.48261 5.49358 5.42666 5.75976Z" fill="black"/>
</svg>
