<svg width="16" height="17" viewBox="0 0 16 17" fill="none" xmlns="http://www.w3.org/2000/svg">
<path fill-rule="evenodd" clip-rule="evenodd" d="M15 10.9186V2.16862C15 1.52695 14.475 1.00195 13.8333 1.00195H9.16667C8.525 1.00195 8 1.52695 8 2.16862V3.94779C8.37334 4.28029 8.67667 4.69445 8.875 5.16112V2.60612C8.875 2.20362 9.20167 1.87695 9.60417 1.87695H13.3958C13.7983 1.87695 14.125 2.20362 14.125 2.60612V9.46029H8.875V7.94362C8.67084 8.41029 8.37334 8.81862 8 9.15112V9.46029H8.14584C9.69167 9.46029 10.9633 10.6036 11.1733 12.0853H13.8333C14.475 12.0853 15 11.5603 15 10.9186ZM10.625 4.79366C10.625 5.27607 11.0176 5.66866 11.5 5.66866C11.9824 5.66866 12.375 5.27607 12.375 4.79366C12.375 4.31124 11.9824 3.91866 11.5 3.91866C11.0176 3.91866 10.625 4.31124 10.625 4.79366ZM12.8125 8.00195H10.1875C9.946 8.00195 9.75 7.80595 9.75 7.56445C9.75 6.84054 10.3386 6.25195 11.0625 6.25195H11.9375C12.6614 6.25195 13.25 6.84054 13.25 7.56445C13.25 7.80595 13.054 8.00195 12.8125 8.00195ZM1.4375 15.0019H9.89583C10.1373 15.0019 10.3333 14.8059 10.3333 14.5644V12.5227C10.3333 11.3164 9.35216 10.3353 8.14583 10.3353H3.1875C1.98116 10.3353 0.999996 11.3164 0.999996 12.5227V14.5644C0.999996 14.8059 1.196 15.0019 1.4375 15.0019ZM3.09996 6.01866C3.09996 6.00699 3.09996 5.98949 3.10579 5.97782C3.36246 4.79949 4.41246 3.91866 5.66662 3.91866C6.92662 3.91866 7.98246 4.81116 8.23329 5.99532C8.23329 5.99824 8.23475 6.00261 8.23621 6.00699C8.23767 6.01136 8.23912 6.01574 8.23912 6.01866C8.23621 6.01866 8.23183 6.02011 8.22746 6.02157C8.22308 6.02303 8.21871 6.02449 8.21579 6.02449C7.23579 6.28699 6.59996 5.21949 6.57662 5.17282C6.52996 5.09699 6.45412 5.04449 6.36662 5.03282C6.27912 5.02116 6.19162 5.04449 6.12162 5.10866C4.8906 6.25258 3.24917 6.03815 3.10189 6.01891L3.09996 6.01866ZM6.26743 5.75026C6.54743 6.10026 7.10743 6.64859 7.89493 6.64859C8.02326 6.64859 8.1516 6.63692 8.28576 6.60192C8.2916 6.68359 8.28577 6.75942 8.2741 6.83526C8.12826 8.14775 7.0141 9.16859 5.6666 9.16859C4.32493 9.16859 3.2166 8.15359 3.0591 6.85276C3.04743 6.77109 3.0416 6.68942 3.04743 6.60192C3.36826 6.64276 4.93743 6.79442 6.26743 5.75026Z" fill="black"/>
</svg>
