<svg width="16" height="16" viewBox="0 0 16 16" fill="none" xmlns="http://www.w3.org/2000/svg">
<path d="M5.52321 2.46473C6.35116 1.56329 7.54359 1 8.86261 1C9.95691 1 10.9675 1.39443 11.753 2.04215H11.767C11.795 2.07029 11.8231 2.09844 11.8511 2.11251C11.9072 2.16879 11.9633 2.22508 12.0193 2.26729C12.5384 2.77429 12.9314 3.39431 13.1701 4.08424C13.3243 4.54903 13.4089 5.04196 13.4089 5.56304C13.4089 8.08443 11.3741 10.1265 8.86261 10.1265C6.35116 10.1265 4.31633 8.08399 4.31633 5.56304C4.31633 5.39418 4.33035 5.21082 4.34437 5.05603C4.33035 5.04196 4.33035 5.02789 4.31633 5.01382C4.34437 4.80275 4.38642 4.60531 4.4425 4.40832C4.4425 4.38017 4.4425 4.3661 4.45652 4.33796C4.47053 4.25353 4.51259 4.16911 4.52661 4.08424C4.55464 4.04203 4.56866 3.99981 4.58268 3.94353C4.61072 3.87317 4.63875 3.80281 4.66679 3.73246C4.72286 3.63396 4.76492 3.52139 4.82099 3.42245C4.83501 3.38024 4.86304 3.35209 4.87706 3.30988C4.93313 3.22545 4.98921 3.14103 5.03126 3.05616C5.0593 3.02802 5.07332 2.99987 5.08733 2.97173C5.17144 2.85916 5.25555 2.74615 5.35412 2.63358H5.36814C5.39617 2.60544 5.42421 2.5773 5.45225 2.54915C5.43823 2.54915 5.43823 2.53508 5.43823 2.53508C5.46626 2.50694 5.4943 2.49287 5.50832 2.46473C5.50832 2.46473 5.50832 2.46473 5.52234 2.46473H5.52321ZM6.3792 12.8453C6.9684 12.8453 7.44546 13.3383 7.44546 13.9297C7.44546 14.5211 6.9684 15 6.3792 15C5.79 15 5.29892 14.5211 5.29892 13.9297C5.29892 13.3383 5.79 12.8453 6.3792 12.8453ZM10.6731 12.8453C11.2624 12.8453 11.7394 13.3383 11.7394 13.9297C11.7394 14.5211 11.2624 15 10.6731 15C10.0699 15 9.59287 14.5211 9.59287 13.9297C9.59287 13.3383 10.0699 12.8453 10.6731 12.8453ZM8.83457 11.972C8.28743 11.972 7.72626 11.8876 7.17868 11.7469C5.63536 11.3384 4.30232 10.3525 3.44633 8.97223C2.6324 7.67636 2.30954 6.14128 2.53427 4.6339L2.54829 4.50726L2.26749 4.4369L2.22543 4.45097C2.11329 4.50726 1.98668 4.5354 1.86052 4.5354C1.80445 4.5354 1.73436 4.52133 1.67828 4.50726C1.21525 4.42283 0.920425 3.95804 1.01899 3.50732C1.1031 3.11288 1.45399 2.81695 1.84694 2.81695C1.91703 2.81695 1.9731 2.83102 2.02918 2.84509C2.28194 2.8873 2.49222 3.05616 2.61838 3.29581L2.6324 3.35209L3.36222 3.54909C3.60097 3.60538 3.76919 3.80281 3.7832 4.01388C3.7832 4.08424 3.7832 4.18274 3.76919 4.22495C3.13793 7.14034 4.7233 9.90138 7.4735 10.6335C7.92252 10.7602 8.37154 10.8164 8.83457 10.8164C11.1918 10.8164 13.2687 9.22464 13.8859 6.9429V6.92883C13.942 6.6751 14.1808 6.50625 14.4331 6.50625C14.4751 6.50625 14.5312 6.50625 14.5733 6.52032C14.7275 6.56253 14.8401 6.66103 14.9242 6.78811C14.9943 6.92883 15.0223 7.08405 14.9802 7.22476C14.9662 7.23883 14.9662 7.2529 14.9662 7.26698V7.28105C14.2084 10.0416 11.6829 11.9712 8.83414 11.9712L8.83457 11.972ZM13.3248 4.66204C13.3108 4.60575 13.2967 4.56354 13.2827 4.50726C13.2687 4.50726 13.2547 4.52133 13.2547 4.52133C13.2267 4.54947 13.1285 4.60575 13.1005 4.6339C13.0725 4.64797 13.0725 4.69018 13.0725 4.70425C13.0444 4.70425 13.0444 4.77461 13.0725 4.78868C13.0865 4.80275 13.1285 4.7324 13.1425 4.71832C13.1706 4.70425 13.2126 4.69018 13.2267 4.69018C13.2267 4.70425 13.2687 4.69018 13.3248 4.66204C13.3108 4.66204 13.3248 4.66204 13.3248 4.66204ZM13.1285 6.26748C13.1285 6.18305 13.2547 6.18305 13.2967 6.21119C13.2967 6.28155 13.1846 6.30969 13.1285 6.26748ZM13.3248 6.3242C13.3108 6.3242 13.2407 6.33827 13.2407 6.3242C13.2267 6.31013 13.2126 6.35235 13.1986 6.35235C13.1846 6.35235 13.1986 6.39456 13.2126 6.38049C13.2267 6.38049 13.2827 6.40863 13.3248 6.43677C13.3248 6.39456 13.3388 6.35235 13.3388 6.31013L13.3248 6.3242ZM5.63536 5.45091C5.63536 5.46498 5.70545 5.46498 5.71947 5.46498C5.7475 5.46498 5.73349 5.45091 5.71947 5.43684C5.70545 5.42277 5.63536 5.43684 5.63536 5.45091ZM11.7534 2.04215H11.7254C11.6833 2.04215 11.5992 2.01401 11.5852 1.99994C11.5712 1.98587 11.5151 2.01401 11.5151 2.04215C11.5011 2.07029 11.417 2.08436 11.403 2.11251C11.403 2.12658 11.3469 2.12658 11.3469 2.11251C11.3329 2.11251 11.2488 2.15472 11.2067 2.15472C11.1787 2.16879 11.0946 2.19693 11.0806 2.19693C11.0525 2.21101 11.0105 2.25322 11.0105 2.26729C10.9964 2.29543 10.9544 2.32358 10.9264 2.32358C10.9123 2.32358 10.9123 2.408 10.9404 2.42207C10.9544 2.43615 10.8983 2.408 10.8703 2.39393C10.8422 2.37986 10.8142 2.42207 10.8002 2.45022C10.8002 2.46429 10.7722 2.43615 10.7722 2.408C10.7722 2.39393 10.7021 2.36579 10.688 2.39393C10.688 2.408 10.632 2.37986 10.618 2.36579C10.6039 2.35172 10.5058 2.45022 10.4778 2.47836C10.4497 2.5065 10.2955 2.53464 10.2675 2.52057C10.2395 2.5065 10.2114 2.59093 10.2395 2.59093C10.2675 2.605 10.1694 2.59093 10.1273 2.59093C10.0853 2.605 9.94508 2.64721 9.91704 2.67536C9.87499 2.7035 9.84695 2.67536 9.84695 2.64721C9.84695 2.63314 9.8049 2.605 9.77686 2.605C9.77686 2.605 9.73481 2.71757 9.70677 2.73164C9.69275 2.74571 9.6507 2.64721 9.59462 2.63314C9.52453 2.605 9.4264 2.54872 9.39837 2.53464C9.37033 2.53464 9.31426 2.46429 9.30024 2.46429C9.28622 2.43615 9.20211 2.42207 9.17408 2.42207C9.14604 2.42207 9.07595 2.47836 9.04791 2.49243C9.01988 2.52057 8.99184 2.5065 8.97782 2.52057C8.96381 2.53464 8.86568 2.61907 8.82362 2.64721C8.79559 2.67536 8.72549 2.802 8.71148 2.83014C8.68344 2.87235 8.6554 2.87235 8.64139 2.87235C8.62737 2.87235 8.61335 2.9005 8.61335 2.91457C8.61335 2.92864 8.51522 2.98492 8.5012 3.04121C8.48719 3.09749 8.51522 3.21006 8.51522 3.23821C8.51522 3.28042 8.54326 3.36485 8.58531 3.36485C8.61335 3.36485 8.58531 3.4352 8.58531 3.44927C8.58531 3.47742 8.59933 3.49149 8.59933 3.51963C8.59933 3.5337 8.52924 3.54777 8.5012 3.56184C8.47317 3.57592 8.44513 3.6322 8.43111 3.64627C8.43111 3.66034 8.36102 3.67441 8.33299 3.70256C8.33299 3.67441 8.347 3.66034 8.347 3.64627C8.36102 3.61813 8.347 3.57592 8.33299 3.56184C8.31897 3.54777 8.30495 3.42113 8.29093 3.39299C8.27691 3.36485 8.23486 3.30856 8.22084 3.30856C8.20682 3.30856 8.22084 3.26635 8.23486 3.25228C8.23486 3.23821 8.16477 3.22413 8.15075 3.23821C8.12271 3.25228 8.10869 3.37892 8.10869 3.42113C8.09468 3.44927 8.13673 3.50556 8.15075 3.51963C8.16477 3.51963 8.16477 3.58999 8.13673 3.58999C8.1087 3.58999 8.09468 3.67441 8.10869 3.70256C8.12271 3.7307 8.09468 3.77291 8.08066 3.78698C8.06664 3.78698 8.16477 3.78698 8.22084 3.78698C8.2629 3.78698 8.30495 3.80106 8.30495 3.80106C8.29093 3.81513 8.20682 3.8292 8.1928 3.84327C8.17879 3.87141 8.10869 3.91363 8.09468 3.9277C8.09468 3.94177 8.12271 3.96991 8.15075 3.96991C8.16477 3.96991 8.1928 4.06841 8.22084 4.08248C8.23486 4.09655 8.23486 4.13876 8.23486 4.15284C8.22084 4.16691 8.09468 4.15284 8.05262 4.15284C8.01057 4.16691 7.95449 4.26541 7.95449 4.29355C7.94048 4.33576 7.95449 4.43426 7.95449 4.4624C7.96851 4.49055 8.06664 4.50462 8.08066 4.51869C8.09468 4.53276 8.1928 4.51869 8.20682 4.51869C8.23486 4.53276 8.29093 4.43426 8.30495 4.37798C8.30495 4.33576 8.40308 4.25133 8.43111 4.22319C8.44513 4.18098 8.54326 4.19505 8.57129 4.16691C8.59933 4.15284 8.58531 4.25133 8.59933 4.30762C8.61335 4.3639 8.71148 4.34983 8.69746 4.29355C8.68344 4.25133 8.71148 4.22319 8.71148 4.25133C8.71148 4.26541 8.8096 4.30762 8.82362 4.33576C8.83764 4.3639 8.83764 4.42019 8.8096 4.42019C8.79559 4.42019 8.79559 4.47647 8.8096 4.49055C8.83764 4.49055 8.86568 4.42019 8.89371 4.40612C8.92175 4.39205 8.93577 4.33576 8.92175 4.33576C8.90773 4.33576 8.93577 4.29355 8.94979 4.30762C8.9638 4.32169 8.90773 4.20912 8.86568 4.16691C8.82362 4.12469 8.85166 4.13876 8.93577 4.20912L8.97782 4.27948C8.99184 4.29355 9.00586 4.33576 9.00586 4.34983L9.01988 4.3639C9.0339 4.39205 9.04791 4.4624 9.04791 4.49055C9.04791 4.50462 9.07595 4.54683 9.10399 4.54683C9.13202 4.54683 9.14604 4.5609 9.14604 4.5609C9.14604 4.5609 9.16006 4.60312 9.1881 4.60312C9.21613 4.60312 9.21613 4.54683 9.20211 4.54683C9.17408 4.54683 9.17408 4.44833 9.17408 4.40612C9.17408 4.3639 9.1881 4.33576 9.20211 4.33576C9.20211 4.33576 9.20211 4.42019 9.20211 4.43426C9.20211 4.4624 9.21613 4.50462 9.21613 4.51869L9.24417 4.54683L9.30024 4.58904C9.38435 4.5609 9.4965 4.57497 9.4965 4.60312C9.4965 4.61719 9.56659 4.61719 9.56659 4.58904C9.56659 4.57497 9.56659 4.58904 9.56659 4.61719C9.56659 4.63126 9.51052 4.70161 9.4965 4.74383C9.4965 4.77197 9.30024 4.7579 9.21569 4.74383C9.1456 4.74383 9.01944 4.77197 9.00542 4.78604C9.00542 4.81418 8.87926 4.72976 8.80917 4.71569C8.75309 4.68754 8.71104 4.58904 8.69702 4.57497C8.683 4.57497 8.71104 4.54683 8.71104 4.51869C8.69702 4.50462 8.57086 4.50462 8.5288 4.51869C8.48675 4.53276 8.29006 4.5609 8.23398 4.57497C8.19193 4.58904 8.12184 4.57497 8.0938 4.57497C8.07978 4.5609 8.02371 4.63126 7.99567 4.64533C7.96764 4.6594 7.9396 4.74383 7.92558 4.8564L7.88353 4.92675L7.85549 4.96897C7.79942 5.01118 7.71531 5.18004 7.70129 5.22269C7.67325 5.25083 7.65924 5.49048 7.65924 5.57491C7.65924 5.65934 7.72933 5.8427 7.74335 5.88492C7.77138 5.92713 7.88353 6.0397 7.9396 6.05377C7.96764 6.08191 8.10782 6.08191 8.14987 6.08191C8.19193 6.08191 8.248 6.0397 8.26202 5.99749H8.36015C8.36015 6.0397 8.44425 6.06784 8.47229 6.08191C8.50033 6.09599 8.5564 6.08191 8.58444 6.08191C8.59846 6.06784 8.61247 6.2367 8.59846 6.29298C8.58444 6.3352 8.64051 6.50405 8.65453 6.56078C8.65453 6.61706 8.72462 6.75777 8.72462 6.80043C8.72462 6.85671 8.69658 7.02557 8.68256 7.08229C8.68256 7.13858 8.75266 7.30743 8.78069 7.36416C8.79471 7.42044 8.82275 7.53301 8.82275 7.56115C8.82275 7.5893 8.90686 7.75815 8.93489 7.82895C8.96293 7.8993 9.17364 7.92744 9.22971 7.88523C9.28578 7.85709 9.39793 7.70231 9.42597 7.67416C9.454 7.64602 9.48204 7.53345 9.49606 7.50531C9.49606 7.47717 9.55213 7.44902 9.56615 7.43495C9.58017 7.43495 9.63624 7.18123 9.69231 7.12494C9.74839 7.08273 9.80446 6.81494 9.80446 6.71644C9.79044 6.61794 9.8325 6.44865 9.84651 6.40643C9.86053 6.36422 9.9166 6.27979 9.94464 6.26572C9.95866 6.26572 10.0848 6.06872 10.1269 5.99793C10.1689 5.94164 10.197 5.78686 10.197 5.75828C10.197 5.71606 10.0988 5.70199 10.0848 5.71606C10.0708 5.73013 9.9867 5.7442 9.95866 5.7442C9.93062 5.7442 9.87455 5.60349 9.84651 5.57535C9.80446 5.54721 9.77642 5.37835 9.74839 5.35021C9.73437 5.32207 9.66428 5.23764 9.65026 5.22357C9.63624 5.2095 9.63624 5.12507 9.62222 5.09693C9.62222 5.06879 9.66428 5.111 9.66428 5.13914C9.6783 5.18136 9.77642 5.32207 9.80446 5.36428C9.83249 5.4065 9.9166 5.56128 9.93062 5.60393C9.94464 5.64615 10.1269 5.63207 10.1834 5.60393C10.2399 5.57579 10.3096 5.53358 10.3096 5.50543C10.3096 5.49136 10.4077 5.44915 10.4357 5.43508C10.4638 5.42101 10.4778 5.30844 10.4918 5.29437C10.5198 5.28029 10.4778 5.1818 10.4638 5.13958C10.4497 5.11144 10.3516 5.09737 10.3376 5.09737C10.3236 5.11144 10.2815 5.02701 10.2675 4.99887C10.2535 4.97073 10.1834 4.94258 10.1834 4.92851C10.1694 4.90037 10.1974 4.87223 10.2114 4.85816C10.2254 4.85816 10.3516 4.94258 10.3937 4.99887C10.4217 5.04108 10.4638 5.12551 10.4778 5.13958C10.4778 5.13958 10.5759 5.15365 10.6039 5.13958C10.618 5.12551 10.646 5.12551 10.66 5.13958H10.688L10.8002 5.12551C10.8422 5.1818 10.8703 5.22401 10.8563 5.23808C10.8563 5.25215 10.8983 5.29437 10.9123 5.29437C10.9264 5.30844 10.9544 5.37879 10.9544 5.39286C10.9684 5.42101 11.0245 5.51951 11.0385 5.56172C11.0525 5.618 11.1086 5.70243 11.1226 5.73057C11.1366 5.75872 11.1506 5.82907 11.1506 5.84314C11.1506 5.85721 11.1787 5.89943 11.2067 5.89943C11.2348 5.89943 11.2908 5.74464 11.3048 5.68836C11.3189 5.63207 11.3469 5.57579 11.3609 5.57579C11.3749 5.57579 11.389 5.54765 11.389 5.53358C11.389 5.51951 11.445 5.51951 11.459 5.50543C11.459 5.49136 11.4731 5.37879 11.5011 5.36472C11.5291 5.35065 11.5992 5.29436 11.6273 5.28029C11.6553 5.28029 11.7394 5.33658 11.7394 5.36472C11.7674 5.40694 11.7815 5.47729 11.7674 5.49136C11.7674 5.49136 11.8095 5.56172 11.8516 5.56172C11.8796 5.56172 11.8936 5.618 11.8936 5.63207C11.8936 5.64615 11.9497 5.70243 11.9637 5.73057C11.9777 5.75872 11.9637 5.815 11.9637 5.82907C11.9497 5.84314 11.9637 5.92757 11.9637 5.95571C11.9777 5.98386 12.0899 6.09643 12.1459 6.12457C12.188 6.16678 12.202 6.05421 12.188 6.02607C12.16 5.98386 12.0899 5.9135 12.0618 5.88536C12.0478 5.85721 12.0478 5.75872 12.0478 5.73057C12.0618 5.70243 12.1179 5.74464 12.1459 5.77279C12.174 5.78686 12.202 5.82907 12.202 5.84314C12.202 5.85721 12.3702 5.77279 12.3702 5.67429C12.3702 5.57579 12.4263 5.46322 12.4403 5.43464C12.4403 5.42057 12.4263 5.37835 12.3983 5.37835C12.3842 5.37835 12.4263 5.29393 12.4684 5.308C12.5104 5.308 12.6226 5.18136 12.6506 5.13914C12.6786 5.09693 12.7207 5.05471 12.7347 5.04064C12.7347 5.04064 12.7768 4.92807 12.7908 4.87179C12.7908 4.82957 12.7627 4.75922 12.7487 4.73108C12.7487 4.70293 12.7067 4.64665 12.7067 4.63258C12.6926 4.61851 12.6786 4.54815 12.6926 4.53408C12.6926 4.52001 12.7347 4.52001 12.7347 4.50594C12.7487 4.49186 12.7908 4.44965 12.7908 4.42151C12.7768 4.39337 12.8188 4.44965 12.8328 4.46372C12.8609 4.47779 12.8749 4.59036 12.9029 4.60443C12.931 4.61851 13.0431 4.49186 13.0291 4.39337C13.0151 4.30894 13.0571 4.19637 13.0852 4.1823C13.0992 4.1823 13.1272 4.12601 13.1693 4.0838C12.9305 3.39343 12.524 2.77386 12.0185 2.26685H12.0044C11.9484 2.26685 11.9203 2.21057 11.9203 2.18242C11.8923 2.16835 11.8643 2.14021 11.8502 2.11207C11.8222 2.098 11.7801 2.06985 11.7521 2.04171L11.7534 2.04215ZM5.9442 5.2394C5.93018 5.2394 5.90214 5.19719 5.87411 5.18311C5.86009 5.18311 5.84607 5.22533 5.84607 5.22533C5.84607 5.2394 5.86009 5.25347 5.86009 5.25347C5.87411 5.25347 5.90214 5.29568 5.91616 5.29568C5.95822 5.26754 5.95822 5.22533 5.9442 5.2394ZM5.80402 5.40825C5.80402 5.42233 5.88812 5.4364 5.90214 5.45047C5.91616 5.46454 5.9442 5.42233 5.98625 5.4364C6.01429 5.4364 5.97223 5.3379 5.91616 5.3379C5.86009 5.3379 5.83205 5.28161 5.81803 5.28161C5.80402 5.28161 5.74794 5.2394 5.71991 5.22533C5.70589 5.21126 5.57972 5.19719 5.53767 5.19719C5.49562 5.19719 5.43954 5.2394 5.43954 5.25347C5.42552 5.26754 5.50963 5.28161 5.52365 5.26754C5.55169 5.25347 5.64982 5.28161 5.67785 5.30976C5.69187 5.3379 5.73392 5.35197 5.77598 5.3379C5.80402 5.3379 5.79 5.39418 5.80402 5.40825ZM5.83205 5.12683C5.83205 5.11276 5.80402 5.09869 5.79 5.09869C5.77598 5.09869 5.77598 5.11276 5.77598 5.15497C5.77598 5.18311 5.84607 5.1409 5.83205 5.12683ZM6.07036 5.46498C6.07036 5.47905 6.12643 5.47905 6.14045 5.45091C6.15447 5.43684 6.15447 5.40869 6.12643 5.40869C6.11242 5.40869 6.07036 5.45091 6.07036 5.46498ZM5.52321 2.46473C5.49518 2.49287 5.46714 2.52101 5.45312 2.54915C5.45312 2.5773 5.45312 2.59137 5.45312 2.61951C5.4391 2.66172 5.39705 2.6758 5.39705 2.64765C5.39705 2.64765 5.38303 2.64765 5.36901 2.63358C4.82187 3.30988 4.44294 4.14052 4.34481 5.05603C4.35883 5.0701 4.37284 5.08418 4.37284 5.09825C4.38686 5.14046 4.45695 5.15453 4.47097 5.1686C4.48499 5.18267 4.48499 5.09825 4.47097 5.07011C4.47097 5.05603 4.49901 5.04196 4.49901 5.05603C4.49901 5.0701 4.55508 5.14046 4.58312 5.1686C4.59714 5.19675 4.62517 5.3656 4.65321 5.40825C4.66723 5.45047 4.86348 5.52082 4.93401 5.5349C5.00454 5.54897 5.07419 5.61932 5.08821 5.64747C5.10223 5.66154 5.18634 5.67561 5.21437 5.68968C5.22839 5.68968 5.27045 5.74596 5.28447 5.76003C5.3125 5.77411 5.32652 5.80225 5.32652 5.81632C5.32652 5.83039 5.43867 5.8726 5.4667 5.90075C5.49474 5.92889 5.53679 5.91482 5.55081 5.91482C5.55081 5.90075 5.57885 5.9711 5.59287 5.98517C5.60688 6.01332 5.60688 6.08367 5.59287 6.08367C5.59287 6.09774 5.56483 6.21031 5.55081 6.23846C5.53679 6.2666 5.49474 6.42138 5.49474 6.4636C5.50876 6.49174 5.56483 6.5621 5.57885 6.5621C5.60688 6.57617 5.59287 6.61838 5.57885 6.61838C5.56483 6.61838 5.56483 6.77316 5.60688 6.80131C5.64894 6.82945 5.69099 6.89981 5.67698 6.91388C5.70501 6.92795 5.78912 7.01237 5.81716 7.04052C5.84519 7.06866 5.91528 7.1953 5.9293 7.25159C5.94332 7.2938 5.94332 7.36416 5.9293 7.37823C5.9293 7.3923 5.94332 7.43451 5.95734 7.44858C5.95734 7.46265 5.9293 7.60337 5.9293 7.65965C5.94332 7.70187 5.87323 7.88479 5.87323 7.95559C5.87323 8.04001 5.91528 8.15259 5.9293 8.15259C5.94332 8.13851 5.94332 8.22294 5.91528 8.23701C5.90127 8.23701 5.85921 8.30737 5.88725 8.30737C5.90127 8.32144 5.88725 8.37772 5.88725 8.40587C5.88725 8.43401 5.91528 8.60286 5.91528 8.65959C5.91528 8.7018 5.98538 8.8003 5.99939 8.84251C6.01341 8.87066 6.02743 8.94101 6.02743 8.95508C6.04145 8.96916 6.04145 8.96916 6.04145 8.96916C6.04145 8.96916 6.09752 8.9973 6.11154 9.01137C6.12556 9.01137 6.22369 9.01137 6.25172 9.01137C6.27976 8.9973 6.25172 8.96916 6.2377 8.95508C6.22368 8.94101 6.20967 8.85659 6.19565 8.85659C6.18163 8.84251 6.16761 8.74402 6.19565 8.72995C6.19565 8.7018 6.26574 8.65959 6.26574 8.64552C6.26574 8.63145 6.26574 8.54702 6.26574 8.53295C6.25172 8.51888 6.26574 8.42038 6.25172 8.36409C6.2377 8.30781 6.33583 8.26559 6.34985 8.22338C6.34985 8.18117 6.46199 8.13895 6.49003 8.12488C6.51807 8.09674 6.53209 7.98417 6.51807 7.95603C6.50405 7.92788 6.56012 7.91381 6.58816 7.91381C6.61619 7.91381 6.63021 7.88567 6.64423 7.88567C6.64423 7.88567 6.68629 7.84346 6.68629 7.82939C6.7003 7.81531 6.74236 7.68867 6.75638 7.6746C6.78441 7.66053 6.81245 7.5761 6.81245 7.56203C6.81245 7.53389 6.8545 7.46353 6.86852 7.44946C6.88254 7.43539 6.98067 7.39318 7.0087 7.37911C7.02272 7.36504 7.05076 7.19618 7.05076 7.13946C7.06478 7.08317 7.09281 6.99874 7.09281 6.98467C7.09281 6.9706 7.12085 6.94246 7.13487 6.94246C7.13487 6.92839 7.1629 6.85803 7.17692 6.84396C7.19094 6.82989 7.24701 6.75953 7.24701 6.74546C7.24701 6.71732 7.26103 6.68918 7.27505 6.64696V6.54846C7.24701 6.49218 7.20496 6.43589 7.17692 6.44997C7.17692 6.46404 7.10683 6.40775 7.07879 6.39368C7.03674 6.37961 6.96665 6.37961 6.93861 6.37961C6.92459 6.37961 6.8545 6.32332 6.82647 6.30925C6.78441 6.29518 6.71432 6.28111 6.68629 6.26704C6.68629 6.26704 6.65825 6.1404 6.58816 6.11226C6.53209 6.07004 6.40592 5.98561 6.40592 5.9434C6.3919 5.91526 6.26574 5.8449 6.22369 5.81676C6.18163 5.78862 6.12556 5.78862 6.12556 5.78862C6.11154 5.80269 6.05547 5.73233 6.04145 5.70419C6.01341 5.69012 5.9293 5.67605 5.9293 5.69012C5.9293 5.70419 5.88725 5.70419 5.87323 5.69012C5.85921 5.67605 5.81716 5.69012 5.80314 5.70419C5.7751 5.70419 5.71903 5.80269 5.69099 5.81676C5.66296 5.8449 5.63492 5.80269 5.60688 5.78862C5.59287 5.77455 5.52277 5.80269 5.49474 5.81676C5.48072 5.83083 5.43867 5.70419 5.45268 5.66198C5.4667 5.60569 5.41063 5.49312 5.35456 5.49312C5.3125 5.49312 5.29848 5.38055 5.3125 5.35241C5.3125 5.3102 5.22839 5.28205 5.21437 5.28205C5.18634 5.28205 5.13027 5.32427 5.11625 5.35241C5.10223 5.38055 4.90597 5.32427 4.93401 5.19763C4.96205 5.07098 5.06017 4.9439 5.07419 4.92983C5.10223 4.92983 5.22839 4.91576 5.25643 4.92983C5.28447 4.9439 5.3125 4.92983 5.3125 4.92983C5.32652 4.91576 5.42465 4.92983 5.45268 4.92983C5.49474 4.9439 5.53679 5.07054 5.56483 5.08462C5.59287 5.09869 5.60688 5.00019 5.6209 4.98612C5.6209 4.95797 5.59287 4.90169 5.59287 4.88762C5.57885 4.85948 5.63492 4.71876 5.69099 4.69062C5.74707 4.66248 5.78912 4.57805 5.78912 4.57805C5.7751 4.56398 5.83118 4.54991 5.84519 4.53584C5.84519 4.53584 5.84519 4.4092 5.85921 4.38105C5.87323 4.36698 5.97136 4.29663 5.99939 4.29663C6.02743 4.28256 6.05547 4.19813 6.04145 4.18406C6.02743 4.16999 6.11154 4.09963 6.15359 4.08556C6.19565 4.07149 6.2377 4.1137 6.22369 4.1137C6.2377 4.1137 6.29378 4.08556 6.32181 4.05742C6.34985 4.04334 6.32181 3.98706 6.30779 3.95892C6.27976 3.94485 6.29378 3.87449 6.32181 3.87449C6.34985 3.87449 6.36387 3.80413 6.36387 3.80413C6.34985 3.79006 6.46199 3.80413 6.50405 3.77599C6.5461 3.74785 6.51807 3.84635 6.47601 3.88856C6.44798 3.93077 6.50405 3.97299 6.51807 3.95892C6.5461 3.95892 6.56012 3.98706 6.56012 4.00113C6.57414 4.0152 6.61619 3.98706 6.63021 4.00113C6.65825 4.0152 6.68629 3.95892 6.68629 3.94485C6.68629 3.9167 6.61619 3.87449 6.60218 3.84635C6.58816 3.8182 6.58816 3.66342 6.58816 3.63528C6.58816 3.59306 6.5461 3.55085 6.53209 3.55085C6.51807 3.56492 6.49003 3.46642 6.47601 3.45235C6.44798 3.43828 6.44798 3.382 6.44798 3.382C6.44798 3.36792 6.36387 3.2835 6.34985 3.24128C6.33583 3.21314 6.30779 3.21314 6.30779 3.24128C6.30779 3.25535 6.25172 3.25535 6.22369 3.25535C6.20967 3.25535 6.19565 3.17093 6.19565 3.14279C6.19565 3.10057 6.09752 3.10057 6.06948 3.07243C6.05547 3.04429 5.99939 3.05836 5.98538 3.04429C5.97136 3.03022 5.91528 3.01614 5.91528 3.01614C5.90127 3.03022 5.90127 3.25579 5.88725 3.31208C5.87323 3.38244 5.83118 3.42465 5.80314 3.42465C5.78912 3.42465 5.80314 3.46686 5.81716 3.46686C5.83118 3.45279 5.7751 3.52315 5.7751 3.57943C5.76108 3.62165 5.71903 3.57943 5.70501 3.53722C5.70501 3.49501 5.64894 3.43872 5.63492 3.45279C5.63492 3.46686 5.60688 3.43872 5.57885 3.45279C5.56483 3.45279 5.48072 3.39651 5.45268 3.38244C5.42465 3.35429 5.39661 3.24172 5.36858 3.24172C5.35456 3.22765 5.36858 3.21358 5.36858 3.19951C5.36858 3.18544 5.43867 3.12915 5.45268 3.10101C5.48072 3.07287 5.55081 2.97437 5.57885 2.9603C5.6209 2.93216 5.63492 2.87587 5.63492 2.8618C5.63492 2.84773 5.76108 2.81959 5.80314 2.80552C5.84519 2.79144 5.87323 2.67887 5.87323 2.6648C5.87323 2.62259 5.84519 2.58038 5.83118 2.5663C5.81716 2.5663 5.88725 2.55223 5.90127 2.5663C5.9293 2.58038 5.98538 2.55223 6.02743 2.5663C6.05547 2.58038 6.11154 2.60852 6.13958 2.63666V2.70702L6.12556 2.83366C6.01341 2.88994 5.98538 2.9603 6.02743 2.9603C6.05547 2.9603 6.22369 3.03065 6.26618 3.0588C6.32225 3.10101 6.33627 3.01658 6.35029 2.98844C6.36431 2.9603 6.35029 2.87587 6.35029 2.8618C6.33627 2.84773 6.40636 2.84773 6.42038 2.87587C6.4344 2.88994 6.46243 2.84773 6.47645 2.84773C6.49047 2.83366 6.49047 2.7633 6.50449 2.74923C6.51851 2.74923 6.47645 2.73516 6.47645 2.70702C6.47645 2.69295 6.40636 2.6648 6.37832 2.65073C6.35029 2.63666 6.33627 2.58038 6.35029 2.58038C6.36431 2.5663 6.35029 2.49595 6.33627 2.48188C6.32225 2.46781 6.25216 2.43966 6.22412 2.43966C6.19609 2.43966 6.16805 2.38338 6.15403 2.36931C6.14001 2.36931 6.04189 2.35524 6.01385 2.35524C5.98581 2.36931 5.94376 2.28488 5.9017 2.31302C5.84563 2.34116 5.8176 2.28488 5.78956 2.27081C5.77554 2.25674 5.67741 2.36931 5.67741 2.45373C5.67741 2.52409 5.71947 2.59445 5.73349 2.59445C5.7475 2.59445 5.71947 2.6648 5.70545 2.67887C5.69143 2.70702 5.64938 2.6648 5.66339 2.65073C5.67741 2.62259 5.62134 2.55223 5.60732 2.52409C5.5933 2.49595 5.55125 2.48188 5.52321 2.46781V2.46473ZM5.9442 2.19693C6.00027 2.19693 6.08438 2.18286 6.0984 2.16879C6.0984 2.15472 6.0984 2.11251 6.08438 2.09844H6.11242C6.12643 2.09844 6.16849 1.98587 6.19652 1.95772C6.21054 1.92958 6.33671 1.90144 6.36474 1.8733C6.4068 1.85922 6.46287 1.78887 6.49091 1.78887C6.51894 1.7748 6.54698 1.71851 6.54698 1.70444C6.54698 1.69037 6.63109 1.64816 6.67314 1.62001C6.70118 1.62001 6.7152 1.56373 6.70118 1.56373C6.70118 1.56373 6.61707 1.62001 6.50493 1.6763C6.39278 1.74665 6.28063 1.81701 6.16805 1.90144C6.06992 1.97179 5.9718 2.04215 5.87323 2.12702C5.84519 2.15516 5.81716 2.1833 5.78912 2.21145C5.83118 2.21145 5.91528 2.19737 5.94332 2.19737L5.9442 2.19693ZM5.69143 2.94359C5.67741 2.95766 5.69143 3.02802 5.70545 3.02802C5.7475 3.02802 5.78956 2.92952 5.83161 2.94359C5.85965 2.97173 5.88769 2.97173 5.88769 2.95766C5.87367 2.95766 5.77554 2.90138 5.76152 2.90138C5.7475 2.8873 5.70545 2.92952 5.69143 2.94359ZM8.02108 1.94365C8.0351 1.92958 8.04912 1.85922 8.0351 1.84515C8.0351 1.83108 8.09117 1.81701 8.10519 1.80294C8.11921 1.78887 8.17528 1.76073 8.20332 1.74665C8.23135 1.74665 8.24537 1.6763 8.21734 1.69037C8.1893 1.69037 8.11921 1.6763 8.10519 1.66223C8.09117 1.64816 7.99304 1.63408 7.96501 1.64816C7.93697 1.66223 7.96501 1.5778 8.00706 1.56373C8.0351 1.54966 8.00706 1.49337 7.96501 1.49337C7.92295 1.49337 7.81081 1.4793 7.78277 1.4793C7.75473 1.4793 7.71268 1.46523 7.68464 1.46523C7.67063 1.46523 7.54446 1.49337 7.47437 1.49337C7.4183 1.49337 7.2641 1.50744 7.23562 1.50744C7.20759 1.52152 7.17955 1.5778 7.17955 1.60594C7.19357 1.63408 7.03937 1.62001 6.99731 1.63408C6.95526 1.63408 6.68848 1.69037 6.6324 1.71851C6.56231 1.76073 6.52026 1.84515 6.53428 1.84515C6.54829 1.84515 6.49222 1.90144 6.46418 1.91551C6.42213 1.92958 6.33802 1.92958 6.324 1.95772C6.30998 1.97179 6.33802 1.98587 6.35204 1.99994C6.36606 2.01401 6.39409 1.98587 6.40811 1.99994C6.42213 2.01401 6.50624 2.01401 6.52026 2.02808C6.54829 2.02808 6.46418 2.04215 6.42213 2.04215C6.38008 2.04215 6.39409 2.12658 6.42213 2.14065C6.45017 2.15472 6.53428 2.15472 6.54829 2.14065C6.54829 2.12658 6.6324 2.15472 6.67446 2.16879C6.71651 2.16879 6.74455 2.26729 6.75857 2.28136C6.77258 2.3095 6.77259 2.37986 6.77259 2.408C6.77259 2.42207 6.84268 2.46429 6.85669 2.45022C6.87071 2.43615 6.85669 2.47836 6.82866 2.47836C6.80062 2.47836 6.82866 2.56279 6.85669 2.57686C6.89875 2.59093 6.87071 2.64721 6.85669 2.66129C6.82866 2.67536 6.84268 2.71757 6.82866 2.74571C6.80062 2.75978 6.89875 2.92864 6.89875 3.01351C6.89875 3.09837 6.95482 3.16829 6.96884 3.16829C6.98286 3.16829 7.05295 3.18236 7.06697 3.19643C7.08099 3.22457 7.10902 3.18236 7.12304 3.16829C7.13706 3.16829 7.17911 3.112 7.19313 3.08386C7.20715 3.04165 7.26322 2.87279 7.26322 2.85828C7.27724 2.84421 7.36135 2.85828 7.37537 2.84421C7.38939 2.83014 7.44546 2.78793 7.45948 2.77385C7.4735 2.75978 7.58564 2.71757 7.61368 2.68943C7.65573 2.67536 7.69779 2.57686 7.72582 2.54872C7.75386 2.53464 7.7118 2.53464 7.68377 2.52057C7.65573 2.5065 7.66975 2.47836 7.66975 2.46429C7.68377 2.46429 7.7819 2.47836 7.80993 2.49243C7.83797 2.5065 7.90806 2.46429 7.88002 2.45022C7.85199 2.42207 7.866 2.42207 7.88002 2.43615C7.89404 2.45022 7.90806 2.37986 7.89404 2.36579C7.88002 2.35172 7.99217 2.28136 7.96413 2.21101C7.95011 2.14065 8.00619 2.05622 8.0202 2.05622C8.04824 2.05622 8.04824 1.97179 8.0202 1.97179C7.97815 1.97179 8.00619 1.95772 8.0202 1.94365H8.02108ZM5.69143 5.11276C5.66339 5.11276 5.64938 5.1409 5.64938 5.15497C5.64938 5.16904 5.6634 5.18311 5.67741 5.18311C5.69143 5.16904 5.70545 5.12683 5.69143 5.11276ZM11.2764 5.85897C11.2624 5.90119 11.3745 5.97154 11.3745 5.95747C11.3885 5.92933 11.3605 5.85897 11.3465 5.8449C11.3184 5.81676 11.3044 5.83083 11.2764 5.85897ZM12.9883 5.81676C13.0024 5.83083 13.0444 5.78862 13.0865 5.77455C13.1145 5.77455 13.1425 5.67605 13.1145 5.67605C13.0865 5.66198 13.0584 5.59162 13.0304 5.59162C13.0164 5.57755 12.9743 5.61976 12.9883 5.6479C12.9883 5.67605 12.9323 5.69012 12.9183 5.70419C12.9042 5.71826 12.9042 5.7464 12.9183 5.7464C12.9323 5.7464 12.9883 5.80269 12.9883 5.81676ZM12.2305 6.33827C12.2024 6.29606 12.1464 6.2257 12.0903 6.18349L12.0623 6.14128L12.0342 6.11313C12.0202 6.05685 11.9501 6.02871 11.9501 6.01464C11.9361 6.00057 11.9221 6.05685 11.894 6.04278C11.9081 6.05685 11.9361 6.07092 11.9641 6.09906C12.0202 6.14128 12.1464 6.43721 12.1604 6.46536C12.2024 6.47943 12.2445 6.395 12.2305 6.33871V6.33827ZM13.2407 6.78899C13.1846 6.78899 13.1005 6.83121 13.1005 6.84528C13.1005 6.85935 13.0164 6.90156 12.9883 6.91564C12.9603 6.92971 12.9042 7.01413 12.9042 7.04228C12.8902 7.05635 12.8201 7.05635 12.7921 7.07042C12.7781 7.08449 12.722 7.11263 12.722 7.14077C12.722 7.16892 12.708 7.16892 12.694 7.14077L12.6519 7.16892L12.6239 7.21113C12.5958 7.28149 12.5257 7.37999 12.4977 7.37999C12.4697 7.39406 12.4697 7.50663 12.4697 7.56291C12.4697 7.60513 12.4837 7.67548 12.5117 7.68955V7.73177L12.5257 7.81619C12.5117 7.87248 12.5538 7.92876 12.5678 7.94284C12.5818 7.95691 12.694 7.91469 12.736 7.90062C12.75 7.90062 12.75 7.90062 12.7641 7.88655C12.9743 7.56247 13.129 7.18211 13.2411 6.78811C13.2411 6.80219 13.2411 6.78811 13.2411 6.78811L13.2407 6.78899ZM9.91529 7.45078C9.91529 7.493 9.98538 7.52114 9.9994 7.50707C10.0274 7.50707 10.0835 7.3945 10.0975 7.36635C10.0975 7.33821 10.1115 7.26786 10.1115 7.25378C10.1115 7.23971 10.1256 7.1975 10.1256 7.1975C10.1256 7.18343 10.1396 7.15529 10.1536 7.11307C10.1676 7.07086 10.1115 6.88793 10.1115 6.84528C10.1115 6.81714 10.0695 6.87342 10.0695 6.90156C10.0555 6.92971 9.97136 7.00006 9.94333 7.0282C9.92931 7.05635 9.90127 7.15485 9.91529 7.16892C9.91529 7.18299 9.90127 7.25334 9.88725 7.26742C9.87323 7.29556 9.90127 7.4222 9.91529 7.45034V7.45078ZM12.8902 6.19712C12.8622 6.19712 12.7641 6.30969 12.7781 6.38005C12.7921 6.45041 12.8201 6.4504 12.8201 6.43633C12.8341 6.42226 12.8902 6.43633 12.9042 6.45041C12.9323 6.45041 12.9323 6.43633 12.9042 6.40819C12.8902 6.38005 12.9042 6.29562 12.9323 6.29562C12.9323 6.28155 12.9183 6.21119 12.8902 6.19712ZM12.9042 5.43684C12.9183 5.42277 12.8902 5.38055 12.8482 5.36648C12.7921 5.36648 12.8061 5.49312 12.8201 5.50719C12.8482 5.53534 12.8902 5.46498 12.9042 5.43684ZM12.7356 6.21119C12.7356 6.18305 12.7496 6.08455 12.7496 6.05641C12.7496 6.04234 12.6935 5.98605 12.6655 5.98605C12.6374 5.97198 12.5393 6.16898 12.4832 6.19712C12.4132 6.23934 12.3851 6.36598 12.4132 6.39412C12.4272 6.40819 12.5674 6.43633 12.5814 6.45041C12.6094 6.47855 12.6374 6.45041 12.6515 6.45041C12.6655 6.43633 12.6655 6.43633 12.6515 6.42226C12.6515 6.42226 12.7075 6.36598 12.7216 6.33783C12.7216 6.29562 12.7356 6.23934 12.7356 6.21119ZM12.7356 5.11276C12.7075 5.1409 12.7216 5.19719 12.7356 5.22533C12.7356 5.2394 12.7636 5.2394 12.7776 5.22533C12.7916 5.19719 12.7496 5.08462 12.7356 5.11276ZM12.2445 6.57749C12.2305 6.59156 12.4408 6.6197 12.5113 6.64784C12.5814 6.66191 12.6234 6.67598 12.6094 6.66191C12.5954 6.64784 12.4132 6.56341 12.3707 6.54934C12.3006 6.5212 12.2445 6.54934 12.2445 6.57749Z" fill="black"/>
</svg>
