<svg width="16" height="16" viewBox="0 0 16 16" fill="none" xmlns="http://www.w3.org/2000/svg">
<path d="M11.9001 4.69162C12.0067 4.80203 12.028 4.92264 11.964 5.05344L7.1315 14.7892C7.0569 14.9297 6.93416 15 6.76331 15C6.74199 15 6.69936 14.995 6.63541 14.9849C6.53949 14.9548 6.46488 14.8996 6.41159 14.8193C6.3583 14.739 6.34232 14.6587 6.36363 14.5784L8.12369 7.78145L4.50716 8.62554C4.48584 8.63558 4.44854 8.6406 4.39525 8.6406C4.28867 8.6406 4.19791 8.60547 4.12298 8.5352C4.0164 8.4549 3.97909 8.34935 4.01107 8.21855L5.80309 1.27101C5.82441 1.19071 5.87237 1.12547 5.94698 1.07528C6.02158 1.02509 6.10152 1 6.18678 1H9.11537C9.23261 1 9.3287 1.03513 9.40364 1.10539C9.47857 1.17566 9.51588 1.26113 9.51554 1.36182C9.51554 1.40197 9.50489 1.45216 9.48357 1.51238L7.94733 5.40067L11.4839 4.58669C11.5372 4.56662 11.5745 4.55658 11.5958 4.55658C11.7131 4.55658 11.8145 4.60175 11.9001 4.69209V4.69162Z" fill="black"/>
</svg>
