<svg width="16" height="16" viewBox="0 0 16 16" fill="none" xmlns="http://www.w3.org/2000/svg">
<path d="M14.9666 5.97401C14.9529 5.96485 14.9346 5.96027 14.9162 5.95569C14.9116 5.95569 14.6869 5.91446 14.3568 5.86393C14.2101 5.84102 14.0679 5.8227 13.8845 5.7998C13.7012 5.77689 13.4535 5.75857 13.2747 5.74483C12.9078 5.7265 12.5457 5.70818 12.0551 5.71734C11.6515 5.7265 11.248 5.75857 10.8492 5.8091C10.5237 5.85033 10.1384 5.9146 9.83124 5.96957C9.52862 6.02912 9.10675 6.12546 8.89131 6.17127C8.67587 6.21708 8.37783 6.28594 8.04758 6.29052C7.71748 6.29052 7.41486 6.26761 6.94246 6.16211C6.47937 6.06119 5.85581 5.94194 5.41104 5.86865C4.98459 5.79994 4.53066 5.75857 4.19598 5.74025C3.67777 5.71276 3.15513 5.71734 2.63693 5.75399C2.1233 5.7998 1.93535 5.82728 1.67395 5.86865C1.41714 5.90988 1.18338 5.95583 1.18338 5.95583L1.07329 5.97873C1.05039 5.98332 1.03207 5.99248 1.01832 6.0108C1 6.0337 0.995419 6.06577 1.00458 6.0934C1.01374 6.15753 1.05497 6.4006 1.06871 6.4832C1.08245 6.56121 1.1191 6.83162 1.12368 6.86841C1.12826 6.9052 1.13742 6.92797 1.16949 6.93255C1.19698 6.93713 1.28415 6.92797 1.38493 7.10218C1.44906 7.21684 1.51334 7.55153 1.51334 7.55153C1.51334 7.55153 1.60052 8.00546 1.63258 8.17509C1.66465 8.34014 1.75183 8.73452 1.84344 9.0234C1.88467 9.16555 1.94436 9.3077 2.01308 9.44069C2.06346 9.52328 2.11858 9.60574 2.17813 9.67917C2.25615 9.76635 2.34776 9.83965 2.4441 9.89934C2.53586 9.95431 2.62748 10.0003 2.7284 10.0369C2.7284 10.0369 2.87513 10.1056 3.30157 10.1974C3.63168 10.2615 3.96193 10.2891 4.29661 10.2846C4.43418 10.28 4.86521 10.2525 5.25042 10.1424C5.38341 10.1058 5.53472 10.0552 5.65396 10.0094C5.8465 9.92682 6.02544 9.81688 6.19049 9.67932C6.3189 9.56923 6.43356 9.44541 6.53434 9.30784C6.61694 9.20234 6.69481 9.09698 6.7452 9.01438C6.78185 8.95941 6.84154 8.86765 6.89193 8.76673C7.02034 8.53282 7.16706 8.23937 7.23578 8.06057C7.34128 7.80376 7.52465 7.35441 7.57046 7.29486C7.63459 7.2031 7.73093 7.14813 7.84102 7.13439C8.10241 7.09316 8.20319 7.15271 8.2583 7.18936C8.32243 7.23059 8.37296 7.2857 8.40503 7.35441C8.52885 7.58374 8.66184 7.9001 8.73055 8.06973C8.85438 8.34945 8.98737 8.62458 9.13868 8.89056C9.27624 9.12905 9.44588 9.38113 9.63841 9.56923C9.82637 9.75719 10.074 9.91308 10.3858 10.0323C10.7022 10.1562 11.1332 10.2432 11.5688 10.2708C11.876 10.2846 12.1878 10.2662 12.495 10.2204C12.6967 10.1884 12.8939 10.1424 13.0865 10.092C13.1737 10.0691 13.2607 10.0371 13.3433 10.0003C13.5312 9.92224 13.6917 9.79856 13.8201 9.64267C13.8751 9.57854 13.9669 9.44555 14.0724 9.15667C14.1319 8.99162 14.1504 8.93651 14.2649 8.48716C14.375 8.05155 14.4758 7.54723 14.4758 7.54723C14.4758 7.54723 14.5445 7.20339 14.595 7.12079C14.6408 7.03819 14.6822 6.98322 14.8013 6.95116C14.8379 6.94199 14.8562 6.94199 14.8562 6.94199C14.87 6.93283 14.8792 6.91909 14.8792 6.90535C14.8837 6.87328 14.9755 6.19002 14.9938 6.0891C15.0076 6.04788 14.9984 6.00192 14.9663 5.97444L14.9666 5.97401ZM2.00406 6.47375C2.00406 6.51956 1.88481 6.56093 1.84359 6.56551C1.75183 6.57467 1.66021 6.57009 1.57303 6.56093C1.52722 6.55635 1.35287 6.51512 1.35287 6.47375C1.35287 6.4371 1.50876 6.39573 1.59135 6.39115C1.67853 6.38657 1.76557 6.38657 1.84817 6.39115C1.89856 6.40031 2.00406 6.43238 2.00406 6.47375ZM14.6136 6.46917C14.6136 6.50581 14.4531 6.54718 14.3705 6.55177C14.2834 6.55635 14.2009 6.55635 14.1137 6.55177C14.0633 6.5426 13.9578 6.51054 13.9578 6.46917C13.9578 6.42336 14.0817 6.38199 14.1229 6.37741C14.2146 6.36825 14.3017 6.37283 14.3934 6.38199C14.4393 6.38657 14.6135 6.4278 14.6135 6.46917" fill="black"/>
</svg>
