<svg width="16" height="17" viewBox="0 0 16 17" fill="none" xmlns="http://www.w3.org/2000/svg">
<path d="M6.62501 7.99631C6.87814 7.99631 7.08334 7.80022 7.08334 7.55833C7.08334 7.31645 6.87814 7.12036 6.62501 7.12036C6.37187 7.12036 6.16667 7.31645 6.16667 7.55833C6.16667 7.80022 6.37187 7.99631 6.62501 7.99631Z" fill="black"/>
<path d="M9.37499 12.3759C9.62812 12.3759 9.83332 12.1799 9.83332 11.938C9.83332 11.6961 9.62812 11.5 9.37499 11.5C9.12186 11.5 8.91666 11.6961 8.91666 11.938C8.91666 12.1799 9.12186 12.3759 9.37499 12.3759Z" fill="black"/>
<path fill-rule="evenodd" clip-rule="evenodd" d="M8.39508 1.20428C9.02025 2.21775 9.79483 3.16201 10.5447 4.07562C12.0645 5.92825 13.5 7.67838 13.5 9.74824C13.5 12.6467 11.0332 15.0039 8 15.0039C4.96675 15.0039 2.5 12.6467 2.5 9.74824C2.5 7.67838 3.9355 5.92825 5.45533 4.07562C6.20517 3.16201 6.97975 2.21775 7.60583 1.20428C7.76992 0.937115 8.23008 0.937115 8.39508 1.20428ZM8 7.55838C8 6.83397 7.38308 6.24446 6.625 6.24446C5.86692 6.24446 5.25 6.83397 5.25 7.55838C5.25 8.28279 5.86692 8.8723 6.625 8.8723C7.38308 8.8723 8 8.28279 8 7.55838ZM5.70833 12.3761C5.82567 12.3761 5.943 12.3332 6.03283 12.2482L10.6162 7.86846C10.7949 7.69765 10.794 7.41998 10.6152 7.24917C10.4365 7.07836 10.1459 7.07836 9.96717 7.24917L5.38383 11.6289C5.20508 11.7997 5.20508 12.0774 5.38383 12.2482C5.47367 12.3332 5.591 12.3761 5.70833 12.3761ZM8 11.9381C8 12.6625 8.61692 13.252 9.375 13.252C10.1331 13.252 10.75 12.6625 10.75 11.9381C10.75 11.2137 10.1331 10.6242 9.375 10.6242C8.61692 10.6242 8 11.2137 8 11.9381Z" fill="black"/>
</svg>
