<svg width="16" height="16" viewBox="0 0 16 16" fill="none" xmlns="http://www.w3.org/2000/svg">
<path d="M8 13.9996C7.86946 13.9996 7.75275 13.953 7.64989 13.8598L2.77765 9.16102C2.73102 9.11445 2.66109 9.04459 2.56784 8.95144C2.4746 8.8583 2.32992 8.68584 2.13381 8.43406C1.93771 8.18228 1.76039 7.9305 1.60187 7.67872C1.44336 7.42694 1.30334 7.11461 1.18183 6.74174C1.06032 6.36888 0.99971 6.00998 1 5.66506C1 4.51822 1.33132 3.62316 1.99394 2.97988C2.65657 2.33661 3.57126 2.01031 4.738 2.001C5.05532 2.001 5.38198 2.05688 5.71795 2.16866C6.05393 2.28043 6.3666 2.43426 6.65595 2.63016C6.9453 2.82605 7.19736 3.00317 7.41211 3.16152C7.62687 3.31986 7.82283 3.49698 8 3.69287C8.18678 3.50629 8.38275 3.32918 8.58789 3.16152C8.79303 2.99386 9.04508 2.81674 9.34405 2.63016C9.64302 2.44358 9.95569 2.28974 10.282 2.16866C10.6084 2.04757 10.9351 1.99168 11.262 2.001C12.4287 2.001 13.3434 2.32729 14.0061 2.97988C14.6687 3.63248 15 4.52753 15 5.66506C15 6.81189 14.4026 7.98202 13.2079 9.17543L8.34967 13.8603C8.25643 13.9534 8.13972 14 7.99956 14L8 13.9996Z" fill="black"/>
</svg>
