<svg width="16" height="16" viewBox="0 0 16 16" fill="none" xmlns="http://www.w3.org/2000/svg">
<path d="M10.8135 1.93397C11.6045 2.57835 12 3.53455 12 4.80255C12 5.4677 11.8069 6.11209 11.4208 6.73571C11.3105 6.94369 10.9058 7.35949 10.2067 7.98311L9.57235 8.45082C9.20457 8.80417 8.98392 9.11598 8.91042 9.38625C8.8553 9.55238 8.81855 9.78096 8.80017 10.072C8.80017 10.2174 8.72667 10.29 8.57967 10.29H6.81395C6.66667 10.29 6.59302 10.2278 6.59302 10.1032C6.62977 9.08467 6.75854 8.44028 6.97933 8.17C7.12662 7.94125 7.3474 7.6919 7.64169 7.42195C7.93598 7.152 8.19351 6.93379 8.4143 6.76734L8.74548 6.5493C8.94789 6.38318 9.10422 6.20651 9.21447 6.01929C9.47201 5.56212 9.60078 5.1984 9.60078 4.92812C9.60078 4.51248 9.48119 4.10723 9.24203 3.71236C8.9845 3.33825 8.56144 3.1512 7.97287 3.1512C7.34755 3.1512 6.9153 3.37978 6.67614 3.83695C6.4186 4.27335 6.28984 4.75145 6.28984 5.27124H4C4.05512 3.5876 4.57939 2.38205 5.57278 1.65461C6.21648 1.2182 6.97976 1 7.86262 1C9.05814 1 10.0422 1.31181 10.8148 1.93543L10.8135 1.93397ZM7.83419 11.8489C8.23873 11.8489 8.57436 12.0048 8.84109 12.3166C9.10781 12.6285 9.23198 13.0129 9.21361 13.4701C9.19523 13.9481 9.04809 14.3274 8.77218 14.608C8.49627 14.8887 8.15604 15.0186 7.75151 14.9979C7.34697 14.9979 7.01134 14.8471 6.74462 14.5457C6.47789 14.2443 6.35372 13.8546 6.37209 13.3767C6.39047 12.8987 6.53761 12.5194 6.81352 12.2388C7.08943 11.9581 7.42966 11.8282 7.83419 11.8489Z" fill="black"/>
</svg>
