<svg width="16" height="16" viewBox="0 0 16 16" fill="none" xmlns="http://www.w3.org/2000/svg">
<path d="M10.5283 8.79825C10.5283 8.58518 11.397 5.7549 9.70616 4.89913C7.75777 3.91253 7.21859 3.12676 7.23526 1.8654C7.23359 1.91703 6.05689 3.91253 6.82275 4.89869C8.0132 6.42474 7.51027 7.60646 6.82275 7.49796C5.66813 7.31595 5.80772 5.73084 5.99981 5.33183C5.39604 5.26445 4.69727 5.65952 4.35101 6.19767C3.31223 7.82216 5.56438 9.37577 4.76352 10.5304C4.15392 11.4098 3.11306 9.67809 3.11681 9.66453C1.88011 16.4539 10.8599 16.6263 11.3537 10.9644C11.5008 9.26639 12.9537 8.34324 13 8.36511C11.452 7.61259 10.5278 8.85163 10.5278 8.79781L10.5283 8.79825ZM7.64652 13.5632C5.48813 13.6481 5.70897 11.9444 5.99981 11.3975C6.3669 10.6992 7.29818 10.5614 6.82358 9.66409C6.82941 9.67678 7.83444 9.83647 8.47029 10.5299C9.44657 11.5909 9.33573 13.498 7.64652 13.5632ZM8.8828 3.16613C8.63071 2.88175 8.47029 2.54005 8.47029 2.29942C8.47029 1.84878 8.8203 1.4152 9.29406 1C9.34157 1.36139 9.08864 1.90215 9.29406 2.29942C9.45365 2.59343 9.70658 2.9255 9.70658 3.16613C9.70658 3.48858 9.59199 3.78215 9.29406 4.03241C9.24906 3.91209 9.17031 3.51614 8.88239 3.16613H8.8828Z" fill="black"/>
</svg>
