<svg width="16" height="16" viewBox="0 0 16 16" fill="none" xmlns="http://www.w3.org/2000/svg">
<path d="M14.0061 5.66475C14.0061 5.23598 13.9501 4.86296 13.8383 4.54567C13.7264 4.22839 13.5817 3.97194 13.4042 3.77633C13.2268 3.58072 13.0122 3.42688 12.7604 3.31481C12.5087 3.20275 12.2659 3.11877 12.0323 3.06288C11.7986 3.00699 11.5419 2.98836 11.2621 3.00699C10.9824 3.02562 10.693 3.09082 10.3941 3.2026C10.0951 3.31438 9.80578 3.48219 9.52605 3.70603C9.24632 3.92988 9.02225 4.11632 8.85383 4.26536C8.68541 4.41439 8.52675 4.57289 8.37785 4.74085C8.28461 4.86194 8.15859 4.92248 7.99978 4.92248C7.84098 4.92248 7.71495 4.86194 7.62171 4.74085C7.49117 4.60112 7.33251 4.44263 7.14573 4.26536C6.95896 4.08808 6.73503 3.90164 6.47395 3.70603C6.21287 3.51042 5.92352 3.34261 5.60591 3.2026C5.28831 3.06259 4.99896 2.99739 4.73788 3.00699C4.4768 3.0166 4.22009 3.03523 3.96775 3.06288C3.71541 3.09053 3.47269 3.17451 3.23958 3.31481C3.00647 3.45512 2.79187 3.60896 2.59577 3.77633C2.39967 3.94371 2.25499 4.20015 2.16175 4.54567C2.06851 4.89119 2.01256 5.26422 1.99391 5.66475C1.99391 6.5319 2.48388 7.45493 3.4638 8.43385L7.99978 12.7975L12.5358 8.43385C13.5157 7.45493 14.0057 6.5319 14.0057 5.66475H14.0061ZM15 5.66475C15 6.81163 14.4027 7.9818 13.208 9.17525L8.34988 13.8603C8.25664 13.9534 8.13994 14 7.99978 14C7.85963 14 7.74293 13.9534 7.64968 13.8603L2.77759 9.16128C2.73097 9.1147 2.66104 9.04484 2.56779 8.9517C2.47455 8.85855 2.32988 8.68608 2.13378 8.43429C1.93768 8.1825 1.76037 7.93071 1.60186 7.67892C1.44334 7.42713 1.30333 7.1148 1.18182 6.74192C1.06032 6.36903 0.99971 6.01013 1 5.66519C1 4.51831 1.33131 3.62322 1.99391 2.97992C2.65652 2.33662 3.57118 2.01031 4.73788 2.001C5.0552 2.001 5.38184 2.05689 5.71781 2.16866C6.05377 2.28044 6.36643 2.43428 6.65577 2.63018C6.94512 2.82608 7.19716 3.00321 7.41191 3.16156C7.62666 3.31991 7.82262 3.49703 7.99978 3.69294C8.18656 3.50635 8.38252 3.32922 8.58765 3.16156C8.79278 2.99389 9.04483 2.81677 9.34379 2.63018C9.64275 2.44359 9.95541 2.28976 10.2818 2.16866C10.6081 2.04757 10.9348 1.99168 11.2617 2.001C12.4284 2.001 13.343 2.32731 14.0057 2.97992C14.6683 3.63254 14.9996 4.52762 14.9996 5.66519L15 5.66475Z" fill="black"/>
</svg>
