<svg width="16" height="16" viewBox="0 0 16 16" fill="none" xmlns="http://www.w3.org/2000/svg">
<path d="M9.48956 1C8.88547 1 8.41792 1.18862 8.08691 1.56586C7.7559 1.9431 7.59039 2.33603 7.59039 2.74467C7.56164 3.18469 7.66944 3.53029 7.91377 3.78146C8.1581 4.03262 8.51067 4.15821 8.97148 4.15821C9.51808 4.15821 9.95688 3.98528 10.2879 3.63944C10.6189 3.2936 10.7844 2.86927 10.7844 2.36645C10.7844 1.45499 10.3528 1 9.48956 1ZM6.89984 15C7.33146 15 7.93577 14.7957 8.71278 14.3871C9.48978 13.9784 10.2522 13.3657 11 12.5489L10.6113 11.9831C9.9205 12.5487 9.40265 12.8315 9.05771 12.8315C8.8565 12.8315 8.82776 12.533 8.97148 11.936L9.87761 8.16483C10.2517 6.65637 10.0934 5.90213 9.40265 5.90213C8.97103 5.90213 8.33079 6.13 7.48192 6.58573C6.63306 7.04145 5.80575 7.63061 5 8.3532L5.34494 8.96615C6.0932 8.43194 6.62542 8.16483 6.94161 8.16483C7.11408 8.16483 7.11408 8.43194 6.94161 8.96615L6.16483 12.5489C5.7907 14.183 6.03526 15 6.8985 15H6.89984Z" fill="black"/>
</svg>
