<svg width="16" height="16" viewBox="0 0 16 16" fill="none" xmlns="http://www.w3.org/2000/svg">
<path d="M14.4536 6.99319H8.32156C8.03938 6.99187 7.53931 6.56969 7.46319 6.31944L7.45662 6.30019C7.28687 5.91825 7.5065 5.61944 7.76112 5.27425C7.79656 5.22613 7.83112 5.178 7.86044 5.13775C8.77962 3.96831 8.99137 3.16244 7.59662 2L7.3455 2.26687C8.45019 3.18694 8.49306 3.73338 7.55025 4.93256C7.51744 4.9785 7.48463 5.02487 7.45006 5.07081C7.18713 5.42737 6.86162 5.87012 7.10356 6.42837C7.16219 6.60819 7.32887 6.81819 7.53712 6.99319H1.54512C1.24456 6.99319 1 7.22331 1 7.50638V13.0665C1 13.3496 1.24456 14 1.54512 14H14.454C14.7554 14 15 13.7694 15 13.4864V7.50638C15 7.22331 14.755 6.99319 14.4536 6.99319ZM8.31194 8.00044H9.51113V9.12963H8.31194V8.00044ZM8.29969 9.87512H9.49888V11.0048H8.29969V9.87512ZM6.52038 8.00044H7.72V9.12963H6.52038V8.00044ZM6.50856 9.87512H7.70819V11.0048H6.50856V9.87512ZM4.67719 8.00044H5.87638V9.12963H4.67719V8.00044ZM2.90969 8.00044H4.10888V9.12963H2.90969V8.00044ZM4.10888 12.9888H2.90969V11.8592H4.10888V12.9888ZM2.89788 11.0048V9.87512H5.865V11.0048H2.89788ZM9.51988 12.9888H4.69687V11.8592H9.51988V12.9888ZM10.0672 9.87512H11.2668V11.0048H10.0672V9.87512ZM11.2791 12.9888H10.0799V11.8592H11.2791V12.9888ZM11.2791 9.12919H10.0799V8H11.2791V9.12919ZM11.8548 9.87512H13.054V11.0048H11.8548V9.87512ZM13.0662 12.9888H11.8666V11.8592H13.0662V12.9888ZM13.0662 9.12919H11.8666V8H13.0662V9.12919Z" fill="black"/>
</svg>
