<svg width="16" height="16" viewBox="0 0 16 16" fill="none" xmlns="http://www.w3.org/2000/svg">
<path d="M9.65791 13.236V13.642C9.65791 13.9642 9.41157 14.2439 9.09337 14.2858L8.97766 14.6639C8.9198 14.8597 8.73132 15 8.51437 15H7.47207C7.25512 15 7.06664 14.8601 7.00878 14.6639L6.90754 14.2858C6.58888 14.2439 6.32853 13.9637 6.32853 13.642V13.236C6.32853 13.0122 6.51656 12.83 6.74843 12.83H9.25292C9.48434 12.844 9.65836 13.0118 9.65836 13.236H9.65791ZM11.5834 7.72028C11.5834 8.64423 11.2069 9.49825 10.5845 10.1141C10.1067 10.59 9.80254 11.1919 9.7013 11.8361C9.65791 12.1023 9.41157 12.3121 9.10783 12.3121H6.87816C6.58843 12.3121 6.34255 12.1163 6.29915 11.8361C6.19791 11.1923 5.87925 10.576 5.41596 10.1141C4.79357 9.49825 4.41706 8.6722 4.4026 7.76224C4.38813 5.84441 5.9805 4.29021 7.97876 4.27622C9.97701 4.26224 11.5838 5.80201 11.5838 7.72028H11.5834ZM8.3982 5.63418C8.3982 5.42439 8.22464 5.24213 7.99277 5.24213C6.57397 5.24213 5.40105 6.36233 5.40105 7.73427C5.40105 7.94406 5.58907 8.12631 5.80648 8.12631C6.0379 8.12631 6.21192 7.94449 6.21192 7.73427C6.21192 6.78234 7.02279 6.02622 7.99277 6.02622C8.22419 6.02622 8.3982 5.84441 8.3982 5.63418ZM7.99277 3.14205C8.22419 3.14205 8.3982 2.96023 8.3982 2.75V1.39205C8.3982 1.18226 8.22464 1 7.99277 1C7.77581 1 7.58733 1.16783 7.58733 1.39205V2.75C7.58733 2.95979 7.77536 3.14205 7.99277 3.14205ZM3.22968 7.72028C3.22968 7.51049 3.05611 7.32823 2.82424 7.32823H1.40544C1.18848 7.32823 1 7.49607 1 7.72028C1 7.93007 1.17356 8.11232 1.40544 8.11232H2.82424C3.05611 8.11232 3.22968 7.93051 3.22968 7.72028ZM14.5946 7.32823H13.1758C12.9443 7.32823 12.7703 7.49607 12.7703 7.72028C12.7703 7.93007 12.9439 8.11232 13.1758 8.11232H14.5946C14.8115 8.11232 15 7.93051 15 7.72028C15 7.51005 14.812 7.32823 14.5946 7.32823ZM4.05501 10.9541L3.05611 11.92C2.89701 12.0739 2.89701 12.3121 3.05611 12.4659C3.12843 12.5498 3.22968 12.5778 3.33137 12.5778C3.43307 12.5778 3.54833 12.5498 3.6211 12.4659L4.62 11.5C4.7791 11.3462 4.7791 11.108 4.62 10.9541C4.47537 10.8003 4.21457 10.8003 4.05547 10.9541H4.05501ZM11.6557 4.59834C11.757 4.59834 11.8582 4.55638 11.9454 4.48645L12.9443 3.52054C13.1034 3.3667 13.1034 3.11451 12.9443 2.96066C12.7852 2.8208 12.5389 2.8208 12.3798 2.96066L11.3664 3.92657C11.2073 4.08042 11.2073 4.3326 11.3664 4.48645C11.4532 4.55638 11.5545 4.59834 11.6562 4.59834H11.6557ZM4.05501 4.48601C4.12733 4.55594 4.24304 4.5979 4.34474 4.5979C4.44644 4.5979 4.54723 4.55594 4.62 4.48601C4.7791 4.33217 4.7791 4.07998 4.62 3.92614L3.6211 2.96023C3.462 2.80638 3.2012 2.80638 3.0421 2.96023C2.883 3.11407 2.883 3.36626 3.0421 3.5201L4.05547 4.48601H4.05501ZM11.9454 10.9541C11.7863 10.8003 11.5255 10.8003 11.3664 10.9541C11.2073 11.108 11.2073 11.3462 11.3664 11.5L12.3798 12.4659C12.4521 12.5498 12.5534 12.5778 12.6551 12.5778C12.7568 12.5778 12.872 12.5498 12.9448 12.4659C13.1039 12.3121 13.1039 12.0739 12.9448 11.92L11.9459 10.9541H11.9454Z" fill="black"/>
</svg>
