<svg width="16" height="16" viewBox="0 0 16 16" fill="none" xmlns="http://www.w3.org/2000/svg">
<path d="M2.0136 8.57434C1.99547 8.46244 2.0272 8.35973 2.10879 8.26619C2.19039 8.17265 2.29026 8.12137 2.4084 8.11233L3.6336 7.88854C3.76053 7.86989 3.87853 7.8932 3.9876 7.95848C4.09668 8.02375 4.15561 8.11714 4.16439 8.23865C4.17318 8.36016 4.14145 8.46754 4.0692 8.56079C3.99695 8.65403 3.88802 8.71464 3.74239 8.74262L2.54439 8.92445C2.41747 8.9431 2.304 8.91978 2.20399 8.85451C2.10398 8.78924 2.04051 8.69585 2.0136 8.57434ZM2.0408 5.06013C1.9864 4.93891 1.9864 4.82687 2.0408 4.72401C2.09519 4.62115 2.18146 4.54655 2.29961 4.50022C2.41775 4.45389 2.53575 4.47254 2.65361 4.55617L3.77002 5.04614C3.89694 5.10209 3.98321 5.18616 4.02883 5.29835C4.07444 5.41053 4.07444 5.51791 4.02883 5.62048C3.98321 5.72305 3.90148 5.79765 3.78362 5.84427C3.66576 5.89089 3.54776 5.89089 3.42961 5.84427L2.31321 5.29835C2.18628 5.26105 2.09548 5.18164 2.0408 5.06013ZM4.21879 2.16179C4.23692 2.04057 4.30039 1.94251 4.40918 1.86762C4.49984 1.821 4.59971 1.81168 4.70879 1.83965C4.81786 1.86762 4.9132 1.94222 4.99479 2.06344L5.662 3.12732C5.72547 3.23921 5.74813 3.36058 5.73 3.49141C5.71187 3.62225 5.662 3.71098 5.58041 3.7576C5.49881 3.80423 5.39441 3.81821 5.2672 3.79956C5.13999 3.78091 5.04919 3.71098 4.99479 3.58976L4.30039 2.52588C4.22786 2.40466 4.20066 2.2833 4.21879 2.16179ZM4.99479 5.53612C5.1492 5.17217 5.3716 4.86417 5.662 4.61211C5.9524 4.36006 6.29267 4.16876 6.68279 4.03821C7.07292 3.90767 7.49945 3.8424 7.96239 3.8424H8.01679C8.47972 3.8424 8.90626 3.90767 9.29638 4.03821C9.68651 4.16876 10.0268 4.36006 10.3172 4.61211C10.6076 4.86417 10.8345 5.17217 10.998 5.53612C11.3881 6.50675 11.3201 7.56612 10.794 8.71421C10.5943 9.11545 10.3811 9.54016 10.1544 9.98832C10.0275 10.2311 9.91401 10.5764 9.814 11.0242C9.71399 11.4721 9.64146 11.7568 9.59642 11.8783C9.56015 11.9902 9.48762 12.0555 9.37883 12.0741H6.61565C6.50685 12.0555 6.42512 11.9902 6.37044 11.8783C6.10724 10.8424 5.9303 10.2124 5.83964 9.98832C5.61271 9.54016 5.39951 9.11545 5.20006 8.71421C4.67366 7.49152 4.60566 6.43216 4.99607 5.53612H4.99479ZM6.34239 14.2583C6.34239 14.1837 6.36505 14.1277 6.41038 14.0904C6.45571 14.0531 6.51464 14.0298 6.58717 14.0205H9.43238C9.48677 14.0205 9.53664 14.0438 9.58197 14.0904C9.6273 14.137 9.64996 14.193 9.64996 14.2583V14.7482C9.64996 14.8228 9.6273 14.8834 9.58197 14.9301C9.53664 14.9767 9.48677 15 9.43238 15H6.58717C6.4237 15 6.34196 14.9159 6.34196 14.7478L6.34239 14.2583ZM6.34239 13.3063V12.8163C6.34239 12.6482 6.42412 12.5641 6.5876 12.5641H9.4328C9.4872 12.5641 9.53706 12.5874 9.58239 12.634C9.62772 12.6807 9.65039 12.7413 9.65039 12.8159V13.3058C9.65039 13.3804 9.62772 13.441 9.58239 13.4877C9.53706 13.5343 9.4872 13.5529 9.4328 13.5436H6.5876C6.51507 13.5436 6.45614 13.525 6.41081 13.4877C6.36548 13.4504 6.34239 13.3902 6.34239 13.3063ZM7.62199 2.75011V1.48998C7.62199 1.34078 7.65825 1.22408 7.73078 1.13987C7.80331 1.05566 7.89864 1.00903 8.01679 1C8.12558 1 8.22092 1.04662 8.30279 1.13987C8.38467 1.23311 8.42547 1.34982 8.42519 1.48998V2.75011C8.42519 2.88065 8.38439 2.98803 8.30279 3.07224C8.2212 3.15646 8.12586 3.20308 8.01679 3.21211C7.89893 3.21211 7.80359 3.16549 7.73078 3.07224C7.65797 2.979 7.6217 2.87162 7.62199 2.75011ZM10.2492 3.49185C10.2401 3.36131 10.2673 3.23994 10.3308 3.12776L10.998 2.06388C11.0886 1.95198 11.1885 1.87724 11.2976 1.83965C11.4067 1.80206 11.5111 1.81139 11.6108 1.86762C11.7015 1.94222 11.7559 2.04027 11.774 2.16179C11.7921 2.2833 11.7649 2.40466 11.6924 2.52588L11.0252 3.58976C10.9345 3.70165 10.8392 3.77159 10.7392 3.79956C10.6392 3.82754 10.5348 3.81355 10.426 3.7576C10.3172 3.70165 10.2582 3.61336 10.2492 3.49185ZM11.8556 8.23821C11.8737 8.11699 11.9281 8.0236 12.0188 7.95804C12.1094 7.89248 12.2229 7.86916 12.3592 7.8881L13.5844 8.1119C13.7022 8.13054 13.8021 8.18183 13.884 8.26575C13.9659 8.34967 13.9976 8.45239 13.9792 8.5739C13.961 8.70444 13.9021 8.79784 13.8024 8.85407C13.7027 8.91031 13.5847 8.93362 13.4484 8.92401L12.2232 8.74218C12.0963 8.72353 11.9964 8.66292 11.9236 8.56035C11.8508 8.45778 11.8281 8.3504 11.8556 8.23821ZM11.9644 5.62004C11.9281 5.50815 11.9326 5.40077 11.978 5.29791C12.0233 5.19505 12.105 5.11098 12.2232 5.04571L13.3668 4.55573C13.4756 4.48113 13.5845 4.46248 13.6936 4.49978C13.8027 4.53708 13.8889 4.61168 13.9524 4.72357C14.0159 4.83547 14.0159 4.94751 13.9524 5.05969C13.8889 5.17188 13.7981 5.25129 13.68 5.29791L12.5636 5.84383C12.4457 5.88113 12.3277 5.88113 12.2096 5.84383C12.0914 5.80654 12.0097 5.73194 11.9644 5.62004Z" fill="black"/>
</svg>
