<svg width="16" height="16" viewBox="0 0 16 16" fill="none" xmlns="http://www.w3.org/2000/svg">
<path d="M10.8347 5.96624C10.8554 6.02848 11.1566 6.09591 11.7381 6.16852C12.3197 6.24114 12.8804 6.36578 13.4201 6.54246C13.9599 6.71913 14.2299 6.96307 14.2302 7.27428C14.2302 8.02183 13.9135 9.49633 13.2801 11.6978C12.6466 13.8993 12.0912 15 11.6136 15C10.1182 15 8.62298 14.782 7.12789 14.346C5.6328 13.91 4.88525 13.453 4.88525 12.9752V7.64821C4.88525 7.50298 4.96305 7.32647 5.11866 7.11868C5.27426 6.91088 5.51301 6.67731 5.83492 6.41797C6.15682 6.15863 6.43205 5.94581 6.66059 5.77951C6.88913 5.61321 7.21104 5.39002 7.62631 5.10993C8.04157 4.82984 8.28033 4.66889 8.34257 4.62707C8.8619 4.27405 9.40181 3.75488 9.96231 3.06958C10.5228 2.38427 10.9642 1.84436 11.2864 1.44984C11.6086 1.05532 11.8214 0.920303 11.9249 1.04479C12.4234 1.83383 12.574 2.54506 12.3766 3.1785C12.1792 3.81194 11.8728 4.42981 11.4576 5.03213C11.0423 5.63444 10.8347 5.94598 10.8347 5.96672V5.96624ZM4.10626 6.02848C4.25149 6.02848 4.25149 6.10109 4.10626 6.24632C3.58693 6.76565 3.32727 7.30556 3.32727 7.86606V12.8191C3.32727 13.3384 3.59731 13.8784 4.13738 14.4389C4.24112 14.5426 4.23074 14.5945 4.10626 14.5945C3.83622 14.5945 3.55063 14.553 3.24947 14.47C2.94831 14.387 2.62641 14.1534 2.28375 13.7693C1.9411 13.3851 1.76978 12.8711 1.76978 12.2273V8.45784C1.76978 7.81403 1.9411 7.29486 2.28375 6.90034C2.62641 6.50582 2.9535 6.26188 3.26503 6.16852C3.57656 6.07516 3.85697 6.02848 4.10626 6.02848Z" fill="black"/>
</svg>
