<svg width="16" height="16" viewBox="0 0 16 16" fill="none" xmlns="http://www.w3.org/2000/svg">
<path d="M10.3411 5.66667C10.3411 5.02482 10.1128 4.47551 9.65598 4.01874C9.19922 3.56197 8.64991 3.33359 8.00806 3.33359C7.3662 3.33359 6.81689 3.56197 6.36013 4.01874C5.90336 4.47551 5.67498 5.02482 5.67498 5.66667C5.67498 6.30852 5.90336 6.85783 6.36013 7.31459C6.81689 7.77136 7.3662 7.99974 8.00806 7.99974C8.64991 7.99974 9.19922 7.77136 9.65598 7.31459C10.1128 6.85783 10.3411 6.30852 10.3411 5.66667ZM12.6584 5.66667C12.6584 6.33025 12.5604 6.87413 12.3645 7.29829L9.05234 14.3475C8.95453 14.5434 8.80765 14.7011 8.6117 14.8207C8.41575 14.9402 8.21453 15 8.00806 15C7.80158 15 7.59493 14.9402 7.38811 14.8207C7.18129 14.7011 7.03984 14.5434 6.96377 14.3475L3.63531 7.29829C3.43936 6.87413 3.34139 6.33025 3.34139 5.66667C3.34139 4.38296 3.79832 3.28435 4.7122 2.37081C5.62607 1.45728 6.72469 1.00034 8.00806 1C9.29142 0.999661 10.39 1.4566 11.3039 2.37081C12.2178 3.28502 12.6693 4.38364 12.6584 5.66667Z" fill="black"/>
</svg>
