<svg width="16" height="16" viewBox="0 0 16 16" fill="none" xmlns="http://www.w3.org/2000/svg">
<path d="M15 4.4286H13.5715V5.85715H15V7.28569H13.5715V8.71424H15V10.1428H13.5715V11.5713H15V12.4285C15 12.5808 14.9429 12.7141 14.8287 12.8286C14.7146 12.9431 14.5812 13.0002 14.4287 12.9999H1.57133C1.41909 12.9999 1.28574 12.9428 1.17127 12.8286C1.05679 12.7144 0.999704 12.5811 1 12.4285V11.5713H2.42854V10.1428H1V8.71424H2.42854V7.28569H1V5.85715H2.42854V4.4286H1V3.57139C1 3.39983 1.05709 3.26172 1.17127 3.15705C1.28544 3.05239 1.4188 3.00006 1.57133 3.00006H14.4287C14.5809 3.00006 14.7143 3.05239 14.8287 3.15705C14.9432 3.26172 15.0003 3.39983 15 3.57139V4.4286ZM6.42829 10.1432L9.99987 8.00019L6.42829 5.85715V10.1428V10.1432Z" fill="black"/>
</svg>
