<svg width="16" height="17" viewBox="0 0 16 17" fill="none" xmlns="http://www.w3.org/2000/svg">
<path fill-rule="evenodd" clip-rule="evenodd" d="M14.9112 2.06248C14.8698 2.02583 14.8169 2.00463 14.7616 2.00256H14.6618L10.7209 3.7785C10.6789 3.79591 10.6442 3.82721 10.6224 3.86716C10.6134 3.88372 10.6068 3.90126 10.6028 3.91941C10.5971 3.94511 10.5965 3.97178 10.6012 3.99796V13.7854C10.6036 13.8041 10.6078 13.8224 10.6139 13.8399C10.6219 13.8629 10.633 13.8847 10.6468 13.9047C10.6568 13.9192 10.6682 13.9327 10.681 13.945C10.698 13.9652 10.7195 13.981 10.7438 13.9915C10.768 14.0019 10.7979 14.0065 10.8242 14.0049H10.9205L14.8871 12.25C14.9299 12.2214 14.96 12.1775 14.9711 12.1274C14.9823 12.0772 14.9711 12.0352 14.9711 11.9796V2.22203C14.9772 2.19256 14.9749 2.16186 14.9643 2.13361C14.9537 2.10535 14.9353 2.08063 14.9112 2.06248ZM14.173 11.6404L11.3994 12.8675V4.34713L14.173 3.11998V11.6404Z" fill="black"/>
<path fill-rule="evenodd" clip-rule="evenodd" d="M4.21947 2.08501C4.20483 2.08587 4.19025 2.0883 4.17603 2.09232L1.12304 3.7785C1.10684 3.7852 1.09171 3.79396 1.07798 3.80456C1.05618 3.82137 1.03791 3.84268 1.02454 3.86716C1.0186 3.878 1.0137 3.88945 1.00993 3.90114C1.00643 3.91186 1.00387 3.92294 1.00225 3.93414C0.999209 3.95521 0.999514 3.97677 1.00332 3.99796V13.7853C0.9972 13.8149 0.999575 13.8456 1.01017 13.8739C1.02077 13.9021 1.03916 13.9267 1.06318 13.945C1.08888 13.9597 1.11692 13.9696 1.14584 13.974C1.16789 13.9774 1.19045 13.9778 1.21286 13.975L1.32031 13.9219L4.37555 12.219C4.40259 12.2084 4.42676 12.1922 4.44658 12.1717C4.46056 12.1572 4.47237 12.1406 4.48154 12.1223C4.50364 12.0781 4.49527 12.0224 4.49527 11.9796V2.31179C4.4911 2.25211 4.46643 2.19572 4.42545 2.15224C4.40624 2.13263 4.38337 2.11741 4.35844 2.10718C4.33557 2.0978 4.31636 2.08538 4.29118 2.08501C4.26953 2.0788 4.2417 2.08368 4.21947 2.08501ZM3.69712 11.6702L1.8015 12.7478V4.31717L3.69712 3.31947V11.6702Z" fill="black"/>
<path fill-rule="evenodd" clip-rule="evenodd" d="M5.58279 2.1123H5.65625L9.59353 3.78848C9.61274 3.79957 9.63025 3.81321 9.64559 3.82904C9.65957 3.84341 9.67171 3.85949 9.68173 3.87703C9.70274 3.91381 9.71364 3.95558 9.71324 3.99796V13.7555C9.71376 13.7854 9.70776 13.8153 9.69571 13.8428C9.68368 13.8705 9.66584 13.8951 9.64343 13.915C9.62857 13.9327 9.6103 13.9471 9.58972 13.9573C9.56914 13.9676 9.54667 13.9736 9.52371 13.975H9.42393L5.50295 12.189C5.46626 12.1678 5.43582 12.1373 5.41478 12.1005C5.40089 12.0763 5.39142 12.0498 5.3867 12.0224C5.38427 12.0083 5.38311 11.9939 5.38323 11.9796V2.34175C5.38521 2.31118 5.39328 2.28134 5.40698 2.25382C5.42071 2.22641 5.4248 2.21219 5.44809 2.19221C5.46094 2.17188 5.49351 2.14469 5.51434 2.13251C5.5352 2.12033 5.58279 2.1123 5.58279 2.1123ZM6.16144 11.6404L8.98494 12.8575V4.33715L6.16144 3.17978V11.6404Z" fill="black"/>
</svg>
