<svg width="16" height="16" viewBox="0 0 16 16" fill="none" xmlns="http://www.w3.org/2000/svg">
<path d="M13.305 3.70192C13.5558 3.70192 13.7783 3.78584 13.9735 3.92614L13.5419 1.88199C13.4306 1.3361 13.0547 1 12.5535 1H3.65729C3.19787 1 2.808 1.36407 2.69673 1.88199L2.29295 3.78584C2.41812 3.72989 2.55764 3.70192 2.71064 3.70192H13.3054H13.305ZM11.9129 1.64379C12.2888 1.64379 12.5952 1.96591 12.5952 2.34397C12.5952 2.73601 12.2888 3.05813 11.9129 3.05813C11.5369 3.05813 11.2444 2.73601 11.2444 2.34397C11.2444 1.96591 11.5369 1.64379 11.9129 1.64379ZM9.79659 1.64379C10.1726 1.64379 10.479 1.96591 10.479 2.34397C10.479 2.73601 10.1726 3.05813 9.79659 3.05813C9.42062 3.05813 9.1142 2.73601 9.1142 2.34397C9.1142 1.96591 9.42062 1.64379 9.79659 1.64379ZM7.17918 1.7417H8.3488V2.23164H7.17918V1.7417ZM7.17918 2.72203H8.3488V3.21198H7.17918V2.72203ZM2.7102 14.9996C2.32033 14.9996 2 14.6635 2 14.2574V4.93357C2 4.76573 2.05563 4.61145 2.13909 4.48558C2.15299 4.4576 2.18081 4.44362 2.19472 4.41565C2.23644 4.37369 2.26426 4.34572 2.30599 4.31774C2.36162 4.27579 2.41726 4.2618 2.47289 4.23383C2.4868 4.34572 2.51461 4.45804 2.55634 4.56993C2.61197 4.70979 2.68152 4.8361 2.79322 4.94799C2.80713 4.97596 2.82104 4.98995 2.83495 5.00393C3.07182 5.25612 3.37781 5.42395 3.68423 5.42395H12.7891C13.1511 5.42395 13.4154 5.21416 13.5827 4.92002C13.5827 4.90603 13.5967 4.87806 13.6106 4.85009C13.6662 4.75219 13.694 4.6403 13.7218 4.52797C13.7357 4.48601 13.7496 4.43007 13.7496 4.37413C13.7775 4.38811 13.8053 4.41608 13.8192 4.44406C13.8609 4.48601 13.8887 4.52797 13.9165 4.58392C13.9305 4.61189 13.9444 4.62587 13.9583 4.65385C13.9861 4.73776 14 4.83566 14 4.934V14.2579C14 14.6639 13.6936 15 13.3037 15H2.7089L2.7102 14.9996ZM8.04238 6.45979C6.02347 6.45979 4.39487 8.16783 4.39487 10.2679C4.39487 12.368 6.02391 14.0756 8.04238 14.0756C10.0469 14.0756 11.6899 12.3676 11.6899 10.2679C11.6899 8.16827 10.0469 6.45979 8.04238 6.45979ZM3.68467 4.93357C3.35043 4.93357 2.97446 4.54152 2.94665 4.19143H13.2907C13.2907 4.47159 13.1655 4.82124 12.9147 4.90559C12.873 4.91958 12.8313 4.93357 12.7895 4.93357H3.68467ZM8.04238 13.3475C6.41334 13.3475 5.09073 11.9615 5.09073 10.2675C5.09073 8.57343 6.41334 7.20149 8.04238 7.20149C9.6575 7.20149 10.9801 8.57343 10.9801 10.2675C10.9801 11.9615 9.6575 13.3475 8.04238 13.3475ZM9.46235 8.64379C9.26763 8.64379 9.10029 8.81163 9.10029 9.02185C9.10029 9.23208 9.2672 9.39991 9.46235 9.39991C9.65707 9.39991 9.8244 9.23208 9.8244 9.02185C9.8244 8.81163 9.6575 8.64379 9.46235 8.64379ZM8.27882 7.91565C8.0841 7.91565 7.93067 8.08348 7.93067 8.27972C7.93067 8.48951 8.08367 8.65778 8.27882 8.65778C8.48745 8.65778 8.64088 8.48995 8.64088 8.27972C8.64088 8.08392 8.48788 7.91565 8.27882 7.91565ZM5.87048 9.91783C5.85657 10.0297 5.84266 10.156 5.84266 10.2679C5.84266 11.542 6.83103 12.5638 8.04238 12.5638C9.25372 12.5638 10.2282 11.542 10.2282 10.2679C10.2282 10.0441 10.2004 9.81993 10.1447 9.59572C10.0196 9.86189 9.72705 10.1976 9.10073 10.1836C8.97555 10.1836 8.87819 10.1696 8.7804 10.1556C8.91948 10.0717 9.01728 9.91739 9.01728 9.73558C9.01728 9.46941 8.80865 9.24563 8.54395 9.24563C8.27926 9.24563 8.07063 9.46941 8.07063 9.73558C8.07063 9.76355 8.08454 9.77753 8.08454 9.80551C7.862 9.62369 7.63903 9.46941 7.19352 9.45542C6.58111 9.45542 6.1217 9.73558 5.87091 9.91739L5.87048 9.91783Z" fill="black"/>
</svg>
