<svg width="16" height="16" viewBox="0 0 16 16" fill="none" xmlns="http://www.w3.org/2000/svg">
<path fill-rule="evenodd" clip-rule="evenodd" d="M15 11.5438C14.9932 11.8531 14.964 12.1617 14.9125 12.4669C14.8609 12.7714 14.7636 13.0665 14.6237 13.3419C14.3444 13.8962 13.8953 14.3469 13.3419 14.6281C13.0661 14.7672 12.7712 14.8646 12.4669 14.9169C12.1632 14.9684 11.8561 14.9962 11.5481 15H4.45624C4.14816 14.9952 3.84097 14.9659 3.53751 14.9125C3.23294 14.8609 2.93793 14.7635 2.66251 14.6238C2.10693 14.344 1.65601 13.8931 1.37625 13.3375C1.23642 13.0621 1.13907 12.7671 1.08749 12.4625C1.0343 12.1605 1.00504 11.8547 1 11.5481V4.45624C1.00504 4.14819 1.0343 3.841 1.08749 3.53748C1.13907 3.23291 1.23642 2.93793 1.37625 2.66248C1.65561 2.10815 2.10474 1.65753 2.65811 1.37622C2.93387 1.23718 3.22876 1.13983 3.53311 1.08752C3.83664 1.03448 4.14383 1.00525 4.45187 1H11.5438C11.8518 1.00507 12.159 1.0343 12.4625 1.08752C12.7671 1.1391 13.0621 1.23645 13.3375 1.37622C13.892 1.6507 14.3442 2.09528 14.6281 2.64502C14.7679 2.92041 14.8653 3.21545 14.9169 3.52002C14.9688 3.82355 14.9966 4.1308 15 4.43872V11.5438ZM9.3616 4.5C8.96237 4.54016 8.59341 4.73077 8.32977 5.03302C8.20261 5.18079 8.10587 5.35217 8.04507 5.53735C7.98431 5.7226 7.96072 5.91791 7.97565 6.11224C8.1723 6.11188 8.36636 6.06726 8.54343 5.98181C8.72052 5.89636 8.87613 5.77222 8.99872 5.61853C9.26147 5.3075 9.39175 4.90594 9.3616 4.5ZM9.28729 11.4908C9.74634 11.4908 10.048 11.0538 10.3366 10.6169C10.5494 10.3311 10.7202 10.0162 10.8438 9.68195C10.5674 9.56061 10.332 9.362 10.166 9.11005C10 8.85809 9.91046 8.5636 9.90811 8.2619C9.91171 7.99414 9.98294 7.73157 10.1151 7.4986C10.2474 7.26562 10.4363 7.06982 10.6645 6.92932C10.519 6.72266 10.3277 6.55237 10.1055 6.43188C9.88324 6.31134 9.63614 6.24384 9.38348 6.23462C9.03424 6.21063 8.71585 6.33612 8.45813 6.43768L8.453 6.4397C8.40344 6.45917 8.35614 6.47784 8.31128 6.49426C8.25827 6.51367 8.20871 6.53003 8.16296 6.54132C8.12045 6.55182 8.08124 6.55792 8.04559 6.55792C7.92371 6.55792 7.77014 6.4989 7.59894 6.43311C7.38324 6.35016 7.1395 6.25647 6.89575 6.25647C6.59998 6.2641 6.31131 6.34875 6.05829 6.50201C5.80524 6.65521 5.59662 6.87183 5.45294 7.13031C4.83212 8.17889 5.2868 9.75183 5.89017 10.6257C6.17871 11.0626 6.55908 11.517 6.99631 11.4995C7.19864 11.4915 7.34387 11.43 7.49438 11.3663C7.66907 11.2924 7.85089 11.2155 8.13742 11.2155C8.41412 11.2155 8.58963 11.2896 8.75858 11.3609C8.91528 11.4271 9.06635 11.4908 9.28729 11.4908Z" fill="black"/>
</svg>
