<svg width="16" height="16" viewBox="0 0 16 16" fill="none" xmlns="http://www.w3.org/2000/svg">
<path d="M14.625 6H10.75C10.3344 6 10 5.66563 10 5.25V1.375C10 1.16875 10.1687 1 10.375 1H11.625C11.8313 1 12 1.16875 12 1.375V4H14.625C14.8313 4 15 4.16875 15 4.375V5.625C15 5.83125 14.8313 6 14.625 6ZM6 5.25V1.375C6 1.16875 5.83125 1 5.625 1H4.375C4.16875 1 4 1.16875 4 1.375V4H1.375C1.16875 4 1 4.16875 1 4.375V5.625C1 5.83125 1.16875 6 1.375 6H5.25C5.66563 6 6 5.66563 6 5.25ZM6 14.625V10.75C6 10.3344 5.66563 10 5.25 10H1.375C1.16875 10 1 10.1687 1 10.375V11.625C1 11.8313 1.16875 12 1.375 12H4V14.625C4 14.8313 4.16875 15 4.375 15H5.625C5.83125 15 6 14.8313 6 14.625ZM12 14.625V12H14.625C14.8313 12 15 11.8313 15 11.625V10.375C15 10.1687 14.8313 10 14.625 10H10.75C10.3344 10 10 10.3344 10 10.75V14.625C10 14.8313 10.1687 15 10.375 15H11.625C11.8313 15 12 14.8313 12 14.625Z" fill="black"/>
</svg>
