<svg width="16" height="16" viewBox="0 0 16 16" fill="none" xmlns="http://www.w3.org/2000/svg">
<path d="M9.1127 3.65825C10.7662 4.10625 12.0009 5.6445 12 7.47675V11.0367C12 13.2168 10.2605 15 8.13607 15H7.86393C5.73905 15 4 13.2163 4 11.0367V7.47675C4 5.6445 5.23428 4.10625 6.8873 3.65825C6.83288 3.83456 6.79996 4.02575 6.79996 4.22787V6.90144C6.79996 7.74581 7.33984 8.43662 8 8.43662C8.66016 8.43662 9.20004 7.74581 9.20004 6.90144V4.22787C9.20004 4.02575 9.16712 3.83456 9.1127 3.65825ZM8.00088 6.79469C7.66948 6.79469 7.40086 6.24388 7.40086 5.564C7.40086 4.88413 7.66948 4.33331 8.00088 4.33331C8.33227 4.33331 8.6009 4.88413 8.6009 5.564C8.6009 6.24388 8.33227 6.79469 8.00088 6.79469ZM8.29979 3.65825H7.69977C7.69977 2.72944 7.20773 2.63669 5.99978 2.63669C5.0293 2.63669 4 2.63669 4 1H4.60002C4.60002 1.92881 4.79184 2.02156 5.99978 2.02156C6.97026 2.022 8.29979 2.022 8.29979 3.65825Z" fill="black"/>
</svg>
