<svg width="16" height="16" viewBox="0 0 16 16" fill="none" xmlns="http://www.w3.org/2000/svg">
<path d="M14.9995 5.6584L14.9991 12.6984C14.9991 13.055 14.8778 13.3587 14.6351 13.6095C14.3924 13.8602 14.0984 13.9904 13.7532 14H2.24641C1.91049 14 1.61652 13.8698 1.36451 13.6095C1.11249 13.3491 0.991146 13.0454 1.00047 12.6984L1.00091 5.6584C1.23428 5.91876 1.49561 6.15504 1.78492 6.36724C3.66993 7.68799 4.96715 8.61354 5.67658 9.14388C5.97521 9.37534 6.21324 9.55368 6.39068 9.67889C6.56811 9.80411 6.81546 9.93429 7.13274 10.0694C7.45001 10.2046 7.73466 10.2672 7.98667 10.2573H8.01464C8.27598 10.2573 8.56063 10.1946 8.86858 10.0694C9.17653 9.94422 9.42389 9.81404 9.61064 9.67889C9.79739 9.54375 10.0354 9.36541 10.3247 9.14388C11.2113 8.48832 12.5085 7.56277 14.2164 6.36724C14.515 6.15504 14.7755 5.91876 14.9995 5.6584ZM14.9995 3.28674C14.9995 3.71084 14.8735 4.11582 14.6215 4.50169C14.3695 4.88756 14.0522 5.22016 13.6697 5.49948C11.7098 6.90722 10.4873 7.77979 10.0022 8.1172C9.95559 8.15573 9.84823 8.23775 9.68013 8.36326C9.51202 8.48878 9.37203 8.59487 9.26015 8.68156C9.14827 8.76825 9.01294 8.85508 8.85416 8.94207C8.69537 9.02905 8.54606 9.10129 8.40621 9.15878C8.26637 9.21627 8.1357 9.24035 8.0142 9.23102H7.98624C7.87436 9.23102 7.74835 9.20694 7.60821 9.15878C7.46808 9.11062 7.31876 9.03839 7.16027 8.94207C7.00178 8.84575 6.86178 8.75891 6.74029 8.68156C6.6188 8.60421 6.47881 8.49811 6.32031 8.36326C6.16182 8.22842 6.05446 8.1464 5.99823 8.1172C5.52217 7.77979 4.83619 7.29294 3.9403 6.65664C3.04441 6.02034 2.51241 5.63462 2.34431 5.49948C2.01771 5.27765 1.71441 4.96913 1.43443 4.57393C1.15445 4.17873 1.00979 3.8076 1.00047 3.46056C1.00047 3.0461 1.10783 2.69905 1.32255 2.41943C1.53728 2.13981 1.84523 2 2.24641 2H13.7532C14.0891 2 14.383 2.12536 14.6351 2.37609C14.8871 2.62681 15.0089 2.93006 14.9995 3.28674Z" fill="black"/>
</svg>
