<svg width="16" height="16" viewBox="0 0 16 16" fill="none" xmlns="http://www.w3.org/2000/svg">
<path d="M13.4538 14.5408V14.48V13.8316H14V2.53642H13.4125V1.25326C13.4125 1.11143 13.2992 1 13.1583 1C13.0175 1 12.9041 1.11481 12.9041 1.25326V2.53642H3.18523V1.25326C3.18523 1.11143 3.07186 1 2.931 1C2.79015 1 2.67678 1.11481 2.67678 1.25326V2.53642H2V13.8283H2.57028V14.4496V14.4766V14.5408C2.57028 14.5441 2.57028 14.5509 2.57028 14.5543C2.57028 14.5644 2.57028 14.5712 2.56685 14.5813C2.56685 14.5914 2.56341 14.5982 2.55654 14.6083C2.55311 14.6184 2.54624 14.6252 2.53936 14.6319C2.53249 14.6387 2.52562 14.6454 2.51532 14.6488C2.50845 14.6522 2.49814 14.6556 2.48783 14.6589C2.47753 14.6589 2.47066 14.6623 2.46035 14.6623H2.11681H2.05497V14.9966H3.51503V14.6623H3.46006H3.10278C3.09247 14.6623 3.0856 14.6623 3.07529 14.6589C3.06499 14.6556 3.05812 14.6556 3.04781 14.6488C3.04094 14.6454 3.03063 14.6387 3.02376 14.6319C3.01689 14.6252 3.01002 14.6184 3.00658 14.6083C3.00315 14.6015 2.99971 14.5914 2.99628 14.5813C2.99628 14.5712 2.99284 14.5644 2.99284 14.5543C2.99284 14.5509 2.99284 14.5441 2.99284 14.5408V14.48V13.8316H13.0175V14.453V14.48V14.5441C13.0175 14.5475 13.0175 14.5543 13.0175 14.5576C13.0175 14.5678 13.0175 14.5745 13.014 14.5847C13.014 14.5948 13.0106 14.6015 13.0037 14.6117C13.0003 14.6218 12.9934 14.6286 12.9865 14.6353C12.9797 14.6421 12.9728 14.6488 12.9625 14.6522C12.9556 14.6556 12.9453 14.6589 12.935 14.6623C12.9247 14.6623 12.9178 14.6657 12.9075 14.6657H12.5605H12.4953V15H13.9553V14.6657H13.9004H13.5431C13.5328 14.6657 13.5259 14.6657 13.5156 14.6623C13.5053 14.6589 13.4984 14.6589 13.4881 14.6522C13.4812 14.6488 13.4709 14.6421 13.4641 14.6353C13.4572 14.6286 13.4503 14.6218 13.4469 14.6117C13.4435 14.6049 13.44 14.5948 13.4366 14.5847C13.4366 14.5745 13.4332 14.5678 13.4332 14.5576C13.4538 14.5509 13.4538 14.5475 13.4538 14.5408ZM8.17692 6.53449C8.28686 6.39942 8.47924 6.30487 8.63384 6.29812C8.65102 6.48046 8.57887 6.65943 8.47237 6.7945C8.36244 6.92282 8.18723 7.0275 8.01202 7.01399C7.98798 6.83502 8.0773 6.6493 8.17692 6.53449ZM9.0667 9.00965C8.93616 9.19875 8.80561 9.38784 8.59261 9.39122C8.38649 9.3946 8.31778 9.26966 8.08417 9.26966C7.84712 9.26966 7.77154 9.38784 7.57916 9.3946C7.37303 9.40135 7.21844 9.19199 7.08789 9.00289C6.82336 8.61795 6.62067 7.91896 6.89207 7.44621C7.02605 7.20984 7.26997 7.06126 7.53106 7.05789C7.73375 7.05451 7.91927 7.18958 8.03951 7.18958C8.15975 7.18958 8.37618 7.03087 8.63384 7.04438C8.73347 7.05113 9.01861 7.08152 9.20069 7.35166C9.18694 7.36179 8.86058 7.55089 8.86745 7.9426C8.87088 8.41196 9.27627 8.56729 9.28314 8.57067C9.27283 8.58418 9.21443 8.79354 9.0667 9.00965Z" fill="black"/>
</svg>
