<svg width="16" height="16" viewBox="0 0 16 16" fill="none" xmlns="http://www.w3.org/2000/svg">
<path d="M14.9145 8.6234L13.8789 6.97674C13.795 6.84912 13.7671 6.67852 13.809 6.53672L14.215 4.62063C14.2709 4.32241 14.1031 4.02463 13.823 3.93955L11.9895 3.32936C11.8357 3.28682 11.7094 3.18756 11.6395 3.04532L10.7437 1.31358C10.6039 1.04371 10.2819 0.93027 10.0018 1.04371L8.22423 1.78196C8.0844 1.83868 7.91617 1.83868 7.77634 1.78196L5.99878 1.04371C5.71869 0.93027 5.39709 1.04371 5.25682 1.31358L4.36105 3.04532C4.29114 3.18712 4.16529 3.28682 4.02503 3.32936L2.17756 3.93955C1.89746 4.02463 1.72967 4.32285 1.7856 4.62063L2.19154 6.53672C2.23349 6.67852 2.20552 6.84912 2.12163 6.97674L1.08603 8.6234C0.932217 8.89327 0.988148 9.23359 1.22586 9.41837L2.75129 10.6108C2.87713 10.7101 2.94705 10.8523 2.97545 10.9941L3.24156 12.9386C3.28351 13.2368 3.53563 13.4637 3.84325 13.4495L5.76064 13.3786C5.91445 13.3644 6.0687 13.4211 6.18056 13.5346L7.60811 14.8405C7.83184 15.0532 8.16786 15.0532 8.39202 14.8405L9.81957 13.5346C9.93143 13.4211 10.0857 13.3644 10.2395 13.3786L12.1709 13.4495C12.4649 13.4637 12.7306 13.2368 12.7726 12.9386L13.0247 10.9941C13.0526 10.8523 13.1226 10.7101 13.2484 10.6108L14.7738 9.41837C15.012 9.23403 15.0679 8.89327 14.9137 8.6234H14.9145ZM6.37675 10.3551L4.68309 9.16269L5.3831 10.7952L4.90725 11.0079L3.84369 8.48116L4.33352 8.26846L6.06913 9.50345L5.34116 7.82843L5.81701 7.61573L6.88057 10.1424L6.37675 10.3551ZM7.41235 9.91512L6.34879 7.38841L8.18228 6.57926L8.36405 7.0051L7.0204 7.58693L7.25854 8.15457L8.5183 7.60111L8.70008 8.02695L7.44032 8.58042L7.73439 9.26195L9.13398 8.65176L9.30177 9.07761L7.41235 9.91512ZM11.6255 8.06949L10.3238 6.39447L10.6319 8.49534L10.0861 8.73684L8.42042 6.47999L8.93822 6.25311L10.0437 7.82843L9.76364 5.88399L10.3653 5.6283L11.5412 7.20362L11.1772 5.27336L11.681 5.04648L12.1569 7.84261L11.6251 8.06993L11.6255 8.06949Z" fill="black"/>
</svg>
