<svg width="16" height="16" viewBox="0 0 16 16" fill="none" xmlns="http://www.w3.org/2000/svg">
<path fill-rule="evenodd" clip-rule="evenodd" d="M8.00013 1.00037H12.9217C13.6001 1.00037 14.1521 1.5524 14.1521 2.23076V13.7692C14.1521 14.4475 13.6001 14.9996 12.9217 14.9996H8.00013C7.32177 14.9996 6.76973 14.4475 6.76973 13.7692V11.6638H6.3596C6.13345 11.6638 5.94946 11.8478 5.94946 12.074V13.7692C5.94946 14.4476 5.39751 14.9996 4.71906 14.9996C4.04062 14.9996 3.48867 14.4476 3.48867 13.7692V5.92196H3.07853C2.9019 5.92196 2.74523 5.80904 2.68945 5.64143L1.86919 3.18063C1.78057 2.91416 1.9796 2.6409 2.25827 2.6409H2.6684V1.4105C2.6684 1.184 2.85203 1.00037 3.07853 1.00037C3.30504 1.00037 3.48867 1.184 3.48867 1.4105V2.6409H4.30893V1.4105C4.30893 1.184 4.49256 1.00037 4.71906 1.00037C4.94557 1.00037 5.1292 1.184 5.1292 1.4105V2.6409H5.53933C5.81806 2.6409 6.01703 2.91421 5.92841 3.18063L5.10814 5.64143C5.05237 5.80904 4.89569 5.92196 4.71906 5.92196H4.30893V13.7692C4.30893 13.9953 4.49292 14.1793 4.71906 14.1793C4.94521 14.1793 5.1292 13.9953 5.1292 13.7692V12.074C5.1292 11.3955 5.68115 10.8436 6.3596 10.8436H6.76973V2.23076C6.76973 1.5524 7.32177 1.00037 8.00013 1.00037ZM12.0164 7.7643C12.0968 7.79148 12.1573 7.85897 12.1769 7.94295C12.1962 8.0267 12.1716 8.11481 12.1118 8.17574L9.67058 10.6614C9.58559 10.7479 9.45235 10.7583 9.35517 10.6874C9.25814 10.616 9.22619 10.4835 9.27959 10.3745L10.1302 8.64228L8.93248 8.2357C8.85215 8.20852 8.79159 8.14103 8.77205 8.05705C8.75273 7.9733 8.77729 7.88519 8.83713 7.82426L11.2783 5.33861C11.3627 5.2522 11.4962 5.24152 11.5937 5.31264C11.6908 5.38401 11.7227 5.51655 11.6693 5.62553L10.8187 7.35772L12.0164 7.7643Z" fill="black"/>
</svg>
