<svg width="16" height="16" viewBox="0 0 16 16" fill="none" xmlns="http://www.w3.org/2000/svg">
<path d="M7.8538 8.45475L7.87921 8.48831H8.03165C8.13225 8.49061 8.2322 8.4722 8.32478 8.4343C8.41736 8.39641 8.50042 8.33991 8.56838 8.26861C8.70127 8.12885 8.77293 7.94523 8.76847 7.75598V1.72648C8.77222 1.53622 8.69809 1.35214 8.56203 1.21385C8.49288 1.14443 8.40945 1.08958 8.31705 1.05281C8.22465 1.01604 8.12529 0.998141 8.0253 1.00026C7.92827 0.997703 7.83173 1.01425 7.74161 1.04889C7.65149 1.08352 7.5697 1.13551 7.50127 1.20165C7.4295 1.26893 7.37298 1.34974 7.33527 1.43901C7.29756 1.52827 7.27947 1.62407 7.28213 1.72038V7.74683C7.27934 7.84235 7.29644 7.93745 7.33243 8.02653C7.36843 8.11561 7.42259 8.19688 7.49174 8.26556C7.59001 8.36201 7.71613 8.42792 7.8538 8.45475Z" fill="black"/>
<path d="M14.339 5.41864C13.9111 4.55512 13.2961 3.78943 12.5351 3.17283C12.4087 3.05872 12.2446 2.99071 12.0714 2.9806C11.9164 2.96788 11.7614 3.00432 11.63 3.08434C11.5027 3.15718 11.3992 3.26291 11.3314 3.38948C11.2572 3.52867 11.2358 3.68839 11.2711 3.84108C11.3146 4.00991 11.4152 4.16012 11.5569 4.26828C12.1476 4.75192 12.624 5.35114 12.9543 6.02586C13.2806 6.69184 13.4576 7.41622 13.4741 8.1521C13.4905 8.88799 13.3459 9.61898 13.0496 10.2978C12.4901 11.5617 11.4413 12.5672 10.1246 13.102C9.45494 13.3723 8.7358 13.5114 8.00942 13.5109C7.281 13.5145 6.55934 13.3764 5.88791 13.105C4.57182 12.5689 3.52412 11.5622 2.96605 10.2978C2.68282 9.6529 2.5391 8.9594 2.54365 8.25946C2.53663 7.48414 2.71253 6.71736 3.05815 6.01671C3.39077 5.33822 3.87046 4.73585 4.46509 4.24997C4.60704 4.13968 4.70471 3.98544 4.7414 3.81362C4.77167 3.66544 4.7493 3.51179 4.67788 3.37728C4.61181 3.2515 4.51065 3.14586 4.38569 3.07214C4.25532 2.99202 4.10191 2.95358 3.94741 2.96229C3.77375 2.96721 3.60694 3.02852 3.4742 3.13622C2.71915 3.75747 2.10605 4.5221 1.67345 5.38202C1.22359 6.27062 0.993185 7.24695 1.00015 8.23505C0.994934 9.12746 1.18088 10.0114 1.54641 10.8318C2.2664 12.4473 3.60615 13.7345 5.28766 14.4263C6.09227 14.7536 6.95476 14.9297 7.8284 14.945L7.88239 14.9999H8.01895C8.948 15.0039 9.86797 14.8242 10.7217 14.472C11.552 14.1293 12.3066 13.6374 12.9448 13.0226C13.5829 12.4081 14.0947 11.6835 14.4534 10.8867C14.8177 10.0648 15.0036 9.1802 14.9996 8.28693C15.0103 7.29491 14.7843 6.31373 14.339 5.41864Z" fill="black"/>
</svg>
