<svg width="16" height="16" viewBox="0 0 16 16" fill="none" xmlns="http://www.w3.org/2000/svg">
<path fill-rule="evenodd" clip-rule="evenodd" d="M14.9139 8.6234L13.8784 6.97674C13.7945 6.84912 13.7665 6.67852 13.8085 6.53672L14.2144 4.62063C14.2703 4.32241 14.1025 4.02463 13.8225 3.93955L11.9891 3.32936C11.8352 3.28682 11.709 3.18756 11.6391 3.04532L10.7433 1.31358C10.6035 1.04371 10.2815 0.93027 10.0014 1.04371L8.22392 1.78196C8.0841 1.83868 7.91587 1.83868 7.77605 1.78196L5.99857 1.04371C5.71849 0.93027 5.3969 1.04371 5.25664 1.31358L4.36091 3.04532C4.291 3.18712 4.16516 3.28682 4.0249 3.32936L2.17751 3.93955C1.89743 4.02463 1.72964 4.32285 1.78557 4.62063L2.19149 6.53672C2.23343 6.67852 2.20547 6.84912 2.12158 6.97674L1.08602 8.6234C0.93222 8.89327 0.988149 9.23359 1.22585 9.41837L2.75121 10.6108C2.87705 10.7101 2.94696 10.8523 2.97536 10.9941L3.24146 12.9386C3.28341 13.2368 3.53552 13.4637 3.84313 13.4495L5.76044 13.3786C5.91424 13.3644 6.06848 13.4211 6.18034 13.5346L7.60783 14.8405C7.83154 15.0532 8.16755 15.0532 8.3917 14.8405L9.81919 13.5346C9.93105 13.4211 10.0853 13.3644 10.2391 13.3786L12.1704 13.4495C12.4644 13.4637 12.7301 13.2368 12.7721 12.9386L13.0242 10.9941C13.0521 10.8523 13.122 10.7101 13.2479 10.6108L14.7732 9.41837C15.0114 9.23403 15.0682 8.89327 14.9139 8.6234ZM5.55571 4.1972C5.31846 4.462 5.19983 4.79845 5.19983 5.20655V5.53365C5.19983 5.96667 5.32131 6.31402 5.56429 6.5757C5.80726 6.83427 6.11454 6.96355 6.48614 6.96355C6.85489 6.96355 7.15789 6.83427 7.39514 6.5757C7.63525 6.31402 7.75531 5.97757 7.75531 5.56636V5.23458C7.75531 4.81091 7.63668 4.46667 7.39943 4.20187C7.16503 3.93396 6.85775 3.8 6.47757 3.8C6.10311 3.8 5.79582 3.9324 5.55571 4.1972ZM5.98019 6.16916C5.85442 6.01028 5.79153 5.80935 5.79153 5.56636V5.22524C5.79153 4.96978 5.85299 4.76262 5.97591 4.60374C6.09882 4.44486 6.26604 4.36542 6.47757 4.36542C6.6891 4.36542 6.85632 4.44486 6.97923 4.60374C7.10215 4.76262 7.1636 4.96355 7.1636 5.20655V5.54767C7.1636 5.81246 7.10072 6.02119 6.97494 6.17383C6.85203 6.32648 6.6891 6.40281 6.48614 6.40281C6.27462 6.40281 6.10597 6.32493 5.98019 6.16916ZM8.5957 8.02898C8.35845 8.29066 8.23982 8.62555 8.23982 9.03365V9.3701C8.23982 9.80312 8.36131 10.1505 8.60428 10.4122C8.84725 10.6707 9.15453 10.8 9.52614 10.8C9.89774 10.8 10.2022 10.6692 10.4394 10.4075C10.6795 10.1427 10.7996 9.80623 10.7996 9.39813V9.06636C10.7996 8.63334 10.6795 8.28598 10.4394 8.0243C10.1993 7.76262 9.89202 7.63178 9.51756 7.63178C9.1431 7.63178 8.83581 7.76418 8.5957 8.02898ZM9.02019 10.0056C8.89441 9.84673 8.83153 9.64424 8.83153 9.39813V9.05234C8.83153 8.79066 8.89441 8.58349 9.02019 8.43084C9.14882 8.27508 9.31461 8.1972 9.51756 8.1972C9.72623 8.1972 9.89202 8.27508 10.0149 8.43084C10.1407 8.58661 10.2036 8.78754 10.2036 9.03365V9.37944C10.2036 9.64424 10.1421 9.85452 10.0192 10.0103C9.89631 10.1629 9.73195 10.2393 9.52614 10.2393C9.31461 10.2393 9.14596 10.1614 9.02019 10.0056ZM6.21602 9.87944L6.66623 10.1879L9.7148 4.8701L9.26459 4.56169L6.21602 9.87944Z" fill="black"/>
</svg>
