<svg width="16" height="16" viewBox="0 0 16 16" fill="none" xmlns="http://www.w3.org/2000/svg">
<path d="M13.8843 4.74372C14.4793 4.74372 15 5.2763 15 5.9305V11.5C15 12.139 14.4793 12.6716 13.8843 12.6716H12.7538L13.2596 15H2.9787L3.38048 12.6716H2.16028C1.49096 12.6716 1 12.139 1 11.5V5.9305C1 5.2763 1.49096 4.74372 2.16028 4.74372H3.58857V2.96308H4.09439V1H11.9353V2.96308H12.4412V4.74372H13.8843ZM4.61554 1.71501V6.15854H11.4147V1.71501H4.61554ZM2.93411 7.63513C3.38048 7.63513 3.75253 7.26978 3.75253 6.81322C3.75253 6.38706 3.38048 6.00652 2.93411 6.00652C2.5026 6.00652 2.13055 6.38706 2.13055 6.81322C2.13055 7.26978 2.5026 7.63513 2.93411 7.63513ZM3.87144 14.3002H12.3074L11.6083 10.6173H4.40745L3.87144 14.3002ZM7.62075 12.5808H5.55287V12.0483H7.62075V12.5808ZM10.5665 12.5808H8.49862V12.0483H10.5665V12.5808Z" fill="black"/>
</svg>
