<svg width="16" height="17" viewBox="0 0 16 17" fill="none" xmlns="http://www.w3.org/2000/svg">
<path fill-rule="evenodd" clip-rule="evenodd" d="M11.6401 4.50391C12.3199 4.50391 12.9359 4.75583 13.4208 5.15931C14.2978 5.21271 14.9997 5.93858 15 6.82633V9.0632C15 9.98563 14.2443 10.7409 13.3203 10.7409V11.224C13.3203 11.3778 13.1943 11.5036 13.0403 11.5036H12.1138C11.9601 11.5036 11.8338 11.3778 11.8338 11.224V10.7409H4.1659V11.2243C4.1659 11.3781 4.03962 11.5039 3.8859 11.5039H2.95968C2.80568 11.5039 2.67969 11.3781 2.67969 11.2243V10.7411C1.7557 10.7411 1 9.98591 1 9.06348V6.82661C1 5.90419 1.7557 5.14896 2.67969 5.14896H9.8719C10.3546 4.75192 10.9653 4.50391 11.6401 4.50391ZM2.48957 9.34281C2.74996 9.34281 2.96332 9.21727 2.96332 9.0632V6.82633C2.96332 6.67255 2.75025 6.54673 2.48957 6.54673C2.23058 6.54673 2.01666 6.67255 2.01666 6.82633V9.0632C2.01666 9.21727 2.2303 9.34281 2.48957 9.34281ZM3.98222 9.34281C4.2429 9.34281 4.45485 9.21727 4.45485 9.0632V6.82633C4.45485 6.67255 4.24318 6.54673 3.98222 6.54673C3.72267 6.54673 3.50931 6.67255 3.50931 6.82633V9.0632C3.50931 9.21727 3.72239 9.34281 3.98222 9.34281ZM5.47459 9.34281C5.73359 9.34281 5.9475 9.21727 5.9475 9.0632V6.82633C5.9475 6.67255 5.73387 6.54673 5.47459 6.54673C5.2142 6.54673 5.00084 6.67255 5.00084 6.82633V9.0632C5.00084 9.21727 5.21392 9.34281 5.47459 9.34281ZM9.67983 7.29971C9.67983 8.3804 10.5582 9.25697 11.6401 9.25697C12.7222 9.25697 13.6003 8.38068 13.6003 7.29971C13.6003 6.21875 12.7222 5.34245 11.6401 5.34245C10.5582 5.34245 9.67983 6.21875 9.67983 7.29971ZM13.04 7.29965C13.04 8.07177 12.4133 8.6977 11.6401 8.6977C10.8669 8.6977 10.2401 8.07177 10.2401 7.29965C10.2401 6.52754 10.8669 5.90161 11.6401 5.90161C12.4133 5.90161 13.04 6.52754 13.04 7.29965Z" fill="black"/>
</svg>
