<svg width="16" height="17" viewBox="0 0 16 17" fill="none" xmlns="http://www.w3.org/2000/svg">
<path fill-rule="evenodd" clip-rule="evenodd" d="M12.8617 5.42888L14.0931 5.60242C14.6614 5.68255 15.0568 6.20178 14.9933 6.78446L14.6555 9.89414C14.6154 10.2615 14.313 10.5384 13.9515 10.5384H13.5759L13.3799 10.9386C13.2095 11.2874 12.8667 11.5039 12.4854 11.5039C12.1573 11.5039 11.8581 11.3427 11.6721 11.0752C11.3345 11.1947 10.9738 11.2625 10.5968 11.2625C9.82786 11.2625 9.12128 10.9905 8.55917 10.5384H4.60482L4.40886 10.9386C4.23841 11.2874 3.89561 11.5039 3.51434 11.5039C3.1333 11.5039 2.79052 11.2874 2.61983 10.9386L2.42412 10.5384H2.04828C1.68708 10.5384 1.38441 10.2615 1.34452 9.89414L1.00669 6.78446C0.943171 6.20178 1.33863 5.68255 1.90663 5.60242L4.74102 5.2027C6.0999 5.01103 7.4942 4.94201 8.88803 4.99606C9.38734 4.6859 9.97092 4.50391 10.5968 4.50391C11.4736 4.50391 12.2696 4.85729 12.8617 5.42888ZM3.04217 9.0901H5.87515C6.0057 9.0901 6.11122 8.98221 6.11122 8.84873C6.11122 8.71524 6.0057 8.60736 5.87515 8.60736H3.04217C2.91187 8.60736 2.8061 8.71524 2.8061 8.84873C2.8061 8.98221 2.91187 9.0901 3.04217 9.0901ZM3.04217 8.12459H5.87515C6.0057 8.12459 6.11122 8.01671 6.11122 7.88322C6.11122 7.74974 6.0057 7.64185 5.87515 7.64185H3.04217C2.91187 7.64185 2.8061 7.74974 2.8061 7.88322C2.8061 8.01671 2.91187 8.12459 3.04217 8.12459ZM3.04217 7.15908H5.87515C6.0057 7.15908 6.11122 7.0512 6.11122 6.91772C6.11122 6.78423 6.0057 6.67635 5.87515 6.67635H3.04217C2.91187 6.67635 2.8061 6.78423 2.8061 6.91772C2.8061 7.0512 2.91187 7.15908 3.04217 7.15908ZM13.4047 8.25086C13.408 8.23153 13.4112 8.2122 13.4132 8.19242C13.4239 8.09031 13.4298 7.98726 13.4297 7.88322C13.4297 7.78399 13.4247 7.68601 13.4153 7.58921C13.4146 7.58269 13.4135 7.5763 13.4124 7.56991C13.4114 7.56351 13.4103 7.55712 13.4096 7.5506C13.2474 6.10957 12.0486 4.98667 10.5967 4.98667C10.0332 4.98667 9.50885 5.15781 9.06714 5.44891C8.87638 5.57467 8.70452 5.72145 8.55178 5.88412C8.53216 5.90524 8.51325 5.92693 8.49427 5.94868C8.49157 5.95178 8.48886 5.95488 8.48616 5.95798C8.43658 6.01447 8.3896 6.07288 8.34498 6.13299C8.34179 6.13724 8.3386 6.14149 8.33541 6.14573C8.31542 6.17234 8.29545 6.19892 8.27651 6.22639C8.23022 6.29374 8.18773 6.3635 8.14736 6.43469C8.14169 6.44472 8.13561 6.45451 8.12954 6.46429C8.12172 6.4769 8.11391 6.48948 8.107 6.50252C8.05814 6.59451 8.01517 6.68936 7.97622 6.78615C7.96688 6.80965 7.95859 6.83369 7.9503 6.85777C7.94624 6.86955 7.94218 6.88134 7.93799 6.89308C7.91367 6.96139 7.89101 7.03066 7.87164 7.10115C7.86102 7.13976 7.85134 7.17863 7.84237 7.21798C7.82514 7.29183 7.81169 7.36665 7.80035 7.4422C7.79883 7.45189 7.79724 7.46156 7.79565 7.47124C7.79154 7.49626 7.78742 7.5213 7.78452 7.54672C7.77202 7.65775 7.76375 7.76974 7.76375 7.88319C7.76375 7.98723 7.76989 8.09028 7.78051 8.19239C7.78253 8.21209 7.78577 8.23133 7.78901 8.25056C7.79109 8.26293 7.79317 8.27528 7.79493 8.28775C7.80436 8.35677 7.81404 8.42533 7.82821 8.49291C7.834 8.52007 7.84101 8.54655 7.84803 8.57305C7.8513 8.58541 7.85458 8.59778 7.85773 8.61022C7.87236 8.66789 7.88725 8.7256 7.90518 8.78231C7.91672 8.81816 7.9299 8.85333 7.94309 8.88853C7.9458 8.89576 7.94851 8.903 7.95121 8.91025C7.96964 8.95995 7.98853 9.00945 8.00953 9.05796C8.02937 9.10334 8.05084 9.14775 8.0728 9.19167C8.09427 9.23464 8.11646 9.27735 8.13984 9.31936C8.16532 9.36476 8.19201 9.40965 8.21962 9.45358C8.24394 9.49196 8.26967 9.52939 8.29587 9.56656C8.32633 9.61001 8.35726 9.65345 8.39007 9.6952C8.41836 9.73111 8.44856 9.7656 8.47873 9.80006L8.47885 9.8002C8.48478 9.80705 8.49068 9.81391 8.49658 9.82076C8.52477 9.85352 8.55286 9.88615 8.58274 9.91728C8.61129 9.94665 8.64157 9.97453 8.67188 10.0024C8.68019 10.0101 8.6885 10.0177 8.69678 10.0254C9.19985 10.4925 9.86538 10.7797 10.5967 10.7797C10.9856 10.7797 11.356 10.6991 11.6933 10.5538C11.6991 10.5514 11.7047 10.5486 11.7102 10.5458C11.714 10.5439 11.7178 10.5421 11.7217 10.5403C11.7901 10.5099 11.857 10.4768 11.9226 10.4413C11.936 10.4339 11.9493 10.4263 11.9626 10.4187C11.968 10.4156 11.9734 10.4125 11.9788 10.4095C12.0376 10.3757 12.0952 10.34 12.1513 10.3021C12.157 10.2982 12.1627 10.2945 12.1683 10.2908C12.1774 10.2848 12.1864 10.2788 12.1952 10.2726C12.3017 10.1978 12.4016 10.114 12.497 10.0255C12.5053 10.0177 12.5137 10.01 12.5221 10.0023C12.5523 9.97445 12.5825 9.94663 12.611 9.91731C12.641 9.88603 12.6692 9.85327 12.6975 9.82041C12.7033 9.81368 12.7091 9.80695 12.7149 9.80023C12.7184 9.79618 12.7219 9.79213 12.7255 9.78807C12.752 9.75759 12.7787 9.72696 12.8037 9.69523C12.8365 9.65348 12.8672 9.61003 12.8979 9.56659C12.9239 9.52939 12.9496 9.49199 12.9739 9.45361C13.0018 9.40965 13.0282 9.36476 13.0539 9.31939C13.0773 9.27738 13.0995 9.23467 13.121 9.1917C13.1429 9.14777 13.1644 9.10336 13.184 9.05799C13.2052 9.00948 13.2241 8.96001 13.2425 8.91028C13.2451 8.90326 13.2478 8.89625 13.2504 8.88925C13.2636 8.85381 13.2769 8.8184 13.2883 8.78234C13.3065 8.72563 13.3214 8.66792 13.336 8.61024C13.3391 8.59807 13.3423 8.58597 13.3455 8.57386C13.3526 8.5471 13.3597 8.52036 13.3655 8.49294C13.3797 8.42536 13.3894 8.3568 13.3988 8.28778C13.4006 8.2754 13.4026 8.26313 13.4047 8.25086ZM8.47214 7.88322C8.47214 6.68526 9.42544 5.71082 10.5969 5.71082C11.7683 5.71082 12.7216 6.68526 12.7216 7.88322C12.7216 9.08119 11.7683 10.0556 10.5969 10.0556C9.42544 10.0556 8.47214 9.08119 8.47214 7.88322ZM9.88862 7.88322C9.88862 7.48399 10.2064 7.15909 10.5969 7.15909C10.7272 7.15909 10.833 7.05117 10.833 6.91769C10.833 6.78421 10.7272 6.67632 10.5969 6.67632C9.946 6.67632 9.41648 7.21775 9.41648 7.88322C9.41648 8.01671 9.52225 8.12459 9.65255 8.12459C9.78286 8.12459 9.88862 8.01671 9.88862 7.88322Z" fill="black"/>
</svg>
