<svg width="16" height="16" viewBox="0 0 16 16" fill="none" xmlns="http://www.w3.org/2000/svg">
<path d="M5.66684 5.49656C5.66684 5.91602 5.53177 6.27028 5.26162 6.55933C4.99147 6.84838 4.66038 6.99756 4.26836 7.00688C3.87633 7.01619 3.54524 6.86701 3.27509 6.55933C3.00495 6.25165 2.86987 5.89739 2.86987 5.49656C2.86987 5.09573 3.00495 4.74148 3.27509 4.4338C3.54524 4.12611 3.87633 3.98159 4.26836 4.00022C4.66038 4.01885 4.99147 4.16337 5.26162 4.4338C5.53177 4.70422 5.66684 5.05847 5.66684 5.49656ZM13.1437 8.50322V11.9998H2.86946V10.5034L5.19633 7.99978L6.37282 9.24462L10.0982 5.2586L13.1437 8.50322ZM13.8366 3.00688H2.1639C2.10296 3.00688 2.05072 3.03016 2.00719 3.07674C1.96367 3.12331 1.93755 3.18386 1.92884 3.25838V12.7407C1.92884 12.806 1.95496 12.8665 2.00719 12.9224C2.05943 12.9783 2.11166 13.0016 2.1639 12.9922H13.8366C13.8975 12.9922 13.9541 12.969 14.0063 12.9224C14.0586 12.8758 14.0803 12.8153 14.0716 12.7407V3.25838C14.0716 3.18386 14.0499 3.12331 14.0063 3.07674C13.9628 3.03016 13.9062 3.00688 13.8366 3.00688ZM15 3.25881V12.7412C15 13.0861 14.8867 13.3798 14.6601 13.6223C14.4335 13.8648 14.159 13.9907 13.8366 14H2.1639C1.85022 14 1.57572 13.8741 1.3404 13.6223C1.10507 13.3705 0.99176 13.0768 1.00047 12.7412V3.25881C1.00047 2.91387 1.11378 2.62017 1.3404 2.37769C1.56701 2.13521 1.84152 2.00931 2.1639 2H13.8366C14.159 2 14.4335 2.1259 14.6601 2.37769C14.8867 2.62948 15 2.92319 15 3.25881Z" fill="black"/>
</svg>
