<svg width="16" height="16" viewBox="0 0 16 16" fill="none" xmlns="http://www.w3.org/2000/svg">
<path d="M9.56088 5.42423L9.44898 5.53613C9.18279 5.80233 9.18279 6.23637 9.44898 6.48814L9.50493 6.54409C9.77113 6.81028 10.1912 6.81028 10.4569 6.54409L11.367 5.66202L11.4789 5.53613C11.7451 5.26994 11.7451 4.84988 11.4789 4.58412L11.4229 4.52818C11.1567 4.27597 10.7227 4.27597 10.4569 4.52818L9.56088 5.42423ZM11.5488 5.84429L10.6388 6.72636C10.3866 6.99255 10.3866 7.41261 10.6388 7.67837L10.6947 7.73432C10.9609 8.00051 11.395 8.00051 11.6607 7.73432L11.7726 7.60843L12.5568 6.85224L12.6827 6.72636C12.9489 6.46016 12.9489 6.04011 12.6827 5.77435L12.6267 5.7184C12.3605 5.4662 11.9265 5.45221 11.6607 5.7184L11.5488 5.84429ZM14.5172 10.1703L10.4989 14.1466C10.1628 14.4687 9.61683 14.4687 9.2807 14.1466L8.58046 13.4603L7.85225 14.1746C7.85225 14.1746 6.76037 15.2525 5.28996 14.9447C5.27597 14.9447 5.26199 14.9447 5.248 14.9447C5.19205 14.9308 5.12211 14.9028 5.06617 14.8888C5.01022 14.8748 4.95427 14.8608 4.89832 14.8328C4.84237 14.8189 4.78642 14.8049 4.73047 14.7769C4.63256 14.7209 4.52066 14.679 4.40833 14.609C4.38035 14.5951 4.33839 14.5671 4.31042 14.5531C4.21251 14.4972 4.11459 14.4272 4.03023 14.3573C3.98827 14.3293 3.9603 14.3013 3.91834 14.2734C3.79245 14.1754 3.66613 14.0635 3.54024 13.9372C2.11223 12.5232 2.18217 11.277 2.44836 10.6472C2.44836 10.6332 2.65817 9.84901 2.92437 8.91099C2.9943 8.6448 3.07823 8.36505 3.1486 8.08487L1.48237 6.43263C1.14624 6.0965 1.14624 5.55056 1.48237 5.22841L5.50064 1.2521C5.83678 0.915967 6.38272 0.915967 6.71885 1.2521L9.04292 3.54819L9.26671 3.33838C9.53291 3.08618 9.95296 3.08618 10.2187 3.33838L10.2747 3.39433C10.5409 3.66053 10.5409 4.08058 10.2747 4.34634L10.1628 4.47223L9.37861 5.2424L9.25272 5.3543C9.00052 5.62049 8.56648 5.62049 8.30072 5.3543L8.24477 5.29835C7.97857 5.04614 7.97857 4.6121 8.24477 4.34634L8.37065 4.23444L8.62286 3.96825L6.64891 2.02227L2.26653 6.36269L3.34442 7.4266C3.52626 6.78275 3.69454 6.20839 3.77846 5.94264C4.04466 5.08854 4.73047 5.11651 5.0666 5.63448C5.31881 6.04055 5.12255 6.95059 4.98268 7.98652C4.96869 8.19633 4.89876 8.53246 4.81483 8.88258L9.18323 13.209L13.5796 8.86859L13.2435 8.54645L12.8654 8.92454C12.5992 9.19074 12.1651 9.19074 11.8994 8.92454L11.8434 8.86859C11.5772 8.6024 11.5772 8.18234 11.8434 7.91659L11.9693 7.80469L12.7535 7.03452L12.8654 6.90863C13.1316 6.64244 13.5656 6.64244 13.8314 6.90863L13.8873 6.96458C14.1535 7.23077 14.1535 7.65083 13.8873 7.91659L13.7614 8.02848L13.6635 8.1264L14.5176 8.96651C14.8537 9.28865 14.8537 9.83459 14.5176 10.1707L14.5172 10.1703ZM3.28847 4.4578C3.33043 4.48578 3.40037 4.48578 3.42835 4.44381L4.71648 3.18365C4.75845 3.14169 4.75845 3.07175 4.71648 3.02979C4.67452 2.98783 4.61857 2.98783 4.57661 3.02979L3.28847 4.30394C3.24651 4.3459 3.24651 4.41584 3.28847 4.4578ZM12.2071 11.2486C12.0392 11.0808 11.7591 11.0808 11.5912 11.2486C11.4234 11.4165 11.4234 11.6827 11.5912 11.8505C11.7591 12.0183 12.0392 12.0183 12.2071 11.8505C12.3749 11.6827 12.3749 11.4165 12.2071 11.2486Z" fill="black"/>
</svg>
