<svg width="16" height="16" viewBox="0 0 16 16" fill="none" xmlns="http://www.w3.org/2000/svg">
<path d="M3.68057 2C5.468 2 6.59426 2.88496 7.05937 4.65487C7.52448 6.35175 7.27969 8.18202 6.32502 10.1457C5.34551 12.182 3.97446 13.4184 2.21187 13.8547C1.82015 13.9516 1.41619 14 1 14V12.7273C2.37086 12.7273 3.4849 12.0728 4.34211 10.7639C5.00327 9.72129 5.16245 8.83633 4.81964 8.10899C4.62358 7.67266 4.24408 7.45449 3.68114 7.45449C2.9466 7.45449 2.31621 7.18789 1.78995 6.65468C1.2637 6.12148 1.00057 5.47909 1.00057 4.72753C1.00057 3.97597 1.2637 3.33359 1.78995 2.80038C2.31621 2.26717 2.9466 2.00057 3.68114 2.00057L3.68057 2ZM11.3927 2C13.1801 2 14.3063 2.88496 14.7715 4.65487C15.2366 6.35175 14.9918 8.18202 14.0371 10.1457C13.0576 12.182 11.6865 13.4184 9.92396 13.8547C9.53223 13.9516 9.12827 14 8.71208 14V12.7273C10.0829 12.7273 11.197 12.0728 12.0542 10.7639C12.7154 9.72129 12.8745 8.83633 12.5317 8.10899C12.336 7.67266 11.9565 7.45449 11.3932 7.45449C10.6587 7.45449 10.0283 7.18789 9.50204 6.65468C8.97578 6.12148 8.71266 5.47909 8.71266 4.72753C8.71266 3.97597 8.97578 3.33359 9.50204 2.80038C10.0283 2.26717 10.6587 2.00057 11.3932 2.00057L11.3927 2Z" fill="black"/>
</svg>
