<svg width="16" height="16" viewBox="0 0 16 16" fill="none" xmlns="http://www.w3.org/2000/svg">
<path d="M12.94 3.0585C11.6393 1.74255 9.85625 1.00044 8.00023 1.00044C6.14421 1.00044 4.36119 1.74255 3.04582 3.04452C1.73045 4.36047 1 6.13839 1 8.00022C1 9.86205 1.73091 11.64 3.04582 12.9559C4.36119 14.2579 6.14421 15 8.00023 15C11.2592 15 13.9921 12.7741 14.7664 9.75016H12.9396C12.2087 11.8502 10.2212 13.2501 7.99977 13.2501C5.09164 13.2501 2.73876 10.8983 2.73876 8.00022C2.73876 5.10214 5.09164 2.75038 7.99977 2.75038C9.44654 2.75038 10.7473 3.3522 11.6972 4.30409L9.73273 6.26384C9.41716 6.57864 9.64011 7.11782 10.0859 7.11782H14.5C14.7761 7.11782 15 6.89396 15 6.61782V2.2065C15 1.76113 14.4616 1.53801 14.1466 1.85282L12.94 3.0585Z" fill="black"/>
</svg>
