<svg width="16" height="16" viewBox="0 0 16 16" fill="none" xmlns="http://www.w3.org/2000/svg">
<path d="M6.06774 4.75276C6.06774 4.89153 6.01007 5.02406 5.90853 5.11864L3.48437 7.37655C3.27509 7.57147 3.27166 7.90191 3.47684 8.10114L5.91606 10.4697C6.01303 10.5638 6.06774 10.6932 6.06774 10.8284V11.4652C6.06774 11.9069 5.53696 12.1317 5.21978 11.8243L1.37734 8.10056C1.17204 7.90161 1.17505 7.57133 1.38395 7.37616L5.22639 3.78609C5.54594 3.48753 6.06774 3.71412 6.06774 4.15144V4.75276ZM9.56774 5.8233C10.5383 5.8233 11.3877 6.06845 12.1158 6.55874C12.844 7.04903 13.3807 7.64705 13.726 8.3528C14.0712 9.05855 14.3513 9.76445 14.566 10.4705C14.7807 11.1766 14.9068 11.7746 14.9441 12.2646L15 13C14.1973 11.4903 13.4133 10.5198 12.6482 10.0886C11.883 9.65733 10.8564 9.44172 9.56818 9.44172V11.4666C9.56818 11.9083 9.03739 12.133 8.72022 11.8257L4.87777 8.10194C4.67247 7.90298 4.67549 7.57271 4.88438 7.37753L8.72683 3.78747C9.04637 3.48891 9.56818 3.7155 9.56818 4.15282V5.82468L9.56774 5.8233Z" fill="black"/>
</svg>
