<svg width="16" height="16" viewBox="0 0 16 16" fill="none" xmlns="http://www.w3.org/2000/svg">
<path d="M15 13C14.108 11.5096 13.0294 10.5439 11.7642 10.1028C10.4989 9.66177 8.78787 9.44123 6.63098 9.44123V11.5477C6.63098 11.977 6.12576 12.2067 5.80231 11.9245L1.43992 8.11927C1.20874 7.91762 1.21199 7.55726 1.44677 7.35981L5.80917 3.69113C6.13441 3.4176 6.63098 3.64883 6.63098 4.0738V5.82369C7.56438 5.82369 8.43546 5.95608 9.24421 6.22085C10.053 6.48561 10.7322 6.82874 11.2819 7.25023C11.8317 7.67172 12.3295 8.13744 12.7753 8.64738C13.2211 9.15733 13.5789 9.66713 13.8486 10.1768C14.1182 10.6864 14.3463 11.1521 14.5328 11.5739C14.7193 11.9957 14.8438 12.3339 14.9063 12.5886L15 13Z" fill="black"/>
</svg>
