<svg width="16" height="16" viewBox="0 0 16 16" fill="none" xmlns="http://www.w3.org/2000/svg">
<path d="M7.91609 1.00071C4.19246 1.00071 1.15456 3.94072 1.00072 7.6084C0.98673 7.87456 1.18253 7.88855 1.18253 7.88855H2.35862C2.58238 7.88855 2.62478 7.74869 2.62478 7.63637C2.76463 4.85064 5.08884 2.62477 7.91652 2.62477C9.41428 2.62477 10.7862 3.25455 11.7385 4.2768L10.9265 5.07485C10.7726 5.24267 10.7726 5.45289 10.9964 5.50883L14.4543 6.20898C14.7484 6.27891 15.0981 6.05514 14.9722 5.59318L14.1602 2.41543C14.1322 2.28956 13.9364 2.10731 13.7541 2.23362L12.8442 3.07362C11.5982 1.79963 9.84827 1.00158 7.91652 1.00158L7.91609 1.00071ZM13.6418 8.11231C13.4181 8.11231 13.3757 8.25217 13.3757 8.36449C13.2358 11.1502 10.912 13.3761 8.0979 13.3761C6.58616 13.3761 5.22826 12.7463 4.26195 11.7241L5.08797 10.926C5.22782 10.7582 5.22782 10.548 5.01804 10.492L1.54615 9.79188C1.25202 9.72195 0.90238 9.94572 1.02825 10.4077L1.84028 13.5854C1.86825 13.7113 2.06448 13.8936 2.26028 13.7672L3.15622 12.9272C4.40224 14.2012 6.15217 14.9993 8.0979 14.9993C11.8075 14.9993 14.8454 12.0593 14.9993 8.3776C15.0133 8.12543 14.8175 8.11144 14.8175 8.11144H13.6414L13.6418 8.11231Z" fill="black"/>
</svg>
