<svg width="16" height="16" viewBox="0 0 16 16" fill="none" xmlns="http://www.w3.org/2000/svg">
<path d="M12.2618 4.86376C12.0642 4.63136 11.7062 4.62866 11.5051 4.85806L9.40478 7.25315C9.12139 7.57633 9.35088 8.08281 9.78072 8.08281H10.5134C10.5288 8.20301 10.5467 8.38929 10.5467 8.61372C10.5467 9.82012 9.40438 12.4937 6.06844 12.4937L6.03431 12.869C6.16381 12.8947 9.23025 13.4917 11.1894 11.9043C12.0854 11.1787 13.2443 9.46219 13.3633 8.08281H13.9183C14.3446 8.08281 14.5753 7.58356 14.2991 7.25885L12.2618 4.86376ZM5.48787 7.91693C5.47213 7.79718 5.45419 7.61089 5.45419 7.38602C5.45419 6.17962 6.5965 3.50601 9.93244 3.50601L9.96656 3.13123C9.8375 3.10506 6.77063 2.50851 4.81106 4.09591C3.91506 4.82152 2.75656 6.53843 2.63713 7.91693H2.08184C1.65553 7.91693 1.42477 8.41622 1.70101 8.74092L3.73903 11.1365C3.93672 11.3689 4.29463 11.3716 4.49579 11.1422L6.59652 8.74659C6.87992 8.42341 6.65042 7.91693 6.22059 7.91693H5.48787Z" fill="black"/>
</svg>
