<svg width="16" height="16" viewBox="0 0 16 16" fill="none" xmlns="http://www.w3.org/2000/svg">
<path d="M11.5624 1H4.43756C3.64715 1 3 1.63 3 2.4V13.6C3 14.37 3.6467 15 4.43756 15H11.5624C12.3529 15 13 14.37 13 13.6V2.4C13 1.63 12.3533 1 11.5624 1ZM8 2.4C8.79041 2.4 9.43756 3.03 9.43756 3.8C9.43756 4.57 8.79086 5.2 8 5.2C7.20959 5.2 6.56244 4.57 6.56244 3.8C6.56244 3.03 7.20914 2.4 8 2.4ZM8 13.6C5.98759 13.6 4.40631 12.06 4.40631 10.1C4.40631 8.14 5.98759 6.6 8 6.6C10.0124 6.6 11.5937 8.14 11.5937 10.1C11.5937 12.06 10.0124 13.6 8 13.6ZM8 8C6.778 8 5.84388 8.91 5.84388 10.1C5.84388 11.29 6.778 12.2 8 12.2C9.222 12.2 10.1561 11.29 10.1561 10.1C10.1561 8.91 9.22155 8 8 8Z" fill="black"/>
</svg>
