<svg width="16" height="17" viewBox="0 0 16 17" fill="none" xmlns="http://www.w3.org/2000/svg">
<path fill-rule="evenodd" clip-rule="evenodd" d="M4.82762 1.00391C4.60234 1.00391 4.41967 1.18655 4.41967 1.41186V1.72027H11.5803V1.41186C11.5803 1.18655 11.3977 1.00391 11.1724 1.00391H4.82762ZM4.41967 2.54136H11.5803V3.2577H4.41967V2.54136ZM4.41967 4.07882V4.72673C4.41967 5.2604 4.61411 5.77466 4.96719 6.17482L6.04022 7.39092C6.52577 7.94117 6.79315 8.6484 6.79315 9.38226V15.0039H9.20685V9.38226C9.20685 8.64837 9.47426 7.94117 9.95978 7.39092L11.0328 6.17482C11.3859 5.77466 11.5803 5.2604 11.5803 4.72673V4.07882H4.41967ZM8.21524 11.0282H7.78473C7.55799 11.0282 7.37417 10.8443 7.37417 10.6176C7.37417 10.3909 7.55799 10.207 7.78473 10.207H8.21524C8.44198 10.207 8.6258 10.3909 8.6258 10.6176C8.6258 10.8443 8.44198 11.0282 8.21524 11.0282ZM8.21524 9.49067H7.78473C7.55799 9.49067 7.37417 9.30685 7.37417 9.08012C7.37417 8.85338 7.55799 8.66956 7.78473 8.66956H8.21524C8.44198 8.66956 8.6258 8.85338 8.6258 9.08012C8.6258 9.30685 8.44198 9.49067 8.21524 9.49067ZM8 7.4305C7.33279 7.4305 6.78998 6.88766 6.78998 6.22047C6.78998 5.55329 7.33282 5.01045 8 5.01045C8.66718 5.01045 9.21002 5.55329 9.21002 6.22047C9.21002 6.88766 8.66721 7.4305 8 7.4305ZM10.028 9.38226V14.9378C10.5513 14.765 10.9301 14.2717 10.9301 13.6912V7.53229L10.5755 7.93417C10.2224 8.33432 10.028 8.84859 10.028 9.38226ZM5.06991 7.53231V13.6912C5.06991 14.2717 5.44874 14.765 5.97204 14.9378V9.38228C5.97204 8.84861 5.7776 8.33435 5.42452 7.93419L5.06991 7.53231ZM8.3889 6.22045C8.3889 6.43524 8.21478 6.60935 8 6.60935C7.78521 6.60935 7.61109 6.43524 7.61109 6.22045C7.61109 6.00566 7.78521 5.83154 8 5.83154C8.21478 5.83154 8.3889 6.00566 8.3889 6.22045Z" fill="black"/>
</svg>
