<svg width="16" height="16" viewBox="0 0 16 16" fill="none" xmlns="http://www.w3.org/2000/svg">
<path d="M14.3085 11.6015H13.952C14.1296 11.356 14.2359 11.47 14.2359 11.1381V11.1352V4.51474C14.2359 3.67969 13.5662 3 12.7431 3H3.27354C2.45041 3 1.78076 3.67969 1.78076 4.51474V11.1352V11.1378C1.78076 11.4696 1.887 11.3553 2.06752 11.6054L2.06459 11.6009H1.70842C1.70582 11.6009 1.70288 11.6009 1.69995 11.6009C1.31348 11.6009 1 11.9142 1 12.3004C1 12.6867 1.31348 13 1.69995 13C1.70288 13 1.70582 13 1.70875 13H14.3085C14.6914 12.9951 15 12.6838 15 12.3004C15 11.9171 14.6911 11.6064 14.3085 11.6015ZM2.83102 4.51506C2.83102 4.25875 3.02979 4.04967 3.27386 4.04967H12.7434C12.9875 4.04967 13.1863 4.25843 13.1863 4.51506V11.1355C13.1863 11.3918 12.9875 11.6009 12.7434 11.6009H3.27386C3.02979 11.6009 2.83102 11.3921 2.83102 11.1355V4.51506Z" fill="black"/>
<path d="M10.5224 5C10.484 5 10.4478 5.00851 10.4155 5.02307C10.3859 5.03628 10.359 5.05427 10.3358 5.07704L10.3345 5.07832C10.3123 5.10093 10.2945 5.12729 10.2816 5.15575L10.2802 5.15871C10.2652 5.19143 10.2575 5.22869 10.2575 5.26597L10.2573 5.3805L10.2577 5.38629C10.2623 5.46117 10.2973 5.52683 10.3491 5.57239L10.355 5.57732C10.4056 5.62023 10.4718 5.64618 10.5434 5.64618H10.9474H11.3984L11.1613 5.88279L9.5994 7.44185C9.53747 7.49894 9.49895 7.58054 9.49895 7.67105C9.49895 7.76263 9.53876 7.84476 9.60132 7.9015C9.65168 7.95296 9.71208 7.98874 9.78258 7.99779C9.85531 8.00711 9.92576 7.98631 9.9908 7.94782L10.0014 7.94156L10.01 7.93278C10.0182 7.92436 10.0274 7.91662 10.0378 7.90936L10.0454 7.9043L11.6119 6.34681L11.8588 6.10127L11.8556 6.59789L11.8531 6.98559C11.8531 7.05567 11.8813 7.11721 11.9285 7.16778C11.9769 7.21963 12.0388 7.25127 12.1115 7.25127L12.2331 7.2515L12.2396 7.25105C12.3048 7.24655 12.364 7.22188 12.4112 7.18303L12.412 7.18245C12.4602 7.14155 12.493 7.08282 12.4989 7.01584V5.25659C12.4989 5.20127 12.4912 5.1331 12.4357 5.07755C12.3777 5.01927 12.3102 5.00923 12.2559 5.0091L12.1709 5.0071H12.1617L10.5234 5H10.5224Z" fill="black"/>
<path d="M5.7116 11C5.75006 11 5.78623 10.9915 5.8185 10.9769C5.84812 10.9637 5.87499 10.9457 5.89825 10.923L5.8995 10.9217C5.92174 10.8991 5.93955 10.8727 5.95242 10.8442L5.95377 10.8413C5.96876 10.8086 5.97654 10.7713 5.97654 10.734L5.97672 10.6195L5.97636 10.6137C5.97172 10.5388 5.93667 10.4732 5.88486 10.4276L5.87905 10.4227C5.82845 10.3798 5.76219 10.3538 5.69061 10.3538L5.28659 10.3538L4.83562 10.3538L5.07266 10.1172L6.63461 8.55815C6.69654 8.50106 6.73506 8.41946 6.73506 8.32895C6.73506 8.23737 6.69525 8.15524 6.63269 8.0985C6.58234 8.04704 6.52193 8.01126 6.45143 8.00221C6.3787 7.99289 6.30825 8.01369 6.24321 8.05218L6.23263 8.05844L6.22402 8.06722C6.21577 8.07564 6.20659 8.08338 6.19626 8.09064L6.18866 8.0957L4.62216 9.65319L4.37521 9.89872L4.37839 9.40211L4.38087 9.01441C4.38087 8.94433 4.35273 8.88279 4.30553 8.83222C4.25713 8.78037 4.19517 8.74873 4.12249 8.74873L4.00086 8.7485L3.99441 8.74895C3.92923 8.75345 3.87002 8.77812 3.82281 8.81697L3.82206 8.81755C3.77378 8.85844 3.74105 8.91718 3.73507 8.98416L3.73507 10.7434C3.73507 10.7987 3.74278 10.8669 3.79834 10.9224C3.85635 10.9807 3.92382 10.9908 3.97807 10.9909L4.06307 10.9929L4.07236 10.9929L5.71062 11L5.7116 11Z" fill="black"/>
</svg>
