<svg width="16" height="16" viewBox="0 0 16 16" fill="none" xmlns="http://www.w3.org/2000/svg">
<path fill-rule="evenodd" clip-rule="evenodd" d="M5.92403 8.36178L10.3258 3.95997L8.17261 1.8067C8.00984 1.64391 7.74607 1.64369 7.58302 1.80609L1 8.36178H5.92403ZM14.5826 8.13922H13.6089C12.9185 8.13922 12.3569 8.70086 12.3569 9.39121V10.8101H11.3422C11.0879 10.0574 10.2276 9.70518 9.52238 10.0564L8.80153 9.33558L10.2534 7.88369C10.7415 7.39559 10.7415 6.6014 10.2534 6.11328L9.80313 5.66302L6.39199 9.07421C6.31372 9.15246 6.20758 9.19645 6.0969 9.19645H3.70456L6.06842 11.5603C6.23472 11.686 6.46727 11.6699 6.61456 11.5226L8.21139 9.92573L8.93224 10.6466C8.50169 11.511 9.13361 12.5351 10.1033 12.5351C10.6784 12.5351 11.1676 12.1617 11.3422 11.6448H12.3569V13.0637C12.3569 13.7541 12.9185 14.3157 13.6089 14.3157H14.5827C14.8131 14.3157 15 14.1289 15 13.8984V8.55652C15 8.32606 14.8131 8.13922 14.5826 8.13922ZM2.46311 10.0421L2.91645 9.58871L5.06469 11.737L4.61134 12.1903C4.44836 12.3533 4.18413 12.3533 4.02115 12.1903L2.46311 10.6323C2.30013 10.4693 2.30013 10.205 2.46311 10.0421Z" fill="black"/>
</svg>
