<svg width="16" height="16" viewBox="0 0 16 16" fill="none" xmlns="http://www.w3.org/2000/svg">
<path d="M5.52931 8.04196C7.4668 8.04196 9.04479 6.47378 9.04479 4.52797C9.04479 2.58217 7.4668 1 5.52931 1C3.57799 1 2 2.58217 2 4.52797C2 6.47378 3.57799 8.04196 5.52931 8.04196ZM4.29742 5.91434C4.32508 5.80245 4.35273 5.69056 4.39421 5.56425C4.43569 5.43794 4.47717 5.42439 4.58779 5.48033C4.80945 5.59222 5.03068 5.64816 5.25191 5.69012C5.404 5.70411 5.55653 5.69012 5.6948 5.62019C5.95794 5.5083 5.99942 5.21416 5.77776 5.03234C5.6948 4.96241 5.61184 4.92045 5.52845 4.8785C5.29296 4.78059 5.0579 4.71066 4.85006 4.58435C4.50396 4.37456 4.28273 4.08042 4.31038 3.6604C4.33804 3.18444 4.60118 2.8903 5.04407 2.72246C5.22382 2.65253 5.22382 2.66652 5.22382 2.47028V2.27448C5.22382 2.13462 5.25148 2.12063 5.38975 2.10664H5.52801C5.83264 2.10664 5.83264 2.10664 5.83264 2.41477C5.83264 2.62456 5.83264 2.62456 6.04004 2.65297C6.20596 2.68094 6.35849 2.73689 6.51059 2.79283C6.59355 2.83479 6.6212 2.89073 6.60737 2.98864C6.56589 3.11451 6.52441 3.24082 6.48293 3.38068C6.44145 3.49257 6.4138 3.52054 6.28936 3.4646C6.05387 3.33872 5.80498 3.29677 5.54184 3.31075C5.47271 3.31075 5.40357 3.32474 5.34826 3.35271C5.1266 3.45061 5.08512 3.7028 5.27913 3.85664C5.37592 3.92657 5.48653 3.98252 5.59758 4.03846C5.79116 4.10839 5.99899 4.19231 6.19257 4.30463C6.80138 4.64073 6.95391 5.39642 6.53867 5.91477C6.37275 6.09659 6.17874 6.2229 5.94368 6.29283C5.8469 6.3208 5.79159 6.36276 5.80542 6.47465C5.80542 6.57255 5.80542 6.68444 5.80542 6.78278C5.80542 6.88112 5.75011 6.92264 5.66715 6.93663C5.55653 6.93663 5.43166 6.93663 5.32104 6.93663C5.22425 6.92264 5.18277 6.88068 5.18277 6.78278C5.18277 6.69886 5.18277 6.62893 5.18277 6.54458C5.16895 6.39073 5.16895 6.37675 5.00302 6.34878C4.79562 6.3208 4.60161 6.26486 4.40804 6.18094C4.26977 6.11101 4.25594 6.06906 4.29742 5.91477V5.91434ZM13.4322 8.35009H13.017C12.7539 7.51005 12.2142 6.76792 11.5086 6.20804C11.5086 6.18007 11.5086 6.1521 11.4947 6.12413C11.3426 5.59222 11.5362 5.13024 11.7441 4.78016C11.8962 4.54196 11.7026 4.23427 11.4256 4.27622C10.7891 4.34615 10.3601 4.58435 10.0693 4.8361C9.86188 5.01792 9.70935 5.25612 9.65404 5.52229C9.19732 7.38418 7.52254 8.7701 5.52974 8.7701C4.54717 8.7701 3.66139 8.44799 2.94152 7.88811C2.69221 8.434 2.56777 9.02229 2.56777 9.63811C2.56777 9.96023 2.60925 10.2819 2.67838 10.604C2.67838 10.604 2.67838 10.604 2.67838 10.618C2.76134 10.9401 2.88578 11.2478 3.03831 11.542C3.23189 11.976 3.52268 12.4939 3.9241 12.8999C4.50526 13.5017 4.60248 14.2439 4.63013 14.566V14.7198C4.63013 14.8737 4.7684 15 4.92093 15H6.77546C6.94138 15 7.08008 14.8601 7.08008 14.6919V14.2439C7.34322 14.2719 7.61976 14.2998 7.89673 14.2998C8.11796 14.2998 8.3258 14.2858 8.5332 14.2579V14.6919C8.5332 14.8597 8.67147 15 8.83782 15H10.6924C10.8583 15 10.997 14.8601 10.997 14.6919V14.2439C10.997 14.09 11.0523 13.4878 11.6196 12.9698L11.6888 12.9139L11.7026 12.8999C12.339 12.34 12.81 11.6259 13.0451 10.8418H13.4327C13.7511 10.8418 14 10.5896 14 10.2819V8.90996C13.9862 8.58785 13.7369 8.35009 13.4327 8.35009H13.4322ZM11.121 8.44799C10.8717 8.44799 10.6643 8.2382 10.6643 7.98601C10.6643 7.73383 10.8717 7.52404 11.121 7.52404C11.3703 7.52404 11.5777 7.73383 11.5777 7.98601C11.5777 8.2382 11.3703 8.44799 11.121 8.44799Z" fill="black"/>
</svg>
