<svg width="16" height="16" viewBox="0 0 16 16" fill="none" xmlns="http://www.w3.org/2000/svg">
<path d="M5.14254 3.96129C5.14254 3.63031 5.0265 3.34892 4.79444 3.11713C4.56237 2.88533 4.28617 2.77495 3.96583 2.78597C3.64548 2.79699 3.36376 2.90738 3.12066 3.11713C2.87756 3.32688 2.76153 3.60826 2.77256 3.96129C2.7836 4.31432 2.89963 4.59019 3.12066 4.78892C3.3417 4.98765 3.62342 5.10355 3.96583 5.13661C4.30824 5.16967 4.58444 5.05378 4.79444 4.78892C5.00443 4.52407 5.12047 4.24819 5.14254 3.96129ZM15 9.27374C15 9.60472 14.8895 9.88611 14.6685 10.1179L10.1287 14.6523C9.88558 14.8841 9.60386 15 9.28352 15C8.95214 15 8.67594 14.8841 8.45491 14.6523L1.84464 8.04985C1.61258 7.81806 1.41379 7.50361 1.24827 7.1065C1.08276 6.70939 1 6.35085 1 6.03089V2.19185C1 1.87189 1.11603 1.59601 1.3481 1.36422C1.58017 1.13243 1.85637 1.01102 2.17671 1H6.03684C6.35718 1 6.71614 1.08266 7.11372 1.24798C7.5113 1.4133 7.82612 1.61186 8.05819 1.84365L14.6685 8.4461C14.8895 8.6779 15 8.95377 15 9.27374Z" fill="black"/>
</svg>
