<svg width="16" height="16" viewBox="0 0 16 16" fill="none" xmlns="http://www.w3.org/2000/svg">
<path d="M1.79601 5.55523H2.80469C3.0761 5.55523 3.27662 5.49055 3.40625 5.3612C3.53588 5.23184 3.6007 5.03582 3.6007 4.77314V3.78209C3.6007 3.5194 3.53588 3.32338 3.40625 3.19403C3.27662 3.06468 3.0761 3 2.80469 3H1.79601C1.52865 3 1.32914 3.06468 1.19748 3.19403C1.06583 3.32338 1 3.5194 1 3.78209V4.77314C1 5.03582 1.06583 5.23184 1.19748 5.3612C1.32914 5.49055 1.52865 5.55523 1.79601 5.55523ZM5.58767 5.55523H6.59635C6.86371 5.55523 7.06322 5.49055 7.19487 5.3612C7.32653 5.23184 7.39236 5.03582 7.39236 4.77314V3.78209C7.39236 3.5194 7.32653 3.32338 7.19487 3.19403C7.06322 3.06468 6.86371 3 6.59635 3H5.58767C5.31625 3 5.11573 3.06468 4.9861 3.19403C4.85647 3.32338 4.79166 3.5194 4.79166 3.78209V4.77314C4.79166 5.03582 4.85647 5.23184 4.9861 5.3612C5.11573 5.49055 5.31625 5.55523 5.58767 5.55523ZM9.37327 5.55523H10.382C10.6534 5.55523 10.8539 5.49055 10.9835 5.3612C11.1131 5.23184 11.178 5.03582 11.178 4.77314V3.78209C11.178 3.5194 11.1131 3.32338 10.9835 3.19403C10.8539 3.06468 10.6534 3 10.382 3H9.37327C9.10591 3 8.9064 3.06468 8.77474 3.19403C8.64309 3.32338 8.57726 3.5194 8.57726 3.78209V4.77314C8.57726 5.03582 8.64309 5.23184 8.77474 5.3612C8.9064 5.49055 9.10591 5.55523 9.37327 5.55523ZM1.82638 9.28059H2.83507C3.10648 9.28059 3.307 9.21591 3.43663 9.08656C3.56626 8.9572 3.63107 8.75919 3.63107 8.49253V7.50148C3.63107 7.23879 3.56626 7.04277 3.43663 6.91342C3.307 6.78407 3.10648 6.71939 2.83507 6.71939H1.82638C1.55902 6.71939 1.35951 6.78407 1.22786 6.91342C1.0962 7.04277 1.03038 7.23879 1.03038 7.50148V8.49253C1.03038 8.75919 1.0962 8.9572 1.22786 9.08656C1.35951 9.21591 1.55902 9.28059 1.82638 9.28059ZM5.61804 9.28059H6.62672C6.89409 9.28059 7.0936 9.21591 7.22525 9.08656C7.3569 8.9572 7.42273 8.75919 7.42273 8.49253V7.50148C7.42273 7.23879 7.3569 7.04277 7.22525 6.91342C7.09359 6.78407 6.89408 6.71939 6.62672 6.71939H5.61804C5.34663 6.71939 5.14611 6.78407 5.01648 6.91342C4.88685 7.04277 4.82203 7.23879 4.82203 7.50148V8.49253C4.82203 8.75919 4.88685 8.9572 5.01648 9.08656C5.14611 9.21591 5.34663 9.28059 5.61804 9.28059ZM9.40365 9.28059H10.4123C10.6837 9.28059 10.8843 9.21591 11.0139 9.08656C11.1435 8.9572 11.2083 8.75919 11.2083 8.49253V7.50148C11.2083 7.23879 11.1435 7.04277 11.0139 6.91342C10.8843 6.78407 10.6837 6.71939 10.4123 6.71939H9.40365C9.13628 6.71939 8.93678 6.78407 8.80512 6.91342C8.67347 7.04277 8.60764 7.23879 8.60764 7.50148V8.49253C8.60764 8.75919 8.67347 8.9572 8.80512 9.08656C8.93678 9.21591 9.13628 9.28059 9.40365 9.28059ZM13.1649 5.55523H14.1736C14.441 5.55523 14.6405 5.49055 14.7721 5.3612C14.9038 5.23184 14.9696 5.03582 14.9696 4.77314V3.78209C14.9696 3.5194 14.9038 3.32338 14.7721 3.19403C14.6405 3.06468 14.441 3 14.1736 3H13.1649C12.8935 3 12.693 3.06468 12.5634 3.19403C12.4337 3.32338 12.3689 3.5194 12.3689 3.78209V4.77314C12.3689 5.03582 12.4337 5.23184 12.5634 5.3612C12.693 5.49055 12.8935 5.55523 13.1649 5.55523ZM13.1953 9.28059H14.204C14.4714 9.28059 14.6709 9.21591 14.8025 9.08656C14.9342 8.9572 15 8.75919 15 8.49253V7.50148C15 7.23879 14.9342 7.04277 14.8025 6.91342C14.6709 6.78407 14.4714 6.71939 14.204 6.71939H13.1953C12.9239 6.71939 12.7234 6.78407 12.5937 6.91342C12.4641 7.04277 12.3993 7.23879 12.3993 7.50148V8.49253C12.3993 8.75919 12.4641 8.9572 12.5937 9.08656C12.7234 9.21591 12.9239 9.28059 13.1953 9.28059ZM1.82636 13H2.83504C3.10646 13 3.30698 12.9353 3.43661 12.806C3.56624 12.6766 3.63105 12.4806 3.63105 12.2179V11.2269C3.63105 10.9642 3.56624 10.7682 3.43661 10.6388C3.30698 10.5095 3.10646 10.4448 2.83504 10.4448H1.82636C1.559 10.4448 1.35949 10.5095 1.22784 10.6388C1.09618 10.7682 1.03035 10.9642 1.03035 11.2269V12.2179C1.03035 12.4806 1.09618 12.6766 1.22784 12.806C1.35949 12.9353 1.559 13 1.82636 13ZM5.61802 13H6.6267C6.89406 13 7.09357 12.9353 7.22523 12.806C7.35688 12.6766 7.42271 12.4806 7.42271 12.2179V11.2269C7.42271 10.9642 7.35688 10.7682 7.22523 10.6388C7.09357 10.5095 6.89406 10.4448 6.6267 10.4448H5.61802C5.34661 10.4448 5.14609 10.5095 5.01646 10.6388C4.88683 10.7682 4.82201 10.9642 4.82201 11.2269V12.2179C4.82201 12.4806 4.88683 12.6766 5.01646 12.806C5.14609 12.9353 5.34661 13 5.61802 13ZM9.40362 13H10.4123C10.6837 13 10.8842 12.9353 11.0139 12.806C11.1435 12.6766 11.2083 12.4806 11.2083 12.2179V11.2269C11.2083 10.9642 11.1435 10.7682 11.0139 10.6388C10.8842 10.5095 10.6837 10.4448 10.4123 10.4448H9.40362C9.13626 10.4448 8.93675 10.5095 8.8051 10.6388C8.67344 10.7682 8.60762 10.9642 8.60762 11.2269V12.2179C8.60762 12.4806 8.67344 12.6766 8.8051 12.806C8.93675 12.9353 9.13626 13 9.40362 13ZM13.1953 13H14.204C14.4713 13 14.6708 12.9353 14.8025 12.806C14.9341 12.6766 15 12.4806 15 12.2179V11.2269C15 10.9642 14.9341 10.7682 14.8025 10.6388C14.6708 10.5095 14.4713 10.4448 14.204 10.4448H13.1953C12.9239 10.4448 12.7233 10.5095 12.5937 10.6388C12.4641 10.7682 12.3993 10.9642 12.3993 11.2269V12.2179C12.3993 12.4806 12.4641 12.6766 12.5937 12.806C12.7233 12.9353 12.9239 13 13.1953 13Z" fill="black"/>
</svg>
