<svg width="16" height="16" viewBox="0 0 16 16" fill="none" xmlns="http://www.w3.org/2000/svg">
<path fill-rule="evenodd" clip-rule="evenodd" d="M10.8468 9.91917L13.79 12.9292C14.07 13.2149 14.07 13.6758 13.79 13.9617L12.9842 14.7841C12.8471 14.9301 12.6641 15 12.4813 15C12.2984 15 12.1156 14.9301 11.9727 14.7841L9.02373 11.7799C8.76655 11.5117 8.76027 11.094 8.98595 10.807L6.77085 8.72922H5.85762C5.30897 8.72922 4.85753 8.26833 4.85753 7.70827V6.8333H3.28587C2.57722 6.8333 2 6.24413 2 5.5208V2.3125C2 1.58917 2.57722 1 3.28587 1H11.0011C11.7098 1 12.287 1.58917 12.287 2.3125V5.5208C12.287 6.24413 11.7098 6.8333 11.0011 6.8333H9.42943V7.70827C9.42943 8.25836 8.99287 8.71102 8.45743 8.72619L9.78439 9.97108L9.83526 9.91917C10.1153 9.63911 10.5667 9.63911 10.8468 9.91917ZM3.28587 5.9583H5.28616H10.2867V1.875H3.28587C3.05158 1.875 2.85725 2.07335 2.85725 2.3125V5.5208C2.85725 5.75995 3.05158 5.9583 3.28587 5.9583Z" fill="black"/>
</svg>
