<svg width="16" height="16" viewBox="0 0 16 16" fill="none" xmlns="http://www.w3.org/2000/svg">
<path d="M13.9584 2.5H2.04163C1.47029 2.5 1 2.97289 1 3.53403V11.003C1 11.5751 1.47029 12.037 2.04163 12.037H13.9584C14.5297 12.037 15 11.5751 15 11.003V3.53403C15 2.97289 14.5297 2.5 13.9584 2.5ZM10.8898 9.85909C10.8898 10.266 10.5649 10.5851 10.1618 10.5851H3.26264C2.85949 10.5851 2.54584 10.266 2.54584 9.85909V4.69993C2.54584 4.29298 2.85949 3.97395 3.26264 3.97395H10.1618C10.5649 3.97395 10.8898 4.29298 10.8898 4.69993V9.85909ZM13.8577 8.25293C13.8577 8.32985 13.7905 8.40678 13.7122 8.40678H12.2003C12.1108 8.40678 12.0436 8.32985 12.0436 8.25293V7.109C12.0436 7.03208 12.1108 6.95515 12.2003 6.95515H13.7122C13.7905 6.95515 13.8577 7.03208 13.8577 7.109V8.25293ZM13.8577 5.83286C13.8577 5.92078 13.7905 5.98672 13.7122 5.98672H12.2003C12.1108 5.98672 12.0436 5.92078 12.0436 5.83286V4.69993C12.0436 4.61202 12.1108 4.54608 12.2003 4.54608H13.7122C13.7905 4.54608 13.8577 4.61202 13.8577 4.69993V5.83286ZM2.04163 12.9608V12.5429H3.65461V12.9608C3.65461 13.2689 3.41929 13.5 3.11719 13.5H2.57976C2.2773 13.5 2.04198 13.2689 2.04198 12.9608H2.04163ZM12.3457 12.9608V12.5429H13.9584V12.9608C13.9584 13.2689 13.723 13.5 13.4206 13.5H12.8828C12.5804 13.5 12.345 13.2689 12.345 12.9608H12.3457Z" fill="black"/>
</svg>
