<svg width="16" height="16" viewBox="0 0 16 16" fill="none" xmlns="http://www.w3.org/2000/svg">
<path d="M14.5625 13.25H14.125V14.5625C14.125 14.6811 14.0817 14.7834 13.9951 14.8701C13.9084 14.9567 13.8061 15 13.6875 15C13.5689 15 13.4666 14.9567 13.3799 14.8701C13.2933 14.7834 13.25 14.6811 13.25 14.5625V13.25H12.375V14.5625C12.375 14.6811 12.3317 14.7834 12.2451 14.8701C12.1584 14.9567 12.0561 15 11.9375 15C11.8189 15 11.7166 14.9567 11.6299 14.8701C11.5433 14.7834 11.5 14.6811 11.5 14.5625V13.25H10.625V14.5625C10.625 14.6811 10.5817 14.7834 10.4951 14.8701C10.4084 14.9567 10.3061 15 10.1875 15C10.0689 15 9.96656 14.9567 9.87994 14.8701C9.79331 14.7834 9.75 14.6811 9.75 14.5625V13.25H8.875V14.5625C8.875 14.6811 8.83169 14.7834 8.74506 14.8701C8.65844 14.9567 8.55606 15 8.4375 15C8.31894 15 8.21656 14.9567 8.12994 14.8701C8.04331 14.7834 8 14.6811 8 14.5625V13.25H7.125V14.5625C7.125 14.6811 7.08169 14.7834 6.99506 14.8701C6.90844 14.9567 6.80606 15 6.6875 15C6.56894 15 6.46656 14.9567 6.37994 14.8701C6.29331 14.7834 6.25 14.6811 6.25 14.5625V13.25H5.375V14.5625C5.375 14.6811 5.33169 14.7834 5.24506 14.8701C5.15844 14.9567 5.05606 15 4.9375 15C4.81894 15 4.71656 14.9567 4.62994 14.8701C4.54331 14.7834 4.5 14.6811 4.5 14.5625V13.25H3.625V3.625H14.5625C14.6811 3.625 14.7834 3.66831 14.8701 3.75494C14.9567 3.84156 15 3.94394 15 4.0625V12.8125C15 12.9311 14.9567 13.0334 14.8701 13.1201C14.7834 13.2067 14.6811 13.25 14.5625 13.25ZM14.125 5.375C14.125 5.13788 14.0406 4.93313 13.8721 4.75987C13.7037 4.58662 13.4963 4.5 13.25 4.5H7.125C6.88788 4.5 6.68313 4.58662 6.50987 4.75987C6.33663 4.93313 6.25 5.13831 6.25 5.375V10.625C6.25 10.8713 6.33663 11.0782 6.50987 11.2471C6.68313 11.416 6.88831 11.5 7.125 11.5H13.25C13.4963 11.5 13.7032 11.4156 13.8721 11.2471C14.041 11.0787 14.125 10.8713 14.125 10.625V5.375ZM12.8125 10.625H7.5625C7.44394 10.625 7.34156 10.5817 7.25494 10.4951C7.16831 10.4084 7.125 10.3061 7.125 10.1875V5.8125C7.125 5.69394 7.16831 5.59156 7.25494 5.50494C7.34156 5.41831 7.44394 5.375 7.5625 5.375H12.8125C12.9311 5.375 13.0334 5.41831 13.1201 5.50494C13.2067 5.59156 13.25 5.69394 13.25 5.8125V10.1875C13.25 10.3061 13.2067 10.4084 13.1201 10.4951C13.0334 10.5817 12.9311 10.625 12.8125 10.625ZM10.625 6.25C10.142 6.25 9.72944 6.42106 9.38775 6.76275C9.04606 7.10444 8.875 7.517 8.875 8C8.875 8.483 9.04606 8.89556 9.38775 9.23725C9.72944 9.57894 10.142 9.75 10.625 9.75C11.108 9.75 11.5206 9.57894 11.8622 9.23725C12.2039 8.89556 12.375 8.483 12.375 8C12.375 7.517 12.2039 7.10444 11.8622 6.76275C11.5206 6.42106 11.108 6.25 10.625 6.25ZM10.632 8.875C10.3905 8.875 10.1831 8.79056 10.0099 8.62213C9.83663 8.45369 9.75 8.2485 9.75 8.007C9.75 7.7655 9.83663 7.55813 10.0099 7.38487C10.1831 7.21163 10.3905 7.125 10.632 7.125C10.8735 7.125 11.0787 7.20944 11.2471 7.37787C11.416 7.54631 11.5 7.75369 11.5 8C11.5 8.24631 11.4156 8.45325 11.2471 8.62213C11.0787 8.791 10.8735 8.875 10.632 8.875ZM2.75 13.25V14.5625C2.75 14.6811 2.70669 14.7834 2.62006 14.8701C2.53344 14.9567 2.43106 15 2.3125 15C2.19394 15 2.09156 14.9567 2.00494 14.8701C1.91831 14.7834 1.875 14.6811 1.875 14.5625V1.875H1.4375C1.31894 1.875 1.21656 1.83169 1.12994 1.74506C1.04331 1.65844 1 1.55606 1 1.4375C1 1.31894 1.04331 1.21656 1.12994 1.12994C1.21656 1.04331 1.31894 1 1.4375 1H2.3125C2.34881 1 2.37637 1.00438 2.39475 1.01356C2.49494 1.03194 2.57938 1.07962 2.64762 1.15706C2.71588 1.2345 2.75 1.32812 2.75 1.4375V13.25Z" fill="black"/>
</svg>
