<svg width="16" height="16" viewBox="0 0 16 16" fill="none" xmlns="http://www.w3.org/2000/svg">
<path fill-rule="evenodd" clip-rule="evenodd" d="M6.56955 5.22818C6.70515 5.08581 6.88499 5.01807 7.06075 5.01807C7.19628 5.01807 7.32696 5.05878 7.46021 5.11934L7.4634 5.12079L9.8776 6.32201C10.1557 6.46126 10.3369 6.69868 10.3369 6.97769C10.3369 7.26012 10.14 7.49597 9.85582 7.64406L9.85469 7.64465L7.47178 8.84765C7.33854 8.90822 7.20782 8.94885 7.07229 8.94885C6.89168 8.94885 6.70891 8.88176 6.57142 8.73918C6.43337 8.59602 6.34845 8.3847 6.34845 8.10962V5.8573C6.34845 5.58221 6.43335 5.37118 6.56955 5.22818ZM7.18419 5.92066L9.29883 6.97798L7.18419 8.05075V5.92066Z" fill="black"/>
<path fill-rule="evenodd" clip-rule="evenodd" d="M2 2H14C14.52 2 15 2.42767 15 2.95884V10.9922C15 11.5237 14.5196 12 14 12L9.27076 12.0007V13.2775H10.5412V14H5.45884V13.2775H6.72924V12.0004H2C1.46847 12.0004 1 11.5234 1 10.9922V2.95884C1 2.42731 1.46883 2 2 2ZM7.36498 13.2656H8.63538V12.0004L7.36498 12V13.2656ZM13.6881 10.9922C13.8615 10.9922 14 10.8418 14 10.6687V3.31192C14 3.13847 13.8612 3 13.6881 3H2.32422C2.15077 3 2.00076 3.13883 2.00076 3.31192L2 10.6687C2 10.8422 2.15037 10.9922 2.32346 10.9922H13.6881Z" fill="black"/>
</svg>
