<svg width="16" height="17" viewBox="0 0 16 17" fill="none" xmlns="http://www.w3.org/2000/svg">
<path d="M14.986 9.09482H15H14.986ZM3.345 8.36754C4.178 8.36754 4.339 9.09482 5.676 9.09482C7.041 9.09482 7.139 8.36754 8.007 8.36754C8.84 8.36754 9.001 9.09482 10.338 9.09482C11.703 9.09482 11.801 8.36754 12.669 8.36754C13.32 8.36754 13.404 8.69482 14.076 8.94209C14.517 9.10209 14.986 8.76754 14.986 8.28027C14.986 7.90209 14.825 7.67663 14.538 7.57482C14.118 7.41482 13.733 6.92027 12.655 6.92027C11.29 6.92027 11.192 7.64754 10.324 7.64754C9.491 7.64754 9.33 6.92027 7.993 6.92027C6.628 6.92027 6.53 7.64754 5.662 7.64754C4.829 7.64754 4.668 6.92027 3.331 6.92027C2.253 6.92027 1.84 7.43663 1.455 7.58209C1.168 7.67663 1 7.89482 1 8.28754C1 8.77482 1.462 9.10936 1.903 8.94936C2.645 8.68754 2.673 8.36754 3.345 8.36754ZM12.669 9.82209C11.304 9.82209 11.206 10.5494 10.338 10.5494C9.505 10.5494 9.344 9.82209 8.007 9.82209C6.642 9.82209 6.537 10.5494 5.669 10.5494C4.801 10.5494 4.703 9.82209 3.338 9.82209C2.267 9.82209 1.833 10.3385 1.455 10.4839C1.168 10.5857 1 10.8112 1 11.1966C1 11.6839 1.462 12.0185 1.91 11.8585C2.624 11.5966 2.666 11.2766 3.338 11.2766C4.206 11.2766 4.304 12.0039 5.669 12.0039C7.034 12.0039 7.139 11.2766 8.007 11.2766C8.84 11.2766 9.001 12.0039 10.338 12.0039C11.696 12.0039 11.801 11.2766 12.669 11.2766C13.327 11.2766 13.411 11.6112 14.09 11.8585C14.531 12.0185 15 11.6839 15 11.1966C15 10.8112 14.832 10.593 14.545 10.4839C14.174 10.3457 13.747 9.82209 12.669 9.82209ZM3.345 5.45845C4.178 5.45845 4.339 6.18572 5.676 6.18572C7.041 6.18572 7.139 5.45845 8.007 5.45845C8.84 5.45845 9.001 6.18572 10.338 6.18572C11.703 6.18572 11.801 5.45845 12.669 5.45845C13.32 5.45845 13.404 5.78572 14.076 6.033C14.517 6.193 14.986 5.85845 14.986 5.37118C14.986 4.993 14.825 4.76754 14.538 4.66572C14.118 4.49845 13.733 4.00391 12.655 4.00391C11.29 4.00391 11.192 4.73118 10.324 4.73118C9.491 4.73118 9.33 4.00391 7.993 4.00391C6.628 4.00391 6.53 4.73118 5.662 4.73118C4.829 4.73118 4.668 4.00391 3.331 4.00391C2.253 4.00391 1.84 4.52027 1.455 4.66572C1.168 4.76754 1 4.98572 1 5.37845C1 5.86572 1.462 6.20027 1.903 6.04027C2.645 5.77845 2.673 5.45845 3.345 5.45845Z" fill="black"/>
</svg>
