<svg width="16" height="17" viewBox="0 0 16 17" fill="none" xmlns="http://www.w3.org/2000/svg">
<path d="M14 7.82717C13.9961 7.7545 13.9669 7.68557 13.9174 7.63259C13.868 7.5796 13.8016 7.54599 13.73 7.5377L12.9904 7.41685C12.9571 7.41134 12.9265 7.39512 12.9031 7.37061C12.8797 7.3461 12.8648 7.31462 12.8606 7.28085C12.8464 7.18912 12.8317 7.09389 12.8115 7.00361C12.805 6.97077 12.8088 6.93671 12.8224 6.90616C12.836 6.87562 12.8588 6.85013 12.8874 6.83325L13.5445 6.46486C13.6098 6.43128 13.6605 6.37466 13.6871 6.30577C13.7137 6.23688 13.7143 6.16052 13.6888 6.09122L13.5748 5.7738C13.5498 5.70426 13.5003 5.64648 13.4357 5.6115C13.3712 5.57652 13.2961 5.5668 13.2249 5.58421L12.4879 5.72982C12.4549 5.73577 12.421 5.73106 12.3908 5.71637C12.3607 5.70167 12.3359 5.67774 12.32 5.64799C12.277 5.56674 12.2303 5.48403 12.1815 5.40278C12.1638 5.37384 12.1555 5.34003 12.1578 5.30608C12.1601 5.27214 12.1728 5.23977 12.1942 5.21349L12.6846 4.64154C12.7344 4.58755 12.763 4.51708 12.7651 4.44333C12.7672 4.36957 12.7426 4.29758 12.6959 4.24083L12.4818 3.98135C12.4353 3.9244 12.3694 3.88691 12.2971 3.87616C12.2247 3.8654 12.1509 3.88213 12.0901 3.92311L11.4448 4.31421C11.4162 4.33152 11.3828 4.33908 11.3496 4.33577C11.3165 4.33247 11.2852 4.31848 11.2605 4.29587C11.1892 4.23267 11.1163 4.17181 11.0479 4.1156C11.0216 4.0947 11.0027 4.06589 10.9938 4.03337C10.9848 4.00085 10.9864 3.96631 10.9983 3.93476L11.2654 3.22418C11.2945 3.15638 11.2979 3.08016 11.275 3.00999C11.252 2.93982 11.2044 2.88059 11.1411 2.84356L10.85 2.67203C10.7866 2.63514 10.712 2.62315 10.6404 2.63835C10.5688 2.65356 10.5053 2.6949 10.462 2.75445L9.99039 3.35261C9.97342 3.37861 9.94802 3.39783 9.91854 3.40697C9.88906 3.41611 9.85734 3.4146 9.82885 3.4027C9.81125 3.39542 9.66241 3.33397 9.54673 3.29495C9.515 3.28451 9.48741 3.2641 9.468 3.23669C9.44859 3.20929 9.43838 3.17633 9.43885 3.14264L9.4501 2.38344C9.45412 2.30931 9.43123 2.23624 9.38573 2.17791C9.34022 2.11959 9.27522 2.08001 9.20289 2.06659L8.8726 2.00835C8.80063 1.9958 8.7266 2.01005 8.66426 2.04845C8.60192 2.08686 8.55551 2.1468 8.53366 2.21715L8.28846 2.93966C8.27733 2.97174 8.25631 2.99936 8.22848 3.01849C8.20065 3.03762 8.16749 3.04725 8.13385 3.04596H7.8526C7.81922 3.04665 7.78647 3.03669 7.75902 3.0175C7.73157 2.99831 7.71082 2.97087 7.69971 2.93908L7.45568 2.22065C7.43421 2.14978 7.38788 2.08925 7.32539 2.05039C7.26289 2.01152 7.1885 1.99699 7.11616 2.00951L6.78529 2.06776C6.71342 2.08107 6.64878 2.12026 6.60337 2.17805C6.55796 2.23584 6.53486 2.3083 6.53837 2.38198L6.54991 3.14381C6.55014 3.178 6.53942 3.21135 6.51936 3.2389C6.4993 3.26645 6.47096 3.28672 6.43856 3.2967C6.3725 3.32262 6.22914 3.37795 6.16395 3.40241C6.10625 3.42338 6.04337 3.40037 5.9926 3.34125L5.52356 2.75882C5.48053 2.6989 5.41707 2.65717 5.3454 2.64163C5.27373 2.62609 5.19889 2.63786 5.13529 2.67466L4.8451 2.84444C4.78107 2.88154 4.73291 2.94125 4.7099 3.01207C4.68689 3.08288 4.69066 3.15979 4.72048 3.22797L4.98731 3.93679C4.99895 3.96841 5.00048 4.00292 4.99168 4.03547C4.98289 4.06801 4.96421 4.09695 4.93827 4.11822C4.86818 4.17647 4.79635 4.23471 4.72481 4.29936C4.70025 4.3218 4.66922 4.33571 4.63626 4.33906C4.6033 4.34241 4.57014 4.33503 4.54164 4.318L3.90385 3.91932C3.84261 3.8791 3.76893 3.86283 3.69665 3.87355C3.62437 3.88428 3.55845 3.92126 3.51125 3.97756L3.29808 4.23646C3.25073 4.29283 3.22564 4.36485 3.22761 4.43873C3.22958 4.51261 3.25847 4.58317 3.30875 4.63688L3.80145 5.20825C3.82331 5.234 3.83638 5.26617 3.83872 5.3C3.84106 5.33383 3.83254 5.36752 3.81443 5.39609C3.7651 5.4753 3.71808 5.55859 3.67539 5.64187C3.65942 5.67184 3.63446 5.69592 3.60409 5.71067C3.57372 5.72543 3.53951 5.73009 3.50635 5.724L2.77049 5.58043C2.69924 5.56307 2.62416 5.57281 2.55956 5.60777C2.49497 5.64274 2.4454 5.70049 2.42029 5.77001L2.30491 6.08686C2.27941 6.15624 2.28 6.23266 2.30658 6.30163C2.33317 6.3706 2.38389 6.42733 2.44914 6.46107L3.10625 6.82946C3.13581 6.84593 3.15925 6.87165 3.17304 6.90276C3.18683 6.93386 3.19022 6.96864 3.1827 7.00186L3.17577 7.03885C3.16077 7.1201 3.14693 7.19698 3.13366 7.27881C3.12907 7.31215 3.11416 7.34318 3.09105 7.36745C3.06794 7.39172 3.03782 7.40799 3.005 7.41394L2.26395 7.53479C2.19148 7.54377 2.12472 7.57908 2.07615 7.63412C2.02758 7.68916 2.00051 7.76016 2 7.83387V8.1711C1.99958 8.2451 2.02637 8.31662 2.07518 8.37181C2.124 8.42701 2.19136 8.46196 2.26424 8.46989L3.005 8.59046C3.03829 8.59592 3.06893 8.61213 3.09233 8.63664C3.11573 8.66116 3.13064 8.69267 3.13481 8.72645C3.14895 8.81848 3.16366 8.91342 3.18385 9.00369C3.19036 9.03653 3.18654 9.0706 3.17294 9.10114C3.15934 9.13168 3.13663 9.15718 3.10799 9.17406L2.45116 9.54303C2.38591 9.57661 2.33516 9.63323 2.30857 9.70212C2.28197 9.77101 2.28139 9.84737 2.30693 9.91666L2.42231 10.2341C2.44736 10.3036 2.49688 10.3613 2.56142 10.3963C2.62597 10.4313 2.70101 10.441 2.77222 10.4237L3.50924 10.2795C3.54219 10.2735 3.5762 10.2781 3.60637 10.2929C3.63653 10.3076 3.66131 10.3315 3.67712 10.3614C3.72039 10.4429 3.76683 10.5253 3.81558 10.6066C3.83337 10.6355 3.84172 10.6693 3.83944 10.7033C3.83716 10.7372 3.82438 10.7696 3.80289 10.7958L3.3125 11.3675C3.2621 11.4211 3.23283 11.4914 3.23017 11.5653C3.22751 11.6391 3.25166 11.7114 3.29808 11.7685L3.51183 12.028C3.55836 12.085 3.6242 12.1225 3.69658 12.1333C3.76897 12.144 3.84273 12.1273 3.90356 12.0862L4.54885 11.6951C4.57746 11.6778 4.61082 11.6703 4.64401 11.6736C4.67721 11.6769 4.70847 11.6909 4.73318 11.7135C4.80472 11.7767 4.87741 11.8375 4.94577 11.8937C4.97199 11.9147 4.99095 11.9435 4.99992 11.976C5.00889 12.0085 5.0074 12.043 4.99568 12.0746L4.72827 12.7852C4.69918 12.853 4.69578 12.9292 4.7187 12.9994C4.74162 13.0695 4.78927 13.1287 4.8526 13.1658L5.14423 13.3359C5.20758 13.3728 5.28219 13.3848 5.35377 13.3697C5.42536 13.3545 5.4889 13.3132 5.53221 13.2537L6.00962 12.6611C6.05 12.6107 6.11346 12.5883 6.16048 12.6075C6.26087 12.6495 6.32808 12.673 6.44721 12.7132C6.47895 12.7237 6.50655 12.7441 6.526 12.7715C6.54546 12.7989 6.55575 12.8318 6.55539 12.8655L6.54385 13.6242C6.53996 13.6983 6.56289 13.7713 6.60837 13.8296C6.65386 13.8879 6.71879 13.9275 6.79106 13.941L7.12135 13.9992C7.19333 14.0119 7.26741 13.9977 7.32978 13.9593C7.39215 13.9209 7.43854 13.8609 7.46029 13.7904L7.70548 13.0691C7.71658 13.037 7.73759 13.0093 7.76543 12.9902C7.79326 12.9711 7.82645 12.9615 7.8601 12.9628H8.14135C8.17474 12.9621 8.20751 12.972 8.23497 12.9912C8.26242 13.0104 8.28317 13.0379 8.29423 13.0697L8.53856 13.7881C8.55749 13.8505 8.59571 13.9051 8.64762 13.9439C8.69954 13.9828 8.76241 14.0038 8.82702 14.0039C8.84424 14.0039 8.86143 14.0024 8.87837 13.9992L9.20923 13.941C9.2811 13.9277 9.34574 13.8885 9.39115 13.8307C9.43656 13.7729 9.45966 13.7005 9.45616 13.6268L9.44462 12.865C9.44439 12.8314 9.45476 12.7986 9.4742 12.7714C9.49365 12.7442 9.52117 12.7239 9.55279 12.7135C9.66356 12.676 9.74144 12.6457 9.80981 12.6189L9.82712 12.6122C9.91654 12.581 9.95981 12.6189 9.98491 12.6503L10.4681 13.2511C10.5114 13.3105 10.5749 13.3518 10.6464 13.3669C10.7179 13.3821 10.7925 13.3701 10.8558 13.3332L11.1463 13.1635C11.2098 13.1264 11.2576 13.067 11.2805 12.9967C11.3035 12.9263 11.2999 12.8499 11.2706 12.782L11.004 12.0731C10.9923 12.0416 10.9907 12.007 10.9994 11.9745C11.0082 11.9419 11.0268 11.913 11.0528 11.8917C11.1229 11.8335 11.1947 11.7752 11.2663 11.7106C11.291 11.6881 11.3222 11.6742 11.3553 11.6709C11.3885 11.6677 11.4217 11.6752 11.4503 11.6925L12.0962 12.0827C12.1574 12.123 12.2311 12.1393 12.3034 12.1286C12.3757 12.1179 12.4416 12.0809 12.4888 12.0245L12.7022 11.7653C12.7496 11.7089 12.7747 11.6369 12.7727 11.563C12.7707 11.4892 12.7418 11.4186 12.6915 11.3649L12.1994 10.7921C12.1776 10.7663 12.1645 10.7341 12.1622 10.7003C12.1598 10.6665 12.1683 10.6328 12.1864 10.6042C12.2358 10.5253 12.2828 10.442 12.3255 10.3584C12.3415 10.3285 12.3665 10.3045 12.3968 10.2898C12.4272 10.275 12.4614 10.2703 12.4945 10.2763L13.2295 10.4211C13.3008 10.4384 13.3758 10.4287 13.4404 10.3937C13.505 10.3587 13.5546 10.301 13.5797 10.2315L13.6937 9.91462C13.7191 9.84528 13.7185 9.7689 13.692 9.69998C13.6654 9.63106 13.6147 9.57438 13.5494 9.5407L12.8917 9.17173C12.8626 9.1551 12.8395 9.12943 12.826 9.09854C12.8124 9.06765 12.8091 9.03316 12.8164 9.0002L12.8234 8.96322C12.8384 8.88197 12.8522 8.80508 12.8655 8.72325C12.8701 8.68991 12.885 8.65888 12.9081 8.63461C12.9312 8.61034 12.9613 8.59407 12.9941 8.58813L13.7352 8.46756C13.8078 8.45871 13.8748 8.42343 13.9236 8.36832C13.9723 8.31322 13.9995 8.24207 14 8.16819V7.82717ZM5.85241 10.5646C5.81646 10.6277 5.76619 10.6813 5.70574 10.721C5.64529 10.7607 5.57637 10.7853 5.50466 10.7929C5.43294 10.8004 5.36047 10.7907 5.2932 10.7645C5.22593 10.7383 5.16578 10.6963 5.1177 10.6421C4.46783 9.91667 4.10901 8.97283 4.11125 7.99474C4.11349 7.01665 4.47663 6.07449 5.12981 5.35211C5.17815 5.29789 5.23856 5.25604 5.30605 5.23001C5.37355 5.20398 5.44622 5.19451 5.51805 5.20239C5.58988 5.21027 5.65884 5.23526 5.71923 5.27532C5.77961 5.31538 5.82971 5.36935 5.86539 5.43278L7.18221 7.77272C7.22176 7.8425 7.24256 7.92151 7.24256 8.0019C7.24256 8.0823 7.22176 8.16131 7.18221 8.23109L5.85241 10.5646ZM8 11.9386C7.7255 11.9387 7.45176 11.9094 7.18337 11.8512C7.11345 11.8355 7.04819 11.8033 6.99289 11.7573C6.93759 11.7113 6.89379 11.6528 6.86505 11.5866C6.83631 11.5203 6.82344 11.4482 6.82747 11.376C6.83151 11.3037 6.85234 11.2335 6.88827 11.1709L8.21519 8.84119C8.25511 8.77099 8.31266 8.71267 8.38206 8.67212C8.45145 8.63157 8.53021 8.61023 8.61039 8.61026H11.2683C11.3399 8.61015 11.4105 8.62706 11.4744 8.65964C11.5383 8.69221 11.5937 8.73953 11.6361 8.79776C11.6786 8.85598 11.7068 8.92348 11.7186 8.99478C11.7303 9.06607 11.7253 9.13917 11.7038 9.20813C11.1993 10.79 9.73077 11.9386 8 11.9386ZM8.21664 7.16553L6.90385 4.83171C6.86827 4.76904 6.8478 4.69879 6.84409 4.62666C6.84037 4.55452 6.85352 4.48252 6.88248 4.41646C6.91143 4.35041 6.95537 4.29216 7.01075 4.24642C7.06612 4.20068 7.13138 4.16873 7.20125 4.15317C7.4639 4.09729 7.73159 4.06918 8 4.0693C9.73077 4.0693 11.1993 5.21786 11.703 6.80063C11.7244 6.8696 11.7295 6.94269 11.7177 7.01398C11.7059 7.08528 11.6777 7.15278 11.6353 7.211C11.5928 7.26923 11.5374 7.31655 11.4735 7.34912C11.4096 7.3817 11.339 7.39861 11.2674 7.3985H8.61356C8.53288 7.39866 8.45362 7.37717 8.38387 7.33624C8.31413 7.2953 8.25641 7.23639 8.21664 7.16553Z" fill="black"/>
</svg>
