<svg width="16" height="16" viewBox="0 0 16 16" fill="none" xmlns="http://www.w3.org/2000/svg">
<path d="M13.9995 8.95173V9.74984C13.9995 10.002 13.7837 10.2118 13.5242 10.2118H11.1186C10.8591 10.2118 10.6433 10.002 10.6433 9.74984V8.95173C10.6433 8.72795 10.8016 8.5317 11.0323 8.48974V7.59374C11.0323 7.43989 10.8884 7.31357 10.7296 7.31357H10.6289C10.1823 8.0837 9.33231 8.57366 8.39598 8.57366C7.45966 8.57366 6.62407 8.0837 6.17749 7.31357H2.48975C2.21587 7.31357 2 7.10377 2 6.83759V5.29777C2 5.04558 2.21587 4.83578 2.48975 4.83578H6.22066C6.52333 4.34582 6.99869 3.98174 7.546 3.79991V3.22603C7.546 3.18407 7.546 3.1561 7.56039 3.12813H6.24945C5.98996 3.12813 5.7597 2.91833 5.7597 2.66614V1.99391C5.7597 1.72773 5.98996 1.51794 6.24945 1.51794H7.546V1.46199C7.546 1.2098 7.76187 1 8.03575 1H8.7706C9.03009 1 9.26035 1.2098 9.26035 1.46199V1.51794H10.5425C10.8164 1.51794 11.0323 1.72773 11.0323 1.99391V2.66614C11.0323 2.91833 10.8164 3.12813 10.5425 3.12813H9.24596C9.24596 3.1561 9.26035 3.18407 9.26035 3.22603V3.79991C9.79328 3.98174 10.2686 4.34582 10.5713 4.83578H11.5076C12.6603 4.83578 13.5822 5.73179 13.5822 6.82361V8.48974C13.8273 8.51772 14 8.71353 14 8.95173H13.9995ZM13.4954 13.4318C13.4954 13.4038 13.481 13.3758 13.481 13.3618L12.7462 11.1358C12.6886 10.954 12.5011 10.8137 12.2852 10.8137C12.0837 10.8137 11.8962 10.9535 11.8242 11.1358L11.0894 13.3898C11.0894 13.4038 11.0894 13.4038 11.0894 13.4178C11.0462 13.5437 11.0318 13.656 11.0318 13.7819C11.0318 14.4541 11.5935 15 12.2852 15C12.9913 15 13.553 14.4541 13.553 13.7819C13.553 13.67 13.5386 13.5437 13.4954 13.4318Z" fill="black"/>
</svg>
