<svg width="16" height="16" viewBox="0 0 16 16" fill="none" xmlns="http://www.w3.org/2000/svg">
<path d="M9.31273 6.24949V7.1244C9.31273 7.30485 9.16508 7.4525 8.98463 7.4525H7.45353V8.9836C7.45353 9.16405 7.30589 9.31169 7.12544 9.31169H6.25052C6.07007 9.31169 5.92243 9.16405 5.92243 8.9836V7.4525H4.39133C4.21088 7.4525 4.06324 7.30485 4.06324 7.1244V6.24949C4.06324 6.06904 4.21088 5.92139 4.39133 5.92139H5.92243V4.39029C5.92243 4.20984 6.07007 4.0622 6.25052 4.0622H7.12544C7.30589 4.0622 7.45353 4.20984 7.45353 4.39029V5.92139H8.98463C9.16508 5.92139 9.31273 6.06904 9.31273 6.24949ZM14.8083 14.0335L14.0345 14.8072C13.7775 15.0643 13.3619 15.0643 13.1077 14.8072L10.379 12.0813C10.256 11.9583 10.1876 11.7915 10.1876 11.6165V11.1709C9.2225 11.9255 8.00856 12.3739 6.68798 12.3739C3.54649 12.3739 1.00104 9.82843 1.00104 6.68694C1.00104 3.54545 3.54649 1 6.68798 1C9.82947 1 12.3749 3.54545 12.3749 6.68694C12.3749 8.00752 11.9265 9.22146 11.1719 10.1866H11.6176C11.7926 10.1866 11.9593 10.255 12.0824 10.378L14.8083 13.1039C15.0626 13.3609 15.0626 13.7765 14.8083 14.0335ZM10.4064 6.68694C10.4064 4.6309 8.74403 2.96856 6.68798 2.96856C4.63193 2.96856 2.9696 4.6309 2.9696 6.68694C2.9696 8.74299 4.63193 10.4053 6.68798 10.4053C8.74403 10.4053 10.4064 8.74299 10.4064 6.68694Z" fill="black"/>
</svg>
