<svg width="42" height="40" viewBox="0 0 42 40" fill="none" xmlns="http://www.w3.org/2000/svg">
<path d="M9.53216 23.0269C7.394 23.0269 5.34341 23.8669 3.8315 25.3621C2.3196 26.8573 1.47021 28.8853 1.47021 30.9998C1.47021 33.1143 2.3196 35.1423 3.8315 36.6375C5.34341 38.1327 7.394 38.9727 9.53216 38.9727H20.9533V23.0269H9.53216Z" fill="#AABCEB"/>
<path d="M10.5339 19.3998C9.49864 20.4218 8.76468 21.7035 8.41089 23.1072H8.45389C8.81132 23.0567 9.17179 23.0301 9.53284 23.0275H29.937L30.1513 22.8215L18.616 11.4136L10.5339 19.3998Z" fill="#AABCEB"/>
<path d="M32.3744 22.362H31.2881L38.5667 15.1645C39.3899 14.3652 40.0449 13.4125 40.4937 12.3614C40.9425 11.3104 41.1764 10.1818 41.1817 9.04086C41.187 7.89993 40.9636 6.76927 40.5246 5.71417C40.0855 4.65908 39.4395 3.70046 38.6237 2.89369C37.8079 2.08693 36.8386 1.44799 35.7717 1.01379C34.7048 0.579596 33.5615 0.35874 32.4078 0.363983C31.2542 0.369225 30.113 0.600462 29.0502 1.04434C27.9874 1.48821 27.024 2.13593 26.2158 2.95008L10.0583 18.9291C9.0458 19.9319 8.29827 21.1656 7.88156 22.5215C5.75222 22.9318 3.8535 24.1112 2.55511 25.8299C1.25673 27.5486 0.65161 29.6837 0.857593 31.8195C1.06357 33.9552 2.06591 35.9387 3.66943 37.3837C5.27295 38.8287 7.36286 39.6318 9.53224 39.6366H32.3744C34.6908 39.6366 36.9122 38.7266 38.5501 37.1068C40.188 35.487 41.1082 33.2901 41.1082 30.9993C41.1082 28.7086 40.188 26.5117 38.5501 24.8918C36.9122 23.272 34.6908 22.362 32.3744 22.362ZM27.1657 3.89154C28.561 2.56785 30.4251 1.83761 32.3585 1.85745C34.2918 1.87729 36.1403 2.64563 37.5074 3.99766C38.8745 5.34969 39.6515 7.17774 39.6715 9.0897C39.6916 11.0017 38.9532 12.8453 37.6147 14.2251L30.0163 21.7481L19.562 11.4093L27.1657 3.89154ZM11.0103 19.8692L18.612 12.3488L28.7371 22.362H9.53224C9.47245 22.362 9.41467 22.37 9.35488 22.3707C9.72649 21.433 10.2901 20.5813 11.0103 19.8692ZM2.14212 30.9993C2.14444 29.0617 2.92378 27.2041 4.30919 25.834C5.69461 24.4639 7.57297 23.6931 9.53224 23.6909H20.2815V38.3078H9.53224C7.57297 38.3055 5.69461 37.5348 4.30919 36.1647C2.92378 34.7946 2.14444 32.937 2.14212 30.9993ZM32.3744 38.3078H21.6252V23.6909H32.3744C34.3344 23.6909 36.2141 24.4609 37.6 25.8315C38.986 27.2021 39.7645 29.061 39.7645 30.9993C39.7645 32.9377 38.986 34.7966 37.6 36.1672C36.2141 37.5378 34.3344 38.3078 32.3744 38.3078Z" fill="#325DCD"/>
<path d="M8.86887 36.9427C9.23389 36.983 9.53271 36.6816 9.53271 36.3144C9.53271 35.9478 9.23425 35.6552 8.87121 35.6038C7.869 35.462 6.93311 35.0032 6.2089 34.287C5.48822 33.5743 5.02527 32.6542 4.87948 31.6686C4.82523 31.3018 4.52959 30.9999 4.15885 30.9999C3.78751 30.9999 3.48266 31.3021 3.52516 31.671C3.67933 33.0093 4.28677 34.2645 5.25919 35.2262C6.23514 36.1914 7.51011 36.793 8.86887 36.9427Z" fill="#325DCD"/>
<path d="M33.0384 25.0559C32.6733 25.0157 32.3745 25.317 32.3745 25.6843C32.3745 26.0509 32.673 26.3435 33.036 26.3948C34.0382 26.5366 34.9741 26.9955 35.6983 27.7117C36.419 28.4244 36.882 29.3444 37.0277 30.3301C37.082 30.6969 37.3776 30.9988 37.7484 30.9988C38.1197 30.9988 38.4246 30.6965 38.3821 30.3276C38.2279 28.9893 37.6204 27.7341 36.648 26.7724C35.6721 25.8073 34.3971 25.2057 33.0384 25.0559Z" fill="#325DCD"/>
<path d="M28.5946 4.8297C28.308 5.05936 28.3098 5.48373 28.5695 5.7434C28.8287 6.00266 29.2466 5.99849 29.5397 5.77811C30.3486 5.16971 31.3348 4.83237 32.3533 4.82671C33.3669 4.82108 34.3448 5.14429 35.1449 5.73817C35.4426 5.95915 35.8651 5.96359 36.1273 5.70143C36.3899 5.43885 36.3917 5.00957 36.1008 4.77877C35.0455 3.94148 33.7284 3.48343 32.3608 3.49103C30.9882 3.49865 29.6612 3.97479 28.5946 4.8297Z" fill="#325DCD"/>
</svg>
