<svg width="41" height="48" viewBox="0 0 41 48" fill="none" xmlns="http://www.w3.org/2000/svg">
<path d="M39.7083 23.7944V7.3217H39.3087C33.2527 7.32163 27.3321 5.55451 22.2931 2.24302L20.3339 0.955444L18.4045 2.2287C13.3941 5.52801 7.50882 7.29939 1.48339 7.3217H0.959473V23.7944C0.960215 27.9317 2.1295 31.9872 4.33633 35.5064C6.54317 39.0257 9.70041 41.8697 13.4544 43.72L20.3339 47.1108L27.2134 43.72C30.9674 41.8697 34.1246 39.0257 36.3315 35.5064C38.5383 31.9872 39.7076 27.9317 39.7083 23.7944ZM25.0475 39.449L20.3339 41.7727L15.6203 39.449C12.6638 38.0042 10.177 35.7718 8.44186 33.0049C6.70672 30.238 5.79258 27.0473 5.80308 23.7944V11.8219C10.9713 11.1852 15.9331 9.43118 20.3339 6.68508C24.7345 9.43242 29.6962 11.1878 34.8647 11.8258V23.7944C34.8752 27.0473 33.9611 30.238 32.2259 33.0049C30.4908 35.7718 28.004 38.0042 25.0475 39.449Z" fill="#AABCEB"/>
<path d="M28.4067 20.8494H24.3704C24.1563 20.8494 23.951 20.7656 23.7996 20.6163C23.6482 20.4671 23.5631 20.2647 23.5631 20.0536V16.0747C23.5631 15.8637 23.4781 15.6612 23.3267 15.512C23.1753 15.3628 22.97 15.2789 22.7559 15.2789H17.9122C17.6981 15.2789 17.4928 15.3628 17.3414 15.512C17.19 15.6612 17.105 15.8637 17.105 16.0747V20.0536C17.105 20.2647 17.0199 20.4671 16.8685 20.6163C16.7171 20.7656 16.5118 20.8494 16.2977 20.8494H12.2614C12.0473 20.8494 11.8419 20.9332 11.6905 21.0825C11.5392 21.2317 11.4541 21.4341 11.4541 21.6452V26.4199C11.4541 26.6309 11.5392 26.8334 11.6905 26.9826C11.8419 27.1318 12.0473 27.2157 12.2614 27.2157H16.2977C16.5118 27.2157 16.7171 27.2995 16.8685 27.4487C17.0199 27.598 17.105 27.8004 17.105 28.0114V31.9904C17.105 32.2014 17.19 32.4038 17.3414 32.5531C17.4928 32.7023 17.6981 32.7861 17.9122 32.7861H22.7559C22.97 32.7861 23.1753 32.7023 23.3267 32.5531C23.4781 32.4038 23.5631 32.2014 23.5631 31.9904V28.0114C23.5631 27.8004 23.6482 27.598 23.7996 27.4487C23.951 27.2995 24.1563 27.2157 24.3704 27.2157H28.4067C28.6208 27.2157 28.8262 27.1318 28.9776 26.9826C29.1289 26.8334 29.214 26.6309 29.214 26.4199V21.6452C29.214 21.4341 29.1289 21.2317 28.9776 21.0825C28.8262 20.9332 28.6208 20.8494 28.4067 20.8494Z" fill="#AABCEB"/>
<path d="M20.7758 47.7819C20.497 47.9193 20.1703 47.9193 19.8916 47.7819L13.0925 44.4307C9.19529 42.5259 5.91734 39.5829 3.63017 35.9354C1.343 32.2879 0.138077 28.0818 0.151974 23.7937V7.52523C0.151974 6.97295 0.59969 6.52523 1.15197 6.52523H1.47993C7.34765 6.50704 13.0792 4.78094 17.9555 1.56353L19.7844 0.360962C20.1178 0.141758 20.5496 0.141707 20.883 0.360833L22.7409 1.58183C27.6453 4.81054 33.4118 6.53105 39.3093 6.52523H39.5154C40.0677 6.52523 40.5154 6.97295 40.5154 7.52523V23.7937C40.5293 28.0818 39.3243 32.2879 37.0372 35.9354C34.75 39.5829 31.4721 42.5259 27.5749 44.4307L20.7758 47.7819ZM2.75437 8.08972C2.20722 8.11322 1.76651 8.55733 1.76651 9.10498V23.7937C1.75352 27.786 2.87537 31.7021 5.00489 35.098C7.13442 38.4939 10.1864 41.2338 13.815 43.0071L19.8915 46.0025C20.1703 46.1399 20.4971 46.1399 20.7758 46.0025L26.8524 43.0071C30.4809 41.2338 33.5329 38.4939 35.6625 35.098C37.792 31.7021 38.9138 27.786 38.9008 23.7937V9.10488C38.9008 8.55727 38.4602 8.11317 37.9131 8.08962C32.1831 7.84297 26.6241 6.05256 21.8449 2.90442L20.3337 1.90969L18.8523 2.88692C14.0664 6.0464 8.4963 7.84314 2.75437 8.08972Z" fill="#325DCD"/>
<path d="M34.9647 11.0337C29.9131 10.4156 25.0637 8.69976 20.7665 6.00994C20.5023 5.84573 20.1666 5.84529 19.9027 6.00994C15.6044 8.69964 10.7538 10.415 5.70125 11.0321C5.29838 11.0817 4.9957 11.4238 4.9957 11.8297V23.7941C4.98485 27.1949 5.9406 30.5307 7.75464 33.4235C9.56867 36.3162 12.1684 38.6502 15.2593 40.1609L19.8917 42.4442C20.1704 42.5816 20.4972 42.5816 20.7759 42.4442L25.4083 40.1609C28.4991 38.6502 31.0989 36.3162 32.9129 33.4235C34.727 30.5307 35.6827 27.1949 35.6719 23.7941V11.8338C35.6719 11.4269 35.3686 11.0837 34.9647 11.0337ZM34.0573 23.7941C34.0672 26.8991 33.1945 29.9447 31.5383 32.5858C29.8821 35.2269 27.5085 37.3579 24.6866 38.7373L20.7762 40.6647C20.4973 40.8021 20.1703 40.802 19.8915 40.6644L15.981 38.7341C13.1596 37.355 10.7863 35.2245 9.13012 32.584C7.47393 29.9435 6.601 26.8985 6.61023 23.7941V12.5171C11.2754 11.856 15.761 10.2968 19.8123 7.93035C20.1343 7.74223 20.5332 7.74222 20.8553 7.93033C24.9067 10.2968 29.3922 11.8565 34.0573 12.5186V23.7941Z" fill="#325DCD"/>
<path d="M28.4064 20.0536H24.37V16.0747C24.37 15.6526 24.1999 15.2478 23.8972 14.9493C23.5944 14.6508 23.1837 14.4832 22.7555 14.4832H17.9119C17.4837 14.4832 17.073 14.6508 16.7702 14.9493C16.4675 15.2478 16.2974 15.6526 16.2974 16.0747V20.0536H12.261C11.8328 20.0536 11.4222 20.2213 11.1194 20.5198C10.8166 20.8183 10.6465 21.2231 10.6465 21.6452V26.4199C10.6465 26.842 10.8166 27.2468 11.1194 27.5453C11.4222 27.8438 11.8328 28.0115 12.261 28.0115H16.2974V31.9904C16.2974 32.4125 16.4675 32.8173 16.7702 33.1158C17.073 33.4143 17.4837 33.5819 17.9119 33.5819H22.7555C23.1837 33.5819 23.5944 33.4143 23.8972 33.1158C24.1999 32.8173 24.37 32.4125 24.37 31.9904V28.0115H28.4064C28.8346 28.0115 29.2453 27.8438 29.548 27.5453C29.8508 27.2468 30.0209 26.842 30.0209 26.4199V21.6452C30.0209 21.2231 29.8508 20.8183 29.548 20.5198C29.2453 20.2213 28.8346 20.0536 28.4064 20.0536ZM28.4064 26.4199H24.37C23.9418 26.4199 23.5312 26.5876 23.2284 26.886C22.9256 27.1845 22.7555 27.5893 22.7555 28.0115V31.9904H17.9119V28.0115C17.9119 27.5893 17.7418 27.1845 17.439 26.886C17.1362 26.5876 16.7256 26.4199 16.2974 26.4199H12.261V21.6452H16.2974C16.7256 21.6452 17.1362 21.4775 17.439 21.179C17.7418 20.8806 17.9119 20.4757 17.9119 20.0536V16.0747H22.7555V20.0536C22.7555 20.4757 22.9256 20.8806 23.2284 21.179C23.5312 21.4775 23.9418 21.6452 24.37 21.6452H28.4064V26.4199Z" fill="#325DCD"/>
</svg>
