<svg width="40" height="40" viewBox="0 0 40 40" fill="none" xmlns="http://www.w3.org/2000/svg">
<path d="M35.8995 19.9846C36.268 19.9856 36.632 20.0662 36.9666 20.2209C37.3011 20.3757 37.5983 20.6008 37.8377 20.881C38.0772 21.1612 38.2533 21.4898 38.3541 21.8443C38.4548 22.1989 38.4778 22.571 38.4214 22.9352C37.8469 26.6048 36.2083 30.0252 33.7088 32.7726C31.2093 35.52 27.9587 37.4738 24.3596 38.3918C20.7606 39.3098 16.9713 39.1517 13.4612 37.9371C9.95113 36.7225 6.87451 34.5048 4.61253 31.5588V35.054C4.61253 35.5748 4.40565 36.0742 4.0374 36.4425C3.66915 36.8107 3.1697 37.0176 2.64892 37.0176C2.12813 37.0176 1.62868 36.8107 1.26043 36.4425C0.892183 36.0742 0.685303 35.5748 0.685303 35.054V23.9268H11.8125C12.3332 23.9268 12.8327 24.1337 13.2009 24.502C13.5692 24.8702 13.7761 25.3697 13.7761 25.8905C13.7761 26.4112 13.5692 26.9107 13.2009 27.2789C12.8327 27.6472 12.3332 27.8541 11.8125 27.8541H8.39577C10.0144 30.1796 12.3111 31.9492 14.9724 32.9215C17.6338 33.8937 20.5303 34.0213 23.2669 33.2867C25.828 32.6275 28.1386 31.2295 29.911 29.2666C31.6833 27.3037 32.839 24.8629 33.2342 22.248C33.3243 21.6217 33.6363 21.0486 34.1135 20.6332C34.5907 20.2177 35.2013 19.9875 35.834 19.9846H35.8995Z" fill="#AABCEB"/>
<path d="M36.6852 2.98251C36.1645 2.98251 35.665 3.18939 35.2968 3.55764C34.9285 3.92589 34.7216 4.42535 34.7216 4.94613V8.44136C32.4647 5.5011 29.3963 3.28595 25.8951 2.06927C22.3939 0.852583 18.6131 0.687604 15.0192 1.59469C11.4253 2.50177 8.17564 4.44123 5.67119 7.17372C3.16674 9.90622 1.51711 13.3122 0.925857 16.9713C0.874283 17.3113 0.890182 17.6581 0.972646 17.992C1.05511 18.3258 1.20252 18.6402 1.40647 18.9171C1.61041 19.1939 1.8669 19.4279 2.16128 19.6057C2.45566 19.7834 2.78216 19.9015 3.12216 19.9531C3.46216 20.0046 3.80898 19.9887 4.14283 19.9063C4.47668 19.8238 4.79102 19.6764 5.0679 19.4724C5.34479 19.2685 5.57878 19.012 5.75654 18.7176C5.9343 18.4233 6.05234 18.0968 6.10391 17.7568C6.54914 15.0595 7.78881 12.5565 9.66437 10.5676C11.5399 8.57882 13.9661 7.19469 16.6326 6.59226C19.2991 5.98983 22.0847 6.19651 24.6331 7.18585C27.1815 8.17519 29.3769 9.90222 30.9384 12.1461H27.5217C27.0009 12.1461 26.5015 12.3529 26.1332 12.7212C25.765 13.0894 25.5581 13.5889 25.5581 14.1097C25.5581 14.6304 25.765 15.1299 26.1332 15.4982C26.5015 15.8664 27.0009 16.0733 27.5217 16.0733H38.6489V4.94613C38.6489 4.42535 38.442 3.92589 38.0737 3.55764C37.7055 3.18939 37.206 2.98251 36.6852 2.98251Z" fill="#AABCEB"/>
<path d="M19.6672 39.6364C16.9621 39.6472 14.2844 39.094 11.805 38.0121C9.32569 36.9303 7.09909 35.3434 5.26731 33.3529V35.0547C5.26731 35.749 4.99147 36.415 4.50047 36.906C4.00947 37.397 3.34354 37.6728 2.64916 37.6728C1.95478 37.6728 1.28884 37.397 0.797845 36.906C0.306846 36.415 0.0310059 35.749 0.0310059 35.0547V23.9275C0.0310059 23.7539 0.0999659 23.5874 0.222716 23.4647C0.345465 23.3419 0.51195 23.273 0.685544 23.273H11.8127C12.5071 23.273 13.173 23.5488 13.664 24.0398C14.155 24.5308 14.4308 25.1967 14.4308 25.8911C14.4308 26.5855 14.155 27.2514 13.664 27.7424C13.173 28.2334 12.5071 28.5093 11.8127 28.5093H9.72537C11.3401 30.3895 13.4526 31.7759 15.8201 32.5092C18.1876 33.2425 20.7139 33.2928 23.1087 32.6545C25.5431 32.0211 27.7385 30.6881 29.4233 28.8203C31.1081 26.9525 32.2085 24.6318 32.5884 22.1452C32.7012 21.3667 33.0896 20.6545 33.6829 20.138C34.2763 19.6216 35.0352 19.3351 35.8218 19.3307H35.9049C36.3676 19.3322 36.8246 19.4336 37.2445 19.628C37.6644 19.8224 38.0373 20.1052 38.3379 20.457C38.6384 20.8088 38.8595 21.2214 38.9859 21.6665C39.1123 22.1116 39.1411 22.5788 39.0703 23.036C38.3686 27.6719 36.0219 31.9004 32.4592 34.9485C28.8965 37.9966 24.3558 39.6606 19.6672 39.6364ZM4.61277 30.9049C4.71317 30.905 4.81221 30.9282 4.90221 30.9727C4.99222 31.0171 5.07078 31.0817 5.13182 31.1615C7.3157 34.0064 10.2863 36.1481 13.6756 37.321C17.0649 38.494 20.7238 38.6468 24.1991 37.7604C27.6743 36.874 30.8131 34.9874 33.2265 32.3343C35.6399 29.6813 37.2218 26.3785 37.7763 22.8351C37.8182 22.5639 37.8011 22.2869 37.726 22.0229C37.651 21.759 37.5197 21.5144 37.3413 21.3059C37.1629 21.0974 36.9415 20.9299 36.6924 20.8149C36.4432 20.7 36.1722 20.6402 35.8977 20.6398H35.8218C35.3469 20.6456 34.8898 20.8216 34.5335 21.1358C34.1773 21.45 33.9456 21.8815 33.8805 22.352C33.4606 25.0911 32.2469 27.647 30.3897 29.7035C28.5324 31.7601 26.113 33.227 23.4308 33.923C20.5644 34.6882 17.532 34.5522 14.7457 33.5334C11.9594 32.5145 9.55449 30.6623 7.85798 28.2285C7.78967 28.1303 7.74958 28.0152 7.74207 27.8958C7.73456 27.7764 7.75991 27.6573 7.81537 27.5513C7.87083 27.4453 7.95428 27.3565 8.05664 27.2946C8.15901 27.2327 8.27638 27.2001 8.39601 27.2002H11.8127C12.1599 27.2002 12.4929 27.0623 12.7384 26.8168C12.9839 26.5713 13.1218 26.2383 13.1218 25.8911C13.1218 25.5439 12.9839 25.211 12.7384 24.9655C12.4929 24.72 12.1599 24.582 11.8127 24.582H1.34008V35.0547C1.34008 35.4018 1.478 35.7348 1.7235 35.9803C1.969 36.2258 2.30197 36.3637 2.64916 36.3637C2.99635 36.3637 3.32932 36.2258 3.57482 35.9803C3.82032 35.7348 3.95824 35.4018 3.95824 35.0547V31.5594C3.95824 31.3858 4.0272 31.2193 4.14995 31.0966C4.2727 30.9738 4.43918 30.9049 4.61277 30.9049Z" fill="#325DCD"/>
<path d="M3.51591 20.6543C3.04222 20.655 2.57404 20.5529 2.14369 20.3549C1.71334 20.157 1.33109 19.868 1.02334 19.5079C0.71559 19.1478 0.489674 18.7252 0.361199 18.2693C0.232724 17.8134 0.204753 17.335 0.279216 16.8672C0.866777 13.2352 2.46272 9.84127 4.88521 7.07213C7.3077 4.30299 10.4593 2.26998 13.9809 1.20476C17.5026 0.139537 21.2526 0.0849343 24.8038 1.04717C28.3549 2.00941 31.5644 3.94979 34.0665 6.64723V4.94543C34.0665 4.25106 34.3423 3.58512 34.8333 3.09412C35.3243 2.60312 35.9903 2.32728 36.6846 2.32728C37.379 2.32728 38.0449 2.60312 38.5359 3.09412C39.0269 3.58512 39.3028 4.25106 39.3028 4.94543V16.0726C39.3028 16.2462 39.2338 16.4127 39.1111 16.5354C38.9883 16.6582 38.8218 16.7271 38.6483 16.7271H27.5211C26.8267 16.7271 26.1608 16.4513 25.6698 15.9603C25.1788 15.4693 24.9029 14.8033 24.9029 14.109C24.9029 13.4146 25.1788 12.7487 25.6698 12.2577C26.1608 11.7667 26.8267 11.4908 27.5211 11.4908H29.6078C27.9877 9.59613 25.8602 8.20357 23.4756 7.47697C21.091 6.75038 18.5484 6.71998 16.1471 7.38936C13.7458 8.05874 11.5857 9.40005 9.92078 11.2555C8.25591 13.1109 7.1556 15.4032 6.74933 17.8627C6.63129 18.637 6.2407 19.3436 5.6479 19.8554C5.05511 20.3672 4.29906 20.6505 3.51591 20.6543ZM19.6666 1.67274C15.3076 1.65353 11.0858 3.19636 7.76626 6.02168C4.44672 8.847 2.24899 12.7679 1.57127 17.074C1.52742 17.3547 1.54488 17.6416 1.62245 17.9149C1.70003 18.1883 1.83588 18.4415 2.02067 18.6574C2.20545 18.8732 2.43479 19.0464 2.6929 19.1652C2.95102 19.2839 3.23179 19.3454 3.51591 19.3453C3.98824 19.3405 4.44334 19.1672 4.79926 18.8566C5.15518 18.5461 5.38852 18.1187 5.45727 17.6513C5.92354 14.8254 7.22217 12.2029 9.18706 10.1191C11.152 8.03527 13.6938 6.58496 16.4874 5.95364C19.2811 5.32233 22.1996 5.53871 24.8696 6.57511C27.5396 7.61152 29.8397 9.42082 31.4758 11.7716C31.5441 11.8698 31.5842 11.9849 31.5917 12.1043C31.5992 12.2236 31.5739 12.3428 31.5184 12.4488C31.463 12.5548 31.3795 12.6436 31.2772 12.7055C31.1748 12.7674 31.0574 12.8 30.9378 12.7999H27.5211C27.1739 12.7999 26.8409 12.9378 26.5954 13.1833C26.3499 13.4288 26.212 13.7618 26.212 14.109C26.212 14.4562 26.3499 14.7891 26.5954 15.0346C26.8409 15.2801 27.1739 15.418 27.5211 15.418H37.9937V4.94543C37.9937 4.59824 37.8558 4.26528 37.6103 4.01978C37.3648 3.77428 37.0318 3.63636 36.6846 3.63636C36.3374 3.63636 36.0045 3.77428 35.759 4.01978C35.5135 4.26528 35.3756 4.59824 35.3756 4.94543V8.44067C35.3754 8.57733 35.3325 8.71051 35.2528 8.82153C35.1731 8.93255 35.0606 9.01585 34.9312 9.05974C34.8018 9.10362 34.6619 9.1059 34.5311 9.06625C34.4003 9.02659 34.2852 8.947 34.202 8.83862C32.4982 6.6016 30.2989 4.79021 27.7768 3.54682C25.2547 2.30343 22.4786 1.66193 19.6666 1.67274Z" fill="#325DCD"/>
</svg>
