<svg width="44" height="32" viewBox="0 0 44 32" fill="none" xmlns="http://www.w3.org/2000/svg">
<path d="M3.66673 26.6694H7.3334C7.3334 25.4569 7.79697 24.294 8.62213 23.4366C9.44729 22.5792 10.5664 22.0975 11.7334 22.0975C12.9004 22.0975 14.0195 22.5792 14.8447 23.4366C15.6698 24.294 16.1334 25.4569 16.1334 26.6694H27.1334V3.8099C27.1334 3.00153 26.8244 2.22628 26.2742 1.65468C25.7241 1.08308 24.978 0.761963 24.2001 0.761963H3.66673C2.88876 0.761963 2.14266 1.08308 1.59255 1.65468C1.04245 2.22628 0.733398 3.00153 0.733398 3.8099V23.6215C0.733398 24.4298 1.04245 25.2051 1.59255 25.7767C2.14266 26.3483 2.88876 26.6694 3.66673 26.6694Z" fill="#AABCEB"/>
<path d="M27.1333 26.6698H30.8C30.8 25.4572 31.2635 24.2943 32.0887 23.4369C32.9139 22.5795 34.033 22.0979 35.2 22.0979C36.3669 22.0979 37.4861 22.5795 38.3112 23.4369C39.1364 24.2943 39.6 25.4572 39.6 26.6698H41.8C42.189 26.6698 42.562 26.5092 42.8371 26.2234C43.1121 25.9376 43.2666 25.55 43.2666 25.1458V19.8119C43.2666 19.0035 42.9576 18.2283 42.4075 17.6567C41.8574 17.0851 41.1113 16.764 40.3333 16.764H27.1333V26.6698Z" fill="#AABCEB"/>
<path d="M11.7333 28.194C12.5433 28.194 13.1999 27.5117 13.1999 26.67C13.1999 25.8284 12.5433 25.1461 11.7333 25.1461C10.9233 25.1461 10.2666 25.8284 10.2666 26.67C10.2666 27.5117 10.9233 28.194 11.7333 28.194Z" fill="#AABCEB"/>
<path d="M35.2001 28.194C36.0101 28.194 36.6667 27.5117 36.6667 26.67C36.6667 25.8284 36.0101 25.1461 35.2001 25.1461C34.39 25.1461 33.7334 25.8284 33.7334 26.67C33.7334 27.5117 34.39 28.194 35.2001 28.194Z" fill="#AABCEB"/>
<path d="M10.2667 -0.00012207H3.66667C2.69458 0.00113815 1.76265 0.402944 1.07528 1.11717C0.387911 1.83139 0.00121284 2.79973 0 3.80979V23.6214C0.00121284 24.6314 0.387911 25.5998 1.07528 26.314C1.76265 27.0282 2.69458 27.43 3.66667 27.4313H6.65867C6.83429 28.6996 7.44403 29.8597 8.37609 30.6989C9.30816 31.538 10.5001 31.9999 11.7333 31.9999C12.9666 31.9999 14.1585 31.538 15.0906 30.6989C16.0226 29.8597 16.6324 28.6996 16.808 27.4313H30.1253C30.301 28.6996 30.9107 29.8597 31.8428 30.6989C32.7748 31.538 33.9668 31.9999 35.2 31.9999C36.4333 31.9999 37.6252 31.538 38.5572 30.6989C39.4893 29.8597 40.099 28.6996 40.2747 27.4313H41.8C42.3835 27.4313 42.9431 27.1904 43.3556 26.7617C43.7682 26.333 44 25.7516 44 25.1453V19.8114C43.9988 18.8014 43.6121 17.833 42.9247 17.1188C42.2373 16.4046 41.3054 16.0028 40.3333 16.0015H40.0968L36.619 6.96726C36.3488 6.2588 35.8795 5.65135 35.2722 5.22406C34.665 4.79677 33.9479 4.56947 33.2145 4.57178H27.8667V3.80979C27.8655 2.79973 27.4788 1.83139 26.7914 1.11717C26.104 0.402944 25.1721 0.00113815 24.2 -0.00012207H10.2667ZM33.2145 6.09574C33.6545 6.09428 34.0847 6.23063 34.4491 6.48702C34.8134 6.74341 35.0949 7.10793 35.2568 7.53304L38.5165 16.0015H27.8667V6.09574H33.2145ZM11.7333 30.4792C11.0081 30.4792 10.2992 30.2558 9.69624 29.8371C9.09326 29.4185 8.6233 28.8235 8.34577 28.1273C8.06825 27.4311 7.99564 26.6651 8.13712 25.926C8.2786 25.187 8.62782 24.5081 9.14061 23.9753C9.6534 23.4424 10.3067 23.0796 11.018 22.9326C11.7293 22.7856 12.4665 22.861 13.1365 23.1494C13.8065 23.4378 14.3792 23.9261 14.7821 24.5526C15.185 25.1792 15.4 25.9158 15.4 26.6693C15.4 27.1696 15.3052 27.665 15.1209 28.1273C14.9366 28.5895 14.6665 29.0095 14.3261 29.3633C13.9856 29.7171 13.5814 29.9977 13.1365 30.1892C12.6916 30.3807 12.2148 30.4792 11.7333 30.4792ZM26.4 25.9073H16.808C16.6324 24.6389 16.0226 23.4788 15.0906 22.6397C14.1585 21.8006 12.9666 21.3387 11.7333 21.3387C10.5001 21.3387 9.30816 21.8006 8.37609 22.6397C7.44403 23.4788 6.83429 24.6389 6.65867 25.9073H3.66667C3.08319 25.9073 2.52361 25.6665 2.11103 25.2378C1.69845 24.8091 1.46667 24.2276 1.46667 23.6214V3.80979C1.46667 3.20352 1.69845 2.62208 2.11103 2.19338C2.52361 1.76468 3.08319 1.52384 3.66667 1.52384H24.2C24.7835 1.52384 25.3431 1.76468 25.7556 2.19338C26.1682 2.62208 26.4 3.20352 26.4 3.80979V25.9073ZM35.2 30.4792C34.4748 30.4792 33.7659 30.2558 33.1629 29.8371C32.5599 29.4185 32.09 28.8235 31.8124 28.1273C31.5349 27.4311 31.4623 26.6651 31.6038 25.926C31.7453 25.187 32.0945 24.5081 32.6073 23.9753C33.1201 23.4424 33.7734 23.0796 34.4847 22.9326C35.1959 22.7856 35.9332 22.861 36.6032 23.1494C37.2732 23.4378 37.8458 23.9261 38.2487 24.5526C38.6516 25.1792 38.8667 25.9158 38.8667 26.6693C38.8667 27.6797 38.4804 28.6488 37.7927 29.3633C37.1051 30.0778 36.1725 30.4792 35.2 30.4792ZM42.5333 25.1453C42.5333 25.3474 42.4561 25.5412 42.3185 25.6841C42.181 25.827 41.9945 25.9073 41.8 25.9073H40.2747C40.099 24.6389 39.4893 23.4788 38.5572 22.6397C37.6252 21.8006 36.4333 21.3387 35.2 21.3387C33.9668 21.3387 32.7748 21.8006 31.8428 22.6397C30.9107 23.4788 30.301 24.6389 30.1253 25.9073H27.8667V17.5255H40.3333C40.9168 17.5255 41.4764 17.7663 41.889 18.195C42.3015 18.6237 42.5333 19.2052 42.5333 19.8114V25.1453Z" fill="#325DCD"/>
<path d="M11.7332 24.3829C11.2981 24.3829 10.8727 24.517 10.5109 24.7682C10.1492 25.0194 9.86718 25.3764 9.70067 25.7941C9.53416 26.2118 9.49059 26.6714 9.57548 27.1149C9.66036 27.5583 9.86989 27.9656 10.1776 28.2853C10.4852 28.605 10.8772 28.8227 11.304 28.9109C11.7308 28.9991 12.1731 28.9539 12.5751 28.7808C12.9771 28.6078 13.3207 28.3148 13.5624 27.9389C13.8042 27.563 13.9332 27.121 13.9332 26.6689C13.9332 26.0626 13.7014 25.4812 13.2888 25.0525C12.8763 24.6238 12.3167 24.3829 11.7332 24.3829ZM11.7332 27.4309C11.5882 27.4309 11.4464 27.3862 11.3258 27.3025C11.2052 27.2187 11.1112 27.0997 11.0557 26.9605C11.0002 26.8213 10.9857 26.668 11.014 26.5202C11.0423 26.3724 11.1121 26.2366 11.2147 26.1301C11.3172 26.0235 11.4479 25.9509 11.5901 25.9215C11.7324 25.8921 11.8798 25.9072 12.0138 25.9649C12.1478 26.0226 12.2624 26.1202 12.3429 26.2456C12.4235 26.3709 12.4665 26.5182 12.4665 26.6689C12.4665 26.871 12.3893 27.0648 12.2517 27.2077C12.1142 27.3506 11.9277 27.4309 11.7332 27.4309Z" fill="#325DCD"/>
<path d="M35.2 24.3829C34.7649 24.3829 34.3395 24.517 33.9777 24.7682C33.616 25.0194 33.334 25.3764 33.1675 25.7941C33.001 26.2118 32.9574 26.6714 33.0423 27.1149C33.1272 27.5583 33.3367 27.9656 33.6444 28.2853C33.952 28.605 34.344 28.8227 34.7708 28.9109C35.1976 28.9991 35.6399 28.9539 36.0419 28.7808C36.4439 28.6078 36.7875 28.3148 37.0292 27.9389C37.271 27.563 37.4 27.121 37.4 26.6689C37.4 26.0626 37.1682 25.4812 36.7556 25.0525C36.3431 24.6238 35.7835 24.3829 35.2 24.3829ZM35.2 27.4309C35.055 27.4309 34.9132 27.3862 34.7926 27.3025C34.672 27.2187 34.578 27.0997 34.5225 26.9605C34.467 26.8213 34.4525 26.668 34.4808 26.5202C34.5091 26.3724 34.5789 26.2366 34.6815 26.1301C34.784 26.0235 34.9147 25.9509 35.0569 25.9215C35.1992 25.8921 35.3466 25.9072 35.4806 25.9649C35.6146 26.0226 35.7292 26.1202 35.8098 26.2456C35.8903 26.3709 35.9333 26.5182 35.9333 26.6689C35.9333 26.871 35.8561 27.0648 35.7186 27.2077C35.581 27.3506 35.3945 27.4309 35.2 27.4309Z" fill="#325DCD"/>
<path d="M29.3169 10.6361C29.0803 10.3084 29.1455 9.85227 29.4643 9.60383L31.2116 8.24212C31.5474 7.98041 32.0334 8.04978 32.2826 8.39501C32.5191 8.72273 32.454 9.17886 32.1352 9.4273L30.3879 10.789C30.052 11.0507 29.5661 10.9813 29.3169 10.6361Z" fill="#325DCD"/>
<path d="M29.3169 13.6851C29.0803 13.3574 29.1455 12.9013 29.4643 12.6528L34.1449 9.00518C34.4808 8.74347 34.9667 8.81284 35.2159 9.15807C35.4525 9.48579 35.3873 9.94192 35.0685 10.1904L30.3879 13.838C30.052 14.0997 29.5661 14.0304 29.3169 13.6851Z" fill="#325DCD"/>
</svg>
