<?xml version="1.0" encoding="UTF-8" standalone="no"?> <svg xmlns="http://www.w3.org/2000/svg" viewBox="0 0 64 44.44"><defs><style>.cls-1{fill:#35353d;}</style></defs><title>Asset 64</title><g id="Layer_2" data-name="Layer 2"><g id="Layer_1-2" data-name="Layer 1"><path class="cls-1" d="M50.72,10.28a22.19,22.19,0,0,0-39.8,5,14.86,14.86,0,0,0,4,29.19H46.67a17.32,17.32,0,0,0,4-34.16ZM29.33,39.11H14.89a9.52,9.52,0,0,1-1.46-18.94l1.76-.27.43-1.73A16.86,16.86,0,0,1,46.71,14l.63,1.12,1.27.21A11.91,11.91,0,0,1,58.67,27.11a12.1,12.1,0,0,1-1,4.8,12,12,0,0,1-11,7.2h-12V26.86l3,3a2.67,2.67,0,0,0,3.77,0,2.68,2.68,0,0,0,0-3.78l-7.54-7.54a2.76,2.76,0,0,0-3.78,0l-7.54,7.54a2.67,2.67,0,1,0,3.77,3.78l3-3V39.11"/></g></g></svg>