<svg width="48" height="43" viewBox="0 0 48 43" fill="none" xmlns="http://www.w3.org/2000/svg">
<path d="M46.996 21.7167C46.8875 22.1881 46.7911 22.6635 46.6665 23.1322C45.5978 27.18 41.9095 30.4769 37.6655 30.8471C35.0848 31.0721 32.4679 30.8884 29.7653 30.8884C29.7653 30.7566 29.7653 30.5249 29.7653 30.2918C29.764 27.3252 29.7841 24.3585 29.7559 21.3932C29.7332 19.0577 28.2533 16.9911 26.0851 16.1655C23.878 15.3253 21.3884 15.9032 19.7906 17.6449C18.7715 18.7554 18.28 20.0763 18.28 21.5783C18.2786 24.4557 18.28 27.3345 18.28 30.212C18.28 30.4516 18.28 30.6913 18.28 30.927C13.1346 31.3518 8.21961 31.0468 4.42822 27.0016C1.08012 23.4304 0.17345 19.2121 1.75643 14.6343C3.33808 10.0604 6.6835 7.30682 11.49 6.46662C12.5534 6.2802 13.2779 5.92068 14.0051 5.09779C20.8085 -2.5985 33.2621 -0.148472 36.6758 9.52782C36.8124 9.91397 36.9718 10.0897 37.3976 10.1363C42.4519 10.6809 46.0143 14.0537 46.8929 19.0949C46.9076 19.1762 46.9638 19.2494 47 19.3266C46.996 20.1229 46.996 20.9191 46.996 21.7167Z" fill="#AABCEB" stroke="#325DCD"/>
<path d="M25.9258 34.8354C27.2462 34.8354 28.4663 34.8368 29.6863 34.8341C30.1403 34.8328 30.6104 34.8168 30.8086 35.3387C31.0015 35.8447 30.676 36.163 30.3493 36.4865C28.5185 38.2974 26.6958 40.1163 24.8691 41.9312C24.1593 42.6356 23.8848 42.6303 23.1575 41.9086C21.3469 40.1097 19.5389 38.3068 17.7242 36.5105C17.3841 36.1736 17.0198 35.8474 17.2448 35.3134C17.4751 34.7675 17.9867 34.8368 18.4515 34.8368C19.6461 34.8354 20.842 34.8368 22.1183 34.8368C22.1183 34.4959 22.1183 34.2376 22.1183 33.9792C22.1183 29.9726 22.1156 25.966 22.1223 21.9581C22.1223 21.6066 22.125 21.2404 22.2214 20.9088C22.4692 20.054 23.3558 19.5054 24.2343 19.6093C25.1302 19.7145 25.8374 20.4215 25.9016 21.323C25.9391 21.8516 25.9231 22.3842 25.9244 22.9155C25.9258 26.6118 25.9258 30.3095 25.9258 34.0059C25.9258 34.2442 25.9258 34.4852 25.9258 34.8354Z" fill="#AABCEB" stroke="#325DCD"/>
</svg>
