<svg width="48" height="49" viewBox="0 0 48 49" fill="none" xmlns="http://www.w3.org/2000/svg">
<path d="M5.66673 35.1696H9.3334C9.3334 33.9571 9.79697 32.7942 10.6221 31.9368C11.4473 31.0794 12.5664 30.5977 13.7334 30.5977C14.9004 30.5977 16.0195 31.0794 16.8447 31.9368C17.6698 32.7942 18.1334 33.9571 18.1334 35.1696H29.1334V12.3101C29.1334 11.5018 28.8244 10.7265 28.2742 10.1549C27.7241 9.58333 26.978 9.26221 26.2001 9.26221H5.66673C4.88876 9.26221 4.14266 9.58333 3.59255 10.1549C3.04245 10.7265 2.7334 11.5018 2.7334 12.3101V32.1217C2.7334 32.9301 3.04245 33.7053 3.59255 34.2769C4.14266 34.8485 4.88876 35.1696 5.66673 35.1696Z" fill="#AABCEB"/>
<path d="M29.1333 35.1699H32.8C32.8 33.9574 33.2635 32.7945 34.0887 31.9371C34.9139 31.0797 36.033 30.598 37.2 30.598C38.3669 30.598 39.4861 31.0797 40.3112 31.9371C41.1364 32.7945 41.6 33.9574 41.6 35.1699H43.8C44.189 35.1699 44.562 35.0094 44.8371 34.7236C45.1121 34.4378 45.2666 34.0502 45.2666 33.646V28.3121C45.2666 27.5037 44.9576 26.7285 44.4075 26.1569C43.8574 25.5853 43.1113 25.2642 42.3333 25.2642H29.1333V35.1699Z" fill="#AABCEB"/>
<path d="M13.7333 36.6939C14.5433 36.6939 15.1999 36.0116 15.1999 35.17C15.1999 34.3283 14.5433 33.646 13.7333 33.646C12.9233 33.646 12.2666 34.3283 12.2666 35.17C12.2666 36.0116 12.9233 36.6939 13.7333 36.6939Z" fill="#AABCEB"/>
<path d="M37.2001 36.6939C38.0101 36.6939 38.6667 36.0116 38.6667 35.17C38.6667 34.3283 38.0101 33.646 37.2001 33.646C36.39 33.646 35.7334 34.3283 35.7334 35.17C35.7334 36.0116 36.39 36.6939 37.2001 36.6939Z" fill="#AABCEB"/>
<path d="M12.2667 8.5H5.66667C4.69458 8.50126 3.76265 8.90307 3.07528 9.61729C2.38791 10.3315 2.00121 11.2999 2 12.3099V32.1215C2.00121 33.1315 2.38791 34.0999 3.07528 34.8141C3.76265 35.5283 4.69458 35.9301 5.66667 35.9314H8.65867C8.83429 37.1998 9.44403 38.3599 10.3761 39.199C11.3082 40.0381 12.5001 40.5 13.7333 40.5C14.9666 40.5 16.1585 40.0381 17.0906 39.199C18.0226 38.3599 18.6324 37.1998 18.808 35.9314H32.1253C32.301 37.1998 32.9107 38.3599 33.8428 39.199C34.7748 40.0381 35.9668 40.5 37.2 40.5C38.4333 40.5 39.6252 40.0381 40.5572 39.199C41.4893 38.3599 42.099 37.1998 42.2747 35.9314H43.8C44.3835 35.9314 44.9431 35.6906 45.3556 35.2619C45.7682 34.8332 46 34.2517 46 33.6455V28.3116C45.9988 27.3015 45.6121 26.3332 44.9247 25.6189C44.2373 24.9047 43.3054 24.5029 42.3333 24.5016H42.0968L38.619 15.4674C38.3488 14.7589 37.8795 14.1515 37.2722 13.7242C36.665 13.2969 35.9479 13.0696 35.2145 13.0719H29.8667V12.3099C29.8655 11.2999 29.4788 10.3315 28.7914 9.61729C28.104 8.90307 27.1721 8.50126 26.2 8.5H12.2667ZM35.2145 14.5959C35.6545 14.5944 36.0847 14.7308 36.4491 14.9871C36.8134 15.2435 37.0949 15.6081 37.2568 16.0332L40.5165 24.5016H29.8667V14.5959H35.2145ZM13.7333 38.9793C13.0081 38.9793 12.2992 38.7559 11.6962 38.3372C11.0933 37.9186 10.6233 37.3236 10.3458 36.6274C10.0683 35.9312 9.99564 35.1652 10.1371 34.4261C10.2786 33.6871 10.6278 33.0082 11.1406 32.4754C11.6534 31.9426 12.3067 31.5797 13.018 31.4327C13.7293 31.2857 14.4665 31.3612 15.1365 31.6495C15.8065 31.9379 16.3792 32.4262 16.7821 33.0527C17.185 33.6793 17.4 34.4159 17.4 35.1694C17.4 35.6697 17.3052 36.1652 17.1209 36.6274C16.9366 37.0896 16.6665 37.5097 16.3261 37.8634C15.9856 38.2172 15.5814 38.4979 15.1365 38.6893C14.6916 38.8808 14.2148 38.9793 13.7333 38.9793ZM28.4 34.4074H18.808C18.6324 33.1391 18.0226 31.979 17.0906 31.1398C16.1585 30.3007 14.9666 29.8388 13.7333 29.8388C12.5001 29.8388 11.3082 30.3007 10.3761 31.1398C9.44403 31.979 8.83429 33.1391 8.65867 34.4074H5.66667C5.08319 34.4074 4.52361 34.1666 4.11103 33.7379C3.69845 33.3092 3.46667 32.7278 3.46667 32.1215V12.3099C3.46667 11.7036 3.69845 11.1222 4.11103 10.6935C4.52361 10.2648 5.08319 10.024 5.66667 10.024H26.2C26.7835 10.024 27.3431 10.2648 27.7556 10.6935C28.1682 11.1222 28.4 11.7036 28.4 12.3099V34.4074ZM37.2 38.9793C36.4748 38.9793 35.7659 38.7559 35.1629 38.3372C34.5599 37.9186 34.09 37.3236 33.8124 36.6274C33.5349 35.9312 33.4623 35.1652 33.6038 34.4261C33.7453 33.6871 34.0945 33.0082 34.6073 32.4754C35.1201 31.9426 35.7734 31.5797 36.4847 31.4327C37.1959 31.2857 37.9332 31.3612 38.6032 31.6495C39.2732 31.9379 39.8458 32.4262 40.2487 33.0527C40.6516 33.6793 40.8667 34.4159 40.8667 35.1694C40.8667 36.1799 40.4804 37.1489 39.7927 37.8634C39.1051 38.5779 38.1725 38.9793 37.2 38.9793ZM44.5333 33.6455C44.5333 33.8475 44.4561 34.0414 44.3185 34.1843C44.181 34.3272 43.9945 34.4074 43.8 34.4074H42.2747C42.099 33.1391 41.4893 31.979 40.5572 31.1398C39.6252 30.3007 38.4333 29.8388 37.2 29.8388C35.9668 29.8388 34.7748 30.3007 33.8428 31.1398C32.9107 31.979 32.301 33.1391 32.1253 34.4074H29.8667V26.0256H42.3333C42.9168 26.0256 43.4764 26.2665 43.889 26.6952C44.3015 27.1239 44.5333 27.7053 44.5333 28.3116V33.6455Z" fill="#325DCD"/>
<path d="M13.7332 32.8833C13.2981 32.8833 12.8727 33.0174 12.5109 33.2686C12.1492 33.5197 11.8672 33.8768 11.7007 34.2945C11.5342 34.7122 11.4906 35.1718 11.5755 35.6152C11.6604 36.0587 11.8699 36.466 12.1776 36.7857C12.4852 37.1054 12.8772 37.3231 13.304 37.4113C13.7308 37.4995 14.1731 37.4542 14.5751 37.2812C14.9771 37.1082 15.3207 36.8152 15.5624 36.4393C15.8042 36.0633 15.9332 35.6214 15.9332 35.1693C15.9332 34.563 15.7014 33.9815 15.2888 33.5528C14.8763 33.1241 14.3167 32.8833 13.7332 32.8833ZM13.7332 35.9312C13.5882 35.9312 13.4464 35.8865 13.3258 35.8028C13.2052 35.7191 13.1112 35.6001 13.0557 35.4609C13.0002 35.3216 12.9857 35.1684 13.014 35.0206C13.0423 34.8728 13.1121 34.737 13.2147 34.6304C13.3172 34.5239 13.4479 34.4513 13.5901 34.4219C13.7324 34.3925 13.8798 34.4076 14.0138 34.4653C14.1478 34.5229 14.2624 34.6206 14.3429 34.7459C14.4235 34.8712 14.4665 35.0185 14.4665 35.1693C14.4665 35.3713 14.3893 35.5652 14.2517 35.7081C14.1142 35.851 13.9277 35.9312 13.7332 35.9312Z" fill="#325DCD"/>
<path d="M37.2 32.8833C36.7649 32.8833 36.3395 33.0174 35.9777 33.2686C35.616 33.5197 35.334 33.8768 35.1675 34.2945C35.001 34.7122 34.9574 35.1718 35.0423 35.6152C35.1272 36.0587 35.3367 36.466 35.6444 36.7857C35.952 37.1054 36.344 37.3231 36.7708 37.4113C37.1976 37.4995 37.6399 37.4542 38.0419 37.2812C38.4439 37.1082 38.7875 36.8152 39.0292 36.4393C39.271 36.0633 39.4 35.6214 39.4 35.1693C39.4 34.563 39.1682 33.9815 38.7556 33.5528C38.3431 33.1241 37.7835 32.8833 37.2 32.8833ZM37.2 35.9312C37.055 35.9312 36.9132 35.8865 36.7926 35.8028C36.672 35.7191 36.578 35.6001 36.5225 35.4609C36.467 35.3216 36.4525 35.1684 36.4808 35.0206C36.5091 34.8728 36.5789 34.737 36.6815 34.6304C36.784 34.5239 36.9147 34.4513 37.0569 34.4219C37.1992 34.3925 37.3466 34.4076 37.4806 34.4653C37.6146 34.5229 37.7292 34.6206 37.8098 34.7459C37.8903 34.8712 37.9333 35.0185 37.9333 35.1693C37.9333 35.3713 37.8561 35.5652 37.7186 35.7081C37.581 35.851 37.3945 35.9312 37.2 35.9312Z" fill="#325DCD"/>
<path d="M31.3169 19.1363C31.0803 18.8086 31.1455 18.3525 31.4643 18.104L33.2116 16.7423C33.5474 16.4806 34.0334 16.55 34.2826 16.8952C34.5191 17.2229 34.454 17.679 34.1352 17.9275L32.3879 19.2892C32.052 19.5509 31.5661 19.4815 31.3169 19.1363Z" fill="#325DCD"/>
<path d="M31.3169 22.1854C31.0803 21.8577 31.1455 21.4016 31.4643 21.1531L36.1449 17.5055C36.4808 17.2438 36.9667 17.3132 37.2159 17.6584C37.4525 17.9861 37.3873 18.4422 37.0685 18.6907L32.3879 22.3383C32.052 22.6 31.5661 22.5307 31.3169 22.1854Z" fill="#325DCD"/>
</svg>
