<svg width="48" height="49" viewBox="0 0 48 49" fill="none" xmlns="http://www.w3.org/2000/svg">
<path d="M22.5964 33.84C23.3304 34.0529 24.0702 34.2491 24.7974 34.4838C25.4054 34.6799 26.0054 34.9054 26.5968 35.1476C27.1813 35.387 27.7566 35.6522 28.3255 35.9277C29.4099 36.4524 30.5593 36.6434 31.7524 36.6675C33.4858 36.7026 35.1955 36.5174 36.8931 36.1803C38.3278 35.8955 39.5359 35.2092 40.5852 34.195C41.134 33.664 41.7329 33.179 42.3438 32.7194C42.93 32.2787 43.5956 31.9727 44.3268 31.8467C45.245 31.6891 46.0411 31.9123 46.6457 32.6555C47.1123 33.2285 47.1209 33.8423 46.6544 34.4101C46.4962 34.6028 46.4887 34.7518 46.5876 34.9756C46.9081 35.7016 46.8431 36.4449 46.3552 37.0403C45.7518 37.7772 45.0862 38.4825 44.3579 39.0946C42.9945 40.2411 41.5695 41.3146 40.1647 42.4116C39.2258 43.1445 38.1806 43.5817 36.9811 43.7607C34.8031 44.0857 32.643 44.5298 30.4713 44.9009C29.3858 45.0861 28.2939 45.2368 27.2014 45.3726C25.9496 45.5285 24.7646 45.3058 23.6497 44.6932C21.4671 43.4937 19.2724 42.315 17.0887 41.1178C15.5682 40.2843 14.0506 39.4438 12.5434 38.5866C11.5223 38.0062 10.4437 37.6259 9.28046 37.4545C8.3002 37.3101 8.22771 37.2175 8.3002 36.2297C8.46415 33.9839 8.64824 31.7391 8.8306 29.4944C8.92782 28.3007 9.05496 27.1087 9.13262 25.9139C9.15793 25.5233 9.31383 25.3064 9.65727 25.1551C10.8113 24.6471 12.0205 24.3169 13.2395 24.0161C15.3226 23.5018 17.4333 23.4339 19.5491 23.7077C21.2238 23.9246 22.7586 24.581 24.2313 25.3846C24.8031 25.6964 25.3824 26.0002 25.9289 26.3528C26.7326 26.8717 27.6151 27.1076 28.5493 27.2192C30.0617 27.3993 31.5781 27.554 33.0808 27.795C34.5673 28.0338 36.0285 28.4054 37.3786 29.1078C38.5056 29.694 39.0021 30.7358 38.7668 31.9825C38.6086 32.8195 38.2881 33.5708 37.6628 34.1794C37.1439 34.6845 36.5422 34.8404 35.8427 34.7196C33.7279 34.3555 31.6144 33.9885 29.4968 33.6404C28.1955 33.4264 26.8931 33.3729 25.5757 33.5697C24.7836 33.6882 23.9713 33.6761 23.1682 33.7187C22.9806 33.7284 22.7925 33.7204 22.6044 33.7204C22.601 33.7601 22.5987 33.8003 22.5964 33.84Z" fill="#AABCEB" stroke="#325DCD"/>
<path d="M30.0364 11.7962C33.9661 11.7962 37.8958 11.7956 41.8261 11.7979C42.1517 11.7979 42.4773 11.8272 42.8029 11.8278C43.0359 11.8284 43.1314 11.9434 43.1418 12.1597C43.1539 12.418 43.1809 12.6769 43.1792 12.9352C43.1717 14.1427 43.1602 15.3502 43.1418 16.5577C43.1349 17.022 43.124 17.0346 42.6793 17.0409C40.4754 17.072 38.2709 17.1169 36.067 17.1175C30.1049 17.1192 24.1433 17.1013 18.1812 17.0881C17.8268 17.0875 17.473 17.0484 17.1192 17.0467C16.8436 17.045 16.751 16.9052 16.747 16.6538C16.7407 16.2994 16.7119 15.945 16.7113 15.5907C16.709 14.546 16.7056 13.5013 16.724 12.4566C16.7332 11.9233 16.8051 11.8497 17.3292 11.8382C19.0728 11.8002 20.8171 11.7639 22.5613 11.7547C25.0534 11.7409 27.5455 11.7513 30.0376 11.7513C30.0364 11.7662 30.0364 11.7812 30.0364 11.7962Z" stroke="#325DCD"/>
<path d="M1.00623 35.6273C1.10633 31.7396 1.48716 27.8812 2.18497 24.055C2.25515 23.6696 2.34605 23.2853 2.4634 22.912C2.58881 22.5104 2.78268 22.3867 3.1917 22.4075C4.4458 22.4713 5.69933 22.5421 6.95285 22.6128C7.06733 22.6192 7.18181 22.637 7.29399 22.6617C7.64606 22.7405 7.79966 22.9465 7.75364 23.3032C7.6173 24.3674 7.4614 25.4294 7.33599 26.4954C7.08459 28.6268 6.79925 30.7558 6.62092 32.8936C6.45754 34.8501 6.41727 36.817 6.32005 38.7792C6.30624 39.0565 6.2792 39.3332 6.25389 39.6099C6.22858 39.8826 6.07268 40.0201 5.80173 40.0327C5.77296 40.0339 5.7442 40.0391 5.71544 40.0379C4.38482 39.9833 3.05364 39.9441 1.72418 39.8659C1.16328 39.8331 1.02637 39.691 1.01429 39.1342C0.987823 37.9652 1.00623 36.7962 1.00623 35.6273Z" fill="#AABCEB" stroke="#325DCD"/>
<path d="M40.8235 17.9543C40.8287 18.0446 40.8362 18.1102 40.8362 18.1752C40.8385 21.0021 40.8431 23.8296 40.8408 26.6565C40.8402 27.3158 40.8304 27.348 40.1792 27.3554C38.9539 27.3698 37.7245 27.3934 36.5032 27.3135C35.825 27.2692 35.1628 27.0063 34.4869 26.8751C33.4163 26.668 32.3411 26.4805 31.2648 26.3033C30.9949 26.259 30.8833 26.1807 30.8868 25.8753C30.9161 23.374 30.9242 20.8732 30.9403 18.372C30.9432 17.9457 30.9478 17.9393 31.3614 17.9393C34.4374 17.9382 37.5134 17.9399 40.5894 17.9411C40.6567 17.9416 40.7234 17.9485 40.8235 17.9543Z" stroke="#325DCD"/>
<path d="M29.0153 17.9209C29.0153 20.6321 29.0153 23.3388 29.0153 26.0834C28.4199 26.0144 27.8297 25.9598 27.2981 25.6853C26.4387 25.2424 25.6005 24.7586 24.7404 24.3162C23.0123 23.428 21.2203 22.7135 19.2834 22.4253C19.059 22.3919 18.99 22.3021 18.9946 22.0732C19.0188 20.8473 19.0199 19.6208 19.0418 18.3949C19.0487 17.9887 19.0878 17.9513 19.498 17.9479C22.6211 17.9249 25.7437 17.9093 28.8669 17.8921C28.8939 17.8932 28.9221 17.903 29.0153 17.9209Z" stroke="#325DCD"/>
<path d="M30.2039 11.0561C30.3436 10.4383 30.4524 9.84633 30.6129 9.26933C30.9931 7.90478 31.535 6.60926 32.3663 5.45181C33.0129 4.5515 33.8396 3.87498 34.9493 3.66443C37.6186 3.15818 39.8363 5.46964 39.1851 8.0486C38.9619 8.93337 38.3935 9.5748 37.6951 10.1C37.2314 10.4492 36.7102 10.7219 36.2092 11.0205C36.1326 11.0659 36.0262 11.0797 35.9342 11.0797C34.095 11.0826 32.2553 11.082 30.4161 11.0809C30.3695 11.0803 30.3229 11.0699 30.2039 11.0561ZM32.0689 10.5936C32.1903 10.5746 32.2749 10.5706 32.3542 10.5476C32.9974 10.3618 33.6469 10.1938 34.2797 9.97922C35.1984 9.668 36.0918 9.28429 36.8385 8.65149C37.1273 8.407 37.4333 8.08599 37.5403 7.74083C37.9977 6.26064 36.785 4.97433 35.2697 5.28325C34.5535 5.42937 34.0766 5.9103 33.6768 6.47349C32.872 7.60736 32.4192 8.89425 32.0896 10.2312C32.0637 10.3365 32.0764 10.4509 32.0689 10.5936Z" stroke="#325DCD"/>
<path d="M29.7072 11.0892C29.5956 11.0892 29.503 11.0898 29.4104 11.0892C27.5712 11.0731 25.7321 11.057 23.8929 11.0386C23.7992 11.0374 23.6916 11.0409 23.6139 10.9983C22.8034 10.557 22.0342 10.064 21.421 9.353C20.8342 8.67244 20.6392 7.88949 20.68 7.00875C20.7387 5.74257 21.3209 4.76863 22.3414 4.07945C23.5138 3.28729 25.3156 3.46505 26.5432 4.40563C27.4217 5.0787 27.9826 5.98361 28.4566 6.95467C29.0618 8.19382 29.4564 9.50027 29.6836 10.8585C29.6946 10.9223 29.6975 10.9868 29.7072 11.0892ZM27.9659 10.641C27.5448 8.98539 27.0546 7.46552 26.0168 6.20164C25.7488 5.87488 25.361 5.60738 24.9756 5.42271C24.111 5.00852 23.1612 5.27084 22.6739 5.98821C22.1038 6.82754 22.1803 7.75143 22.8896 8.4711C23.0432 8.627 23.2135 8.77082 23.3913 8.89795C24.3163 9.56067 25.3817 9.90814 26.4546 10.232C26.9269 10.3747 27.4067 10.4909 27.9659 10.641Z" stroke="#325DCD"/>
</svg>
