<svg width="238" height="52" viewBox="0 0 238 52" fill="none" xmlns="http://www.w3.org/2000/svg">
<path fill-rule="evenodd" clip-rule="evenodd" d="M59.3073 27.18H59.7344C60.0157 27.18 60.2676 27.1414 60.2676 26.8094C60.2676 26.5152 59.9887 26.469 59.7384 26.469H59.3073V27.18ZM58.8225 26.1173H59.7899C60.4103 26.1173 60.7511 26.3237 60.7511 26.8471C60.7511 27.2706 60.4951 27.4763 60.0704 27.5134L60.7661 28.5979H60.2733L59.6014 27.53H59.3074V28.5979H58.8225V26.1173ZM61.4428 27.3659C61.4428 26.3434 60.6663 25.6014 59.7075 25.6014C58.7472 25.6014 57.9731 26.3434 57.9731 27.3659C57.9731 28.3929 58.7472 29.1341 59.7075 29.1341C60.6663 29.1341 61.4428 28.3929 61.4428 27.3659ZM57.4121 27.3652C57.4121 26.1604 58.4422 25.1787 59.7075 25.1787C60.9721 25.1787 61.9998 26.1604 61.9998 27.3652C61.9998 28.5745 60.9721 29.5569 59.7075 29.5569C58.4422 29.5569 57.4121 28.5745 57.4121 27.3652Z" fill="white"/>
<path fill-rule="evenodd" clip-rule="evenodd" d="M11.8907 5.92188C8.46066 5.92188 5.55513 8.0501 4.53618 10.9966C4.51162 11.0617 4.48943 11.1305 4.46883 11.1955L4.30006 11.8293L0 29.6061H10.8329C14.0697 29.6061 16.8255 27.6496 17.8737 24.9065L18.2826 23.2131L22.4654 5.92188H11.8907Z" fill="#034EA2"/>
<path fill-rule="evenodd" clip-rule="evenodd" d="M32.3256 0C28.783 0 25.7959 2.27192 24.8744 5.37123C24.8047 5.60341 24.7484 5.83938 24.7041 6.07988L17.5801 35.5309H28.1547C31.7773 35.5309 34.8183 33.1538 35.6638 29.9449V29.9464H35.6685L42.9114 0H32.3256Z" fill="#F37021"/>
<path fill-rule="evenodd" clip-rule="evenodd" d="M49.9111 5.92188C46.6022 5.92188 43.7799 7.90262 42.6706 10.6903C42.6143 10.8318 42.417 11.4209 42.417 11.4209L38.0195 29.6061H48.5958C52.2302 29.6061 55.2776 27.2177 56.1135 23.9944L56.1127 23.9959H56.1135L60.4833 5.92188H49.9111Z" fill="#51B848"/>
<path d="M5.29725 43.8145V46.5386H8.37239V47.728H5.29725V51.8589H3.875V42.5995H8.66709V43.8145H5.29725Z" fill="white"/>
<path d="M16.1279 45.3492C16.1279 46.2018 15.8204 46.8839 15.2054 47.3955C14.5647 47.9326 13.6721 48.2012 12.5274 48.2012C12.1858 48.2012 11.8612 48.1756 11.5536 48.1244V51.8589H10.1314V42.9448C10.8318 42.6208 11.686 42.4588 12.694 42.4588C13.7874 42.4588 14.6373 42.7188 15.2438 43.2389C15.8332 43.7505 16.1279 44.4539 16.1279 45.3492ZM14.7057 45.3364C14.7057 44.1598 14.0394 43.5715 12.7068 43.5715C12.2626 43.5715 11.8782 43.6354 11.5536 43.7633V47.0118C11.7928 47.0544 12.1003 47.0757 12.4762 47.0757C13.1937 47.0757 13.7447 46.918 14.1291 46.6025C14.5135 46.3041 14.7057 45.8821 14.7057 45.3364Z" fill="white"/>
<path d="M20.5888 43.8145V51.8589H19.1409V43.8145H17.0011V42.5995H22.7157V43.8145H20.5888Z" fill="white"/>
<path d="M32.3708 51.8589L31.0639 48.9302C30.7649 48.2651 30.2908 47.9326 29.6416 47.9326H28.8216V51.8589H27.3993V42.9576C28.151 42.6251 29.0309 42.4588 30.0388 42.4588C31.1322 42.4588 31.9736 42.7018 32.563 43.1878C33.1353 43.6653 33.4215 44.3218 33.4215 45.1573C33.4215 46.4277 32.7595 47.2079 31.4354 47.4978V47.5233C31.8625 47.745 32.2256 48.1799 32.5246 48.8278L33.9084 51.8589H32.3708ZM31.9992 45.2213C31.9992 44.1214 31.3543 43.5715 30.0644 43.5715C29.5605 43.5715 29.1462 43.6354 28.8216 43.7633V46.8839H29.9107C31.303 46.8839 31.9992 46.3297 31.9992 45.2213Z" fill="white"/>
<path d="M40.607 47.8559C40.607 48.0861 40.6027 48.2609 40.5942 48.3802L36.0071 49.0197C36.1523 50.2645 36.857 50.8869 38.1213 50.8869C38.873 50.8869 39.5094 50.7462 40.0304 50.4649L40.4404 51.5136C39.8169 51.8376 39.0139 51.9996 38.0316 51.9996C36.9553 51.9996 36.1182 51.6756 35.5202 51.0276C34.9308 50.3967 34.6361 49.5227 34.6361 48.4058C34.6361 47.34 34.9137 46.4789 35.469 45.8224C36.0327 45.1573 36.793 44.8248 37.7497 44.8248C38.6381 44.8248 39.3385 45.0976 39.851 45.6433C40.355 46.189 40.607 46.9265 40.607 47.8559ZM39.2616 47.6384C39.2531 46.4448 38.7406 45.848 37.7241 45.848C37.1774 45.848 36.746 46.0441 36.4299 46.4363C36.0968 46.837 35.926 47.3912 35.9174 48.0989L39.2616 47.6384Z" fill="white"/>
<path d="M45.2163 51.795C44.9942 51.8973 44.7038 51.9484 44.345 51.9484C43.0808 51.9484 42.4487 51.2749 42.4487 49.9277V46.0142H41.5133V44.9655H42.4487V43.3668L43.8197 42.9448V44.9655H45.2163V46.0142H43.8197V49.851C43.8197 50.4308 44.1272 50.7207 44.7422 50.7207C44.9216 50.7207 45.0796 50.6908 45.2163 50.6311V51.795Z" fill="white"/>
<path d="M51.7549 51.5136C51.1484 51.8376 50.3198 51.9996 49.2692 51.9996C47.2789 51.9996 46.2837 51.2791 46.2837 49.8382C46.2837 48.9685 46.7108 48.3461 47.565 47.971C48.1886 47.6981 49.141 47.5276 50.4223 47.4594V47.0246C50.4223 46.2402 49.9354 45.848 48.9616 45.848C48.2868 45.848 47.6504 45.9886 47.0525 46.27L46.6937 45.3108C47.4283 44.9868 48.2313 44.8248 49.1026 44.8248C50.8708 44.8248 51.7549 45.605 51.7549 47.1652V51.5136ZM50.4223 48.393C49.4998 48.4442 48.8549 48.538 48.4876 48.6744C47.8982 48.8875 47.6035 49.2669 47.6035 49.8126C47.6035 50.597 48.1459 50.9892 49.2307 50.9892C49.7689 50.9892 50.1661 50.9296 50.4223 50.8102V48.393Z" fill="white"/>
<path d="M55.0499 42.9192C55.0499 43.1409 54.9687 43.3285 54.8064 43.4819C54.6441 43.6354 54.4476 43.7121 54.217 43.7121C53.9864 43.7121 53.7899 43.6354 53.6276 43.4819C53.4653 43.3285 53.3842 43.1409 53.3842 42.9192C53.3842 42.6975 53.4653 42.51 53.6276 42.3565C53.7899 42.203 53.9864 42.1263 54.217 42.1263C54.4476 42.1263 54.6441 42.203 54.8064 42.3565C54.9687 42.51 55.0499 42.6975 55.0499 42.9192ZM53.5123 51.8589V44.9655H54.9217V51.8589H53.5123Z" fill="white"/>
<path d="M56.7156 51.8589V41.8193H58.125V51.8589H56.7156Z" fill="white"/>
<path d="M81.9533 19.2366L77.0817 11.478L77.0395 11.4949L77.1324 19.2366H74V6.47953H76.82L81.7676 14.499L81.8014 14.4653L81.6578 6.47953H84.7902V19.2366H81.9533Z" fill="white"/>
<path d="M94.5756 19.2366V14.1372H90.3879V19.2366H87.1205V6.47953H90.3879V11.2761H94.5756V6.47953H97.8431V19.2366H94.5756Z" fill="white"/>
<path d="M108.405 19.2366L107.781 17.3938H103.34L102.664 19.2366H99.1518L104.285 6.47953H106.86L111.951 19.2366H108.405ZM105.602 10.4514H105.552L104.234 14.8104H106.919L105.602 10.4514ZM106.953 5.86524L102.681 4.00553L103.559 1.98593L107.747 4.19066L106.953 5.86524Z" fill="white"/>
<path d="M123.4 9.34062V19.2366H120.133V9.34062H117.608V6.47953H125.908V9.34062H123.4Z" fill="white"/>
<path d="M134.68 19.2366V14.1372H130.492V19.2366H127.225V6.47953H130.492V11.2761H134.68V6.47953H137.947V19.2366H134.68Z" fill="white"/>
<path d="M150.046 14.1876C150.046 15.0572 149.973 15.7612 149.827 16.2998C149.63 16.9898 149.278 17.5901 148.771 18.1006C147.865 19.0206 146.672 19.4807 145.192 19.4807C144.471 19.4807 143.807 19.3769 143.199 19.1693C142.512 18.9337 141.949 18.5831 141.51 18.1174C140.97 17.5508 140.61 16.945 140.43 16.2998C140.351 16.0081 140.295 15.6799 140.261 15.3153C140.238 15.0235 140.227 14.6477 140.227 14.1876V6.47953H143.495V14.1876C143.495 14.5242 143.511 14.8132 143.545 15.0544C143.59 15.3629 143.666 15.6238 143.773 15.837C144.032 16.3587 144.494 16.6196 145.158 16.6196C145.845 16.6196 146.306 16.3643 146.542 15.8538C146.638 15.6462 146.706 15.3882 146.745 15.0796C146.768 14.8552 146.779 14.5579 146.779 14.1876V6.47953H150.046V14.1876Z" fill="white"/>
<path d="M165.278 12.8581C165.278 14.7318 164.619 16.3082 163.302 17.5873C161.99 18.8495 160.392 19.4807 158.506 19.4807C156.671 19.4807 155.098 18.8608 153.787 17.621C152.447 16.3643 151.777 14.83 151.777 13.018C151.777 12.053 151.943 11.1442 152.275 10.2915C152.45 9.8371 152.728 9.36026 153.111 8.86097C154.44 7.11626 156.243 6.24391 158.523 6.24391C160.403 6.24391 161.996 6.87784 163.302 8.14569C164.619 9.41916 165.278 10.99 165.278 12.8581ZM162.01 12.8749C162.01 11.8483 161.695 10.9731 161.064 10.2494C160.395 9.48648 159.553 9.105 158.54 9.105C157.516 9.105 156.671 9.47526 156.007 10.2158C155.365 10.9282 155.045 11.7978 155.045 12.8244C155.045 13.8735 155.368 14.7599 156.016 15.4836C156.685 16.2409 157.538 16.6196 158.574 16.6196C159.57 16.6196 160.4 16.2381 161.064 15.4751C161.695 14.7514 162.01 13.8847 162.01 12.8749ZM161.537 3.91296L160.727 2.22155L164.872 0L165.793 2.03642L161.537 3.91296ZM159.334 5.36034L158.54 4.36737L157.746 5.36034H154.943L157.637 2.49925H159.503L162.103 5.36034H159.334Z" fill="white"/>
<path d="M179.732 14.4653C179.36 15.9632 178.575 17.175 177.376 18.1006C176.189 19.0206 174.818 19.4807 173.265 19.4807C171.396 19.4807 169.806 18.8411 168.494 17.562C167.177 16.2774 166.519 14.7038 166.519 12.8412C166.519 10.9843 167.172 9.41636 168.477 8.13728C169.778 6.87503 171.362 6.24391 173.231 6.24391C175.662 6.24391 177.54 7.24249 178.862 9.23964C179.324 9.92967 179.614 10.6253 179.732 11.3266H176.304C175.736 9.84552 174.706 9.105 173.214 9.105C172.206 9.105 171.376 9.47807 170.723 10.2242C170.098 10.9423 169.786 11.809 169.786 12.8244C169.786 13.851 170.098 14.729 170.723 15.4583C171.382 16.2325 172.218 16.6196 173.231 16.6196C174.627 16.6196 175.651 15.9015 176.304 14.4653H179.732Z" fill="white"/>
<path d="M74 51.5983V31.9676H79.028V47.1957H84.8614V51.5983H74Z" fill="white"/>
<path d="M106.753 41.783C106.753 44.6663 105.74 47.0921 103.713 49.0603C101.695 51.0027 99.2351 51.9738 96.3335 51.9738C93.5099 51.9738 91.089 51.0199 89.0709 49.1121C87.0095 47.1784 85.9788 44.8174 85.9788 42.029C85.9788 40.5442 86.2343 39.1457 86.7453 37.8335C87.0138 37.1343 87.4426 36.4005 88.0315 35.6322C90.0756 32.9475 92.8516 31.6051 96.3595 31.6051C99.2524 31.6051 101.704 32.5806 103.713 34.5315C105.74 36.4912 106.753 38.9083 106.753 41.783ZM101.725 41.8089C101.725 40.2291 101.24 38.8824 100.27 37.7688C99.2394 36.5948 97.9445 36.0077 96.3855 36.0077C94.8091 36.0077 93.5099 36.5775 92.4878 37.717C91.5004 38.8133 91.0067 40.1514 91.0067 41.7312C91.0067 43.3455 91.5048 44.7095 92.5008 45.8231C93.5315 46.9885 94.8438 47.5712 96.4375 47.5712C97.9705 47.5712 99.2481 46.9842 100.27 45.8101C101.24 44.6965 101.725 43.3628 101.725 41.8089Z" fill="white"/>
<path d="M121.707 51.5983L114.211 39.6593L114.146 39.6852L114.289 51.5983H109.469V31.9676H113.808L121.421 44.308L121.473 44.2562L121.252 31.9676H126.073V51.5983H121.707Z" fill="white"/>
<path d="M149.77 41.4722C149.77 44.485 148.774 46.9928 146.782 48.9956C144.781 50.9983 142.274 51.9997 139.26 51.9997C136.349 51.9997 133.881 51.0113 131.854 49.0344C129.819 47.0403 128.801 44.5972 128.801 41.7053C128.801 38.8047 129.836 36.3833 131.906 34.4409C133.933 32.5504 136.41 31.6051 139.338 31.6051C141.52 31.6051 143.543 32.2396 145.405 33.5086C147.336 34.8207 148.597 36.4998 149.186 38.5457H143.547C142.594 36.8537 141.148 36.0077 139.208 36.0077C137.631 36.0077 136.332 36.5689 135.31 37.6911C134.323 38.7788 133.829 40.1169 133.829 41.7053C133.829 43.3628 134.31 44.744 135.271 45.849C136.284 47.0144 137.605 47.5971 139.234 47.5971C140.368 47.5971 141.347 47.3424 142.17 46.8331C143.053 46.2806 143.642 45.4821 143.937 44.4375H138.064V40.4363H149.744C149.753 40.5917 149.762 40.7643 149.77 40.9542V41.4722Z" fill="white"/>
<path d="M180.107 44.2562C179.535 46.5612 178.327 48.4258 176.482 49.8502C174.655 51.266 172.546 51.9738 170.155 51.9738C167.279 51.9738 164.832 50.9897 162.814 49.0215C160.788 47.0446 159.774 44.6231 159.774 41.7571C159.774 38.8997 160.779 36.4868 162.788 34.5186C164.789 32.5762 167.227 31.6051 170.103 31.6051C173.845 31.6051 176.733 33.1417 178.769 36.2149C179.479 37.2767 179.925 38.3472 180.107 39.4263H174.832C173.957 37.1472 172.372 36.0077 170.077 36.0077C168.527 36.0077 167.249 36.5818 166.244 37.7299C165.283 38.8349 164.802 40.1687 164.802 41.7312C164.802 43.311 165.283 44.662 166.244 45.7842C167.258 46.9755 168.544 47.5712 170.103 47.5712C172.251 47.5712 173.827 46.4662 174.832 44.2562H180.107Z" fill="white"/>
<path d="M194.19 51.5983V43.7512H187.746V51.5983H182.718V31.9676H187.746V39.3486H194.19V31.9676H199.218V51.5983H194.19Z" fill="white"/>
<path d="M215.472 51.5983L214.51 48.7625H207.676L206.637 51.5983H201.232L209.131 31.9676H213.094L220.928 51.5983H215.472ZM211.158 38.0796H211.08L209.053 44.7871H213.185L211.158 38.0796ZM212.327 30.2454L211.106 28.7174L209.885 30.2454H205.572L209.716 25.8428H212.587L216.589 30.2454H212.327Z" fill="white"/>
<path d="M238 43.8289C238 45.167 237.887 46.2504 237.662 47.0791C237.359 48.1409 236.818 49.0646 236.038 49.8502C234.644 51.266 232.807 51.9738 230.53 51.9738C229.421 51.9738 228.399 51.8141 227.463 51.4947C226.407 51.1322 225.541 50.5926 224.865 49.8761C224.033 49.0042 223.479 48.0719 223.202 47.0791C223.081 46.6302 222.994 46.1252 222.942 45.5641C222.907 45.1152 222.89 44.5368 222.89 43.8289V31.9676H227.918V43.8289C227.918 44.3469 227.944 44.7915 227.996 45.1627C228.065 45.6375 228.182 46.0389 228.347 46.3669C228.745 47.1698 229.455 47.5712 230.478 47.5712C231.534 47.5712 232.244 47.1784 232.608 46.3928C232.755 46.0734 232.859 45.6763 232.92 45.2015C232.955 44.8562 232.972 44.3987 232.972 43.8289V31.9676H238V43.8289Z" fill="white"/>
</svg>
