<svg width="148" height="32" viewBox="0 0 148 32" fill="none" xmlns="http://www.w3.org/2000/svg">
<path fill-rule="evenodd" clip-rule="evenodd" d="M36.9964 16.7257H37.2592C37.4323 16.7257 37.5873 16.7019 37.5873 16.4976C37.5873 16.3166 37.4157 16.2882 37.2616 16.2882H36.9964V16.7257ZM36.698 16.0717H37.2934C37.6752 16.0717 37.8848 16.1988 37.8848 16.5208C37.8848 16.7815 37.7273 16.9081 37.466 16.9309L37.8941 17.5983H37.5908L37.1773 16.9411H36.9964V17.5983H36.698V16.0717ZM38.3105 16.8401C38.3105 16.2108 37.8326 15.7543 37.2427 15.7543C36.6517 15.7543 36.1753 16.2108 36.1753 16.8401C36.1753 17.4721 36.6517 17.9282 37.2427 17.9282C37.8326 17.9282 38.3105 17.4721 38.3105 16.8401ZM35.8301 16.8397C35.8301 16.0982 36.464 15.4941 37.2426 15.4941C38.0209 15.4941 38.6533 16.0982 38.6533 16.8397C38.6533 17.5838 38.0209 18.1884 37.2426 18.1884C36.464 18.1884 35.8301 17.5838 35.8301 16.8397Z" fill="white"/>
<path fill-rule="evenodd" clip-rule="evenodd" d="M7.81737 3.64453C5.70656 3.64453 3.91854 4.95421 3.29149 6.76746C3.27638 6.80749 3.26273 6.84984 3.25005 6.88986L3.14619 7.27988L0.5 18.2194H7.16643C9.15827 18.2194 10.8541 17.0154 11.4992 15.3274L11.7508 14.2853L14.3248 3.64453H7.81737Z" fill="#034EA2"/>
<path fill-rule="evenodd" clip-rule="evenodd" d="M20.3925 0C18.2125 0 16.3743 1.3981 15.8072 3.30537C15.7643 3.44825 15.7297 3.59346 15.7023 3.74146L11.3184 21.8652H17.8258C20.0551 21.8652 21.9265 20.4024 22.4468 18.4276V18.4285H22.4497L26.9068 0H20.3925Z" fill="#F37021"/>
<path fill-rule="evenodd" clip-rule="evenodd" d="M31.2143 3.64453C29.1781 3.64453 27.4413 4.86345 26.7587 6.57897C26.7241 6.666 26.6026 7.02856 26.6026 7.02856L23.8965 18.2194H30.4049C32.6415 18.2194 34.5168 16.7497 35.0313 14.7661L35.0308 14.767H35.0313L37.7204 3.64453H31.2143Z" fill="#51B848"/>
<path d="M3.76 26.9631V28.6395H5.65239V29.3714H3.76V31.9135H2.88477V26.2154H5.83375V26.9631H3.76Z" fill="white"/>
<path d="M10.425 27.9076C10.425 28.4322 10.2358 28.852 9.8573 29.1668C9.46305 29.4974 8.91373 29.6626 8.20934 29.6626C7.99908 29.6626 7.79932 29.6469 7.61008 29.6154V31.9135H6.73485V26.4279C7.1659 26.2286 7.69156 26.1289 8.31185 26.1289C8.9847 26.1289 9.50773 26.2889 9.88096 26.609C10.2437 26.9238 10.425 27.3566 10.425 27.9076ZM9.54979 27.8997C9.54979 27.1756 9.13977 26.8136 8.31973 26.8136C8.04639 26.8136 7.80984 26.8529 7.61008 26.9316V28.9307C7.75727 28.9569 7.94651 28.9701 8.1778 28.9701C8.61936 28.9701 8.95841 28.873 9.19496 28.6788C9.43151 28.4952 9.54979 28.2355 9.54979 27.8997Z" fill="white"/>
<path d="M13.1702 26.9631V31.9135H12.2792V26.9631H10.9624V26.2154H14.4791V26.9631H13.1702Z" fill="white"/>
<path d="M20.4206 31.9135L19.6164 30.1112C19.4324 29.702 19.1406 29.4974 18.7411 29.4974H18.2365V31.9135H17.3613V26.4358C17.8239 26.2312 18.3653 26.1289 18.9856 26.1289C19.6584 26.1289 20.1762 26.2784 20.5389 26.5775C20.8911 26.8713 21.0672 27.2753 21.0672 27.7895C21.0672 28.5713 20.6598 29.0514 19.845 29.2298V29.2455C20.1079 29.3819 20.3313 29.6495 20.5153 30.0483L21.3668 31.9135H20.4206ZM20.192 27.8289C20.192 27.152 19.7951 26.8136 19.0013 26.8136C18.6912 26.8136 18.4363 26.8529 18.2365 26.9316V28.852H18.9067C19.7636 28.852 20.192 28.5109 20.192 27.8289Z" fill="white"/>
<path d="M25.4891 29.4501C25.4891 29.5918 25.4865 29.6994 25.4812 29.7728L22.6584 30.1663C22.7477 30.9324 23.1814 31.3154 23.9594 31.3154C24.422 31.3154 24.8136 31.2288 25.1343 31.0557L25.3866 31.701C25.0028 31.9004 24.5087 32.0001 23.9042 32.0001C23.2419 32.0001 22.7267 31.8007 22.3587 31.402C21.996 31.0137 21.8147 30.4759 21.8147 29.7886C21.8147 29.1327 21.9855 28.6028 22.3272 28.1988C22.6741 27.7895 23.142 27.5849 23.7307 27.5849C24.2774 27.5849 24.7085 27.7528 25.0239 28.0886C25.334 28.4244 25.4891 28.8782 25.4891 29.4501ZM24.6612 29.3163C24.6559 28.5818 24.3405 28.2145 23.715 28.2145C23.3785 28.2145 23.1131 28.3352 22.9186 28.5765C22.7136 28.8231 22.6084 29.1642 22.6032 29.5997L24.6612 29.3163Z" fill="white"/>
<path d="M28.3256 31.8742C28.1889 31.9372 28.0102 31.9686 27.7894 31.9686C27.0114 31.9686 26.6224 31.5541 26.6224 30.7251V28.3168H26.0468V27.6714H26.6224V26.6877L27.4661 26.4279V27.6714H28.3256V28.3168H27.4661V30.6779C27.4661 31.0347 27.6554 31.2131 28.0338 31.2131C28.1442 31.2131 28.2415 31.1947 28.3256 31.158V31.8742Z" fill="white"/>
<path d="M32.3493 31.701C31.9761 31.9004 31.4662 32.0001 30.8196 32.0001C29.5948 32.0001 28.9824 31.5568 28.9824 30.67C28.9824 30.1349 29.2453 29.7518 29.7709 29.521C30.1547 29.3531 30.7408 29.2481 31.5293 29.2062V28.9386C31.5293 28.4559 31.2297 28.2145 30.6304 28.2145C30.2151 28.2145 29.8235 28.3011 29.4555 28.4742L29.2348 27.8839C29.6868 27.6846 30.1809 27.5849 30.7171 27.5849C31.8053 27.5849 32.3493 28.065 32.3493 29.0251V31.701ZM31.5293 29.7807C30.9616 29.8122 30.5647 29.8699 30.3386 29.9538C29.9759 30.085 29.7946 30.3185 29.7946 30.6543C29.7946 31.137 30.1284 31.3784 30.796 31.3784C31.1271 31.3784 31.3716 31.3416 31.5293 31.2682V29.7807Z" fill="white"/>
<path d="M34.377 26.4122C34.377 26.5486 34.327 26.664 34.2272 26.7585C34.1273 26.8529 34.0064 26.9002 33.8645 26.9002C33.7225 26.9002 33.6016 26.8529 33.5018 26.7585C33.4019 26.664 33.3519 26.5486 33.3519 26.4122C33.3519 26.2758 33.4019 26.1603 33.5018 26.0659C33.6016 25.9715 33.7225 25.9242 33.8645 25.9242C34.0064 25.9242 34.1273 25.9715 34.2272 26.0659C34.327 26.1603 34.377 26.2758 34.377 26.4122ZM33.4308 31.9135V27.6714H34.2981V31.9135H33.4308Z" fill="white"/>
<path d="M35.402 31.9135V25.7354H36.2694V31.9135H35.402Z" fill="white"/>
<path d="M51.5487 11.8379L48.5507 7.0634L48.5248 7.07376L48.5819 11.8379H46.6543V3.9874H48.3897L51.4343 8.92246L51.4551 8.90175L51.3668 3.9874H53.2944V11.8379H51.5487Z" fill="white"/>
<path d="M59.3162 11.8379V8.69979H56.7392V11.8379H54.7284V3.9874H56.7392V6.93912H59.3162V3.9874H61.327V11.8379H59.3162Z" fill="white"/>
<path d="M67.8268 11.8379L67.4423 10.7038H64.7094L64.2937 11.8379H62.1323L65.2913 3.9874H66.876L70.009 11.8379H67.8268ZM66.1018 6.43163H66.0707L65.2601 9.11406H66.9124L66.1018 6.43163ZM66.9331 3.60938L64.3041 2.46494L64.8445 1.22211L67.4215 2.57887L66.9331 3.60938Z" fill="white"/>
<path d="M77.0544 5.74807V11.8379H75.0436V5.74807H73.4901V3.9874H78.5975V5.74807H77.0544Z" fill="white"/>
<path d="M83.9958 11.8379V8.69979H81.4188V11.8379H79.408V3.9874H81.4188V6.93912H83.9958V3.9874H86.0066V11.8379H83.9958Z" fill="white"/>
<path d="M93.452 8.73086C93.452 9.26597 93.407 9.69923 93.3169 10.0306C93.1957 10.4553 92.9792 10.8247 92.6675 11.1388C92.1098 11.705 91.3755 11.9881 90.4645 11.9881C90.0211 11.9881 89.6124 11.9242 89.2383 11.7965C88.8157 11.6515 88.4693 11.4357 88.1992 11.1492C87.8666 10.8005 87.645 10.4277 87.5341 10.0306C87.4856 9.85113 87.451 9.64917 87.4302 9.42477C87.4164 9.24525 87.4094 9.01395 87.4094 8.73086V3.9874H89.4202V8.73086C89.4202 8.938 89.4306 9.11579 89.4513 9.26424C89.479 9.45411 89.5258 9.61465 89.5916 9.74583C89.751 10.0669 90.035 10.2274 90.4437 10.2274C90.8663 10.2274 91.1503 10.0704 91.2958 9.75619C91.3547 9.62846 91.3963 9.46965 91.4205 9.27977C91.4344 9.14168 91.4413 8.95871 91.4413 8.73086V3.9874H93.452V8.73086Z" fill="white"/>
<path d="M102.825 7.91266C102.825 9.06573 102.42 10.0358 101.609 10.823C100.802 11.5997 99.8185 11.9881 98.6581 11.9881C97.5289 11.9881 96.5608 11.6066 95.7537 10.8437C94.9293 10.0704 94.5172 9.12615 94.5172 8.01105C94.5172 7.41726 94.6193 6.85799 94.8237 6.33324C94.9311 6.0536 95.1025 5.76016 95.3381 5.4529C96.1555 4.37924 97.2657 3.84241 98.6685 3.84241C99.8254 3.84241 100.806 4.23252 101.609 5.01274C102.42 5.79641 102.825 6.76305 102.825 7.91266ZM100.814 7.92302C100.814 7.29125 100.62 6.75269 100.232 6.30735C99.8202 5.83783 99.3024 5.60308 98.6789 5.60308C98.0485 5.60308 97.5289 5.83093 97.1202 6.28663C96.7253 6.72507 96.5279 7.26018 96.5279 7.89195C96.5279 8.53753 96.7271 9.08299 97.1254 9.52834C97.5376 9.9944 98.0624 10.2274 98.6997 10.2274C99.3128 10.2274 99.8237 9.99267 100.232 9.52316C100.62 9.07782 100.814 8.54444 100.814 7.92302ZM100.523 2.40798L100.025 1.36711L102.576 0L103.142 1.25318L100.523 2.40798ZM99.1673 3.29867L98.6789 2.68761L98.1905 3.29867H96.4655L98.123 1.538H99.2712L100.872 3.29867H99.1673Z" fill="white"/>
<path d="M111.72 8.90175C111.492 9.82351 111.008 10.5692 110.271 11.1388C109.54 11.705 108.696 11.9881 107.74 11.9881C106.59 11.9881 105.612 11.5945 104.805 10.8074C103.994 10.0168 103.589 9.04847 103.589 7.90231C103.589 6.7596 103.991 5.79468 104.794 5.00756C105.594 4.23079 106.569 3.84241 107.719 3.84241C109.216 3.84241 110.371 4.45692 111.185 5.68593C111.469 6.11057 111.647 6.53865 111.72 6.97019H109.611C109.261 6.05878 108.627 5.60308 107.709 5.60308C107.089 5.60308 106.578 5.83266 106.176 6.29181C105.792 6.73371 105.6 7.26709 105.6 7.89195C105.6 8.52372 105.792 9.06401 106.176 9.5128C106.582 9.98922 107.096 10.2274 107.719 10.2274C108.578 10.2274 109.209 9.78554 109.611 8.90175H111.72Z" fill="white"/>
<path d="M46.6543 31.7529V19.6725H49.7484V29.0436H53.3383V31.7529H46.6543Z" fill="white"/>
<path d="M66.8101 25.7127C66.8101 27.487 66.1865 28.9798 64.9393 30.191C63.6973 31.3863 62.1836 31.984 60.398 31.984C58.6604 31.984 57.1706 31.397 55.9287 30.2229C54.6601 29.0329 54.0258 27.58 54.0258 25.8641C54.0258 24.9503 54.1831 24.0897 54.4976 23.2823C54.6628 22.8519 54.9266 22.4004 55.2891 21.9276C56.547 20.2754 58.2553 19.4494 60.414 19.4494C62.1942 19.4494 63.7027 20.0497 64.9393 21.2503C66.1865 22.4562 66.8101 23.9436 66.8101 25.7127ZM63.716 25.7286C63.716 24.7564 63.4175 23.9277 62.8205 23.2424C62.1863 22.5199 61.3894 22.1587 60.43 22.1587C59.4599 22.1587 58.6604 22.5093 58.0314 23.2105C57.4238 23.8852 57.12 24.7086 57.12 25.6808C57.12 26.6742 57.4265 27.5136 58.0394 28.1989C58.6737 28.9161 59.4812 29.2746 60.462 29.2746C61.4054 29.2746 62.1916 28.9134 62.8205 28.1909C63.4175 27.5056 63.716 26.6848 63.716 25.7286Z" fill="white"/>
<path d="M76.0126 31.7529L71.3994 24.4058L71.3594 24.4218L71.4473 31.7529H68.4811V19.6725H71.1515L75.8367 27.2666L75.8687 27.2347L75.7327 19.6725H78.699V31.7529H76.0126Z" fill="white"/>
<path d="M93.2822 25.5214C93.2822 27.3755 92.6692 28.9187 91.4433 30.1512C90.212 31.3837 88.6689 31.9999 86.8141 31.9999C85.0231 31.9999 83.5041 31.3916 82.2568 30.1751C81.0042 28.9479 80.3779 27.4445 80.3779 25.6649C80.3779 23.8799 81.0149 22.3898 82.2888 21.1945C83.536 20.0311 85.0604 19.4494 86.862 19.4494C88.2052 19.4494 89.4498 19.8398 90.5958 20.6207C91.7844 21.4282 92.5599 22.4615 92.9224 23.7205H89.4525C88.8661 22.6793 87.976 22.1587 86.7821 22.1587C85.812 22.1587 85.0125 22.504 84.3835 23.1946C83.7759 23.864 83.4721 24.6874 83.4721 25.6649C83.4721 26.6849 83.7679 27.5348 84.3595 28.2148C84.9832 28.932 85.796 29.2906 86.7981 29.2906C87.4963 29.2906 88.0986 29.1339 88.605 28.8204C89.1486 28.4804 89.5111 27.989 89.6923 27.3462H86.0785V24.8839H93.2662C93.2715 24.9796 93.2768 25.0858 93.2822 25.2027V25.5214Z" fill="white"/>
<path d="M111.951 27.2347C111.599 28.6531 110.856 29.8006 109.72 30.6771C108.596 31.5484 107.298 31.984 105.827 31.984C104.057 31.984 102.551 31.3784 101.309 30.1671C100.062 28.9506 99.4384 27.4605 99.4384 25.6967C99.4384 23.9383 100.057 22.4535 101.293 21.2423C102.525 20.047 104.025 19.4494 105.795 19.4494C108.097 19.4494 109.875 20.395 111.127 22.2862C111.564 22.9396 111.839 23.5983 111.951 24.2624H108.705C108.166 22.8599 107.191 22.1587 105.779 22.1587C104.825 22.1587 104.038 22.512 103.42 23.2185C102.828 23.8985 102.533 24.7193 102.533 25.6808C102.533 26.653 102.828 27.4844 103.42 28.175C104.044 28.9081 104.835 29.2746 105.795 29.2746C107.116 29.2746 108.087 28.5947 108.705 27.2347H111.951Z" fill="white"/>
<path d="M120.618 31.7529V26.9239H116.652V31.7529H113.558V19.6725H116.652V24.2146H120.618V19.6725H123.712V31.7529H120.618Z" fill="white"/>
<path d="M133.714 31.7529L133.122 30.0078H128.917L128.277 31.7529H124.951L129.812 19.6725H132.251L137.072 31.7529H133.714ZM131.059 23.4337H131.011L129.764 27.5614H132.307L131.059 23.4337ZM131.779 18.6126L131.027 17.6724L130.276 18.6126H127.621L130.172 15.9033H131.939L134.401 18.6126H131.779Z" fill="white"/>
<path d="M147.577 26.9717C147.577 27.7951 147.508 28.4619 147.369 28.9718C147.183 29.6253 146.85 30.1937 146.37 30.6771C145.512 31.5484 144.382 31.984 142.98 31.984C142.298 31.984 141.669 31.8857 141.093 31.6891C140.443 31.466 139.91 31.134 139.494 30.6931C138.983 30.1565 138.641 29.5828 138.471 28.9718C138.396 28.6956 138.343 28.3848 138.311 28.0395C138.29 27.7633 138.279 27.4073 138.279 26.9717V19.6725H141.373V26.9717C141.373 27.2905 141.389 27.5641 141.421 27.7925C141.464 28.0847 141.536 28.3317 141.637 28.5336C141.882 29.0276 142.319 29.2746 142.948 29.2746C143.598 29.2746 144.036 29.0329 144.259 28.5495C144.35 28.3529 144.414 28.1086 144.451 27.8164C144.473 27.6039 144.483 27.3223 144.483 26.9717V19.6725H147.577V26.9717Z" fill="white"/>
</svg>
