<?xml version="1.0" encoding="UTF-8"?>
<svg width="243px" height="153px" viewBox="0 0 243 153" version="1.1" xmlns="http://www.w3.org/2000/svg" xmlns:xlink="http://www.w3.org/1999/xlink">
    <!-- Generator: Sketch 51.3 (57544) - http://www.bohemiancoding.com/sketch -->
    <title>icons</title>
    <desc>Created with Sketch.</desc>
    <defs>
        <polygon id="path-1" points="0 0 20 0 20 20 0 20"></polygon>
    </defs>
    <g id="Page-1" stroke="none" stroke-width="1" fill="none" fill-rule="evenodd">
        <g id="icons">
            <polygon id="Shape" points="36 80 60 80 60 104 36 104"></polygon>
            <path d="M50,82 L42,82 C40.9,82 40.01,82.9 40.01,84 L40,100 C40,101.1 40.89,102 41.99,102 L54,102 C55.1,102 56,101.1 56,100 L56,88 L50,82 Z M52,98 L44,98 L44,96 L52,96 L52,98 Z M52,94 L44,94 L44,92 L52,92 L52,94 Z M49,89 L49,83.5 L54.5,89 L49,89 Z M89,84 L73,84 C71.9,84 71,84.9 71,86 L71,98 C71,99.1 71.9,100 73,100 L87,100 L91,104 L91,86 C91,84.9 90.1,84 89,84 Z M87,96 L75,96 L75,94 L87,94 L87,96 Z M87,93 L75,93 L75,91 L87,91 L87,93 Z M87,90 L75,90 L75,88 L87,88 L87,90 Z" id="Shape" fill="#FFFFFF" fill-rule="nonzero"></path>
            <polygon id="Shape" points="69 82 93 82 93 106 69 106"></polygon>
            <g id="Group" transform="translate(168.000000, 8.000000)" fill-rule="nonzero">
                <path d="M17.21,12.937 L16.524,15.912 C16.0074305,17.3452374 15.0870649,18.5983239 13.874,19.52 L71.005,19.682 C71.967,19.682 72.462,19.644 72.851,18.82 C72.939,18.634 73.264,17.636 73.324,17.438 C73.639,16.405 74.404,12.938 74.404,12.938 L17.211,12.938 L17.21,12.937 Z M9.627,0.245 L17.917,0.245 L14.641,14.447 L14.318,15.837 C13.4738591,18.1575371 11.2673037,19.7013263 8.798,19.699 L0.305,19.6990026 L3.677,5.099 L3.813,4.577 C3.829,4.523 3.843,4.467 3.863,4.412 C4.68517509,1.92569617 7.00828331,0.246238854 9.627,0.245 Z M5.929,5.636 C5.46,6.022 5.162,6.492 5.071,6.865 L3.316,14.789 L3.416,14.786 C3.968,14.786 4.479,14.594 4.944,14.206 C5.414,13.826 5.704,13.353 5.828,12.814 L6.278,10.799 L10.045,10.799 C10.587,10.799 11.102,10.602 11.575,10.222 C12.045,9.838 12.348,9.368 12.468,8.82 L12.49,8.72 L6.74,8.72 L7.096,7.134 L12.537,7.134 C13.08,7.134 13.597,6.946 14.062,6.561 C14.531,6.178 14.821,5.696 14.949,5.157 L14.972,5.055 L7.457,5.053 C6.912,5.053 6.397,5.249 5.929,5.636 Z M25.537,4.783 L25.018,7.133 L21.568,7.133 L20.665,11.235 L17.537,11.235 L19.901,0.468 L27.491,0.468 L26.953,2.89 L22.504,2.89 L22.086,4.783 L25.536,4.783 L25.537,4.783 Z M27.532,3.268 L30.188,3.268 L29.768,5.19 C30.397,3.751 31.28,3.032 32.418,3.032 C32.508,3.032 32.632,3.044 32.788,3.072 L32.283,5.909 C32.1024789,5.89884552 31.9217786,5.89217761 31.741,5.889 C31.083,5.889 30.591,6.04 30.269,6.349 C29.945,6.656 29.696,7.201 29.525,7.983 L28.812,11.236 L25.78,11.236 L27.532,3.268 Z M36.948,3.268 L35.195,11.236 L32.098,11.236 L33.851,3.268 L36.948,3.268 Z M37.618,0.215 L37.104,2.557 L34.008,2.557 L34.524,0.215 L37.618,0.215 Z M45.799,7.835 L40.309,7.835 C40.271,8.052 40.249,8.213 40.244,8.32 C40.224,8.666 40.322,8.94 40.536,9.135 C40.75,9.33 41.026,9.427 41.37,9.427 C42.015,9.427 42.491,9.092 42.794,8.42 L45.455,8.853 C45.065,9.633 44.471,10.265 43.67,10.748 C42.87,11.23 41.996,11.471 41.05,11.471 C39.86,11.471 38.916,11.134 38.212,10.458 C37.507,9.783 37.186,8.859 37.247,7.693 C37.314,6.427 37.807,5.338 38.728,4.432 C39.648,3.523 40.815,3.071 42.223,3.071 C43.416,3.071 44.349,3.421 45.019,4.126 C45.689,4.831 45.995,5.765 45.934,6.929 C45.9137452,7.23417219 45.868595,7.53717982 45.799,7.835 Z M43.009,6.305 C43.043,6.143 43.063,6.015 43.067,5.925 C43.0871033,5.65872314 43.0064419,5.39461035 42.841,5.185 C42.676,4.975 42.436,4.869 42.121,4.869 C41.784,4.869 41.472,4.997 41.186,5.252 C40.899,5.507 40.712,5.859 40.626,6.305 L43.008,6.305 L43.009,6.305 Z M48.034,3.268 L50.81,3.268 L50.53,4.563 C50.7515998,4.05362605 51.1481779,3.6403761 51.648,3.398 C52.1343661,3.15767168 52.669497,3.03244284 53.212,3.032 C53.89,3.032 54.43,3.212 54.832,3.567 C55.232,3.925 55.417,4.395 55.388,4.979 C55.3683914,5.25295015 55.3282791,5.5250455 55.268,5.793 L54.071,11.235 L51.041,11.235 L52.096,6.448 C52.164,6.141 52.201,5.939 52.206,5.84 C52.23,5.392 52.005,5.168 51.532,5.168 C50.897,5.168 50.486,5.596 50.298,6.448 L49.242,11.235 L46.282,11.235 L48.034,3.268 Z M65.93,0.468 L63.568,11.235 L60.735,11.235 L60.995,10.031 C60.292,10.993 59.479,11.471 58.553,11.471 C57.833,11.471 57.227,11.187 56.736,10.619 C56.246,10.053 56.029,9.241 56.084,8.182 C56.1424205,6.89901377 56.5837091,5.66291813 57.351,4.633 C58.126,3.575 59.079,3.047 60.204,3.047 C61.166,3.047 61.796,3.426 62.095,4.185 L62.907,0.468 L65.93,0.468 Z M61.663,6.098 C61.683,6.015 61.695,5.925 61.699,5.832 C61.7174794,5.6184114 61.6406124,5.40757597 61.489,5.256 C61.343116,5.10010584 61.1374277,5.01419 60.924,5.02 C60.384,5.02 59.972,5.437 59.69,6.27 C59.406,7.103 59.251,7.795 59.221,8.349 C59.183,9.073 59.447,9.436 60.011,9.436 C60.57,9.436 60.961,9.075 61.183,8.349 L61.663,6.099 L61.663,6.098 Z M73.49,5.114 L71.119,5.627 C70.965,5.112 70.489,4.853 69.682,4.853 C69.12,4.853 68.83,5.013 68.815,5.327 C68.8,5.605 69.061,5.793 69.596,5.887 C70.692,6.078 71.459,6.285 71.899,6.512 C72.34,6.738 72.665,7.026 72.876,7.375 C73.087,7.725 73.18,8.12 73.158,8.561 C73.116,9.36 72.745,10.036 72.045,10.585 C71.345,11.134 70.313,11.409 68.945,11.409 C67.93,11.409 67.056,11.211 66.322,10.813 C65.589,10.416 65.149,9.821 64.999,9.026 L67.511,8.664 C67.677,9.237 68.217,9.524 69.139,9.524 C69.495,9.524 69.765,9.473 69.944,9.37 C70.123,9.266 70.216,9.151 70.223,9.019 C70.2350518,8.90054183 70.1708683,8.78741836 70.063,8.737 C69.951,8.677 69.663,8.594 69.201,8.489 C68.281,8.278 67.628,8.09 67.243,7.925 C66.8532548,7.75607805 66.5186147,7.48136832 66.277,7.132 C66.02,6.769 65.907,6.348 65.931,5.871 C65.973,5.054 66.331,4.384 67.006,3.859 C67.68,3.335 68.57,3.071 69.674,3.071 C70.678,3.071 71.524,3.266 72.214,3.651 C72.904,4.038 73.329,4.524 73.489,5.114 L73.49,5.114 Z" id="Shape" fill="#FFFFFF"></path>
                <g transform="translate(18.000000, 13.000000)" fill="#D10000" id="Shape">
                    <path d="M5.345,2.342 L4.583,2.342 L4.69,1.803 L6.834,1.803 L6.731,2.343 L5.961,2.343 L5.52,4.688 L4.903,4.688 L5.345,2.342 Z M7.176,1.859 C7.368,1.812 7.659,1.782 7.946,1.782 C8.22,1.782 8.503,1.825 8.704,1.949 C8.90780535,2.06279978 9.03121042,2.28068686 9.024,2.514 C9.024,2.942 8.738,3.207 8.37,3.326 L8.37,3.344 C8.541,3.417 8.614,3.609 8.644,3.87 C8.678,4.191 8.704,4.568 8.755,4.688 L8.122,4.688 C8.096,4.61 8.066,4.363 8.036,4.008 C8.01,3.656 7.89,3.549 7.646,3.549 L7.458,3.549 L7.244,4.688 L6.632,4.688 L7.176,1.859 Z M7.548,3.087 L7.805,3.087 C8.139,3.087 8.383,2.887 8.383,2.603 C8.383,2.373 8.185,2.269 7.942,2.269 C7.826,2.269 7.754,2.278 7.702,2.291 L7.548,3.087 Z M9.923,3.938 L9.581,4.688 L8.926,4.688 L10.33,1.803 L11.121,1.803 L11.459,4.688 L10.814,4.688 L10.754,3.938 L9.924,3.938 L9.923,3.938 Z M10.728,3.468 L10.672,2.847 L10.629,2.283 L10.621,2.283 C10.548,2.458 10.466,2.681 10.39,2.847 L10.103,3.467 L10.728,3.467 L10.728,3.468 Z M10.595,1.577 C10.685,1.414 10.847,1.363 10.847,1.221 C10.8484405,1.19008097 10.8367877,1.15998584 10.8149009,1.13809907 C10.7930142,1.1162123 10.762919,1.10455953 10.732,1.106 C10.655,1.106 10.582,1.175 10.531,1.23 L10.351,1.097 C10.475,0.922 10.651,0.789 10.873,0.789 C11.113,0.789 11.267,0.939 11.267,1.127 C11.267,1.388 11.015,1.465 10.873,1.679 L10.595,1.577 Z M13.526,2.342 L12.765,2.342 L12.872,1.803 L15.016,1.803 L14.913,2.343 L14.143,2.343 L13.702,4.688 L13.085,4.688 L13.526,2.342 Z M15.358,1.859 C15.551,1.812 15.842,1.782 16.128,1.782 C16.402,1.782 16.685,1.825 16.886,1.949 C17.0898053,2.06279978 17.2132104,2.28068686 17.206,2.514 C17.206,2.942 16.92,3.207 16.552,3.326 L16.552,3.344 C16.723,3.417 16.796,3.609 16.826,3.87 C16.86,4.191 16.886,4.568 16.937,4.688 L16.304,4.688 C16.278,4.61 16.248,4.363 16.218,4.008 C16.193,3.656 16.073,3.549 15.829,3.549 L15.641,3.549 L15.427,4.688 L14.815,4.688 L15.358,1.859 Z M15.73,3.087 L15.987,3.087 C16.321,3.087 16.565,2.887 16.565,2.603 C16.565,2.373 16.368,2.269 16.124,2.269 C16.043405,2.26661137 15.9628176,2.27399856 15.884,2.291 L15.73,3.087 Z M18.46,1.803 L18.144,3.463 C18.1219187,3.57595357 18.1118626,3.69092817 18.114,3.806 C18.114,4.037 18.254,4.216 18.533,4.216 C18.853,4.216 19.068,4.003 19.171,3.468 L19.487,1.803 L19.941,1.803 C20.111,1.803 20.211,1.73 20.211,1.563 C20.2098589,1.48542037 20.1953112,1.4086223 20.168,1.336 L20.617,1.264 C20.6406098,1.34461544 20.6533885,1.42801385 20.655,1.512 C20.655,1.884 20.433,2.111 20.039,2.128 L19.791,3.442 C19.629,4.315 19.239,4.734 18.456,4.734 C17.861,4.738 17.497,4.43 17.497,3.814 C17.497,3.69 17.515,3.548 17.54,3.412 L17.844,1.802 L18.46,1.802 L18.46,1.803 Z M23.365,1.431 C23.4103638,1.54103981 23.4334755,1.65897727 23.433,1.778 C23.433,2.103 23.232,2.321 22.915,2.334 C23.014,2.505 23.056,2.732 23.056,2.959 C23.056,3.485 22.873,3.994 22.543,4.319 C22.273,4.581 21.91,4.735 21.477,4.735 C20.728,4.735 20.309,4.204 20.309,3.532 C20.309,3.01 20.501,2.492 20.839,2.167 C21.109,1.91 21.477,1.757 21.892,1.757 C22.098,1.757 22.26,1.787 22.423,1.859 C22.539,1.91 22.658,1.992 22.773,1.992 C22.903,1.992 22.958,1.915 22.958,1.769 C22.95466,1.6793138 22.9342984,1.59108041 22.898,1.509 L23.365,1.431 Z M21.323,2.488 C21.092,2.715 20.963,3.164 20.963,3.511 C20.963,3.917 21.148,4.221 21.567,4.221 C21.747,4.221 21.918,4.14 22.051,4.011 C22.278,3.785 22.401,3.31 22.401,2.975 C22.401,2.616 22.274,2.269 21.82,2.269 C21.6310579,2.27053989 21.4511692,2.35016869 21.323,2.489 L21.323,2.488 Z M22.629,1.085 L22.064,1.624 L21.542,1.624 L21.944,1.084 L22.629,1.084 L22.629,1.085 Z M25.367,4.606 C25.214,4.675 24.952,4.73 24.605,4.73 C23.844,4.73 23.33,4.268 23.33,3.506 C23.33,2.861 23.621,2.356 24.058,2.065 C24.358,1.855 24.713,1.756 25.119,1.756 C25.431,1.756 25.667,1.829 25.749,1.881 L25.582,2.381 C25.4161615,2.31342679 25.2379894,2.28140351 25.059,2.287 C24.82024,2.28236811 24.5872894,2.36084314 24.4,2.509 C24.156,2.706 24.002,3.036 24.002,3.438 C24.002,3.896 24.259,4.204 24.768,4.204 C24.969,4.204 25.17,4.17 25.316,4.11 L25.367,4.606 Z M3.095,2.296 C3.095,3.475 2.526,4.904 1.335,4.904 C0.552,4.904 0.245,4.3 0.245,3.544 C0.245,2.354 0.848,1.002 2.01,1.002 C2.822,1.002 3.095,1.622 3.095,2.296 Z M1.063,3.574 C1.063,3.852 1.109,4.242 1.44,4.242 C2.015,4.242 2.27,2.802 2.27,2.302 C2.27,2.052 2.236,1.664 1.916,1.664 C1.353,1.664 1.063,3.022 1.063,3.574 Z"></path>
                </g>
                <g transform="translate(50.000000, 13.000000)" fill="#D10000" id="Shape">
                    <path d="M4.482,1.807 L5.099,1.807 L4.654,4.153 L5.762,4.153 L5.659,4.693 L3.935,4.693 L4.482,1.807 Z M6.878,3.943 L6.536,4.692 L5.882,4.692 L7.285,1.807 L8.077,1.807 L8.415,4.692 L7.769,4.692 L7.709,3.942 L6.879,3.942 L6.878,3.943 Z M7.683,3.473 L7.627,2.852 C7.615,2.694 7.597,2.462 7.585,2.287 L7.575,2.287 C7.503,2.463 7.422,2.685 7.345,2.852 L7.058,3.472 L7.683,3.472 L7.683,3.473 Z M7.071,1.641 C7.131,1.277 7.294,1.101 7.495,1.101 C7.619,1.101 7.691,1.14 7.765,1.187 C7.828,1.23 7.884,1.273 7.94,1.273 C8.008,1.273 8.047,1.221 8.085,1.085 L8.385,1.085 C8.325,1.461 8.175,1.611 7.953,1.611 C7.85635448,1.61079542 7.76160454,1.58416861 7.679,1.534 C7.615,1.491 7.572,1.453 7.507,1.453 C7.457,1.456 7.405,1.516 7.375,1.641 L7.071,1.641 Z M9.878,1.807 L9.33,4.692 L8.715,4.692 L9.262,1.807 L9.878,1.807 Z M10.811,4.024 C10.982,4.127 11.226,4.208 11.491,4.208 C11.731,4.208 11.949,4.097 11.949,3.87 C11.949,3.707 11.825,3.6 11.56,3.463 C11.252,3.297 10.961,3.073 10.961,2.698 C10.961,2.115 11.47,1.76 12.099,1.76 C12.45,1.76 12.655,1.837 12.779,1.906 L12.587,2.419 C12.4202054,2.332736 12.2347684,2.28878056 12.047,2.291 C11.761,2.291 11.611,2.437 11.611,2.595 C11.611,2.762 11.786,2.865 12.031,3.001 C12.381,3.185 12.604,3.421 12.604,3.763 C12.604,4.405 12.073,4.733 11.431,4.733 C11.029,4.733 10.742,4.631 10.605,4.529 L10.811,4.024 Z M14.02,1.807 L13.704,3.468 C13.683,3.567 13.674,3.682 13.674,3.81 C13.674,4.042 13.815,4.221 14.094,4.221 C14.414,4.221 14.629,4.007 14.731,3.471 L15.048,1.807 L15.664,1.807 L15.352,3.447 C15.185,4.32 14.8,4.739 14.017,4.739 C13.422,4.739 13.058,4.435 13.058,3.819 C13.058,3.695 13.075,3.554 13.101,3.417 L13.405,1.807 L14.021,1.807 L14.02,1.807 Z M16.468,3.943 L16.126,4.692 L15.471,4.692 L16.875,1.807 L17.667,1.807 L18.005,4.692 L17.359,4.692 L17.299,3.942 L16.469,3.942 L16.468,3.943 Z M17.633,1.127 L17.911,1.654 L17.496,1.654 L17.376,1.384 L17.367,1.384 L17.115,1.654 L16.648,1.654 L17.192,1.127 L17.632,1.127 L17.633,1.127 Z M17.273,3.472 L17.217,2.852 C17.205,2.694 17.187,2.462 17.175,2.287 L17.165,2.287 C17.093,2.463 17.012,2.685 16.935,2.852 L16.648,3.472 L17.273,3.472 Z M18.685,0.785 L18.108,1.264 L17.8,1.264 L18.18,0.784 L18.685,0.784 L18.685,0.785 Z M19.285,2.347 L18.523,2.347 L18.63,1.807 L20.774,1.807 L20.671,2.347 L19.901,2.347 L19.46,4.692 L18.844,4.692 L19.285,2.347 Z M3.033,2.3 C3.033,3.48 2.464,4.908 1.273,4.908 C0.49,4.908 0.182,4.304 0.182,3.548 C0.182,2.358 0.786,1.006 1.948,1.006 C2.76,1.006 3.033,1.627 3.033,2.301 L3.033,2.3 Z M1.001,3.578 C1.001,3.858 1.047,4.246 1.378,4.246 C1.953,4.246 2.208,2.806 2.208,2.306 C2.208,2.056 2.174,1.668 1.854,1.668 C1.291,1.668 1.001,3.027 1.001,3.578 Z"></path>
                </g>
                <polygon id="Shape" fill="#D10000" points="47.41 14.59 47.203 15.62 48.2 15.62 48.108 16.064 47.115 16.064 46.907 17.104 46.444 17.104 46.649 16.064 45.655 16.064 45.74 15.62 46.736 15.62 46.939 14.59"></polygon>
            </g>
            <path d="M160.23,143.462 C160.23,143.962 160.048,144.394 159.683,144.76 C159.344533,145.114017 158.874764,145.312348 158.385,145.308 C157.885,145.308 157.452,145.125 157.087,144.76 C156.732615,144.421705 156.533913,143.951914 156.538,143.462 C156.538,142.962 156.721,142.529 157.087,142.163 C157.425467,141.808983 157.895236,141.610652 158.385,141.615 C158.885,141.615 159.317,141.798 159.683,142.163 C160.048,142.529 160.231,142.962 160.231,143.462 L160.23,143.462 Z M173.154,143.462 C173.154,143.962 172.971,144.394 172.606,144.76 C172.267533,145.114017 171.797764,145.312348 171.308,145.308 C170.808,145.308 170.375,145.125 170.01,144.76 C169.655983,144.421533 169.457652,143.951764 169.462,143.462 C169.462,142.962 169.644,142.529 170.01,142.163 C170.348467,141.808983 170.818236,141.610652 171.308,141.615 C171.808,141.615 172.24,141.798 172.606,142.163 C172.971,142.529 173.154,142.962 173.154,143.462 Z M175,127.769 L175,135.154 C175,135.384 174.92,135.589 174.762,135.767 C174.612962,135.939744 174.40459,136.050353 174.178,136.077 L159.12,137.837 C159.245,138.413 159.308,138.75 159.308,138.847 C159.308,139 159.192,139.307 158.962,139.769 L172.231,139.769 C172.481,139.769 172.697,139.861 172.88,140.043 C173.057263,140.212472 173.156451,140.447772 173.154,140.693 C173.154,140.943 173.063,141.159 172.88,141.341 C172.710528,141.518263 172.475228,141.617451 172.23,141.615 L157.462,141.615 C157.216772,141.617451 156.981472,141.518263 156.812,141.341 C156.634992,141.171767 156.535826,140.936882 156.538,140.692 C156.538,140.587 156.577,140.435 156.654,140.238 C156.731,140.041 156.808,139.868 156.884,139.718 C156.962,139.57 157.064,139.378 157.194,139.142 C157.324,138.906 157.399,138.764 157.418,138.716 L154.865,126.846 L151.923,126.846 C151.678118,126.848174 151.443233,126.749008 151.274,126.572 C151.096992,126.402767 150.997826,126.167882 151,125.923 C151,125.673 151.091,125.457 151.274,125.274 C151.443472,125.096737 151.678772,124.997549 151.924,125 L155.615,125 C155.882207,124.994686 156.137286,125.111367 156.308,125.317 C156.375,125.404 156.438,125.522 156.495,125.671 C156.553,125.82 156.591,125.945 156.611,126.046 L156.69,126.471 C156.724,126.654 156.745,126.779 156.755,126.846 L174.077,126.846 C174.327,126.846 174.543,126.937 174.726,127.12 C174.903263,127.289472 175.002451,127.524772 175,127.77 L175,127.769 Z" id="Shape" fill="#FFFFFF" fill-rule="nonzero"></path>
            <path d="M13.917,51.833 L7.25,51.833 C6.1,51.833 5.167,52.767 5.167,53.917 L5.167,68.083 C5.167,69.233 6.1,70.167 7.25,70.167 L13.917,70.167 C15.067,70.167 16,69.233 16,68.083 L16,53.917 C16,52.767 15.067,51.833 13.917,51.833 Z M10.583,69.333 C9.892,69.333 9.333,68.775 9.333,68.083 C9.333,67.392 9.892,66.833 10.583,66.833 C11.275,66.833 11.833,67.392 11.833,68.083 C11.833,68.775 11.275,69.333 10.583,69.333 Z M14.333,66 L6.833,66 L6.833,54.333 L14.333,54.333 L14.333,66 Z" id="Shape" fill="#B0B0B0" fill-rule="nonzero"></path>
            <polygon id="Shape" points="1 51 21 51 21 71 1 71"></polygon>
            <g id="Group" transform="translate(28.000000, 51.000000)">
                <g id="Clipped">
                    <mask id="mask-2" fill="white">
                        <use xlink:href="#path-1"></use>
                    </mask>
                    <g id="a"></g>
                    <path d="M16.667,15 C17.583,15 18.333,14.25 18.333,13.333 L18.333,5 C18.333,4.083 17.583,3.333 16.667,3.333 L3.333,3.333 C2.417,3.333 1.667,4.083 1.667,5 L1.667,13.333 C1.667,14.25 2.417,15 3.333,15 L0,15 L0,16.667 L20,16.667 L20,15 L16.667,15 Z M3.333,5 L16.667,5 L16.667,13.333 L3.333,13.333 L3.333,5 Z" id="Shape" fill="#B0B0B0" fill-rule="nonzero" mask="url(#mask-2)"></path>
                </g>
            </g>
            <polygon id="Shape" points="57 51 77 51 77 71 57 71"></polygon>
            <g id="Group" transform="translate(60.000000, 52.000000)" fill="#B0B0B0" fill-rule="nonzero">
                <path d="M0.816,6.738 C-0.664,9.244 0.276,13.048 1.913,15.354 C2.73,16.506 3.557,17.541 4.689,17.541 L4.754,17.541 C5.286,17.519 5.671,17.359 6.042,17.205 C6.46,17.031 6.892,16.852 7.569,16.852 C8.213,16.852 8.624,17.026 9.022,17.193 C9.414,17.359 9.817,17.53 10.414,17.519 C11.689,17.496 12.473,16.379 13.164,15.394 C13.6801849,14.653578 14.0860887,13.8421072 14.369,12.985 L14.374,12.97 C14.3971755,12.9016299 14.3641547,12.8268986 14.298,12.798 L14.287,12.794 C14.062,12.704 12.092,11.851 12.071,9.525 C12.051,7.635 13.549,6.635 13.85,6.454 L13.864,6.445 C13.8965921,6.42516094 13.9194343,6.39262876 13.9270266,6.35523637 C13.934619,6.31784398 13.9262737,6.27897932 13.904,6.248 C12.871,4.772 11.286,4.55 10.648,4.523 C10.5536143,4.51375861 10.458837,4.50908649 10.364,4.509 C9.615,4.509 8.897,4.785 8.321,5.007 C7.923,5.16 7.579,5.293 7.341,5.293 C7.075,5.293 6.729,5.159 6.329,5.003 C5.794,4.796 5.187,4.561 4.544,4.561 L4.5,4.561 C3.006,4.583 1.595,5.417 0.817,6.738 L0.816,6.738 Z" id="Shape"></path>
                <path d="M10.65,0.459 C9.745,0.495 8.66,1.039 8.011,1.779 C7.461,2.403 6.921,3.442 7.064,4.489 C7.07365303,4.55479872 7.1276789,4.60508433 7.194,4.61 C7.256,4.615 7.318,4.617 7.38,4.618 C8.265,4.618 9.219,4.14 9.87,3.371 C10.556,2.559 10.903,1.517 10.798,0.583 C10.7882288,0.509573146 10.7240034,0.455762696 10.65,0.459 Z" id="Shape"></path>
            </g>
            <g id="Group" opacity="0.9" transform="translate(122.000000, 85.000000)" fill="#FFFFFF" fill-rule="nonzero">
                <path d="M51.46,5.99 C51.46,5.99 50.558,5.452 49.999,5.244 C49.999,5.244 48.271,4.474 47.927,4.106 C47.927,4.106 47.255,3.495 47.649,2.785 C47.649,2.785 47.813,2.32 48.525,2.32 C48.525,2.32 49.452,2.37 49.452,3.103 L49.452,4.138 L52.773,4.138 L52.767,2.614 C52.767,2.614 53.022,0.118 48.855,0.008 C48.855,0.008 45.577,-0.2 44.638,1.501 C44.638,1.501 44.268,1.879 44.268,3.201 L44.268,4.155 C44.268,4.155 44.231,5.257 44.815,5.965 C44.815,5.965 45.145,6.43 45.959,6.945 C45.959,6.945 47.61,7.801 48.601,8.291 C48.601,8.291 49.601,8.841 49.47,9.716 C49.47,9.716 49.389,10.614 48.422,10.578 C48.422,10.578 47.539,10.538 47.539,9.658 L47.539,8.624 L44,8.624 L44,10.126 C44,10.126 43.9,13 48.448,13 C48.448,13 52.793,13.085 52.996,10.05 L52.996,8.828 C52.996,8.828 53.149,6.968 51.46,5.99 M34.197,0 L33.093,7.144 L32.835,7.144 L31.781,0.064 L26.275,0.064 L26,13 L29.26,13 L29.299,3.253 L29.555,3.253 L31.283,12.998 L34.712,12.998 L36.418,3.257 L36.645,3.257 L36.724,13 L40,13 L39.648,0 L34.197,0 M14.196,0 L12,13 L15.553,13 L16.853,2.92 L17.147,2.92 L18.447,13 L22,13 L19.804,0 L14.196,0 M88.533,5.918 L88.533,7.714 L89.481,7.714 L89.481,9.641 C89.481,10.582 88.609,10.6 88.609,10.6 C87.549,10.6 87.589,9.705 87.589,9.705 L87.589,3.04 C87.589,2.353 88.529,2.317 88.529,2.317 C89.432,2.317 89.439,3.135 89.439,3.135 L89.439,4.149 L92.917,4.149 C93.03,2.171 92.603,1.692 92.603,1.692 C91.74,-0.097 88.477,0.001 88.477,0.001 C83.462,0.001 84.018,3.554 84.018,3.554 L84.018,9.998 C84.126,13.331 89.067,12.993 89.151,12.988 C91.35,12.764 92.013,12.118 92.013,12.118 C92.624,11.7 92.782,11.121 92.782,11.121 C92.956,10.782 93,9.705 93,9.705 L93,5.918 L88.533,5.918 M77.807,7.911 L77.658,7.911 L74.17,0.001 L70,0.001 L70,13 L73.395,13 L73.191,5.09 L73.342,5.09 L76.955,13 L81,13 L81,0 L77.562,0 L77.807,7.911 M61.506,9.48 C61.506,9.48 61.554,10.517 60.598,10.517 C60.598,10.517 59.592,10.572 59.592,9.507 L59.582,0 L56.006,0 L56.006,9.43 C56.006,9.43 55.639,13 60.648,13 C60.648,13 65,13.052 65,9.595 L65,0 L61.506,0 L61.506,9.48 M7.459,5.99 C7.459,5.99 6.557,5.452 5.998,5.244 C5.998,5.244 4.271,4.474 3.928,4.106 C3.928,4.106 3.255,3.494 3.649,2.786 C3.649,2.786 3.814,2.321 4.524,2.321 C4.524,2.321 5.452,2.369 5.452,3.103 L5.452,4.138 L8.775,4.138 L8.768,2.613 C8.768,2.613 9.021,0.117 4.856,0.008 C4.856,0.008 4.542,-0.012 4.081,0.011 C4.081,0.011 1.558,0.141 0.655,1.474 C0.65,1.484 0.643,1.492 0.638,1.501 C0.638,1.501 0.27,1.879 0.27,3.201 L0.27,4.155 C0.27,4.155 0.231,5.256 0.816,5.965 C0.816,5.965 1.146,6.43 1.96,6.945 C1.96,6.945 3.61,7.8 4.6,8.29 C4.6,8.29 5.602,8.84 5.47,9.716 C5.47,9.716 5.389,10.614 4.423,10.578 C4.423,10.578 3.54,10.538 3.54,9.658 L3.54,8.623 L2.07760241e-16,8.623 L2.07760241e-16,10.126 C2.07760241e-16,10.126 -0.099,13 4.448,13 C4.448,13 8.793,13.085 8.996,10.05 L8.996,8.828 C8.996,8.828 9.149,6.968 7.459,5.99" id="Shape"></path>
            </g>
            <polygon id="Shape" points="86 51 106 51 106 71 86 71"></polygon>
            <path d="M103.5,54.333 L88.5,54.333 C87.583,54.333 86.833,55.083 86.833,56 L86.833,66 C86.833,66.917 87.583,67.667 88.5,67.667 L103.5,67.667 C104.417,67.667 105.158,66.917 105.158,66 L105.167,56 C105.167,55.083 104.417,54.333 103.5,54.333 Z M101.833,66 L90.167,66 L90.167,56 L101.833,56 L101.833,66 Z" id="Shape" fill="#B0B0B0" fill-rule="nonzero"></path>
            <polygon id="Shape" opacity="0.1" points="113 52 133 52 133 72 113 72"></polygon>
            <path d="M123,52.833 C118.857864,52.833 115.5,56.1908644 115.5,60.333 L115.5,66.167 C115.5,67.55 116.617,68.667 118,68.667 L120.5,68.667 L120.5,62 L117.167,62 L117.167,60.333 C117.166204,58.7857482 117.780494,57.3016391 118.874567,56.2075667 C119.968639,55.1134943 121.452748,54.4992036 123,54.5 C124.547252,54.4992036 126.031361,55.1134943 127.125433,56.2075667 C128.219506,57.3016391 128.833796,58.7857482 128.833,60.333 L128.833,62 L125.5,62 L125.5,68.667 L128,68.667 C129.383,68.667 130.5,67.55 130.5,66.167 L130.5,60.333 C130.5,56.1908644 127.142136,52.833 123,52.833 Z M152.295,54.705 C150.892842,53.2929683 148.984945,52.4992109 146.995,52.5 C145.005469,52.4999982 143.097569,53.2910203 141.691696,54.698769 C140.285823,56.1065177 139.497346,58.0154704 139.5,60.005 C139.497611,61.9943565 140.286206,63.903052 141.69205,65.3105843 C143.097894,66.7181166 145.005642,67.5090014 146.995,67.509 C150.495,67.509 153.412,65.117 154.247,61.881 L152.295,61.881 C151.502741,64.1290442 149.378564,65.6328009 146.995,65.633 C143.887884,65.6302433 141.369757,63.112116 141.367,60.005 C141.369205,56.8974935 143.887494,54.3787575 146.995,54.376 C148.553,54.376 149.941,55.023 150.954,56.046 L147.934,59.066 L154.5,59.066 L154.5,52.4999994 L152.295,54.705 Z" id="Shape" fill="#B0B0B0" fill-rule="nonzero"></path>
            <polygon id="Shape" points="137 50 157 50 157 70 137 70"></polygon>
            <path d="M177.725,54.592 C177.726111,53.7158134 177.018179,53.0038567 176.142,53 L169.775,53 L165,57.775 L165,67.325 C165,68.2 165.716,68.917 166.592,68.917 L176.15,68.917 C177.026179,68.9131433 177.734111,68.2011866 177.733,67.325 L177.725,54.592 Z M168.979,66.529 L167.387,66.529 L167.387,64.938 L168.979,64.938 L168.979,66.529 Z M175.346,66.529 L173.754,66.529 L173.754,63.346 L175.346,63.346 L175.346,66.529 Z M168.979,64.938 L167.387,64.938 L167.387,60.162 L168.979,60.162 L168.979,64.938 Z M172.162,66.529 L170.571,66.529 L170.571,61.754 L172.163,61.754 L172.163,66.529 L172.162,66.529 Z M172.162,61.754 L170.571,61.754 L170.571,60.163 L172.163,60.163 L172.163,61.754 L172.162,61.754 Z M175.346,63.346 L173.754,63.346 L173.754,60.163 L175.346,60.163 L175.346,63.346 Z" id="Shape" fill="#B0B0B0" fill-rule="nonzero"></path>
            <polygon id="Shape" points="161 51 181 51 181 71 161 71"></polygon>
            <g id="Group" transform="translate(212.000000, 51.000000)">
                <polygon id="Shape" points="0 0 20 0 20 20 0 20"></polygon>
                <path d="M10,16.466 L7.167,18.718 L6.199,15.231 L2.584,15.388 L3.851,11.998 L0.833,10 L3.851,8.002 L2.584,4.612 L6.199,4.769 L7.167,1.282 L10,3.534 L12.833,1.282 L13.801,4.769 L17.416,4.612 L16.149,8.002 L19.167,10 L16.149,11.998 L17.416,15.388 L13.801,15.231 L12.833,18.718 L10,16.466 Z M6.667,8.201 C6.667,8.743 6.787,9.149 7.027,9.417 C7.267,9.686 7.567,9.82 7.928,9.82 C8.292,9.82 8.598,9.684 8.846,9.411 C9.094,9.139 9.218,8.75 9.218,8.245 C9.218,7.727 9.095,7.335 8.85,7.067 C8.61351749,6.80393341 8.2736131,6.65773797 7.92,6.667 C7.513,6.667 7.202,6.816 6.988,7.114 C6.774,7.413 6.667,7.774 6.667,8.201 Z M7.944,12.953 L8.551,12.953 L11.801,6.667 L11.208,6.667 L7.944,12.953 Z M10.524,11.333 C10.524,11.873 10.644,12.279 10.884,12.548 C11.124,12.818 11.424,12.953 11.785,12.953 C12.152,12.953 12.459,12.817 12.707,12.544 C12.955,12.272 13.079,11.884 13.079,11.379 C13.079,10.86 12.957,10.468 12.711,10.201 C12.474702,9.93756311 12.1347719,9.79099108 11.781,9.8 C11.371,9.8 11.06,9.948 10.846,10.245 C10.631,10.542 10.524,10.905 10.524,11.334 L10.524,11.333 Z" id="Shape" fill="#B0B0B0" fill-rule="nonzero"></path>
            </g>
            <g id="Group" transform="translate(186.000000, 51.000000)">
                <polygon id="Shape" points="0 0 20 0 20 20 0 20"></polygon>
                <path d="M16.891837,4.75570391 C17.2253303,4.75570391 17.5334302,4.86276696 17.7878562,5.04211903 L17.2093528,2.42168319 C17.0744135,1.71682393 16.5733698,1.282 15.9016917,1.282 L4.03874714,1.282 C3.43796713,1.282 2.91654966,1.75031003 2.77035723,2.42105574 L2.23230611,4.85860596 C2.40202187,4.79513429 2.58305639,4.75567089 2.77413015,4.75567089 L16.891837,4.75567089 L16.891837,4.75570391 Z M15.0486839,2.11096258 C15.5469061,2.11096258 15.9506413,2.51738607 15.9506413,3.01885195 C15.9506413,3.52031784 15.5468733,3.92674133 15.0486839,3.92674133 C14.5504945,3.92674133 14.1467265,3.52031784 14.1467265,3.01885195 C14.1467265,2.51738607 14.5504616,2.11096258 15.0486839,2.11096258 Z M12.2251294,2.11096258 C12.7233516,2.11096258 13.1270868,2.51738607 13.1270868,3.01885195 C13.1270868,3.52031784 12.7233188,3.92674133 12.2251294,3.92674133 C11.72694,3.92674133 11.323172,3.52031784 11.323172,3.01885195 C11.323172,2.51738607 11.72694,2.11096258 12.2251294,2.11096258 Z M8.7349164,2.2293858 L10.3035323,2.2293858 L10.3035323,2.86096533 L8.7349164,2.86096533 L8.7349164,2.2293858 Z M8.7349164,3.49254486 L10.3035323,3.49254486 L10.3035323,4.12412438 L8.7349164,4.12412438 L8.7349164,3.49254486 Z M2.77413015,19.282 C2.2552389,19.282 1.83296719,18.8569511 1.833,18.3346472 L1.833,6.33463621 C1.833,6.12084035 1.90642429,5.92537268 2.02564855,5.76652837 C2.04854853,5.73621255 2.07144851,5.70589673 2.09779333,5.67842096 C2.14516808,5.6291495 2.19661101,5.58463346 2.25340165,5.54642496 C2.31862395,5.50253638 2.39109681,5.47000797 2.46671924,5.44348989 C2.47895662,5.58747351 2.51596404,5.73023525 2.57337803,5.86791133 C2.64739287,6.0460085 2.75437974,6.2152553 2.88584138,6.36495203 C2.90746185,6.38958776 2.92911512,6.41356301 2.95171983,6.43694384 C3.25758877,6.75241988 3.66890261,6.96621574 4.0767388,6.96621574 L16.2166485,6.96621574 C16.693808,6.96621574 17.0467564,6.69971395 17.264175,6.32548863 C17.2801853,6.29801286 17.2946208,6.26928218 17.3090235,6.2405515 C17.3746067,6.11136253 17.4250982,5.9718041 17.4599403,5.82716 C17.4765739,5.75800823 17.4903861,5.68822902 17.499802,5.61749211 C17.532446,5.64559533 17.5635151,5.6752837 17.5920581,5.70781211 C17.6425496,5.76494322 17.6852328,5.82782048 17.7209935,5.89601455 C17.735429,5.92349033 17.7514065,5.95030562 17.7630205,5.97936654 C17.8072785,6.08926963 17.833,6.20894776 17.833,6.33463621 L17.833,18.3346142 C17.833,18.8569511 17.4106955,19.282 16.8918042,19.282 L2.77413015,19.282 Z M9.88536156,8.30833462 C7.2039313,8.30833462 5.02262611,10.5040188 5.02262611,13.2030842 C5.02262611,15.9021496 7.2039641,18.0978338 9.88536156,18.0978338 C12.5668246,18.0978338 14.7481298,15.9021496 14.7481298,13.2030842 C14.7481298,10.5040188 12.5667918,8.30833462 9.88536156,8.30833462 Z M4.0767388,6.33463621 C3.6302876,6.33463621 3.12832527,5.84010532 3.09413934,5.38728344 L16.8890156,5.38728344 C16.8758595,5.74222287 16.7171017,6.19412009 16.3817055,6.30749068 C16.3305907,6.32486118 16.2759982,6.33463621 16.2167141,6.33463621 L16.1075291,6.33463621 L4.0767388,6.33463621 Z M9.88536156,17.150448 C7.72285536,17.150448 5.96378907,15.3798127 5.96378907,13.2030842 C5.96378907,11.0263557 7.72285536,9.25572042 9.88536156,9.25572042 C12.0479006,9.25572042 13.806934,11.0263557 13.806934,13.2030842 C13.806934,15.3798127 12.0479006,17.150448 9.88536156,17.150448 Z M11.7806138,11.1176004 C11.5170344,11.1176004 11.3037168,11.3326511 11.3034215,11.597898 C11.3034215,11.8631779 11.5170672,12.0782287 11.7806138,12.0782287 C12.0441277,12.0782287 12.2577733,11.8631779 12.2577733,11.597898 C12.2577733,11.3326511 12.0441277,11.1176004 11.7806138,11.1176004 Z M10.2119652,10.1702146 C9.94841853,10.1702146 9.73510094,10.3852653 9.73477286,10.6505122 C9.73477286,10.9157921 9.94841853,11.1308429 10.2119652,11.1308429 C10.475479,11.1308429 10.6891246,10.9157921 10.6891246,10.6505122 C10.6891246,10.3852653 10.475479,10.1702146 10.2119652,10.1702146 Z M6.99940625,12.7524419 C6.97680154,12.8995958 6.9614474,13.0492595 6.96207075,13.2033814 C6.96207075,14.8287121 8.27094573,16.1461953 9.88568964,16.1461953 C11.5004007,16.1461953 12.8093085,14.8287451 12.8093085,13.2033814 C12.8093085,12.904021 12.7641319,12.6156905 12.681587,12.3434756 C12.5127899,12.6785017 12.1322827,13.1133586 11.2899046,13.098531 C11.1311468,13.0956909 10.9934516,13.0802358 10.8688796,13.0562275 C11.0539824,12.9472821 11.1794729,12.7473893 11.1794729,12.5159257 C11.1794729,12.1688789 10.8999816,11.8875164 10.5551696,11.8875164 C10.2104232,11.8875164 9.93086625,12.1688459 9.93086625,12.5159257 C9.93086625,12.5446564 9.9355906,12.5721321 9.93936352,12.5999051 C9.64163096,12.3782166 9.34767133,12.164751 8.75345291,12.1590709 C7.94276735,12.1511782 7.32725655,12.5073725 6.99940625,12.7524419 Z" id="Combined-Shape" fill="#B0B0B0" fill-rule="nonzero"></path>
            </g>
            <g id="Group" fill-rule="nonzero">
                <path d="M61.771,30.814 C61.8173092,29.4874361 62.906128,28.4359637 64.2335,28.4359637 C65.560872,28.4359637 66.6496908,29.4874361 66.696,30.814 C66.6954515,32.1730413 65.5950386,33.2752434 64.236,33.278 C62.8754652,33.276898 61.772654,32.1745343 61.771,30.814 Z M66.098,30.814 C66.098,29.664 65.264,28.83 64.235,28.83 C63.205,28.83 62.374,29.663 62.374,30.814 C62.374,31.968 63.204,32.802 64.235,32.802 C65.265,32.802 66.098,31.968 66.098,30.814 Z M63.285,29.41 L64.324,29.41 C64.989,29.41 65.354,29.643 65.354,30.23 C65.354,30.707 65.08,30.938 64.624,30.98 L65.372,32.2 L64.842,32.2 L64.122,30.999 L63.805,30.999 L63.805,32.199 L63.285,32.199 L63.285,29.41 Z M63.805,30.605 L64.265,30.605 C64.566,30.605 64.836,30.562 64.836,30.188 C64.836,29.858 64.537,29.805 64.268,29.805 L63.806,29.805 L63.806,30.605 L63.805,30.605 Z M12.906,6.699 C9.23207305,6.69904522 5.99342631,9.1096358 4.939,12.629 L4.759,13.342 L0.142,33.335 L11.77,33.335 C15.1495254,33.335373 18.1690055,31.2235746 19.328,28.049 L19.767,26.145 L24.257,6.699 L12.906,6.699 Z" id="Shape" fill="#034EA2"></path>
                <path d="M34.842,0.04 C30.8206681,0.0418994263 27.3763855,2.91999283 26.66,6.877 L19.013,39.997 L30.365,39.997 C34.253,39.997 37.518,37.324 38.425,33.715 L38.425,33.717 L38.43,33.717 L46.205,0.039 L34.842,0.039 L34.842,0.04 Z" id="Shape" fill="#F37021"></path>
                <path d="M53.72,6.699 C50.2673532,6.69940154 47.1741775,8.83342213 45.948,12.061 C45.888,12.221 45.676,12.884 45.676,12.884 L40.955,33.334 L52.308,33.334 C56.127982,33.3338031 59.4565373,30.7311781 60.378,27.024 L60.378,27.025 L65.07,6.7 L53.72,6.7 L53.72,6.699 Z" id="Shape" fill="#51B848"></path>
                <path d="M7.842,14.078 C7.2,14.605 6.789,15.251 6.669,15.768 L4.269,26.608 L4.403,26.606 C5.151,26.606 5.856,26.341 6.493,25.816 C7.133,25.291 7.54,24.648 7.703,23.904 L8.317,21.15 L13.472,21.15 C14.217,21.15 14.926,20.885 15.572,20.36 C16.218,19.832 16.629,19.187 16.789,18.44 L16.818,18.3 L8.955,18.3 L9.435,16.133 L16.885,16.133 C17.636,16.133 18.337,15.87 18.978,15.347 C19.5840208,14.8588031 20.0092624,14.1818662 20.186,13.424 L20.216,13.285 L9.932,13.285 C9.184,13.285 8.479,13.551 7.842,14.078 Z M60.336,13.929 C59.921,13.513 59.382,13.304 58.731,13.304 L48.453,13.304 L48.434,13.394 C48.3965369,13.5803666 48.3771139,13.7699086 48.376,13.96 C48.376,14.588 48.583,15.116 48.997,15.53 C49.412,15.944 49.95,16.154 50.604,16.154 L52.823,16.154 L50.594,26.609 L50.734,26.609 C51.481,26.609 52.18,26.346 52.818,25.822 C53.453,25.3 53.853,24.657 54.008,23.911 L55.656,16.154 L60.882,16.154 L60.898,16.064 C60.938,15.872 60.956,15.675 60.956,15.478 C60.956,14.861 60.746,14.341 60.336,13.928 L60.336,13.929 Z M37.782,13.286 L30.833,13.286 L30.835,13.278 L27.98,13.278 L25.148,26.608 L25.285,26.608 C26.031,26.608 26.733,26.343 27.369,25.818 C28.004,25.293 28.404,24.65 28.561,23.906 L29.137,21.166 L36.151,21.166 C36.897,21.166 37.597,20.901 38.236,20.382 C38.869,19.862 39.276,19.212 39.443,18.454 L39.973,16.045 C40.0098771,15.8518531 40.0282934,15.6556356 40.028,15.459 C40.028,14.845 39.817,14.322 39.397,13.909 C38.977,13.495 38.433,13.286 37.782,13.286 Z M30.219,16.136 L37.099,16.136 L36.627,18.316 L29.74,18.316 L30.218,16.136 L30.219,16.136 Z" id="Shape" fill="#FFFFFF"></path>
                <g transform="translate(72.000000, 13.000000)" fill="#FFFFFF" id="Shape">
                    <path d="M0.65,10.137 C1.397,10.515 2.592,10.891 3.804,10.891 C5.109,10.891 5.803,10.37 5.803,9.581 C5.803,8.826 5.205,8.396 3.693,7.891 C1.603,7.174 0.221,6.061 0.221,4.3 C0.221,2.234 2.031,0.673 4.982,0.673 C6.418,0.673 7.447,0.942 8.193,1.282 L7.556,3.475 C6.73893974,3.09028709 5.84608411,2.89346931 4.943,2.899 C3.71,2.899 3.113,3.455 3.113,4.067 C3.113,4.839 3.805,5.18 5.448,5.773 C7.668,6.563 8.697,7.679 8.697,9.384 C8.697,11.412 7.09,13.137 3.636,13.137 C2.198,13.137 0.781,12.759 0.069,12.381 L0.649,10.137 L0.65,10.137 Z M10.468,0.188 L13.307,0.188 L13.307,5.236 L13.343,5.236 C13.6368089,4.84348099 14.0214827,4.52812391 14.464,4.317 C14.894,4.103 15.416,3.977 15.938,3.977 C17.749,3.977 19.131,5.18 19.131,7.839 L19.131,12.957 L16.293,12.957 L16.293,8.127 C16.293,6.977 15.883,6.187 14.82,6.187 C14.07,6.187 13.607,6.655 13.4,7.157 C13.324,7.317 13.307,7.552 13.307,7.748 L13.307,12.957 L10.467,12.957 L10.467,0.187 L10.468,0.188 Z M25.61,13.156 C22.94,13.156 20.886,11.466 20.886,8.632 C20.886,5.792 22.829,3.977 25.776,3.977 C28.559,3.977 30.425,5.827 30.425,8.485 C30.425,11.685 28.055,13.155 25.627,13.155 L25.61,13.155 L25.61,13.156 Z M25.683,11.199 C26.805,11.199 27.492,10.137 27.492,8.555 C27.492,7.264 26.972,5.934 25.682,5.934 C24.339,5.934 23.818,7.264 23.818,8.575 C23.818,10.065 24.468,11.199 25.665,11.199 L25.683,11.199 Z M32.181,7.12 C32.181,5.97 32.143,5 32.106,4.175 L34.571,4.175 L34.697,5.396 L34.737,5.396 C35.409,4.479 36.455,3.977 37.782,3.977 C39.778,3.977 41.568,5.648 41.568,8.449 C41.568,11.646 39.461,13.156 37.426,13.156 C36.324,13.156 35.467,12.725 35.055,12.149 L35.015,12.149 L35.015,16.513 L32.181,16.513 L32.181,7.12 Z M35.015,9.186 C35.015,9.401 35.037,9.581 35.073,9.761 C35.2624382,10.5227757 35.9480301,11.0563811 36.733,11.053 C37.966,11.053 38.695,10.065 38.695,8.575 C38.695,7.174 38.041,6.115 36.773,6.115 C35.969,6.115 35.261,6.691 35.073,7.497 C35.0346395,7.65581938 35.0151714,7.81861368 35.015,7.982 L35.015,9.186 Z"></path>
                    <path d="M43.617,13.052 C43.09,13.052 42.707,12.666 42.707,12.138 C42.707,11.593 43.09,11.216 43.635,11.216 C44.172,11.216 44.543,11.584 44.553,12.138 C44.553,12.667 44.183,13.052 43.627,13.052 L43.617,13.052 Z M49.29,12.813 C49.01,12.943 48.482,13.042 47.885,13.042 C46.257,13.042 45.215,12.078 45.215,10.56 C45.215,9.152 46.227,7.99 48.103,7.99 C48.516,7.99 48.968,8.06 49.298,8.178 L49.051,9.3 C48.866,9.22 48.587,9.153 48.176,9.153 C47.349,9.153 46.812,9.718 46.824,10.501 C46.824,11.394 47.442,11.861 48.205,11.861 C48.578,11.861 48.866,11.801 49.104,11.701 L49.291,12.813 L49.29,12.813 Z M52.363,13.052 C50.887,13.052 49.753,12.12 49.753,10.549 C49.753,8.981 50.825,7.98 52.456,7.98 C53.993,7.98 55.025,9.002 55.025,10.471 C55.025,12.236 53.713,13.052 52.373,13.052 L52.363,13.052 Z M52.403,11.97 C53.025,11.97 53.405,11.384 53.405,10.511 C53.405,9.796 53.116,9.063 52.403,9.063 C51.662,9.063 51.374,9.796 51.374,10.52 C51.374,11.344 51.734,11.97 52.392,11.97 L52.403,11.97 Z M55.995,9.637 C55.995,9.034 55.972,8.525 55.955,8.09 L57.285,8.09 L57.345,8.754 L57.377,8.754 C57.594,8.437 58.049,7.98 58.904,7.98 C59.564,7.98 60.071,8.308 60.288,8.814 L60.306,8.814 C60.501,8.555 60.719,8.359 60.968,8.216 C61.263055,8.05783628 61.5932432,7.97666501 61.928,7.98 C62.896,7.98 63.628,8.635 63.628,10.084 L63.628,12.944 L62.103,12.944 L62.103,10.313 C62.103,9.608 61.863,9.2 61.359,9.2 C60.99,9.2 60.739,9.439 60.626,9.73 C60.596,9.836 60.576,9.986 60.576,10.105 L60.576,12.943 L59.046,12.943 L59.046,10.222 C59.046,9.617 58.822,9.2 58.316,9.2 C57.916,9.2 57.676,9.498 57.584,9.736 C57.5367475,9.85966045 57.5156369,9.9917721 57.522,10.124 L57.522,12.944 L55.995,12.944 L55.995,9.637 Z M65.66,13.052 C65.136,13.052 64.753,12.666 64.753,12.138 C64.753,11.593 65.136,11.216 65.683,11.216 C66.219,11.216 66.589,11.584 66.601,12.138 C66.601,12.667 66.227,13.052 65.671,13.052 L65.661,13.052 L65.66,13.052 Z M68.715,8.09 L69.395,10.34 C69.517,10.749 69.601,11.136 69.684,11.522 L69.714,11.522 C69.796,11.126 69.879,10.762 69.994,10.341 L70.642,8.091 L72.294,8.091 L70.416,12.943 L68.849,12.943 L67.011,8.09 L68.715,8.09 Z M73.016,9.637 C73.016,9.034 72.996,8.525 72.974,8.09 L74.335,8.09 L74.41,8.766 L74.44,8.766 C74.646,8.446 75.152,7.98 75.997,7.98 C77.029,7.98 77.802,8.643 77.802,10.074 L77.802,12.944 L76.235,12.944 L76.235,10.254 C76.235,9.627 76.009,9.2 75.439,9.2 C75.006,9.2 74.749,9.487 74.636,9.767 C74.593,9.867 74.583,10.005 74.583,10.143 L74.583,12.943 L73.016,12.943 L73.016,9.637 Z"></path>
                </g>
            </g>
            <g id="Group" opacity="0.567" transform="translate(101.000000, 89.000000)" fill="#9B9B9B" fill-rule="nonzero">
                <polygon id="Shape" points="4.39 4.33 7.784 0.937 8.632 1.785 4.39 6.028 3.541 5.179 0.147 1.785 0.996 0.937 4.39 4.331"></polygon>
            </g>
            <g id="Group" transform="translate(4.000000, 80.000000)" fill="#FFFFFF" fill-rule="nonzero">
                <path d="M22.462,18.862 L17.682,14.082 C17.657,14.057 17.627,14.039 17.6,14.016 C20.1500748,10.1399309 19.3537919,4.96293747 15.7567748,2.03236396 C12.1597576,-0.898209563 6.92865955,-0.631863655 3.64789795,2.64889795 C0.367136345,5.92965955 0.100790437,11.1607576 3.03136396,14.7577748 C5.96193747,18.3547919 11.1389309,19.1510748 15.015,16.601 C15.039,16.627 15.057,16.657 15.082,16.682 L19.862,21.462 C20.5847276,22.1510704 21.7252779,22.137477 22.4313774,21.4313774 C23.137477,20.7252779 23.1510704,19.5847276 22.462,18.862 Z M10.045,14.954 C7.90800571,14.9933169 5.91629925,13.875746 4.83629098,12.0313294 C3.75628271,10.1869128 3.75628271,7.90308719 4.83629098,6.0586706 C5.91629925,4.21425401 7.90800571,3.09668306 10.045,3.136 C13.2660799,3.19526221 15.8462848,5.82337503 15.8462848,9.045 C15.8462848,12.266625 13.2660799,14.8947378 10.045,14.954 Z" id="Shape"></path>
            </g>
            <g id="Group" transform="translate(97.000000, 116.000000)" fill-rule="nonzero">
                <circle id="Oval" stroke="#E3E3E3" fill="#FFFFFF" cx="18" cy="18" r="18"></circle>
                <polygon id="Shape" fill="#8B8B8B" points="21.204 18.098 13.371 10.266 15.329 8.308 25.119 18.098 23.162 20.057 15.329 27.889 13.371 25.931"></polygon>
            </g>
            <g id="Group" transform="translate(75.000000, 134.000000) rotate(-180.000000) translate(-75.000000, -134.000000) translate(57.000000, 116.000000)" fill-rule="nonzero">
                <circle id="Oval" stroke="#E3E3E3" fill="#FFFFFF" cx="18" cy="18" r="18"></circle>
                <polygon id="Shape" fill="#8B8B8B" points="21.204 18.098 13.371 10.266 15.329 8.308 25.119 18.098 23.162 20.057 15.329 27.889 13.371 25.931"></polygon>
            </g>
            <g id="Group" transform="translate(5.000000, 122.000000)" fill="#B0B0B0" fill-rule="nonzero">
                <g id="Shape">
                    <path d="M10,0 C8.385,0 7.031,1.314 7.031,2.93 C7.031,4.545 8.385,5.86 10,5.86 C11.6175089,5.85834639 12.9283464,4.54750887 12.93,2.93 C12.9283464,1.31249113 11.6175089,0.00165361405 10,-1.42108547e-14 Z M10,4.688 C9.02954031,4.68689783 8.24310217,3.90045969 8.242,2.93 C8.242,1.96 9.031,1.172 10,1.172 C10.97,1.172 11.758,1.96 11.758,2.93 C11.7563471,3.90006914 10.9700699,4.68589906 10,4.687 L10,4.688 Z"></path>
                    <path d="M19.313,8.89 C19.1673301,8.73156498 18.9465328,8.66573222 18.7378838,8.71852383 C18.5292348,8.77131543 18.3663154,8.93423478 18.3135238,9.14288378 C18.2607322,9.35153279 18.326565,9.57233015 18.485,9.718 C18.8186838,10.0536441 18.9179655,10.556939 18.736739,10.9941561 C18.5555125,11.4313732 18.1292869,11.7168453 17.656,11.718 L17.626,11.718 C17.329,8.438 14.528,5.859 11.172,5.859 L8.242,5.859 C7.882,5.859 7.475,5.897 7.066,5.976 C6.29887751,5.15489893 5.22569194,4.68854839 4.102,4.688 C3.77875126,4.68799953 3.51655162,4.94975173 3.516,5.273 L3.516,7.911 C2.81455111,8.65784758 2.30195158,9.56166855 2.021,10.547 L1.758,10.547 C0.78754031,10.5481022 0.00110216994,11.3345403 8.8817842e-16,12.305 L8.8817842e-16,13.555 C8.8817842e-16,14.524 0.789,15.312 1.758,15.312 C1.76,15.314 2.152,15.312 2.462,15.314 C2.862,16.096 3.42,16.792 4.099,17.353 C4.102,18.136 4.102,19.414 4.102,19.414 C4.102,19.738 4.364,20 4.687,20 L7.031,20 C7.355,20 7.656,19.738 7.656,19.414 L7.656,18.802 C7.851,18.82 8.046,18.828 8.242,18.828 L11.172,18.828 L11.172,19.414 C11.172,19.738 11.434,20 11.758,20 L14.141,20 C14.4646389,20 14.727,19.7376389 14.727,19.414 L14.729,17.784 C16.379,16.707 17.439,14.844 17.619,12.891 L17.656,12.891 C18.9500984,12.8898972 19.9988972,11.8410984 20,10.547 C20,9.921 19.756,9.333 19.313,8.89 Z M4.682,11.73 C4.35634154,11.7278257 4.09272484,11.4646543 4.09,11.139 C4.09,10.815 4.358,10.547 4.682,10.547 C5.006,10.547 5.273,10.815 5.273,11.139 C5.27081907,11.4644926 5.00749264,11.7278191 4.682,11.73 Z M12.344,9.375 L7.656,9.375 C7.332,9.375 7.031,9.113 7.031,8.789 C7.031,8.465 7.332,8.203 7.656,8.203 L12.344,8.203 C12.6676389,8.203 12.93,8.46536114 12.93,8.789 C12.93,9.11263886 12.6676389,9.375 12.344,9.375 Z"></path>
                </g>
            </g>
        </g>
    </g>
</svg>