<svg width="48" height="48" viewBox="0 0 48 48" fill="none" xmlns="http://www.w3.org/2000/svg">
<path d="M5.66673 34.6696H9.3334C9.3334 33.4571 9.79697 32.2942 10.6221 31.4368C11.4473 30.5794 12.5664 30.0977 13.7334 30.0977C14.9004 30.0977 16.0195 30.5794 16.8447 31.4368C17.6698 32.2942 18.1334 33.4571 18.1334 34.6696H29.1334V11.8101C29.1334 11.0018 28.8244 10.2265 28.2742 9.65493C27.7241 9.08333 26.978 8.76221 26.2001 8.76221H5.66673C4.88876 8.76221 4.14266 9.08333 3.59255 9.65493C3.04245 10.2265 2.7334 11.0018 2.7334 11.8101V31.6217C2.7334 32.4301 3.04245 33.2053 3.59255 33.7769C4.14266 34.3485 4.88876 34.6696 5.66673 34.6696Z" fill="#AABCEB"/>
<path d="M29.1328 34.6699H32.7995C32.7995 33.4574 33.263 32.2945 34.0882 31.4371C34.9134 30.5797 36.0325 30.098 37.1995 30.098C38.3664 30.098 39.4856 30.5797 40.3108 31.4371C41.1359 32.2945 41.5995 33.4574 41.5995 34.6699H43.7995C44.1885 34.6699 44.5615 34.5094 44.8366 34.2236C45.1116 33.9378 45.2661 33.5502 45.2661 33.146V27.8121C45.2661 27.0037 44.9571 26.2285 44.407 25.6569C43.8569 25.0853 43.1108 24.7642 42.3328 24.7642H29.1328V34.6699Z" fill="#AABCEB"/>
<path d="M13.7333 36.1939C14.5433 36.1939 15.1999 35.5116 15.1999 34.67C15.1999 33.8283 14.5433 33.146 13.7333 33.146C12.9233 33.146 12.2666 33.8283 12.2666 34.67C12.2666 35.5116 12.9233 36.1939 13.7333 36.1939Z" fill="#AABCEB"/>
<path d="M37.2001 36.1939C38.0101 36.1939 38.6667 35.5116 38.6667 34.67C38.6667 33.8283 38.0101 33.146 37.2001 33.146C36.39 33.146 35.7334 33.8283 35.7334 34.67C35.7334 35.5116 36.39 36.1939 37.2001 36.1939Z" fill="#AABCEB"/>
<path d="M12.2667 8H5.66667C4.69458 8.00126 3.76265 8.40307 3.07528 9.11729C2.38791 9.83152 2.00121 10.7999 2 11.8099V31.6215C2.00121 32.6315 2.38791 33.5999 3.07528 34.3141C3.76265 35.0283 4.69458 35.4301 5.66667 35.4314H8.65867C8.83429 36.6998 9.44403 37.8599 10.3761 38.699C11.3082 39.5381 12.5001 40 13.7333 40C14.9666 40 16.1585 39.5381 17.0906 38.699C18.0226 37.8599 18.6324 36.6998 18.808 35.4314H32.1253C32.301 36.6998 32.9107 37.8599 33.8428 38.699C34.7748 39.5381 35.9668 40 37.2 40C38.4333 40 39.6252 39.5381 40.5572 38.699C41.4893 37.8599 42.099 36.6998 42.2747 35.4314H43.8C44.3835 35.4314 44.9431 35.1906 45.3556 34.7619C45.7682 34.3332 46 33.7517 46 33.1455V27.8116C45.9988 26.8015 45.6121 25.8332 44.9247 25.1189C44.2373 24.4047 43.3054 24.0029 42.3333 24.0016H42.0968L38.619 14.9674C38.3488 14.2589 37.8795 13.6515 37.2722 13.2242C36.665 12.7969 35.9479 12.5696 35.2145 12.5719H29.8667V11.8099C29.8655 10.7999 29.4788 9.83152 28.7914 9.11729C28.104 8.40307 27.1721 8.00126 26.2 8H12.2667ZM35.2145 14.0959C35.6545 14.0944 36.0847 14.2308 36.4491 14.4871C36.8134 14.7435 37.0949 15.1081 37.2568 15.5332L40.5165 24.0016H29.8667V14.0959H35.2145ZM13.7333 38.4793C13.0081 38.4793 12.2992 38.2559 11.6962 37.8372C11.0933 37.4186 10.6233 36.8236 10.3458 36.1274C10.0683 35.4312 9.99564 34.6652 10.1371 33.9261C10.2786 33.1871 10.6278 32.5082 11.1406 31.9754C11.6534 31.4426 12.3067 31.0797 13.018 30.9327C13.7293 30.7857 14.4665 30.8612 15.1365 31.1495C15.8065 31.4379 16.3792 31.9262 16.7821 32.5527C17.185 33.1793 17.4 33.9159 17.4 34.6694C17.4 35.1697 17.3052 35.6652 17.1209 36.1274C16.9366 36.5896 16.6665 37.0097 16.3261 37.3634C15.9856 37.7172 15.5814 37.9979 15.1365 38.1893C14.6916 38.3808 14.2148 38.4793 13.7333 38.4793ZM28.4 33.9074H18.808C18.6324 32.6391 18.0226 31.479 17.0906 30.6398C16.1585 29.8007 14.9666 29.3388 13.7333 29.3388C12.5001 29.3388 11.3082 29.8007 10.3761 30.6398C9.44403 31.479 8.83429 32.6391 8.65867 33.9074H5.66667C5.08319 33.9074 4.52361 33.6666 4.11103 33.2379C3.69845 32.8092 3.46667 32.2278 3.46667 31.6215V11.8099C3.46667 11.2036 3.69845 10.6222 4.11103 10.1935C4.52361 9.76481 5.08319 9.52397 5.66667 9.52397H26.2C26.7835 9.52397 27.3431 9.76481 27.7556 10.1935C28.1682 10.6222 28.4 11.2036 28.4 11.8099V33.9074ZM37.2 38.4793C36.4748 38.4793 35.7659 38.2559 35.1629 37.8372C34.5599 37.4186 34.09 36.8236 33.8124 36.1274C33.5349 35.4312 33.4623 34.6652 33.6038 33.9261C33.7453 33.1871 34.0945 32.5082 34.6073 31.9754C35.1201 31.4426 35.7734 31.0797 36.4847 30.9327C37.1959 30.7857 37.9332 30.8612 38.6032 31.1495C39.2732 31.4379 39.8458 31.9262 40.2487 32.5527C40.6516 33.1793 40.8667 33.9159 40.8667 34.6694C40.8667 35.6799 40.4804 36.6489 39.7927 37.3634C39.1051 38.0779 38.1725 38.4793 37.2 38.4793ZM44.5333 33.1455C44.5333 33.3475 44.4561 33.5414 44.3185 33.6843C44.181 33.8272 43.9945 33.9074 43.8 33.9074H42.2747C42.099 32.6391 41.4893 31.479 40.5572 30.6398C39.6252 29.8007 38.4333 29.3388 37.2 29.3388C35.9668 29.3388 34.7748 29.8007 33.8428 30.6398C32.9107 31.479 32.301 32.6391 32.1253 33.9074H29.8667V25.5256H42.3333C42.9168 25.5256 43.4764 25.7665 43.889 26.1952C44.3015 26.6239 44.5333 27.2053 44.5333 27.8116V33.1455Z" fill="#325DCD"/>
<path d="M13.7332 32.3833C13.2981 32.3833 12.8727 32.5174 12.5109 32.7686C12.1492 33.0197 11.8672 33.3768 11.7007 33.7945C11.5342 34.2122 11.4906 34.6718 11.5755 35.1152C11.6604 35.5587 11.8699 35.966 12.1776 36.2857C12.4852 36.6054 12.8772 36.8231 13.304 36.9113C13.7308 36.9995 14.1731 36.9542 14.5751 36.7812C14.9771 36.6082 15.3207 36.3152 15.5624 35.9393C15.8042 35.5633 15.9332 35.1214 15.9332 34.6693C15.9332 34.063 15.7014 33.4815 15.2888 33.0528C14.8763 32.6241 14.3167 32.3833 13.7332 32.3833ZM13.7332 35.4312C13.5882 35.4312 13.4464 35.3865 13.3258 35.3028C13.2052 35.2191 13.1112 35.1001 13.0557 34.9609C13.0002 34.8216 12.9857 34.6684 13.014 34.5206C13.0423 34.3728 13.1121 34.237 13.2147 34.1304C13.3172 34.0239 13.4479 33.9513 13.5901 33.9219C13.7324 33.8925 13.8798 33.9076 14.0138 33.9653C14.1478 34.0229 14.2624 34.1206 14.3429 34.2459C14.4235 34.3712 14.4665 34.5185 14.4665 34.6693C14.4665 34.8713 14.3893 35.0652 14.2517 35.2081C14.1142 35.351 13.9277 35.4312 13.7332 35.4312Z" fill="#325DCD"/>
<path d="M37.2 32.3833C36.7649 32.3833 36.3395 32.5174 35.9777 32.7686C35.616 33.0197 35.334 33.3768 35.1675 33.7945C35.001 34.2122 34.9574 34.6718 35.0423 35.1152C35.1272 35.5587 35.3367 35.966 35.6444 36.2857C35.952 36.6054 36.344 36.8231 36.7708 36.9113C37.1976 36.9995 37.6399 36.9542 38.0419 36.7812C38.4439 36.6082 38.7875 36.3152 39.0292 35.9393C39.271 35.5633 39.4 35.1214 39.4 34.6693C39.4 34.063 39.1682 33.4815 38.7556 33.0528C38.3431 32.6241 37.7835 32.3833 37.2 32.3833ZM37.2 35.4312C37.055 35.4312 36.9132 35.3865 36.7926 35.3028C36.672 35.2191 36.578 35.1001 36.5225 34.9609C36.467 34.8216 36.4525 34.6684 36.4808 34.5206C36.5091 34.3728 36.5789 34.237 36.6815 34.1304C36.784 34.0239 36.9147 33.9513 37.0569 33.9219C37.1992 33.8925 37.3466 33.9076 37.4806 33.9653C37.6146 34.0229 37.7292 34.1206 37.8098 34.2459C37.8903 34.3712 37.9333 34.5185 37.9333 34.6693C37.9333 34.8713 37.8561 35.0652 37.7186 35.2081C37.581 35.351 37.3945 35.4312 37.2 35.4312Z" fill="#325DCD"/>
<path d="M31.3164 18.6363C31.0798 18.3086 31.145 17.8525 31.4638 17.604L33.2111 16.2423C33.5469 15.9806 34.0329 16.05 34.2821 16.3952C34.5186 16.7229 34.4535 17.179 34.1347 17.4275L32.3874 18.7892C32.0516 19.0509 31.5656 18.9815 31.3164 18.6363Z" fill="#325DCD"/>
<path d="M31.3164 21.6854C31.0798 21.3577 31.145 20.9016 31.4638 20.6531L36.1444 17.0055C36.4803 16.7438 36.9662 16.8132 37.2154 17.1584C37.452 17.4861 37.3869 17.9422 37.0681 18.1907L32.3874 21.8383C32.0516 22.1 31.5656 22.0307 31.3164 21.6854Z" fill="#325DCD"/>
</svg>
