<svg width="49" height="48" viewBox="0 0 49 48" fill="none" xmlns="http://www.w3.org/2000/svg">
<path d="M40.8997 23.9849C41.2683 23.9859 41.6323 24.0665 41.9668 24.2213C42.3013 24.376 42.5985 24.6011 42.838 24.8813C43.0775 25.1615 43.2536 25.4901 43.3543 25.8446C43.4551 26.1992 43.478 26.5713 43.4217 26.9355C42.8471 30.6051 41.2086 34.0255 38.7091 36.7729C36.2096 39.5203 32.9589 41.4741 29.3599 42.3921C25.7608 43.3101 21.9715 43.152 18.4615 41.9374C14.9514 40.7228 11.8748 38.5051 9.61278 35.5591V39.0543C9.61278 39.5751 9.4059 40.0745 9.03765 40.4428C8.6694 40.811 8.16995 41.0179 7.64916 41.0179C7.12838 41.0179 6.62893 40.811 6.26068 40.4428C5.89243 40.0745 5.68555 39.5751 5.68555 39.0543V27.9271H16.8127C17.3335 27.9271 17.8329 28.134 18.2012 28.5023C18.5694 28.8705 18.7763 29.37 18.7763 29.8908C18.7763 30.4115 18.5694 30.911 18.2012 31.2792C17.8329 31.6475 17.3335 31.8544 16.8127 31.8544H13.396C15.0147 34.1799 17.3113 35.9495 19.9727 36.9218C22.6341 37.894 25.5306 38.0216 28.2671 37.287C30.8283 36.6278 33.1389 35.2298 34.9112 33.2669C36.6835 31.3041 37.8393 28.8632 38.2344 26.2483C38.3245 25.622 38.6366 25.0489 39.1138 24.6335C39.591 24.218 40.2016 23.9878 40.8343 23.9849H40.8997Z" fill="#AABCEB"/>
<path d="M41.6855 6.98258C41.1647 6.98258 40.6653 7.18946 40.297 7.5577C39.9288 7.92595 39.7219 8.42541 39.7219 8.94619V12.4414C37.465 9.50116 34.3966 7.28602 30.8954 6.06933C27.3942 4.85264 23.6133 4.68766 20.0194 5.59475C16.4256 6.50183 13.1759 8.44129 10.6714 11.1738C8.16699 13.9063 6.51735 17.3122 5.9261 20.9714C5.87453 21.3114 5.89043 21.6582 5.97289 21.992C6.05535 22.3259 6.20277 22.6402 6.40671 22.9171C6.61066 23.194 6.86714 23.428 7.16152 23.6058C7.4559 23.7835 7.78241 23.9015 8.1224 23.9531C8.4624 24.0047 8.80922 23.9888 9.14308 23.9063C9.47693 23.8239 9.79127 23.6765 10.0681 23.4725C10.345 23.2686 10.579 23.0121 10.7568 22.7177C10.9345 22.4233 11.0526 22.0968 11.1042 21.7568C11.5494 19.0596 12.7891 16.5565 14.6646 14.5677C16.5402 12.5789 18.9664 11.1947 21.6329 10.5923C24.2994 9.9899 27.085 10.1966 29.6334 11.1859C32.1818 12.1753 34.3771 13.9023 35.9386 16.1461H32.522C32.0012 16.1461 31.5017 16.353 31.1335 16.7212C30.7652 17.0895 30.5583 17.5889 30.5583 18.1097C30.5583 18.6305 30.7652 19.13 31.1335 19.4982C31.5017 19.8665 32.0012 20.0733 32.522 20.0733H43.6491V8.94619C43.6491 8.42541 43.4422 7.92595 43.074 7.5577C42.7057 7.18946 42.2063 6.98258 41.6855 6.98258Z" fill="#AABCEB"/>
<path d="M24.6674 43.6368C21.9623 43.6476 19.2846 43.0944 16.8053 42.0125C14.3259 40.9306 12.0993 39.3438 10.2676 37.3532V39.055C10.2676 39.7494 9.99172 40.4153 9.50072 40.9063C9.00972 41.3973 8.34378 41.6732 7.6494 41.6732C6.95503 41.6732 6.28909 41.3973 5.79809 40.9063C5.30709 40.4153 5.03125 39.7494 5.03125 39.055V27.9279C5.03125 27.7543 5.10021 27.5878 5.22296 27.465C5.34571 27.3423 5.51219 27.2733 5.68579 27.2733H16.8129C17.5073 27.2733 18.1733 27.5492 18.6643 28.0402C19.1553 28.5312 19.4311 29.1971 19.4311 29.8915C19.4311 30.5859 19.1553 31.2518 18.6643 31.7428C18.1733 32.2338 17.5073 32.5096 16.8129 32.5096H14.7256C16.3404 34.3899 18.4529 35.7763 20.8203 36.5096C23.1878 37.2428 25.7142 37.2932 28.109 36.6548C30.5434 36.0215 32.7387 34.6885 34.4235 32.8207C36.1084 30.9528 37.2088 28.6321 37.5886 26.1456C37.7015 25.3671 38.0898 24.6549 38.6832 24.1384C39.2765 23.6219 40.0354 23.3355 40.8221 23.3311H40.9052C41.3679 23.3326 41.8248 23.434 42.2447 23.6284C42.6646 23.8228 43.0376 24.1056 43.3381 24.4574C43.6387 24.8092 43.8597 25.2218 43.9861 25.6669C44.1125 26.112 44.1413 26.5791 44.0705 27.0364C43.3689 31.6723 41.0222 35.9008 37.4594 38.9488C33.8967 41.9969 29.356 43.661 24.6674 43.6368ZM9.61302 34.9052C9.71342 34.9053 9.81245 34.9285 9.90246 34.973C9.99246 35.0175 10.071 35.0821 10.1321 35.1618C12.3159 38.0068 15.2866 40.1484 18.6758 41.3214C22.0651 42.4944 25.7241 42.6471 29.1993 41.7607C32.6745 40.8743 35.8133 38.9877 38.2267 36.3347C40.6401 33.6817 42.2221 30.3788 42.7765 26.8355C42.8185 26.5643 42.8014 26.2872 42.7263 26.0233C42.6512 25.7593 42.52 25.5147 42.3416 25.3062C42.1632 25.0978 41.9418 24.9303 41.6926 24.8153C41.4435 24.7003 41.1724 24.6406 40.898 24.6401H40.8221C40.3471 24.646 39.89 24.822 39.5338 25.1362C39.1776 25.4504 38.9458 25.8819 38.8807 26.3524C38.4608 29.0915 37.2472 31.6473 35.3899 33.7039C33.5326 35.7604 31.1132 37.2274 28.431 37.9233C25.5647 38.6886 22.5322 38.5526 19.7459 37.5337C16.9596 36.5149 14.5547 34.6626 12.8582 32.2288C12.7899 32.1306 12.7498 32.0156 12.7423 31.8962C12.7348 31.7768 12.7602 31.6576 12.8156 31.5517C12.8711 31.4457 12.9545 31.3569 13.0569 31.295C13.1593 31.2331 13.2766 31.2004 13.3962 31.2006H16.8129C17.1601 31.2006 17.4931 31.0626 17.7386 30.8171C17.9841 30.5716 18.122 30.2387 18.122 29.8915C18.122 29.5443 17.9841 29.2113 17.7386 28.9658C17.4931 28.7203 17.1601 28.5824 16.8129 28.5824H6.34033V39.055C6.34033 39.4022 6.47825 39.7352 6.72375 39.9807C6.96925 40.2262 7.30221 40.3641 7.6494 40.3641C7.99659 40.3641 8.32956 40.2262 8.57506 39.9807C8.82056 39.7352 8.95848 39.4022 8.95848 39.055V35.5598C8.95848 35.3862 9.02744 35.2197 9.15019 35.097C9.27294 34.9742 9.43942 34.9052 9.61302 34.9052Z" fill="#325DCD"/>
<path d="M8.51664 24.6545C8.04296 24.6552 7.57477 24.5531 7.14442 24.3551C6.71408 24.1572 6.33183 23.8682 6.02407 23.5081C5.71632 23.148 5.49041 22.7254 5.36193 22.2695C5.23346 21.8135 5.20549 21.3352 5.27995 20.8674C5.86751 17.2354 7.46346 13.8415 9.88594 11.0723C12.3084 8.30317 15.46 6.27017 18.9817 5.20494C22.5033 4.13972 26.2534 4.08512 29.8045 5.04736C33.3557 6.00959 36.5651 7.94998 39.0672 10.6474V8.94562C39.0672 8.25124 39.3431 7.5853 39.8341 7.0943C40.3251 6.6033 40.991 6.32746 41.6854 6.32746C42.3797 6.32746 43.0457 6.6033 43.5367 7.0943C44.0277 7.5853 44.3035 8.25124 44.3035 8.94562V20.0728C44.3035 20.2464 44.2346 20.4128 44.1118 20.5356C43.9891 20.6583 43.8226 20.7273 43.649 20.7273H32.5218C31.8275 20.7273 31.1615 20.4515 30.6705 19.9605C30.1795 19.4695 29.9037 18.8035 29.9037 18.1091C29.9037 17.4148 30.1795 16.7488 30.6705 16.2578C31.1615 15.7668 31.8275 15.491 32.5218 15.491H34.6085C32.9885 13.5963 30.861 12.2037 28.4763 11.4772C26.0917 10.7506 23.5492 10.7202 21.1479 11.3895C18.7466 12.0589 16.5864 13.4002 14.9215 15.2556C13.2566 17.1111 12.1563 19.4034 11.7501 21.8629C11.632 22.6371 11.2414 23.3438 10.6486 23.8556C10.0558 24.3674 9.29979 24.6507 8.51664 24.6545ZM24.6674 5.67293C20.3083 5.65372 16.0865 7.19654 12.767 10.0219C9.44745 12.8472 7.24972 16.7681 6.57201 21.0742C6.52815 21.3549 6.54561 21.6418 6.62319 21.9151C6.70076 22.1885 6.83661 22.4417 7.0214 22.6576C7.20618 22.8734 7.43552 23.0466 7.69363 23.1654C7.95175 23.2841 8.23252 23.3455 8.51664 23.3455C8.98897 23.3407 9.44408 23.1674 9.79999 22.8568C10.1559 22.5463 10.3893 22.1188 10.458 21.6515C10.9243 18.8256 12.2229 16.2031 14.1878 14.1193C16.1527 12.0354 18.6945 10.5851 21.4882 9.95383C24.2818 9.32251 27.2003 9.53889 29.8703 10.5753C32.5403 11.6117 34.8405 13.421 36.4766 15.7718C36.5449 15.87 36.5849 15.985 36.5925 16.1044C36.6 16.2238 36.5746 16.343 36.5192 16.449C36.4637 16.555 36.3803 16.6437 36.2779 16.7056C36.1755 16.7675 36.0581 16.8002 35.9385 16.8001H32.5218C32.1746 16.8001 31.8417 16.938 31.5962 17.1835C31.3507 17.429 31.2128 17.762 31.2128 18.1091C31.2128 18.4563 31.3507 18.7893 31.5962 19.0348C31.8417 19.2803 32.1746 19.4182 32.5218 19.4182H42.9944V8.94562C42.9944 8.59843 42.8565 8.26546 42.611 8.01996C42.3655 7.77446 42.0326 7.63654 41.6854 7.63654C41.3382 7.63654 41.0052 7.77446 40.7597 8.01996C40.5142 8.26546 40.3763 8.59843 40.3763 8.94562V12.4408C40.3761 12.5775 40.3332 12.7107 40.2535 12.8217C40.1738 12.9327 40.0614 13.016 39.9319 13.0599C39.8025 13.1038 39.6626 13.1061 39.5318 13.0664C39.4011 13.0268 39.286 12.9472 39.2027 12.8388C37.499 10.6018 35.2996 8.7904 32.7775 7.54701C30.2554 6.30362 27.4793 5.66212 24.6674 5.67293Z" fill="#325DCD"/>
</svg>
