<svg width="68" height="68" viewBox="0 0 68 68" fill="none" xmlns="http://www.w3.org/2000/svg">
<mask id="path-1-inside-1_17908_172010" fill="white">
<path d="M44.0988 13.4821L34.4751 27.1272L40.3315 35.4344L41.2614 36.7567L44.5987 32.0839C48.5794 26.5107 50.022 20.0491 48.659 13.8918C48.0635 11.2025 46.9776 8.69573 45.4204 6.41613C45.4204 6.42424 45.4235 6.43235 45.4235 6.43641C45.449 6.57838 45.4681 6.71629 45.4872 6.85825C45.4904 6.8907 45.4936 6.92721 45.5 6.95966C45.5127 7.08135 45.5254 7.20709 45.5318 7.32878C45.5318 7.34906 45.535 7.3734 45.535 7.39368C45.5414 7.53564 45.5446 7.67356 45.5477 7.81553C45.5477 7.84797 45.5477 7.88042 45.5477 7.91693C45.5477 8.04267 45.5446 8.16842 45.5382 8.2901C45.5382 8.31039 45.5382 8.32661 45.535 8.34689C45.5286 8.4848 45.5159 8.62271 45.5032 8.76063C45.5 8.79308 45.4968 8.82147 45.4936 8.85392C45.4809 8.97966 45.4649 9.10135 45.449 9.22709C45.4458 9.24332 45.4458 9.25549 45.4426 9.27171C45.4235 9.40557 45.4012 9.53942 45.379 9.66922C45.3726 9.69762 45.3694 9.73006 45.363 9.75846C45.3407 9.88015 45.3185 9.99778 45.293 10.1154C45.2898 10.1276 45.2898 10.1357 45.2866 10.1479C45.2579 10.2736 45.2293 10.3993 45.2006 10.521C45.1943 10.5494 45.1879 10.5778 45.1783 10.6062C45.1497 10.7198 45.121 10.8334 45.0892 10.9429C45.086 10.951 45.086 10.9591 45.0828 10.9672C45.051 11.0848 45.0159 11.1944 44.9809 11.3079C44.9713 11.3323 44.965 11.3607 44.9554 11.385C44.9236 11.4864 44.8885 11.5878 44.8567 11.6852C44.8535 11.6892 44.8535 11.6973 44.8503 11.7054C44.8153 11.8069 44.7803 11.9083 44.7452 12.0016C44.7357 12.0259 44.7293 12.0502 44.7198 12.0705C44.6847 12.1597 44.6529 12.249 44.6179 12.3342C44.6179 12.3342 44.6147 12.3382 44.6147 12.3423C44.5796 12.4275 44.5478 12.5126 44.5128 12.5897C44.5032 12.61 44.4968 12.6303 44.4873 12.6505C44.4554 12.7276 44.4236 12.8006 44.3949 12.8655C44.2325 13.2306 44.1211 13.4456 44.1147 13.4537C44.1115 13.4618 44.1051 13.4699 44.0988 13.4821Z"/>
<path d="M23.514 12.6506C23.5076 12.6343 23.5012 12.6181 23.4917 12.6019C23.4248 12.4437 23.3547 12.2693 23.2815 12.0786C23.2751 12.0583 23.2656 12.0381 23.2592 12.0178C23.2242 11.9245 23.1892 11.8271 23.1509 11.7257V11.7217C23.1159 11.6203 23.0809 11.5148 23.0458 11.4053C23.0363 11.381 23.0299 11.3566 23.0204 11.3282C22.9853 11.2228 22.9535 11.1132 22.9217 11.0037C22.9217 10.9997 22.9185 10.9956 22.9185 10.9875C22.8866 10.8739 22.8516 10.7563 22.8229 10.6387C22.8166 10.6103 22.807 10.5819 22.8006 10.5535C22.772 10.4399 22.7433 10.3223 22.7147 10.2046C22.7115 10.1965 22.7115 10.1884 22.7083 10.1803C22.6796 10.0546 22.6542 9.92882 22.6287 9.80308C22.6223 9.77063 22.6159 9.73818 22.6096 9.70979C22.5873 9.5881 22.565 9.47047 22.5491 9.34473C22.5459 9.33256 22.5459 9.32039 22.5427 9.30822C22.5236 9.17842 22.5077 9.04457 22.4917 8.91071C22.4886 8.87826 22.4854 8.84176 22.4822 8.80931C22.4694 8.68356 22.4599 8.56188 22.4503 8.43613C22.4503 8.41991 22.4472 8.40774 22.4472 8.39151C22.4376 8.2536 22.4344 8.11569 22.4312 7.97778C22.4312 7.94127 22.4312 7.90882 22.4312 7.87232C22.4312 7.74657 22.4312 7.62083 22.4376 7.49509C22.4376 7.47886 22.4376 7.46264 22.4376 7.44641C22.444 7.3085 22.4535 7.16653 22.4663 7.02862C22.4694 6.99212 22.4726 6.95967 22.4758 6.92316C22.4886 6.79742 22.5045 6.67167 22.5268 6.54593C22.53 6.53376 22.53 6.51754 22.5331 6.50537C21.0077 8.76469 19.9377 11.243 19.3486 13.8999C17.9856 20.0491 19.425 26.5107 23.4057 32.088L27.0838 37.2394C27.087 37.2435 27.0902 37.2475 27.0934 37.2516L27.3354 37.5923L48.4361 67.1257L55.4803 58.271L23.912 13.4861C23.9057 13.474 23.8993 13.4659 23.8929 13.4537C23.8866 13.4456 23.7751 13.2347 23.6095 12.8696C23.5808 12.8006 23.549 12.7236 23.514 12.6506Z"/>
<path d="M33.9558 8.5575C34.287 8.56561 41.2134 8.76436 43.9139 11.9485C43.9521 11.8471 43.9935 11.7376 44.0317 11.624C44.0381 11.6078 44.0444 11.5916 44.0476 11.5753C44.0858 11.4658 44.124 11.3522 44.1623 11.2346C44.1686 11.2143 44.175 11.194 44.1814 11.1738C44.2196 11.0561 44.2578 10.9304 44.2928 10.8046C44.296 10.7884 44.3024 10.7722 44.3056 10.756C44.3438 10.6221 44.3788 10.4883 44.4138 10.3463V10.3422C44.4489 10.2043 44.4807 10.0624 44.5094 9.92039C44.5125 9.90011 44.5189 9.87983 44.5221 9.85955C44.5508 9.72163 44.5762 9.57967 44.5985 9.4377C44.6017 9.41336 44.6081 9.38902 44.6113 9.36469C44.6336 9.21866 44.6559 9.07264 44.6718 8.92661C44.675 8.90633 44.675 8.88605 44.6781 8.86577C44.6941 8.71163 44.71 8.55344 44.7195 8.3993C44.7195 8.3993 44.7195 8.3993 44.7195 8.39525C44.7291 8.24111 44.7323 8.08292 44.7355 7.92473C44.7355 7.90039 44.7355 7.88011 44.7355 7.85577C44.7355 7.70569 44.7323 7.55155 44.7227 7.40147C44.7227 7.37308 44.7195 7.34874 44.7164 7.32035C44.7068 7.16621 44.6909 7.01613 44.6718 6.86199C44.6686 6.84171 44.6654 6.81738 44.6622 6.79709C44.6399 6.6389 44.6145 6.47665 44.5794 6.31846C44.5794 6.31846 44.5794 6.31846 44.5794 6.3144C44.5444 6.15621 44.503 5.99802 44.4584 5.84388C44.452 5.81954 44.4457 5.79926 44.4393 5.77492C44.3915 5.62484 44.3406 5.47882 44.2801 5.3328C44.2705 5.3044 44.2578 5.28006 44.2482 5.25167C44.1877 5.10565 44.1209 4.95962 44.0444 4.81765C44.0317 4.79737 44.0221 4.77304 44.0094 4.75275C43.9298 4.60267 43.8406 4.45665 43.7451 4.31063C42.2165 2.03103 38.9269 0.875 33.9654 0.875C29.0166 0.875 25.7366 2.02697 24.2144 4.2944C24.2112 4.29846 24.208 4.30251 24.208 4.30657C24.2048 4.31063 24.2016 4.31874 24.1984 4.32279C24.1029 4.46476 24.0201 4.61079 23.9405 4.75681C23.9309 4.77709 23.9182 4.79737 23.9086 4.81765C23.8354 4.95962 23.7685 5.10565 23.708 5.25573C23.6985 5.28412 23.6857 5.30846 23.6762 5.33685C23.6188 5.48288 23.5647 5.63296 23.5201 5.77898C23.5138 5.80332 23.5074 5.82766 23.501 5.84794C23.4564 6.00207 23.415 6.16027 23.3832 6.31846C23.3832 6.32252 23.3832 6.32657 23.38 6.33063C23.3482 6.48882 23.3227 6.64701 23.3004 6.80521C23.2972 6.82549 23.294 6.84577 23.2908 6.86605C23.2717 7.02019 23.259 7.17432 23.2494 7.32846C23.2463 7.35685 23.2463 7.38119 23.2463 7.40958C23.2399 7.56372 23.2367 7.7138 23.2367 7.86388C23.2367 7.88822 23.2367 7.9085 23.2367 7.93284C23.2399 8.09103 23.2431 8.24517 23.2558 8.40336C23.2558 8.40742 23.2558 8.41147 23.2558 8.41553C23.2654 8.56967 23.2813 8.7238 23.3004 8.87794C23.3036 8.89822 23.3036 8.9185 23.3068 8.93473C23.3259 9.08075 23.345 9.22678 23.3705 9.3728C23.3736 9.39714 23.38 9.42147 23.3832 9.44987C23.4087 9.59184 23.4341 9.72975 23.4628 9.86766C23.466 9.892 23.4724 9.91228 23.4787 9.93661C23.5106 10.0786 23.5424 10.2165 23.5774 10.3544C23.5774 10.3585 23.5806 10.3625 23.5806 10.3666C23.6157 10.5004 23.6507 10.6343 23.6889 10.7641C23.6953 10.7803 23.6985 10.7965 23.7048 10.8128C23.7399 10.9385 23.7781 11.0602 23.8163 11.1778C23.8227 11.1981 23.829 11.2224 23.8386 11.2427C23.8768 11.3563 23.915 11.4699 23.9532 11.5794C23.9596 11.5997 23.966 11.6159 23.9723 11.6362C24.0105 11.7457 24.0519 11.8512 24.0902 11.9526C24.0902 11.9526 24.0902 11.9566 24.0933 11.9566C26.7811 8.76436 33.6469 8.56561 33.9558 8.5575Z"/>
<path d="M24.2046 4.32314C24.2013 4.32728 24.2013 4.33141 24.1981 4.33141C24.2013 4.32728 24.2046 4.31901 24.2078 4.31488C24.2078 4.31901 24.2078 4.32314 24.2046 4.32314Z"/>
<path d="M19.5637 67.0951L33.4992 47.5887L26.7544 38.0484L12.5195 58.2403L19.5637 67.0951Z"/>
</mask>
<path d="M44.0988 13.4821L34.4751 27.1272L40.3315 35.4344L41.2614 36.7567L44.5987 32.0839C48.5794 26.5107 50.022 20.0491 48.659 13.8918C48.0635 11.2025 46.9776 8.69573 45.4204 6.41613C45.4204 6.42424 45.4235 6.43235 45.4235 6.43641C45.449 6.57838 45.4681 6.71629 45.4872 6.85825C45.4904 6.8907 45.4936 6.92721 45.5 6.95966C45.5127 7.08135 45.5254 7.20709 45.5318 7.32878C45.5318 7.34906 45.535 7.3734 45.535 7.39368C45.5414 7.53564 45.5446 7.67356 45.5477 7.81553C45.5477 7.84797 45.5477 7.88042 45.5477 7.91693C45.5477 8.04267 45.5446 8.16842 45.5382 8.2901C45.5382 8.31039 45.5382 8.32661 45.535 8.34689C45.5286 8.4848 45.5159 8.62271 45.5032 8.76063C45.5 8.79308 45.4968 8.82147 45.4936 8.85392C45.4809 8.97966 45.4649 9.10135 45.449 9.22709C45.4458 9.24332 45.4458 9.25549 45.4426 9.27171C45.4235 9.40557 45.4012 9.53942 45.379 9.66922C45.3726 9.69762 45.3694 9.73006 45.363 9.75846C45.3407 9.88015 45.3185 9.99778 45.293 10.1154C45.2898 10.1276 45.2898 10.1357 45.2866 10.1479C45.2579 10.2736 45.2293 10.3993 45.2006 10.521C45.1943 10.5494 45.1879 10.5778 45.1783 10.6062C45.1497 10.7198 45.121 10.8334 45.0892 10.9429C45.086 10.951 45.086 10.9591 45.0828 10.9672C45.051 11.0848 45.0159 11.1944 44.9809 11.3079C44.9713 11.3323 44.965 11.3607 44.9554 11.385C44.9236 11.4864 44.8885 11.5878 44.8567 11.6852C44.8535 11.6892 44.8535 11.6973 44.8503 11.7054C44.8153 11.8069 44.7803 11.9083 44.7452 12.0016C44.7357 12.0259 44.7293 12.0502 44.7198 12.0705C44.6847 12.1597 44.6529 12.249 44.6179 12.3342C44.6179 12.3342 44.6147 12.3382 44.6147 12.3423C44.5796 12.4275 44.5478 12.5126 44.5128 12.5897C44.5032 12.61 44.4968 12.6303 44.4873 12.6505C44.4554 12.7276 44.4236 12.8006 44.3949 12.8655C44.2325 13.2306 44.1211 13.4456 44.1147 13.4537C44.1115 13.4618 44.1051 13.4699 44.0988 13.4821Z" fill="#AABCEB"/>
<path d="M23.514 12.6506C23.5076 12.6343 23.5012 12.6181 23.4917 12.6019C23.4248 12.4437 23.3547 12.2693 23.2815 12.0786C23.2751 12.0583 23.2656 12.0381 23.2592 12.0178C23.2242 11.9245 23.1892 11.8271 23.1509 11.7257V11.7217C23.1159 11.6203 23.0809 11.5148 23.0458 11.4053C23.0363 11.381 23.0299 11.3566 23.0204 11.3282C22.9853 11.2228 22.9535 11.1132 22.9217 11.0037C22.9217 10.9997 22.9185 10.9956 22.9185 10.9875C22.8866 10.8739 22.8516 10.7563 22.8229 10.6387C22.8166 10.6103 22.807 10.5819 22.8006 10.5535C22.772 10.4399 22.7433 10.3223 22.7147 10.2046C22.7115 10.1965 22.7115 10.1884 22.7083 10.1803C22.6796 10.0546 22.6542 9.92882 22.6287 9.80308C22.6223 9.77063 22.6159 9.73818 22.6096 9.70979C22.5873 9.5881 22.565 9.47047 22.5491 9.34473C22.5459 9.33256 22.5459 9.32039 22.5427 9.30822C22.5236 9.17842 22.5077 9.04457 22.4917 8.91071C22.4886 8.87826 22.4854 8.84176 22.4822 8.80931C22.4694 8.68356 22.4599 8.56188 22.4503 8.43613C22.4503 8.41991 22.4472 8.40774 22.4472 8.39151C22.4376 8.2536 22.4344 8.11569 22.4312 7.97778C22.4312 7.94127 22.4312 7.90882 22.4312 7.87232C22.4312 7.74657 22.4312 7.62083 22.4376 7.49509C22.4376 7.47886 22.4376 7.46264 22.4376 7.44641C22.444 7.3085 22.4535 7.16653 22.4663 7.02862C22.4694 6.99212 22.4726 6.95967 22.4758 6.92316C22.4886 6.79742 22.5045 6.67167 22.5268 6.54593C22.53 6.53376 22.53 6.51754 22.5331 6.50537C21.0077 8.76469 19.9377 11.243 19.3486 13.8999C17.9856 20.0491 19.425 26.5107 23.4057 32.088L27.0838 37.2394C27.087 37.2435 27.0902 37.2475 27.0934 37.2516L27.3354 37.5923L48.4361 67.1257L55.4803 58.271L23.912 13.4861C23.9057 13.474 23.8993 13.4659 23.8929 13.4537C23.8866 13.4456 23.7751 13.2347 23.6095 12.8696C23.5808 12.8006 23.549 12.7236 23.514 12.6506Z" fill="#AABCEB"/>
<path d="M33.9558 8.5575C34.287 8.56561 41.2134 8.76436 43.9139 11.9485C43.9521 11.8471 43.9935 11.7376 44.0317 11.624C44.0381 11.6078 44.0444 11.5916 44.0476 11.5753C44.0858 11.4658 44.124 11.3522 44.1623 11.2346C44.1686 11.2143 44.175 11.194 44.1814 11.1738C44.2196 11.0561 44.2578 10.9304 44.2928 10.8046C44.296 10.7884 44.3024 10.7722 44.3056 10.756C44.3438 10.6221 44.3788 10.4883 44.4138 10.3463V10.3422C44.4489 10.2043 44.4807 10.0624 44.5094 9.92039C44.5125 9.90011 44.5189 9.87983 44.5221 9.85955C44.5508 9.72163 44.5762 9.57967 44.5985 9.4377C44.6017 9.41336 44.6081 9.38902 44.6113 9.36469C44.6336 9.21866 44.6559 9.07264 44.6718 8.92661C44.675 8.90633 44.675 8.88605 44.6781 8.86577C44.6941 8.71163 44.71 8.55344 44.7195 8.3993C44.7195 8.3993 44.7195 8.3993 44.7195 8.39525C44.7291 8.24111 44.7323 8.08292 44.7355 7.92473C44.7355 7.90039 44.7355 7.88011 44.7355 7.85577C44.7355 7.70569 44.7323 7.55155 44.7227 7.40147C44.7227 7.37308 44.7195 7.34874 44.7164 7.32035C44.7068 7.16621 44.6909 7.01613 44.6718 6.86199C44.6686 6.84171 44.6654 6.81738 44.6622 6.79709C44.6399 6.6389 44.6145 6.47665 44.5794 6.31846C44.5794 6.31846 44.5794 6.31846 44.5794 6.3144C44.5444 6.15621 44.503 5.99802 44.4584 5.84388C44.452 5.81954 44.4457 5.79926 44.4393 5.77492C44.3915 5.62484 44.3406 5.47882 44.2801 5.3328C44.2705 5.3044 44.2578 5.28006 44.2482 5.25167C44.1877 5.10565 44.1209 4.95962 44.0444 4.81765C44.0317 4.79737 44.0221 4.77304 44.0094 4.75275C43.9298 4.60267 43.8406 4.45665 43.7451 4.31063C42.2165 2.03103 38.9269 0.875 33.9654 0.875C29.0166 0.875 25.7366 2.02697 24.2144 4.2944C24.2112 4.29846 24.208 4.30251 24.208 4.30657C24.2048 4.31063 24.2016 4.31874 24.1984 4.32279C24.1029 4.46476 24.0201 4.61079 23.9405 4.75681C23.9309 4.77709 23.9182 4.79737 23.9086 4.81765C23.8354 4.95962 23.7685 5.10565 23.708 5.25573C23.6985 5.28412 23.6857 5.30846 23.6762 5.33685C23.6188 5.48288 23.5647 5.63296 23.5201 5.77898C23.5138 5.80332 23.5074 5.82766 23.501 5.84794C23.4564 6.00207 23.415 6.16027 23.3832 6.31846C23.3832 6.32252 23.3832 6.32657 23.38 6.33063C23.3482 6.48882 23.3227 6.64701 23.3004 6.80521C23.2972 6.82549 23.294 6.84577 23.2908 6.86605C23.2717 7.02019 23.259 7.17432 23.2494 7.32846C23.2463 7.35685 23.2463 7.38119 23.2463 7.40958C23.2399 7.56372 23.2367 7.7138 23.2367 7.86388C23.2367 7.88822 23.2367 7.9085 23.2367 7.93284C23.2399 8.09103 23.2431 8.24517 23.2558 8.40336C23.2558 8.40742 23.2558 8.41147 23.2558 8.41553C23.2654 8.56967 23.2813 8.7238 23.3004 8.87794C23.3036 8.89822 23.3036 8.9185 23.3068 8.93473C23.3259 9.08075 23.345 9.22678 23.3705 9.3728C23.3736 9.39714 23.38 9.42147 23.3832 9.44987C23.4087 9.59184 23.4341 9.72975 23.4628 9.86766C23.466 9.892 23.4724 9.91228 23.4787 9.93661C23.5106 10.0786 23.5424 10.2165 23.5774 10.3544C23.5774 10.3585 23.5806 10.3625 23.5806 10.3666C23.6157 10.5004 23.6507 10.6343 23.6889 10.7641C23.6953 10.7803 23.6985 10.7965 23.7048 10.8128C23.7399 10.9385 23.7781 11.0602 23.8163 11.1778C23.8227 11.1981 23.829 11.2224 23.8386 11.2427C23.8768 11.3563 23.915 11.4699 23.9532 11.5794C23.9596 11.5997 23.966 11.6159 23.9723 11.6362C24.0105 11.7457 24.0519 11.8512 24.0902 11.9526C24.0902 11.9526 24.0902 11.9566 24.0933 11.9566C26.7811 8.76436 33.6469 8.56561 33.9558 8.5575Z" fill="#AABCEB"/>
<path d="M24.2046 4.32314C24.2013 4.32728 24.2013 4.33141 24.1981 4.33141C24.2013 4.32728 24.2046 4.31901 24.2078 4.31488C24.2078 4.31901 24.2078 4.32314 24.2046 4.32314Z" fill="#AABCEB"/>
<path d="M19.5637 67.0951L33.4992 47.5887L26.7544 38.0484L12.5195 58.2403L19.5637 67.0951Z" fill="#AABCEB"/>
<path d="M44.0988 13.4821L34.4751 27.1272L40.3315 35.4344L41.2614 36.7567L44.5987 32.0839C48.5794 26.5107 50.022 20.0491 48.659 13.8918C48.0635 11.2025 46.9776 8.69573 45.4204 6.41613C45.4204 6.42424 45.4235 6.43235 45.4235 6.43641C45.449 6.57838 45.4681 6.71629 45.4872 6.85825C45.4904 6.8907 45.4936 6.92721 45.5 6.95966C45.5127 7.08135 45.5254 7.20709 45.5318 7.32878C45.5318 7.34906 45.535 7.3734 45.535 7.39368C45.5414 7.53564 45.5446 7.67356 45.5477 7.81553C45.5477 7.84797 45.5477 7.88042 45.5477 7.91693C45.5477 8.04267 45.5446 8.16842 45.5382 8.2901C45.5382 8.31039 45.5382 8.32661 45.535 8.34689C45.5286 8.4848 45.5159 8.62271 45.5032 8.76063C45.5 8.79308 45.4968 8.82147 45.4936 8.85392C45.4809 8.97966 45.4649 9.10135 45.449 9.22709C45.4458 9.24332 45.4458 9.25549 45.4426 9.27171C45.4235 9.40557 45.4012 9.53942 45.379 9.66922C45.3726 9.69762 45.3694 9.73006 45.363 9.75846C45.3407 9.88015 45.3185 9.99778 45.293 10.1154C45.2898 10.1276 45.2898 10.1357 45.2866 10.1479C45.2579 10.2736 45.2293 10.3993 45.2006 10.521C45.1943 10.5494 45.1879 10.5778 45.1783 10.6062C45.1497 10.7198 45.121 10.8334 45.0892 10.9429C45.086 10.951 45.086 10.9591 45.0828 10.9672C45.051 11.0848 45.0159 11.1944 44.9809 11.3079C44.9713 11.3323 44.965 11.3607 44.9554 11.385C44.9236 11.4864 44.8885 11.5878 44.8567 11.6852C44.8535 11.6892 44.8535 11.6973 44.8503 11.7054C44.8153 11.8069 44.7803 11.9083 44.7452 12.0016C44.7357 12.0259 44.7293 12.0502 44.7198 12.0705C44.6847 12.1597 44.6529 12.249 44.6179 12.3342C44.6179 12.3342 44.6147 12.3382 44.6147 12.3423C44.5796 12.4275 44.5478 12.5126 44.5128 12.5897C44.5032 12.61 44.4968 12.6303 44.4873 12.6505C44.4554 12.7276 44.4236 12.8006 44.3949 12.8655C44.2325 13.2306 44.1211 13.4456 44.1147 13.4537C44.1115 13.4618 44.1051 13.4699 44.0988 13.4821Z" stroke="#325DCD" stroke-width="4.14005" stroke-linejoin="round" mask="url(#path-1-inside-1_17908_172010)"/>
<path d="M23.514 12.6506C23.5076 12.6343 23.5012 12.6181 23.4917 12.6019C23.4248 12.4437 23.3547 12.2693 23.2815 12.0786C23.2751 12.0583 23.2656 12.0381 23.2592 12.0178C23.2242 11.9245 23.1892 11.8271 23.1509 11.7257V11.7217C23.1159 11.6203 23.0809 11.5148 23.0458 11.4053C23.0363 11.381 23.0299 11.3566 23.0204 11.3282C22.9853 11.2228 22.9535 11.1132 22.9217 11.0037C22.9217 10.9997 22.9185 10.9956 22.9185 10.9875C22.8866 10.8739 22.8516 10.7563 22.8229 10.6387C22.8166 10.6103 22.807 10.5819 22.8006 10.5535C22.772 10.4399 22.7433 10.3223 22.7147 10.2046C22.7115 10.1965 22.7115 10.1884 22.7083 10.1803C22.6796 10.0546 22.6542 9.92882 22.6287 9.80308C22.6223 9.77063 22.6159 9.73818 22.6096 9.70979C22.5873 9.5881 22.565 9.47047 22.5491 9.34473C22.5459 9.33256 22.5459 9.32039 22.5427 9.30822C22.5236 9.17842 22.5077 9.04457 22.4917 8.91071C22.4886 8.87826 22.4854 8.84176 22.4822 8.80931C22.4694 8.68356 22.4599 8.56188 22.4503 8.43613C22.4503 8.41991 22.4472 8.40774 22.4472 8.39151C22.4376 8.2536 22.4344 8.11569 22.4312 7.97778C22.4312 7.94127 22.4312 7.90882 22.4312 7.87232C22.4312 7.74657 22.4312 7.62083 22.4376 7.49509C22.4376 7.47886 22.4376 7.46264 22.4376 7.44641C22.444 7.3085 22.4535 7.16653 22.4663 7.02862C22.4694 6.99212 22.4726 6.95967 22.4758 6.92316C22.4886 6.79742 22.5045 6.67167 22.5268 6.54593C22.53 6.53376 22.53 6.51754 22.5331 6.50537C21.0077 8.76469 19.9377 11.243 19.3486 13.8999C17.9856 20.0491 19.425 26.5107 23.4057 32.088L27.0838 37.2394C27.087 37.2435 27.0902 37.2475 27.0934 37.2516L27.3354 37.5923L48.4361 67.1257L55.4803 58.271L23.912 13.4861C23.9057 13.474 23.8993 13.4659 23.8929 13.4537C23.8866 13.4456 23.7751 13.2347 23.6095 12.8696C23.5808 12.8006 23.549 12.7236 23.514 12.6506Z" stroke="#325DCD" stroke-width="4.14005" stroke-linejoin="round" mask="url(#path-1-inside-1_17908_172010)"/>
<path d="M33.9558 8.5575C34.287 8.56561 41.2134 8.76436 43.9139 11.9485C43.9521 11.8471 43.9935 11.7376 44.0317 11.624C44.0381 11.6078 44.0444 11.5916 44.0476 11.5753C44.0858 11.4658 44.124 11.3522 44.1623 11.2346C44.1686 11.2143 44.175 11.194 44.1814 11.1738C44.2196 11.0561 44.2578 10.9304 44.2928 10.8046C44.296 10.7884 44.3024 10.7722 44.3056 10.756C44.3438 10.6221 44.3788 10.4883 44.4138 10.3463V10.3422C44.4489 10.2043 44.4807 10.0624 44.5094 9.92039C44.5125 9.90011 44.5189 9.87983 44.5221 9.85955C44.5508 9.72163 44.5762 9.57967 44.5985 9.4377C44.6017 9.41336 44.6081 9.38902 44.6113 9.36469C44.6336 9.21866 44.6559 9.07264 44.6718 8.92661C44.675 8.90633 44.675 8.88605 44.6781 8.86577C44.6941 8.71163 44.71 8.55344 44.7195 8.3993C44.7195 8.3993 44.7195 8.3993 44.7195 8.39525C44.7291 8.24111 44.7323 8.08292 44.7355 7.92473C44.7355 7.90039 44.7355 7.88011 44.7355 7.85577C44.7355 7.70569 44.7323 7.55155 44.7227 7.40147C44.7227 7.37308 44.7195 7.34874 44.7164 7.32035C44.7068 7.16621 44.6909 7.01613 44.6718 6.86199C44.6686 6.84171 44.6654 6.81738 44.6622 6.79709C44.6399 6.6389 44.6145 6.47665 44.5794 6.31846C44.5794 6.31846 44.5794 6.31846 44.5794 6.3144C44.5444 6.15621 44.503 5.99802 44.4584 5.84388C44.452 5.81954 44.4457 5.79926 44.4393 5.77492C44.3915 5.62484 44.3406 5.47882 44.2801 5.3328C44.2705 5.3044 44.2578 5.28006 44.2482 5.25167C44.1877 5.10565 44.1209 4.95962 44.0444 4.81765C44.0317 4.79737 44.0221 4.77304 44.0094 4.75275C43.9298 4.60267 43.8406 4.45665 43.7451 4.31063C42.2165 2.03103 38.9269 0.875 33.9654 0.875C29.0166 0.875 25.7366 2.02697 24.2144 4.2944C24.2112 4.29846 24.208 4.30251 24.208 4.30657C24.2048 4.31063 24.2016 4.31874 24.1984 4.32279C24.1029 4.46476 24.0201 4.61079 23.9405 4.75681C23.9309 4.77709 23.9182 4.79737 23.9086 4.81765C23.8354 4.95962 23.7685 5.10565 23.708 5.25573C23.6985 5.28412 23.6857 5.30846 23.6762 5.33685C23.6188 5.48288 23.5647 5.63296 23.5201 5.77898C23.5138 5.80332 23.5074 5.82766 23.501 5.84794C23.4564 6.00207 23.415 6.16027 23.3832 6.31846C23.3832 6.32252 23.3832 6.32657 23.38 6.33063C23.3482 6.48882 23.3227 6.64701 23.3004 6.80521C23.2972 6.82549 23.294 6.84577 23.2908 6.86605C23.2717 7.02019 23.259 7.17432 23.2494 7.32846C23.2463 7.35685 23.2463 7.38119 23.2463 7.40958C23.2399 7.56372 23.2367 7.7138 23.2367 7.86388C23.2367 7.88822 23.2367 7.9085 23.2367 7.93284C23.2399 8.09103 23.2431 8.24517 23.2558 8.40336C23.2558 8.40742 23.2558 8.41147 23.2558 8.41553C23.2654 8.56967 23.2813 8.7238 23.3004 8.87794C23.3036 8.89822 23.3036 8.9185 23.3068 8.93473C23.3259 9.08075 23.345 9.22678 23.3705 9.3728C23.3736 9.39714 23.38 9.42147 23.3832 9.44987C23.4087 9.59184 23.4341 9.72975 23.4628 9.86766C23.466 9.892 23.4724 9.91228 23.4787 9.93661C23.5106 10.0786 23.5424 10.2165 23.5774 10.3544C23.5774 10.3585 23.5806 10.3625 23.5806 10.3666C23.6157 10.5004 23.6507 10.6343 23.6889 10.7641C23.6953 10.7803 23.6985 10.7965 23.7048 10.8128C23.7399 10.9385 23.7781 11.0602 23.8163 11.1778C23.8227 11.1981 23.829 11.2224 23.8386 11.2427C23.8768 11.3563 23.915 11.4699 23.9532 11.5794C23.9596 11.5997 23.966 11.6159 23.9723 11.6362C24.0105 11.7457 24.0519 11.8512 24.0902 11.9526C24.0902 11.9526 24.0902 11.9566 24.0933 11.9566C26.7811 8.76436 33.6469 8.56561 33.9558 8.5575Z" stroke="#325DCD" stroke-width="4.14005" stroke-linejoin="round" mask="url(#path-1-inside-1_17908_172010)"/>
<path d="M24.2046 4.32314C24.2013 4.32728 24.2013 4.33141 24.1981 4.33141C24.2013 4.32728 24.2046 4.31901 24.2078 4.31488C24.2078 4.31901 24.2078 4.32314 24.2046 4.32314Z" stroke="#325DCD" stroke-width="4.14005" stroke-linejoin="round" mask="url(#path-1-inside-1_17908_172010)"/>
<path d="M19.5637 67.0951L33.4992 47.5887L26.7544 38.0484L12.5195 58.2403L19.5637 67.0951Z" stroke="#325DCD" stroke-width="4.14005" stroke-linejoin="round" mask="url(#path-1-inside-1_17908_172010)"/>
</svg>
