<?xml version="1.0" encoding="UTF-8"?>
<svg width="368px" height="330px" viewBox="0 0 368 330" version="1.1" xmlns="http://www.w3.org/2000/svg" xmlns:xlink="http://www.w3.org/1999/xlink">
    <!-- Generator: Sketch 51.3 (57544) - http://www.bohemiancoding.com/sketch -->
    <title>icon</title>
    <desc>Created with Sketch.</desc>
    <defs>
        <polygon id="path-1" points="0 0 24 0 24 24 0 24"></polygon>
    </defs>
    <g id="Page-1" stroke="none" stroke-width="1" fill="none" fill-rule="evenodd">
        <g id="icon">
            <g id="Group" transform="translate(0.000000, 220.000000)" fill="#D0021B" fill-rule="nonzero">
                <path d="M27.547,41.52 C27.6062243,42.0845352 27.8873106,42.602413 28.3284089,42.9596802 C28.7695072,43.3169473 29.334476,43.4843309 29.899,43.425 C30.4633006,43.3677053 30.9817078,43.0885247 31.3401148,42.6489087 C31.6985219,42.2092927 31.867552,41.6452744 31.81,41.081 L30.822,31.55 C30.6976213,30.3749741 29.645233,29.5225933 28.47,29.645 C27.9056994,29.7022947 27.3872922,29.9814753 27.0288852,30.4210913 C26.6704781,30.8607073 26.501448,31.4247256 26.559,31.989 L27.547,41.519 L27.547,41.52 Z M40.957,43.425 C41.521524,43.4843309 42.0864928,43.3169473 42.5275911,42.9596802 C42.9686894,42.602413 43.2497757,42.0845352 43.309,41.52 L44.297,31.989 C44.3548246,31.4246715 44.185895,30.8605083 43.8274364,30.4208292 C43.4689778,29.98115 42.9504084,29.7020387 42.386,29.645 C41.2111183,29.5225714 40.1588876,30.3743771 40.034,31.549 L39.046,41.08 C38.988166,41.6444366 39.1570666,42.2087141 39.5155018,42.6485522 C39.8739371,43.0883904 40.3925076,43.3677129 40.957,43.425 Z M24.365,52.708 C20.708,52.708 17.732,55.674 17.732,59.319 C17.732,62.965 20.708,65.932 24.365,65.932 C28.023,65.932 30.998,62.965 30.998,59.319 C30.998,55.674 28.023,52.709 24.365,52.709 L24.365,52.708 Z M24.365,61.66 C23.0711272,61.6600042 22.0213077,60.6128685 22.018,59.319 C22.018,58.029 23.071,56.979 24.365,56.979 C25.6591011,56.9778925 26.7096908,58.0249027 26.713,59.319 C26.7096914,60.613259 25.6592631,61.6605557 24.365,61.66 Z M46.491,52.708 C42.834,52.708 39.858,55.674 39.858,59.319 C39.858,62.965 42.833,65.932 46.491,65.932 C50.149,65.932 53.125,62.965 53.125,59.319 C53.125,55.674 50.149,52.709 46.491,52.709 L46.491,52.708 Z M46.491,61.66 C45.1971272,61.6600042 44.1473077,60.6128685 44.144,59.319 C44.144,58.029 45.197,56.979 46.491,56.979 C47.7851011,56.9778925 48.8356908,58.0249027 48.839,59.319 C48.8356914,60.613259 47.7852631,61.6605557 46.491,61.66 Z" id="Shape"></path>
                <path d="M59.309,22.52 C58.9023918,21.9960043 58.2762508,21.6895791 57.613,21.69 L14.901,21.69 L13.107,14.816 C12.8599388,13.8732385 12.0075962,13.2161045 11.033,13.217 L2.25,13.217 C1.06850002,13.2153416 0.109207249,14.1715009 0.107,15.353 C0.107,16.533 1.067,17.489 2.25,17.489 L9.376,17.489 L11.156,24.309 C11.164,24.346 11.174,24.384 11.185,24.422 L17.8,49.78 C18.0474432,50.7223646 18.899691,51.3790145 19.874,51.378 L50.981,51.378 C51.957,51.378 52.809,50.721 53.055,49.78 L59.686,24.363 C59.8528405,23.7232948 59.7131851,23.0423825 59.308,22.52 L59.309,22.52 Z M49.325,47.107 L21.532,47.107 L16.015,25.962 L54.842,25.962 L49.325,47.107 Z M27.016,15.05 C27.4178964,15.4514769 27.9629297,15.6766854 28.531,15.676 C29.0994167,15.676951 29.6448587,15.4517223 30.047,15.05 C30.4486883,14.6501046 30.6744228,14.1065988 30.6742351,13.5397921 C30.6740474,12.9729855 30.4479531,12.4296293 30.046,12.03 L23.306,5.315 C22.4680457,4.48129456 21.1139543,4.48129456 20.276,5.315 C19.874119,5.71493348 19.6481802,6.25852989 19.6481802,6.8255 C19.6481802,7.39247011 19.874119,7.93606652 20.276,8.336 L27.016,15.051 L27.016,15.05 Z M42.335,15.675 C42.9034167,15.675951 43.4488587,15.4507223 43.851,15.049 L50.581,8.336 C50.9825561,7.93597161 51.2081106,7.39239099 51.2077352,6.82558428 C51.2073599,6.25877757 50.9810855,5.71549618 50.579,5.316 C49.7407706,4.48257105 48.3866791,4.48301794 47.549,5.317 L40.819,12.03 C40.4174439,12.4300284 40.1918894,12.973609 40.1922648,13.5404157 C40.1926401,14.1072224 40.4189145,14.6505038 40.821,15.05 C41.222815,15.450865 41.7674196,15.6756852 42.335,15.675 Z M35.43,13.758 C35.9975636,13.7590619 36.542303,13.534616 36.9443812,13.134038 C37.3464594,12.7334601 37.5729401,12.1895636 37.574,11.622 L37.576,2.136 C37.5737928,0.954891846 36.6151097,-0.00110590361 35.434,1.81555583e-16 C34.2524995,-0.00221163615 33.2927585,0.95350062 33.29,2.135 L33.288,11.621 C33.2896558,12.8024989 34.2485005,13.7591054 35.43,13.758 Z" id="Shape"></path>
            </g>
            <path d="M100.964,227.541 C86.92,240.8 86.284,262.931 99.542,276.975 C99.775,277.223 100.012,277.466 100.252,277.706 C113.909,291.363 136.05,291.363 149.706,277.706 C163.363,264.051 163.363,241.909 149.706,228.253 C136.329,214.863 114.726,214.548 100.964,227.541 Z M107.672,242.594 L114.595,235.671 L124.98,246.056 L135.365,235.671 L142.289,242.594 L131.904,252.983 L142.29,263.364 L135.366,270.288 L124.981,259.903 L114.595,270.288 L107.672,263.364 L118.057,252.983 L107.672,242.594 Z" id="Shape" fill="#F5A623" fill-rule="nonzero"></path>
            <g id="Group" transform="translate(0.000000, 320.000000)" fill="#FFFFFF" fill-rule="nonzero">
                <path d="M38.645,4.607 C38.645,4.607 37.968,4.175 37.516,4.032 C37.516,4.032 36.161,3.456 35.936,3.169 C35.936,3.169 35.409,2.665 35.71,2.162 C35.71,2.162 35.86,1.802 36.387,1.802 C36.387,1.802 37.14,1.874 37.14,2.378 L37.14,3.168 L39.699,3.168 L39.699,2.018 C39.699,2.018 39.925,0.077 36.689,0.005 C36.689,0.005 34.129,-0.139 33.452,1.155 C33.452,1.155 33.151,1.443 33.151,2.45 L33.151,3.169 C33.151,3.169 33.151,4.032 33.602,4.535 C33.602,4.535 33.828,4.895 34.505,5.254 C34.505,5.254 35.785,5.901 36.538,6.261 C36.538,6.261 37.29,6.692 37.215,7.339 C37.215,7.339 37.14,8.059 36.387,7.986 C36.387,7.986 35.71,7.986 35.71,7.267 L35.71,6.62 L33,6.62 L33,7.77 C33,7.77 32.925,10 36.462,10 C36.462,10 39.849,10.072 40,7.77 L40,6.764 C39.85,6.764 40,5.326 38.645,4.607 Z M25.448,0 L24.538,5.462 L24.31,5.462 L23.476,0 L19.152,0 L19,10 L21.503,10 L21.579,2.462 L21.731,2.462 L23.097,10 L25.827,10 L27.193,2.462 L27.345,2.462 L27.42,10 L30,10 L29.697,0 L25.448,0 Z M10.51,0 L9,10 L11.47,10 L12.431,2.308 L12.637,2.308 L13.53,10 L16,10 L14.49,0 L10.51,0 Z M66.466,4.528 L66.466,5.894 L67.252,5.894 L67.252,7.404 C67.252,8.122 66.545,8.122 66.545,8.122 C65.76,8.122 65.76,7.403 65.76,7.403 L65.76,2.3 C65.76,1.797 66.466,1.726 66.466,1.726 C67.173,1.726 67.173,2.372 67.173,2.372 L67.173,3.162 L69.843,3.162 C69.921,1.654 69.607,1.294 69.607,1.294 C68.979,-0.071 66.467,0.001 66.467,0.001 C62.619,0.001 63.011,2.731 63.011,2.731 L63.011,7.691 C63.09,10.278 66.938,9.991 67.016,9.991 C68.744,9.847 69.215,9.344 69.215,9.344 C69.685,9.056 69.843,8.554 69.843,8.554 C70,8.266 70,7.475 70,7.475 L70,4.6 L66.466,4.6 L66.466,4.528 Z M57.673,6.077 L57.527,6.077 L55.055,0 L52,0 L52,10 L54.473,10 L54.327,3.923 L54.4,3.923 L57.018,10 L60,10 L60,0 L57.527,0 L57.673,6.077 Z M46.292,7.26 C46.292,7.26 46.292,8.074 45.615,8.074 C45.615,8.074 44.863,8.148 44.863,7.334 L44.863,0.074 L42.005,0.074 L42.005,7.259 C42.005,7.259 41.705,9.999 45.615,9.999 C45.615,9.999 49,10.074 49,7.407 L49,0 L46.292,0 L46.292,7.26 Z M5.795,4.604 C5.795,4.604 5.118,4.173 4.666,4.029 C4.666,4.029 3.311,3.453 3.086,3.165 C3.086,3.165 2.559,2.662 2.86,2.158 C2.86,2.158 3.01,1.798 3.537,1.798 C3.537,1.798 4.29,1.87 4.29,2.374 L4.29,3.165 L6.773,3.165 L6.773,2.015 C6.773,2.015 7,0.071 3.763,0 L3.161,0 C3.161,0 1.204,0.072 0.527,1.151 C0.527,1.151 0.226,1.439 0.226,2.446 L0.226,3.166 C0.226,3.166 0.226,4.029 0.677,4.532 C0.677,4.532 0.903,4.892 1.581,5.252 C1.581,5.252 2.86,5.899 3.613,6.259 C3.613,6.259 4.365,6.69 4.29,7.338 C4.29,7.338 4.215,8.058 3.462,7.985 C3.462,7.985 2.785,7.985 2.785,7.266 L2.785,6.619 L0,6.619 L0,7.769 C0,7.769 -0.075,10 3.462,10 C3.462,10 6.849,10.073 6.999,7.77 L6.999,6.763 C6.999,6.763 7.074,5.325 5.795,4.605 L5.795,4.604 Z" id="Shape"></path>
            </g>
            <path d="M221,218 C201.67,218 186,233.67 186,253 C186,272.33 201.67,288 221,288 C240.331,288 256,272.33 256,253 C256,233.67 240.33,218 221,218 Z M214.58,270.979 L199.168,255.569 L204.305,250.432 L214.58,260.706 L237.695,237.589 L242.832,242.726 L214.58,270.979 Z" id="Shape" fill="#6AC259" fill-rule="nonzero"></path>
            <g id="Group" fill-rule="nonzero">
                <path d="M42.442,21.532 C42.442,20.59 43.197,19.823 44.126,19.823 C45.053,19.823 45.808,20.59 45.808,21.532 C45.808,22.476 45.053,23.244 44.126,23.244 C43.197,23.244 42.442,22.476 42.442,21.532 Z M45.399,21.532 C45.399,20.733 44.829,20.153 44.126,20.153 C43.421,20.153 42.853,20.733 42.853,21.532 C42.853,22.334 43.421,22.912 44.126,22.912 C44.829,22.912 45.399,22.334 45.399,21.532 Z M43.476,20.557 L44.186,20.557 C44.641,20.557 44.891,20.717 44.891,21.126 C44.891,21.458 44.703,21.618 44.391,21.647 L44.903,22.494 L44.54,22.494 L44.047,21.66 L43.832,21.66 L43.832,22.494 L43.476,22.494 L43.476,20.557 Z M43.832,21.387 L44.145,21.387 C44.351,21.387 44.536,21.356 44.536,21.097 C44.536,20.867 44.332,20.831 44.149,20.831 L43.832,20.831 L43.832,21.387 Z" id="Shape" fill="#09539F"></path>
                <path d="M24.036,0.154 C21.436,0.154 19.246,1.929 18.57,4.35 C18.5192037,4.53221813 18.4771557,4.71676249 18.444,4.903 L13.218,27.91 L20.977,27.91 C23.635,27.91 25.867,26.054 26.487,23.547 L26.489,23.547 L31.803,0.155 L24.036,0.155 L24.036,0.154 Z" id="Shape" fill="#F37226"></path>
                <path d="M36.938,4.78 C34.511,4.78 32.44,6.329 31.628,8.505 C31.5628573,8.69440178 31.5005172,8.8847559 31.441,9.076 L28.214,23.284 L35.974,23.284 C38.64,23.284 40.877,21.417 41.49,18.899 L41.489,18.9 L44.696,4.78 L36.938,4.78 Z" id="Shape" fill="#53B949"></path>
                <path d="M3.647,8.745 C3.62963629,8.79667073 3.61329974,8.84868097 3.598,8.901 L3.474,9.395 L0.32,23.283 L8.267,23.283 C10.643,23.283 12.664,21.753 13.434,19.61 L13.734,18.288 L16.8,4.781 L9.043,4.781 C6.528,4.781 4.395,6.443 3.647,8.745 Z" id="Shape" fill="#09539F"></path>
                <path d="M5.582,9.905 C5.144,10.272 4.863,10.721 4.78,11.079 L3.139,18.609 L3.231,18.607 C3.743,18.607 4.224,18.424 4.66,18.058 C5.097,17.694 5.375,17.248 5.486,16.731 L5.906,14.818 L9.43,14.818 C9.94,14.818 10.423,14.633 10.865,14.268 C11.307,13.902 11.588,13.453 11.697,12.934 L11.717,12.839 L6.343,12.839 L6.671,11.332 L11.763,11.332 C12.276,11.332 12.756,11.149 13.193,10.786 C13.628,10.423 13.9,9.965 14.02,9.45 L14.04,9.354 L7.01,9.353 C6.5,9.355 6.018,9.54 5.582,9.905 Z M41.46,9.802 C41.177,9.514 40.808,9.369 40.363,9.369 L33.339,9.369 L33.326,9.431 C33.299,9.571 33.285,9.701 33.285,9.825 C33.285,10.261 33.427,10.628 33.71,10.915 C33.994,11.203 34.362,11.348 34.808,11.348 L36.325,11.348 L34.802,18.611 L34.897,18.611 C35.407,18.611 35.886,18.428 36.321,18.065 C36.756,17.701 37.03,17.254 37.134,16.736 L38.262,11.348 L41.833,11.348 L41.845,11.284 C41.873,11.152 41.885,11.014 41.885,10.879 C41.885,10.449 41.742,10.088 41.46,9.802 Z M26.045,9.356 L21.296,9.356 L21.298,9.351 L19.347,9.351 L17.41,18.61 L17.504,18.61 C18.014,18.61 18.494,18.425 18.928,18.06 C19.363,17.697 19.637,17.25 19.743,16.732 L20.137,14.829 L24.93,14.829 C25.44,14.829 25.92,14.645 26.355,14.284 C26.788,13.922 27.066,13.472 27.181,12.945 L27.542,11.272 C27.568,11.141 27.582,11.003 27.582,10.864 C27.582,10.437 27.437,10.074 27.15,9.787 C26.862,9.501 26.49,9.356 26.045,9.356 Z M20.876,11.335 L25.579,11.335 L25.256,12.85 L20.549,12.85 L20.876,11.335 Z" id="Shape" fill="#FFFFFF"></path>
                <g transform="translate(49.000000, 9.000000)" fill="#FFFFFF" id="Shape">
                    <path d="M0.877,7.198 C1.387,7.461 2.205,7.721 3.033,7.721 C3.925,7.721 4.399,7.361 4.399,6.812 C4.399,6.287 3.991,5.987 2.957,5.638 C1.528,5.14 0.584,4.366 0.584,3.143 C0.584,1.708 1.821,0.623 3.838,0.623 C4.82,0.623 5.522,0.811 6.033,1.046 L5.597,2.569 C5.03976191,2.30280951 4.429546,2.16606645 3.812,2.169 C2.97,2.169 2.562,2.555 2.562,2.98 C2.562,3.517 3.033,3.753 4.157,4.166 C5.675,4.715 6.377,5.49 6.377,6.674 C6.377,8.082 5.28,9.281 2.919,9.281 C1.936,9.281 0.968,9.019 0.482,8.757 L0.877,7.198 Z M7.588,0.288 L9.528,0.288 L9.528,3.794 L9.551,3.794 C9.756,3.519 10.011,3.306 10.318,3.157 C10.612,3.007 10.969,2.92 11.326,2.92 C12.564,2.92 13.509,3.756 13.509,5.602 L13.509,9.157 L11.569,9.157 L11.569,5.802 C11.569,5.002 11.289,4.455 10.562,4.455 C10.05,4.455 9.732,4.779 9.592,5.129 C9.54,5.24 9.528,5.402 9.528,5.539 L9.528,9.157 L7.588,9.157 L7.588,0.287 L7.588,0.288 Z M17.936,9.296 C16.111,9.296 14.708,8.121 14.708,6.152 C14.708,4.182 16.035,2.92 18.051,2.92 C19.953,2.92 21.227,4.206 21.227,6.052 C21.227,8.274 19.607,9.296 17.949,9.296 L17.936,9.296 Z M17.986,7.936 C18.753,7.936 19.223,7.198 19.223,6.1 C19.223,5.203 18.867,4.279 17.986,4.279 C17.068,4.279 16.712,5.203 16.712,6.113 C16.712,7.148 17.157,7.936 17.974,7.936 L17.986,7.936 Z M22.428,5.103 C22.428,4.304 22.402,3.631 22.377,3.056 L24.062,3.056 L24.148,3.905 L24.176,3.905 C24.634,3.269 25.35,2.919 26.256,2.919 C27.621,2.919 28.845,4.079 28.845,6.026 C28.845,8.246 27.405,9.295 26.013,9.295 C25.26,9.295 24.674,8.995 24.393,8.596 L24.365,8.596 L24.365,11.628 L22.43,11.628 L22.43,5.103 L22.429,5.103 L22.428,5.103 Z M24.365,6.538 C24.365,6.687 24.38,6.812 24.405,6.938 C24.532,7.448 24.978,7.834 25.54,7.834 C26.381,7.834 26.88,7.148 26.88,6.114 C26.88,5.14 26.433,4.404 25.566,4.404 C25.016,4.404 24.532,4.804 24.405,5.364 C24.38,5.464 24.365,5.589 24.365,5.702 L24.365,6.538 Z"></path>
                </g>
            </g>
            <g id="Group" transform="translate(0.000000, 34.000000)" fill-rule="nonzero">
                <path d="M45.244,23.07 C45.244,22.061 46.05,21.24 47.04,21.24 C48.028,21.24 48.833,22.061 48.833,23.07 C48.833,24.081 48.028,24.904 47.04,24.904 C46.05,24.904 45.244,24.081 45.244,23.07 Z M48.397,23.07 C48.397,22.214 47.789,21.593 47.04,21.593 C46.288,21.593 45.683,22.214 45.683,23.07 C45.683,23.929 46.288,24.55 47.04,24.55 C47.789,24.548 48.397,23.929 48.397,23.07 Z M46.347,22.025 L47.104,22.025 C47.589,22.025 47.855,22.198 47.855,22.635 C47.855,22.991 47.655,23.162 47.323,23.193 L47.868,24.101 L47.481,24.101 L46.956,23.207 L46.726,23.207 L46.726,24.101 L46.347,24.101 L46.347,22.025 Z M46.727,22.915 L47.06,22.915 C47.28,22.915 47.477,22.881 47.477,22.605 C47.477,22.358 47.26,22.319 47.064,22.319 L46.727,22.319 L46.727,22.914 L46.727,22.915 Z" id="Shape" fill="#09539F"></path>
                <path d="M25.624,0.165 C22.853,0.165 20.517,2.067 19.796,4.66 C19.7419045,4.85575437 19.697187,5.05398008 19.662,5.254 L14.091,29.904 L22.362,29.904 C25.196,29.904 27.575,27.914 28.236,25.229 L28.238,25.229 L33.903,0.165 L25.623,0.165 L25.624,0.165 Z" id="Shape" fill="#F37226"></path>
                <path d="M39.378,5.122 C36.79,5.122 34.583,6.781 33.716,9.112 C33.671,9.232 33.518,9.725 33.518,9.725 L30.078,24.947 L38.349,24.947 C41.192,24.947 43.576,22.947 44.229,20.249 L44.229,20.25 L47.647,5.122 L39.377,5.122 L39.378,5.122 Z" id="Shape" fill="#53B949"></path>
                <path d="M3.888,9.37 C3.86958184,9.42498765 3.85224516,9.48033165 3.836,9.536 L3.704,10.066 L0.34,24.946 L8.812,24.946 C11.345,24.946 13.499,23.306 14.32,21.011 L14.64,19.594 L17.91,5.122 L9.64,5.122 C6.958,5.122 4.685,6.903 3.887,9.369 L3.888,9.37 Z" id="Shape" fill="#09539F"></path>
                <path d="M5.95,10.613 C5.483,11.006 5.184,11.486 5.096,11.871 L3.346,19.939 L3.444,19.937 C3.99,19.937 4.503,19.74 4.968,19.348 C5.434,18.958 5.73,18.479 5.848,17.926 L6.297,15.876 L10.053,15.876 C10.597,15.876 11.111,15.679 11.583,15.286 C12.053,14.896 12.353,14.414 12.469,13.858 L12.49,13.756 L6.762,13.756 L7.112,12.141 L12.54,12.141 C13.086,12.141 13.598,11.945 14.064,11.556 C14.5083407,11.1898203 14.8185615,10.686503 14.946,10.125 L14.967,10.022 L7.474,10.021 C6.928,10.023 6.415,10.221 5.95,10.613 Z M44.198,10.502 C43.896,10.194 43.503,10.038 43.028,10.038 L35.54,10.038 L35.527,10.105 C35.497,10.255 35.483,10.395 35.483,10.527 C35.483,10.994 35.635,11.387 35.937,11.695 C36.239,12.003 36.631,12.159 37.107,12.159 L38.724,12.159 L37.101,19.939 L37.201,19.939 C37.746,19.939 38.256,19.744 38.72,19.355 C39.183,18.965 39.475,18.486 39.586,17.931 L40.788,12.159 L44.596,12.159 L44.608,12.09 C44.638,11.949 44.651,11.802 44.651,11.656 C44.651,11.196 44.498,10.808 44.198,10.502 Z M27.765,10.024 L22.703,10.024 L22.704,10.018 L20.624,10.018 L18.56,19.94 L18.66,19.94 C19.204,19.94 19.715,19.742 20.178,19.35 C20.641,18.962 20.934,18.483 21.047,17.928 L21.467,15.889 L26.577,15.889 C27.12,15.889 27.631,15.692 28.096,15.305 C28.557,14.918 28.854,14.435 28.976,13.871 L29.361,12.078 C29.389,11.938 29.403,11.79 29.403,11.641 C29.403,11.184 29.249,10.795 28.943,10.487 C28.636,10.181 28.24,10.025 27.765,10.025 L27.765,10.024 Z M22.255,12.144 L27.268,12.144 L26.924,13.768 L21.906,13.768 L22.255,12.145 L22.255,12.144 Z" id="Shape" fill="#FFFFFF"></path>
            </g>
            <g id="Group" transform="translate(52.000000, 43.000000)" fill="#000000">
                <path d="M1.17,8.355 C1.715,8.637 2.586,8.915 3.469,8.915 C4.42,8.915 4.925,8.529 4.925,7.942 C4.925,7.379 4.49,7.058 3.388,6.684 C1.865,6.15 0.858,5.321 0.858,4.01 C0.858,2.473 2.178,1.31 4.328,1.31 C5.374,1.31 6.123,1.511 6.667,1.764 L6.203,3.396 C5.60896201,3.11090773 4.95789822,2.96455516 4.299,2.968 C3.402,2.968 2.966,3.381 2.966,3.836 C2.966,4.411 3.47,4.664 4.667,5.106 C6.286,5.694 7.034,6.525 7.034,7.793 C7.034,9.303 5.864,10.587 3.347,10.587 C2.3,10.587 1.267,10.307 0.749,10.025 L1.171,8.355 L1.17,8.355 Z M8.325,0.951 L10.392,0.951 L10.392,4.708 L10.418,4.708 C10.636,4.413 10.908,4.185 11.236,4.025 C11.548,3.865 11.929,3.772 12.309,3.772 C13.629,3.772 14.637,4.667 14.637,6.645 L14.637,10.455 L12.57,10.455 L12.57,6.859 C12.57,6.003 12.27,5.416 11.495,5.416 C10.95,5.416 10.611,5.764 10.461,6.138 C10.406,6.258 10.393,6.431 10.393,6.578 L10.393,10.454 L8.325,10.454 L8.325,0.951 Z M19.356,10.603 C17.411,10.603 15.915,9.344 15.915,7.235 C15.915,5.123 17.33,3.772 19.479,3.772 C21.506,3.772 22.865,5.149 22.865,7.127 C22.865,9.507 21.138,10.603 19.371,10.603 L19.356,10.603 Z M19.41,9.145 C20.228,9.145 20.729,8.355 20.729,7.179 C20.729,6.217 20.349,5.227 19.41,5.227 C18.431,5.227 18.051,6.217 18.051,7.193 C18.051,8.302 18.526,9.145 19.396,9.145 L19.41,9.145 Z M24.145,6.11 C24.145,5.254 24.118,4.533 24.09,3.917 L25.886,3.917 L25.979,4.827 L26.009,4.827 C26.497,4.145 27.259,3.771 28.226,3.771 C29.68,3.771 30.986,5.014 30.986,7.099 C30.986,9.478 29.45,10.602 27.967,10.602 C27.164,10.602 26.54,10.281 26.239,9.853 L26.21,9.853 L26.21,13.101 L24.146,13.101 L24.146,6.11 L24.145,6.11 Z M26.209,7.648 C26.209,7.808 26.226,7.942 26.252,8.077 C26.388,8.623 26.864,9.037 27.462,9.037 C28.359,9.037 28.89,8.301 28.89,7.193 C28.89,6.15 28.414,5.363 27.49,5.363 C26.905,5.363 26.388,5.79 26.252,6.391 C26.226,6.498 26.209,6.631 26.209,6.751 L26.209,7.648 Z" id="Shape" fill-rule="nonzero"></path>
                <g transform="translate(30.359000, 3.874000)" font-family="Arial-BoldMT, Arial" font-size="7" font-weight="bold" id=".com.vn">
                    <text>
                        <tspan x="0.627" y="6.393">.com.vn</tspan>
                    </text>
                </g>
            </g>
            <polygon id="Shape" points="36 124 60 124 60 148 36 148"></polygon>
            <path d="M52.1,124.8 L44.1,124.8 C42.7192881,124.8 41.6,125.919288 41.6,127.3 L41.6,144.3 C41.6,145.680712 42.7192881,146.8 44.1,146.8 L52.1,146.8 C53.4807119,146.8 54.6,145.680712 54.6,144.3 L54.6,127.3 C54.6,125.919288 53.4807119,124.8 52.1,124.8 Z M48.1,145.8 C47.27,145.8 46.6,145.13 46.6,144.3 C46.6,143.47 47.27,142.8 48.1,142.8 C48.93,142.8 49.6,143.47 49.6,144.3 C49.6,145.13 48.93,145.8 48.1,145.8 Z M52.6,141.8 L43.6,141.8 L43.6,127.8 L52.6,127.8 L52.6,141.8 Z" id="Shape" fill="#FFFFFF" fill-rule="nonzero"></path>
            <g id="Group" transform="translate(98.000000, 124.000000)">
                <g id="Clipped">
                    <mask id="mask-2" fill="white">
                        <use xlink:href="#path-1"></use>
                    </mask>
                    <g id="a"></g>
                    <path d="M20,18 C21.1,18 22,17.1 22,16 L22,6 C22,4.9 21.1,4 20,4 L4,4 C2.9,4 2,4.9 2,6 L2,16 C2,17.1 2.9,18 4,18 L0,18 L0,20 L24,20 L24,18 L20,18 Z M4,6 L20,6 L20,16 L4,16 L4,6 Z" id="Shape" fill="#FFFFFF" fill-rule="nonzero" mask="url(#mask-2)"></path>
                </g>
            </g>
            <polygon id="Shape" points="66 124 90 124 90 148 66 148"></polygon>
            <g id="Group" transform="translate(68.000000, 125.000000)" fill="#FFFFFF" fill-rule="nonzero">
                <path d="M1.779,8.286 C0.003,11.293 1.132,15.857 3.096,18.624 C4.076,20.008 5.068,21.25 6.427,21.25 C6.453,21.25 6.478,21.25 6.505,21.248 C7.143,21.223 7.605,21.031 8.051,20.846 C8.551,20.638 9.07,20.422 9.883,20.422 C10.656,20.422 11.149,20.631 11.626,20.832 C12.096,21.031 12.581,21.236 13.296,21.223 C14.827,21.195 15.767,19.855 16.596,18.673 C17.2156937,17.7847948 17.7031135,16.8113024 18.043,15.783 L18.048,15.764 C18.0754936,15.6821332 18.0360345,15.5928083 17.957,15.558 L17.944,15.553 C17.674,15.445 15.31,14.421 15.285,11.63 C15.262,9.363 17.059,8.162 17.42,7.944 L17.436,7.934 C17.475011,7.91023404 17.5024238,7.87135895 17.5117102,7.82663263 C17.5209966,7.78190632 17.5113255,7.7353316 17.485,7.698 C16.245,5.926 14.343,5.659 13.578,5.628 C13.465006,5.61686865 13.3515408,5.61119539 13.238,5.611 C12.338,5.611 11.477,5.942 10.785,6.209 C10.307,6.393 9.895,6.551 9.61,6.551 C9.29,6.551 8.875,6.391 8.395,6.205 C7.752,5.955 7.025,5.674 6.253,5.674 L6.2,5.674 C4.407,5.7 2.714,6.701 1.78,8.286 L1.779,8.286 Z" id="Shape"></path>
                <path d="M13.58,0.75 C12.494,0.794 11.192,1.446 10.414,2.336 C9.752,3.083 9.106,4.33 9.276,5.587 C9.28718124,5.66669192 9.3527071,5.72762679 9.433,5.733 C9.507,5.738 9.582,5.741 9.656,5.741 C10.717,5.741 11.862,5.168 12.644,4.245 C13.467,3.271 13.884,2.02 13.758,0.9 C13.7466507,0.81134709 13.6692938,0.746158707 13.58,0.75 Z" id="Shape"></path>
            </g>
            <polygon id="Shape" points="165 124 189 124 189 148 165 148"></polygon>
            <path d="M186,128 L168,128 C166.9,128 166,128.9 166,130 L166,142 C166,143.1 166.9,144 168,144 L186,144 C187.1,144 187.99,143.1 187.99,142 L188,130 C188,128.9 187.1,128 186,128 Z M184,142 L170,142 L170,130 L184,130 L184,142 Z" id="Shape" fill="#FFFFFF" fill-rule="nonzero"></path>
            <g id="Group-2" transform="translate(347.000000, 124.000000)">
                <polygon id="Shape" points="0 0 24 0 24 24 0 24"></polygon>
                <path d="M19.5647207,5.8210743 C19.9315633,5.8210743 20.2704732,5.93884366 20.5503418,6.13613093 L19.9139881,3.25365151 C19.7655548,2.47830632 19.2144068,2 18.4755609,2 L5.42632185,2 C4.76546384,2 4.19190463,2.51514103 4.03109295,3.25296131 L3.43923672,5.93426656 C3.62592406,5.86444772 3.82506203,5.82103798 4.03524317,5.82103798 L19.5647207,5.82103798 L19.5647207,5.8210743 Z M17.5372523,2.91185884 C18.0852967,2.91185884 18.5294054,3.35892468 18.5294054,3.91053715 C18.5294054,4.46214962 18.0852606,4.90921546 17.5372523,4.90921546 C16.989244,4.90921546 16.5450991,4.46214962 16.5450991,3.91053715 C16.5450991,3.35892468 16.9892078,2.91185884 17.5372523,2.91185884 Z M14.4313423,2.91185884 C14.9793868,2.91185884 15.4234955,3.35892468 15.4234955,3.91053715 C15.4234955,4.46214962 14.9793507,4.90921546 14.4313423,4.90921546 C13.883334,4.90921546 13.4391892,4.46214962 13.4391892,3.91053715 C13.4391892,3.35892468 13.883334,2.91185884 14.4313423,2.91185884 Z M10.592108,3.04212438 L12.3175855,3.04212438 L12.3175855,3.73686186 L10.592108,3.73686186 L10.592108,3.04212438 Z M10.592108,4.43159935 L12.3175855,4.43159935 L12.3175855,5.12633682 L10.592108,5.12633682 L10.592108,4.43159935 Z M4.03524316,21.8 C3.46446279,21.8 2.99996391,21.3324462 3,20.7579119 L3,7.55789983 C3,7.32272439 3.08076672,7.10770995 3.21191341,6.93298121 C3.23710338,6.89963381 3.26229336,6.8662864 3.29127266,6.83606306 C3.34338489,6.78186445 3.39997211,6.73289681 3.46244181,6.69086746 C3.53418635,6.64259002 3.61390649,6.60680877 3.69709116,6.57763888 C3.71055228,6.73602086 3.75126044,6.89305878 3.81441583,7.04450246 C3.89583216,7.24040935 4.01351771,7.42658083 4.15812552,7.59124723 C4.18190803,7.61834654 4.20572663,7.64471931 4.23059181,7.67043822 C4.56704765,8.01746187 5.01949287,8.25263731 5.46811268,8.25263731 L18.8220133,8.25263731 C19.3468888,8.25263731 19.735132,7.95948535 19.9742925,7.54783749 C19.9919038,7.51761415 20.0077829,7.4860104 20.0236258,7.45440665 C20.0957674,7.31229878 20.151308,7.15878451 20.1896343,6.999676 C20.2079313,6.92360905 20.2231247,6.84685192 20.2334822,6.76904132 C20.2693906,6.79995486 20.3035666,6.83261207 20.3349639,6.86839332 C20.3905046,6.93123754 20.4374561,7.00040253 20.4767928,7.07541601 C20.4926719,7.10563936 20.5102471,7.13513618 20.5230225,7.16710319 C20.5717063,7.28799659 20.6,7.41964254 20.6,7.55789983 L20.6,20.7578756 C20.6,21.3324462 20.135465,21.8 19.5646846,21.8 L4.03524316,21.8 Z M11.8575977,9.72896808 C8.90802443,9.72896808 6.50858872,12.1442207 6.50858872,15.1131926 C6.50858872,18.0821646 8.90806051,20.4974172 11.8575977,20.4974172 C14.8072071,20.4974172 17.2066428,18.0821646 17.2066428,15.1131926 C17.2066428,12.1442207 14.807171,9.72896808 11.8575977,9.72896808 Z M5.46811268,7.55789983 C4.97701636,7.55789983 4.4248578,7.01391585 4.38725327,6.51581178 L19.5616172,6.51581178 C19.5471454,6.90624516 19.3725119,7.4033321 19.003576,7.52803975 C18.9473498,7.5471473 18.887298,7.55789983 18.8220855,7.55789983 L18.701982,7.55789983 L5.46811268,7.55789983 Z M11.8575977,19.4552928 C9.4788409,19.4552928 7.54386798,17.507594 7.54386798,15.1131926 C7.54386798,12.7187913 9.4788409,10.7710925 11.8575977,10.7710925 C14.2363907,10.7710925 16.1713274,12.7187913 16.1713274,15.1131926 C16.1713274,17.507594 14.2363907,19.4552928 11.8575977,19.4552928 Z M13.9423752,12.8191604 C13.6524378,12.8191604 13.4177885,13.0557162 13.4174637,13.3474878 C13.4174637,13.6392957 13.6524739,13.8758516 13.9423752,13.8758516 C14.2322405,13.8758516 14.4672506,13.6392957 14.4672506,13.3474878 C14.4672506,13.0557162 14.2322405,12.8191604 13.9423752,12.8191604 Z M12.2168617,11.7770361 C11.9269604,11.7770361 11.692311,12.0135918 11.6919501,12.3053634 C11.6919501,12.5971713 11.9269604,12.8337272 12.2168617,12.8337272 C12.5067269,12.8337272 12.7417371,12.5971713 12.7417371,12.3053634 C12.7417371,12.0135918 12.5067269,11.7770361 12.2168617,11.7770361 Z M8.68304687,14.6174861 C8.65818169,14.7793554 8.64129214,14.9439854 8.64197782,15.1135195 C8.64197782,16.9013833 10.0817403,18.3506148 11.8579586,18.3506148 C13.6341408,18.3506148 15.0739393,16.9014196 15.0739393,15.1135195 C15.0739393,14.7842231 15.0242451,14.4670595 14.9334457,14.1676232 C14.7477689,14.5361519 14.329211,15.0144945 13.4025951,14.9981841 C13.2279615,14.99506 13.0764968,14.9780594 12.9394676,14.9516502 C13.1430806,14.8318103 13.2811202,14.6119282 13.2811202,14.3573183 C13.2811202,13.9755668 12.9736798,13.666068 12.5943866,13.666068 C12.2151655,13.666068 11.9076529,13.9755305 11.9076529,14.3573183 C11.9076529,14.388922 11.9128497,14.4191453 11.9169999,14.4496956 C11.5894941,14.2058383 11.2661385,13.9710261 10.6124982,13.964778 C9.72074408,13.956096 9.0436822,14.3479097 8.68304687,14.6174861 Z" id="Combined-Shape" fill="#FFFFFF" fill-rule="nonzero"></path>
            </g>
            <polygon id="Shape" opacity="0.1" points="132 124 156 124 156 148 132 148"></polygon>
            <path d="M144.2,126.4 C139.229437,126.4 135.2,130.429437 135.2,135.4 L135.2,142.4 C135.2,144.06 136.54,145.4 138.2,145.4 L141.2,145.4 L141.2,137.4 L137.2,137.4 L137.2,135.4 C137.2,131.53 140.33,128.4 144.2,128.4 C148.07,128.4 151.2,131.53 151.2,135.4 L151.2,137.4 L147.2,137.4 L147.2,145.4 L150.2,145.4 C151.86,145.4 153.2,144.06 153.2,142.4 L153.2,135.4 C153.2,130.429437 149.170563,126.4 144.2,126.4 Z M218.07,128.31 C218.07,127.26 217.22,126.4 216.17,126.4 L208.53,126.4 L202.8,132.13 L202.8,143.59 C202.8,144.64 203.66,145.5 204.71,145.5 L216.18,145.5 C217.23,145.5 218.08,144.64 218.08,143.59 L218.07,128.31 Z M207.575,142.635 L205.665,142.635 L205.665,140.725 L207.575,140.725 L207.575,142.635 Z M215.215,142.635 L213.305,142.635 L213.305,138.815 L215.215,138.815 L215.215,142.635 Z M207.575,140.725 L205.665,140.725 L205.665,134.995 L207.575,134.995 L207.575,140.725 Z M211.395,142.635 L209.485,142.635 L209.485,136.905 L211.395,136.905 L211.395,142.635 Z M211.395,136.905 L209.485,136.905 L209.485,134.995 L211.395,134.995 L211.395,136.905 Z M215.215,138.815 L213.305,138.815 L213.305,134.995 L215.215,134.995 L215.215,138.815 Z" id="Shape" fill="#FFFFFF" fill-rule="nonzero"></path>
            <path d="M198,124 L222,124 L222,148 L198,148 L198,124 Z M7,123 L31,123 L31,147 L7,147 L7,123 Z" id="Shape"></path>
            <path d="M28.41,135.38 L19.41,126.38 C19.05,126.02 18.55,125.8 18,125.8 L11,125.8 C9.9,125.8 9,126.7 9,127.8 L9,134.8 C9,135.35 9.22,135.85 9.59,136.22 L18.59,145.22 C18.95,145.58 19.45,145.8 20,145.8 C20.55,145.8 21.05,145.58 21.41,145.21 L28.41,138.21 C28.78,137.85 29,137.35 29,136.8 C29,136.25 28.77,135.74 28.41,135.38 Z M12.5,130.8 C11.67,130.8 11,130.13 11,129.3 C11,128.47 11.67,127.8 12.5,127.8 C13.33,127.8 14,128.47 14,129.3 C14,130.13 13.33,130.8 12.5,130.8 Z" id="Shape" fill="#FFFFFF" fill-rule="nonzero"></path>
            <polygon id="Shape" points="228 124 252 124 252 148 228 148"></polygon>
            <path d="M240,143.759 L236.6,146.462 L235.44,142.277 L231.1,142.466 L232.62,138.398 L229,136 L232.62,133.602 L231.1,129.534 L235.44,129.723 L236.6,125.538 L240,128.241 L243.4,125.538 L244.56,129.723 L248.9,129.534 L247.38,133.602 L251,136 L247.38,138.398 L248.9,142.466 L244.56,142.277 L243.4,146.462 L240,143.759 Z M236,133.841 C236,134.491 236.144,134.979 236.432,135.301 C236.702545,135.615362 237.099336,135.792487 237.514,135.784 C237.934917,135.790539 238.337331,135.611282 238.614,135.294 C238.913,134.966 239.062,134.5 239.062,133.894 C239.062,133.273 238.914,132.802 238.62,132.481 C238.336373,132.164995 237.928484,131.989193 237.504,132 C237.016,132 236.643,132.179 236.386,132.537 C236.129,132.895 236,133.33 236,133.841 Z M237.533,139.544 L238.261,139.544 L242.162,132 L241.449,132 L237.533,139.544 Z M240.629,137.601 C240.629,138.248 240.773,138.734 241.061,139.058 C241.349,139.382 241.71,139.544 242.143,139.544 C242.582,139.544 242.951,139.38 243.249,139.054 C243.546,138.726 243.695,138.26 243.695,137.654 C243.695,137.033 243.548,136.561 243.253,136.241 C242.969602,135.925264 242.562138,135.749488 242.138,135.76 C241.646,135.76 241.272,135.938 241.015,136.294 C240.757,136.651 240.629,137.086 240.629,137.601 Z" id="Shape" fill="#FFFFFF" fill-rule="nonzero"></path>
            <path d="M305.76,127.2 L291.04,127.2 C290.028,127.2 289.2,128.028 289.2,129.04 L289.2,140.08 C289.2,141.092 290.028,141.92 291.04,141.92 L303.92,141.92 L307.6,145.6 L307.6,129.04 C307.6,128.028 306.772,127.2 305.76,127.2 Z M303.92,138.24 L292.88,138.24 L292.88,136.4 L303.92,136.4 L303.92,138.24 Z M303.92,135.48 L292.88,135.48 L292.88,133.64 L303.92,133.64 L303.92,135.48 Z M303.92,132.72 L292.88,132.72 L292.88,130.88 L303.92,130.88 L303.92,132.72 Z" id="Shape" fill="#FFFFFF" fill-rule="nonzero"></path>
            <path d="M286,124 L310,124 L310,148 L286,148 L286,124 Z M256,124 L280,124 L280,148 L256,148 L256,124 Z" id="Shape"></path>
            <path d="M270,126 L262,126 C260.9,126 260.01,126.9 260.01,128 L260,144 C260,145.1 260.89,146 261.99,146 L274,146 C275.1,146 276,145.1 276,144 L276,132 L270,126 Z M272,142 L264,142 L264,140 L272,140 L272,142 Z M272,138 L264,138 L264,136 L272,136 L272,138 Z M269,133 L269,127.5 L274.5,133 L269,133 Z" id="Shape" fill="#FFFFFF" fill-rule="nonzero"></path>
            <g id="Group" transform="translate(323.000000, 126.000000)" fill="#FFFFFF" fill-rule="nonzero">
                <path d="M3.846,4.57 C4.666,2.15 7.001,0.4 9.757,0.4 L18.256,0.4 L14.896,14.612 L14.567,16.002 C13.724,18.257 11.509,19.867 8.907,19.867 L0.2,19.867 L3.656,5.255 L3.792,4.735 C3.80887699,4.67996993 3.82688077,4.62529177 3.846,4.571 L3.846,4.57 Z M5.965,5.792 C5.485,6.178 5.178,6.65 5.087,7.027 L3.289,14.95 L3.389,14.948 C3.949,14.948 4.477,14.755 4.955,14.37 C5.435,13.986 5.739,13.517 5.86,12.974 L6.32,10.96 L10.18,10.96 C10.74,10.96 11.269,10.766 11.753,10.382 C12.237,9.997 12.545,9.524 12.664,8.978 L12.686,8.878 L6.798,8.878 L7.158,7.293 L12.737,7.293 C13.298,7.293 13.824,7.101 14.303,6.718 C14.78,6.336 15.078,5.855 15.209,5.313 L15.231,5.212 L7.531,5.211 C6.97,5.213 6.442,5.407 5.965,5.791 L5.965,5.792 Z" id="Shape"></path>
            </g>
            <g id="Group" transform="translate(26.000000, 72.000000)">
                <rect id="Rectangle-path" x="0" y="0" width="35" height="35" rx="2"></rect>
                <path d="M15.429,25 C15.429,25.426 15.273,25.794 14.962,26.105 C14.6737865,26.4062097 14.2738686,26.5748629 13.857,26.571 C13.4401314,26.5748629 13.0402135,26.4062097 12.752,26.105 C12.4507903,25.8167865 12.2821371,25.4168686 12.286,25 C12.286,24.574 12.441,24.206 12.752,23.895 C13.0402135,23.5937903 13.4401314,23.4251371 13.857,23.429 C14.283,23.429 14.651,23.584 14.962,23.895 C15.273,24.206 15.429,24.575 15.429,25 Z M26.429,25 C26.429,25.426 26.273,25.794 25.962,26.105 C25.6737865,26.4062097 25.2738686,26.5748629 24.857,26.571 C24.4401314,26.5748629 24.0402135,26.4062097 23.752,26.105 C23.4507903,25.8167865 23.2821371,25.4168686 23.286,25 C23.286,24.574 23.441,24.206 23.752,23.895 C24.0402135,23.5937903 24.4401314,23.4251371 24.857,23.429 C25.283,23.429 25.651,23.584 25.962,23.895 C26.273,24.206 26.429,24.575 26.429,25 Z M28,11.643 L28,17.929 C28,18.125 27.932,18.299 27.797,18.45 C27.6702028,18.597088 27.4928641,18.691288 27.3,18.714 L14.483,20.212 C14.59,20.703 14.643,20.99 14.643,21.072 C14.643,21.202 14.545,21.464 14.348,21.857 L25.643,21.857 C25.856,21.857 26.04,21.935 26.195,22.09 C26.351,22.246 26.429,22.43 26.429,22.643 C26.4305327,22.8514107 26.3458459,23.0511846 26.195,23.195 C26.0511846,23.3458459 25.8514107,23.4305327 25.643,23.429 L13.07,23.429 C12.8615893,23.4305327 12.6618154,23.3458459 12.518,23.195 C12.3675224,23.0510126 12.2832069,22.851261 12.285,22.643 C12.285,22.553 12.317,22.423 12.383,22.256 C12.448,22.088 12.513,21.941 12.579,21.814 C12.645,21.687 12.733,21.524 12.843,21.324 C12.953,21.123 13.017,21.002 13.033,20.961 L10.861,10.857 L8.357,10.857 C8.14873897,10.8587931 7.94898737,10.7744776 7.805,10.624 C7.65389954,10.4799461 7.56919037,10.2797573 7.571,10.071 C7.571,9.859 7.649,9.674 7.805,9.519 C7.94898737,9.36852239 8.14873897,9.28420695 8.357,9.286 L11.5,9.286 C11.7275271,9.28142991 11.9447282,9.38082704 12.09,9.556 C12.147,9.629 12.2,9.73 12.249,9.856 C12.298,9.983 12.331,10.09 12.347,10.176 C12.3892086,10.4027801 12.4302091,10.6297833 12.47,10.857 L27.214,10.857 C27.427,10.857 27.611,10.935 27.767,11.09 C27.922,11.246 28,11.43 28,11.643 Z" id="Shape" fill="#FFFFFF" fill-rule="nonzero"></path>
            </g>
            <g id="Group" transform="translate(150.000000, 81.000000)" fill="#FFFFFF" fill-rule="nonzero">
                <path d="M12.502,11 L11.708,11 L11.432,10.726 C12.4443276,9.55082441 13.000788,8.05107841 13,6.5 C13,2.91014913 10.0898509,-1.42108547e-14 6.5,-1.42108547e-14 C2.91014913,-1.42108547e-14 0,2.91014913 0,6.5 C0,10.0898509 2.91014913,13 6.5,13 C8.05047876,13.0011045 9.5497995,12.4453799 10.725,11.434 L11.001,11.708 L11.001,12.5 L15.999,17.491 L17.49,16 L12.502,11 Z M6.5,11 C4.01471863,11 2,8.98528137 2,6.5 C2,4.01471863 4.01471863,2 6.5,2 C8.98528137,2 11,4.01471863 11,6.5 C11,8.98528137 8.98528137,11 6.5,11 Z" id="Shape"></path>
            </g>
            <g id="Group" opacity="0.501" transform="translate(68.000000, 81.000000)" fill="#000000" fill-rule="nonzero">
                <path d="M12.502,11 L11.708,11 L11.432,10.726 C12.4443276,9.55082441 13.000788,8.05107841 13,6.5 C13,2.91014913 10.0898509,-1.42108547e-14 6.5,-1.42108547e-14 C2.91014913,-1.42108547e-14 0,2.91014913 0,6.5 C0,10.0898509 2.91014913,13 6.5,13 C8.05047876,13.0011045 9.5497995,12.4453799 10.725,11.434 L11.001,11.708 L11.001,12.5 L15.999,17.491 L17.49,16 L12.502,11 Z M6.5,11 C4.01471863,11 2,8.98528137 2,6.5 C2,4.01471863 4.01471863,2 6.5,2 C8.98528137,2 11,4.01471863 11,6.5 C11,8.98528137 8.98528137,11 6.5,11 Z" id="Shape"></path>
            </g>
            <g id="Group" transform="translate(4.000000, 81.000000)" fill="#EBEBEB" fill-rule="nonzero">
                <path d="M0,14 L18,14 L18,12 L0,12 L0,14 Z M0,8 L18,8 L18,6 L0,6 L0,8 Z M0,0 L0,2 L18,2 L18,0 L0,0 Z" id="Shape"></path>
            </g>
            <g id="Group" transform="translate(97.000000, 82.000000)">
                <circle id="Oval" fill="#F5A623" fill-rule="nonzero" cx="7.5" cy="7.5" r="7.5"></circle>
                <polygon id="Shape" fill="#FFFFFF" fill-rule="nonzero" points="9.271 4.695 10.455 5.879 7.932 8.4 5.864 6.334 2.034 10.169 2.763 10.899 5.864 7.797 7.932 9.864 11.189 6.613 12.373 7.797 12.373 4.695"></polygon>
                <polygon id="Shape" points="1 1.593 13.407 1.593 13.407 14 1 14"></polygon>
            </g>
            <g id="Group" transform="translate(72.000000, 173.000000)" fill="#EBEBEB" fill-rule="nonzero">
                <path d="M9.797,1.5 C9.79692638,1.63638991 9.74046709,1.7666806 9.641,1.86 L3.5,8 L9.64,14.14 C9.73936234,14.2333686 9.7957161,14.3636528 9.7957161,14.5 C9.7957161,14.6363472 9.73936234,14.7666314 9.64,14.86 L8.86,15.64 C8.76663145,15.7393623 8.6363472,15.7957161 8.5,15.7957161 C8.3636528,15.7957161 8.23336855,15.7393623 8.14,15.64 L0.86,8.36 C0.760637665,8.26663145 0.704283904,8.1363472 0.704283904,8 C0.704283904,7.8636528 0.760637665,7.73336855 0.86,7.64 L8.14,0.36 C8.23336855,0.260637665 8.3636528,0.204283904 8.5,0.204283904 C8.6363472,0.204283904 8.76663145,0.260637665 8.86,0.36 L9.64,1.14 C9.73983618,1.23314596 9.79666735,1.36345945 9.797,1.5 Z" id="Shape"></path>
            </g>
            <g id="Group" transform="translate(0.000000, 174.000000)" fill="#D0021B" fill-rule="nonzero">
                <path d="M17.991,14.205 C18.0329846,14.4875806 17.9335622,14.772766 17.725,14.968 L15.19,17.485 C15.0635282,17.6210868 14.911683,17.731149 14.743,17.809 C14.5719643,17.8940204 14.3887937,17.9520412 14.2,17.981 C14.187,17.981 14.149,17.984 14.085,17.991 C14.022,17.997 13.939,18 13.837,18 C13.596,18 13.205,17.959 12.665,17.876 C12.125,17.793 11.465,17.59 10.684,17.266 C9.902,16.942 9.016,16.456 8.026,15.807 C7.035,15.159 5.98,14.269 4.862,13.137 C3.973,12.261 3.236,11.422 2.652,10.621 C2.12822162,9.91586088 1.65695332,9.17319553 1.242,8.399 C0.923788072,7.80592537 0.656172609,7.18706461 0.442,6.549 C0.285306142,6.08211219 0.163963635,5.60409625 0.079,5.119 C0.016,4.719 -0.01,4.405 0.003,4.176 C0.016,3.947 0.023,3.82 0.023,3.794 C0.048,3.617 0.105,3.435 0.193,3.251 C0.283,3.067 0.391,2.917 0.518,2.803 L3.052,0.267 C3.20986931,0.0977670535 3.43056719,0.00116650625 3.662,-1.42319424e-13 C3.81983712,-0.0023490592 3.97395613,0.047968335 4.1,0.143 C4.227,0.238 4.335,0.356 4.424,0.496 L6.463,4.366 C6.57735944,4.56885975 6.61126947,4.80730081 6.558,5.034 C6.508,5.275 6.399,5.479 6.234,5.644 L5.301,6.578 C5.26967267,6.61380143 5.24677704,6.65617543 5.234,6.702 C5.21694813,6.74786638 5.20716358,6.79611432 5.205,6.845 C5.256,7.112 5.37,7.417 5.548,7.761 C5.701,8.066 5.936,8.437 6.253,8.876 C6.571,9.315 7.022,9.82 7.606,10.392 C8.178,10.977 8.686,11.432 9.131,11.755 C9.575,12.079 9.947,12.318 10.245,12.47 C10.544,12.623 10.773,12.715 10.931,12.747 L11.17,12.794 C11.195,12.794 11.236,12.784 11.293,12.766 C11.3388246,12.753223 11.3811986,12.7303273 11.417,12.699 L12.503,11.593 C12.733,11.39 12.999,11.288 13.303,11.288 C13.52,11.288 13.691,11.326 13.818,11.402 L13.838,11.402 L17.515,13.576 C17.782,13.742 17.941,13.951 17.991,14.206 L17.991,14.205 Z" id="Shape"></path>
            </g>
            <polygon id="Shape" fill="#FFFFFF" fill-rule="nonzero" opacity="0.9" points="135 90 135 96 129 96 129 90 126 90 132 84 138 90"></polygon>
            <g id="Group" transform="translate(33.000000, 171.000000)">
                <path d="M18.355,5.645 C16.6722458,3.95092888 14.3827892,2.99878854 11.995,3 C7.019,3 3,7.03 3,12.006 C3,16.981 7.019,21.011 11.994,21.011 C16.194,21.011 19.694,18.141 20.696,14.257 L18.355,14.257 C17.4044915,16.9548897 14.8554327,18.7596714 11.995,18.76 C8.26584939,18.7572432 5.24330888,15.7351502 5.24,12.006 C5.24275678,8.27684939 8.26484984,5.25430888 11.994,5.251 C13.863,5.251 15.529,6.028 16.744,7.255 L13.12,10.88 L21,10.88 L21,2.99999885 L18.355,5.645 Z" id="Shape" fill="#FFFFFF" fill-rule="nonzero"></path>
                <polygon id="Shape" points="0 0 24 0 24 24 0 24"></polygon>
            </g>
        </g>
    </g>
</svg>