<svg width="48" height="48" viewBox="0 0 48 48" fill="none" xmlns="http://www.w3.org/2000/svg">
<path d="M12.5326 27.0269C10.3945 27.0269 8.3439 27.8669 6.83199 29.3621C5.32008 30.8573 4.4707 32.8852 4.4707 34.9997C4.4707 37.1143 5.32008 39.1422 6.83199 40.6374C8.3439 42.1326 10.3945 42.9726 12.5326 42.9726H23.9537V27.0269H12.5326Z" fill="#AABCEB"/>
<path d="M13.5341 23.3997C12.4989 24.4218 11.7649 25.7035 11.4111 27.1071H11.4541C11.8116 27.0567 12.172 27.03 12.5331 27.0274H32.9372L33.1515 26.8214L21.6162 15.4136L13.5341 23.3997Z" fill="#AABCEB"/>
<path d="M35.3747 26.3619H34.2883L41.5669 19.1644C42.3902 18.3651 43.0451 17.4124 43.494 16.3613C43.9428 15.3103 44.1766 14.1817 44.1819 13.0407C44.1872 11.8998 43.9639 10.7691 43.5248 9.71405C43.0858 8.65896 42.4397 7.70034 41.6239 6.89357C40.8082 6.0868 39.8388 5.44787 38.7719 5.01367C37.7051 4.57947 36.5618 4.35862 35.4081 4.36386C34.2544 4.3691 33.1132 4.60034 32.0504 5.04421C30.9876 5.48809 30.0243 6.13581 29.216 6.94996L13.0585 22.9289C12.046 23.9318 11.2985 25.1655 10.8818 26.5214C8.75246 26.9317 6.85374 28.111 5.55536 29.8298C4.25697 31.5485 3.65185 33.6836 3.85784 35.8193C4.06382 37.9551 5.06615 39.9385 6.66967 41.3835C8.27319 42.8286 10.3631 43.6317 12.5325 43.6365H35.3747C37.691 43.6365 39.9125 42.7265 41.5504 41.1067C43.1883 39.4869 44.1085 37.29 44.1085 34.9992C44.1085 32.7085 43.1883 30.5115 41.5504 28.8917C39.9125 27.2719 37.691 26.3619 35.3747 26.3619ZM30.166 7.89142C31.5612 6.56773 33.4254 5.83749 35.3587 5.85733C37.292 5.87717 39.1405 6.6455 40.5076 7.99754C41.8748 9.34957 42.6517 11.1776 42.6718 13.0896C42.6918 15.0015 41.9534 16.8451 40.6149 18.2249L33.0166 25.748L22.5622 15.4092L30.166 7.89142ZM14.0105 23.8691L21.6123 16.3487L31.7374 26.3619H12.5325C12.4727 26.3619 12.4149 26.3699 12.3551 26.3706C12.7267 25.4328 13.2903 24.5812 14.0105 23.8691ZM5.14237 34.9992C5.14468 33.0616 5.92402 31.204 7.30944 29.8339C8.69485 28.4638 10.5732 27.693 12.5325 27.6907H23.2818V42.3077H12.5325C10.5732 42.3054 8.69485 41.5347 7.30944 40.1646C5.92402 38.7944 5.14468 36.9368 5.14237 34.9992ZM35.3747 42.3077H24.6254V27.6907H35.3747C37.3347 27.6907 39.2144 28.4607 40.6003 29.8313C41.9862 31.2019 42.7648 33.0609 42.7648 34.9992C42.7648 36.9375 41.9862 38.7965 40.6003 40.1671C39.2144 41.5377 37.3347 42.3077 35.3747 42.3077Z" fill="#325DCD"/>
<path d="M11.8694 40.9427C12.2344 40.9829 12.5332 40.6816 12.5332 40.3143C12.5332 39.9477 12.2347 39.6551 11.8717 39.6038C10.8695 39.462 9.9336 39.0031 9.20939 38.2869C8.48871 37.5742 8.02576 36.6542 7.87996 35.6685C7.82572 35.3017 7.53008 34.9998 7.15934 34.9998C6.788 34.9998 6.48315 35.3021 6.52564 35.671C6.67981 37.0093 7.28726 38.2645 8.25967 39.2261C9.23563 40.1913 10.5106 40.7929 11.8694 40.9427Z" fill="#325DCD"/>
<path d="M36.0388 29.0559C35.6738 29.0156 35.375 29.317 35.375 29.6842C35.375 30.0508 35.6735 30.3434 36.0365 30.3948C37.0387 30.5366 37.9746 30.9954 38.6988 31.7116C39.4195 32.4243 39.8824 33.3444 40.0282 34.33C40.0825 34.6968 40.3781 34.9987 40.7489 34.9987C41.1202 34.9987 41.4251 34.6965 41.3826 34.3276C41.2284 32.9893 40.6209 31.7341 39.6485 30.7724C38.6726 29.8072 37.3976 29.2056 36.0388 29.0559Z" fill="#325DCD"/>
<path d="M31.5951 8.82957C31.3085 9.05924 31.3103 9.48361 31.5699 9.74328C31.8292 10.0025 32.2471 9.99837 32.5402 9.77799C33.3491 9.16958 34.3353 8.83225 35.3538 8.82659C36.3674 8.82096 37.3453 9.14416 38.1454 9.73805C38.4431 9.95903 38.8656 9.96346 39.1278 9.70131C39.3903 9.43873 39.3922 9.00945 39.1013 8.77864C38.046 7.94136 36.7289 7.48331 35.3613 7.49091C33.9887 7.49853 32.6617 7.97467 31.5951 8.82957Z" fill="#325DCD"/>
</svg>
