<svg width="49" height="48" viewBox="0 0 49 48" fill="none" xmlns="http://www.w3.org/2000/svg">
<g clip-path="url(#clip0)">
<path d="M43.7078 23.7945V7.32183H43.3083C37.2522 7.32175 31.3316 5.55463 26.2927 2.24314L24.3334 0.955566L22.404 2.22882C17.3936 5.52813 11.5083 7.29951 5.4829 7.32183H4.95898V23.7945C4.95973 27.9319 6.12901 31.9873 8.33585 35.5065C10.5427 39.0258 13.6999 41.8698 17.4539 43.7201L24.3334 47.111L31.213 43.7201C34.9669 41.8698 38.1241 39.0258 40.331 35.5065C42.5378 31.9873 43.7071 27.9319 43.7078 23.7945ZM29.0471 39.4492L24.3334 41.7728L19.6198 39.4492C16.6633 38.0043 14.1765 35.7719 12.4414 33.005C10.7062 30.2381 9.79209 27.0474 9.80259 23.7945V11.822C14.9708 11.1853 19.9326 9.4313 24.3334 6.6852C28.734 9.43254 33.6957 11.1879 38.8642 11.826V23.7945C38.8747 27.0474 37.9606 30.2381 36.2255 33.005C34.4903 35.7719 32.0035 38.0043 29.0471 39.4492Z" fill="#AABCEB"/>
<path d="M32.4058 20.8498H28.3694C28.1553 20.8498 27.95 20.7659 27.7986 20.6167C27.6472 20.4675 27.5621 20.265 27.5621 20.054V16.0751C27.5621 15.864 27.4771 15.6616 27.3257 15.5124C27.1743 15.3631 26.969 15.2793 26.7549 15.2793H21.9113C21.6972 15.2793 21.4918 15.3631 21.3404 15.5124C21.1891 15.6616 21.104 15.864 21.104 16.0751V20.054C21.104 20.265 21.0189 20.4675 20.8676 20.6167C20.7162 20.7659 20.5108 20.8498 20.2967 20.8498H16.2604C16.0463 20.8498 15.841 20.9336 15.6896 21.0829C15.5382 21.2321 15.4531 21.4345 15.4531 21.6456V26.4203C15.4531 26.6313 15.5382 26.8337 15.6896 26.983C15.841 27.1322 16.0463 27.216 16.2604 27.216H20.2967C20.5108 27.216 20.7162 27.2999 20.8676 27.4491C21.0189 27.5984 21.104 27.8008 21.104 28.0118V31.9907C21.104 32.2018 21.1891 32.4042 21.3404 32.5534C21.4918 32.7027 21.6972 32.7865 21.9113 32.7865H26.7549C26.969 32.7865 27.1743 32.7027 27.3257 32.5534C27.4771 32.4042 27.5621 32.2018 27.5621 31.9907V28.0118C27.5621 27.8008 27.6472 27.5984 27.7986 27.4491C27.95 27.2999 28.1553 27.216 28.3694 27.216H32.4058C32.6199 27.216 32.8252 27.1322 32.9766 26.983C33.128 26.8337 33.213 26.6313 33.213 26.4203V21.6456C33.213 21.4345 33.128 21.2321 32.9766 21.0829C32.8252 20.9336 32.6199 20.8498 32.4058 20.8498Z" fill="#AABCEB"/>
<path d="M24.7753 47.7821C24.4966 47.9195 24.1698 47.9195 23.8911 47.7821L17.092 44.4309C13.1948 42.526 9.91685 39.5831 7.62968 35.9356C5.34251 32.2881 4.13759 28.0819 4.15149 23.7939V7.52541C4.15149 6.97313 4.5992 6.52541 5.15149 6.52541H5.47944C11.3472 6.50722 17.0787 4.78112 21.955 1.56371L23.7839 0.361145C24.1173 0.141941 24.5491 0.141891 24.8825 0.361016L26.7405 1.58202C31.6448 4.81073 37.4113 6.53123 43.3088 6.52541H43.5149C44.0672 6.52541 44.5149 6.97313 44.5149 7.52541V23.7939C44.5288 28.0819 43.3239 32.2881 41.0367 35.9356C38.7495 39.5831 35.4716 42.526 31.5744 44.4309L24.7753 47.7821ZM6.75388 8.08991C6.20674 8.1134 5.76602 8.55752 5.76602 9.10517V23.7939C5.75303 27.7862 6.87488 31.7023 9.00441 35.0982C11.1339 38.4941 14.186 41.234 17.8145 43.0073L23.891 46.0027C24.1698 46.1401 24.4966 46.1401 24.7753 46.0027L30.8519 43.0073C34.4804 41.234 37.5324 38.4941 39.662 35.0982C41.7915 31.7023 42.9133 27.7862 42.9004 23.7939V9.10506C42.9004 8.55745 42.4597 8.11336 41.9126 8.08981C36.1826 7.84315 30.6236 6.05274 25.8444 2.90461L24.3332 1.90988L22.8519 2.8871C18.0659 6.04658 12.4958 7.84333 6.75388 8.08991Z" fill="#325DCD"/>
<path d="M38.9642 11.034C33.9126 10.4159 29.0632 8.7 24.766 6.01019C24.5018 5.84597 24.1661 5.84553 23.9022 6.01019C19.6039 8.69988 14.7533 10.4152 9.70076 11.0324C9.29789 11.0819 8.99521 11.4241 8.99521 11.83V23.7943C8.98436 27.1952 9.94011 30.531 11.7541 33.4237C13.5682 36.3165 16.168 38.6505 19.2588 40.1612L23.8912 42.4444C24.1699 42.5818 24.4967 42.5818 24.7754 42.4444L29.4078 40.1612C32.4986 38.6505 35.0984 36.3165 36.9125 33.4237C38.7265 30.531 39.6822 27.1952 39.6714 23.7943V11.8341C39.6714 11.4271 39.3681 11.084 38.9642 11.034ZM38.0569 23.7943C38.0667 26.8993 37.194 29.9449 35.5378 32.5861C33.8816 35.2272 31.508 37.3582 28.6861 38.7375L24.7757 40.6649C24.4968 40.8024 24.1698 40.8023 23.891 40.6646L19.9805 38.7343C17.1591 37.3552 14.7858 35.2247 13.1296 32.5842C11.4734 29.9437 10.6005 26.8988 10.6097 23.7943V12.5173C15.2749 11.8563 19.7605 10.2971 23.8118 7.93059C24.1339 7.74248 24.5328 7.74247 24.8548 7.93058C28.9062 10.297 33.3917 11.8567 38.0569 12.5189V23.7943Z" fill="#325DCD"/>
<path d="M32.4064 20.0539H28.37V16.075C28.37 15.6529 28.1999 15.248 27.8972 14.9496C27.5944 14.6511 27.1837 14.4834 26.7555 14.4834H21.9119C21.4837 14.4834 21.073 14.6511 20.7702 14.9496C20.4675 15.248 20.2974 15.6529 20.2974 16.075V20.0539H16.261C15.8328 20.0539 15.4222 20.2216 15.1194 20.52C14.8166 20.8185 14.6465 21.2233 14.6465 21.6454V26.4201C14.6465 26.8422 14.8166 27.2471 15.1194 27.5455C15.4222 27.844 15.8328 28.0117 16.261 28.0117H20.2974V31.9906C20.2974 32.4127 20.4675 32.8175 20.7702 33.116C21.073 33.4145 21.4837 33.5822 21.9119 33.5822H26.7555C27.1837 33.5822 27.5944 33.4145 27.8972 33.116C28.1999 32.8175 28.37 32.4127 28.37 31.9906V28.0117H32.4064C32.8346 28.0117 33.2453 27.844 33.548 27.5455C33.8508 27.2471 34.0209 26.8422 34.0209 26.4201V21.6454C34.0209 21.2233 33.8508 20.8185 33.548 20.52C33.2453 20.2216 32.8346 20.0539 32.4064 20.0539ZM32.4064 26.4201H28.37C27.9418 26.4201 27.5312 26.5878 27.2284 26.8863C26.9256 27.1848 26.7555 27.5896 26.7555 28.0117V31.9906H21.9119V28.0117C21.9119 27.5896 21.7418 27.1848 21.439 26.8863C21.1362 26.5878 20.7256 26.4201 20.2974 26.4201H16.261V21.6454H20.2974C20.7256 21.6454 21.1362 21.4778 21.439 21.1793C21.7418 20.8808 21.9119 20.476 21.9119 20.0539V16.075H26.7555V20.0539C26.7555 20.476 26.9256 20.8808 27.2284 21.1793C27.5312 21.4778 27.9418 21.6454 28.37 21.6454H32.4064V26.4201Z" fill="#325DCD"/>
</g>
<defs>
<clipPath id="clip0">
<rect width="48" height="48" fill="white" transform="translate(0.333008)"/>
</clipPath>
</defs>
</svg>
