<svg width="165" height="36" viewBox="0 0 165 36" fill="none" xmlns="http://www.w3.org/2000/svg">
<path fill-rule="evenodd" clip-rule="evenodd" d="M41.0588 18.8166H41.3544C41.5492 18.8166 41.7236 18.7899 41.7236 18.5601C41.7236 18.3564 41.5305 18.3244 41.3572 18.3244H41.0588V18.8166ZM40.7231 18.081H41.3929C41.8224 18.081 42.0583 18.2239 42.0583 18.5862C42.0583 18.8794 41.8811 19.0219 41.5871 19.0475L42.0687 19.7983H41.7275L41.2623 19.059H41.0588V19.7983H40.7231V18.081ZM42.5373 18.9454C42.5373 18.2375 41.9998 17.7238 41.336 17.7238C40.6712 17.7238 40.1353 18.2375 40.1353 18.9454C40.1353 19.6564 40.6712 20.1695 41.336 20.1695C41.9998 20.1695 42.5373 19.6564 42.5373 18.9454ZM39.7471 18.9449C39.7471 18.1108 40.4602 17.4312 41.3362 17.4312C42.2117 17.4312 42.9232 18.1108 42.9232 18.9449C42.9232 19.7821 42.2117 20.4622 41.3362 20.4622C40.4602 20.4622 39.7471 19.7821 39.7471 18.9449Z" fill="white"/>
<path fill-rule="evenodd" clip-rule="evenodd" d="M8.23204 4.09973C5.85738 4.09973 3.84586 5.57312 3.14043 7.61303C3.12343 7.65805 3.10807 7.7057 3.0938 7.75073L2.97696 8.1895L0 20.4965H7.49973C9.74055 20.4965 11.6484 19.142 12.3741 17.2429L12.6572 16.0706L15.5529 4.09973H8.23204Z" fill="#034EA2"/>
<path fill-rule="evenodd" clip-rule="evenodd" d="M22.3789 0C19.9263 0 17.8583 1.57287 17.2203 3.71854C17.1721 3.87929 17.1331 4.04265 17.1024 4.20915L12.1704 24.5983H19.4913C21.9993 24.5983 24.1046 22.9527 24.6899 20.7311V20.7321H24.6932L29.7075 0H22.3789Z" fill="#F37021"/>
<path fill-rule="evenodd" clip-rule="evenodd" d="M34.5544 4.09973C32.2636 4.09973 30.3097 5.47102 29.5417 7.40097C29.5028 7.49888 29.3662 7.90676 29.3662 7.90676L26.3218 20.4965H33.6438C36.16 20.4965 38.2697 18.843 38.8484 16.6115L38.8478 16.6125H38.8484L41.8736 4.09973H34.5544Z" fill="#51B848"/>
<path d="M3.66725 30.3334V32.2193H5.7962V33.0427H3.66725V35.9026H2.68262V29.4922H6.00022V30.3334H3.66725Z" fill="white"/>
<path d="M11.1654 31.3959C11.1654 31.9862 10.9525 32.4584 10.5267 32.8125C10.0832 33.1844 9.46521 33.3703 8.67276 33.3703C8.43622 33.3703 8.21149 33.3526 7.9986 33.3172V35.9026H7.01396V29.7313C7.49889 29.507 8.09026 29.3949 8.78808 29.3949C9.54504 29.3949 10.1335 29.5749 10.5533 29.935C10.9614 30.2891 11.1654 30.7761 11.1654 31.3959ZM10.1808 31.387C10.1808 30.5724 9.7195 30.1652 8.79695 30.1652C8.48944 30.1652 8.22332 30.2094 7.9986 30.298V32.5469C8.16418 32.5764 8.37708 32.5912 8.63728 32.5912C9.13404 32.5912 9.51547 32.482 9.78159 32.2636C10.0477 32.057 10.1808 31.7648 10.1808 31.387Z" fill="white"/>
<path d="M14.2537 30.3334V35.9026H13.2513V30.3334H11.7699V29.4922H15.7262V30.3334H14.2537Z" fill="white"/>
<path d="M22.4105 35.9026L21.5057 33.875C21.2987 33.4146 20.9705 33.1844 20.521 33.1844H19.9533V35.9026H18.9687V29.7402C19.4891 29.51 20.0982 29.3949 20.796 29.3949C21.553 29.3949 22.1355 29.5631 22.5435 29.8995C22.9398 30.2301 23.1379 30.6846 23.1379 31.2631C23.1379 32.1426 22.6796 32.6827 21.7629 32.8834V32.9011C22.0586 33.0545 22.3099 33.3556 22.5169 33.8042L23.4749 35.9026H22.4105ZM22.1532 31.3073C22.1532 30.5459 21.7067 30.1652 20.8138 30.1652C20.4649 30.1652 20.178 30.2094 19.9533 30.298V32.4584H20.7073C21.6713 32.4584 22.1532 32.0747 22.1532 31.3073Z" fill="white"/>
<path d="M28.1125 33.1313C28.1125 33.2907 28.1095 33.4117 28.1036 33.4943L24.9279 33.937C25.0285 34.7988 25.5163 35.2297 26.3916 35.2297C26.912 35.2297 27.3526 35.1323 27.7133 34.9375L27.9972 35.6636C27.5655 35.8879 27.0096 36 26.3295 36C25.5844 36 25.0048 35.7757 24.5908 35.3271C24.1828 34.8903 23.9788 34.2853 23.9788 33.512C23.9788 32.7742 24.171 32.178 24.5554 31.7235C24.9457 31.2631 25.472 31.0329 26.1343 31.0329C26.7494 31.0329 27.2343 31.2218 27.5891 31.5995C27.938 31.9773 28.1125 32.4879 28.1125 33.1313ZM27.1811 32.9808C27.1751 32.1544 26.8203 31.7412 26.1166 31.7412C25.7381 31.7412 25.4395 31.877 25.2207 32.1485C24.99 32.4259 24.8717 32.8096 24.8658 33.2995L27.1811 32.9808Z" fill="white"/>
<path d="M31.3035 35.8583C31.1498 35.9292 30.9487 35.9646 30.7003 35.9646C29.8251 35.9646 29.3875 35.4983 29.3875 34.5656V31.8563H28.7399V31.1303H29.3875V30.0235L30.3366 29.7313V31.1303H31.3035V31.8563H30.3366V34.5125C30.3366 34.9139 30.5495 35.1146 30.9753 35.1146C31.0995 35.1146 31.2089 35.0939 31.3035 35.0526V35.8583Z" fill="white"/>
<path d="M35.8302 35.6636C35.4104 35.8879 34.8367 36 34.1093 36C32.7314 36 32.0425 35.5012 32.0425 34.5037C32.0425 33.9016 32.3382 33.4707 32.9296 33.211C33.3613 33.0221 34.0206 32.904 34.9077 32.8568V32.5558C34.9077 32.0127 34.5706 31.7412 33.8964 31.7412C33.4293 31.7412 32.9887 31.8386 32.5747 32.0334L32.3263 31.3693C32.8349 31.145 33.3908 31.0329 33.994 31.0329C35.2182 31.0329 35.8302 31.573 35.8302 32.6532V35.6636ZM34.9077 33.5032C34.269 33.5386 33.8225 33.6035 33.5682 33.6979C33.1602 33.8455 32.9562 34.1082 32.9562 34.486C32.9562 35.029 33.3317 35.3005 34.0827 35.3005C34.4553 35.3005 34.7303 35.2592 34.9077 35.1766V33.5032Z" fill="white"/>
<path d="M38.1114 29.7136C38.1114 29.8671 38.0552 29.9969 37.9428 30.1032C37.8305 30.2094 37.6944 30.2626 37.5348 30.2626C37.3751 30.2626 37.2391 30.2094 37.1267 30.1032C37.0144 29.9969 36.9582 29.8671 36.9582 29.7136C36.9582 29.5601 37.0144 29.4303 37.1267 29.324C37.2391 29.2178 37.3751 29.1646 37.5348 29.1646C37.6944 29.1646 37.8305 29.2178 37.9428 29.324C38.0552 29.4303 38.1114 29.5601 38.1114 29.7136ZM37.0469 35.9026V31.1303H38.0227V35.9026H37.0469Z" fill="white"/>
<path d="M39.2645 35.9026V28.9521H40.2403V35.9026H39.2645Z" fill="white"/>
<path d="M56.429 13.3177L53.0563 7.94632L53.0271 7.95798L53.0914 13.3177H50.9229V4.48583H52.8751L56.3004 10.0378L56.3238 10.0145L56.2244 4.48583H58.393V13.3177H56.429Z" fill="white"/>
<path d="M65.1675 13.3177V9.78726H62.2683V13.3177H60.0062V4.48583H62.2683V7.80651H65.1675V4.48583H67.4296V13.3177H65.1675Z" fill="white"/>
<path d="M74.7419 13.3177L74.3094 12.0418H71.2348L70.7672 13.3177H68.3356L71.8895 4.48583H73.6723L77.1969 13.3177H74.7419ZM72.8013 7.23558H72.7663L71.8544 10.2533H73.7132L72.8013 7.23558ZM73.7366 4.06055L70.7789 2.77306L71.3868 1.37488L74.286 2.90122L73.7366 4.06055Z" fill="white"/>
<path d="M85.1229 6.46658V13.3177H82.8609V6.46658H81.1132V4.48583H86.859V6.46658H85.1229Z" fill="white"/>
<path d="M92.9321 13.3177V9.78726H90.0329V13.3177H87.7708V4.48583H90.0329V7.80651H92.9321V4.48583H95.1942V13.3177H92.9321Z" fill="white"/>
<path d="M103.57 9.82222C103.57 10.4242 103.52 10.9116 103.418 11.2845C103.282 11.7622 103.038 12.1778 102.688 12.5312C102.06 13.1681 101.234 13.4866 100.209 13.4866C99.7105 13.4866 99.2507 13.4148 98.8299 13.2711C98.3545 13.1079 97.9648 12.8652 97.6608 12.5428C97.2867 12.1506 97.0374 11.7311 96.9127 11.2845C96.8581 11.0825 96.8191 10.8553 96.7958 10.6029C96.7802 10.4009 96.7724 10.1407 96.7724 9.82222V4.48583H99.0345V9.82222C99.0345 10.0552 99.0461 10.2553 99.0695 10.4223C99.1007 10.6359 99.1533 10.8165 99.2273 10.9641C99.4066 11.3253 99.7261 11.5059 100.186 11.5059C100.661 11.5059 100.981 11.3291 101.145 10.9757C101.211 10.832 101.258 10.6534 101.285 10.4397C101.3 10.2844 101.308 10.0785 101.308 9.82222V4.48583H103.57V9.82222Z" fill="white"/>
<path d="M114.115 8.90175C114.115 10.1989 113.659 11.2903 112.747 12.1758C111.839 13.0497 110.733 13.4866 109.427 13.4866C108.157 13.4866 107.068 13.0575 106.16 12.1991C105.232 11.3291 104.769 10.2669 104.769 9.01244C104.769 8.34442 104.884 7.71524 105.113 7.12489C105.234 6.8103 105.427 6.48018 105.692 6.13452C106.612 4.92664 107.861 4.32271 109.439 4.32271C110.74 4.32271 111.843 4.76158 112.747 5.63933C113.659 6.52096 114.115 7.60843 114.115 8.90175ZM111.853 8.9134C111.853 8.20266 111.635 7.59678 111.198 7.09576C110.735 6.56756 110.152 6.30346 109.451 6.30346C108.741 6.30346 108.157 6.5598 107.697 7.07246C107.253 7.56571 107.031 8.1677 107.031 8.87844C107.031 9.60472 107.255 10.2184 107.703 10.7194C108.167 11.2437 108.757 11.5059 109.474 11.5059C110.164 11.5059 110.738 11.2418 111.198 10.7136C111.635 10.2125 111.853 9.61249 111.853 8.9134ZM111.526 2.70897L110.964 1.538L113.834 0L114.472 1.40983L111.526 2.70897ZM110 3.711L109.451 3.02356L108.901 3.711H106.961L108.825 1.73025H110.117L111.917 3.711H110Z" fill="white"/>
<path d="M124.122 10.0145C123.865 11.0514 123.321 11.8904 122.491 12.5312C121.669 13.1681 120.72 13.4866 119.645 13.4866C118.351 13.4866 117.25 13.0439 116.342 12.1583C115.43 11.2689 114.974 10.1795 114.974 8.8901C114.974 7.60455 115.426 6.51902 116.33 5.6335C117.23 4.75964 118.327 4.32271 119.621 4.32271C121.305 4.32271 122.604 5.01403 123.52 6.39667C123.839 6.87439 124.04 7.35598 124.122 7.84146H121.749C121.355 6.81613 120.642 6.30346 119.609 6.30346C118.912 6.30346 118.337 6.56174 117.885 7.07829C117.453 7.57542 117.236 8.17547 117.236 8.87844C117.236 9.58919 117.453 10.197 117.885 10.7019C118.341 11.2379 118.92 11.5059 119.621 11.5059C120.588 11.5059 121.297 11.0087 121.749 10.0145H124.122Z" fill="white"/>
<path d="M50.9229 35.7221V22.1317H54.4038V32.6741H58.4423V35.7221H50.9229Z" fill="white"/>
<path d="M73.5982 28.9269C73.5982 30.923 72.8966 32.6024 71.4934 33.965C70.0963 35.3097 68.3933 35.9821 66.3845 35.9821C64.4297 35.9821 62.7537 35.3217 61.3566 34.0009C59.9294 32.6622 59.2158 31.0276 59.2158 29.0972C59.2158 28.0693 59.3927 27.1011 59.7465 26.1927C59.9324 25.7086 60.2292 25.2006 60.637 24.6687C62.0521 22.81 63.974 21.8806 66.4025 21.8806C68.4053 21.8806 70.1023 22.556 71.4934 23.9067C72.8966 25.2633 73.5982 26.9367 73.5982 28.9269ZM70.1173 28.9448C70.1173 27.8511 69.7815 26.9188 69.1099 26.1478C68.3963 25.335 67.4998 24.9286 66.4205 24.9286C65.3292 24.9286 64.4297 25.3231 63.7221 26.112C63.0385 26.871 62.6967 27.7973 62.6967 28.891C62.6967 30.0086 63.0415 30.9529 63.7311 31.7239C64.4447 32.5307 65.3531 32.9341 66.4565 32.9341C67.5178 32.9341 68.4023 32.5277 69.1099 31.7149C69.7815 30.9439 70.1173 30.0206 70.1173 28.9448Z" fill="white"/>
<path d="M83.9509 35.7221L78.761 27.4567L78.7161 27.4746L78.815 35.7221H75.478V22.1317H78.4822L83.753 30.675L83.789 30.6391L83.6361 22.1317H86.9731V35.7221H83.9509Z" fill="white"/>
<path d="M103.379 28.7117C103.379 30.7975 102.69 32.5337 101.31 33.9202C99.9253 35.3068 98.1893 36 96.1026 36C94.0878 36 92.3788 35.3157 90.9757 33.9471C89.5665 32.5666 88.8619 30.8752 88.8619 28.8731C88.8619 26.865 89.5785 25.1886 91.0117 23.8439C92.4148 22.5351 94.1298 21.8806 96.1565 21.8806C97.6676 21.8806 99.0678 22.3199 100.357 23.1985C101.694 24.1069 102.567 25.2693 102.974 26.6857H99.0708C98.4112 25.5143 97.4098 24.9286 96.0666 24.9286C94.9753 24.9286 94.0758 25.3171 93.3682 26.094C92.6846 26.8471 92.3428 27.7734 92.3428 28.8731C92.3428 30.0206 92.6756 30.9768 93.3412 31.7418C94.0428 32.5486 94.9573 32.952 96.0846 32.952C96.8701 32.952 97.5477 32.7757 98.1174 32.4231C98.729 32.0406 99.1367 31.4878 99.3406 30.7646H95.2751V27.9946H103.361C103.367 28.1021 103.373 28.2217 103.379 28.3531V28.7117Z" fill="white"/>
<path d="M124.382 30.6391C123.986 32.2349 123.149 33.5258 121.872 34.5119C120.607 35.492 119.147 35.9821 117.492 35.9821C115.501 35.9821 113.807 35.3008 112.41 33.9381C111.007 32.5695 110.305 30.8931 110.305 28.909C110.305 26.9308 111.001 25.2603 112.392 23.8977C113.777 22.553 115.465 21.8806 117.456 21.8806C120.046 21.8806 122.046 22.9445 123.455 25.0721C123.947 25.8072 124.256 26.5483 124.382 27.2953H120.73C120.124 25.7175 119.027 24.9286 117.438 24.9286C116.364 24.9286 115.48 25.3261 114.784 26.1209C114.119 26.8859 113.786 27.8093 113.786 28.891C113.786 29.9847 114.119 30.92 114.784 31.697C115.486 32.5217 116.376 32.9341 117.456 32.9341C118.943 32.9341 120.034 32.1691 120.73 30.6391H124.382Z" fill="white"/>
<path d="M134.132 35.7221V30.2895H129.67V35.7221H126.189V22.1317H129.67V27.2415H134.132V22.1317H137.613V35.7221H134.132Z" fill="white"/>
<path d="M148.865 35.7221L148.199 33.7589H143.468L142.748 35.7221H139.007L144.475 22.1317H147.219L152.642 35.7221H148.865ZM145.879 26.363H145.825L144.421 31.0067H147.282L145.879 26.363ZM146.688 20.9394L145.843 19.8815L144.997 20.9394H142.011L144.88 17.8914H146.868L149.638 20.9394H146.688Z" fill="white"/>
<path d="M164.461 30.3433C164.461 31.2697 164.383 32.0197 164.227 32.5934C164.018 33.3285 163.643 33.968 163.103 34.5119C162.138 35.492 160.866 35.9821 159.289 35.9821C158.522 35.9821 157.814 35.8715 157.167 35.6504C156.435 35.3994 155.836 35.0259 155.368 34.5298C154.792 33.9262 154.408 33.2807 154.216 32.5934C154.133 32.2827 154.073 31.933 154.037 31.5446C154.013 31.2338 154.001 30.8334 154.001 30.3433V22.1317H157.482V30.3433C157.482 30.7019 157.5 31.0097 157.535 31.2667C157.583 31.5954 157.664 31.8733 157.778 32.1004C158.054 32.6562 158.546 32.9341 159.253 32.9341C159.985 32.9341 160.477 32.6622 160.729 32.1183C160.831 31.8972 160.902 31.6223 160.944 31.2936C160.968 31.0545 160.98 30.7378 160.98 30.3433V22.1317H164.461V30.3433Z" fill="white"/>
</svg>
