<svg width="148" height="32" viewBox="0 0 148 32" fill="none" xmlns="http://www.w3.org/2000/svg">
<path fill-rule="evenodd" clip-rule="evenodd" d="M36.9969 16.7259H37.2597C37.4328 16.7259 37.5878 16.7021 37.5878 16.4978C37.5878 16.3168 37.4162 16.2884 37.2621 16.2884H36.9969V16.7259ZM36.6985 16.072H37.2939C37.6757 16.072 37.8854 16.199 37.8854 16.5211C37.8854 16.7817 37.7279 16.9083 37.4665 16.9311L37.8946 17.5985H37.5913L37.1778 16.9414H36.9969V17.5985H36.6985V16.072ZM38.311 16.8403C38.311 16.2111 37.8332 15.7545 37.2432 15.7545C36.6522 15.7545 36.1758 16.2111 36.1758 16.8403C36.1758 17.4723 36.6522 17.9285 37.2432 17.9285C37.8332 17.9285 38.311 17.4723 38.311 16.8403ZM35.8306 16.8399C35.8306 16.0985 36.4645 15.4944 37.2432 15.4944C38.0214 15.4944 38.6538 16.0985 38.6538 16.8399C38.6538 17.5841 38.0214 18.1887 37.2432 18.1887C36.4645 18.1887 35.8306 17.5841 35.8306 16.8399Z" fill="white"/>
<path fill-rule="evenodd" clip-rule="evenodd" d="M7.81731 3.64429C5.7065 3.64429 3.91848 4.95396 3.29143 6.76722C3.27632 6.80724 3.26266 6.84959 3.24999 6.88962L3.14613 7.27964L0.499939 18.2192H7.16637C9.1582 18.2192 10.8541 17.0152 11.4992 15.3271L11.7508 14.285L14.3248 3.64429H7.81731Z" fill="#034EA2"/>
<path fill-rule="evenodd" clip-rule="evenodd" d="M20.3924 0C18.2124 0 16.3741 1.3981 15.8071 3.30537C15.7641 3.44825 15.7295 3.59346 15.7022 3.74146L11.3182 21.8652H17.8257C20.055 21.8652 21.9264 20.4024 22.4467 18.4276V18.4285H22.4496L26.9067 0H20.3924Z" fill="#F37021"/>
<path fill-rule="evenodd" clip-rule="evenodd" d="M31.2151 3.64429C29.1789 3.64429 27.442 4.86321 26.7594 6.57872C26.7248 6.66576 26.6034 7.02831 26.6034 7.02831L23.8972 18.2192H30.4057C32.6423 18.2192 34.5176 16.7494 35.032 14.7658L35.0315 14.7668H35.032L37.7211 3.64429H31.2151Z" fill="#51B848"/>
<path d="M3.75988 26.963V28.6394H5.65227V29.3713H3.75988V31.9134H2.88464V26.2153H5.83362V26.963H3.75988Z" fill="white"/>
<path d="M10.4249 27.9074C10.4249 28.4321 10.2357 28.8519 9.85718 29.1667C9.46293 29.4972 8.91361 29.6625 8.20922 29.6625C7.99895 29.6625 7.7992 29.6468 7.60996 29.6153V31.9134H6.73473V26.4278C7.16577 26.2284 7.69144 26.1287 8.31172 26.1287C8.98457 26.1287 9.50761 26.2888 9.88083 26.6088C10.2435 26.9236 10.4249 27.3565 10.4249 27.9074ZM9.54966 27.8996C9.54966 27.1755 9.13965 26.8135 8.31961 26.8135C8.04626 26.8135 7.80971 26.8528 7.60996 26.9315V28.9306C7.75715 28.9568 7.94639 28.9699 8.17768 28.9699C8.61924 28.9699 8.95829 28.8729 9.19484 28.6787C9.43139 28.4951 9.54966 28.2354 9.54966 27.8996Z" fill="white"/>
<path d="M13.17 26.963V31.9134H12.279V26.963H10.9622V26.2153H14.4789V26.963H13.17Z" fill="white"/>
<path d="M20.4205 31.9134L19.6163 30.1111C19.4323 29.7019 19.1405 29.4972 18.741 29.4972H18.2364V31.9134H17.3611V26.4357C17.8237 26.2311 18.3652 26.1287 18.9855 26.1287C19.6583 26.1287 20.1761 26.2783 20.5388 26.5774C20.891 26.8712 21.0671 27.2752 21.0671 27.7894C21.0671 28.5712 20.6597 29.0513 19.8449 29.2296V29.2454C20.1077 29.3818 20.3312 29.6494 20.5151 30.0482L21.3667 31.9134H20.4205ZM20.1919 27.8287C20.1919 27.1519 19.795 26.8135 19.0012 26.8135C18.6911 26.8135 18.4361 26.8528 18.2364 26.9315V28.8519H18.9066C19.7634 28.8519 20.1919 28.5108 20.1919 27.8287Z" fill="white"/>
<path d="M25.489 29.45C25.489 29.5917 25.4863 29.6992 25.4811 29.7727L22.6583 30.1662C22.7476 30.9323 23.1813 31.3153 23.9593 31.3153C24.4219 31.3153 24.8135 31.2287 25.1341 31.0556L25.3865 31.7009C25.0027 31.9003 24.5086 32 23.9041 32C23.2417 32 22.7266 31.8006 22.3586 31.4019C21.9959 31.0136 21.8146 30.4758 21.8146 29.7884C21.8146 29.1326 21.9854 28.6026 22.3271 28.1986C22.674 27.7894 23.1419 27.5848 23.7306 27.5848C24.2773 27.5848 24.7083 27.7527 25.0237 28.0885C25.3339 28.4243 25.489 28.8781 25.489 29.45ZM24.661 29.3162C24.6558 28.5817 24.3404 28.2144 23.7148 28.2144C23.3784 28.2144 23.1129 28.3351 22.9185 28.5764C22.7134 28.823 22.6083 29.1641 22.6031 29.5996L24.661 29.3162Z" fill="white"/>
<path d="M28.3255 31.8741C28.1888 31.937 28.0101 31.9685 27.7893 31.9685C27.0113 31.9685 26.6223 31.554 26.6223 30.725V28.3167H26.0467V27.6713H26.6223V26.6875L27.466 26.4278V27.6713H28.3255V28.3167H27.466V30.6778C27.466 31.0346 27.6552 31.213 28.0337 31.213C28.1441 31.213 28.2413 31.1946 28.3255 31.1579V31.8741Z" fill="white"/>
<path d="M32.3492 31.7009C31.976 31.9003 31.4661 32 30.8195 32C29.5947 32 28.9823 31.5566 28.9823 30.6699C28.9823 30.1347 29.2451 29.7517 29.7708 29.5208C30.1545 29.3529 30.7407 29.248 31.5292 29.206V28.9384C31.5292 28.4557 31.2295 28.2144 30.6303 28.2144C30.215 28.2144 29.8234 28.301 29.4554 28.4741L29.2346 27.8838C29.6867 27.6844 30.1808 27.5848 30.717 27.5848C31.8051 27.5848 32.3492 28.0648 32.3492 29.025V31.7009ZM31.5292 29.7806C30.9614 29.8121 30.5646 29.8698 30.3385 29.9537C29.9758 30.0849 29.7945 30.3184 29.7945 30.6542C29.7945 31.1369 30.1283 31.3782 30.7959 31.3782C31.127 31.3782 31.3715 31.3415 31.5292 31.2681V29.7806Z" fill="white"/>
<path d="M34.3769 26.4121C34.3769 26.5485 34.3269 26.6639 34.227 26.7584C34.1272 26.8528 34.0063 26.9 33.8643 26.9C33.7224 26.9 33.6015 26.8528 33.5016 26.7584C33.4018 26.6639 33.3518 26.5485 33.3518 26.4121C33.3518 26.2757 33.4018 26.1602 33.5016 26.0658C33.6015 25.9713 33.7224 25.9241 33.8643 25.9241C34.0063 25.9241 34.1272 25.9713 34.227 26.0658C34.3269 26.1602 34.3769 26.2757 34.3769 26.4121ZM33.4307 31.9134V27.6713H34.298V31.9134H33.4307Z" fill="white"/>
<path d="M35.4019 31.9134V25.7352H36.2693V31.9134H35.4019Z" fill="white"/>
<path d="M51.5482 11.8379L48.5503 7.0634L48.5243 7.07376L48.5815 11.8379H46.6539V3.9874H48.3892L51.4339 8.92246L51.4547 8.90175L51.3664 3.9874H53.294V11.8379H51.5482Z" fill="white"/>
<path d="M59.3158 11.8379V8.69979H56.7387V11.8379H54.728V3.9874H56.7387V6.93912H59.3158V3.9874H61.3265V11.8379H59.3158Z" fill="white"/>
<path d="M67.8264 11.8379L67.4419 10.7038H64.709L64.2933 11.8379H62.1319L65.2909 3.9874H66.8756L70.0086 11.8379H67.8264ZM66.1014 6.43163H66.0702L65.2597 9.11406H66.9119L66.1014 6.43163ZM66.9327 3.60938L64.3037 2.46494L64.844 1.22211L67.4211 2.57887L66.9327 3.60938Z" fill="white"/>
<path d="M77.054 5.74807V11.8379H75.0432V5.74807H73.4897V3.9874H78.5971V5.74807H77.054Z" fill="white"/>
<path d="M83.9954 11.8379V8.69979H81.4183V11.8379H79.4076V3.9874H81.4183V6.93912H83.9954V3.9874H86.0062V11.8379H83.9954Z" fill="white"/>
<path d="M93.4516 8.73086C93.4516 9.26596 93.4066 9.69923 93.3165 10.0306C93.1953 10.4553 92.9788 10.8247 92.6671 11.1388C92.1094 11.705 91.3751 11.9881 90.4641 11.9881C90.0207 11.9881 89.612 11.9242 89.2379 11.7965C88.8153 11.6515 88.4689 11.4357 88.1987 11.1492C87.8662 10.8005 87.6445 10.4277 87.5337 10.0306C87.4852 9.85113 87.4506 9.64917 87.4298 9.42477C87.4159 9.24525 87.409 9.01395 87.409 8.73086V3.9874H89.4197V8.73086C89.4197 8.938 89.4301 9.11579 89.4509 9.26424C89.4786 9.45411 89.5254 9.61465 89.5912 9.74583C89.7505 10.0669 90.0346 10.2274 90.4433 10.2274C90.8659 10.2274 91.1499 10.0703 91.2954 9.75619C91.3543 9.62846 91.3958 9.46965 91.4201 9.27977C91.4339 9.14168 91.4409 8.95871 91.4409 8.73086V3.9874H93.4516V8.73086Z" fill="white"/>
<path d="M102.825 7.91266C102.825 9.06573 102.419 10.0358 101.609 10.823C100.802 11.5997 99.8181 11.9881 98.6577 11.9881C97.5285 11.9881 96.5604 11.6066 95.7533 10.8437C94.9289 10.0703 94.5167 9.12615 94.5167 8.01105C94.5167 7.41726 94.6189 6.85799 94.8233 6.33324C94.9306 6.0536 95.1021 5.76016 95.3376 5.4529C96.1551 4.37924 97.2653 3.84241 98.6681 3.84241C99.825 3.84241 100.805 4.23252 101.609 5.01273C102.419 5.79641 102.825 6.76305 102.825 7.91266ZM100.814 7.92302C100.814 7.29125 100.62 6.75269 100.232 6.30735C99.8198 5.83783 99.302 5.60308 98.6785 5.60308C98.0481 5.60308 97.5285 5.83093 97.1198 6.28663C96.7249 6.72507 96.5275 7.26018 96.5275 7.89195C96.5275 8.53753 96.7266 9.08299 97.125 9.52834C97.5372 9.9944 98.0619 10.2274 98.6993 10.2274C99.3124 10.2274 99.8233 9.99267 100.232 9.52316C100.62 9.07781 100.814 8.54443 100.814 7.92302ZM100.523 2.40798L100.024 1.36711L102.575 0L103.142 1.25318L100.523 2.40798ZM99.1669 3.29867L98.6785 2.68761L98.1901 3.29867H96.4651L98.1225 1.538H99.2708L100.871 3.29867H99.1669Z" fill="white"/>
<path d="M111.72 8.90175C111.491 9.82351 111.008 10.5692 110.27 11.1388C109.539 11.705 108.696 11.9881 107.74 11.9881C106.59 11.9881 105.611 11.5945 104.804 10.8074C103.994 10.0168 103.588 9.04847 103.588 7.90231C103.588 6.7596 103.99 5.79468 104.794 5.00756C105.594 4.23079 106.569 3.84241 107.719 3.84241C109.215 3.84241 110.371 4.45691 111.185 5.68593C111.469 6.11057 111.647 6.53865 111.72 6.97019H109.61C109.26 6.05878 108.627 5.60308 107.709 5.60308C107.089 5.60308 106.578 5.83266 106.176 6.29181C105.791 6.7337 105.599 7.26708 105.599 7.89195C105.599 8.52372 105.791 9.064 106.176 9.5128C106.581 9.98922 107.096 10.2274 107.719 10.2274C108.578 10.2274 109.208 9.78553 109.61 8.90175H111.72Z" fill="white"/>
<path d="M46.6539 31.753V19.6726H49.748V29.0437H53.3378V31.753H46.6539Z" fill="white"/>
<path d="M66.8097 25.7128C66.8097 27.4871 66.1861 28.9799 64.9388 30.1912C63.6969 31.3865 62.1832 31.9841 60.3976 31.9841C58.66 31.9841 57.1702 31.3971 55.9283 30.223C54.6597 29.0331 54.0254 27.5801 54.0254 25.8642C54.0254 24.9505 54.1827 24.0899 54.4971 23.2824C54.6624 22.8521 54.9262 22.4005 55.2887 21.9277C56.5466 20.2756 58.2549 19.4495 60.4136 19.4495C62.1938 19.4495 63.7022 20.0498 64.9388 21.2504C66.1861 22.4563 66.8097 23.9438 66.8097 25.7128ZM63.7156 25.7287C63.7156 24.7566 63.4171 23.9278 62.8201 23.2425C62.1858 22.52 61.389 22.1588 60.4296 22.1588C59.4595 22.1588 58.66 22.5094 58.031 23.2107C57.4234 23.8853 57.1196 24.7088 57.1196 25.6809C57.1196 26.6743 57.426 27.5137 58.039 28.199C58.6733 28.9162 59.4808 29.2748 60.4615 29.2748C61.405 29.2748 62.1912 28.9135 62.8201 28.191C63.4171 27.5057 63.7156 26.685 63.7156 25.7287Z" fill="white"/>
<path d="M76.0121 31.753L71.3989 24.4059L71.359 24.4219L71.4469 31.753H68.4807V19.6726H71.1511L75.8363 27.2667L75.8682 27.2348L75.7323 19.6726H78.6985V31.753H76.0121Z" fill="white"/>
<path d="M93.2817 25.5216C93.2817 27.3756 92.6688 28.9188 91.4428 30.1513C90.2116 31.3838 88.6685 32 86.8136 32C85.0227 32 83.5036 31.3918 82.2564 30.1752C81.0038 28.9481 80.3775 27.4446 80.3775 25.665C80.3775 23.88 81.0145 22.3899 82.2884 21.1946C83.5356 20.0312 85.06 19.4495 86.8616 19.4495C88.2048 19.4495 89.4494 19.8399 90.5953 20.6209C91.784 21.4283 92.5595 22.4616 92.9219 23.7206H89.452C88.8657 22.6794 87.9756 22.1588 86.7816 22.1588C85.8116 22.1588 85.012 22.5041 84.3831 23.1947C83.7755 23.8641 83.4716 24.6875 83.4716 25.665C83.4716 26.685 83.7675 27.535 84.3591 28.2149C84.9827 28.9321 85.7956 29.2907 86.7976 29.2907C87.4959 29.2907 88.0982 29.134 88.6045 28.8206C89.1482 28.4806 89.5107 27.9892 89.6919 27.3464H86.0781V24.8841H93.2657C93.2711 24.9797 93.2764 25.0859 93.2817 25.2028V25.5216Z" fill="white"/>
<path d="M111.95 27.2348C111.599 28.6532 110.855 29.8007 109.72 30.6772C108.595 31.5485 107.297 31.9841 105.826 31.9841C104.057 31.9841 102.551 31.3785 101.309 30.1673C100.062 28.9507 99.438 27.4606 99.438 25.6969C99.438 23.9385 100.056 22.4536 101.293 21.2424C102.524 20.0471 104.025 19.4495 105.794 19.4495C108.097 19.4495 109.874 20.3951 111.127 22.2863C111.564 22.9397 111.839 23.5985 111.95 24.2625H108.704C108.166 22.86 107.191 22.1588 105.778 22.1588C104.824 22.1588 104.038 22.5121 103.42 23.2186C102.828 23.8986 102.532 24.7194 102.532 25.6809C102.532 26.6531 102.828 27.4845 103.42 28.1751C104.043 28.9082 104.835 29.2748 105.794 29.2748C107.116 29.2748 108.086 28.5948 108.704 27.2348H111.95Z" fill="white"/>
<path d="M120.617 31.753V26.924H116.652V31.753H113.557V19.6726H116.652V24.2147H120.617V19.6726H123.711V31.753H120.617Z" fill="white"/>
<path d="M133.713 31.753L133.122 30.0079H128.916L128.277 31.753H124.951L129.812 19.6726H132.25L137.071 31.753H133.713ZM131.059 23.4338H131.011L129.764 27.5615H132.306L131.059 23.4338ZM131.778 18.6128L131.027 17.6725L130.275 18.6128H127.621L130.171 15.9034H131.938L134.401 18.6128H131.778Z" fill="white"/>
<path d="M147.577 26.9718C147.577 27.7953 147.508 28.462 147.369 28.972C147.183 29.6254 146.849 30.1938 146.37 30.6772C145.512 31.5485 144.382 31.9841 142.98 31.9841C142.297 31.9841 141.669 31.8858 141.093 31.6893C140.443 31.4661 139.91 31.1341 139.494 30.6932C138.982 30.1566 138.641 29.5829 138.47 28.972C138.396 28.6957 138.343 28.3849 138.311 28.0396C138.289 27.7634 138.279 27.4075 138.279 26.9718V19.6726H141.373V26.9718C141.373 27.2906 141.389 27.5642 141.421 27.7926C141.463 28.0848 141.535 28.3318 141.637 28.5337C141.882 29.0277 142.319 29.2748 142.948 29.2748C143.598 29.2748 144.035 29.0331 144.259 28.5496C144.35 28.3531 144.414 28.1087 144.451 27.8165C144.472 27.604 144.483 27.3225 144.483 26.9718V19.6726H147.577V26.9718Z" fill="white"/>
</svg>
