<svg width="238" height="52" viewBox="0 0 238 52" fill="none" xmlns="http://www.w3.org/2000/svg">
<path fill-rule="evenodd" clip-rule="evenodd" d="M59.3074 27.1796H59.7345C60.0158 27.1796 60.2678 27.141 60.2678 26.809C60.2678 26.5148 59.9889 26.4686 59.7385 26.4686H59.3074V27.1796ZM58.8226 26.1169H59.7901C60.4105 26.1169 60.7512 26.3233 60.7512 26.8467C60.7512 27.2702 60.4952 27.4759 60.0706 27.513L60.7662 28.5975H60.2734L59.6015 27.5296H59.3075V28.5975H58.8226V26.1169ZM61.4429 27.3655C61.4429 26.343 60.6664 25.601 59.7077 25.601C58.7473 25.601 57.9732 26.343 57.9732 27.3655C57.9732 28.3925 58.7473 29.1337 59.7077 29.1337C60.6664 29.1337 61.4429 28.3925 61.4429 27.3655ZM57.4122 27.3648C57.4122 26.16 58.4423 25.1783 59.7077 25.1783C60.9722 25.1783 61.9999 26.16 61.9999 27.3648C61.9999 28.5741 60.9722 29.5565 59.7077 29.5565C58.4423 29.5565 57.4122 28.5741 57.4122 27.3648Z" fill="white"/>
<path fill-rule="evenodd" clip-rule="evenodd" d="M11.8907 5.92188C8.4606 5.92188 5.55507 8.0501 4.53612 10.9966C4.51155 11.0617 4.48937 11.1305 4.46877 11.1955L4.3 11.8293L-6.10352e-05 29.6061H10.8329C14.0696 29.6061 16.8254 27.6496 17.8737 24.9065L18.2825 23.2131L22.4653 5.92188H11.8907Z" fill="#034EA2"/>
<path fill-rule="evenodd" clip-rule="evenodd" d="M32.3252 0C28.7826 0 25.7955 2.27192 24.874 5.37123C24.8043 5.60341 24.748 5.83938 24.7036 6.07988L17.5797 35.5309H28.1543C31.7769 35.5309 34.8179 33.1538 35.6634 29.9449V29.9464H35.6681L42.9109 0H32.3252Z" fill="#F37021"/>
<path fill-rule="evenodd" clip-rule="evenodd" d="M49.912 5.92183C46.6032 5.92183 43.7809 7.90257 42.6716 10.6903C42.6153 10.8317 42.418 11.4209 42.418 11.4209L38.0205 29.6061H48.5967C52.2312 29.6061 55.2786 27.2177 56.1145 23.9943L56.1137 23.9958H56.1145L60.4843 5.92183H49.912Z" fill="#51B848"/>
<path d="M5.29725 43.8149V46.539H8.37239V47.7284H5.29725V51.8593H3.875V42.5999H8.66709V43.8149H5.29725Z" fill="white"/>
<path d="M16.1279 45.3496C16.1279 46.2022 15.8204 46.8843 15.2054 47.3959C14.5647 47.933 13.6721 48.2016 12.5274 48.2016C12.1858 48.2016 11.8612 48.176 11.5536 48.1249V51.8593H10.1314V42.9452C10.8318 42.6212 11.686 42.4592 12.694 42.4592C13.7874 42.4592 14.6373 42.7193 15.2438 43.2394C15.8332 43.7509 16.1279 44.4543 16.1279 45.3496ZM14.7057 45.3368C14.7057 44.1602 14.0394 43.5719 12.7068 43.5719C12.2626 43.5719 11.8782 43.6358 11.5536 43.7637V47.0122C11.7928 47.0548 12.1003 47.0761 12.4762 47.0761C13.1937 47.0761 13.7447 46.9184 14.1291 46.6029C14.5135 46.3045 14.7057 45.8825 14.7057 45.3368Z" fill="white"/>
<path d="M20.5888 43.8149V51.8593H19.1409V43.8149H17.0011V42.5999H22.7157V43.8149H20.5888Z" fill="white"/>
<path d="M32.3708 51.8593L31.0639 48.9306C30.7649 48.2655 30.2908 47.933 29.6416 47.933H28.8216V51.8593H27.3993V42.958C28.151 42.6255 29.0309 42.4592 30.0388 42.4592C31.1322 42.4592 31.9736 42.7022 32.563 43.1882C33.1353 43.6657 33.4215 44.3222 33.4215 45.1577C33.4215 46.4281 32.7595 47.2083 31.4354 47.4982V47.5238C31.8625 47.7454 32.2256 48.1803 32.5246 48.8283L33.9084 51.8593H32.3708ZM31.9992 45.2217C31.9992 44.1218 31.3543 43.5719 30.0644 43.5719C29.5605 43.5719 29.1462 43.6358 28.8216 43.7637V46.8843H29.9107C31.303 46.8843 31.9992 46.3301 31.9992 45.2217Z" fill="white"/>
<path d="M40.607 47.8563C40.607 48.0865 40.6027 48.2613 40.5942 48.3806L36.0071 49.0201C36.1523 50.2649 36.857 50.8873 38.1213 50.8873C38.873 50.8873 39.5094 50.7467 40.0304 50.4653L40.4404 51.514C39.8169 51.838 39.0139 52 38.0316 52C36.9553 52 36.1182 51.676 35.5202 51.028C34.9308 50.3971 34.6361 49.5231 34.6361 48.4062C34.6361 47.3404 34.9137 46.4793 35.469 45.8228C36.0327 45.1577 36.793 44.8252 37.7497 44.8252C38.6381 44.8252 39.3385 45.0981 39.851 45.6437C40.355 46.1894 40.607 46.9269 40.607 47.8563ZM39.2616 47.6389C39.2531 46.4452 38.7406 45.8484 37.7241 45.8484C37.1774 45.8484 36.746 46.0445 36.4299 46.4367C36.0968 46.8374 35.926 47.3916 35.9174 48.0993L39.2616 47.6389Z" fill="white"/>
<path d="M45.2163 51.7954C44.9942 51.8977 44.7038 51.9488 44.345 51.9488C43.0808 51.9488 42.4487 51.2753 42.4487 49.9281V46.0146H41.5133V44.9659H42.4487V43.3672L43.8197 42.9452V44.9659H45.2163V46.0146H43.8197V49.8514C43.8197 50.4312 44.1272 50.7211 44.7422 50.7211C44.9216 50.7211 45.0796 50.6912 45.2163 50.6315V51.7954Z" fill="white"/>
<path d="M51.7549 51.514C51.1484 51.838 50.3198 52 49.2692 52C47.2789 52 46.2837 51.2795 46.2837 49.8386C46.2837 48.9689 46.7108 48.3465 47.565 47.9714C48.1886 47.6985 49.141 47.528 50.4223 47.4598V47.025C50.4223 46.2406 49.9354 45.8484 48.9616 45.8484C48.2868 45.8484 47.6504 45.989 47.0525 46.2704L46.6937 45.3112C47.4283 44.9872 48.2313 44.8252 49.1026 44.8252C50.8708 44.8252 51.7549 45.6054 51.7549 47.1657V51.514ZM50.4223 48.3934C49.4998 48.4446 48.8549 48.5384 48.4876 48.6748C47.8982 48.8879 47.6035 49.2674 47.6035 49.813C47.6035 50.5974 48.1459 50.9896 49.2307 50.9896C49.7689 50.9896 50.1661 50.93 50.4223 50.8106V48.3934Z" fill="white"/>
<path d="M55.0499 42.9196C55.0499 43.1413 54.9687 43.3289 54.8064 43.4824C54.6441 43.6358 54.4476 43.7126 54.217 43.7126C53.9864 43.7126 53.7899 43.6358 53.6276 43.4824C53.4653 43.3289 53.3842 43.1413 53.3842 42.9196C53.3842 42.6979 53.4653 42.5104 53.6276 42.3569C53.7899 42.2034 53.9864 42.1267 54.217 42.1267C54.4476 42.1267 54.6441 42.2034 54.8064 42.3569C54.9687 42.5104 55.0499 42.6979 55.0499 42.9196ZM53.5123 51.8593V44.9659H54.9217V51.8593H53.5123Z" fill="white"/>
<path d="M56.7156 51.8593V41.8197H58.125V51.8593H56.7156Z" fill="white"/>
<path d="M81.9533 19.2366L77.0817 11.478L77.0395 11.4949L77.1324 19.2366H74V6.47953H76.82L81.7676 14.499L81.8014 14.4653L81.6578 6.47953H84.7902V19.2366H81.9533Z" fill="white"/>
<path d="M94.5756 19.2366V14.1372H90.3879V19.2366H87.1205V6.47953H90.3879V11.2761H94.5756V6.47953H97.8431V19.2366H94.5756Z" fill="white"/>
<path d="M108.405 19.2366L107.781 17.3938H103.34L102.664 19.2366H99.1518L104.285 6.47953H106.86L111.951 19.2366H108.405ZM105.602 10.4514H105.552L104.234 14.8104H106.919L105.602 10.4514ZM106.953 5.86524L102.681 4.00553L103.559 1.98593L107.747 4.19066L106.953 5.86524Z" fill="white"/>
<path d="M123.4 9.34062V19.2366H120.133V9.34062H117.608V6.47953H125.908V9.34062H123.4Z" fill="white"/>
<path d="M134.68 19.2366V14.1372H130.492V19.2366H127.225V6.47953H130.492V11.2761H134.68V6.47953H137.947V19.2366H134.68Z" fill="white"/>
<path d="M150.046 14.1876C150.046 15.0572 149.973 15.7612 149.827 16.2998C149.63 16.9898 149.278 17.5901 148.771 18.1006C147.865 19.0206 146.672 19.4807 145.192 19.4807C144.471 19.4807 143.807 19.3769 143.199 19.1693C142.512 18.9337 141.949 18.5831 141.51 18.1174C140.97 17.5508 140.61 16.945 140.43 16.2998C140.351 16.0081 140.295 15.6799 140.261 15.3153C140.238 15.0235 140.227 14.6477 140.227 14.1876V6.47953H143.495V14.1876C143.495 14.5242 143.511 14.8132 143.545 15.0544C143.59 15.3629 143.666 15.6238 143.773 15.837C144.032 16.3587 144.494 16.6196 145.158 16.6196C145.845 16.6196 146.306 16.3643 146.542 15.8538C146.638 15.6462 146.706 15.3882 146.745 15.0796C146.768 14.8552 146.779 14.5579 146.779 14.1876V6.47953H150.046V14.1876Z" fill="white"/>
<path d="M165.278 12.8581C165.278 14.7318 164.619 16.3082 163.302 17.5873C161.99 18.8495 160.392 19.4807 158.506 19.4807C156.671 19.4807 155.098 18.8608 153.787 17.621C152.447 16.3643 151.777 14.83 151.777 13.018C151.777 12.053 151.943 11.1442 152.275 10.2915C152.45 9.8371 152.728 9.36026 153.111 8.86097C154.44 7.11626 156.243 6.24391 158.523 6.24391C160.403 6.24391 161.996 6.87784 163.302 8.14569C164.619 9.41916 165.278 10.99 165.278 12.8581ZM162.01 12.8749C162.01 11.8483 161.695 10.9731 161.064 10.2494C160.395 9.48648 159.553 9.105 158.54 9.105C157.516 9.105 156.671 9.47526 156.007 10.2158C155.365 10.9282 155.045 11.7978 155.045 12.8244C155.045 13.8735 155.368 14.7599 156.016 15.4836C156.685 16.2409 157.538 16.6196 158.574 16.6196C159.57 16.6196 160.4 16.2381 161.064 15.4751C161.695 14.7514 162.01 13.8847 162.01 12.8749ZM161.537 3.91296L160.727 2.22155L164.872 0L165.793 2.03642L161.537 3.91296ZM159.334 5.36034L158.54 4.36737L157.746 5.36034H154.943L157.637 2.49925H159.503L162.103 5.36034H159.334Z" fill="white"/>
<path d="M179.732 14.4653C179.36 15.9632 178.575 17.175 177.376 18.1006C176.189 19.0206 174.818 19.4807 173.265 19.4807C171.396 19.4807 169.806 18.8411 168.494 17.562C167.177 16.2774 166.519 14.7038 166.519 12.8412C166.519 10.9843 167.172 9.41636 168.477 8.13728C169.778 6.87503 171.362 6.24391 173.231 6.24391C175.662 6.24391 177.54 7.24249 178.862 9.23964C179.324 9.92967 179.614 10.6253 179.732 11.3266H176.304C175.736 9.84552 174.706 9.105 173.214 9.105C172.206 9.105 171.376 9.47807 170.723 10.2242C170.098 10.9423 169.786 11.809 169.786 12.8244C169.786 13.851 170.098 14.729 170.723 15.4583C171.382 16.2325 172.218 16.6196 173.231 16.6196C174.627 16.6196 175.651 15.9015 176.304 14.4653H179.732Z" fill="white"/>
<path d="M74 51.5986V31.9679H79.028V47.1959H84.8614V51.5986H74Z" fill="white"/>
<path d="M106.753 41.7832C106.753 44.6666 105.74 47.0923 103.713 49.0606C101.695 51.0029 99.2351 51.9741 96.3335 51.9741C93.5099 51.9741 91.089 51.0202 89.0709 49.1124C87.0095 47.1787 85.9788 44.8176 85.9788 42.0293C85.9788 40.5445 86.2343 39.146 86.7453 37.8338C87.0138 37.1346 87.4426 36.4008 88.0315 35.6325C90.0756 32.9477 92.8516 31.6053 96.3595 31.6053C99.2524 31.6053 101.704 32.5808 103.713 34.5318C105.74 36.4914 106.753 38.9086 106.753 41.7832ZM101.725 41.8091C101.725 40.2294 101.24 38.8827 100.27 37.7691C99.2394 36.595 97.9445 36.008 96.3855 36.008C94.8091 36.008 93.5099 36.5777 92.4878 37.7173C91.5004 38.8136 91.0067 40.1517 91.0067 41.7314C91.0067 43.3458 91.5048 44.7097 92.5008 45.8233C93.5315 46.9887 94.8438 47.5714 96.4375 47.5714C97.9705 47.5714 99.2481 46.9844 100.27 45.8104C101.24 44.6968 101.725 43.363 101.725 41.8091Z" fill="white"/>
<path d="M121.707 51.5986L114.211 39.6596L114.146 39.6855L114.289 51.5986H109.469V31.9679H113.808L121.421 44.3083L121.473 44.2565L121.252 31.9679H126.073V51.5986H121.707Z" fill="white"/>
<path d="M149.77 41.4725C149.77 44.4853 148.774 46.9931 146.782 48.9958C144.781 50.9986 142.274 52 139.26 52C136.349 52 133.881 51.0116 131.854 49.0347C129.819 47.0405 128.801 44.5975 128.801 41.7055C128.801 38.805 129.836 36.3835 131.906 34.4412C133.933 32.5506 136.41 31.6053 139.338 31.6053C141.52 31.6053 143.543 32.2398 145.405 33.5088C147.336 34.821 148.597 36.5001 149.186 38.546H143.547C142.594 36.854 141.148 36.008 139.208 36.008C137.631 36.008 136.332 36.5691 135.31 37.6914C134.323 38.7791 133.829 40.1171 133.829 41.7055C133.829 43.363 134.31 44.7442 135.271 45.8492C136.284 47.0146 137.605 47.5973 139.234 47.5973C140.368 47.5973 141.347 47.3427 142.17 46.8333C143.053 46.2809 143.642 45.4823 143.937 44.4378H138.064V40.4365H149.744C149.753 40.5919 149.762 40.7646 149.77 40.9545V41.4725Z" fill="white"/>
<path d="M180.107 44.2565C179.535 46.5614 178.327 48.4261 176.482 49.8505C174.655 51.2662 172.546 51.9741 170.155 51.9741C167.279 51.9741 164.832 50.99 162.814 49.0217C160.788 47.0448 159.774 44.6234 159.774 41.7573C159.774 38.8999 160.779 36.4871 162.788 34.5189C164.789 32.5765 167.227 31.6053 170.103 31.6053C173.845 31.6053 176.733 33.1419 178.769 36.2152C179.479 37.277 179.925 38.3474 180.107 39.4265H174.832C173.957 37.1475 172.372 36.008 170.077 36.008C168.527 36.008 167.249 36.5821 166.244 37.7302C165.283 38.8352 164.802 40.1689 164.802 41.7314C164.802 43.3112 165.283 44.6622 166.244 45.7845C167.258 46.9758 168.544 47.5714 170.103 47.5714C172.251 47.5714 173.827 46.4665 174.832 44.2565H180.107Z" fill="white"/>
<path d="M194.19 51.5986V43.7515H187.746V51.5986H182.718V31.9679H187.746V39.3488H194.19V31.9679H199.218V51.5986H194.19Z" fill="white"/>
<path d="M215.472 51.5986L214.51 48.7627H207.676L206.637 51.5986H201.232L209.131 31.9679H213.094L220.928 51.5986H215.472ZM211.158 38.0798H211.08L209.053 44.7874H213.185L211.158 38.0798ZM212.327 30.2457L211.106 28.7177L209.885 30.2457H205.572L209.716 25.843H212.587L216.589 30.2457H212.327Z" fill="white"/>
<path d="M238 43.8292C238 45.1672 237.887 46.2506 237.662 47.0794C237.359 48.1412 236.818 49.0649 236.038 49.8505C234.644 51.2662 232.807 51.9741 230.53 51.9741C229.421 51.9741 228.399 51.8144 227.463 51.495C226.407 51.1324 225.541 50.5929 224.865 49.8764C224.033 49.0045 223.479 48.0721 223.202 47.0794C223.081 46.6305 222.994 46.1255 222.942 45.5643C222.907 45.1154 222.89 44.5371 222.89 43.8292V31.9679H227.918V43.8292C227.918 44.3471 227.944 44.7917 227.996 45.1629C228.065 45.6377 228.182 46.0391 228.347 46.3672C228.745 47.17 229.455 47.5714 230.478 47.5714C231.534 47.5714 232.244 47.1787 232.608 46.3931C232.755 46.0737 232.859 45.6766 232.92 45.2018C232.955 44.8565 232.972 44.3989 232.972 43.8292V31.9679H238V43.8292Z" fill="white"/>
</svg>
