<svg width="165" height="36" viewBox="0 0 165 36" fill="none" xmlns="http://www.w3.org/2000/svg">
<path fill-rule="evenodd" clip-rule="evenodd" d="M41.0588 18.8165H41.3545C41.5492 18.8165 41.7236 18.7898 41.7236 18.56C41.7236 18.3563 41.5305 18.3244 41.3572 18.3244H41.0588V18.8165ZM40.7231 18.0808H41.3929C41.8224 18.0808 42.0583 18.2237 42.0583 18.5861C42.0583 18.8793 41.8811 19.0217 41.5871 19.0473L42.0687 19.7982H41.7275L41.2623 19.0589H41.0588V19.7982H40.7231V18.0808ZM42.5372 18.9454C42.5372 18.2375 41.9996 17.7238 41.3359 17.7238C40.671 17.7238 40.1351 18.2375 40.1351 18.9454C40.1351 19.6564 40.671 20.1695 41.3359 20.1695C41.9996 20.1695 42.5372 19.6564 42.5372 18.9454ZM39.7467 18.9449C39.7467 18.1108 40.4598 17.4312 41.3358 17.4312C42.2113 17.4312 42.9228 18.1108 42.9228 18.9449C42.9228 19.7821 42.2113 20.4622 41.3358 20.4622C40.4598 20.4622 39.7467 19.7821 39.7467 18.9449Z" fill="white"/>
<path fill-rule="evenodd" clip-rule="evenodd" d="M8.2318 4.09985C5.85714 4.09985 3.84562 5.57324 3.14019 7.61315C3.12318 7.65818 3.10782 7.70582 3.09356 7.75085L2.97672 8.18962L-0.000244141 20.4966H7.49949C9.7403 20.4966 11.6481 19.1421 12.3739 17.243L12.6569 16.0707L15.5527 4.09985H8.2318Z" fill="#034EA2"/>
<path fill-rule="evenodd" clip-rule="evenodd" d="M22.3787 0C19.9262 0 17.8582 1.57287 17.2202 3.71854C17.1719 3.87929 17.133 4.04265 17.1023 4.20915L12.1703 24.5983H19.4912C21.9992 24.5983 24.1045 22.9527 24.6898 20.7311V20.7321H24.6931L29.7073 0H22.3787Z" fill="#F37021"/>
<path fill-rule="evenodd" clip-rule="evenodd" d="M34.5542 4.09985C32.2635 4.09985 30.3096 5.47114 29.5416 7.40109C29.5027 7.49901 29.3661 7.90688 29.3661 7.90688L26.3217 20.4966H33.6437C36.1598 20.4966 38.2696 18.8431 38.8483 16.6116L38.8477 16.6126H38.8483L41.8735 4.09985H34.5542Z" fill="#51B848"/>
<path d="M3.66713 30.3334V32.2193H5.79607V33.0427H3.66713V35.9026H2.6825V29.4922H6.0001V30.3334H3.66713Z" fill="white"/>
<path d="M11.1653 31.3959C11.1653 31.9862 10.9524 32.4584 10.5266 32.8125C10.0831 33.1844 9.46508 33.3703 8.67264 33.3703C8.43609 33.3703 8.21137 33.3526 7.99848 33.3172V35.9026H7.01384V29.7313C7.49877 29.507 8.09014 29.3949 8.78796 29.3949C9.54492 29.3949 10.1333 29.5749 10.5532 29.935C10.9613 30.2891 11.1653 30.7761 11.1653 31.3959ZM10.1806 31.387C10.1806 30.5724 9.71937 30.1652 8.79683 30.1652C8.48932 30.1652 8.2232 30.2094 7.99848 30.298V32.5469C8.16406 32.5764 8.37696 32.5912 8.63716 32.5912C9.13391 32.5912 9.51535 32.482 9.78147 32.2636C10.0476 32.057 10.1806 31.7648 10.1806 31.387Z" fill="white"/>
<path d="M14.2536 30.3334V35.9026H13.2512V30.3334H11.7698V29.4922H15.7261V30.3334H14.2536Z" fill="white"/>
<path d="M22.4104 35.9026L21.5056 33.875C21.2986 33.4146 20.9704 33.1844 20.5209 33.1844H19.9532V35.9026H18.9686V29.7402C19.489 29.51 20.0981 29.3949 20.7959 29.3949C21.5529 29.3949 22.1354 29.5631 22.5434 29.8995C22.9396 30.2301 23.1377 30.6846 23.1377 31.2631C23.1377 32.1426 22.6794 32.6827 21.7628 32.8834V32.9011C22.0585 33.0545 22.3098 33.3556 22.5168 33.8042L23.4748 35.9026H22.4104ZM22.1531 31.3073C22.1531 30.5459 21.7066 30.1652 20.8136 30.1652C20.4647 30.1652 20.1779 30.2094 19.9532 30.298V32.4584H20.7072C21.6711 32.4584 22.1531 32.0747 22.1531 31.3073Z" fill="white"/>
<path d="M28.1123 33.1313C28.1123 33.2907 28.1094 33.4117 28.1035 33.4943L24.9278 33.937C25.0283 34.7988 25.5162 35.2297 26.3915 35.2297C26.9119 35.2297 27.3524 35.1323 27.7132 34.9375L27.997 35.6636C27.5653 35.8879 27.0094 36 26.3294 36C25.5842 36 25.0047 35.7757 24.5907 35.3271C24.1827 34.8903 23.9787 34.2853 23.9787 33.512C23.9787 32.7742 24.1708 32.178 24.5552 31.7235C24.9455 31.2631 25.4719 31.0329 26.1342 31.0329C26.7492 31.0329 27.2342 31.2218 27.589 31.5995C27.9379 31.9773 28.1123 32.4879 28.1123 33.1313ZM27.1809 32.9808C27.175 32.1544 26.8202 31.7412 26.1165 31.7412C25.738 31.7412 25.4393 31.877 25.2205 32.1485C24.9899 32.4259 24.8716 32.8096 24.8657 33.2995L27.1809 32.9808Z" fill="white"/>
<path d="M31.3034 35.8583C31.1497 35.9292 30.9486 35.9646 30.7002 35.9646C29.825 35.9646 29.3874 35.4983 29.3874 34.5656V31.8563H28.7398V31.1303H29.3874V30.0235L30.3365 29.7313V31.1303H31.3034V31.8563H30.3365V34.5125C30.3365 34.9139 30.5494 35.1146 30.9752 35.1146C31.0994 35.1146 31.2088 35.0939 31.3034 35.0526V35.8583Z" fill="white"/>
<path d="M35.8301 35.6636C35.4102 35.8879 34.8366 36 34.1092 36C32.7313 36 32.0424 35.5012 32.0424 34.5037C32.0424 33.9016 32.3381 33.4707 32.9294 33.211C33.3611 33.0221 34.0205 32.904 34.9076 32.8568V32.5558C34.9076 32.0127 34.5705 31.7412 33.8963 31.7412C33.4291 31.7412 32.9886 31.8386 32.5746 32.0334L32.3262 31.3693C32.8348 31.145 33.3907 31.0329 33.9939 31.0329C35.218 31.0329 35.8301 31.573 35.8301 32.6532V35.6636ZM34.9076 33.5032C34.2689 33.5386 33.8224 33.6035 33.5681 33.6979C33.1601 33.8455 32.956 34.1082 32.956 34.486C32.956 35.029 33.3316 35.3005 34.0826 35.3005C34.4552 35.3005 34.7302 35.2592 34.9076 35.1766V33.5032Z" fill="white"/>
<path d="M38.1112 29.7136C38.1112 29.8671 38.0551 29.9969 37.9427 30.1032C37.8303 30.2094 37.6943 30.2626 37.5347 30.2626C37.375 30.2626 37.239 30.2094 37.1266 30.1032C37.0142 29.9969 36.9581 29.8671 36.9581 29.7136C36.9581 29.5601 37.0142 29.4303 37.1266 29.324C37.239 29.2178 37.375 29.1646 37.5347 29.1646C37.6943 29.1646 37.8303 29.2178 37.9427 29.324C38.0551 29.4303 38.1112 29.5601 38.1112 29.7136ZM37.0468 35.9026V31.1303H38.0225V35.9026H37.0468Z" fill="white"/>
<path d="M39.2644 35.9026V28.9521H40.2402V35.9026H39.2644Z" fill="white"/>
<path d="M56.429 13.3177L53.0563 7.94632L53.0271 7.95798L53.0914 13.3177H50.9229V4.48583H52.8751L56.3004 10.0378L56.3238 10.0145L56.2244 4.48583H58.393V13.3177H56.429Z" fill="white"/>
<path d="M65.1675 13.3177V9.78726H62.2683V13.3177H60.0062V4.48583H62.2683V7.80651H65.1675V4.48583H67.4296V13.3177H65.1675Z" fill="white"/>
<path d="M74.7419 13.3177L74.3094 12.0418H71.2348L70.7672 13.3177H68.3356L71.8895 4.48583H73.6723L77.1969 13.3177H74.7419ZM72.8013 7.23558H72.7663L71.8544 10.2533H73.7132L72.8013 7.23558ZM73.7366 4.06055L70.7789 2.77306L71.3868 1.37488L74.286 2.90122L73.7366 4.06055Z" fill="white"/>
<path d="M85.1229 6.46658V13.3177H82.8609V6.46658H81.1132V4.48583H86.859V6.46658H85.1229Z" fill="white"/>
<path d="M92.9321 13.3177V9.78726H90.0329V13.3177H87.7708V4.48583H90.0329V7.80651H92.9321V4.48583H95.1942V13.3177H92.9321Z" fill="white"/>
<path d="M103.57 9.82222C103.57 10.4242 103.52 10.9116 103.418 11.2845C103.282 11.7622 103.038 12.1778 102.688 12.5312C102.06 13.1681 101.234 13.4866 100.209 13.4866C99.7105 13.4866 99.2507 13.4148 98.8299 13.2711C98.3545 13.1079 97.9648 12.8652 97.6608 12.5428C97.2867 12.1506 97.0374 11.7311 96.9127 11.2845C96.8581 11.0825 96.8191 10.8553 96.7958 10.6029C96.7802 10.4009 96.7724 10.1407 96.7724 9.82222V4.48583H99.0345V9.82222C99.0345 10.0552 99.0461 10.2553 99.0695 10.4223C99.1007 10.6359 99.1533 10.8165 99.2273 10.9641C99.4066 11.3253 99.7261 11.5059 100.186 11.5059C100.661 11.5059 100.981 11.3291 101.145 10.9757C101.211 10.832 101.258 10.6534 101.285 10.4397C101.3 10.2844 101.308 10.0785 101.308 9.82222V4.48583H103.57V9.82222Z" fill="white"/>
<path d="M114.115 8.90175C114.115 10.1989 113.659 11.2903 112.747 12.1758C111.839 13.0497 110.733 13.4866 109.427 13.4866C108.157 13.4866 107.068 13.0575 106.16 12.1991C105.232 11.3291 104.769 10.2669 104.769 9.01244C104.769 8.34442 104.884 7.71524 105.113 7.12489C105.234 6.8103 105.427 6.48018 105.692 6.13452C106.612 4.92664 107.861 4.32271 109.439 4.32271C110.74 4.32271 111.843 4.76158 112.747 5.63933C113.659 6.52096 114.115 7.60843 114.115 8.90175ZM111.853 8.9134C111.853 8.20266 111.635 7.59678 111.198 7.09576C110.735 6.56756 110.152 6.30346 109.451 6.30346C108.741 6.30346 108.157 6.5598 107.697 7.07246C107.253 7.56571 107.031 8.1677 107.031 8.87844C107.031 9.60472 107.255 10.2184 107.703 10.7194C108.167 11.2437 108.757 11.5059 109.474 11.5059C110.164 11.5059 110.738 11.2418 111.198 10.7136C111.635 10.2125 111.853 9.61249 111.853 8.9134ZM111.526 2.70897L110.964 1.538L113.834 0L114.472 1.40983L111.526 2.70897ZM110 3.711L109.451 3.02356L108.901 3.711H106.961L108.825 1.73025H110.117L111.917 3.711H110Z" fill="white"/>
<path d="M124.122 10.0145C123.865 11.0514 123.321 11.8904 122.491 12.5312C121.669 13.1681 120.72 13.4866 119.645 13.4866C118.351 13.4866 117.25 13.0439 116.342 12.1583C115.43 11.2689 114.974 10.1795 114.974 8.8901C114.974 7.60455 115.426 6.51902 116.33 5.6335C117.23 4.75964 118.327 4.32271 119.621 4.32271C121.305 4.32271 122.604 5.01403 123.52 6.39667C123.839 6.87439 124.04 7.35598 124.122 7.84146H121.749C121.355 6.81613 120.642 6.30346 119.609 6.30346C118.912 6.30346 118.337 6.56174 117.885 7.07829C117.453 7.57542 117.236 8.17547 117.236 8.87844C117.236 9.58919 117.453 10.197 117.885 10.7019C118.341 11.2379 118.92 11.5059 119.621 11.5059C120.588 11.5059 121.297 11.0087 121.749 10.0145H124.122Z" fill="white"/>
<path d="M50.9229 35.7221V22.1317H54.4038V32.6741H58.4423V35.7221H50.9229Z" fill="white"/>
<path d="M73.5982 28.9269C73.5982 30.923 72.8966 32.6024 71.4934 33.965C70.0963 35.3097 68.3933 35.9821 66.3845 35.9821C64.4297 35.9821 62.7537 35.3217 61.3566 34.0009C59.9294 32.6622 59.2158 31.0276 59.2158 29.0972C59.2158 28.0693 59.3927 27.1011 59.7465 26.1927C59.9324 25.7086 60.2292 25.2006 60.637 24.6687C62.0521 22.81 63.974 21.8806 66.4025 21.8806C68.4053 21.8806 70.1023 22.556 71.4934 23.9067C72.8966 25.2633 73.5982 26.9367 73.5982 28.9269ZM70.1173 28.9448C70.1173 27.8511 69.7815 26.9188 69.1099 26.1478C68.3963 25.335 67.4998 24.9286 66.4205 24.9286C65.3292 24.9286 64.4297 25.3231 63.7221 26.112C63.0385 26.871 62.6967 27.7973 62.6967 28.891C62.6967 30.0086 63.0415 30.9529 63.7311 31.7239C64.4447 32.5307 65.3531 32.9341 66.4565 32.9341C67.5178 32.9341 68.4023 32.5277 69.1099 31.7149C69.7815 30.9439 70.1173 30.0206 70.1173 28.9448Z" fill="white"/>
<path d="M83.9509 35.7221L78.761 27.4567L78.7161 27.4746L78.815 35.7221H75.478V22.1317H78.4822L83.753 30.675L83.789 30.6391L83.6361 22.1317H86.9731V35.7221H83.9509Z" fill="white"/>
<path d="M103.379 28.7117C103.379 30.7975 102.69 32.5337 101.31 33.9202C99.9253 35.3068 98.1893 36 96.1026 36C94.0878 36 92.3788 35.3157 90.9757 33.9471C89.5665 32.5666 88.8619 30.8752 88.8619 28.8731C88.8619 26.865 89.5785 25.1886 91.0117 23.8439C92.4148 22.5351 94.1298 21.8806 96.1565 21.8806C97.6676 21.8806 99.0678 22.3199 100.357 23.1985C101.694 24.1069 102.567 25.2693 102.974 26.6857H99.0708C98.4112 25.5143 97.4098 24.9286 96.0666 24.9286C94.9753 24.9286 94.0758 25.3171 93.3682 26.094C92.6846 26.8471 92.3428 27.7734 92.3428 28.8731C92.3428 30.0206 92.6756 30.9768 93.3412 31.7418C94.0428 32.5486 94.9573 32.952 96.0846 32.952C96.8701 32.952 97.5477 32.7757 98.1174 32.4231C98.729 32.0406 99.1367 31.4878 99.3406 30.7646H95.2751V27.9946H103.361C103.367 28.1021 103.373 28.2217 103.379 28.3531V28.7117Z" fill="white"/>
<path d="M124.382 30.6391C123.986 32.2349 123.149 33.5258 121.872 34.5119C120.607 35.492 119.147 35.9821 117.492 35.9821C115.501 35.9821 113.807 35.3008 112.41 33.9381C111.007 32.5695 110.305 30.8931 110.305 28.909C110.305 26.9308 111.001 25.2603 112.392 23.8977C113.777 22.553 115.465 21.8806 117.456 21.8806C120.046 21.8806 122.046 22.9445 123.455 25.0721C123.947 25.8072 124.256 26.5483 124.382 27.2953H120.73C120.124 25.7175 119.027 24.9286 117.438 24.9286C116.364 24.9286 115.48 25.3261 114.784 26.1209C114.119 26.8859 113.786 27.8093 113.786 28.891C113.786 29.9847 114.119 30.92 114.784 31.697C115.486 32.5217 116.376 32.9341 117.456 32.9341C118.943 32.9341 120.034 32.1691 120.73 30.6391H124.382Z" fill="white"/>
<path d="M134.132 35.7221V30.2895H129.67V35.7221H126.189V22.1317H129.67V27.2415H134.132V22.1317H137.613V35.7221H134.132Z" fill="white"/>
<path d="M148.865 35.7221L148.199 33.7589H143.468L142.748 35.7221H139.007L144.475 22.1317H147.219L152.642 35.7221H148.865ZM145.879 26.363H145.825L144.421 31.0067H147.282L145.879 26.363ZM146.688 20.9394L145.843 19.8815L144.997 20.9394H142.011L144.88 17.8914H146.868L149.638 20.9394H146.688Z" fill="white"/>
<path d="M164.461 30.3433C164.461 31.2697 164.383 32.0197 164.227 32.5934C164.018 33.3285 163.643 33.968 163.103 34.5119C162.138 35.492 160.866 35.9821 159.289 35.9821C158.522 35.9821 157.814 35.8715 157.167 35.6504C156.435 35.3994 155.836 35.0259 155.368 34.5298C154.792 33.9262 154.408 33.2807 154.216 32.5934C154.133 32.2827 154.073 31.933 154.037 31.5446C154.013 31.2338 154.001 30.8334 154.001 30.3433V22.1317H157.482V30.3433C157.482 30.7019 157.5 31.0097 157.535 31.2667C157.583 31.5954 157.664 31.8733 157.778 32.1004C158.054 32.6562 158.546 32.9341 159.253 32.9341C159.985 32.9341 160.477 32.6622 160.729 32.1183C160.831 31.8972 160.902 31.6223 160.944 31.2936C160.968 31.0545 160.98 30.7378 160.98 30.3433V22.1317H164.461V30.3433Z" fill="white"/>
</svg>
